M48
;GenerationSoftware,Autodesk,EAGLE,9.6.2*%
;CreationDate,2021-09-10T18:39:01Z*%
FMAT,2
ICI,OFF
METRIC,TZ,000.000
T12C0.305
T11C0.350
T10C0.381
T9C0.400
T8C0.508
T7C0.650
T6C1.000
T5C1.016
T4C1.100
T3C1.600
T2C3.048
T1C3.800
%
G90
M71
T1
X81220Y21057
X43320Y98704
X81220Y98781
X24997Y104998
X119620Y21006
X24997Y27274
X119620Y98730
X43320Y20980
T2
X121920Y80264
X2540Y80264
X2540Y22860
X2540Y71120
X121920Y71120
X121920Y2540
X2540Y2540
X2540Y100584
X2540Y148844
X121920Y148844
T3
X38956Y125222
X72230Y140970
X110584Y140970
X38956Y47498
X72230Y63246
X110584Y63246
T4
X90584Y63246
X18956Y125222
X52230Y140970
X90584Y140970
X18956Y47498
X52230Y63246
T5
X42672Y141097
X4115Y53746
X10770Y33807
X31242Y63627
X33782Y63373
X45212Y141351
X36322Y63627
X40132Y63627
X42672Y63373
X45212Y63627
X13310Y33807
X4115Y131470
X13310Y111531
X10770Y111531
X31242Y141351
X33782Y141097
X36322Y141351
X40132Y141351
T6
X28450Y83058
X20450Y83058
X28450Y5334
X20450Y5334
T7
X7270Y5311
X13050Y5311
X13050Y83035
X7270Y83035
T8
X2476Y141230
X3746Y139960
X3746Y138690
X3746Y136150
X3746Y141230
X3746Y58426
X2476Y137420
X3746Y63506
X2476Y62236
X2476Y60966
X2476Y59696
X2476Y58426
X2476Y63506
X3746Y62236
X3746Y60966
X3746Y59696
X3746Y137420
X2476Y139960
X2476Y138690
X2476Y136150
T9
X14478Y79385
X14478Y83565
X5842Y79385
X5842Y1661
X5842Y5841
X5842Y83565
X14478Y5841
X14478Y1661
T10
X20955Y59309
X20955Y137033
T11
X19558Y43688
X16205Y43688
X109322Y59411
X17551Y59258
X19558Y121412
X17551Y136982
X70968Y137058
X16205Y121412
X109322Y137135
X70968Y59334
T12
X38100Y29723
X49022Y68580
X70815Y67031
X109423Y67081
X98298Y68580
X10668Y41910
X7366Y62738
X16332Y62662
X18669Y34036
X74117Y63703
X76860Y66624
X36551Y48336
X31496Y60477
X39624Y58420
X65278Y51562
X73406Y43434
X37084Y49022
X41148Y58420
X41173Y60350
X24638Y34493
X21107Y38024
X24130Y47244
X25578Y48616
X50292Y67056
X57963Y67005
X58369Y72822
X58141Y70155
X23851Y34519
X21184Y37109
X23876Y48006
X25044Y49251
X50089Y67793
X57328Y67310
X57404Y72136
X57404Y70104
X67310Y65024
X67056Y66523
X66802Y64491
X66548Y67132
X67818Y64008
X67818Y66548
X74752Y63297
X77368Y66116
X22352Y37668
X24765Y35484
X22454Y38532
X25451Y35535
X23705Y60705
X28628Y60690
X55470Y66134
X56500Y66154
X81966Y51587
X77260Y56522
X65024Y65024
X65024Y66548
X52950Y66040
X53990Y66031
X35306Y51562
X34231Y51562
X50856Y66520
X50881Y64925
X34544Y49784
X32766Y51562
X18136Y49530
X7112Y49530
X22073Y50902
X8382Y45212
X63670Y66446
X62967Y67259
X19685Y61976
X6604Y61976
X19050Y61468
X6858Y61214
X96774Y66802
X95250Y65278
X22606Y39624
X26137Y36093
X97282Y62484
X98806Y62484
X7747Y30099
X10084Y12395
X27991Y51511
X12802Y50267
X10160Y27965
X14046Y27915
X62560Y51460
X72238Y41504
X20879Y36373
X27305Y32766
X74676Y45974
X64262Y56642
X64516Y64440
X64465Y67158
X97053Y63144
X23114Y40132
X26416Y36830
X100838Y65024
X24196Y60135
X29305Y60533
X23114Y58242
X28880Y57836
X22606Y57734
X28423Y57277
X75184Y44704
X65278Y54356
X42723Y53746
X42672Y58420
X36322Y60884
X74168Y44704
X65024Y53594
X43663Y53238
X43434Y58420
X44806Y60452
X64140Y53031
X74138Y43557
X64745Y50343
X72365Y42494
X100127Y63856
X96876Y63856
X79502Y58166
X69367Y58268
X65659Y50267
X72746Y43155
X73914Y61468
X68326Y67031
X33528Y30734
X34036Y39751
X3302Y27940
X3378Y31852
X82550Y59436
X96012Y59436
X12979Y53619
X17348Y53594
X10033Y13437
X40386Y53823
X40386Y58420
X33884Y60528
X41910Y53823
X41885Y58445
X41935Y60376
X11024Y109753
X7468Y134264
X12014Y132690
X13589Y136144
X14834Y89306
X5944Y89306
X7188Y117145
X7188Y115367
X7188Y113589
X10566Y102845
X10566Y101041
X10541Y98984
X9246Y138328
X9246Y140995
X109880Y147523
X22581Y98450
X21819Y95529
X21946Y91846
X22936Y138024
X21666Y135738
X28270Y139268
X27864Y134264
X19380Y140564
X32080Y129108
X35966Y128778
X24587Y127610
X19736Y128143
X13005Y128651
X13157Y132156
X9093Y121793
X32258Y94386
X100254Y143485
X94615Y143764
X71552Y144882
X69190Y144653
X96037Y140843
X52756Y147676
X90932Y147803
X91313Y144424
X74041Y140208
X76073Y144475
X67081Y141300
X6299Y70587
X63500Y143256
X57556Y143764
X57328Y150597
X50089Y142545
X29261Y133401
X30810Y132410
X61260Y140386
X37811Y129293
X98717Y136223
X75705Y123472
X71336Y119205
X63361Y129924
X63411Y134140
X79312Y134953
X82106Y130432
X22416Y127689
X27191Y115039
X21755Y116970
X20028Y113769
X34455Y108080
X7722Y110414
X19761Y138532
X31064Y149073
X41986Y148819
X21031Y147676
X14935Y148184
X6299Y148311
X13310Y91338
X17501Y95656
X35052Y124638
X41011Y129293
X44425Y136119
X45593Y137871
X42672Y130632
X35433Y138506
X30353Y137998
X64643Y132664
X37453Y125987
X34786Y128197
X17399Y144018
X8052Y121844
X13843Y126060
X8915Y85115
X7925Y86157
X20320Y127762
X21184Y128575
X11024Y32029
X7468Y56540
X38100Y121412
X38100Y107447
X49022Y146304
X70815Y144755
X109423Y144805
X98298Y146304
X10668Y119634
X7366Y140462
X16332Y140386
X18669Y111760
X74117Y141427
X76860Y144348
X36551Y126060
X31496Y138201
X39624Y136144
X65278Y129286
X73406Y121158
X37084Y126746
X41148Y136144
X41173Y138074
X24638Y112217
X21107Y115748
X24130Y124968
X25578Y126340
X50292Y144780
X57963Y144729
X58369Y150546
X58141Y147879
X23851Y112243
X21184Y114833
X23876Y125730
X25044Y126975
X50089Y145517
X57328Y145034
X57404Y149860
X57404Y147828
X67310Y142748
X67056Y144247
X66802Y142215
X66548Y144856
X67818Y141732
X67818Y144272
X74752Y141021
X77368Y143840
X22352Y115392
X24765Y113208
X22454Y116256
X25451Y113259
X23705Y138429
X28628Y138414
X55470Y143858
X56500Y143878
X81966Y129311
X77260Y134246
X65024Y142748
X65024Y144272
X52950Y143764
X53990Y143755
X35306Y129286
X34231Y129286
X50856Y144244
X50881Y142649
X34544Y127508
X32766Y129286
X18136Y127254
X7112Y127254
X22073Y128626
X8382Y122936
X63670Y144170
X62967Y144983
X19685Y139700
X6604Y139700
X19050Y139192
X6858Y138938
X96774Y144526
X95250Y143002
X22606Y117348
X26137Y113817
X97282Y140208
X98806Y140208
X7747Y107823
X10084Y90119
X27991Y129235
X12802Y127991
X10160Y105689
X14046Y105639
X62560Y129184
X72238Y119228
X20879Y114097
X27305Y110490
X12014Y54966
X64262Y134366
X64516Y142164
X64465Y144882
X97053Y140868
X23114Y117856
X26416Y114554
X100838Y142748
X24196Y137859
X29305Y138257
X23114Y135966
X28880Y135560
X22606Y135458
X28423Y135001
X75184Y122428
X65278Y132080
X42723Y131470
X42672Y136144
X36322Y138608
X74168Y122428
X65024Y131318
X43663Y130962
X43434Y136144
X44806Y138176
X64140Y130755
X74138Y121281
X64745Y128067
X72365Y120218
X100127Y141580
X96876Y141580
X79502Y135890
X69367Y135992
X65659Y127991
X72746Y120879
X73914Y139192
X68326Y144755
X33528Y108458
X34036Y117475
X3302Y105664
X3378Y109576
X13589Y58420
X14834Y11582
X5944Y11582
X82550Y137160
X96012Y137160
X12979Y131343
X17348Y131318
X7188Y39421
X10033Y91161
X40386Y131547
X40386Y136144
X33884Y138252
X41910Y131547
X41885Y136169
X41935Y138100
X7188Y37643
X7188Y35865
X10566Y25121
X10566Y23317
X10541Y21260
X9246Y60604
X9246Y63271
X109880Y69799
X22581Y20726
X21819Y17805
X21946Y14122
X22936Y60300
X21666Y58014
X28270Y61544
X65862Y142748
X27864Y56540
X19380Y62840
X32080Y51384
X35966Y51054
X24587Y49886
X19736Y50419
X13005Y50927
X13157Y54432
X9093Y44069
X32258Y16662
X100254Y65761
X94615Y66040
X71552Y67158
X69190Y66929
X96037Y63119
X52756Y69952
X90932Y70079
X91313Y66700
X74041Y62484
X76073Y66751
X67081Y63576
X65862Y65024
X63500Y65532
X57556Y66040
X57328Y72873
X50089Y64821
X29261Y55677
X30810Y54686
X61260Y62662
X37811Y51569
X98717Y58499
X75705Y45748
X71336Y41481
X63361Y52200
X63411Y56416
X79312Y57229
X82106Y52708
X22416Y49965
X27191Y37315
X21755Y39246
X20028Y36045
X34455Y30356
X7722Y32690
X19761Y60808
X31064Y71349
X41986Y71095
X21031Y69952
X14935Y70460
X13310Y13614
X17501Y17932
X35052Y46914
X41011Y51569
X44425Y58395
X45593Y60147
X42672Y52908
X35433Y60782
X30353Y60274
X64643Y54940
X37453Y48263
X34786Y50473
X17399Y66294
X8052Y44120
X13843Y48336
X8915Y7391
X7925Y8433
X20320Y50038
X21184Y50851
X38100Y43688
X74676Y123698
M30