G04 EAGLE Gerber RS-274X export*
G75*
%MOMM*%
%FSLAX34Y34*%
%LPD*%
%INSolderpaste Top*%
%IPPOS*%
%AMOC8*
5,1,8,0,0,1.08239X$1,22.5*%
G01*
%ADD10C,0.102000*%
%ADD11C,0.096000*%
%ADD12R,0.300000X1.750000*%
%ADD13C,0.100000*%
%ADD14C,0.099000*%
%ADD15C,0.300000*%
%ADD16C,0.100800*%
%ADD17C,0.099059*%
%ADD18R,1.375000X0.800000*%
%ADD19C,0.104000*%
%ADD20C,0.105000*%
%ADD21C,0.098000*%

G36*
X246031Y242253D02*
X246031Y242253D01*
X246076Y242254D01*
X246127Y242276D01*
X246182Y242289D01*
X246218Y242315D01*
X246258Y242333D01*
X246297Y242374D01*
X246342Y242407D01*
X246365Y242445D01*
X246395Y242477D01*
X246415Y242530D01*
X246444Y242578D01*
X246452Y242629D01*
X246465Y242663D01*
X246464Y242697D01*
X246471Y242742D01*
X246471Y253742D01*
X246461Y253795D01*
X246460Y253848D01*
X246441Y253891D01*
X246432Y253937D01*
X246401Y253981D01*
X246380Y254030D01*
X246346Y254062D01*
X246319Y254101D01*
X246274Y254130D01*
X246235Y254166D01*
X246184Y254187D01*
X246152Y254208D01*
X246120Y254213D01*
X246081Y254229D01*
X243346Y254840D01*
X240782Y255868D01*
X238418Y257295D01*
X236314Y259084D01*
X234525Y261188D01*
X233098Y263552D01*
X232070Y266116D01*
X231459Y268851D01*
X231437Y268900D01*
X231425Y268952D01*
X231397Y268990D01*
X231378Y269032D01*
X231339Y269069D01*
X231307Y269112D01*
X231267Y269136D01*
X231233Y269168D01*
X231182Y269186D01*
X231136Y269214D01*
X231082Y269223D01*
X231046Y269236D01*
X231014Y269234D01*
X230972Y269241D01*
X219972Y269241D01*
X219917Y269230D01*
X219861Y269229D01*
X219820Y269210D01*
X219777Y269202D01*
X219731Y269170D01*
X219680Y269147D01*
X219650Y269114D01*
X219613Y269089D01*
X219583Y269042D01*
X219545Y269000D01*
X219530Y268959D01*
X219506Y268922D01*
X219497Y268866D01*
X219478Y268813D01*
X219479Y268761D01*
X219473Y268725D01*
X219481Y268693D01*
X219481Y268688D01*
X219481Y268686D01*
X219481Y268685D01*
X219482Y268647D01*
X220321Y264326D01*
X220333Y264297D01*
X220341Y264255D01*
X221810Y260105D01*
X221826Y260078D01*
X221840Y260038D01*
X223906Y256151D01*
X223926Y256127D01*
X223945Y256089D01*
X226563Y252550D01*
X226587Y252529D01*
X226612Y252494D01*
X229724Y249382D01*
X229739Y249372D01*
X229747Y249361D01*
X229762Y249352D01*
X229780Y249333D01*
X233319Y246715D01*
X233347Y246702D01*
X233381Y246676D01*
X237268Y244610D01*
X237298Y244601D01*
X237335Y244580D01*
X241485Y243111D01*
X241516Y243106D01*
X241556Y243091D01*
X245877Y242252D01*
X245933Y242252D01*
X245989Y242243D01*
X246031Y242253D01*
G37*
G36*
X808259Y180077D02*
X808259Y180077D01*
X808304Y180078D01*
X808355Y180100D01*
X808410Y180113D01*
X808446Y180139D01*
X808486Y180157D01*
X808525Y180198D01*
X808570Y180231D01*
X808593Y180269D01*
X808623Y180301D01*
X808643Y180354D01*
X808672Y180402D01*
X808680Y180453D01*
X808693Y180487D01*
X808692Y180521D01*
X808699Y180566D01*
X808699Y191566D01*
X808689Y191619D01*
X808688Y191672D01*
X808669Y191715D01*
X808660Y191761D01*
X808629Y191805D01*
X808608Y191854D01*
X808574Y191886D01*
X808547Y191925D01*
X808502Y191954D01*
X808463Y191990D01*
X808412Y192011D01*
X808380Y192032D01*
X808348Y192037D01*
X808309Y192053D01*
X805574Y192664D01*
X803010Y193692D01*
X800646Y195119D01*
X798542Y196908D01*
X796753Y199012D01*
X795326Y201376D01*
X794298Y203940D01*
X793687Y206675D01*
X793665Y206724D01*
X793653Y206776D01*
X793625Y206814D01*
X793606Y206856D01*
X793567Y206893D01*
X793535Y206936D01*
X793495Y206960D01*
X793461Y206992D01*
X793410Y207010D01*
X793364Y207038D01*
X793310Y207047D01*
X793274Y207060D01*
X793242Y207058D01*
X793200Y207065D01*
X782200Y207065D01*
X782145Y207054D01*
X782089Y207053D01*
X782048Y207034D01*
X782005Y207026D01*
X781959Y206994D01*
X781908Y206971D01*
X781878Y206938D01*
X781841Y206913D01*
X781811Y206866D01*
X781773Y206824D01*
X781758Y206783D01*
X781734Y206746D01*
X781725Y206690D01*
X781706Y206637D01*
X781707Y206585D01*
X781701Y206549D01*
X781709Y206517D01*
X781709Y206512D01*
X781709Y206510D01*
X781709Y206509D01*
X781710Y206471D01*
X782549Y202150D01*
X782561Y202121D01*
X782569Y202079D01*
X784038Y197929D01*
X784054Y197902D01*
X784068Y197862D01*
X786134Y193975D01*
X786154Y193951D01*
X786173Y193913D01*
X788791Y190374D01*
X788815Y190353D01*
X788840Y190318D01*
X791952Y187206D01*
X791967Y187196D01*
X791975Y187185D01*
X791990Y187176D01*
X792008Y187157D01*
X795547Y184539D01*
X795575Y184526D01*
X795609Y184500D01*
X799496Y182434D01*
X799526Y182425D01*
X799563Y182404D01*
X803713Y180935D01*
X803744Y180930D01*
X803784Y180915D01*
X808105Y180076D01*
X808161Y180076D01*
X808217Y180067D01*
X808259Y180077D01*
G37*
G36*
X1192259Y179569D02*
X1192259Y179569D01*
X1192304Y179570D01*
X1192355Y179592D01*
X1192410Y179605D01*
X1192446Y179631D01*
X1192486Y179649D01*
X1192525Y179690D01*
X1192570Y179723D01*
X1192593Y179761D01*
X1192623Y179793D01*
X1192643Y179846D01*
X1192672Y179894D01*
X1192680Y179945D01*
X1192693Y179979D01*
X1192692Y180013D01*
X1192699Y180058D01*
X1192699Y191058D01*
X1192689Y191111D01*
X1192688Y191164D01*
X1192669Y191207D01*
X1192660Y191253D01*
X1192629Y191297D01*
X1192608Y191346D01*
X1192574Y191378D01*
X1192547Y191417D01*
X1192502Y191446D01*
X1192463Y191482D01*
X1192412Y191503D01*
X1192380Y191524D01*
X1192348Y191529D01*
X1192309Y191545D01*
X1189574Y192156D01*
X1187010Y193184D01*
X1184646Y194611D01*
X1182542Y196400D01*
X1180753Y198504D01*
X1179326Y200868D01*
X1178298Y203432D01*
X1177687Y206167D01*
X1177665Y206216D01*
X1177653Y206268D01*
X1177625Y206306D01*
X1177606Y206348D01*
X1177567Y206385D01*
X1177535Y206428D01*
X1177495Y206452D01*
X1177461Y206484D01*
X1177410Y206502D01*
X1177364Y206530D01*
X1177310Y206539D01*
X1177274Y206552D01*
X1177242Y206550D01*
X1177200Y206557D01*
X1166200Y206557D01*
X1166145Y206546D01*
X1166089Y206545D01*
X1166048Y206526D01*
X1166005Y206518D01*
X1165959Y206486D01*
X1165908Y206463D01*
X1165878Y206430D01*
X1165841Y206405D01*
X1165811Y206358D01*
X1165773Y206316D01*
X1165758Y206275D01*
X1165734Y206238D01*
X1165725Y206182D01*
X1165706Y206129D01*
X1165707Y206077D01*
X1165701Y206041D01*
X1165709Y206009D01*
X1165709Y206004D01*
X1165709Y206002D01*
X1165709Y206001D01*
X1165710Y205963D01*
X1166549Y201642D01*
X1166561Y201613D01*
X1166569Y201571D01*
X1168038Y197421D01*
X1168054Y197394D01*
X1168068Y197354D01*
X1170134Y193467D01*
X1170154Y193443D01*
X1170173Y193405D01*
X1172791Y189866D01*
X1172815Y189845D01*
X1172840Y189810D01*
X1175952Y186698D01*
X1175967Y186688D01*
X1175975Y186677D01*
X1175990Y186668D01*
X1176008Y186649D01*
X1179547Y184031D01*
X1179575Y184018D01*
X1179609Y183992D01*
X1183496Y181926D01*
X1183526Y181917D01*
X1183563Y181896D01*
X1187713Y180427D01*
X1187744Y180422D01*
X1187784Y180407D01*
X1192105Y179568D01*
X1192161Y179568D01*
X1192217Y179559D01*
X1192259Y179569D01*
G37*
G36*
X429259Y179315D02*
X429259Y179315D01*
X429304Y179316D01*
X429355Y179338D01*
X429410Y179351D01*
X429446Y179377D01*
X429486Y179395D01*
X429525Y179436D01*
X429570Y179469D01*
X429593Y179507D01*
X429623Y179539D01*
X429643Y179592D01*
X429672Y179640D01*
X429680Y179691D01*
X429693Y179725D01*
X429692Y179759D01*
X429699Y179804D01*
X429699Y190804D01*
X429689Y190857D01*
X429688Y190910D01*
X429669Y190953D01*
X429660Y190999D01*
X429629Y191043D01*
X429608Y191092D01*
X429574Y191124D01*
X429547Y191163D01*
X429502Y191192D01*
X429463Y191228D01*
X429412Y191249D01*
X429380Y191270D01*
X429348Y191275D01*
X429309Y191291D01*
X426574Y191902D01*
X424010Y192930D01*
X421646Y194357D01*
X419542Y196146D01*
X417753Y198250D01*
X416326Y200614D01*
X415298Y203178D01*
X414687Y205913D01*
X414665Y205962D01*
X414653Y206014D01*
X414625Y206052D01*
X414606Y206094D01*
X414567Y206131D01*
X414535Y206174D01*
X414495Y206198D01*
X414461Y206230D01*
X414410Y206248D01*
X414364Y206276D01*
X414310Y206285D01*
X414274Y206298D01*
X414242Y206296D01*
X414200Y206303D01*
X403200Y206303D01*
X403145Y206292D01*
X403089Y206291D01*
X403048Y206272D01*
X403005Y206264D01*
X402959Y206232D01*
X402908Y206209D01*
X402878Y206176D01*
X402841Y206151D01*
X402811Y206104D01*
X402773Y206062D01*
X402758Y206021D01*
X402734Y205984D01*
X402725Y205928D01*
X402706Y205875D01*
X402707Y205823D01*
X402701Y205787D01*
X402709Y205755D01*
X402709Y205750D01*
X402709Y205748D01*
X402709Y205747D01*
X402710Y205709D01*
X403549Y201388D01*
X403561Y201359D01*
X403569Y201317D01*
X405038Y197167D01*
X405054Y197140D01*
X405068Y197100D01*
X407134Y193213D01*
X407154Y193189D01*
X407173Y193151D01*
X409791Y189612D01*
X409815Y189591D01*
X409840Y189556D01*
X412952Y186444D01*
X412967Y186434D01*
X412975Y186423D01*
X412990Y186414D01*
X413008Y186395D01*
X416547Y183777D01*
X416575Y183764D01*
X416609Y183738D01*
X420496Y181672D01*
X420526Y181663D01*
X420563Y181642D01*
X424713Y180173D01*
X424744Y180168D01*
X424784Y180153D01*
X429105Y179314D01*
X429161Y179314D01*
X429217Y179305D01*
X429259Y179315D01*
G37*
G36*
X231025Y276253D02*
X231025Y276253D01*
X231078Y276254D01*
X231121Y276273D01*
X231167Y276282D01*
X231211Y276313D01*
X231260Y276334D01*
X231292Y276368D01*
X231331Y276395D01*
X231360Y276440D01*
X231396Y276479D01*
X231417Y276530D01*
X231438Y276562D01*
X231443Y276594D01*
X231459Y276633D01*
X232070Y279368D01*
X233098Y281932D01*
X234525Y284296D01*
X236314Y286400D01*
X238418Y288189D01*
X240782Y289616D01*
X243346Y290644D01*
X246081Y291255D01*
X246130Y291277D01*
X246182Y291289D01*
X246220Y291317D01*
X246262Y291336D01*
X246299Y291375D01*
X246342Y291407D01*
X246366Y291447D01*
X246398Y291481D01*
X246416Y291532D01*
X246444Y291578D01*
X246453Y291632D01*
X246466Y291668D01*
X246464Y291700D01*
X246471Y291742D01*
X246471Y302742D01*
X246460Y302797D01*
X246459Y302853D01*
X246440Y302894D01*
X246432Y302937D01*
X246400Y302983D01*
X246377Y303035D01*
X246344Y303064D01*
X246319Y303101D01*
X246272Y303131D01*
X246230Y303169D01*
X246189Y303184D01*
X246152Y303208D01*
X246096Y303217D01*
X246043Y303236D01*
X245991Y303235D01*
X245955Y303241D01*
X245923Y303233D01*
X245877Y303232D01*
X241556Y302393D01*
X241527Y302381D01*
X241485Y302373D01*
X237335Y300904D01*
X237308Y300888D01*
X237268Y300874D01*
X233381Y298808D01*
X233357Y298788D01*
X233319Y298769D01*
X229780Y296151D01*
X229759Y296127D01*
X229724Y296102D01*
X226612Y292990D01*
X226594Y292964D01*
X226563Y292934D01*
X223945Y289396D01*
X223932Y289367D01*
X223906Y289333D01*
X221840Y285446D01*
X221833Y285423D01*
X221824Y285409D01*
X221823Y285401D01*
X221810Y285379D01*
X220341Y281229D01*
X220336Y281198D01*
X220321Y281158D01*
X219482Y276837D01*
X219482Y276781D01*
X219473Y276725D01*
X219483Y276683D01*
X219484Y276638D01*
X219506Y276587D01*
X219519Y276532D01*
X219545Y276497D01*
X219563Y276456D01*
X219604Y276417D01*
X219637Y276372D01*
X219675Y276349D01*
X219707Y276319D01*
X219760Y276299D01*
X219808Y276270D01*
X219859Y276262D01*
X219893Y276249D01*
X219927Y276250D01*
X219972Y276243D01*
X230972Y276243D01*
X231025Y276253D01*
G37*
G36*
X793253Y214077D02*
X793253Y214077D01*
X793306Y214078D01*
X793349Y214097D01*
X793395Y214106D01*
X793439Y214137D01*
X793488Y214158D01*
X793520Y214192D01*
X793559Y214219D01*
X793588Y214264D01*
X793624Y214303D01*
X793645Y214354D01*
X793666Y214386D01*
X793671Y214418D01*
X793687Y214457D01*
X794298Y217192D01*
X795326Y219756D01*
X796753Y222120D01*
X798542Y224224D01*
X800646Y226013D01*
X803010Y227440D01*
X805574Y228468D01*
X808309Y229079D01*
X808358Y229101D01*
X808410Y229113D01*
X808448Y229141D01*
X808490Y229160D01*
X808527Y229199D01*
X808570Y229231D01*
X808594Y229271D01*
X808626Y229305D01*
X808644Y229356D01*
X808672Y229402D01*
X808681Y229456D01*
X808694Y229492D01*
X808692Y229524D01*
X808699Y229566D01*
X808699Y240566D01*
X808688Y240621D01*
X808687Y240677D01*
X808668Y240718D01*
X808660Y240761D01*
X808628Y240807D01*
X808605Y240859D01*
X808572Y240888D01*
X808547Y240925D01*
X808500Y240955D01*
X808458Y240993D01*
X808417Y241008D01*
X808380Y241032D01*
X808324Y241041D01*
X808271Y241060D01*
X808219Y241059D01*
X808183Y241065D01*
X808151Y241057D01*
X808105Y241056D01*
X803784Y240217D01*
X803755Y240205D01*
X803713Y240197D01*
X799563Y238728D01*
X799536Y238712D01*
X799496Y238698D01*
X795609Y236632D01*
X795585Y236612D01*
X795547Y236593D01*
X792008Y233975D01*
X791987Y233951D01*
X791952Y233926D01*
X788840Y230814D01*
X788822Y230788D01*
X788791Y230758D01*
X786173Y227220D01*
X786160Y227191D01*
X786134Y227157D01*
X784068Y223270D01*
X784061Y223247D01*
X784052Y223233D01*
X784051Y223225D01*
X784038Y223203D01*
X782569Y219053D01*
X782564Y219022D01*
X782549Y218982D01*
X781710Y214661D01*
X781710Y214605D01*
X781701Y214549D01*
X781711Y214507D01*
X781712Y214462D01*
X781734Y214411D01*
X781747Y214356D01*
X781773Y214321D01*
X781791Y214280D01*
X781832Y214241D01*
X781865Y214196D01*
X781903Y214173D01*
X781935Y214143D01*
X781988Y214123D01*
X782036Y214094D01*
X782087Y214086D01*
X782121Y214073D01*
X782155Y214074D01*
X782200Y214067D01*
X793200Y214067D01*
X793253Y214077D01*
G37*
G36*
X1177253Y213569D02*
X1177253Y213569D01*
X1177306Y213570D01*
X1177349Y213589D01*
X1177395Y213598D01*
X1177439Y213629D01*
X1177488Y213650D01*
X1177520Y213684D01*
X1177559Y213711D01*
X1177588Y213756D01*
X1177624Y213795D01*
X1177645Y213846D01*
X1177666Y213878D01*
X1177671Y213910D01*
X1177687Y213949D01*
X1178298Y216684D01*
X1179326Y219248D01*
X1180753Y221612D01*
X1182542Y223716D01*
X1184646Y225505D01*
X1187010Y226932D01*
X1189574Y227960D01*
X1192309Y228571D01*
X1192358Y228593D01*
X1192410Y228605D01*
X1192448Y228633D01*
X1192490Y228652D01*
X1192527Y228691D01*
X1192570Y228723D01*
X1192594Y228763D01*
X1192626Y228797D01*
X1192644Y228848D01*
X1192672Y228894D01*
X1192681Y228948D01*
X1192694Y228984D01*
X1192692Y229016D01*
X1192699Y229058D01*
X1192699Y240058D01*
X1192688Y240113D01*
X1192687Y240169D01*
X1192668Y240210D01*
X1192660Y240253D01*
X1192628Y240299D01*
X1192605Y240351D01*
X1192572Y240380D01*
X1192547Y240417D01*
X1192500Y240447D01*
X1192458Y240485D01*
X1192417Y240500D01*
X1192380Y240524D01*
X1192324Y240533D01*
X1192271Y240552D01*
X1192219Y240551D01*
X1192183Y240557D01*
X1192151Y240549D01*
X1192105Y240548D01*
X1187784Y239709D01*
X1187755Y239697D01*
X1187713Y239689D01*
X1183563Y238220D01*
X1183536Y238204D01*
X1183496Y238190D01*
X1179609Y236124D01*
X1179585Y236104D01*
X1179547Y236085D01*
X1176008Y233467D01*
X1175987Y233443D01*
X1175952Y233418D01*
X1172840Y230306D01*
X1172822Y230280D01*
X1172791Y230250D01*
X1170173Y226712D01*
X1170160Y226683D01*
X1170134Y226649D01*
X1168068Y222762D01*
X1168061Y222739D01*
X1168052Y222725D01*
X1168051Y222717D01*
X1168038Y222695D01*
X1166569Y218545D01*
X1166564Y218514D01*
X1166549Y218474D01*
X1165710Y214153D01*
X1165710Y214097D01*
X1165701Y214041D01*
X1165711Y213999D01*
X1165712Y213954D01*
X1165734Y213903D01*
X1165747Y213848D01*
X1165773Y213813D01*
X1165791Y213772D01*
X1165832Y213733D01*
X1165865Y213688D01*
X1165903Y213665D01*
X1165935Y213635D01*
X1165988Y213615D01*
X1166036Y213586D01*
X1166087Y213578D01*
X1166121Y213565D01*
X1166155Y213566D01*
X1166200Y213559D01*
X1177200Y213559D01*
X1177253Y213569D01*
G37*
G36*
X414253Y213315D02*
X414253Y213315D01*
X414306Y213316D01*
X414349Y213335D01*
X414395Y213344D01*
X414439Y213375D01*
X414488Y213396D01*
X414520Y213430D01*
X414559Y213457D01*
X414588Y213502D01*
X414624Y213541D01*
X414645Y213592D01*
X414666Y213624D01*
X414671Y213656D01*
X414687Y213695D01*
X415298Y216430D01*
X416326Y218994D01*
X417753Y221358D01*
X419542Y223462D01*
X421646Y225251D01*
X424010Y226678D01*
X426574Y227706D01*
X429309Y228317D01*
X429358Y228339D01*
X429410Y228351D01*
X429448Y228379D01*
X429490Y228398D01*
X429527Y228437D01*
X429570Y228469D01*
X429594Y228509D01*
X429626Y228543D01*
X429644Y228594D01*
X429672Y228640D01*
X429681Y228694D01*
X429694Y228730D01*
X429692Y228762D01*
X429699Y228804D01*
X429699Y239804D01*
X429688Y239859D01*
X429687Y239915D01*
X429668Y239956D01*
X429660Y239999D01*
X429628Y240045D01*
X429605Y240097D01*
X429572Y240126D01*
X429547Y240163D01*
X429500Y240193D01*
X429458Y240231D01*
X429417Y240246D01*
X429380Y240270D01*
X429324Y240279D01*
X429271Y240298D01*
X429219Y240297D01*
X429183Y240303D01*
X429151Y240295D01*
X429105Y240294D01*
X424784Y239455D01*
X424755Y239443D01*
X424713Y239435D01*
X420563Y237966D01*
X420536Y237950D01*
X420496Y237936D01*
X416609Y235870D01*
X416585Y235850D01*
X416547Y235831D01*
X413008Y233213D01*
X412987Y233189D01*
X412952Y233164D01*
X409840Y230052D01*
X409822Y230026D01*
X409791Y229996D01*
X407173Y226458D01*
X407160Y226429D01*
X407134Y226395D01*
X405068Y222508D01*
X405061Y222485D01*
X405052Y222471D01*
X405051Y222463D01*
X405038Y222441D01*
X403569Y218291D01*
X403564Y218260D01*
X403549Y218220D01*
X402710Y213899D01*
X402710Y213843D01*
X402701Y213787D01*
X402711Y213745D01*
X402712Y213700D01*
X402734Y213649D01*
X402747Y213594D01*
X402773Y213559D01*
X402791Y213518D01*
X402832Y213479D01*
X402865Y213434D01*
X402903Y213411D01*
X402935Y213381D01*
X402988Y213361D01*
X403036Y213332D01*
X403087Y213324D01*
X403121Y213311D01*
X403155Y213312D01*
X403200Y213305D01*
X414200Y213305D01*
X414253Y213315D01*
G37*
G36*
X280027Y276254D02*
X280027Y276254D01*
X280083Y276255D01*
X280124Y276274D01*
X280167Y276282D01*
X280213Y276314D01*
X280265Y276337D01*
X280294Y276370D01*
X280331Y276395D01*
X280361Y276442D01*
X280399Y276484D01*
X280414Y276525D01*
X280438Y276562D01*
X280447Y276618D01*
X280466Y276671D01*
X280465Y276723D01*
X280471Y276759D01*
X280463Y276791D01*
X280462Y276837D01*
X279623Y281158D01*
X279611Y281187D01*
X279603Y281229D01*
X278134Y285379D01*
X278118Y285406D01*
X278109Y285433D01*
X278107Y285439D01*
X278106Y285441D01*
X278104Y285446D01*
X276038Y289333D01*
X276018Y289357D01*
X275999Y289396D01*
X273381Y292934D01*
X273357Y292955D01*
X273332Y292990D01*
X270220Y296102D01*
X270194Y296120D01*
X270164Y296151D01*
X266626Y298769D01*
X266597Y298782D01*
X266563Y298808D01*
X262676Y300874D01*
X262646Y300883D01*
X262609Y300904D01*
X258459Y302373D01*
X258428Y302378D01*
X258388Y302393D01*
X254067Y303232D01*
X254011Y303232D01*
X253955Y303241D01*
X253913Y303231D01*
X253868Y303230D01*
X253817Y303208D01*
X253762Y303195D01*
X253727Y303169D01*
X253686Y303151D01*
X253647Y303110D01*
X253602Y303077D01*
X253579Y303039D01*
X253549Y303007D01*
X253529Y302954D01*
X253500Y302906D01*
X253492Y302855D01*
X253479Y302821D01*
X253480Y302787D01*
X253473Y302742D01*
X253473Y291742D01*
X253483Y291689D01*
X253484Y291636D01*
X253503Y291593D01*
X253512Y291547D01*
X253543Y291503D01*
X253564Y291454D01*
X253598Y291422D01*
X253625Y291383D01*
X253670Y291354D01*
X253709Y291318D01*
X253760Y291297D01*
X253792Y291276D01*
X253824Y291271D01*
X253863Y291255D01*
X256598Y290644D01*
X259162Y289616D01*
X261526Y288189D01*
X263630Y286400D01*
X265419Y284296D01*
X266846Y281932D01*
X267874Y279368D01*
X268485Y276633D01*
X268507Y276584D01*
X268519Y276532D01*
X268547Y276494D01*
X268566Y276452D01*
X268605Y276415D01*
X268637Y276372D01*
X268677Y276348D01*
X268711Y276316D01*
X268762Y276298D01*
X268808Y276270D01*
X268862Y276261D01*
X268898Y276248D01*
X268930Y276250D01*
X268972Y276243D01*
X279972Y276243D01*
X280027Y276254D01*
G37*
G36*
X842255Y214078D02*
X842255Y214078D01*
X842311Y214079D01*
X842352Y214098D01*
X842395Y214106D01*
X842441Y214138D01*
X842493Y214161D01*
X842522Y214194D01*
X842559Y214219D01*
X842589Y214266D01*
X842627Y214308D01*
X842642Y214349D01*
X842666Y214386D01*
X842675Y214442D01*
X842694Y214495D01*
X842693Y214547D01*
X842699Y214583D01*
X842691Y214615D01*
X842690Y214661D01*
X841851Y218982D01*
X841839Y219011D01*
X841831Y219053D01*
X840362Y223203D01*
X840346Y223230D01*
X840337Y223257D01*
X840335Y223263D01*
X840334Y223265D01*
X840332Y223270D01*
X838266Y227157D01*
X838246Y227181D01*
X838227Y227220D01*
X835609Y230758D01*
X835585Y230779D01*
X835560Y230814D01*
X832448Y233926D01*
X832422Y233944D01*
X832392Y233975D01*
X828854Y236593D01*
X828825Y236606D01*
X828791Y236632D01*
X824904Y238698D01*
X824874Y238707D01*
X824837Y238728D01*
X820687Y240197D01*
X820656Y240202D01*
X820616Y240217D01*
X816295Y241056D01*
X816239Y241056D01*
X816183Y241065D01*
X816141Y241055D01*
X816096Y241054D01*
X816045Y241032D01*
X815990Y241019D01*
X815955Y240993D01*
X815914Y240975D01*
X815875Y240934D01*
X815830Y240901D01*
X815807Y240863D01*
X815777Y240831D01*
X815757Y240778D01*
X815728Y240730D01*
X815720Y240679D01*
X815707Y240645D01*
X815708Y240611D01*
X815701Y240566D01*
X815701Y229566D01*
X815711Y229513D01*
X815712Y229460D01*
X815731Y229417D01*
X815740Y229371D01*
X815771Y229327D01*
X815792Y229278D01*
X815826Y229246D01*
X815853Y229207D01*
X815898Y229178D01*
X815937Y229142D01*
X815988Y229121D01*
X816020Y229100D01*
X816052Y229095D01*
X816091Y229079D01*
X818826Y228468D01*
X821390Y227440D01*
X823754Y226013D01*
X825858Y224224D01*
X827647Y222120D01*
X829074Y219756D01*
X830102Y217192D01*
X830713Y214457D01*
X830735Y214408D01*
X830747Y214356D01*
X830775Y214318D01*
X830794Y214276D01*
X830833Y214239D01*
X830865Y214196D01*
X830905Y214172D01*
X830939Y214140D01*
X830990Y214122D01*
X831036Y214094D01*
X831090Y214085D01*
X831126Y214072D01*
X831158Y214074D01*
X831200Y214067D01*
X842200Y214067D01*
X842255Y214078D01*
G37*
G36*
X1226255Y213570D02*
X1226255Y213570D01*
X1226311Y213571D01*
X1226352Y213590D01*
X1226395Y213598D01*
X1226441Y213630D01*
X1226493Y213653D01*
X1226522Y213686D01*
X1226559Y213711D01*
X1226589Y213758D01*
X1226627Y213800D01*
X1226642Y213841D01*
X1226666Y213878D01*
X1226675Y213934D01*
X1226694Y213987D01*
X1226693Y214039D01*
X1226699Y214075D01*
X1226691Y214107D01*
X1226690Y214153D01*
X1225851Y218474D01*
X1225839Y218503D01*
X1225831Y218545D01*
X1224362Y222695D01*
X1224346Y222722D01*
X1224337Y222749D01*
X1224335Y222755D01*
X1224334Y222757D01*
X1224332Y222762D01*
X1222266Y226649D01*
X1222246Y226673D01*
X1222227Y226712D01*
X1219609Y230250D01*
X1219585Y230271D01*
X1219560Y230306D01*
X1216448Y233418D01*
X1216422Y233436D01*
X1216392Y233467D01*
X1212854Y236085D01*
X1212825Y236098D01*
X1212791Y236124D01*
X1208904Y238190D01*
X1208874Y238199D01*
X1208837Y238220D01*
X1204687Y239689D01*
X1204656Y239694D01*
X1204616Y239709D01*
X1200295Y240548D01*
X1200239Y240548D01*
X1200183Y240557D01*
X1200141Y240547D01*
X1200096Y240546D01*
X1200045Y240524D01*
X1199990Y240511D01*
X1199955Y240485D01*
X1199914Y240467D01*
X1199875Y240426D01*
X1199830Y240393D01*
X1199807Y240355D01*
X1199777Y240323D01*
X1199757Y240270D01*
X1199728Y240222D01*
X1199720Y240171D01*
X1199707Y240137D01*
X1199708Y240103D01*
X1199701Y240058D01*
X1199701Y229058D01*
X1199711Y229005D01*
X1199712Y228952D01*
X1199731Y228909D01*
X1199740Y228863D01*
X1199771Y228819D01*
X1199792Y228770D01*
X1199826Y228738D01*
X1199853Y228699D01*
X1199898Y228670D01*
X1199937Y228634D01*
X1199988Y228613D01*
X1200020Y228592D01*
X1200052Y228587D01*
X1200091Y228571D01*
X1202826Y227960D01*
X1205390Y226932D01*
X1207754Y225505D01*
X1209858Y223716D01*
X1211647Y221612D01*
X1213074Y219248D01*
X1214102Y216684D01*
X1214713Y213949D01*
X1214735Y213900D01*
X1214747Y213848D01*
X1214775Y213810D01*
X1214794Y213768D01*
X1214833Y213731D01*
X1214865Y213688D01*
X1214905Y213664D01*
X1214939Y213632D01*
X1214990Y213614D01*
X1215036Y213586D01*
X1215090Y213577D01*
X1215126Y213564D01*
X1215158Y213566D01*
X1215200Y213559D01*
X1226200Y213559D01*
X1226255Y213570D01*
G37*
G36*
X463255Y213316D02*
X463255Y213316D01*
X463311Y213317D01*
X463352Y213336D01*
X463395Y213344D01*
X463441Y213376D01*
X463493Y213399D01*
X463522Y213432D01*
X463559Y213457D01*
X463589Y213504D01*
X463627Y213546D01*
X463642Y213587D01*
X463666Y213624D01*
X463675Y213680D01*
X463694Y213733D01*
X463693Y213785D01*
X463699Y213821D01*
X463691Y213853D01*
X463690Y213899D01*
X462851Y218220D01*
X462839Y218249D01*
X462831Y218291D01*
X461362Y222441D01*
X461346Y222468D01*
X461337Y222495D01*
X461335Y222501D01*
X461334Y222503D01*
X461332Y222508D01*
X459266Y226395D01*
X459246Y226419D01*
X459227Y226458D01*
X456609Y229996D01*
X456585Y230017D01*
X456560Y230052D01*
X453448Y233164D01*
X453422Y233182D01*
X453392Y233213D01*
X449854Y235831D01*
X449825Y235844D01*
X449791Y235870D01*
X445904Y237936D01*
X445874Y237945D01*
X445837Y237966D01*
X441687Y239435D01*
X441656Y239440D01*
X441616Y239455D01*
X437295Y240294D01*
X437239Y240294D01*
X437183Y240303D01*
X437141Y240293D01*
X437096Y240292D01*
X437045Y240270D01*
X436990Y240257D01*
X436955Y240231D01*
X436914Y240213D01*
X436875Y240172D01*
X436830Y240139D01*
X436807Y240101D01*
X436777Y240069D01*
X436757Y240016D01*
X436728Y239968D01*
X436720Y239917D01*
X436707Y239883D01*
X436708Y239849D01*
X436701Y239804D01*
X436701Y228804D01*
X436711Y228751D01*
X436712Y228698D01*
X436731Y228655D01*
X436740Y228609D01*
X436771Y228565D01*
X436792Y228516D01*
X436826Y228484D01*
X436853Y228445D01*
X436898Y228416D01*
X436937Y228380D01*
X436988Y228359D01*
X437020Y228338D01*
X437052Y228333D01*
X437091Y228317D01*
X439826Y227706D01*
X442390Y226678D01*
X444754Y225251D01*
X446858Y223462D01*
X448647Y221358D01*
X450074Y218994D01*
X451102Y216430D01*
X451713Y213695D01*
X451735Y213646D01*
X451747Y213594D01*
X451775Y213556D01*
X451794Y213514D01*
X451833Y213477D01*
X451865Y213434D01*
X451905Y213410D01*
X451939Y213378D01*
X451990Y213360D01*
X452036Y213332D01*
X452090Y213323D01*
X452126Y213310D01*
X452158Y213312D01*
X452200Y213305D01*
X463200Y213305D01*
X463255Y213316D01*
G37*
G36*
X254021Y242251D02*
X254021Y242251D01*
X254067Y242252D01*
X258388Y243091D01*
X258417Y243103D01*
X258459Y243111D01*
X262609Y244580D01*
X262636Y244596D01*
X262676Y244610D01*
X266563Y246676D01*
X266587Y246696D01*
X266626Y246715D01*
X270164Y249333D01*
X270185Y249357D01*
X270220Y249382D01*
X273332Y252494D01*
X273350Y252521D01*
X273381Y252550D01*
X275999Y256089D01*
X276012Y256117D01*
X276038Y256151D01*
X278104Y260038D01*
X278113Y260068D01*
X278134Y260105D01*
X279603Y264255D01*
X279608Y264286D01*
X279623Y264326D01*
X280462Y268647D01*
X280462Y268703D01*
X280471Y268759D01*
X280461Y268801D01*
X280460Y268846D01*
X280438Y268897D01*
X280425Y268952D01*
X280399Y268988D01*
X280381Y269028D01*
X280340Y269067D01*
X280307Y269112D01*
X280269Y269135D01*
X280237Y269165D01*
X280184Y269185D01*
X280136Y269214D01*
X280085Y269222D01*
X280051Y269235D01*
X280017Y269234D01*
X279972Y269241D01*
X268972Y269241D01*
X268919Y269231D01*
X268866Y269230D01*
X268823Y269211D01*
X268777Y269202D01*
X268733Y269171D01*
X268684Y269150D01*
X268652Y269116D01*
X268613Y269089D01*
X268584Y269044D01*
X268548Y269005D01*
X268527Y268954D01*
X268506Y268922D01*
X268501Y268890D01*
X268498Y268884D01*
X268497Y268883D01*
X268497Y268882D01*
X268485Y268851D01*
X267874Y266116D01*
X266846Y263552D01*
X265419Y261188D01*
X263630Y259084D01*
X261526Y257295D01*
X259162Y255868D01*
X256598Y254840D01*
X253863Y254229D01*
X253814Y254207D01*
X253762Y254195D01*
X253724Y254167D01*
X253682Y254148D01*
X253645Y254109D01*
X253602Y254077D01*
X253578Y254037D01*
X253546Y254003D01*
X253528Y253952D01*
X253500Y253906D01*
X253491Y253852D01*
X253478Y253816D01*
X253480Y253784D01*
X253473Y253742D01*
X253473Y242742D01*
X253484Y242687D01*
X253485Y242631D01*
X253504Y242590D01*
X253512Y242547D01*
X253544Y242501D01*
X253567Y242450D01*
X253600Y242420D01*
X253625Y242383D01*
X253672Y242353D01*
X253714Y242315D01*
X253755Y242300D01*
X253792Y242276D01*
X253848Y242267D01*
X253901Y242248D01*
X253953Y242249D01*
X253989Y242243D01*
X254021Y242251D01*
G37*
G36*
X816249Y180075D02*
X816249Y180075D01*
X816295Y180076D01*
X820616Y180915D01*
X820645Y180927D01*
X820687Y180935D01*
X824837Y182404D01*
X824864Y182420D01*
X824904Y182434D01*
X828791Y184500D01*
X828815Y184520D01*
X828854Y184539D01*
X832392Y187157D01*
X832413Y187181D01*
X832448Y187206D01*
X835560Y190318D01*
X835578Y190345D01*
X835609Y190374D01*
X838227Y193913D01*
X838240Y193941D01*
X838266Y193975D01*
X840332Y197862D01*
X840341Y197892D01*
X840362Y197929D01*
X841831Y202079D01*
X841836Y202110D01*
X841851Y202150D01*
X842690Y206471D01*
X842690Y206527D01*
X842699Y206583D01*
X842689Y206625D01*
X842688Y206670D01*
X842666Y206721D01*
X842653Y206776D01*
X842627Y206812D01*
X842609Y206852D01*
X842568Y206891D01*
X842535Y206936D01*
X842497Y206959D01*
X842465Y206989D01*
X842412Y207009D01*
X842364Y207038D01*
X842313Y207046D01*
X842279Y207059D01*
X842245Y207058D01*
X842200Y207065D01*
X831200Y207065D01*
X831147Y207055D01*
X831094Y207054D01*
X831051Y207035D01*
X831005Y207026D01*
X830961Y206995D01*
X830912Y206974D01*
X830880Y206940D01*
X830841Y206913D01*
X830812Y206868D01*
X830776Y206829D01*
X830755Y206778D01*
X830734Y206746D01*
X830729Y206714D01*
X830726Y206708D01*
X830725Y206707D01*
X830725Y206706D01*
X830713Y206675D01*
X830102Y203940D01*
X829074Y201376D01*
X827647Y199012D01*
X825858Y196908D01*
X823754Y195119D01*
X821390Y193692D01*
X818826Y192664D01*
X816091Y192053D01*
X816042Y192031D01*
X815990Y192019D01*
X815952Y191991D01*
X815910Y191972D01*
X815873Y191933D01*
X815830Y191901D01*
X815806Y191861D01*
X815774Y191827D01*
X815756Y191776D01*
X815728Y191730D01*
X815719Y191676D01*
X815706Y191640D01*
X815708Y191608D01*
X815701Y191566D01*
X815701Y180566D01*
X815712Y180511D01*
X815713Y180455D01*
X815732Y180414D01*
X815740Y180371D01*
X815772Y180325D01*
X815795Y180274D01*
X815828Y180244D01*
X815853Y180207D01*
X815900Y180177D01*
X815942Y180139D01*
X815983Y180124D01*
X816020Y180100D01*
X816076Y180091D01*
X816129Y180072D01*
X816181Y180073D01*
X816217Y180067D01*
X816249Y180075D01*
G37*
G36*
X1200249Y179567D02*
X1200249Y179567D01*
X1200295Y179568D01*
X1204616Y180407D01*
X1204645Y180419D01*
X1204687Y180427D01*
X1208837Y181896D01*
X1208864Y181912D01*
X1208904Y181926D01*
X1212791Y183992D01*
X1212815Y184012D01*
X1212854Y184031D01*
X1216392Y186649D01*
X1216413Y186673D01*
X1216448Y186698D01*
X1219560Y189810D01*
X1219578Y189837D01*
X1219609Y189866D01*
X1222227Y193405D01*
X1222240Y193433D01*
X1222266Y193467D01*
X1224332Y197354D01*
X1224341Y197384D01*
X1224362Y197421D01*
X1225831Y201571D01*
X1225836Y201602D01*
X1225851Y201642D01*
X1226690Y205963D01*
X1226690Y206019D01*
X1226699Y206075D01*
X1226689Y206117D01*
X1226688Y206162D01*
X1226666Y206213D01*
X1226653Y206268D01*
X1226627Y206304D01*
X1226609Y206344D01*
X1226568Y206383D01*
X1226535Y206428D01*
X1226497Y206451D01*
X1226465Y206481D01*
X1226412Y206501D01*
X1226364Y206530D01*
X1226313Y206538D01*
X1226279Y206551D01*
X1226245Y206550D01*
X1226200Y206557D01*
X1215200Y206557D01*
X1215147Y206547D01*
X1215094Y206546D01*
X1215051Y206527D01*
X1215005Y206518D01*
X1214961Y206487D01*
X1214912Y206466D01*
X1214880Y206432D01*
X1214841Y206405D01*
X1214812Y206360D01*
X1214776Y206321D01*
X1214755Y206270D01*
X1214734Y206238D01*
X1214729Y206206D01*
X1214726Y206200D01*
X1214725Y206199D01*
X1214725Y206198D01*
X1214713Y206167D01*
X1214102Y203432D01*
X1213074Y200868D01*
X1211647Y198504D01*
X1209858Y196400D01*
X1207754Y194611D01*
X1205390Y193184D01*
X1202826Y192156D01*
X1200091Y191545D01*
X1200042Y191523D01*
X1199990Y191511D01*
X1199952Y191483D01*
X1199910Y191464D01*
X1199873Y191425D01*
X1199830Y191393D01*
X1199806Y191353D01*
X1199774Y191319D01*
X1199756Y191268D01*
X1199728Y191222D01*
X1199719Y191168D01*
X1199706Y191132D01*
X1199708Y191100D01*
X1199701Y191058D01*
X1199701Y180058D01*
X1199712Y180003D01*
X1199713Y179947D01*
X1199732Y179906D01*
X1199740Y179863D01*
X1199772Y179817D01*
X1199795Y179766D01*
X1199828Y179736D01*
X1199853Y179699D01*
X1199900Y179669D01*
X1199942Y179631D01*
X1199983Y179616D01*
X1200020Y179592D01*
X1200076Y179583D01*
X1200129Y179564D01*
X1200181Y179565D01*
X1200217Y179559D01*
X1200249Y179567D01*
G37*
G36*
X437249Y179313D02*
X437249Y179313D01*
X437295Y179314D01*
X441616Y180153D01*
X441645Y180165D01*
X441687Y180173D01*
X445837Y181642D01*
X445864Y181658D01*
X445904Y181672D01*
X449791Y183738D01*
X449815Y183758D01*
X449854Y183777D01*
X453392Y186395D01*
X453413Y186419D01*
X453448Y186444D01*
X456560Y189556D01*
X456578Y189583D01*
X456609Y189612D01*
X459227Y193151D01*
X459240Y193179D01*
X459266Y193213D01*
X461332Y197100D01*
X461341Y197130D01*
X461362Y197167D01*
X462831Y201317D01*
X462836Y201348D01*
X462851Y201388D01*
X463690Y205709D01*
X463690Y205765D01*
X463699Y205821D01*
X463689Y205863D01*
X463688Y205908D01*
X463666Y205959D01*
X463653Y206014D01*
X463627Y206050D01*
X463609Y206090D01*
X463568Y206129D01*
X463535Y206174D01*
X463497Y206197D01*
X463465Y206227D01*
X463412Y206247D01*
X463364Y206276D01*
X463313Y206284D01*
X463279Y206297D01*
X463245Y206296D01*
X463200Y206303D01*
X452200Y206303D01*
X452147Y206293D01*
X452094Y206292D01*
X452051Y206273D01*
X452005Y206264D01*
X451961Y206233D01*
X451912Y206212D01*
X451880Y206178D01*
X451841Y206151D01*
X451812Y206106D01*
X451776Y206067D01*
X451755Y206016D01*
X451734Y205984D01*
X451729Y205952D01*
X451726Y205946D01*
X451725Y205945D01*
X451725Y205944D01*
X451713Y205913D01*
X451102Y203178D01*
X450074Y200614D01*
X448647Y198250D01*
X446858Y196146D01*
X444754Y194357D01*
X442390Y192930D01*
X439826Y191902D01*
X437091Y191291D01*
X437042Y191269D01*
X436990Y191257D01*
X436952Y191229D01*
X436910Y191210D01*
X436873Y191171D01*
X436830Y191139D01*
X436806Y191099D01*
X436774Y191065D01*
X436756Y191014D01*
X436728Y190968D01*
X436719Y190914D01*
X436706Y190878D01*
X436708Y190846D01*
X436701Y190804D01*
X436701Y179804D01*
X436712Y179749D01*
X436713Y179693D01*
X436732Y179652D01*
X436740Y179609D01*
X436772Y179563D01*
X436795Y179512D01*
X436828Y179482D01*
X436853Y179445D01*
X436900Y179415D01*
X436942Y179377D01*
X436983Y179362D01*
X437020Y179338D01*
X437076Y179329D01*
X437129Y179310D01*
X437181Y179311D01*
X437217Y179305D01*
X437249Y179313D01*
G37*
G36*
X144600Y48015D02*
X144600Y48015D01*
X144601Y48015D01*
X145669Y48034D01*
X145676Y48039D01*
X145680Y48035D01*
X146717Y48291D01*
X146722Y48298D01*
X146728Y48295D01*
X147682Y48776D01*
X147686Y48783D01*
X147691Y48782D01*
X148515Y49463D01*
X148516Y49471D01*
X148522Y49471D01*
X149173Y50318D01*
X149173Y50326D01*
X149179Y50327D01*
X149626Y51298D01*
X149624Y51306D01*
X149629Y51308D01*
X149848Y52354D01*
X149845Y52361D01*
X149849Y52364D01*
X149849Y64364D01*
X149846Y64369D01*
X149849Y64372D01*
X149669Y65467D01*
X149663Y65473D01*
X149666Y65478D01*
X149247Y66506D01*
X149240Y66510D01*
X149242Y66515D01*
X148605Y67424D01*
X148597Y67427D01*
X148597Y67432D01*
X147774Y68176D01*
X147766Y68177D01*
X147765Y68183D01*
X146797Y68725D01*
X146788Y68724D01*
X146786Y68730D01*
X145722Y69043D01*
X145717Y69041D01*
X145713Y69041D01*
X145711Y69045D01*
X144603Y69113D01*
X144597Y69109D01*
X144593Y69113D01*
X143485Y68943D01*
X143479Y68937D01*
X143474Y68940D01*
X142432Y68528D01*
X142428Y68521D01*
X142423Y68523D01*
X141498Y67889D01*
X141496Y67881D01*
X141490Y67882D01*
X140730Y67059D01*
X140729Y67050D01*
X140723Y67050D01*
X140166Y66078D01*
X140167Y66070D01*
X140161Y66068D01*
X139834Y64996D01*
X139837Y64988D01*
X139832Y64985D01*
X139751Y63868D01*
X139752Y63865D01*
X139751Y63864D01*
X139751Y51864D01*
X139756Y51857D01*
X139752Y51853D01*
X139971Y50909D01*
X139977Y50903D01*
X139975Y50898D01*
X140399Y50026D01*
X140406Y50023D01*
X140404Y50017D01*
X141011Y49261D01*
X141019Y49259D01*
X141019Y49253D01*
X141779Y48652D01*
X141788Y48652D01*
X141789Y48646D01*
X142664Y48228D01*
X142672Y48230D01*
X142674Y48225D01*
X143620Y48013D01*
X143627Y48016D01*
X143631Y48011D01*
X144600Y48015D01*
G37*
G36*
X59181Y48024D02*
X59181Y48024D01*
X59188Y48029D01*
X59192Y48025D01*
X60244Y48275D01*
X60249Y48281D01*
X60254Y48278D01*
X61224Y48755D01*
X61227Y48763D01*
X61233Y48761D01*
X62072Y49442D01*
X62074Y49450D01*
X62080Y49450D01*
X62746Y50301D01*
X62747Y50309D01*
X62752Y50310D01*
X63213Y51287D01*
X63211Y51295D01*
X63217Y51298D01*
X63448Y52353D01*
X63445Y52361D01*
X63449Y52364D01*
X63449Y64364D01*
X63445Y64369D01*
X63449Y64372D01*
X63256Y65478D01*
X63250Y65483D01*
X63253Y65488D01*
X62820Y66523D01*
X62813Y66527D01*
X62815Y66532D01*
X62162Y67445D01*
X62154Y67447D01*
X62155Y67453D01*
X61316Y68197D01*
X61307Y68198D01*
X61307Y68203D01*
X60323Y68742D01*
X60315Y68741D01*
X60313Y68746D01*
X59234Y69053D01*
X59226Y69050D01*
X59223Y69055D01*
X58103Y69113D01*
X58098Y69110D01*
X58095Y69113D01*
X57049Y68995D01*
X57043Y68989D01*
X57038Y68993D01*
X56044Y68645D01*
X56040Y68638D01*
X56035Y68640D01*
X55143Y68080D01*
X55141Y68073D01*
X55135Y68073D01*
X54391Y67329D01*
X54389Y67321D01*
X54384Y67321D01*
X53824Y66429D01*
X53824Y66421D01*
X53819Y66420D01*
X53471Y65426D01*
X53474Y65418D01*
X53469Y65415D01*
X53351Y64370D01*
X53353Y64366D01*
X53351Y64364D01*
X53351Y52364D01*
X53354Y52359D01*
X53351Y52356D01*
X53509Y51360D01*
X53515Y51354D01*
X53512Y51349D01*
X53887Y50413D01*
X53894Y50409D01*
X53892Y50403D01*
X54466Y49574D01*
X54474Y49571D01*
X54473Y49566D01*
X55217Y48885D01*
X55226Y48884D01*
X55226Y48878D01*
X56103Y48380D01*
X56112Y48381D01*
X56114Y48376D01*
X57079Y48085D01*
X57087Y48088D01*
X57090Y48083D01*
X58097Y48015D01*
X58099Y48016D01*
X58100Y48015D01*
X59181Y48024D01*
G37*
G36*
X145104Y8519D02*
X145104Y8519D01*
X145107Y8515D01*
X146183Y8670D01*
X146188Y8676D01*
X146193Y8673D01*
X147207Y9063D01*
X147211Y9070D01*
X147217Y9069D01*
X148119Y9675D01*
X148121Y9683D01*
X148127Y9682D01*
X148871Y10474D01*
X148872Y10482D01*
X148878Y10482D01*
X149427Y11420D01*
X149426Y11428D01*
X149432Y11430D01*
X149759Y12466D01*
X149756Y12474D01*
X149761Y12477D01*
X149849Y13560D01*
X149847Y13563D01*
X149849Y13564D01*
X149849Y19564D01*
X149846Y19568D01*
X149849Y19570D01*
X149699Y20703D01*
X149693Y20709D01*
X149696Y20714D01*
X149298Y21784D01*
X149291Y21788D01*
X149293Y21794D01*
X148666Y22749D01*
X148658Y22752D01*
X148659Y22757D01*
X147836Y23549D01*
X147828Y23550D01*
X147827Y23556D01*
X146848Y24145D01*
X146840Y24144D01*
X146838Y24149D01*
X145753Y24505D01*
X145745Y24503D01*
X145742Y24507D01*
X144605Y24613D01*
X144596Y24608D01*
X144591Y24612D01*
X143454Y24405D01*
X143448Y24399D01*
X143443Y24402D01*
X142381Y23947D01*
X142377Y23940D01*
X142371Y23942D01*
X141436Y23262D01*
X141434Y23254D01*
X141428Y23255D01*
X140668Y22384D01*
X140668Y22376D01*
X140662Y22375D01*
X140115Y21356D01*
X140116Y21348D01*
X140111Y21346D01*
X140107Y21333D01*
X140094Y21284D01*
X140093Y21284D01*
X140094Y21284D01*
X140080Y21235D01*
X140066Y21185D01*
X140053Y21136D01*
X140039Y21087D01*
X140026Y21038D01*
X140012Y20988D01*
X139999Y20939D01*
X139985Y20890D01*
X139971Y20841D01*
X139958Y20791D01*
X139944Y20742D01*
X139931Y20693D01*
X139917Y20644D01*
X139904Y20594D01*
X139890Y20545D01*
X139877Y20496D01*
X139876Y20496D01*
X139863Y20447D01*
X139849Y20397D01*
X139804Y20232D01*
X139807Y20224D01*
X139802Y20221D01*
X139751Y19066D01*
X139752Y19065D01*
X139751Y19064D01*
X139751Y13064D01*
X139755Y13058D01*
X139752Y13055D01*
X139964Y11974D01*
X139970Y11969D01*
X139967Y11964D01*
X140414Y10958D01*
X140421Y10954D01*
X140419Y10948D01*
X141079Y10067D01*
X141087Y10064D01*
X141087Y10059D01*
X141926Y9346D01*
X141934Y9346D01*
X141935Y9340D01*
X142912Y8832D01*
X142920Y8833D01*
X142922Y8828D01*
X143987Y8550D01*
X143995Y8553D01*
X143998Y8549D01*
X145099Y8515D01*
X145104Y8519D01*
G37*
G36*
X58602Y8519D02*
X58602Y8519D01*
X58607Y8515D01*
X59694Y8660D01*
X59700Y8666D01*
X59705Y8663D01*
X60733Y9047D01*
X60738Y9053D01*
X60743Y9052D01*
X61660Y9654D01*
X61663Y9662D01*
X61669Y9661D01*
X62429Y10453D01*
X62430Y10461D01*
X62436Y10462D01*
X63000Y11403D01*
X63000Y11406D01*
X63001Y11407D01*
X63000Y11409D01*
X62999Y11411D01*
X63005Y11413D01*
X63346Y12456D01*
X63344Y12464D01*
X63348Y12467D01*
X63449Y13560D01*
X63447Y13562D01*
X63449Y13564D01*
X63449Y19564D01*
X63447Y19567D01*
X63449Y19569D01*
X63348Y20661D01*
X63343Y20667D01*
X63346Y20672D01*
X63005Y21715D01*
X62998Y21720D01*
X63000Y21725D01*
X62436Y22666D01*
X62428Y22669D01*
X62429Y22675D01*
X61669Y23467D01*
X61661Y23468D01*
X61660Y23474D01*
X60743Y24077D01*
X60735Y24076D01*
X60733Y24082D01*
X59705Y24465D01*
X59697Y24463D01*
X59694Y24468D01*
X58607Y24613D01*
X58599Y24609D01*
X58595Y24613D01*
X57458Y24507D01*
X57452Y24502D01*
X57447Y24505D01*
X56362Y24149D01*
X56357Y24142D01*
X56352Y24145D01*
X55373Y23556D01*
X55370Y23548D01*
X55364Y23549D01*
X54541Y22757D01*
X54540Y22749D01*
X54534Y22749D01*
X53907Y21794D01*
X53908Y21786D01*
X53902Y21784D01*
X53504Y20714D01*
X53506Y20706D01*
X53501Y20703D01*
X53351Y19570D01*
X53354Y19566D01*
X53351Y19564D01*
X53351Y13564D01*
X53354Y13560D01*
X53351Y13558D01*
X53501Y12425D01*
X53507Y12419D01*
X53504Y12414D01*
X53902Y11344D01*
X53909Y11340D01*
X53907Y11334D01*
X54534Y10379D01*
X54542Y10376D01*
X54541Y10371D01*
X55364Y9579D01*
X55372Y9578D01*
X55373Y9572D01*
X56352Y8983D01*
X56360Y8984D01*
X56362Y8979D01*
X57447Y8623D01*
X57455Y8626D01*
X57458Y8621D01*
X58595Y8515D01*
X58602Y8519D01*
G37*
D10*
X368710Y114810D02*
X363730Y114810D01*
X363730Y129290D01*
X368710Y129290D01*
X368710Y114810D01*
X368710Y115779D02*
X363730Y115779D01*
X363730Y116748D02*
X368710Y116748D01*
X368710Y117717D02*
X363730Y117717D01*
X363730Y118686D02*
X368710Y118686D01*
X368710Y119655D02*
X363730Y119655D01*
X363730Y120624D02*
X368710Y120624D01*
X368710Y121593D02*
X363730Y121593D01*
X363730Y122562D02*
X368710Y122562D01*
X368710Y123531D02*
X363730Y123531D01*
X363730Y124500D02*
X368710Y124500D01*
X368710Y125469D02*
X363730Y125469D01*
X363730Y126438D02*
X368710Y126438D01*
X368710Y127407D02*
X363730Y127407D01*
X363730Y128376D02*
X368710Y128376D01*
X373730Y114810D02*
X378710Y114810D01*
X373730Y114810D02*
X373730Y129290D01*
X378710Y129290D01*
X378710Y114810D01*
X378710Y115779D02*
X373730Y115779D01*
X373730Y116748D02*
X378710Y116748D01*
X378710Y117717D02*
X373730Y117717D01*
X373730Y118686D02*
X378710Y118686D01*
X378710Y119655D02*
X373730Y119655D01*
X373730Y120624D02*
X378710Y120624D01*
X378710Y121593D02*
X373730Y121593D01*
X373730Y122562D02*
X378710Y122562D01*
X378710Y123531D02*
X373730Y123531D01*
X373730Y124500D02*
X378710Y124500D01*
X378710Y125469D02*
X373730Y125469D01*
X373730Y126438D02*
X378710Y126438D01*
X378710Y127407D02*
X373730Y127407D01*
X373730Y128376D02*
X378710Y128376D01*
X383730Y114810D02*
X388710Y114810D01*
X383730Y114810D02*
X383730Y129290D01*
X388710Y129290D01*
X388710Y114810D01*
X388710Y115779D02*
X383730Y115779D01*
X383730Y116748D02*
X388710Y116748D01*
X388710Y117717D02*
X383730Y117717D01*
X383730Y118686D02*
X388710Y118686D01*
X388710Y119655D02*
X383730Y119655D01*
X383730Y120624D02*
X388710Y120624D01*
X388710Y121593D02*
X383730Y121593D01*
X383730Y122562D02*
X388710Y122562D01*
X388710Y123531D02*
X383730Y123531D01*
X383730Y124500D02*
X388710Y124500D01*
X388710Y125469D02*
X383730Y125469D01*
X383730Y126438D02*
X388710Y126438D01*
X388710Y127407D02*
X383730Y127407D01*
X383730Y128376D02*
X388710Y128376D01*
X393730Y114810D02*
X398710Y114810D01*
X393730Y114810D02*
X393730Y129290D01*
X398710Y129290D01*
X398710Y114810D01*
X398710Y115779D02*
X393730Y115779D01*
X393730Y116748D02*
X398710Y116748D01*
X398710Y117717D02*
X393730Y117717D01*
X393730Y118686D02*
X398710Y118686D01*
X398710Y119655D02*
X393730Y119655D01*
X393730Y120624D02*
X398710Y120624D01*
X398710Y121593D02*
X393730Y121593D01*
X393730Y122562D02*
X398710Y122562D01*
X398710Y123531D02*
X393730Y123531D01*
X393730Y124500D02*
X398710Y124500D01*
X398710Y125469D02*
X393730Y125469D01*
X393730Y126438D02*
X398710Y126438D01*
X398710Y127407D02*
X393730Y127407D01*
X393730Y128376D02*
X398710Y128376D01*
D11*
X358740Y136780D02*
X347700Y136780D01*
X347700Y155820D01*
X358740Y155820D01*
X358740Y136780D01*
X358740Y137692D02*
X347700Y137692D01*
X347700Y138604D02*
X358740Y138604D01*
X358740Y139516D02*
X347700Y139516D01*
X347700Y140428D02*
X358740Y140428D01*
X358740Y141340D02*
X347700Y141340D01*
X347700Y142252D02*
X358740Y142252D01*
X358740Y143164D02*
X347700Y143164D01*
X347700Y144076D02*
X358740Y144076D01*
X358740Y144988D02*
X347700Y144988D01*
X347700Y145900D02*
X358740Y145900D01*
X358740Y146812D02*
X347700Y146812D01*
X347700Y147724D02*
X358740Y147724D01*
X358740Y148636D02*
X347700Y148636D01*
X347700Y149548D02*
X358740Y149548D01*
X358740Y150460D02*
X347700Y150460D01*
X347700Y151372D02*
X358740Y151372D01*
X358740Y152284D02*
X347700Y152284D01*
X347700Y153196D02*
X358740Y153196D01*
X358740Y154108D02*
X347700Y154108D01*
X347700Y155020D02*
X358740Y155020D01*
X403700Y136780D02*
X414740Y136780D01*
X403700Y136780D02*
X403700Y155820D01*
X414740Y155820D01*
X414740Y136780D01*
X414740Y137692D02*
X403700Y137692D01*
X403700Y138604D02*
X414740Y138604D01*
X414740Y139516D02*
X403700Y139516D01*
X403700Y140428D02*
X414740Y140428D01*
X414740Y141340D02*
X403700Y141340D01*
X403700Y142252D02*
X414740Y142252D01*
X414740Y143164D02*
X403700Y143164D01*
X403700Y144076D02*
X414740Y144076D01*
X414740Y144988D02*
X403700Y144988D01*
X403700Y145900D02*
X414740Y145900D01*
X414740Y146812D02*
X403700Y146812D01*
X403700Y147724D02*
X414740Y147724D01*
X414740Y148636D02*
X403700Y148636D01*
X403700Y149548D02*
X414740Y149548D01*
X414740Y150460D02*
X403700Y150460D01*
X403700Y151372D02*
X414740Y151372D01*
X414740Y152284D02*
X403700Y152284D01*
X403700Y153196D02*
X414740Y153196D01*
X414740Y154108D02*
X403700Y154108D01*
X403700Y155020D02*
X414740Y155020D01*
X358520Y4530D02*
X347480Y4530D01*
X347480Y23570D01*
X358520Y23570D01*
X358520Y4530D01*
X358520Y5442D02*
X347480Y5442D01*
X347480Y6354D02*
X358520Y6354D01*
X358520Y7266D02*
X347480Y7266D01*
X347480Y8178D02*
X358520Y8178D01*
X358520Y9090D02*
X347480Y9090D01*
X347480Y10002D02*
X358520Y10002D01*
X358520Y10914D02*
X347480Y10914D01*
X347480Y11826D02*
X358520Y11826D01*
X358520Y12738D02*
X347480Y12738D01*
X347480Y13650D02*
X358520Y13650D01*
X358520Y14562D02*
X347480Y14562D01*
X347480Y15474D02*
X358520Y15474D01*
X358520Y16386D02*
X347480Y16386D01*
X347480Y17298D02*
X358520Y17298D01*
X358520Y18210D02*
X347480Y18210D01*
X347480Y19122D02*
X358520Y19122D01*
X358520Y20034D02*
X347480Y20034D01*
X347480Y20946D02*
X358520Y20946D01*
X358520Y21858D02*
X347480Y21858D01*
X347480Y22770D02*
X358520Y22770D01*
X403480Y4530D02*
X414520Y4530D01*
X403480Y4530D02*
X403480Y23570D01*
X414520Y23570D01*
X414520Y4530D01*
X414520Y5442D02*
X403480Y5442D01*
X403480Y6354D02*
X414520Y6354D01*
X414520Y7266D02*
X403480Y7266D01*
X403480Y8178D02*
X414520Y8178D01*
X414520Y9090D02*
X403480Y9090D01*
X403480Y10002D02*
X414520Y10002D01*
X414520Y10914D02*
X403480Y10914D01*
X403480Y11826D02*
X414520Y11826D01*
X414520Y12738D02*
X403480Y12738D01*
X403480Y13650D02*
X414520Y13650D01*
X414520Y14562D02*
X403480Y14562D01*
X403480Y15474D02*
X414520Y15474D01*
X414520Y16386D02*
X403480Y16386D01*
X403480Y17298D02*
X414520Y17298D01*
X414520Y18210D02*
X403480Y18210D01*
X403480Y19122D02*
X414520Y19122D01*
X414520Y20034D02*
X403480Y20034D01*
X403480Y20946D02*
X414520Y20946D01*
X414520Y21858D02*
X403480Y21858D01*
X403480Y22770D02*
X414520Y22770D01*
D10*
X368490Y44560D02*
X363510Y44560D01*
X363510Y57040D01*
X368490Y57040D01*
X368490Y44560D01*
X368490Y45529D02*
X363510Y45529D01*
X363510Y46498D02*
X368490Y46498D01*
X368490Y47467D02*
X363510Y47467D01*
X363510Y48436D02*
X368490Y48436D01*
X368490Y49405D02*
X363510Y49405D01*
X363510Y50374D02*
X368490Y50374D01*
X368490Y51343D02*
X363510Y51343D01*
X363510Y52312D02*
X368490Y52312D01*
X368490Y53281D02*
X363510Y53281D01*
X363510Y54250D02*
X368490Y54250D01*
X368490Y55219D02*
X363510Y55219D01*
X363510Y56188D02*
X368490Y56188D01*
X373510Y44560D02*
X378490Y44560D01*
X373510Y44560D02*
X373510Y57040D01*
X378490Y57040D01*
X378490Y44560D01*
X378490Y45529D02*
X373510Y45529D01*
X373510Y46498D02*
X378490Y46498D01*
X378490Y47467D02*
X373510Y47467D01*
X373510Y48436D02*
X378490Y48436D01*
X378490Y49405D02*
X373510Y49405D01*
X373510Y50374D02*
X378490Y50374D01*
X378490Y51343D02*
X373510Y51343D01*
X373510Y52312D02*
X378490Y52312D01*
X378490Y53281D02*
X373510Y53281D01*
X373510Y54250D02*
X378490Y54250D01*
X378490Y55219D02*
X373510Y55219D01*
X373510Y56188D02*
X378490Y56188D01*
X383510Y44560D02*
X388490Y44560D01*
X383510Y44560D02*
X383510Y57040D01*
X388490Y57040D01*
X388490Y44560D01*
X388490Y45529D02*
X383510Y45529D01*
X383510Y46498D02*
X388490Y46498D01*
X388490Y47467D02*
X383510Y47467D01*
X383510Y48436D02*
X388490Y48436D01*
X388490Y49405D02*
X383510Y49405D01*
X383510Y50374D02*
X388490Y50374D01*
X388490Y51343D02*
X383510Y51343D01*
X383510Y52312D02*
X388490Y52312D01*
X388490Y53281D02*
X383510Y53281D01*
X383510Y54250D02*
X388490Y54250D01*
X388490Y55219D02*
X383510Y55219D01*
X383510Y56188D02*
X388490Y56188D01*
X393510Y44560D02*
X398490Y44560D01*
X393510Y44560D02*
X393510Y57040D01*
X398490Y57040D01*
X398490Y44560D01*
X398490Y45529D02*
X393510Y45529D01*
X393510Y46498D02*
X398490Y46498D01*
X398490Y47467D02*
X393510Y47467D01*
X393510Y48436D02*
X398490Y48436D01*
X398490Y49405D02*
X393510Y49405D01*
X393510Y50374D02*
X398490Y50374D01*
X398490Y51343D02*
X393510Y51343D01*
X393510Y52312D02*
X398490Y52312D01*
X398490Y53281D02*
X393510Y53281D01*
X393510Y54250D02*
X398490Y54250D01*
X398490Y55219D02*
X393510Y55219D01*
X393510Y56188D02*
X398490Y56188D01*
D11*
X191580Y506710D02*
X180540Y506710D01*
X180540Y533250D01*
X191580Y533250D01*
X191580Y506710D01*
X191580Y507622D02*
X180540Y507622D01*
X180540Y508534D02*
X191580Y508534D01*
X191580Y509446D02*
X180540Y509446D01*
X180540Y510358D02*
X191580Y510358D01*
X191580Y511270D02*
X180540Y511270D01*
X180540Y512182D02*
X191580Y512182D01*
X191580Y513094D02*
X180540Y513094D01*
X180540Y514006D02*
X191580Y514006D01*
X191580Y514918D02*
X180540Y514918D01*
X180540Y515830D02*
X191580Y515830D01*
X191580Y516742D02*
X180540Y516742D01*
X180540Y517654D02*
X191580Y517654D01*
X191580Y518566D02*
X180540Y518566D01*
X180540Y519478D02*
X191580Y519478D01*
X191580Y520390D02*
X180540Y520390D01*
X180540Y521302D02*
X191580Y521302D01*
X191580Y522214D02*
X180540Y522214D01*
X180540Y523126D02*
X191580Y523126D01*
X191580Y524038D02*
X180540Y524038D01*
X180540Y524950D02*
X191580Y524950D01*
X191580Y525862D02*
X180540Y525862D01*
X180540Y526774D02*
X191580Y526774D01*
X191580Y527686D02*
X180540Y527686D01*
X180540Y528598D02*
X191580Y528598D01*
X191580Y529510D02*
X180540Y529510D01*
X180540Y530422D02*
X191580Y530422D01*
X191580Y531334D02*
X180540Y531334D01*
X180540Y532246D02*
X191580Y532246D01*
X191580Y533158D02*
X180540Y533158D01*
X387540Y506710D02*
X398580Y506710D01*
X387540Y506710D02*
X387540Y533250D01*
X398580Y533250D01*
X398580Y506710D01*
X398580Y507622D02*
X387540Y507622D01*
X387540Y508534D02*
X398580Y508534D01*
X398580Y509446D02*
X387540Y509446D01*
X387540Y510358D02*
X398580Y510358D01*
X398580Y511270D02*
X387540Y511270D01*
X387540Y512182D02*
X398580Y512182D01*
X398580Y513094D02*
X387540Y513094D01*
X387540Y514006D02*
X398580Y514006D01*
X398580Y514918D02*
X387540Y514918D01*
X387540Y515830D02*
X398580Y515830D01*
X398580Y516742D02*
X387540Y516742D01*
X387540Y517654D02*
X398580Y517654D01*
X398580Y518566D02*
X387540Y518566D01*
X387540Y519478D02*
X398580Y519478D01*
X398580Y520390D02*
X387540Y520390D01*
X387540Y521302D02*
X398580Y521302D01*
X398580Y522214D02*
X387540Y522214D01*
X387540Y523126D02*
X398580Y523126D01*
X398580Y524038D02*
X387540Y524038D01*
X387540Y524950D02*
X398580Y524950D01*
X398580Y525862D02*
X387540Y525862D01*
X387540Y526774D02*
X398580Y526774D01*
X398580Y527686D02*
X387540Y527686D01*
X387540Y528598D02*
X398580Y528598D01*
X398580Y529510D02*
X387540Y529510D01*
X387540Y530422D02*
X398580Y530422D01*
X398580Y531334D02*
X387540Y531334D01*
X387540Y532246D02*
X398580Y532246D01*
X398580Y533158D02*
X387540Y533158D01*
D12*
X379560Y452230D03*
X369560Y452230D03*
X364560Y452230D03*
X374560Y452230D03*
X359560Y452230D03*
X349560Y452230D03*
X344560Y452230D03*
X354560Y452230D03*
X339560Y452230D03*
X329560Y452230D03*
X324560Y452230D03*
X334560Y452230D03*
X319560Y452230D03*
X309560Y452230D03*
X304560Y452230D03*
X314560Y452230D03*
X299560Y452230D03*
X289560Y452230D03*
X284560Y452230D03*
X294560Y452230D03*
X279560Y452230D03*
X274560Y452230D03*
X249560Y452230D03*
X244560Y452230D03*
X239560Y452230D03*
X229560Y452230D03*
X224560Y452230D03*
X234560Y452230D03*
X219560Y452230D03*
X209560Y452230D03*
X204560Y452230D03*
X214560Y452230D03*
X199560Y452230D03*
X382060Y527730D03*
X372060Y527730D03*
X367060Y527730D03*
X377060Y527730D03*
X362060Y527730D03*
X352060Y527730D03*
X347060Y527730D03*
X357060Y527730D03*
X342060Y527730D03*
X332060Y527730D03*
X327060Y527730D03*
X337060Y527730D03*
X322060Y527730D03*
X312060Y527730D03*
X307060Y527730D03*
X317060Y527730D03*
X302060Y527730D03*
X292060Y527730D03*
X287060Y527730D03*
X297060Y527730D03*
X282060Y527730D03*
X277060Y527730D03*
X252060Y527730D03*
X247060Y527730D03*
X242060Y527730D03*
X232060Y527730D03*
X227060Y527730D03*
X237060Y527730D03*
X222060Y527730D03*
X212060Y527730D03*
X207060Y527730D03*
X217060Y527730D03*
X202060Y527730D03*
X197060Y527730D03*
D13*
X65976Y694856D02*
X65976Y703856D01*
X110976Y703856D01*
X110976Y694856D01*
X65976Y694856D01*
X65976Y695806D02*
X110976Y695806D01*
X110976Y696756D02*
X65976Y696756D01*
X65976Y697706D02*
X110976Y697706D01*
X110976Y698656D02*
X65976Y698656D01*
X65976Y699606D02*
X110976Y699606D01*
X110976Y700556D02*
X65976Y700556D01*
X65976Y701506D02*
X110976Y701506D01*
X110976Y702456D02*
X65976Y702456D01*
X65976Y703406D02*
X110976Y703406D01*
X65976Y683856D02*
X65976Y674856D01*
X65976Y683856D02*
X110976Y683856D01*
X110976Y674856D01*
X65976Y674856D01*
X65976Y675806D02*
X110976Y675806D01*
X110976Y676756D02*
X65976Y676756D01*
X65976Y677706D02*
X110976Y677706D01*
X110976Y678656D02*
X65976Y678656D01*
X65976Y679606D02*
X110976Y679606D01*
X110976Y680556D02*
X65976Y680556D01*
X65976Y681506D02*
X110976Y681506D01*
X110976Y682456D02*
X65976Y682456D01*
X65976Y683406D02*
X110976Y683406D01*
D11*
X123956Y715836D02*
X156996Y715836D01*
X123956Y715836D02*
X123956Y730876D01*
X156996Y730876D01*
X156996Y715836D01*
X156996Y716748D02*
X123956Y716748D01*
X123956Y717660D02*
X156996Y717660D01*
X156996Y718572D02*
X123956Y718572D01*
X123956Y719484D02*
X156996Y719484D01*
X156996Y720396D02*
X123956Y720396D01*
X123956Y721308D02*
X156996Y721308D01*
X156996Y722220D02*
X123956Y722220D01*
X123956Y723132D02*
X156996Y723132D01*
X156996Y724044D02*
X123956Y724044D01*
X123956Y724956D02*
X156996Y724956D01*
X156996Y725868D02*
X123956Y725868D01*
X123956Y726780D02*
X156996Y726780D01*
X156996Y727692D02*
X123956Y727692D01*
X123956Y728604D02*
X156996Y728604D01*
X156996Y729516D02*
X123956Y729516D01*
X123956Y730428D02*
X156996Y730428D01*
X156996Y647836D02*
X123956Y647836D01*
X123956Y662876D01*
X156996Y662876D01*
X156996Y647836D01*
X156996Y648748D02*
X123956Y648748D01*
X123956Y649660D02*
X156996Y649660D01*
X156996Y650572D02*
X123956Y650572D01*
X123956Y651484D02*
X156996Y651484D01*
X156996Y652396D02*
X123956Y652396D01*
X123956Y653308D02*
X156996Y653308D01*
X156996Y654220D02*
X123956Y654220D01*
X123956Y655132D02*
X156996Y655132D01*
X156996Y656044D02*
X123956Y656044D01*
X123956Y656956D02*
X156996Y656956D01*
X156996Y657868D02*
X123956Y657868D01*
X123956Y658780D02*
X156996Y658780D01*
X156996Y659692D02*
X123956Y659692D01*
X123956Y660604D02*
X156996Y660604D01*
X156996Y661516D02*
X123956Y661516D01*
X123956Y662428D02*
X156996Y662428D01*
D14*
X129250Y577971D02*
X129250Y573461D01*
X118240Y573461D01*
X118240Y577971D01*
X129250Y577971D01*
X129250Y574401D02*
X118240Y574401D01*
X118240Y575341D02*
X129250Y575341D01*
X129250Y576281D02*
X118240Y576281D01*
X118240Y577221D02*
X129250Y577221D01*
X129250Y582961D02*
X129250Y587471D01*
X129250Y582961D02*
X118240Y582961D01*
X118240Y587471D01*
X129250Y587471D01*
X129250Y583901D02*
X118240Y583901D01*
X118240Y584841D02*
X129250Y584841D01*
X129250Y585781D02*
X118240Y585781D01*
X118240Y586721D02*
X129250Y586721D01*
X129250Y592461D02*
X129250Y596971D01*
X129250Y592461D02*
X118240Y592461D01*
X118240Y596971D01*
X129250Y596971D01*
X129250Y593401D02*
X118240Y593401D01*
X118240Y594341D02*
X129250Y594341D01*
X129250Y595281D02*
X118240Y595281D01*
X118240Y596221D02*
X129250Y596221D01*
X103248Y596971D02*
X103248Y592461D01*
X92238Y592461D01*
X92238Y596971D01*
X103248Y596971D01*
X103248Y593401D02*
X92238Y593401D01*
X92238Y594341D02*
X103248Y594341D01*
X103248Y595281D02*
X92238Y595281D01*
X92238Y596221D02*
X103248Y596221D01*
X103248Y577971D02*
X103248Y573461D01*
X92238Y573461D01*
X92238Y577971D01*
X103248Y577971D01*
X103248Y574401D02*
X92238Y574401D01*
X92238Y575341D02*
X103248Y575341D01*
X103248Y576281D02*
X92238Y576281D01*
X92238Y577221D02*
X103248Y577221D01*
D13*
X114498Y565332D02*
X124498Y565332D01*
X124498Y556332D01*
X114498Y556332D01*
X114498Y565332D01*
X114498Y557282D02*
X124498Y557282D01*
X124498Y558232D02*
X114498Y558232D01*
X114498Y559182D02*
X124498Y559182D01*
X124498Y560132D02*
X114498Y560132D01*
X114498Y561082D02*
X124498Y561082D01*
X124498Y562032D02*
X114498Y562032D01*
X114498Y562982D02*
X124498Y562982D01*
X124498Y563932D02*
X114498Y563932D01*
X114498Y564882D02*
X124498Y564882D01*
X107498Y565332D02*
X97498Y565332D01*
X107498Y565332D02*
X107498Y556332D01*
X97498Y556332D01*
X97498Y565332D01*
X97498Y557282D02*
X107498Y557282D01*
X107498Y558232D02*
X97498Y558232D01*
X97498Y559182D02*
X107498Y559182D01*
X107498Y560132D02*
X97498Y560132D01*
X97498Y561082D02*
X107498Y561082D01*
X107498Y562032D02*
X97498Y562032D01*
X97498Y562982D02*
X107498Y562982D01*
X107498Y563932D02*
X97498Y563932D01*
X97498Y564882D02*
X107498Y564882D01*
X39950Y357098D02*
X39950Y347098D01*
X39950Y357098D02*
X48950Y357098D01*
X48950Y347098D01*
X39950Y347098D01*
X39950Y348048D02*
X48950Y348048D01*
X48950Y348998D02*
X39950Y348998D01*
X39950Y349948D02*
X48950Y349948D01*
X48950Y350898D02*
X39950Y350898D01*
X39950Y351848D02*
X48950Y351848D01*
X48950Y352798D02*
X39950Y352798D01*
X39950Y353748D02*
X48950Y353748D01*
X48950Y354698D02*
X39950Y354698D01*
X39950Y355648D02*
X48950Y355648D01*
X48950Y356598D02*
X39950Y356598D01*
X39950Y340098D02*
X39950Y330098D01*
X39950Y340098D02*
X48950Y340098D01*
X48950Y330098D01*
X39950Y330098D01*
X39950Y331048D02*
X48950Y331048D01*
X48950Y331998D02*
X39950Y331998D01*
X39950Y332948D02*
X48950Y332948D01*
X48950Y333898D02*
X39950Y333898D01*
X39950Y334848D02*
X48950Y334848D01*
X48950Y335798D02*
X39950Y335798D01*
X39950Y336748D02*
X48950Y336748D01*
X48950Y337698D02*
X39950Y337698D01*
X39950Y338648D02*
X48950Y338648D01*
X48950Y339598D02*
X39950Y339598D01*
D15*
X29414Y338618D02*
X22414Y338618D01*
X29414Y338618D02*
X29414Y331618D01*
X22414Y331618D01*
X22414Y338618D01*
X22414Y334468D02*
X29414Y334468D01*
X29414Y337318D02*
X22414Y337318D01*
X22414Y356158D02*
X29414Y356158D01*
X29414Y349158D01*
X22414Y349158D01*
X22414Y356158D01*
X22414Y352008D02*
X29414Y352008D01*
X29414Y354858D02*
X22414Y354858D01*
D13*
X70684Y589986D02*
X70684Y599986D01*
X79684Y599986D01*
X79684Y589986D01*
X70684Y589986D01*
X70684Y590936D02*
X79684Y590936D01*
X79684Y591886D02*
X70684Y591886D01*
X70684Y592836D02*
X79684Y592836D01*
X79684Y593786D02*
X70684Y593786D01*
X70684Y594736D02*
X79684Y594736D01*
X79684Y595686D02*
X70684Y595686D01*
X70684Y596636D02*
X79684Y596636D01*
X79684Y597586D02*
X70684Y597586D01*
X70684Y598536D02*
X79684Y598536D01*
X79684Y599486D02*
X70684Y599486D01*
X70684Y582986D02*
X70684Y572986D01*
X70684Y582986D02*
X79684Y582986D01*
X79684Y572986D01*
X70684Y572986D01*
X70684Y573936D02*
X79684Y573936D01*
X79684Y574886D02*
X70684Y574886D01*
X70684Y575836D02*
X79684Y575836D01*
X79684Y576786D02*
X70684Y576786D01*
X70684Y577736D02*
X79684Y577736D01*
X79684Y578686D02*
X70684Y578686D01*
X70684Y579636D02*
X79684Y579636D01*
X79684Y580586D02*
X70684Y580586D01*
X70684Y581536D02*
X79684Y581536D01*
X79684Y582486D02*
X70684Y582486D01*
X116784Y615116D02*
X126784Y615116D01*
X126784Y606116D01*
X116784Y606116D01*
X116784Y615116D01*
X116784Y607066D02*
X126784Y607066D01*
X126784Y608016D02*
X116784Y608016D01*
X116784Y608966D02*
X126784Y608966D01*
X126784Y609916D02*
X116784Y609916D01*
X116784Y610866D02*
X126784Y610866D01*
X126784Y611816D02*
X116784Y611816D01*
X116784Y612766D02*
X126784Y612766D01*
X126784Y613716D02*
X116784Y613716D01*
X116784Y614666D02*
X126784Y614666D01*
X109784Y615116D02*
X99784Y615116D01*
X109784Y615116D02*
X109784Y606116D01*
X99784Y606116D01*
X99784Y615116D01*
X99784Y607066D02*
X109784Y607066D01*
X109784Y608016D02*
X99784Y608016D01*
X99784Y608966D02*
X109784Y608966D01*
X109784Y609916D02*
X99784Y609916D01*
X99784Y610866D02*
X109784Y610866D01*
X109784Y611816D02*
X99784Y611816D01*
X99784Y612766D02*
X109784Y612766D01*
X109784Y613716D02*
X99784Y613716D01*
X99784Y614666D02*
X109784Y614666D01*
D10*
X110090Y59674D02*
X108110Y59674D01*
X108110Y68654D01*
X110090Y68654D01*
X110090Y59674D01*
X110090Y60643D02*
X108110Y60643D01*
X108110Y61612D02*
X110090Y61612D01*
X110090Y62581D02*
X108110Y62581D01*
X108110Y63550D02*
X110090Y63550D01*
X110090Y64519D02*
X108110Y64519D01*
X108110Y65488D02*
X110090Y65488D01*
X110090Y66457D02*
X108110Y66457D01*
X108110Y67426D02*
X110090Y67426D01*
X110090Y68395D02*
X108110Y68395D01*
X105090Y59674D02*
X103110Y59674D01*
X103110Y68654D01*
X105090Y68654D01*
X105090Y59674D01*
X105090Y60643D02*
X103110Y60643D01*
X103110Y61612D02*
X105090Y61612D01*
X105090Y62581D02*
X103110Y62581D01*
X103110Y63550D02*
X105090Y63550D01*
X105090Y64519D02*
X103110Y64519D01*
X103110Y65488D02*
X105090Y65488D01*
X105090Y66457D02*
X103110Y66457D01*
X103110Y67426D02*
X105090Y67426D01*
X105090Y68395D02*
X103110Y68395D01*
X131360Y59674D02*
X136340Y59674D01*
X131360Y59674D02*
X131360Y68654D01*
X136340Y68654D01*
X136340Y59674D01*
X136340Y60643D02*
X131360Y60643D01*
X131360Y61612D02*
X136340Y61612D01*
X136340Y62581D02*
X131360Y62581D01*
X131360Y63550D02*
X136340Y63550D01*
X136340Y64519D02*
X131360Y64519D01*
X131360Y65488D02*
X136340Y65488D01*
X136340Y66457D02*
X131360Y66457D01*
X131360Y67426D02*
X136340Y67426D01*
X136340Y68395D02*
X131360Y68395D01*
X128590Y59674D02*
X123610Y59674D01*
X123610Y68654D01*
X128590Y68654D01*
X128590Y59674D01*
X128590Y60643D02*
X123610Y60643D01*
X123610Y61612D02*
X128590Y61612D01*
X128590Y62581D02*
X123610Y62581D01*
X123610Y63550D02*
X128590Y63550D01*
X128590Y64519D02*
X123610Y64519D01*
X123610Y65488D02*
X128590Y65488D01*
X128590Y66457D02*
X123610Y66457D01*
X123610Y67426D02*
X128590Y67426D01*
X128590Y68395D02*
X123610Y68395D01*
X120090Y59674D02*
X118110Y59674D01*
X118110Y68654D01*
X120090Y68654D01*
X120090Y59674D01*
X120090Y60643D02*
X118110Y60643D01*
X118110Y61612D02*
X120090Y61612D01*
X120090Y62581D02*
X118110Y62581D01*
X118110Y63550D02*
X120090Y63550D01*
X120090Y64519D02*
X118110Y64519D01*
X118110Y65488D02*
X120090Y65488D01*
X120090Y66457D02*
X118110Y66457D01*
X118110Y67426D02*
X120090Y67426D01*
X120090Y68395D02*
X118110Y68395D01*
X115090Y59674D02*
X113110Y59674D01*
X113110Y68654D01*
X115090Y68654D01*
X115090Y59674D01*
X115090Y60643D02*
X113110Y60643D01*
X113110Y61612D02*
X115090Y61612D01*
X115090Y62581D02*
X113110Y62581D01*
X113110Y63550D02*
X115090Y63550D01*
X115090Y64519D02*
X113110Y64519D01*
X113110Y65488D02*
X115090Y65488D01*
X115090Y66457D02*
X113110Y66457D01*
X113110Y67426D02*
X115090Y67426D01*
X115090Y68395D02*
X113110Y68395D01*
X95090Y68654D02*
X93110Y68654D01*
X95090Y68654D02*
X95090Y59674D01*
X93110Y59674D01*
X93110Y68654D01*
X93110Y60643D02*
X95090Y60643D01*
X95090Y61612D02*
X93110Y61612D01*
X93110Y62581D02*
X95090Y62581D01*
X95090Y63550D02*
X93110Y63550D01*
X93110Y64519D02*
X95090Y64519D01*
X95090Y65488D02*
X93110Y65488D01*
X93110Y66457D02*
X95090Y66457D01*
X95090Y67426D02*
X93110Y67426D01*
X93110Y68395D02*
X95090Y68395D01*
X98110Y68654D02*
X100090Y68654D01*
X100090Y59674D01*
X98110Y59674D01*
X98110Y68654D01*
X98110Y60643D02*
X100090Y60643D01*
X100090Y61612D02*
X98110Y61612D01*
X98110Y62581D02*
X100090Y62581D01*
X100090Y63550D02*
X98110Y63550D01*
X98110Y64519D02*
X100090Y64519D01*
X100090Y65488D02*
X98110Y65488D01*
X98110Y66457D02*
X100090Y66457D01*
X100090Y67426D02*
X98110Y67426D01*
X98110Y68395D02*
X100090Y68395D01*
X71840Y68654D02*
X66860Y68654D01*
X71840Y68654D02*
X71840Y59674D01*
X66860Y59674D01*
X66860Y68654D01*
X66860Y60643D02*
X71840Y60643D01*
X71840Y61612D02*
X66860Y61612D01*
X66860Y62581D02*
X71840Y62581D01*
X71840Y63550D02*
X66860Y63550D01*
X66860Y64519D02*
X71840Y64519D01*
X71840Y65488D02*
X66860Y65488D01*
X66860Y66457D02*
X71840Y66457D01*
X71840Y67426D02*
X66860Y67426D01*
X66860Y68395D02*
X71840Y68395D01*
X74610Y68654D02*
X79590Y68654D01*
X79590Y59674D01*
X74610Y59674D01*
X74610Y68654D01*
X74610Y60643D02*
X79590Y60643D01*
X79590Y61612D02*
X74610Y61612D01*
X74610Y62581D02*
X79590Y62581D01*
X79590Y63550D02*
X74610Y63550D01*
X74610Y64519D02*
X79590Y64519D01*
X79590Y65488D02*
X74610Y65488D01*
X74610Y66457D02*
X79590Y66457D01*
X79590Y67426D02*
X74610Y67426D01*
X74610Y68395D02*
X79590Y68395D01*
X83110Y68654D02*
X85090Y68654D01*
X85090Y59674D01*
X83110Y59674D01*
X83110Y68654D01*
X83110Y60643D02*
X85090Y60643D01*
X85090Y61612D02*
X83110Y61612D01*
X83110Y62581D02*
X85090Y62581D01*
X85090Y63550D02*
X83110Y63550D01*
X83110Y64519D02*
X85090Y64519D01*
X85090Y65488D02*
X83110Y65488D01*
X83110Y66457D02*
X85090Y66457D01*
X85090Y67426D02*
X83110Y67426D01*
X83110Y68395D02*
X85090Y68395D01*
X88110Y68654D02*
X90090Y68654D01*
X90090Y59674D01*
X88110Y59674D01*
X88110Y68654D01*
X88110Y60643D02*
X90090Y60643D01*
X90090Y61612D02*
X88110Y61612D01*
X88110Y62581D02*
X90090Y62581D01*
X90090Y63550D02*
X88110Y63550D01*
X88110Y64519D02*
X90090Y64519D01*
X90090Y65488D02*
X88110Y65488D01*
X88110Y66457D02*
X90090Y66457D01*
X90090Y67426D02*
X88110Y67426D01*
X88110Y68395D02*
X90090Y68395D01*
D13*
X63826Y96718D02*
X63826Y106718D01*
X72826Y106718D01*
X72826Y96718D01*
X63826Y96718D01*
X63826Y97668D02*
X72826Y97668D01*
X72826Y98618D02*
X63826Y98618D01*
X63826Y99568D02*
X72826Y99568D01*
X72826Y100518D02*
X63826Y100518D01*
X63826Y101468D02*
X72826Y101468D01*
X72826Y102418D02*
X63826Y102418D01*
X63826Y103368D02*
X72826Y103368D01*
X72826Y104318D02*
X63826Y104318D01*
X63826Y105268D02*
X72826Y105268D01*
X72826Y106218D02*
X63826Y106218D01*
X63826Y89718D02*
X63826Y79718D01*
X63826Y89718D02*
X72826Y89718D01*
X72826Y79718D01*
X63826Y79718D01*
X63826Y80668D02*
X72826Y80668D01*
X72826Y81618D02*
X63826Y81618D01*
X63826Y82568D02*
X72826Y82568D01*
X72826Y83518D02*
X63826Y83518D01*
X63826Y84468D02*
X72826Y84468D01*
X72826Y85418D02*
X63826Y85418D01*
X63826Y86368D02*
X72826Y86368D01*
X72826Y87318D02*
X63826Y87318D01*
X63826Y88268D02*
X72826Y88268D01*
X72826Y89218D02*
X63826Y89218D01*
X138756Y96464D02*
X138756Y106464D01*
X147756Y106464D01*
X147756Y96464D01*
X138756Y96464D01*
X138756Y97414D02*
X147756Y97414D01*
X147756Y98364D02*
X138756Y98364D01*
X138756Y99314D02*
X147756Y99314D01*
X147756Y100264D02*
X138756Y100264D01*
X138756Y101214D02*
X147756Y101214D01*
X147756Y102164D02*
X138756Y102164D01*
X138756Y103114D02*
X147756Y103114D01*
X147756Y104064D02*
X138756Y104064D01*
X138756Y105014D02*
X147756Y105014D01*
X147756Y105964D02*
X138756Y105964D01*
X138756Y89464D02*
X138756Y79464D01*
X138756Y89464D02*
X147756Y89464D01*
X147756Y79464D01*
X138756Y79464D01*
X138756Y80414D02*
X147756Y80414D01*
X147756Y81364D02*
X138756Y81364D01*
X138756Y82314D02*
X147756Y82314D01*
X147756Y83264D02*
X138756Y83264D01*
X138756Y84214D02*
X147756Y84214D01*
X147756Y85164D02*
X138756Y85164D01*
X138756Y86114D02*
X147756Y86114D01*
X147756Y87064D02*
X138756Y87064D01*
X138756Y88014D02*
X147756Y88014D01*
X147756Y88964D02*
X138756Y88964D01*
D16*
X115480Y189448D02*
X115480Y194740D01*
X122772Y194740D01*
X122772Y189448D01*
X115480Y189448D01*
X115480Y190406D02*
X122772Y190406D01*
X122772Y191364D02*
X115480Y191364D01*
X115480Y192322D02*
X122772Y192322D01*
X122772Y193280D02*
X115480Y193280D01*
X115480Y194238D02*
X122772Y194238D01*
X115480Y171740D02*
X115480Y166448D01*
X115480Y171740D02*
X122772Y171740D01*
X122772Y166448D01*
X115480Y166448D01*
X115480Y167406D02*
X122772Y167406D01*
X122772Y168364D02*
X115480Y168364D01*
X115480Y169322D02*
X122772Y169322D01*
X122772Y170280D02*
X115480Y170280D01*
X115480Y171238D02*
X122772Y171238D01*
D17*
X62725Y476745D02*
X62725Y483375D01*
X76975Y483375D01*
X76975Y476745D01*
X62725Y476745D01*
X62725Y477686D02*
X76975Y477686D01*
X76975Y478627D02*
X62725Y478627D01*
X62725Y479568D02*
X76975Y479568D01*
X76975Y480509D02*
X62725Y480509D01*
X62725Y481450D02*
X76975Y481450D01*
X76975Y482391D02*
X62725Y482391D01*
X62725Y483332D02*
X76975Y483332D01*
X6845Y483375D02*
X6845Y476745D01*
X6845Y483375D02*
X21095Y483375D01*
X21095Y476745D01*
X6845Y476745D01*
X6845Y477686D02*
X21095Y477686D01*
X21095Y478627D02*
X6845Y478627D01*
X6845Y479568D02*
X21095Y479568D01*
X21095Y480509D02*
X6845Y480509D01*
X6845Y481450D02*
X21095Y481450D01*
X21095Y482391D02*
X6845Y482391D01*
X6845Y483332D02*
X21095Y483332D01*
X62725Y514845D02*
X62725Y521475D01*
X76975Y521475D01*
X76975Y514845D01*
X62725Y514845D01*
X62725Y515786D02*
X76975Y515786D01*
X76975Y516727D02*
X62725Y516727D01*
X62725Y517668D02*
X76975Y517668D01*
X76975Y518609D02*
X62725Y518609D01*
X62725Y519550D02*
X76975Y519550D01*
X76975Y520491D02*
X62725Y520491D01*
X62725Y521432D02*
X76975Y521432D01*
X6845Y521475D02*
X6845Y514845D01*
X6845Y521475D02*
X21095Y521475D01*
X21095Y514845D01*
X6845Y514845D01*
X6845Y515786D02*
X21095Y515786D01*
X21095Y516727D02*
X6845Y516727D01*
X6845Y517668D02*
X21095Y517668D01*
X21095Y518609D02*
X6845Y518609D01*
X6845Y519550D02*
X21095Y519550D01*
X21095Y520491D02*
X6845Y520491D01*
X6845Y521432D02*
X21095Y521432D01*
X62725Y416065D02*
X62725Y409435D01*
X62725Y416065D02*
X76975Y416065D01*
X76975Y409435D01*
X62725Y409435D01*
X62725Y410376D02*
X76975Y410376D01*
X76975Y411317D02*
X62725Y411317D01*
X62725Y412258D02*
X76975Y412258D01*
X76975Y413199D02*
X62725Y413199D01*
X62725Y414140D02*
X76975Y414140D01*
X76975Y415081D02*
X62725Y415081D01*
X62725Y416022D02*
X76975Y416022D01*
X6845Y416065D02*
X6845Y409435D01*
X6845Y416065D02*
X21095Y416065D01*
X21095Y409435D01*
X6845Y409435D01*
X6845Y410376D02*
X21095Y410376D01*
X21095Y411317D02*
X6845Y411317D01*
X6845Y412258D02*
X21095Y412258D01*
X21095Y413199D02*
X6845Y413199D01*
X6845Y414140D02*
X21095Y414140D01*
X21095Y415081D02*
X6845Y415081D01*
X6845Y416022D02*
X21095Y416022D01*
X62725Y447535D02*
X62725Y454165D01*
X76975Y454165D01*
X76975Y447535D01*
X62725Y447535D01*
X62725Y448476D02*
X76975Y448476D01*
X76975Y449417D02*
X62725Y449417D01*
X62725Y450358D02*
X76975Y450358D01*
X76975Y451299D02*
X62725Y451299D01*
X62725Y452240D02*
X76975Y452240D01*
X76975Y453181D02*
X62725Y453181D01*
X62725Y454122D02*
X76975Y454122D01*
X6845Y454165D02*
X6845Y447535D01*
X6845Y454165D02*
X21095Y454165D01*
X21095Y447535D01*
X6845Y447535D01*
X6845Y448476D02*
X21095Y448476D01*
X21095Y449417D02*
X6845Y449417D01*
X6845Y450358D02*
X21095Y450358D01*
X21095Y451299D02*
X6845Y451299D01*
X6845Y452240D02*
X21095Y452240D01*
X21095Y453181D02*
X6845Y453181D01*
X6845Y454122D02*
X21095Y454122D01*
D18*
X128016Y299974D03*
D10*
X136776Y316464D02*
X138756Y316464D01*
X138756Y310984D01*
X136776Y310984D01*
X136776Y316464D01*
X136776Y311953D02*
X138756Y311953D01*
X138756Y312922D02*
X136776Y312922D01*
X136776Y313891D02*
X138756Y313891D01*
X138756Y314860D02*
X136776Y314860D01*
X136776Y315829D02*
X138756Y315829D01*
X132256Y316464D02*
X130276Y316464D01*
X132256Y316464D02*
X132256Y310984D01*
X130276Y310984D01*
X130276Y316464D01*
X130276Y311953D02*
X132256Y311953D01*
X132256Y312922D02*
X130276Y312922D01*
X130276Y313891D02*
X132256Y313891D01*
X132256Y314860D02*
X130276Y314860D01*
X130276Y315829D02*
X132256Y315829D01*
X125756Y316464D02*
X123776Y316464D01*
X125756Y316464D02*
X125756Y310984D01*
X123776Y310984D01*
X123776Y316464D01*
X123776Y311953D02*
X125756Y311953D01*
X125756Y312922D02*
X123776Y312922D01*
X123776Y313891D02*
X125756Y313891D01*
X125756Y314860D02*
X123776Y314860D01*
X123776Y315829D02*
X125756Y315829D01*
X119256Y316464D02*
X117276Y316464D01*
X119256Y316464D02*
X119256Y310984D01*
X117276Y310984D01*
X117276Y316464D01*
X117276Y311953D02*
X119256Y311953D01*
X119256Y312922D02*
X117276Y312922D01*
X117276Y313891D02*
X119256Y313891D01*
X119256Y314860D02*
X117276Y314860D01*
X117276Y315829D02*
X119256Y315829D01*
X119256Y283484D02*
X117276Y283484D01*
X117276Y288964D01*
X119256Y288964D01*
X119256Y283484D01*
X119256Y284453D02*
X117276Y284453D01*
X117276Y285422D02*
X119256Y285422D01*
X119256Y286391D02*
X117276Y286391D01*
X117276Y287360D02*
X119256Y287360D01*
X119256Y288329D02*
X117276Y288329D01*
X123776Y283484D02*
X125756Y283484D01*
X123776Y283484D02*
X123776Y288964D01*
X125756Y288964D01*
X125756Y283484D01*
X125756Y284453D02*
X123776Y284453D01*
X123776Y285422D02*
X125756Y285422D01*
X125756Y286391D02*
X123776Y286391D01*
X123776Y287360D02*
X125756Y287360D01*
X125756Y288329D02*
X123776Y288329D01*
X130276Y283484D02*
X132256Y283484D01*
X130276Y283484D02*
X130276Y288964D01*
X132256Y288964D01*
X132256Y283484D01*
X132256Y284453D02*
X130276Y284453D01*
X130276Y285422D02*
X132256Y285422D01*
X132256Y286391D02*
X130276Y286391D01*
X130276Y287360D02*
X132256Y287360D01*
X132256Y288329D02*
X130276Y288329D01*
X136776Y283484D02*
X138756Y283484D01*
X136776Y283484D02*
X136776Y288964D01*
X138756Y288964D01*
X138756Y283484D01*
X138756Y284453D02*
X136776Y284453D01*
X136776Y285422D02*
X138756Y285422D01*
X138756Y286391D02*
X136776Y286391D01*
X136776Y287360D02*
X138756Y287360D01*
X138756Y288329D02*
X136776Y288329D01*
D13*
X141516Y237164D02*
X131516Y237164D01*
X141516Y237164D02*
X141516Y228164D01*
X131516Y228164D01*
X131516Y237164D01*
X131516Y229114D02*
X141516Y229114D01*
X141516Y230064D02*
X131516Y230064D01*
X131516Y231014D02*
X141516Y231014D01*
X141516Y231964D02*
X131516Y231964D01*
X131516Y232914D02*
X141516Y232914D01*
X141516Y233864D02*
X131516Y233864D01*
X131516Y234814D02*
X141516Y234814D01*
X141516Y235764D02*
X131516Y235764D01*
X131516Y236714D02*
X141516Y236714D01*
X124516Y237164D02*
X114516Y237164D01*
X124516Y237164D02*
X124516Y228164D01*
X114516Y228164D01*
X114516Y237164D01*
X114516Y229114D02*
X124516Y229114D01*
X124516Y230064D02*
X114516Y230064D01*
X114516Y231014D02*
X124516Y231014D01*
X124516Y231964D02*
X114516Y231964D01*
X114516Y232914D02*
X124516Y232914D01*
X124516Y233864D02*
X114516Y233864D01*
X114516Y234814D02*
X124516Y234814D01*
X124516Y235764D02*
X114516Y235764D01*
X114516Y236714D02*
X124516Y236714D01*
X131516Y256214D02*
X141516Y256214D01*
X141516Y247214D01*
X131516Y247214D01*
X131516Y256214D01*
X131516Y248164D02*
X141516Y248164D01*
X141516Y249114D02*
X131516Y249114D01*
X131516Y250064D02*
X141516Y250064D01*
X141516Y251014D02*
X131516Y251014D01*
X131516Y251964D02*
X141516Y251964D01*
X141516Y252914D02*
X131516Y252914D01*
X131516Y253864D02*
X141516Y253864D01*
X141516Y254814D02*
X131516Y254814D01*
X131516Y255764D02*
X141516Y255764D01*
X124516Y256214D02*
X114516Y256214D01*
X124516Y256214D02*
X124516Y247214D01*
X114516Y247214D01*
X114516Y256214D01*
X114516Y248164D02*
X124516Y248164D01*
X124516Y249114D02*
X114516Y249114D01*
X114516Y250064D02*
X124516Y250064D01*
X124516Y251014D02*
X114516Y251014D01*
X114516Y251964D02*
X124516Y251964D01*
X124516Y252914D02*
X114516Y252914D01*
X114516Y253864D02*
X124516Y253864D01*
X124516Y254814D02*
X114516Y254814D01*
X114516Y255764D02*
X124516Y255764D01*
X113830Y118786D02*
X113830Y109786D01*
X86830Y109786D01*
X86830Y118786D01*
X113830Y118786D01*
X113830Y110736D02*
X86830Y110736D01*
X86830Y111686D02*
X113830Y111686D01*
X113830Y112636D02*
X86830Y112636D01*
X86830Y113586D02*
X113830Y113586D01*
X113830Y114536D02*
X86830Y114536D01*
X86830Y115486D02*
X113830Y115486D01*
X113830Y116436D02*
X86830Y116436D01*
X86830Y117386D02*
X113830Y117386D01*
X113830Y118336D02*
X86830Y118336D01*
X113830Y139786D02*
X113830Y148786D01*
X113830Y139786D02*
X86830Y139786D01*
X86830Y148786D01*
X113830Y148786D01*
X113830Y140736D02*
X86830Y140736D01*
X86830Y141686D02*
X113830Y141686D01*
X113830Y142636D02*
X86830Y142636D01*
X86830Y143586D02*
X113830Y143586D01*
X113830Y144536D02*
X86830Y144536D01*
X86830Y145486D02*
X113830Y145486D01*
X113830Y146436D02*
X86830Y146436D01*
X86830Y147386D02*
X113830Y147386D01*
X113830Y148336D02*
X86830Y148336D01*
X114516Y264994D02*
X124516Y264994D01*
X114516Y264994D02*
X114516Y273994D01*
X124516Y273994D01*
X124516Y264994D01*
X124516Y265944D02*
X114516Y265944D01*
X114516Y266894D02*
X124516Y266894D01*
X124516Y267844D02*
X114516Y267844D01*
X114516Y268794D02*
X124516Y268794D01*
X124516Y269744D02*
X114516Y269744D01*
X114516Y270694D02*
X124516Y270694D01*
X124516Y271644D02*
X114516Y271644D01*
X114516Y272594D02*
X124516Y272594D01*
X124516Y273544D02*
X114516Y273544D01*
X131516Y264994D02*
X141516Y264994D01*
X131516Y264994D02*
X131516Y273994D01*
X141516Y273994D01*
X141516Y264994D01*
X141516Y265944D02*
X131516Y265944D01*
X131516Y266894D02*
X141516Y266894D01*
X141516Y267844D02*
X131516Y267844D01*
X131516Y268794D02*
X141516Y268794D01*
X141516Y269744D02*
X131516Y269744D01*
X131516Y270694D02*
X141516Y270694D01*
X141516Y271644D02*
X131516Y271644D01*
X131516Y272594D02*
X141516Y272594D01*
X141516Y273544D02*
X131516Y273544D01*
D16*
X80862Y290908D02*
X80862Y296200D01*
X80862Y290908D02*
X73570Y290908D01*
X73570Y296200D01*
X80862Y296200D01*
X80862Y291866D02*
X73570Y291866D01*
X73570Y292824D02*
X80862Y292824D01*
X80862Y293782D02*
X73570Y293782D01*
X73570Y294740D02*
X80862Y294740D01*
X80862Y295698D02*
X73570Y295698D01*
X80862Y313908D02*
X80862Y319200D01*
X80862Y313908D02*
X73570Y313908D01*
X73570Y319200D01*
X80862Y319200D01*
X80862Y314866D02*
X73570Y314866D01*
X73570Y315824D02*
X80862Y315824D01*
X80862Y316782D02*
X73570Y316782D01*
X73570Y317740D02*
X80862Y317740D01*
X80862Y318698D02*
X73570Y318698D01*
D13*
X101544Y380166D02*
X111544Y380166D01*
X111544Y371166D01*
X101544Y371166D01*
X101544Y380166D01*
X101544Y372116D02*
X111544Y372116D01*
X111544Y373066D02*
X101544Y373066D01*
X101544Y374016D02*
X111544Y374016D01*
X111544Y374966D02*
X101544Y374966D01*
X101544Y375916D02*
X111544Y375916D01*
X111544Y376866D02*
X101544Y376866D01*
X101544Y377816D02*
X111544Y377816D01*
X111544Y378766D02*
X101544Y378766D01*
X101544Y379716D02*
X111544Y379716D01*
X94544Y380166D02*
X84544Y380166D01*
X94544Y380166D02*
X94544Y371166D01*
X84544Y371166D01*
X84544Y380166D01*
X84544Y372116D02*
X94544Y372116D01*
X94544Y373066D02*
X84544Y373066D01*
X84544Y374016D02*
X94544Y374016D01*
X94544Y374966D02*
X84544Y374966D01*
X84544Y375916D02*
X94544Y375916D01*
X94544Y376866D02*
X84544Y376866D01*
X84544Y377816D02*
X94544Y377816D01*
X94544Y378766D02*
X84544Y378766D01*
X84544Y379716D02*
X94544Y379716D01*
X101544Y363656D02*
X111544Y363656D01*
X111544Y354656D01*
X101544Y354656D01*
X101544Y363656D01*
X101544Y355606D02*
X111544Y355606D01*
X111544Y356556D02*
X101544Y356556D01*
X101544Y357506D02*
X111544Y357506D01*
X111544Y358456D02*
X101544Y358456D01*
X101544Y359406D02*
X111544Y359406D01*
X111544Y360356D02*
X101544Y360356D01*
X101544Y361306D02*
X111544Y361306D01*
X111544Y362256D02*
X101544Y362256D01*
X101544Y363206D02*
X111544Y363206D01*
X94544Y363656D02*
X84544Y363656D01*
X94544Y363656D02*
X94544Y354656D01*
X84544Y354656D01*
X84544Y363656D01*
X84544Y355606D02*
X94544Y355606D01*
X94544Y356556D02*
X84544Y356556D01*
X84544Y357506D02*
X94544Y357506D01*
X94544Y358456D02*
X84544Y358456D01*
X84544Y359406D02*
X94544Y359406D01*
X94544Y360356D02*
X84544Y360356D01*
X84544Y361306D02*
X94544Y361306D01*
X94544Y362256D02*
X84544Y362256D01*
X84544Y363206D02*
X94544Y363206D01*
X101544Y396676D02*
X111544Y396676D01*
X111544Y387676D01*
X101544Y387676D01*
X101544Y396676D01*
X101544Y388626D02*
X111544Y388626D01*
X111544Y389576D02*
X101544Y389576D01*
X101544Y390526D02*
X111544Y390526D01*
X111544Y391476D02*
X101544Y391476D01*
X101544Y392426D02*
X111544Y392426D01*
X111544Y393376D02*
X101544Y393376D01*
X101544Y394326D02*
X111544Y394326D01*
X111544Y395276D02*
X101544Y395276D01*
X101544Y396226D02*
X111544Y396226D01*
X94544Y396676D02*
X84544Y396676D01*
X94544Y396676D02*
X94544Y387676D01*
X84544Y387676D01*
X84544Y396676D01*
X84544Y388626D02*
X94544Y388626D01*
X94544Y389576D02*
X84544Y389576D01*
X84544Y390526D02*
X94544Y390526D01*
X94544Y391476D02*
X84544Y391476D01*
X84544Y392426D02*
X94544Y392426D01*
X94544Y393376D02*
X84544Y393376D01*
X84544Y394326D02*
X94544Y394326D01*
X94544Y395276D02*
X84544Y395276D01*
X84544Y396226D02*
X94544Y396226D01*
X39188Y319171D02*
X39188Y309171D01*
X39188Y319171D02*
X48188Y319171D01*
X48188Y309171D01*
X39188Y309171D01*
X39188Y310121D02*
X48188Y310121D01*
X48188Y311071D02*
X39188Y311071D01*
X39188Y312021D02*
X48188Y312021D01*
X48188Y312971D02*
X39188Y312971D01*
X39188Y313921D02*
X48188Y313921D01*
X48188Y314871D02*
X39188Y314871D01*
X39188Y315821D02*
X48188Y315821D01*
X48188Y316771D02*
X39188Y316771D01*
X39188Y317721D02*
X48188Y317721D01*
X48188Y318671D02*
X39188Y318671D01*
X39188Y302171D02*
X39188Y292171D01*
X39188Y302171D02*
X48188Y302171D01*
X48188Y292171D01*
X39188Y292171D01*
X39188Y293121D02*
X48188Y293121D01*
X48188Y294071D02*
X39188Y294071D01*
X39188Y295021D02*
X48188Y295021D01*
X48188Y295971D02*
X39188Y295971D01*
X39188Y296921D02*
X48188Y296921D01*
X48188Y297871D02*
X39188Y297871D01*
X39188Y298821D02*
X48188Y298821D01*
X48188Y299771D02*
X39188Y299771D01*
X39188Y300721D02*
X48188Y300721D01*
X48188Y301671D02*
X39188Y301671D01*
D15*
X29922Y300692D02*
X22922Y300692D01*
X29922Y300692D02*
X29922Y293692D01*
X22922Y293692D01*
X22922Y300692D01*
X22922Y296542D02*
X29922Y296542D01*
X29922Y299392D02*
X22922Y299392D01*
X22922Y318232D02*
X29922Y318232D01*
X29922Y311232D01*
X22922Y311232D01*
X22922Y318232D01*
X22922Y314082D02*
X29922Y314082D01*
X29922Y316932D02*
X22922Y316932D01*
D19*
X133536Y219094D02*
X140496Y219094D01*
X140496Y208134D01*
X133536Y208134D01*
X133536Y219094D01*
X133536Y209122D02*
X140496Y209122D01*
X140496Y210110D02*
X133536Y210110D01*
X133536Y211098D02*
X140496Y211098D01*
X140496Y212086D02*
X133536Y212086D01*
X133536Y213074D02*
X140496Y213074D01*
X140496Y214062D02*
X133536Y214062D01*
X133536Y215050D02*
X140496Y215050D01*
X140496Y216038D02*
X133536Y216038D01*
X133536Y217026D02*
X140496Y217026D01*
X140496Y218014D02*
X133536Y218014D01*
X133536Y219002D02*
X140496Y219002D01*
X122496Y219094D02*
X115536Y219094D01*
X122496Y219094D02*
X122496Y208134D01*
X115536Y208134D01*
X115536Y219094D01*
X115536Y209122D02*
X122496Y209122D01*
X122496Y210110D02*
X115536Y210110D01*
X115536Y211098D02*
X122496Y211098D01*
X122496Y212086D02*
X115536Y212086D01*
X115536Y213074D02*
X122496Y213074D01*
X122496Y214062D02*
X115536Y214062D01*
X115536Y215050D02*
X122496Y215050D01*
X122496Y216038D02*
X115536Y216038D01*
X115536Y217026D02*
X122496Y217026D01*
X122496Y218014D02*
X115536Y218014D01*
X115536Y219002D02*
X122496Y219002D01*
D13*
X105720Y490292D02*
X95720Y490292D01*
X95720Y499292D01*
X105720Y499292D01*
X105720Y490292D01*
X105720Y491242D02*
X95720Y491242D01*
X95720Y492192D02*
X105720Y492192D01*
X105720Y493142D02*
X95720Y493142D01*
X95720Y494092D02*
X105720Y494092D01*
X105720Y495042D02*
X95720Y495042D01*
X95720Y495992D02*
X105720Y495992D01*
X105720Y496942D02*
X95720Y496942D01*
X95720Y497892D02*
X105720Y497892D01*
X105720Y498842D02*
X95720Y498842D01*
X112720Y490292D02*
X122720Y490292D01*
X112720Y490292D02*
X112720Y499292D01*
X122720Y499292D01*
X122720Y490292D01*
X122720Y491242D02*
X112720Y491242D01*
X112720Y492192D02*
X122720Y492192D01*
X122720Y493142D02*
X112720Y493142D01*
X112720Y494092D02*
X122720Y494092D01*
X122720Y495042D02*
X112720Y495042D01*
X112720Y495992D02*
X122720Y495992D01*
X122720Y496942D02*
X112720Y496942D01*
X112720Y497892D02*
X122720Y497892D01*
X122720Y498842D02*
X112720Y498842D01*
X112720Y515548D02*
X122720Y515548D01*
X122720Y506548D01*
X112720Y506548D01*
X112720Y515548D01*
X112720Y507498D02*
X122720Y507498D01*
X122720Y508448D02*
X112720Y508448D01*
X112720Y509398D02*
X122720Y509398D01*
X122720Y510348D02*
X112720Y510348D01*
X112720Y511298D02*
X122720Y511298D01*
X122720Y512248D02*
X112720Y512248D01*
X112720Y513198D02*
X122720Y513198D01*
X122720Y514148D02*
X112720Y514148D01*
X112720Y515098D02*
X122720Y515098D01*
X105720Y515548D02*
X95720Y515548D01*
X105720Y515548D02*
X105720Y506548D01*
X95720Y506548D01*
X95720Y515548D01*
X95720Y507498D02*
X105720Y507498D01*
X105720Y508448D02*
X95720Y508448D01*
X95720Y509398D02*
X105720Y509398D01*
X105720Y510348D02*
X95720Y510348D01*
X95720Y511298D02*
X105720Y511298D01*
X105720Y512248D02*
X95720Y512248D01*
X95720Y513198D02*
X105720Y513198D01*
X105720Y514148D02*
X95720Y514148D01*
X95720Y515098D02*
X105720Y515098D01*
D16*
X133006Y194740D02*
X133006Y189448D01*
X133006Y194740D02*
X140298Y194740D01*
X140298Y189448D01*
X133006Y189448D01*
X133006Y190406D02*
X140298Y190406D01*
X140298Y191364D02*
X133006Y191364D01*
X133006Y192322D02*
X140298Y192322D01*
X140298Y193280D02*
X133006Y193280D01*
X133006Y194238D02*
X140298Y194238D01*
X133006Y171740D02*
X133006Y166448D01*
X133006Y171740D02*
X140298Y171740D01*
X140298Y166448D01*
X133006Y166448D01*
X133006Y167406D02*
X140298Y167406D01*
X140298Y168364D02*
X133006Y168364D01*
X133006Y169322D02*
X140298Y169322D01*
X140298Y170280D02*
X133006Y170280D01*
X133006Y171238D02*
X140298Y171238D01*
D11*
X513280Y664190D02*
X524320Y664190D01*
X513280Y664190D02*
X513280Y690730D01*
X524320Y690730D01*
X524320Y664190D01*
X524320Y665102D02*
X513280Y665102D01*
X513280Y666014D02*
X524320Y666014D01*
X524320Y666926D02*
X513280Y666926D01*
X513280Y667838D02*
X524320Y667838D01*
X524320Y668750D02*
X513280Y668750D01*
X513280Y669662D02*
X524320Y669662D01*
X524320Y670574D02*
X513280Y670574D01*
X513280Y671486D02*
X524320Y671486D01*
X524320Y672398D02*
X513280Y672398D01*
X513280Y673310D02*
X524320Y673310D01*
X524320Y674222D02*
X513280Y674222D01*
X513280Y675134D02*
X524320Y675134D01*
X524320Y676046D02*
X513280Y676046D01*
X513280Y676958D02*
X524320Y676958D01*
X524320Y677870D02*
X513280Y677870D01*
X513280Y678782D02*
X524320Y678782D01*
X524320Y679694D02*
X513280Y679694D01*
X513280Y680606D02*
X524320Y680606D01*
X524320Y681518D02*
X513280Y681518D01*
X513280Y682430D02*
X524320Y682430D01*
X524320Y683342D02*
X513280Y683342D01*
X513280Y684254D02*
X524320Y684254D01*
X524320Y685166D02*
X513280Y685166D01*
X513280Y686078D02*
X524320Y686078D01*
X524320Y686990D02*
X513280Y686990D01*
X513280Y687902D02*
X524320Y687902D01*
X524320Y688814D02*
X513280Y688814D01*
X513280Y689726D02*
X524320Y689726D01*
X524320Y690638D02*
X513280Y690638D01*
X720280Y664190D02*
X731320Y664190D01*
X720280Y664190D02*
X720280Y690730D01*
X731320Y690730D01*
X731320Y664190D01*
X731320Y665102D02*
X720280Y665102D01*
X720280Y666014D02*
X731320Y666014D01*
X731320Y666926D02*
X720280Y666926D01*
X720280Y667838D02*
X731320Y667838D01*
X731320Y668750D02*
X720280Y668750D01*
X720280Y669662D02*
X731320Y669662D01*
X731320Y670574D02*
X720280Y670574D01*
X720280Y671486D02*
X731320Y671486D01*
X731320Y672398D02*
X720280Y672398D01*
X720280Y673310D02*
X731320Y673310D01*
X731320Y674222D02*
X720280Y674222D01*
X720280Y675134D02*
X731320Y675134D01*
X731320Y676046D02*
X720280Y676046D01*
X720280Y676958D02*
X731320Y676958D01*
X731320Y677870D02*
X720280Y677870D01*
X720280Y678782D02*
X731320Y678782D01*
X731320Y679694D02*
X720280Y679694D01*
X720280Y680606D02*
X731320Y680606D01*
X731320Y681518D02*
X720280Y681518D01*
X720280Y682430D02*
X731320Y682430D01*
X731320Y683342D02*
X720280Y683342D01*
X720280Y684254D02*
X731320Y684254D01*
X731320Y685166D02*
X720280Y685166D01*
X720280Y686078D02*
X731320Y686078D01*
X731320Y686990D02*
X720280Y686990D01*
X720280Y687902D02*
X731320Y687902D01*
X731320Y688814D02*
X720280Y688814D01*
X720280Y689726D02*
X731320Y689726D01*
X731320Y690638D02*
X720280Y690638D01*
D12*
X712300Y609710D03*
X702300Y609710D03*
X697300Y609710D03*
X707300Y609710D03*
X692300Y609710D03*
X682300Y609710D03*
X677300Y609710D03*
X687300Y609710D03*
X672300Y609710D03*
X662300Y609710D03*
X657300Y609710D03*
X667300Y609710D03*
X652300Y609710D03*
X642300Y609710D03*
X637300Y609710D03*
X647300Y609710D03*
X632300Y609710D03*
X622300Y609710D03*
X617300Y609710D03*
X627300Y609710D03*
X612300Y609710D03*
X607300Y609710D03*
X582300Y609710D03*
X577300Y609710D03*
X572300Y609710D03*
X562300Y609710D03*
X557300Y609710D03*
X567300Y609710D03*
X552300Y609710D03*
X542300Y609710D03*
X537300Y609710D03*
X547300Y609710D03*
X532300Y609710D03*
X714800Y685210D03*
X704800Y685210D03*
X699800Y685210D03*
X709800Y685210D03*
X694800Y685210D03*
X684800Y685210D03*
X679800Y685210D03*
X689800Y685210D03*
X674800Y685210D03*
X664800Y685210D03*
X659800Y685210D03*
X669800Y685210D03*
X654800Y685210D03*
X644800Y685210D03*
X639800Y685210D03*
X649800Y685210D03*
X634800Y685210D03*
X624800Y685210D03*
X619800Y685210D03*
X629800Y685210D03*
X614800Y685210D03*
X609800Y685210D03*
X584800Y685210D03*
X579800Y685210D03*
X574800Y685210D03*
X564800Y685210D03*
X559800Y685210D03*
X569800Y685210D03*
X554800Y685210D03*
X544800Y685210D03*
X539800Y685210D03*
X549800Y685210D03*
X534800Y685210D03*
X529800Y685210D03*
D11*
X896820Y664190D02*
X907860Y664190D01*
X896820Y664190D02*
X896820Y690730D01*
X907860Y690730D01*
X907860Y664190D01*
X907860Y665102D02*
X896820Y665102D01*
X896820Y666014D02*
X907860Y666014D01*
X907860Y666926D02*
X896820Y666926D01*
X896820Y667838D02*
X907860Y667838D01*
X907860Y668750D02*
X896820Y668750D01*
X896820Y669662D02*
X907860Y669662D01*
X907860Y670574D02*
X896820Y670574D01*
X896820Y671486D02*
X907860Y671486D01*
X907860Y672398D02*
X896820Y672398D01*
X896820Y673310D02*
X907860Y673310D01*
X907860Y674222D02*
X896820Y674222D01*
X896820Y675134D02*
X907860Y675134D01*
X907860Y676046D02*
X896820Y676046D01*
X896820Y676958D02*
X907860Y676958D01*
X907860Y677870D02*
X896820Y677870D01*
X896820Y678782D02*
X907860Y678782D01*
X907860Y679694D02*
X896820Y679694D01*
X896820Y680606D02*
X907860Y680606D01*
X907860Y681518D02*
X896820Y681518D01*
X896820Y682430D02*
X907860Y682430D01*
X907860Y683342D02*
X896820Y683342D01*
X896820Y684254D02*
X907860Y684254D01*
X907860Y685166D02*
X896820Y685166D01*
X896820Y686078D02*
X907860Y686078D01*
X907860Y686990D02*
X896820Y686990D01*
X896820Y687902D02*
X907860Y687902D01*
X907860Y688814D02*
X896820Y688814D01*
X896820Y689726D02*
X907860Y689726D01*
X907860Y690638D02*
X896820Y690638D01*
X1103820Y664190D02*
X1114860Y664190D01*
X1103820Y664190D02*
X1103820Y690730D01*
X1114860Y690730D01*
X1114860Y664190D01*
X1114860Y665102D02*
X1103820Y665102D01*
X1103820Y666014D02*
X1114860Y666014D01*
X1114860Y666926D02*
X1103820Y666926D01*
X1103820Y667838D02*
X1114860Y667838D01*
X1114860Y668750D02*
X1103820Y668750D01*
X1103820Y669662D02*
X1114860Y669662D01*
X1114860Y670574D02*
X1103820Y670574D01*
X1103820Y671486D02*
X1114860Y671486D01*
X1114860Y672398D02*
X1103820Y672398D01*
X1103820Y673310D02*
X1114860Y673310D01*
X1114860Y674222D02*
X1103820Y674222D01*
X1103820Y675134D02*
X1114860Y675134D01*
X1114860Y676046D02*
X1103820Y676046D01*
X1103820Y676958D02*
X1114860Y676958D01*
X1114860Y677870D02*
X1103820Y677870D01*
X1103820Y678782D02*
X1114860Y678782D01*
X1114860Y679694D02*
X1103820Y679694D01*
X1103820Y680606D02*
X1114860Y680606D01*
X1114860Y681518D02*
X1103820Y681518D01*
X1103820Y682430D02*
X1114860Y682430D01*
X1114860Y683342D02*
X1103820Y683342D01*
X1103820Y684254D02*
X1114860Y684254D01*
X1114860Y685166D02*
X1103820Y685166D01*
X1103820Y686078D02*
X1114860Y686078D01*
X1114860Y686990D02*
X1103820Y686990D01*
X1103820Y687902D02*
X1114860Y687902D01*
X1114860Y688814D02*
X1103820Y688814D01*
X1103820Y689726D02*
X1114860Y689726D01*
X1114860Y690638D02*
X1103820Y690638D01*
D12*
X1095840Y609710D03*
X1085840Y609710D03*
X1080840Y609710D03*
X1090840Y609710D03*
X1075840Y609710D03*
X1065840Y609710D03*
X1060840Y609710D03*
X1070840Y609710D03*
X1055840Y609710D03*
X1045840Y609710D03*
X1040840Y609710D03*
X1050840Y609710D03*
X1035840Y609710D03*
X1025840Y609710D03*
X1020840Y609710D03*
X1030840Y609710D03*
X1015840Y609710D03*
X1005840Y609710D03*
X1000840Y609710D03*
X1010840Y609710D03*
X995840Y609710D03*
X990840Y609710D03*
X965840Y609710D03*
X960840Y609710D03*
X955840Y609710D03*
X945840Y609710D03*
X940840Y609710D03*
X950840Y609710D03*
X935840Y609710D03*
X925840Y609710D03*
X920840Y609710D03*
X930840Y609710D03*
X915840Y609710D03*
X1098340Y685210D03*
X1088340Y685210D03*
X1083340Y685210D03*
X1093340Y685210D03*
X1078340Y685210D03*
X1068340Y685210D03*
X1063340Y685210D03*
X1073340Y685210D03*
X1058340Y685210D03*
X1048340Y685210D03*
X1043340Y685210D03*
X1053340Y685210D03*
X1038340Y685210D03*
X1028340Y685210D03*
X1023340Y685210D03*
X1033340Y685210D03*
X1018340Y685210D03*
X1008340Y685210D03*
X1003340Y685210D03*
X1013340Y685210D03*
X998340Y685210D03*
X993340Y685210D03*
X968340Y685210D03*
X963340Y685210D03*
X958340Y685210D03*
X948340Y685210D03*
X943340Y685210D03*
X953340Y685210D03*
X938340Y685210D03*
X928340Y685210D03*
X923340Y685210D03*
X933340Y685210D03*
X918340Y685210D03*
X913340Y685210D03*
D20*
X257475Y136605D02*
X257475Y121655D01*
X251525Y121655D01*
X251525Y136605D01*
X257475Y136605D01*
X257475Y122652D02*
X251525Y122652D01*
X251525Y123649D02*
X257475Y123649D01*
X257475Y124646D02*
X251525Y124646D01*
X251525Y125643D02*
X257475Y125643D01*
X257475Y126640D02*
X251525Y126640D01*
X251525Y127637D02*
X257475Y127637D01*
X257475Y128634D02*
X251525Y128634D01*
X251525Y129631D02*
X257475Y129631D01*
X257475Y130628D02*
X251525Y130628D01*
X251525Y131625D02*
X257475Y131625D01*
X257475Y132622D02*
X251525Y132622D01*
X251525Y133619D02*
X257475Y133619D01*
X257475Y134616D02*
X251525Y134616D01*
X251525Y135613D02*
X257475Y135613D01*
X268475Y136605D02*
X268475Y121655D01*
X262525Y121655D01*
X262525Y136605D01*
X268475Y136605D01*
X268475Y122652D02*
X262525Y122652D01*
X262525Y123649D02*
X268475Y123649D01*
X268475Y124646D02*
X262525Y124646D01*
X262525Y125643D02*
X268475Y125643D01*
X268475Y126640D02*
X262525Y126640D01*
X262525Y127637D02*
X268475Y127637D01*
X268475Y128634D02*
X262525Y128634D01*
X262525Y129631D02*
X268475Y129631D01*
X268475Y130628D02*
X262525Y130628D01*
X262525Y131625D02*
X268475Y131625D01*
X268475Y132622D02*
X262525Y132622D01*
X262525Y133619D02*
X268475Y133619D01*
X268475Y134616D02*
X262525Y134616D01*
X262525Y135613D02*
X268475Y135613D01*
X279475Y136605D02*
X279475Y121655D01*
X273525Y121655D01*
X273525Y136605D01*
X279475Y136605D01*
X279475Y122652D02*
X273525Y122652D01*
X273525Y123649D02*
X279475Y123649D01*
X279475Y124646D02*
X273525Y124646D01*
X273525Y125643D02*
X279475Y125643D01*
X279475Y126640D02*
X273525Y126640D01*
X273525Y127637D02*
X279475Y127637D01*
X279475Y128634D02*
X273525Y128634D01*
X273525Y129631D02*
X279475Y129631D01*
X279475Y130628D02*
X273525Y130628D01*
X273525Y131625D02*
X279475Y131625D01*
X279475Y132622D02*
X273525Y132622D01*
X273525Y133619D02*
X279475Y133619D01*
X279475Y134616D02*
X273525Y134616D01*
X273525Y135613D02*
X279475Y135613D01*
X246475Y136605D02*
X246475Y121655D01*
X240525Y121655D01*
X240525Y136605D01*
X246475Y136605D01*
X246475Y122652D02*
X240525Y122652D01*
X240525Y123649D02*
X246475Y123649D01*
X246475Y124646D02*
X240525Y124646D01*
X240525Y125643D02*
X246475Y125643D01*
X246475Y126640D02*
X240525Y126640D01*
X240525Y127637D02*
X246475Y127637D01*
X246475Y128634D02*
X240525Y128634D01*
X240525Y129631D02*
X246475Y129631D01*
X246475Y130628D02*
X240525Y130628D01*
X240525Y131625D02*
X246475Y131625D01*
X246475Y132622D02*
X240525Y132622D01*
X240525Y133619D02*
X246475Y133619D01*
X246475Y134616D02*
X240525Y134616D01*
X240525Y135613D02*
X246475Y135613D01*
X235475Y136605D02*
X235475Y121655D01*
X229525Y121655D01*
X229525Y136605D01*
X235475Y136605D01*
X235475Y122652D02*
X229525Y122652D01*
X229525Y123649D02*
X235475Y123649D01*
X235475Y124646D02*
X229525Y124646D01*
X229525Y125643D02*
X235475Y125643D01*
X235475Y126640D02*
X229525Y126640D01*
X229525Y127637D02*
X235475Y127637D01*
X235475Y128634D02*
X229525Y128634D01*
X229525Y129631D02*
X235475Y129631D01*
X235475Y130628D02*
X229525Y130628D01*
X229525Y131625D02*
X235475Y131625D01*
X235475Y132622D02*
X229525Y132622D01*
X229525Y133619D02*
X235475Y133619D01*
X235475Y134616D02*
X229525Y134616D01*
X229525Y135613D02*
X235475Y135613D01*
X224475Y136605D02*
X224475Y121655D01*
X218525Y121655D01*
X218525Y136605D01*
X224475Y136605D01*
X224475Y122652D02*
X218525Y122652D01*
X218525Y123649D02*
X224475Y123649D01*
X224475Y124646D02*
X218525Y124646D01*
X218525Y125643D02*
X224475Y125643D01*
X224475Y126640D02*
X218525Y126640D01*
X218525Y127637D02*
X224475Y127637D01*
X224475Y128634D02*
X218525Y128634D01*
X218525Y129631D02*
X224475Y129631D01*
X224475Y130628D02*
X218525Y130628D01*
X218525Y131625D02*
X224475Y131625D01*
X224475Y132622D02*
X218525Y132622D01*
X218525Y133619D02*
X224475Y133619D01*
X224475Y134616D02*
X218525Y134616D01*
X218525Y135613D02*
X224475Y135613D01*
X213475Y136605D02*
X213475Y121655D01*
X207525Y121655D01*
X207525Y136605D01*
X213475Y136605D01*
X213475Y122652D02*
X207525Y122652D01*
X207525Y123649D02*
X213475Y123649D01*
X213475Y124646D02*
X207525Y124646D01*
X207525Y125643D02*
X213475Y125643D01*
X213475Y126640D02*
X207525Y126640D01*
X207525Y127637D02*
X213475Y127637D01*
X213475Y128634D02*
X207525Y128634D01*
X207525Y129631D02*
X213475Y129631D01*
X213475Y130628D02*
X207525Y130628D01*
X207525Y131625D02*
X213475Y131625D01*
X213475Y132622D02*
X207525Y132622D01*
X207525Y133619D02*
X213475Y133619D01*
X213475Y134616D02*
X207525Y134616D01*
X207525Y135613D02*
X213475Y135613D01*
X202475Y136605D02*
X202475Y121655D01*
X196525Y121655D01*
X196525Y136605D01*
X202475Y136605D01*
X202475Y122652D02*
X196525Y122652D01*
X196525Y123649D02*
X202475Y123649D01*
X202475Y124646D02*
X196525Y124646D01*
X196525Y125643D02*
X202475Y125643D01*
X202475Y126640D02*
X196525Y126640D01*
X196525Y127637D02*
X202475Y127637D01*
X202475Y128634D02*
X196525Y128634D01*
X196525Y129631D02*
X202475Y129631D01*
X202475Y130628D02*
X196525Y130628D01*
X196525Y131625D02*
X202475Y131625D01*
X202475Y132622D02*
X196525Y132622D01*
X196525Y133619D02*
X202475Y133619D01*
X202475Y134616D02*
X196525Y134616D01*
X196525Y135613D02*
X202475Y135613D01*
X191475Y136605D02*
X191475Y121655D01*
X185525Y121655D01*
X185525Y136605D01*
X191475Y136605D01*
X191475Y122652D02*
X185525Y122652D01*
X185525Y123649D02*
X191475Y123649D01*
X191475Y124646D02*
X185525Y124646D01*
X185525Y125643D02*
X191475Y125643D01*
X191475Y126640D02*
X185525Y126640D01*
X185525Y127637D02*
X191475Y127637D01*
X191475Y128634D02*
X185525Y128634D01*
X185525Y129631D02*
X191475Y129631D01*
X191475Y130628D02*
X185525Y130628D01*
X185525Y131625D02*
X191475Y131625D01*
X191475Y132622D02*
X185525Y132622D01*
X185525Y133619D02*
X191475Y133619D01*
X191475Y134616D02*
X185525Y134616D01*
X185525Y135613D02*
X191475Y135613D01*
D11*
X325980Y17610D02*
X337020Y17610D01*
X325980Y17610D02*
X325980Y38650D01*
X337020Y38650D01*
X337020Y17610D01*
X337020Y18522D02*
X325980Y18522D01*
X325980Y19434D02*
X337020Y19434D01*
X337020Y20346D02*
X325980Y20346D01*
X325980Y21258D02*
X337020Y21258D01*
X337020Y22170D02*
X325980Y22170D01*
X325980Y23082D02*
X337020Y23082D01*
X337020Y23994D02*
X325980Y23994D01*
X325980Y24906D02*
X337020Y24906D01*
X337020Y25818D02*
X325980Y25818D01*
X325980Y26730D02*
X337020Y26730D01*
X337020Y27642D02*
X325980Y27642D01*
X325980Y28554D02*
X337020Y28554D01*
X337020Y29466D02*
X325980Y29466D01*
X325980Y30378D02*
X337020Y30378D01*
X337020Y31290D02*
X325980Y31290D01*
X325980Y32202D02*
X337020Y32202D01*
X337020Y33114D02*
X325980Y33114D01*
X325980Y34026D02*
X337020Y34026D01*
X337020Y34938D02*
X325980Y34938D01*
X325980Y35850D02*
X337020Y35850D01*
X337020Y36762D02*
X325980Y36762D01*
X325980Y37674D02*
X337020Y37674D01*
X337020Y38586D02*
X325980Y38586D01*
X182020Y17610D02*
X170980Y17610D01*
X170980Y38650D01*
X182020Y38650D01*
X182020Y17610D01*
X182020Y18522D02*
X170980Y18522D01*
X170980Y19434D02*
X182020Y19434D01*
X182020Y20346D02*
X170980Y20346D01*
X170980Y21258D02*
X182020Y21258D01*
X182020Y22170D02*
X170980Y22170D01*
X170980Y23082D02*
X182020Y23082D01*
X182020Y23994D02*
X170980Y23994D01*
X170980Y24906D02*
X182020Y24906D01*
X182020Y25818D02*
X170980Y25818D01*
X170980Y26730D02*
X182020Y26730D01*
X182020Y27642D02*
X170980Y27642D01*
X170980Y28554D02*
X182020Y28554D01*
X182020Y29466D02*
X170980Y29466D01*
X170980Y30378D02*
X182020Y30378D01*
X182020Y31290D02*
X170980Y31290D01*
X170980Y32202D02*
X182020Y32202D01*
X182020Y33114D02*
X170980Y33114D01*
X170980Y34026D02*
X182020Y34026D01*
X182020Y34938D02*
X170980Y34938D01*
X170980Y35850D02*
X182020Y35850D01*
X182020Y36762D02*
X170980Y36762D01*
X170980Y37674D02*
X182020Y37674D01*
X182020Y38586D02*
X170980Y38586D01*
D21*
X314990Y117620D02*
X330010Y117620D01*
X314990Y117620D02*
X314990Y130640D01*
X330010Y130640D01*
X330010Y117620D01*
X330010Y118551D02*
X314990Y118551D01*
X314990Y119482D02*
X330010Y119482D01*
X330010Y120413D02*
X314990Y120413D01*
X314990Y121344D02*
X330010Y121344D01*
X330010Y122275D02*
X314990Y122275D01*
X314990Y123206D02*
X330010Y123206D01*
X330010Y124137D02*
X314990Y124137D01*
X314990Y125068D02*
X330010Y125068D01*
X330010Y125999D02*
X314990Y125999D01*
X314990Y126930D02*
X330010Y126930D01*
X330010Y127861D02*
X314990Y127861D01*
X314990Y128792D02*
X330010Y128792D01*
X330010Y129723D02*
X314990Y129723D01*
D11*
X182020Y115610D02*
X170980Y115610D01*
X170980Y130650D01*
X182020Y130650D01*
X182020Y115610D01*
X182020Y116522D02*
X170980Y116522D01*
X170980Y117434D02*
X182020Y117434D01*
X182020Y118346D02*
X170980Y118346D01*
X170980Y119258D02*
X182020Y119258D01*
X182020Y120170D02*
X170980Y120170D01*
X170980Y121082D02*
X182020Y121082D01*
X182020Y121994D02*
X170980Y121994D01*
X170980Y122906D02*
X182020Y122906D01*
X182020Y123818D02*
X170980Y123818D01*
X170980Y124730D02*
X182020Y124730D01*
X182020Y125642D02*
X170980Y125642D01*
X170980Y126554D02*
X182020Y126554D01*
X182020Y127466D02*
X170980Y127466D01*
X170980Y128378D02*
X182020Y128378D01*
X182020Y129290D02*
X170980Y129290D01*
X170980Y130202D02*
X182020Y130202D01*
D13*
X247070Y150584D02*
X247070Y160584D01*
X247070Y150584D02*
X238070Y150584D01*
X238070Y160584D01*
X247070Y160584D01*
X247070Y151534D02*
X238070Y151534D01*
X238070Y152484D02*
X247070Y152484D01*
X247070Y153434D02*
X238070Y153434D01*
X238070Y154384D02*
X247070Y154384D01*
X247070Y155334D02*
X238070Y155334D01*
X238070Y156284D02*
X247070Y156284D01*
X247070Y157234D02*
X238070Y157234D01*
X238070Y158184D02*
X247070Y158184D01*
X247070Y159134D02*
X238070Y159134D01*
X238070Y160084D02*
X247070Y160084D01*
X247070Y167584D02*
X247070Y177584D01*
X247070Y167584D02*
X238070Y167584D01*
X238070Y177584D01*
X247070Y177584D01*
X247070Y168534D02*
X238070Y168534D01*
X238070Y169484D02*
X247070Y169484D01*
X247070Y170434D02*
X238070Y170434D01*
X238070Y171384D02*
X247070Y171384D01*
X247070Y172334D02*
X238070Y172334D01*
X238070Y173284D02*
X247070Y173284D01*
X247070Y174234D02*
X238070Y174234D01*
X238070Y175184D02*
X247070Y175184D01*
X247070Y176134D02*
X238070Y176134D01*
X238070Y177084D02*
X247070Y177084D01*
X39188Y271406D02*
X39188Y281406D01*
X48188Y281406D01*
X48188Y271406D01*
X39188Y271406D01*
X39188Y272356D02*
X48188Y272356D01*
X48188Y273306D02*
X39188Y273306D01*
X39188Y274256D02*
X48188Y274256D01*
X48188Y275206D02*
X39188Y275206D01*
X39188Y276156D02*
X48188Y276156D01*
X48188Y277106D02*
X39188Y277106D01*
X39188Y278056D02*
X48188Y278056D01*
X48188Y279006D02*
X39188Y279006D01*
X39188Y279956D02*
X48188Y279956D01*
X48188Y280906D02*
X39188Y280906D01*
X39188Y264406D02*
X39188Y254406D01*
X39188Y264406D02*
X48188Y264406D01*
X48188Y254406D01*
X39188Y254406D01*
X39188Y255356D02*
X48188Y255356D01*
X48188Y256306D02*
X39188Y256306D01*
X39188Y257256D02*
X48188Y257256D01*
X48188Y258206D02*
X39188Y258206D01*
X39188Y259156D02*
X48188Y259156D01*
X48188Y260106D02*
X39188Y260106D01*
X39188Y261056D02*
X48188Y261056D01*
X48188Y262006D02*
X39188Y262006D01*
X39188Y262956D02*
X48188Y262956D01*
X48188Y263906D02*
X39188Y263906D01*
D15*
X29922Y261656D02*
X22922Y261656D01*
X29922Y261656D02*
X29922Y254656D01*
X22922Y254656D01*
X22922Y261656D01*
X22922Y257506D02*
X29922Y257506D01*
X29922Y260356D02*
X22922Y260356D01*
X22922Y279196D02*
X29922Y279196D01*
X29922Y272196D01*
X22922Y272196D01*
X22922Y279196D01*
X22922Y275046D02*
X29922Y275046D01*
X29922Y277896D02*
X22922Y277896D01*
M02*
