G04 EAGLE Gerber RS-274X export*
G75*
%MOMM*%
%FSLAX34Y34*%
%LPD*%
%INSoldermask Top*%
%IPPOS*%
%AMOC8*
5,1,8,0,0,1.08239X$1,22.5*%
G01*
%ADD10C,0.225369*%
%ADD11C,0.225588*%
%ADD12C,6.127000*%
%ADD13C,3.175000*%
%ADD14C,1.227000*%
%ADD15C,1.727000*%
%ADD16C,0.230578*%
%ADD17C,0.225400*%
%ADD18C,0.224509*%
%ADD19C,0.223409*%
%ADD20C,0.428259*%
%ADD21C,0.777000*%
%ADD22C,1.127000*%
%ADD23C,0.227100*%
%ADD24C,0.222250*%
%ADD25C,2.006600*%
%ADD26C,0.228600*%
%ADD27C,0.231750*%
%ADD28C,0.231559*%
%ADD29C,0.229050*%
%ADD30C,0.228344*%

G36*
X146084Y46947D02*
X146084Y46947D01*
X146090Y46953D01*
X146095Y46949D01*
X147325Y47314D01*
X147330Y47321D01*
X147335Y47319D01*
X148454Y47949D01*
X148457Y47956D01*
X148463Y47955D01*
X149413Y48818D01*
X149414Y48826D01*
X149420Y48826D01*
X150154Y49879D01*
X150154Y49887D01*
X150159Y49889D01*
X150641Y51079D01*
X150639Y51084D01*
X150643Y51087D01*
X150642Y51088D01*
X150644Y51089D01*
X150849Y52356D01*
X150846Y52361D01*
X150849Y52364D01*
X150849Y64364D01*
X150846Y64368D01*
X150849Y64371D01*
X150694Y65493D01*
X150689Y65498D01*
X150692Y65502D01*
X150321Y66573D01*
X150315Y66577D01*
X150317Y66582D01*
X149744Y67559D01*
X149738Y67562D01*
X149739Y67567D01*
X148986Y68414D01*
X148979Y68416D01*
X148979Y68421D01*
X148076Y69105D01*
X148069Y69105D01*
X148068Y69110D01*
X147049Y69605D01*
X147042Y69603D01*
X147040Y69608D01*
X145943Y69895D01*
X145937Y69892D01*
X145934Y69896D01*
X144803Y69963D01*
X144797Y69963D01*
X143666Y69896D01*
X143661Y69891D01*
X143657Y69895D01*
X142560Y69608D01*
X142556Y69602D01*
X142551Y69605D01*
X141532Y69110D01*
X141529Y69104D01*
X141524Y69105D01*
X140621Y68421D01*
X140619Y68414D01*
X140614Y68414D01*
X139861Y67567D01*
X139861Y67560D01*
X139856Y67559D01*
X139283Y66582D01*
X139284Y66579D01*
X139283Y66578D01*
X139284Y66577D01*
X139284Y66575D01*
X139279Y66573D01*
X138908Y65502D01*
X138910Y65497D01*
X138907Y65495D01*
X138907Y65494D01*
X138906Y65493D01*
X138751Y64371D01*
X138754Y64366D01*
X138751Y64364D01*
X138751Y52364D01*
X138754Y52359D01*
X138751Y52356D01*
X138956Y51089D01*
X138962Y51083D01*
X138959Y51079D01*
X139441Y49889D01*
X139448Y49885D01*
X139446Y49879D01*
X140180Y48826D01*
X140188Y48824D01*
X140187Y48818D01*
X141137Y47955D01*
X141146Y47954D01*
X141146Y47949D01*
X142265Y47319D01*
X142273Y47320D01*
X142275Y47314D01*
X143505Y46949D01*
X143513Y46952D01*
X143516Y46947D01*
X144797Y46865D01*
X144801Y46868D01*
X144803Y46865D01*
X146084Y46947D01*
G37*
G36*
X59684Y46947D02*
X59684Y46947D01*
X59690Y46953D01*
X59695Y46949D01*
X60925Y47314D01*
X60930Y47321D01*
X60935Y47319D01*
X62054Y47949D01*
X62057Y47956D01*
X62063Y47955D01*
X63013Y48818D01*
X63014Y48826D01*
X63020Y48826D01*
X63754Y49879D01*
X63754Y49887D01*
X63759Y49889D01*
X64241Y51079D01*
X64239Y51084D01*
X64243Y51087D01*
X64242Y51088D01*
X64244Y51089D01*
X64449Y52356D01*
X64446Y52361D01*
X64449Y52364D01*
X64449Y64364D01*
X64446Y64368D01*
X64449Y64371D01*
X64294Y65493D01*
X64289Y65498D01*
X64292Y65502D01*
X63921Y66573D01*
X63915Y66577D01*
X63917Y66582D01*
X63344Y67559D01*
X63338Y67562D01*
X63339Y67567D01*
X62586Y68414D01*
X62579Y68416D01*
X62579Y68421D01*
X61676Y69105D01*
X61669Y69105D01*
X61668Y69110D01*
X60649Y69605D01*
X60642Y69603D01*
X60640Y69608D01*
X59543Y69895D01*
X59537Y69892D01*
X59534Y69896D01*
X58403Y69963D01*
X58397Y69963D01*
X57266Y69896D01*
X57261Y69891D01*
X57257Y69895D01*
X56160Y69608D01*
X56156Y69602D01*
X56151Y69605D01*
X55132Y69110D01*
X55129Y69104D01*
X55124Y69105D01*
X54221Y68421D01*
X54219Y68414D01*
X54214Y68414D01*
X53461Y67567D01*
X53461Y67560D01*
X53456Y67559D01*
X52883Y66582D01*
X52884Y66579D01*
X52883Y66578D01*
X52884Y66577D01*
X52884Y66575D01*
X52879Y66573D01*
X52508Y65502D01*
X52510Y65497D01*
X52507Y65495D01*
X52507Y65494D01*
X52506Y65493D01*
X52351Y64371D01*
X52354Y64366D01*
X52351Y64364D01*
X52351Y52364D01*
X52354Y52359D01*
X52351Y52356D01*
X52556Y51089D01*
X52562Y51083D01*
X52559Y51079D01*
X53041Y49889D01*
X53048Y49885D01*
X53046Y49879D01*
X53780Y48826D01*
X53788Y48824D01*
X53787Y48818D01*
X54737Y47955D01*
X54746Y47954D01*
X54746Y47949D01*
X55865Y47319D01*
X55873Y47320D01*
X55875Y47314D01*
X57105Y46949D01*
X57113Y46952D01*
X57116Y46947D01*
X58397Y46865D01*
X58401Y46868D01*
X58403Y46865D01*
X59684Y46947D01*
G37*
G36*
X145971Y7675D02*
X145971Y7675D01*
X145976Y7680D01*
X145980Y7677D01*
X147103Y8012D01*
X147107Y8018D01*
X147111Y8016D01*
X148147Y8564D01*
X148150Y8570D01*
X148155Y8569D01*
X149063Y9308D01*
X149065Y9315D01*
X149070Y9315D01*
X149817Y10217D01*
X149817Y10225D01*
X149823Y10225D01*
X150379Y11256D01*
X150378Y11263D01*
X150383Y11265D01*
X150727Y12384D01*
X150725Y12391D01*
X150729Y12394D01*
X150849Y13559D01*
X150847Y13562D01*
X150849Y13564D01*
X150849Y19564D01*
X150847Y19567D01*
X150849Y19569D01*
X150738Y20745D01*
X150733Y20750D01*
X150736Y20754D01*
X150398Y21886D01*
X150392Y21890D01*
X150394Y21895D01*
X149842Y22939D01*
X149835Y22942D01*
X149837Y22947D01*
X149091Y23863D01*
X149084Y23864D01*
X149084Y23870D01*
X148175Y24623D01*
X148167Y24623D01*
X148167Y24628D01*
X147127Y25189D01*
X147120Y25188D01*
X147118Y25193D01*
X145989Y25540D01*
X145983Y25538D01*
X145980Y25542D01*
X144805Y25663D01*
X144798Y25659D01*
X144794Y25663D01*
X143454Y25506D01*
X143448Y25501D01*
X143443Y25504D01*
X142172Y25053D01*
X142167Y25046D01*
X142162Y25048D01*
X141023Y24326D01*
X141020Y24318D01*
X141014Y24319D01*
X140064Y23361D01*
X140063Y23353D01*
X140057Y23352D01*
X139344Y22207D01*
X139345Y22199D01*
X139339Y22197D01*
X138899Y20921D01*
X138901Y20914D01*
X138897Y20911D01*
X138751Y19569D01*
X138753Y19566D01*
X138751Y19564D01*
X138751Y13564D01*
X138753Y13561D01*
X138751Y13558D01*
X138906Y12229D01*
X138912Y12223D01*
X138909Y12219D01*
X139356Y10958D01*
X139363Y10953D01*
X139361Y10948D01*
X140078Y9818D01*
X140085Y9815D01*
X140084Y9809D01*
X141035Y8867D01*
X141043Y8866D01*
X141043Y8860D01*
X142179Y8153D01*
X142187Y8154D01*
X142189Y8148D01*
X143454Y7712D01*
X143459Y7713D01*
X143460Y7713D01*
X143463Y7713D01*
X143465Y7709D01*
X144795Y7565D01*
X144801Y7569D01*
X144805Y7565D01*
X145971Y7675D01*
G37*
G36*
X59571Y7675D02*
X59571Y7675D01*
X59576Y7680D01*
X59580Y7677D01*
X60703Y8012D01*
X60707Y8018D01*
X60711Y8016D01*
X61747Y8564D01*
X61750Y8570D01*
X61755Y8569D01*
X62663Y9308D01*
X62665Y9315D01*
X62670Y9315D01*
X63417Y10217D01*
X63417Y10225D01*
X63423Y10225D01*
X63979Y11256D01*
X63978Y11263D01*
X63983Y11265D01*
X64327Y12384D01*
X64325Y12391D01*
X64329Y12394D01*
X64449Y13559D01*
X64447Y13562D01*
X64449Y13564D01*
X64449Y19564D01*
X64447Y19567D01*
X64449Y19569D01*
X64338Y20745D01*
X64333Y20750D01*
X64336Y20754D01*
X63998Y21886D01*
X63992Y21890D01*
X63994Y21895D01*
X63442Y22939D01*
X63435Y22942D01*
X63437Y22947D01*
X62691Y23863D01*
X62684Y23864D01*
X62684Y23870D01*
X61775Y24623D01*
X61767Y24623D01*
X61767Y24628D01*
X60727Y25189D01*
X60720Y25188D01*
X60718Y25193D01*
X59589Y25540D01*
X59583Y25538D01*
X59580Y25542D01*
X58405Y25663D01*
X58398Y25659D01*
X58394Y25663D01*
X57054Y25506D01*
X57048Y25501D01*
X57043Y25504D01*
X55772Y25053D01*
X55767Y25046D01*
X55762Y25048D01*
X54623Y24326D01*
X54620Y24318D01*
X54614Y24319D01*
X53664Y23361D01*
X53663Y23353D01*
X53657Y23352D01*
X52944Y22207D01*
X52945Y22199D01*
X52939Y22197D01*
X52499Y20921D01*
X52501Y20914D01*
X52497Y20911D01*
X52351Y19569D01*
X52353Y19566D01*
X52351Y19564D01*
X52351Y13564D01*
X52353Y13561D01*
X52351Y13558D01*
X52506Y12229D01*
X52512Y12223D01*
X52509Y12219D01*
X52956Y10958D01*
X52963Y10953D01*
X52961Y10948D01*
X53678Y9818D01*
X53685Y9815D01*
X53684Y9809D01*
X54635Y8867D01*
X54643Y8866D01*
X54643Y8860D01*
X55779Y8153D01*
X55787Y8154D01*
X55789Y8148D01*
X57054Y7712D01*
X57059Y7713D01*
X57060Y7713D01*
X57063Y7713D01*
X57065Y7709D01*
X58395Y7565D01*
X58401Y7569D01*
X58405Y7565D01*
X59571Y7675D01*
G37*
G36*
X122366Y330847D02*
X122366Y330847D01*
X122432Y330849D01*
X122475Y330867D01*
X122522Y330875D01*
X122579Y330909D01*
X122639Y330934D01*
X122674Y330965D01*
X122715Y330990D01*
X122757Y331041D01*
X122805Y331085D01*
X122827Y331127D01*
X122856Y331164D01*
X122877Y331226D01*
X122908Y331285D01*
X122916Y331339D01*
X122928Y331376D01*
X122927Y331416D01*
X122935Y331470D01*
X122935Y344678D01*
X122924Y344743D01*
X122922Y344809D01*
X122904Y344852D01*
X122896Y344899D01*
X122862Y344956D01*
X122837Y345016D01*
X122806Y345051D01*
X122781Y345092D01*
X122730Y345134D01*
X122686Y345182D01*
X122644Y345204D01*
X122607Y345233D01*
X122545Y345254D01*
X122486Y345285D01*
X122432Y345293D01*
X122395Y345305D01*
X122355Y345304D01*
X122301Y345312D01*
X118491Y345312D01*
X118426Y345301D01*
X118360Y345299D01*
X118317Y345281D01*
X118270Y345273D01*
X118213Y345239D01*
X118153Y345214D01*
X118118Y345183D01*
X118077Y345158D01*
X118036Y345107D01*
X117987Y345063D01*
X117965Y345021D01*
X117936Y344984D01*
X117915Y344922D01*
X117884Y344863D01*
X117876Y344809D01*
X117864Y344772D01*
X117865Y344732D01*
X117857Y344678D01*
X117857Y331470D01*
X117868Y331405D01*
X117870Y331339D01*
X117888Y331296D01*
X117896Y331249D01*
X117930Y331192D01*
X117955Y331132D01*
X117986Y331097D01*
X118011Y331056D01*
X118062Y331015D01*
X118106Y330966D01*
X118148Y330944D01*
X118185Y330915D01*
X118247Y330894D01*
X118306Y330863D01*
X118360Y330855D01*
X118397Y330843D01*
X118437Y330844D01*
X118491Y330836D01*
X122301Y330836D01*
X122366Y330847D01*
G37*
G36*
X65470Y175907D02*
X65470Y175907D01*
X65536Y175909D01*
X65579Y175927D01*
X65626Y175935D01*
X65683Y175969D01*
X65743Y175994D01*
X65778Y176025D01*
X65819Y176050D01*
X65861Y176101D01*
X65909Y176145D01*
X65931Y176187D01*
X65960Y176224D01*
X65981Y176286D01*
X66012Y176345D01*
X66020Y176399D01*
X66032Y176436D01*
X66031Y176476D01*
X66039Y176530D01*
X66039Y179070D01*
X66028Y179135D01*
X66026Y179201D01*
X66008Y179244D01*
X66000Y179291D01*
X65966Y179348D01*
X65941Y179408D01*
X65910Y179443D01*
X65885Y179484D01*
X65834Y179526D01*
X65790Y179574D01*
X65748Y179596D01*
X65711Y179625D01*
X65649Y179646D01*
X65590Y179677D01*
X65536Y179685D01*
X65499Y179697D01*
X65459Y179696D01*
X65405Y179704D01*
X61595Y179704D01*
X61530Y179693D01*
X61464Y179691D01*
X61421Y179673D01*
X61374Y179665D01*
X61317Y179631D01*
X61257Y179606D01*
X61222Y179575D01*
X61181Y179550D01*
X61140Y179499D01*
X61091Y179455D01*
X61069Y179413D01*
X61040Y179376D01*
X61019Y179314D01*
X60988Y179255D01*
X60980Y179201D01*
X60968Y179164D01*
X60968Y179161D01*
X60969Y179124D01*
X60961Y179070D01*
X60961Y176530D01*
X60972Y176465D01*
X60974Y176399D01*
X60992Y176356D01*
X61000Y176309D01*
X61034Y176252D01*
X61059Y176192D01*
X61090Y176157D01*
X61115Y176116D01*
X61166Y176075D01*
X61210Y176026D01*
X61252Y176004D01*
X61289Y175975D01*
X61351Y175954D01*
X61410Y175923D01*
X61464Y175915D01*
X61501Y175903D01*
X61541Y175904D01*
X61595Y175896D01*
X65405Y175896D01*
X65470Y175907D01*
G37*
D10*
X368728Y114792D02*
X363712Y114792D01*
X363712Y129308D01*
X368728Y129308D01*
X368728Y114792D01*
X368728Y116933D02*
X363712Y116933D01*
X363712Y119074D02*
X368728Y119074D01*
X368728Y121215D02*
X363712Y121215D01*
X363712Y123356D02*
X368728Y123356D01*
X368728Y125497D02*
X363712Y125497D01*
X363712Y127638D02*
X368728Y127638D01*
X373712Y114792D02*
X378728Y114792D01*
X373712Y114792D02*
X373712Y129308D01*
X378728Y129308D01*
X378728Y114792D01*
X378728Y116933D02*
X373712Y116933D01*
X373712Y119074D02*
X378728Y119074D01*
X378728Y121215D02*
X373712Y121215D01*
X373712Y123356D02*
X378728Y123356D01*
X378728Y125497D02*
X373712Y125497D01*
X373712Y127638D02*
X378728Y127638D01*
X383712Y114792D02*
X388728Y114792D01*
X383712Y114792D02*
X383712Y129308D01*
X388728Y129308D01*
X388728Y114792D01*
X388728Y116933D02*
X383712Y116933D01*
X383712Y119074D02*
X388728Y119074D01*
X388728Y121215D02*
X383712Y121215D01*
X383712Y123356D02*
X388728Y123356D01*
X388728Y125497D02*
X383712Y125497D01*
X383712Y127638D02*
X388728Y127638D01*
X393712Y114792D02*
X398728Y114792D01*
X393712Y114792D02*
X393712Y129308D01*
X398728Y129308D01*
X398728Y114792D01*
X398728Y116933D02*
X393712Y116933D01*
X393712Y119074D02*
X398728Y119074D01*
X398728Y121215D02*
X393712Y121215D01*
X393712Y123356D02*
X398728Y123356D01*
X398728Y125497D02*
X393712Y125497D01*
X393712Y127638D02*
X398728Y127638D01*
D11*
X358727Y136793D02*
X347713Y136793D01*
X347713Y155807D01*
X358727Y155807D01*
X358727Y136793D01*
X358727Y138936D02*
X347713Y138936D01*
X347713Y141079D02*
X358727Y141079D01*
X358727Y143222D02*
X347713Y143222D01*
X347713Y145365D02*
X358727Y145365D01*
X358727Y147508D02*
X347713Y147508D01*
X347713Y149651D02*
X358727Y149651D01*
X358727Y151794D02*
X347713Y151794D01*
X347713Y153937D02*
X358727Y153937D01*
X403713Y136793D02*
X414727Y136793D01*
X403713Y136793D02*
X403713Y155807D01*
X414727Y155807D01*
X414727Y136793D01*
X414727Y138936D02*
X403713Y138936D01*
X403713Y141079D02*
X414727Y141079D01*
X414727Y143222D02*
X403713Y143222D01*
X403713Y145365D02*
X414727Y145365D01*
X414727Y147508D02*
X403713Y147508D01*
X403713Y149651D02*
X414727Y149651D01*
X414727Y151794D02*
X403713Y151794D01*
X403713Y153937D02*
X414727Y153937D01*
X358507Y4543D02*
X347493Y4543D01*
X347493Y23557D01*
X358507Y23557D01*
X358507Y4543D01*
X358507Y6686D02*
X347493Y6686D01*
X347493Y8829D02*
X358507Y8829D01*
X358507Y10972D02*
X347493Y10972D01*
X347493Y13115D02*
X358507Y13115D01*
X358507Y15258D02*
X347493Y15258D01*
X347493Y17401D02*
X358507Y17401D01*
X358507Y19544D02*
X347493Y19544D01*
X347493Y21687D02*
X358507Y21687D01*
X403493Y4543D02*
X414507Y4543D01*
X403493Y4543D02*
X403493Y23557D01*
X414507Y23557D01*
X414507Y4543D01*
X414507Y6686D02*
X403493Y6686D01*
X403493Y8829D02*
X414507Y8829D01*
X414507Y10972D02*
X403493Y10972D01*
X403493Y13115D02*
X414507Y13115D01*
X414507Y15258D02*
X403493Y15258D01*
X403493Y17401D02*
X414507Y17401D01*
X414507Y19544D02*
X403493Y19544D01*
X403493Y21687D02*
X414507Y21687D01*
D10*
X368508Y44542D02*
X363492Y44542D01*
X363492Y57058D01*
X368508Y57058D01*
X368508Y44542D01*
X368508Y46683D02*
X363492Y46683D01*
X363492Y48824D02*
X368508Y48824D01*
X368508Y50965D02*
X363492Y50965D01*
X363492Y53106D02*
X368508Y53106D01*
X368508Y55247D02*
X363492Y55247D01*
X373492Y44542D02*
X378508Y44542D01*
X373492Y44542D02*
X373492Y57058D01*
X378508Y57058D01*
X378508Y44542D01*
X378508Y46683D02*
X373492Y46683D01*
X373492Y48824D02*
X378508Y48824D01*
X378508Y50965D02*
X373492Y50965D01*
X373492Y53106D02*
X378508Y53106D01*
X378508Y55247D02*
X373492Y55247D01*
X383492Y44542D02*
X388508Y44542D01*
X383492Y44542D02*
X383492Y57058D01*
X388508Y57058D01*
X388508Y44542D01*
X388508Y46683D02*
X383492Y46683D01*
X383492Y48824D02*
X388508Y48824D01*
X388508Y50965D02*
X383492Y50965D01*
X383492Y53106D02*
X388508Y53106D01*
X388508Y55247D02*
X383492Y55247D01*
X393492Y44542D02*
X398508Y44542D01*
X393492Y44542D02*
X393492Y57058D01*
X398508Y57058D01*
X398508Y44542D01*
X398508Y46683D02*
X393492Y46683D01*
X393492Y48824D02*
X398508Y48824D01*
X398508Y50965D02*
X393492Y50965D01*
X393492Y53106D02*
X398508Y53106D01*
X398508Y55247D02*
X393492Y55247D01*
D12*
X1196200Y210058D03*
X249972Y272742D03*
D13*
X25400Y685800D03*
X1214120Y684530D03*
X1219200Y25400D03*
X25400Y25400D03*
D14*
X189560Y474980D03*
D15*
X389560Y474980D03*
D16*
X198042Y520498D02*
X196078Y520498D01*
X196078Y534962D01*
X198042Y534962D01*
X198042Y520498D01*
X198042Y522689D02*
X196078Y522689D01*
X196078Y524880D02*
X198042Y524880D01*
X198042Y527071D02*
X196078Y527071D01*
X196078Y529262D02*
X198042Y529262D01*
X198042Y531453D02*
X196078Y531453D01*
X196078Y533644D02*
X198042Y533644D01*
D11*
X191567Y506723D02*
X180553Y506723D01*
X180553Y533237D01*
X191567Y533237D01*
X191567Y506723D01*
X191567Y508866D02*
X180553Y508866D01*
X180553Y511009D02*
X191567Y511009D01*
X191567Y513152D02*
X180553Y513152D01*
X180553Y515295D02*
X191567Y515295D01*
X191567Y517438D02*
X180553Y517438D01*
X180553Y519581D02*
X191567Y519581D01*
X191567Y521724D02*
X180553Y521724D01*
X180553Y523867D02*
X191567Y523867D01*
X191567Y526010D02*
X180553Y526010D01*
X180553Y528153D02*
X191567Y528153D01*
X191567Y530296D02*
X180553Y530296D01*
X180553Y532439D02*
X191567Y532439D01*
X387553Y506723D02*
X398567Y506723D01*
X387553Y506723D02*
X387553Y533237D01*
X398567Y533237D01*
X398567Y506723D01*
X398567Y508866D02*
X387553Y508866D01*
X387553Y511009D02*
X398567Y511009D01*
X398567Y513152D02*
X387553Y513152D01*
X387553Y515295D02*
X398567Y515295D01*
X398567Y517438D02*
X387553Y517438D01*
X387553Y519581D02*
X398567Y519581D01*
X398567Y521724D02*
X387553Y521724D01*
X387553Y523867D02*
X398567Y523867D01*
X398567Y526010D02*
X387553Y526010D01*
X387553Y528153D02*
X398567Y528153D01*
X398567Y530296D02*
X387553Y530296D01*
X387553Y532439D02*
X398567Y532439D01*
D16*
X200542Y444998D02*
X198578Y444998D01*
X198578Y459462D01*
X200542Y459462D01*
X200542Y444998D01*
X200542Y447189D02*
X198578Y447189D01*
X198578Y449380D02*
X200542Y449380D01*
X200542Y451571D02*
X198578Y451571D01*
X198578Y453762D02*
X200542Y453762D01*
X200542Y455953D02*
X198578Y455953D01*
X198578Y458144D02*
X200542Y458144D01*
X201078Y520498D02*
X203042Y520498D01*
X201078Y520498D02*
X201078Y534962D01*
X203042Y534962D01*
X203042Y520498D01*
X203042Y522689D02*
X201078Y522689D01*
X201078Y524880D02*
X203042Y524880D01*
X203042Y527071D02*
X201078Y527071D01*
X201078Y529262D02*
X203042Y529262D01*
X203042Y531453D02*
X201078Y531453D01*
X201078Y533644D02*
X203042Y533644D01*
X203578Y444998D02*
X205542Y444998D01*
X203578Y444998D02*
X203578Y459462D01*
X205542Y459462D01*
X205542Y444998D01*
X205542Y447189D02*
X203578Y447189D01*
X203578Y449380D02*
X205542Y449380D01*
X205542Y451571D02*
X203578Y451571D01*
X203578Y453762D02*
X205542Y453762D01*
X205542Y455953D02*
X203578Y455953D01*
X203578Y458144D02*
X205542Y458144D01*
X206078Y520498D02*
X208042Y520498D01*
X206078Y520498D02*
X206078Y534962D01*
X208042Y534962D01*
X208042Y520498D01*
X208042Y522689D02*
X206078Y522689D01*
X206078Y524880D02*
X208042Y524880D01*
X208042Y527071D02*
X206078Y527071D01*
X206078Y529262D02*
X208042Y529262D01*
X208042Y531453D02*
X206078Y531453D01*
X206078Y533644D02*
X208042Y533644D01*
X208578Y444998D02*
X210542Y444998D01*
X208578Y444998D02*
X208578Y459462D01*
X210542Y459462D01*
X210542Y444998D01*
X210542Y447189D02*
X208578Y447189D01*
X208578Y449380D02*
X210542Y449380D01*
X210542Y451571D02*
X208578Y451571D01*
X208578Y453762D02*
X210542Y453762D01*
X210542Y455953D02*
X208578Y455953D01*
X208578Y458144D02*
X210542Y458144D01*
X211078Y520498D02*
X213042Y520498D01*
X211078Y520498D02*
X211078Y534962D01*
X213042Y534962D01*
X213042Y520498D01*
X213042Y522689D02*
X211078Y522689D01*
X211078Y524880D02*
X213042Y524880D01*
X213042Y527071D02*
X211078Y527071D01*
X211078Y529262D02*
X213042Y529262D01*
X213042Y531453D02*
X211078Y531453D01*
X211078Y533644D02*
X213042Y533644D01*
X213578Y444998D02*
X215542Y444998D01*
X213578Y444998D02*
X213578Y459462D01*
X215542Y459462D01*
X215542Y444998D01*
X215542Y447189D02*
X213578Y447189D01*
X213578Y449380D02*
X215542Y449380D01*
X215542Y451571D02*
X213578Y451571D01*
X213578Y453762D02*
X215542Y453762D01*
X215542Y455953D02*
X213578Y455953D01*
X213578Y458144D02*
X215542Y458144D01*
X216078Y520498D02*
X218042Y520498D01*
X216078Y520498D02*
X216078Y534962D01*
X218042Y534962D01*
X218042Y520498D01*
X218042Y522689D02*
X216078Y522689D01*
X216078Y524880D02*
X218042Y524880D01*
X218042Y527071D02*
X216078Y527071D01*
X216078Y529262D02*
X218042Y529262D01*
X218042Y531453D02*
X216078Y531453D01*
X216078Y533644D02*
X218042Y533644D01*
X218578Y444998D02*
X220542Y444998D01*
X218578Y444998D02*
X218578Y459462D01*
X220542Y459462D01*
X220542Y444998D01*
X220542Y447189D02*
X218578Y447189D01*
X218578Y449380D02*
X220542Y449380D01*
X220542Y451571D02*
X218578Y451571D01*
X218578Y453762D02*
X220542Y453762D01*
X220542Y455953D02*
X218578Y455953D01*
X218578Y458144D02*
X220542Y458144D01*
X221078Y520498D02*
X223042Y520498D01*
X221078Y520498D02*
X221078Y534962D01*
X223042Y534962D01*
X223042Y520498D01*
X223042Y522689D02*
X221078Y522689D01*
X221078Y524880D02*
X223042Y524880D01*
X223042Y527071D02*
X221078Y527071D01*
X221078Y529262D02*
X223042Y529262D01*
X223042Y531453D02*
X221078Y531453D01*
X221078Y533644D02*
X223042Y533644D01*
X223578Y444998D02*
X225542Y444998D01*
X223578Y444998D02*
X223578Y459462D01*
X225542Y459462D01*
X225542Y444998D01*
X225542Y447189D02*
X223578Y447189D01*
X223578Y449380D02*
X225542Y449380D01*
X225542Y451571D02*
X223578Y451571D01*
X223578Y453762D02*
X225542Y453762D01*
X225542Y455953D02*
X223578Y455953D01*
X223578Y458144D02*
X225542Y458144D01*
X226078Y520498D02*
X228042Y520498D01*
X226078Y520498D02*
X226078Y534962D01*
X228042Y534962D01*
X228042Y520498D01*
X228042Y522689D02*
X226078Y522689D01*
X226078Y524880D02*
X228042Y524880D01*
X228042Y527071D02*
X226078Y527071D01*
X226078Y529262D02*
X228042Y529262D01*
X228042Y531453D02*
X226078Y531453D01*
X226078Y533644D02*
X228042Y533644D01*
X228578Y444998D02*
X230542Y444998D01*
X228578Y444998D02*
X228578Y459462D01*
X230542Y459462D01*
X230542Y444998D01*
X230542Y447189D02*
X228578Y447189D01*
X228578Y449380D02*
X230542Y449380D01*
X230542Y451571D02*
X228578Y451571D01*
X228578Y453762D02*
X230542Y453762D01*
X230542Y455953D02*
X228578Y455953D01*
X228578Y458144D02*
X230542Y458144D01*
X231078Y520498D02*
X233042Y520498D01*
X231078Y520498D02*
X231078Y534962D01*
X233042Y534962D01*
X233042Y520498D01*
X233042Y522689D02*
X231078Y522689D01*
X231078Y524880D02*
X233042Y524880D01*
X233042Y527071D02*
X231078Y527071D01*
X231078Y529262D02*
X233042Y529262D01*
X233042Y531453D02*
X231078Y531453D01*
X231078Y533644D02*
X233042Y533644D01*
X233578Y444998D02*
X235542Y444998D01*
X233578Y444998D02*
X233578Y459462D01*
X235542Y459462D01*
X235542Y444998D01*
X235542Y447189D02*
X233578Y447189D01*
X233578Y449380D02*
X235542Y449380D01*
X235542Y451571D02*
X233578Y451571D01*
X233578Y453762D02*
X235542Y453762D01*
X235542Y455953D02*
X233578Y455953D01*
X233578Y458144D02*
X235542Y458144D01*
X236078Y520498D02*
X238042Y520498D01*
X236078Y520498D02*
X236078Y534962D01*
X238042Y534962D01*
X238042Y520498D01*
X238042Y522689D02*
X236078Y522689D01*
X236078Y524880D02*
X238042Y524880D01*
X238042Y527071D02*
X236078Y527071D01*
X236078Y529262D02*
X238042Y529262D01*
X238042Y531453D02*
X236078Y531453D01*
X236078Y533644D02*
X238042Y533644D01*
X238578Y444998D02*
X240542Y444998D01*
X238578Y444998D02*
X238578Y459462D01*
X240542Y459462D01*
X240542Y444998D01*
X240542Y447189D02*
X238578Y447189D01*
X238578Y449380D02*
X240542Y449380D01*
X240542Y451571D02*
X238578Y451571D01*
X238578Y453762D02*
X240542Y453762D01*
X240542Y455953D02*
X238578Y455953D01*
X238578Y458144D02*
X240542Y458144D01*
X241078Y520498D02*
X243042Y520498D01*
X241078Y520498D02*
X241078Y534962D01*
X243042Y534962D01*
X243042Y520498D01*
X243042Y522689D02*
X241078Y522689D01*
X241078Y524880D02*
X243042Y524880D01*
X243042Y527071D02*
X241078Y527071D01*
X241078Y529262D02*
X243042Y529262D01*
X243042Y531453D02*
X241078Y531453D01*
X241078Y533644D02*
X243042Y533644D01*
X243578Y444998D02*
X245542Y444998D01*
X243578Y444998D02*
X243578Y459462D01*
X245542Y459462D01*
X245542Y444998D01*
X245542Y447189D02*
X243578Y447189D01*
X243578Y449380D02*
X245542Y449380D01*
X245542Y451571D02*
X243578Y451571D01*
X243578Y453762D02*
X245542Y453762D01*
X245542Y455953D02*
X243578Y455953D01*
X243578Y458144D02*
X245542Y458144D01*
X246078Y520498D02*
X248042Y520498D01*
X246078Y520498D02*
X246078Y534962D01*
X248042Y534962D01*
X248042Y520498D01*
X248042Y522689D02*
X246078Y522689D01*
X246078Y524880D02*
X248042Y524880D01*
X248042Y527071D02*
X246078Y527071D01*
X246078Y529262D02*
X248042Y529262D01*
X248042Y531453D02*
X246078Y531453D01*
X246078Y533644D02*
X248042Y533644D01*
X248578Y444998D02*
X250542Y444998D01*
X248578Y444998D02*
X248578Y459462D01*
X250542Y459462D01*
X250542Y444998D01*
X250542Y447189D02*
X248578Y447189D01*
X248578Y449380D02*
X250542Y449380D01*
X250542Y451571D02*
X248578Y451571D01*
X248578Y453762D02*
X250542Y453762D01*
X250542Y455953D02*
X248578Y455953D01*
X248578Y458144D02*
X250542Y458144D01*
X251078Y520498D02*
X253042Y520498D01*
X251078Y520498D02*
X251078Y534962D01*
X253042Y534962D01*
X253042Y520498D01*
X253042Y522689D02*
X251078Y522689D01*
X251078Y524880D02*
X253042Y524880D01*
X253042Y527071D02*
X251078Y527071D01*
X251078Y529262D02*
X253042Y529262D01*
X253042Y531453D02*
X251078Y531453D01*
X251078Y533644D02*
X253042Y533644D01*
X273578Y444998D02*
X275542Y444998D01*
X273578Y444998D02*
X273578Y459462D01*
X275542Y459462D01*
X275542Y444998D01*
X275542Y447189D02*
X273578Y447189D01*
X273578Y449380D02*
X275542Y449380D01*
X275542Y451571D02*
X273578Y451571D01*
X273578Y453762D02*
X275542Y453762D01*
X275542Y455953D02*
X273578Y455953D01*
X273578Y458144D02*
X275542Y458144D01*
X276078Y520498D02*
X278042Y520498D01*
X276078Y520498D02*
X276078Y534962D01*
X278042Y534962D01*
X278042Y520498D01*
X278042Y522689D02*
X276078Y522689D01*
X276078Y524880D02*
X278042Y524880D01*
X278042Y527071D02*
X276078Y527071D01*
X276078Y529262D02*
X278042Y529262D01*
X278042Y531453D02*
X276078Y531453D01*
X276078Y533644D02*
X278042Y533644D01*
X278578Y444998D02*
X280542Y444998D01*
X278578Y444998D02*
X278578Y459462D01*
X280542Y459462D01*
X280542Y444998D01*
X280542Y447189D02*
X278578Y447189D01*
X278578Y449380D02*
X280542Y449380D01*
X280542Y451571D02*
X278578Y451571D01*
X278578Y453762D02*
X280542Y453762D01*
X280542Y455953D02*
X278578Y455953D01*
X278578Y458144D02*
X280542Y458144D01*
X281078Y520498D02*
X283042Y520498D01*
X281078Y520498D02*
X281078Y534962D01*
X283042Y534962D01*
X283042Y520498D01*
X283042Y522689D02*
X281078Y522689D01*
X281078Y524880D02*
X283042Y524880D01*
X283042Y527071D02*
X281078Y527071D01*
X281078Y529262D02*
X283042Y529262D01*
X283042Y531453D02*
X281078Y531453D01*
X281078Y533644D02*
X283042Y533644D01*
X283578Y444998D02*
X285542Y444998D01*
X283578Y444998D02*
X283578Y459462D01*
X285542Y459462D01*
X285542Y444998D01*
X285542Y447189D02*
X283578Y447189D01*
X283578Y449380D02*
X285542Y449380D01*
X285542Y451571D02*
X283578Y451571D01*
X283578Y453762D02*
X285542Y453762D01*
X285542Y455953D02*
X283578Y455953D01*
X283578Y458144D02*
X285542Y458144D01*
X286078Y520498D02*
X288042Y520498D01*
X286078Y520498D02*
X286078Y534962D01*
X288042Y534962D01*
X288042Y520498D01*
X288042Y522689D02*
X286078Y522689D01*
X286078Y524880D02*
X288042Y524880D01*
X288042Y527071D02*
X286078Y527071D01*
X286078Y529262D02*
X288042Y529262D01*
X288042Y531453D02*
X286078Y531453D01*
X286078Y533644D02*
X288042Y533644D01*
X288578Y444998D02*
X290542Y444998D01*
X288578Y444998D02*
X288578Y459462D01*
X290542Y459462D01*
X290542Y444998D01*
X290542Y447189D02*
X288578Y447189D01*
X288578Y449380D02*
X290542Y449380D01*
X290542Y451571D02*
X288578Y451571D01*
X288578Y453762D02*
X290542Y453762D01*
X290542Y455953D02*
X288578Y455953D01*
X288578Y458144D02*
X290542Y458144D01*
X291078Y520498D02*
X293042Y520498D01*
X291078Y520498D02*
X291078Y534962D01*
X293042Y534962D01*
X293042Y520498D01*
X293042Y522689D02*
X291078Y522689D01*
X291078Y524880D02*
X293042Y524880D01*
X293042Y527071D02*
X291078Y527071D01*
X291078Y529262D02*
X293042Y529262D01*
X293042Y531453D02*
X291078Y531453D01*
X291078Y533644D02*
X293042Y533644D01*
X293578Y444998D02*
X295542Y444998D01*
X293578Y444998D02*
X293578Y459462D01*
X295542Y459462D01*
X295542Y444998D01*
X295542Y447189D02*
X293578Y447189D01*
X293578Y449380D02*
X295542Y449380D01*
X295542Y451571D02*
X293578Y451571D01*
X293578Y453762D02*
X295542Y453762D01*
X295542Y455953D02*
X293578Y455953D01*
X293578Y458144D02*
X295542Y458144D01*
X296078Y520498D02*
X298042Y520498D01*
X296078Y520498D02*
X296078Y534962D01*
X298042Y534962D01*
X298042Y520498D01*
X298042Y522689D02*
X296078Y522689D01*
X296078Y524880D02*
X298042Y524880D01*
X298042Y527071D02*
X296078Y527071D01*
X296078Y529262D02*
X298042Y529262D01*
X298042Y531453D02*
X296078Y531453D01*
X296078Y533644D02*
X298042Y533644D01*
X298578Y444998D02*
X300542Y444998D01*
X298578Y444998D02*
X298578Y459462D01*
X300542Y459462D01*
X300542Y444998D01*
X300542Y447189D02*
X298578Y447189D01*
X298578Y449380D02*
X300542Y449380D01*
X300542Y451571D02*
X298578Y451571D01*
X298578Y453762D02*
X300542Y453762D01*
X300542Y455953D02*
X298578Y455953D01*
X298578Y458144D02*
X300542Y458144D01*
X301078Y520498D02*
X303042Y520498D01*
X301078Y520498D02*
X301078Y534962D01*
X303042Y534962D01*
X303042Y520498D01*
X303042Y522689D02*
X301078Y522689D01*
X301078Y524880D02*
X303042Y524880D01*
X303042Y527071D02*
X301078Y527071D01*
X301078Y529262D02*
X303042Y529262D01*
X303042Y531453D02*
X301078Y531453D01*
X301078Y533644D02*
X303042Y533644D01*
X303578Y444998D02*
X305542Y444998D01*
X303578Y444998D02*
X303578Y459462D01*
X305542Y459462D01*
X305542Y444998D01*
X305542Y447189D02*
X303578Y447189D01*
X303578Y449380D02*
X305542Y449380D01*
X305542Y451571D02*
X303578Y451571D01*
X303578Y453762D02*
X305542Y453762D01*
X305542Y455953D02*
X303578Y455953D01*
X303578Y458144D02*
X305542Y458144D01*
X306078Y520498D02*
X308042Y520498D01*
X306078Y520498D02*
X306078Y534962D01*
X308042Y534962D01*
X308042Y520498D01*
X308042Y522689D02*
X306078Y522689D01*
X306078Y524880D02*
X308042Y524880D01*
X308042Y527071D02*
X306078Y527071D01*
X306078Y529262D02*
X308042Y529262D01*
X308042Y531453D02*
X306078Y531453D01*
X306078Y533644D02*
X308042Y533644D01*
X308578Y444998D02*
X310542Y444998D01*
X308578Y444998D02*
X308578Y459462D01*
X310542Y459462D01*
X310542Y444998D01*
X310542Y447189D02*
X308578Y447189D01*
X308578Y449380D02*
X310542Y449380D01*
X310542Y451571D02*
X308578Y451571D01*
X308578Y453762D02*
X310542Y453762D01*
X310542Y455953D02*
X308578Y455953D01*
X308578Y458144D02*
X310542Y458144D01*
X311078Y520498D02*
X313042Y520498D01*
X311078Y520498D02*
X311078Y534962D01*
X313042Y534962D01*
X313042Y520498D01*
X313042Y522689D02*
X311078Y522689D01*
X311078Y524880D02*
X313042Y524880D01*
X313042Y527071D02*
X311078Y527071D01*
X311078Y529262D02*
X313042Y529262D01*
X313042Y531453D02*
X311078Y531453D01*
X311078Y533644D02*
X313042Y533644D01*
X313578Y444998D02*
X315542Y444998D01*
X313578Y444998D02*
X313578Y459462D01*
X315542Y459462D01*
X315542Y444998D01*
X315542Y447189D02*
X313578Y447189D01*
X313578Y449380D02*
X315542Y449380D01*
X315542Y451571D02*
X313578Y451571D01*
X313578Y453762D02*
X315542Y453762D01*
X315542Y455953D02*
X313578Y455953D01*
X313578Y458144D02*
X315542Y458144D01*
X316078Y520498D02*
X318042Y520498D01*
X316078Y520498D02*
X316078Y534962D01*
X318042Y534962D01*
X318042Y520498D01*
X318042Y522689D02*
X316078Y522689D01*
X316078Y524880D02*
X318042Y524880D01*
X318042Y527071D02*
X316078Y527071D01*
X316078Y529262D02*
X318042Y529262D01*
X318042Y531453D02*
X316078Y531453D01*
X316078Y533644D02*
X318042Y533644D01*
X318578Y444998D02*
X320542Y444998D01*
X318578Y444998D02*
X318578Y459462D01*
X320542Y459462D01*
X320542Y444998D01*
X320542Y447189D02*
X318578Y447189D01*
X318578Y449380D02*
X320542Y449380D01*
X320542Y451571D02*
X318578Y451571D01*
X318578Y453762D02*
X320542Y453762D01*
X320542Y455953D02*
X318578Y455953D01*
X318578Y458144D02*
X320542Y458144D01*
X321078Y520498D02*
X323042Y520498D01*
X321078Y520498D02*
X321078Y534962D01*
X323042Y534962D01*
X323042Y520498D01*
X323042Y522689D02*
X321078Y522689D01*
X321078Y524880D02*
X323042Y524880D01*
X323042Y527071D02*
X321078Y527071D01*
X321078Y529262D02*
X323042Y529262D01*
X323042Y531453D02*
X321078Y531453D01*
X321078Y533644D02*
X323042Y533644D01*
X323578Y444998D02*
X325542Y444998D01*
X323578Y444998D02*
X323578Y459462D01*
X325542Y459462D01*
X325542Y444998D01*
X325542Y447189D02*
X323578Y447189D01*
X323578Y449380D02*
X325542Y449380D01*
X325542Y451571D02*
X323578Y451571D01*
X323578Y453762D02*
X325542Y453762D01*
X325542Y455953D02*
X323578Y455953D01*
X323578Y458144D02*
X325542Y458144D01*
X326078Y520498D02*
X328042Y520498D01*
X326078Y520498D02*
X326078Y534962D01*
X328042Y534962D01*
X328042Y520498D01*
X328042Y522689D02*
X326078Y522689D01*
X326078Y524880D02*
X328042Y524880D01*
X328042Y527071D02*
X326078Y527071D01*
X326078Y529262D02*
X328042Y529262D01*
X328042Y531453D02*
X326078Y531453D01*
X326078Y533644D02*
X328042Y533644D01*
X328578Y444998D02*
X330542Y444998D01*
X328578Y444998D02*
X328578Y459462D01*
X330542Y459462D01*
X330542Y444998D01*
X330542Y447189D02*
X328578Y447189D01*
X328578Y449380D02*
X330542Y449380D01*
X330542Y451571D02*
X328578Y451571D01*
X328578Y453762D02*
X330542Y453762D01*
X330542Y455953D02*
X328578Y455953D01*
X328578Y458144D02*
X330542Y458144D01*
X331078Y520498D02*
X333042Y520498D01*
X331078Y520498D02*
X331078Y534962D01*
X333042Y534962D01*
X333042Y520498D01*
X333042Y522689D02*
X331078Y522689D01*
X331078Y524880D02*
X333042Y524880D01*
X333042Y527071D02*
X331078Y527071D01*
X331078Y529262D02*
X333042Y529262D01*
X333042Y531453D02*
X331078Y531453D01*
X331078Y533644D02*
X333042Y533644D01*
X333578Y444998D02*
X335542Y444998D01*
X333578Y444998D02*
X333578Y459462D01*
X335542Y459462D01*
X335542Y444998D01*
X335542Y447189D02*
X333578Y447189D01*
X333578Y449380D02*
X335542Y449380D01*
X335542Y451571D02*
X333578Y451571D01*
X333578Y453762D02*
X335542Y453762D01*
X335542Y455953D02*
X333578Y455953D01*
X333578Y458144D02*
X335542Y458144D01*
X336078Y520498D02*
X338042Y520498D01*
X336078Y520498D02*
X336078Y534962D01*
X338042Y534962D01*
X338042Y520498D01*
X338042Y522689D02*
X336078Y522689D01*
X336078Y524880D02*
X338042Y524880D01*
X338042Y527071D02*
X336078Y527071D01*
X336078Y529262D02*
X338042Y529262D01*
X338042Y531453D02*
X336078Y531453D01*
X336078Y533644D02*
X338042Y533644D01*
X338578Y444998D02*
X340542Y444998D01*
X338578Y444998D02*
X338578Y459462D01*
X340542Y459462D01*
X340542Y444998D01*
X340542Y447189D02*
X338578Y447189D01*
X338578Y449380D02*
X340542Y449380D01*
X340542Y451571D02*
X338578Y451571D01*
X338578Y453762D02*
X340542Y453762D01*
X340542Y455953D02*
X338578Y455953D01*
X338578Y458144D02*
X340542Y458144D01*
X341078Y520498D02*
X343042Y520498D01*
X341078Y520498D02*
X341078Y534962D01*
X343042Y534962D01*
X343042Y520498D01*
X343042Y522689D02*
X341078Y522689D01*
X341078Y524880D02*
X343042Y524880D01*
X343042Y527071D02*
X341078Y527071D01*
X341078Y529262D02*
X343042Y529262D01*
X343042Y531453D02*
X341078Y531453D01*
X341078Y533644D02*
X343042Y533644D01*
X343578Y444998D02*
X345542Y444998D01*
X343578Y444998D02*
X343578Y459462D01*
X345542Y459462D01*
X345542Y444998D01*
X345542Y447189D02*
X343578Y447189D01*
X343578Y449380D02*
X345542Y449380D01*
X345542Y451571D02*
X343578Y451571D01*
X343578Y453762D02*
X345542Y453762D01*
X345542Y455953D02*
X343578Y455953D01*
X343578Y458144D02*
X345542Y458144D01*
X346078Y520498D02*
X348042Y520498D01*
X346078Y520498D02*
X346078Y534962D01*
X348042Y534962D01*
X348042Y520498D01*
X348042Y522689D02*
X346078Y522689D01*
X346078Y524880D02*
X348042Y524880D01*
X348042Y527071D02*
X346078Y527071D01*
X346078Y529262D02*
X348042Y529262D01*
X348042Y531453D02*
X346078Y531453D01*
X346078Y533644D02*
X348042Y533644D01*
X348578Y444998D02*
X350542Y444998D01*
X348578Y444998D02*
X348578Y459462D01*
X350542Y459462D01*
X350542Y444998D01*
X350542Y447189D02*
X348578Y447189D01*
X348578Y449380D02*
X350542Y449380D01*
X350542Y451571D02*
X348578Y451571D01*
X348578Y453762D02*
X350542Y453762D01*
X350542Y455953D02*
X348578Y455953D01*
X348578Y458144D02*
X350542Y458144D01*
X351078Y520498D02*
X353042Y520498D01*
X351078Y520498D02*
X351078Y534962D01*
X353042Y534962D01*
X353042Y520498D01*
X353042Y522689D02*
X351078Y522689D01*
X351078Y524880D02*
X353042Y524880D01*
X353042Y527071D02*
X351078Y527071D01*
X351078Y529262D02*
X353042Y529262D01*
X353042Y531453D02*
X351078Y531453D01*
X351078Y533644D02*
X353042Y533644D01*
X353578Y444998D02*
X355542Y444998D01*
X353578Y444998D02*
X353578Y459462D01*
X355542Y459462D01*
X355542Y444998D01*
X355542Y447189D02*
X353578Y447189D01*
X353578Y449380D02*
X355542Y449380D01*
X355542Y451571D02*
X353578Y451571D01*
X353578Y453762D02*
X355542Y453762D01*
X355542Y455953D02*
X353578Y455953D01*
X353578Y458144D02*
X355542Y458144D01*
X356078Y520498D02*
X358042Y520498D01*
X356078Y520498D02*
X356078Y534962D01*
X358042Y534962D01*
X358042Y520498D01*
X358042Y522689D02*
X356078Y522689D01*
X356078Y524880D02*
X358042Y524880D01*
X358042Y527071D02*
X356078Y527071D01*
X356078Y529262D02*
X358042Y529262D01*
X358042Y531453D02*
X356078Y531453D01*
X356078Y533644D02*
X358042Y533644D01*
X358578Y444998D02*
X360542Y444998D01*
X358578Y444998D02*
X358578Y459462D01*
X360542Y459462D01*
X360542Y444998D01*
X360542Y447189D02*
X358578Y447189D01*
X358578Y449380D02*
X360542Y449380D01*
X360542Y451571D02*
X358578Y451571D01*
X358578Y453762D02*
X360542Y453762D01*
X360542Y455953D02*
X358578Y455953D01*
X358578Y458144D02*
X360542Y458144D01*
X361078Y520498D02*
X363042Y520498D01*
X361078Y520498D02*
X361078Y534962D01*
X363042Y534962D01*
X363042Y520498D01*
X363042Y522689D02*
X361078Y522689D01*
X361078Y524880D02*
X363042Y524880D01*
X363042Y527071D02*
X361078Y527071D01*
X361078Y529262D02*
X363042Y529262D01*
X363042Y531453D02*
X361078Y531453D01*
X361078Y533644D02*
X363042Y533644D01*
X363578Y444998D02*
X365542Y444998D01*
X363578Y444998D02*
X363578Y459462D01*
X365542Y459462D01*
X365542Y444998D01*
X365542Y447189D02*
X363578Y447189D01*
X363578Y449380D02*
X365542Y449380D01*
X365542Y451571D02*
X363578Y451571D01*
X363578Y453762D02*
X365542Y453762D01*
X365542Y455953D02*
X363578Y455953D01*
X363578Y458144D02*
X365542Y458144D01*
X366078Y520498D02*
X368042Y520498D01*
X366078Y520498D02*
X366078Y534962D01*
X368042Y534962D01*
X368042Y520498D01*
X368042Y522689D02*
X366078Y522689D01*
X366078Y524880D02*
X368042Y524880D01*
X368042Y527071D02*
X366078Y527071D01*
X366078Y529262D02*
X368042Y529262D01*
X368042Y531453D02*
X366078Y531453D01*
X366078Y533644D02*
X368042Y533644D01*
X368578Y444998D02*
X370542Y444998D01*
X368578Y444998D02*
X368578Y459462D01*
X370542Y459462D01*
X370542Y444998D01*
X370542Y447189D02*
X368578Y447189D01*
X368578Y449380D02*
X370542Y449380D01*
X370542Y451571D02*
X368578Y451571D01*
X368578Y453762D02*
X370542Y453762D01*
X370542Y455953D02*
X368578Y455953D01*
X368578Y458144D02*
X370542Y458144D01*
X371078Y520498D02*
X373042Y520498D01*
X371078Y520498D02*
X371078Y534962D01*
X373042Y534962D01*
X373042Y520498D01*
X373042Y522689D02*
X371078Y522689D01*
X371078Y524880D02*
X373042Y524880D01*
X373042Y527071D02*
X371078Y527071D01*
X371078Y529262D02*
X373042Y529262D01*
X373042Y531453D02*
X371078Y531453D01*
X371078Y533644D02*
X373042Y533644D01*
X373578Y444998D02*
X375542Y444998D01*
X373578Y444998D02*
X373578Y459462D01*
X375542Y459462D01*
X375542Y444998D01*
X375542Y447189D02*
X373578Y447189D01*
X373578Y449380D02*
X375542Y449380D01*
X375542Y451571D02*
X373578Y451571D01*
X373578Y453762D02*
X375542Y453762D01*
X375542Y455953D02*
X373578Y455953D01*
X373578Y458144D02*
X375542Y458144D01*
X376078Y520498D02*
X378042Y520498D01*
X376078Y520498D02*
X376078Y534962D01*
X378042Y534962D01*
X378042Y520498D01*
X378042Y522689D02*
X376078Y522689D01*
X376078Y524880D02*
X378042Y524880D01*
X378042Y527071D02*
X376078Y527071D01*
X376078Y529262D02*
X378042Y529262D01*
X378042Y531453D02*
X376078Y531453D01*
X376078Y533644D02*
X378042Y533644D01*
X378578Y444998D02*
X380542Y444998D01*
X378578Y444998D02*
X378578Y459462D01*
X380542Y459462D01*
X380542Y444998D01*
X380542Y447189D02*
X378578Y447189D01*
X378578Y449380D02*
X380542Y449380D01*
X380542Y451571D02*
X378578Y451571D01*
X378578Y453762D02*
X380542Y453762D01*
X380542Y455953D02*
X378578Y455953D01*
X378578Y458144D02*
X380542Y458144D01*
X381078Y520498D02*
X383042Y520498D01*
X381078Y520498D02*
X381078Y534962D01*
X383042Y534962D01*
X383042Y520498D01*
X383042Y522689D02*
X381078Y522689D01*
X381078Y524880D02*
X383042Y524880D01*
X383042Y527071D02*
X381078Y527071D01*
X381078Y529262D02*
X383042Y529262D01*
X383042Y531453D02*
X381078Y531453D01*
X381078Y533644D02*
X383042Y533644D01*
D17*
X65968Y694848D02*
X65968Y703864D01*
X110984Y703864D01*
X110984Y694848D01*
X65968Y694848D01*
X65968Y696989D02*
X110984Y696989D01*
X110984Y699130D02*
X65968Y699130D01*
X65968Y701271D02*
X110984Y701271D01*
X110984Y703412D02*
X65968Y703412D01*
X65968Y683864D02*
X65968Y674848D01*
X65968Y683864D02*
X110984Y683864D01*
X110984Y674848D01*
X65968Y674848D01*
X65968Y676989D02*
X110984Y676989D01*
X110984Y679130D02*
X65968Y679130D01*
X65968Y681271D02*
X110984Y681271D01*
X110984Y683412D02*
X65968Y683412D01*
D18*
X123963Y715843D02*
X156989Y715843D01*
X123963Y715843D02*
X123963Y730869D01*
X156989Y730869D01*
X156989Y715843D01*
X156989Y717976D02*
X123963Y717976D01*
X123963Y720109D02*
X156989Y720109D01*
X156989Y722242D02*
X123963Y722242D01*
X123963Y724375D02*
X156989Y724375D01*
X156989Y726508D02*
X123963Y726508D01*
X123963Y728641D02*
X156989Y728641D01*
X156989Y730774D02*
X123963Y730774D01*
X123963Y647843D02*
X156989Y647843D01*
X123963Y647843D02*
X123963Y662869D01*
X156989Y662869D01*
X156989Y647843D01*
X156989Y649976D02*
X123963Y649976D01*
X123963Y652109D02*
X156989Y652109D01*
X156989Y654242D02*
X123963Y654242D01*
X123963Y656375D02*
X156989Y656375D01*
X156989Y658508D02*
X123963Y658508D01*
X123963Y660641D02*
X156989Y660641D01*
X156989Y662774D02*
X123963Y662774D01*
D19*
X129263Y577984D02*
X129263Y573448D01*
X118227Y573448D01*
X118227Y577984D01*
X129263Y577984D01*
X129263Y575570D02*
X118227Y575570D01*
X118227Y577692D02*
X129263Y577692D01*
X129263Y582948D02*
X129263Y587484D01*
X129263Y582948D02*
X118227Y582948D01*
X118227Y587484D01*
X129263Y587484D01*
X129263Y585070D02*
X118227Y585070D01*
X118227Y587192D02*
X129263Y587192D01*
X129263Y592448D02*
X129263Y596984D01*
X129263Y592448D02*
X118227Y592448D01*
X118227Y596984D01*
X129263Y596984D01*
X129263Y594570D02*
X118227Y594570D01*
X118227Y596692D02*
X129263Y596692D01*
X103261Y596984D02*
X103261Y592448D01*
X92225Y592448D01*
X92225Y596984D01*
X103261Y596984D01*
X103261Y594570D02*
X92225Y594570D01*
X92225Y596692D02*
X103261Y596692D01*
X103261Y577984D02*
X103261Y573448D01*
X92225Y573448D01*
X92225Y577984D01*
X103261Y577984D01*
X103261Y575570D02*
X92225Y575570D01*
X92225Y577692D02*
X103261Y577692D01*
D17*
X114490Y565340D02*
X124506Y565340D01*
X124506Y556324D01*
X114490Y556324D01*
X114490Y565340D01*
X114490Y558465D02*
X124506Y558465D01*
X124506Y560606D02*
X114490Y560606D01*
X114490Y562747D02*
X124506Y562747D01*
X124506Y564888D02*
X114490Y564888D01*
X107506Y565340D02*
X97490Y565340D01*
X107506Y565340D02*
X107506Y556324D01*
X97490Y556324D01*
X97490Y565340D01*
X97490Y558465D02*
X107506Y558465D01*
X107506Y560606D02*
X97490Y560606D01*
X97490Y562747D02*
X107506Y562747D01*
X107506Y564888D02*
X97490Y564888D01*
X39942Y357106D02*
X39942Y347090D01*
X39942Y357106D02*
X48958Y357106D01*
X48958Y347090D01*
X39942Y347090D01*
X39942Y349231D02*
X48958Y349231D01*
X48958Y351372D02*
X39942Y351372D01*
X39942Y353513D02*
X48958Y353513D01*
X48958Y355654D02*
X39942Y355654D01*
X39942Y340106D02*
X39942Y330090D01*
X39942Y340106D02*
X48958Y340106D01*
X48958Y330090D01*
X39942Y330090D01*
X39942Y332231D02*
X48958Y332231D01*
X48958Y334372D02*
X39942Y334372D01*
X39942Y336513D02*
X48958Y336513D01*
X48958Y338654D02*
X39942Y338654D01*
D20*
X29408Y338612D02*
X22420Y338612D01*
X29408Y338612D02*
X29408Y331624D01*
X22420Y331624D01*
X22420Y338612D01*
X22420Y335693D02*
X29408Y335693D01*
X29408Y356152D02*
X22420Y356152D01*
X29408Y356152D02*
X29408Y349164D01*
X22420Y349164D01*
X22420Y356152D01*
X22420Y353233D02*
X29408Y353233D01*
D17*
X70676Y589978D02*
X70676Y599994D01*
X79692Y599994D01*
X79692Y589978D01*
X70676Y589978D01*
X70676Y592119D02*
X79692Y592119D01*
X79692Y594260D02*
X70676Y594260D01*
X70676Y596401D02*
X79692Y596401D01*
X79692Y598542D02*
X70676Y598542D01*
X70676Y582994D02*
X70676Y572978D01*
X70676Y582994D02*
X79692Y582994D01*
X79692Y572978D01*
X70676Y572978D01*
X70676Y575119D02*
X79692Y575119D01*
X79692Y577260D02*
X70676Y577260D01*
X70676Y579401D02*
X79692Y579401D01*
X79692Y581542D02*
X70676Y581542D01*
X116776Y615124D02*
X126792Y615124D01*
X126792Y606108D01*
X116776Y606108D01*
X116776Y615124D01*
X116776Y608249D02*
X126792Y608249D01*
X126792Y610390D02*
X116776Y610390D01*
X116776Y612531D02*
X126792Y612531D01*
X126792Y614672D02*
X116776Y614672D01*
X109792Y615124D02*
X99776Y615124D01*
X109792Y615124D02*
X109792Y606108D01*
X99776Y606108D01*
X99776Y615124D01*
X99776Y608249D02*
X109792Y608249D01*
X109792Y610390D02*
X99776Y610390D01*
X99776Y612531D02*
X109792Y612531D01*
X109792Y614672D02*
X99776Y614672D01*
D16*
X108118Y59682D02*
X110082Y59682D01*
X108118Y59682D02*
X108118Y68646D01*
X110082Y68646D01*
X110082Y59682D01*
X110082Y61873D02*
X108118Y61873D01*
X108118Y64064D02*
X110082Y64064D01*
X110082Y66255D02*
X108118Y66255D01*
X108118Y68446D02*
X110082Y68446D01*
X105082Y59682D02*
X103118Y59682D01*
X103118Y68646D01*
X105082Y68646D01*
X105082Y59682D01*
X105082Y61873D02*
X103118Y61873D01*
X103118Y64064D02*
X105082Y64064D01*
X105082Y66255D02*
X103118Y66255D01*
X103118Y68446D02*
X105082Y68446D01*
D10*
X131342Y59656D02*
X136358Y59656D01*
X131342Y59656D02*
X131342Y68672D01*
X136358Y68672D01*
X136358Y59656D01*
X136358Y61797D02*
X131342Y61797D01*
X131342Y63938D02*
X136358Y63938D01*
X136358Y66079D02*
X131342Y66079D01*
X131342Y68220D02*
X136358Y68220D01*
X128608Y59656D02*
X123592Y59656D01*
X123592Y68672D01*
X128608Y68672D01*
X128608Y59656D01*
X128608Y61797D02*
X123592Y61797D01*
X123592Y63938D02*
X128608Y63938D01*
X128608Y66079D02*
X123592Y66079D01*
X123592Y68220D02*
X128608Y68220D01*
D16*
X120082Y59682D02*
X118118Y59682D01*
X118118Y68646D01*
X120082Y68646D01*
X120082Y59682D01*
X120082Y61873D02*
X118118Y61873D01*
X118118Y64064D02*
X120082Y64064D01*
X120082Y66255D02*
X118118Y66255D01*
X118118Y68446D02*
X120082Y68446D01*
X115082Y59682D02*
X113118Y59682D01*
X113118Y68646D01*
X115082Y68646D01*
X115082Y59682D01*
X115082Y61873D02*
X113118Y61873D01*
X113118Y64064D02*
X115082Y64064D01*
X115082Y66255D02*
X113118Y66255D01*
X113118Y68446D02*
X115082Y68446D01*
X95082Y68646D02*
X93118Y68646D01*
X95082Y68646D02*
X95082Y59682D01*
X93118Y59682D01*
X93118Y68646D01*
X93118Y61873D02*
X95082Y61873D01*
X95082Y64064D02*
X93118Y64064D01*
X93118Y66255D02*
X95082Y66255D01*
X95082Y68446D02*
X93118Y68446D01*
X98118Y68646D02*
X100082Y68646D01*
X100082Y59682D01*
X98118Y59682D01*
X98118Y68646D01*
X98118Y61873D02*
X100082Y61873D01*
X100082Y64064D02*
X98118Y64064D01*
X98118Y66255D02*
X100082Y66255D01*
X100082Y68446D02*
X98118Y68446D01*
D10*
X71858Y68672D02*
X66842Y68672D01*
X71858Y68672D02*
X71858Y59656D01*
X66842Y59656D01*
X66842Y68672D01*
X66842Y61797D02*
X71858Y61797D01*
X71858Y63938D02*
X66842Y63938D01*
X66842Y66079D02*
X71858Y66079D01*
X71858Y68220D02*
X66842Y68220D01*
X74592Y68672D02*
X79608Y68672D01*
X79608Y59656D01*
X74592Y59656D01*
X74592Y68672D01*
X74592Y61797D02*
X79608Y61797D01*
X79608Y63938D02*
X74592Y63938D01*
X74592Y66079D02*
X79608Y66079D01*
X79608Y68220D02*
X74592Y68220D01*
D16*
X83118Y68646D02*
X85082Y68646D01*
X85082Y59682D01*
X83118Y59682D01*
X83118Y68646D01*
X83118Y61873D02*
X85082Y61873D01*
X85082Y64064D02*
X83118Y64064D01*
X83118Y66255D02*
X85082Y66255D01*
X85082Y68446D02*
X83118Y68446D01*
X88118Y68646D02*
X90082Y68646D01*
X90082Y59682D01*
X88118Y59682D01*
X88118Y68646D01*
X88118Y61873D02*
X90082Y61873D01*
X90082Y64064D02*
X88118Y64064D01*
X88118Y66255D02*
X90082Y66255D01*
X90082Y68446D02*
X88118Y68446D01*
D21*
X72700Y53114D03*
X130500Y53114D03*
D17*
X63818Y96710D02*
X63818Y106726D01*
X72834Y106726D01*
X72834Y96710D01*
X63818Y96710D01*
X63818Y98851D02*
X72834Y98851D01*
X72834Y100992D02*
X63818Y100992D01*
X63818Y103133D02*
X72834Y103133D01*
X72834Y105274D02*
X63818Y105274D01*
X63818Y89726D02*
X63818Y79710D01*
X63818Y89726D02*
X72834Y89726D01*
X72834Y79710D01*
X63818Y79710D01*
X63818Y81851D02*
X72834Y81851D01*
X72834Y83992D02*
X63818Y83992D01*
X63818Y86133D02*
X72834Y86133D01*
X72834Y88274D02*
X63818Y88274D01*
X138748Y96456D02*
X138748Y106472D01*
X147764Y106472D01*
X147764Y96456D01*
X138748Y96456D01*
X138748Y98597D02*
X147764Y98597D01*
X147764Y100738D02*
X138748Y100738D01*
X138748Y102879D02*
X147764Y102879D01*
X147764Y105020D02*
X138748Y105020D01*
X138748Y89472D02*
X138748Y79456D01*
X138748Y89472D02*
X147764Y89472D01*
X147764Y79456D01*
X138748Y79456D01*
X138748Y81597D02*
X147764Y81597D01*
X147764Y83738D02*
X138748Y83738D01*
X138748Y85879D02*
X147764Y85879D01*
X147764Y88020D02*
X138748Y88020D01*
D22*
X24762Y622358D03*
X24762Y609658D03*
X24762Y596958D03*
X24762Y584258D03*
X24762Y635058D03*
X37462Y622358D03*
X37462Y609658D03*
X37462Y596958D03*
X37462Y584258D03*
X37462Y635058D03*
X1178560Y645160D03*
X26670Y77470D03*
D23*
X115476Y189444D02*
X115476Y194744D01*
X122776Y194744D01*
X122776Y189444D01*
X115476Y189444D01*
X115476Y191601D02*
X122776Y191601D01*
X122776Y193758D02*
X115476Y193758D01*
X115476Y171744D02*
X115476Y166444D01*
X115476Y171744D02*
X122776Y171744D01*
X122776Y166444D01*
X115476Y166444D01*
X115476Y168601D02*
X122776Y168601D01*
X122776Y170758D02*
X115476Y170758D01*
D24*
X62706Y476726D02*
X62706Y483394D01*
X76994Y483394D01*
X76994Y476726D01*
X62706Y476726D01*
X62706Y478838D02*
X76994Y478838D01*
X76994Y480950D02*
X62706Y480950D01*
X62706Y483062D02*
X76994Y483062D01*
X6826Y483394D02*
X6826Y476726D01*
X6826Y483394D02*
X21114Y483394D01*
X21114Y476726D01*
X6826Y476726D01*
X6826Y478838D02*
X21114Y478838D01*
X21114Y480950D02*
X6826Y480950D01*
X6826Y483062D02*
X21114Y483062D01*
X62706Y514826D02*
X62706Y521494D01*
X76994Y521494D01*
X76994Y514826D01*
X62706Y514826D01*
X62706Y516938D02*
X76994Y516938D01*
X76994Y519050D02*
X62706Y519050D01*
X62706Y521162D02*
X76994Y521162D01*
X6826Y521494D02*
X6826Y514826D01*
X6826Y521494D02*
X21114Y521494D01*
X21114Y514826D01*
X6826Y514826D01*
X6826Y516938D02*
X21114Y516938D01*
X21114Y519050D02*
X6826Y519050D01*
X6826Y521162D02*
X21114Y521162D01*
X62706Y416084D02*
X62706Y409416D01*
X62706Y416084D02*
X76994Y416084D01*
X76994Y409416D01*
X62706Y409416D01*
X62706Y411528D02*
X76994Y411528D01*
X76994Y413640D02*
X62706Y413640D01*
X62706Y415752D02*
X76994Y415752D01*
X6826Y416084D02*
X6826Y409416D01*
X6826Y416084D02*
X21114Y416084D01*
X21114Y409416D01*
X6826Y409416D01*
X6826Y411528D02*
X21114Y411528D01*
X21114Y413640D02*
X6826Y413640D01*
X6826Y415752D02*
X21114Y415752D01*
X62706Y447516D02*
X62706Y454184D01*
X76994Y454184D01*
X76994Y447516D01*
X62706Y447516D01*
X62706Y449628D02*
X76994Y449628D01*
X76994Y451740D02*
X62706Y451740D01*
X62706Y453852D02*
X76994Y453852D01*
X6826Y454184D02*
X6826Y447516D01*
X6826Y454184D02*
X21114Y454184D01*
X21114Y447516D01*
X6826Y447516D01*
X6826Y449628D02*
X21114Y449628D01*
X21114Y451740D02*
X6826Y451740D01*
X6826Y453852D02*
X21114Y453852D01*
D25*
X41148Y537464D03*
D16*
X136784Y316456D02*
X138748Y316456D01*
X138748Y310992D01*
X136784Y310992D01*
X136784Y316456D01*
X136784Y313183D02*
X138748Y313183D01*
X138748Y315374D02*
X136784Y315374D01*
X132248Y316456D02*
X130284Y316456D01*
X132248Y316456D02*
X132248Y310992D01*
X130284Y310992D01*
X130284Y316456D01*
X130284Y313183D02*
X132248Y313183D01*
X132248Y315374D02*
X130284Y315374D01*
X125748Y316456D02*
X123784Y316456D01*
X125748Y316456D02*
X125748Y310992D01*
X123784Y310992D01*
X123784Y316456D01*
X123784Y313183D02*
X125748Y313183D01*
X125748Y315374D02*
X123784Y315374D01*
X119248Y316456D02*
X117284Y316456D01*
X119248Y316456D02*
X119248Y310992D01*
X117284Y310992D01*
X117284Y316456D01*
X117284Y313183D02*
X119248Y313183D01*
X119248Y315374D02*
X117284Y315374D01*
X117284Y283492D02*
X119248Y283492D01*
X117284Y283492D02*
X117284Y288956D01*
X119248Y288956D01*
X119248Y283492D01*
X119248Y285683D02*
X117284Y285683D01*
X117284Y287874D02*
X119248Y287874D01*
X123784Y283492D02*
X125748Y283492D01*
X123784Y283492D02*
X123784Y288956D01*
X125748Y288956D01*
X125748Y283492D01*
X125748Y285683D02*
X123784Y285683D01*
X123784Y287874D02*
X125748Y287874D01*
X130284Y283492D02*
X132248Y283492D01*
X130284Y283492D02*
X130284Y288956D01*
X132248Y288956D01*
X132248Y283492D01*
X132248Y285683D02*
X130284Y285683D01*
X130284Y287874D02*
X132248Y287874D01*
X136784Y283492D02*
X138748Y283492D01*
X136784Y283492D02*
X136784Y288956D01*
X138748Y288956D01*
X138748Y283492D01*
X138748Y285683D02*
X136784Y285683D01*
X136784Y287874D02*
X138748Y287874D01*
D18*
X139279Y307487D02*
X116753Y307487D01*
X139279Y307487D02*
X139279Y292461D01*
X116753Y292461D01*
X116753Y307487D01*
X116753Y294594D02*
X139279Y294594D01*
X139279Y296727D02*
X116753Y296727D01*
X116753Y298860D02*
X139279Y298860D01*
X139279Y300993D02*
X116753Y300993D01*
X116753Y303126D02*
X139279Y303126D01*
X139279Y305259D02*
X116753Y305259D01*
X116753Y307392D02*
X139279Y307392D01*
D17*
X141524Y237172D02*
X131508Y237172D01*
X141524Y237172D02*
X141524Y228156D01*
X131508Y228156D01*
X131508Y237172D01*
X131508Y230297D02*
X141524Y230297D01*
X141524Y232438D02*
X131508Y232438D01*
X131508Y234579D02*
X141524Y234579D01*
X141524Y236720D02*
X131508Y236720D01*
X124524Y237172D02*
X114508Y237172D01*
X124524Y237172D02*
X124524Y228156D01*
X114508Y228156D01*
X114508Y237172D01*
X114508Y230297D02*
X124524Y230297D01*
X124524Y232438D02*
X114508Y232438D01*
X114508Y234579D02*
X124524Y234579D01*
X124524Y236720D02*
X114508Y236720D01*
X131508Y256222D02*
X141524Y256222D01*
X141524Y247206D01*
X131508Y247206D01*
X131508Y256222D01*
X131508Y249347D02*
X141524Y249347D01*
X141524Y251488D02*
X131508Y251488D01*
X131508Y253629D02*
X141524Y253629D01*
X141524Y255770D02*
X131508Y255770D01*
X124524Y256222D02*
X114508Y256222D01*
X124524Y256222D02*
X124524Y247206D01*
X114508Y247206D01*
X114508Y256222D01*
X114508Y249347D02*
X124524Y249347D01*
X124524Y251488D02*
X114508Y251488D01*
X114508Y253629D02*
X124524Y253629D01*
X124524Y255770D02*
X114508Y255770D01*
X113838Y118794D02*
X113838Y109778D01*
X86822Y109778D01*
X86822Y118794D01*
X113838Y118794D01*
X113838Y111919D02*
X86822Y111919D01*
X86822Y114060D02*
X113838Y114060D01*
X113838Y116201D02*
X86822Y116201D01*
X86822Y118342D02*
X113838Y118342D01*
X113838Y139778D02*
X113838Y148794D01*
X113838Y139778D02*
X86822Y139778D01*
X86822Y148794D01*
X113838Y148794D01*
X113838Y141919D02*
X86822Y141919D01*
X86822Y144060D02*
X113838Y144060D01*
X113838Y146201D02*
X86822Y146201D01*
X86822Y148342D02*
X113838Y148342D01*
D26*
X122809Y343916D02*
X128143Y343916D01*
X128143Y332232D01*
X122809Y332232D01*
X122809Y343916D01*
X122809Y334404D02*
X128143Y334404D01*
X128143Y336576D02*
X122809Y336576D01*
X122809Y338748D02*
X128143Y338748D01*
X128143Y340920D02*
X122809Y340920D01*
X122809Y343092D02*
X128143Y343092D01*
X117983Y343916D02*
X112649Y343916D01*
X117983Y343916D02*
X117983Y332232D01*
X112649Y332232D01*
X112649Y343916D01*
X112649Y334404D02*
X117983Y334404D01*
X117983Y336576D02*
X112649Y336576D01*
X112649Y338748D02*
X117983Y338748D01*
X117983Y340920D02*
X112649Y340920D01*
X112649Y343092D02*
X117983Y343092D01*
D25*
X133096Y338074D03*
X107696Y338074D03*
D17*
X114508Y264986D02*
X124524Y264986D01*
X114508Y264986D02*
X114508Y274002D01*
X124524Y274002D01*
X124524Y264986D01*
X124524Y267127D02*
X114508Y267127D01*
X114508Y269268D02*
X124524Y269268D01*
X124524Y271409D02*
X114508Y271409D01*
X114508Y273550D02*
X124524Y273550D01*
X131508Y264986D02*
X141524Y264986D01*
X131508Y264986D02*
X131508Y274002D01*
X141524Y274002D01*
X141524Y264986D01*
X141524Y267127D02*
X131508Y267127D01*
X131508Y269268D02*
X141524Y269268D01*
X141524Y271409D02*
X131508Y271409D01*
X131508Y273550D02*
X141524Y273550D01*
D23*
X80866Y290904D02*
X80866Y296204D01*
X80866Y290904D02*
X73566Y290904D01*
X73566Y296204D01*
X80866Y296204D01*
X80866Y293061D02*
X73566Y293061D01*
X73566Y295218D02*
X80866Y295218D01*
X80866Y313904D02*
X80866Y319204D01*
X80866Y313904D02*
X73566Y313904D01*
X73566Y319204D01*
X80866Y319204D01*
X80866Y316061D02*
X73566Y316061D01*
X73566Y318218D02*
X80866Y318218D01*
D17*
X101536Y380174D02*
X111552Y380174D01*
X111552Y371158D01*
X101536Y371158D01*
X101536Y380174D01*
X101536Y373299D02*
X111552Y373299D01*
X111552Y375440D02*
X101536Y375440D01*
X101536Y377581D02*
X111552Y377581D01*
X111552Y379722D02*
X101536Y379722D01*
X94552Y380174D02*
X84536Y380174D01*
X94552Y380174D02*
X94552Y371158D01*
X84536Y371158D01*
X84536Y380174D01*
X84536Y373299D02*
X94552Y373299D01*
X94552Y375440D02*
X84536Y375440D01*
X84536Y377581D02*
X94552Y377581D01*
X94552Y379722D02*
X84536Y379722D01*
X101536Y363664D02*
X111552Y363664D01*
X111552Y354648D01*
X101536Y354648D01*
X101536Y363664D01*
X101536Y356789D02*
X111552Y356789D01*
X111552Y358930D02*
X101536Y358930D01*
X101536Y361071D02*
X111552Y361071D01*
X111552Y363212D02*
X101536Y363212D01*
X94552Y363664D02*
X84536Y363664D01*
X94552Y363664D02*
X94552Y354648D01*
X84536Y354648D01*
X84536Y363664D01*
X84536Y356789D02*
X94552Y356789D01*
X94552Y358930D02*
X84536Y358930D01*
X84536Y361071D02*
X94552Y361071D01*
X94552Y363212D02*
X84536Y363212D01*
X101536Y396684D02*
X111552Y396684D01*
X111552Y387668D01*
X101536Y387668D01*
X101536Y396684D01*
X101536Y389809D02*
X111552Y389809D01*
X111552Y391950D02*
X101536Y391950D01*
X101536Y394091D02*
X111552Y394091D01*
X111552Y396232D02*
X101536Y396232D01*
X94552Y396684D02*
X84536Y396684D01*
X94552Y396684D02*
X94552Y387668D01*
X84536Y387668D01*
X84536Y396684D01*
X84536Y389809D02*
X94552Y389809D01*
X94552Y391950D02*
X84536Y391950D01*
X84536Y394091D02*
X94552Y394091D01*
X94552Y396232D02*
X84536Y396232D01*
X39180Y319179D02*
X39180Y309163D01*
X39180Y319179D02*
X48196Y319179D01*
X48196Y309163D01*
X39180Y309163D01*
X39180Y311304D02*
X48196Y311304D01*
X48196Y313445D02*
X39180Y313445D01*
X39180Y315586D02*
X48196Y315586D01*
X48196Y317727D02*
X39180Y317727D01*
X39180Y302179D02*
X39180Y292163D01*
X39180Y302179D02*
X48196Y302179D01*
X48196Y292163D01*
X39180Y292163D01*
X39180Y294304D02*
X48196Y294304D01*
X48196Y296445D02*
X39180Y296445D01*
X39180Y298586D02*
X48196Y298586D01*
X48196Y300727D02*
X39180Y300727D01*
D20*
X29916Y300686D02*
X22928Y300686D01*
X29916Y300686D02*
X29916Y293698D01*
X22928Y293698D01*
X22928Y300686D01*
X22928Y297767D02*
X29916Y297767D01*
X29916Y318226D02*
X22928Y318226D01*
X29916Y318226D02*
X29916Y311238D01*
X22928Y311238D01*
X22928Y318226D01*
X22928Y315307D02*
X29916Y315307D01*
D27*
X133540Y219090D02*
X140492Y219090D01*
X140492Y208138D01*
X133540Y208138D01*
X133540Y219090D01*
X133540Y210340D02*
X140492Y210340D01*
X140492Y212542D02*
X133540Y212542D01*
X133540Y214744D02*
X140492Y214744D01*
X140492Y216946D02*
X133540Y216946D01*
X122492Y219090D02*
X115540Y219090D01*
X122492Y219090D02*
X122492Y208138D01*
X115540Y208138D01*
X115540Y219090D01*
X115540Y210340D02*
X122492Y210340D01*
X122492Y212542D02*
X115540Y212542D01*
X115540Y214744D02*
X122492Y214744D01*
X122492Y216946D02*
X115540Y216946D01*
D17*
X105728Y490284D02*
X95712Y490284D01*
X95712Y499300D01*
X105728Y499300D01*
X105728Y490284D01*
X105728Y492425D02*
X95712Y492425D01*
X95712Y494566D02*
X105728Y494566D01*
X105728Y496707D02*
X95712Y496707D01*
X95712Y498848D02*
X105728Y498848D01*
X112712Y490284D02*
X122728Y490284D01*
X112712Y490284D02*
X112712Y499300D01*
X122728Y499300D01*
X122728Y490284D01*
X122728Y492425D02*
X112712Y492425D01*
X112712Y494566D02*
X122728Y494566D01*
X122728Y496707D02*
X112712Y496707D01*
X112712Y498848D02*
X122728Y498848D01*
X122728Y515556D02*
X112712Y515556D01*
X122728Y515556D02*
X122728Y506540D01*
X112712Y506540D01*
X112712Y515556D01*
X112712Y508681D02*
X122728Y508681D01*
X122728Y510822D02*
X112712Y510822D01*
X112712Y512963D02*
X122728Y512963D01*
X122728Y515104D02*
X112712Y515104D01*
X105728Y515556D02*
X95712Y515556D01*
X105728Y515556D02*
X105728Y506540D01*
X95712Y506540D01*
X95712Y515556D01*
X95712Y508681D02*
X105728Y508681D01*
X105728Y510822D02*
X95712Y510822D01*
X95712Y512963D02*
X105728Y512963D01*
X105728Y515104D02*
X95712Y515104D01*
D23*
X133002Y194744D02*
X133002Y189444D01*
X133002Y194744D02*
X140302Y194744D01*
X140302Y189444D01*
X133002Y189444D01*
X133002Y191601D02*
X140302Y191601D01*
X140302Y193758D02*
X133002Y193758D01*
X133002Y171744D02*
X133002Y166444D01*
X133002Y171744D02*
X140302Y171744D01*
X140302Y166444D01*
X133002Y166444D01*
X133002Y168601D02*
X140302Y168601D01*
X140302Y170758D02*
X133002Y170758D01*
D14*
X522300Y632460D03*
D15*
X722300Y632460D03*
D16*
X530782Y677978D02*
X528818Y677978D01*
X528818Y692442D01*
X530782Y692442D01*
X530782Y677978D01*
X530782Y680169D02*
X528818Y680169D01*
X528818Y682360D02*
X530782Y682360D01*
X530782Y684551D02*
X528818Y684551D01*
X528818Y686742D02*
X530782Y686742D01*
X530782Y688933D02*
X528818Y688933D01*
X528818Y691124D02*
X530782Y691124D01*
D11*
X524307Y664203D02*
X513293Y664203D01*
X513293Y690717D01*
X524307Y690717D01*
X524307Y664203D01*
X524307Y666346D02*
X513293Y666346D01*
X513293Y668489D02*
X524307Y668489D01*
X524307Y670632D02*
X513293Y670632D01*
X513293Y672775D02*
X524307Y672775D01*
X524307Y674918D02*
X513293Y674918D01*
X513293Y677061D02*
X524307Y677061D01*
X524307Y679204D02*
X513293Y679204D01*
X513293Y681347D02*
X524307Y681347D01*
X524307Y683490D02*
X513293Y683490D01*
X513293Y685633D02*
X524307Y685633D01*
X524307Y687776D02*
X513293Y687776D01*
X513293Y689919D02*
X524307Y689919D01*
X720293Y664203D02*
X731307Y664203D01*
X720293Y664203D02*
X720293Y690717D01*
X731307Y690717D01*
X731307Y664203D01*
X731307Y666346D02*
X720293Y666346D01*
X720293Y668489D02*
X731307Y668489D01*
X731307Y670632D02*
X720293Y670632D01*
X720293Y672775D02*
X731307Y672775D01*
X731307Y674918D02*
X720293Y674918D01*
X720293Y677061D02*
X731307Y677061D01*
X731307Y679204D02*
X720293Y679204D01*
X720293Y681347D02*
X731307Y681347D01*
X731307Y683490D02*
X720293Y683490D01*
X720293Y685633D02*
X731307Y685633D01*
X731307Y687776D02*
X720293Y687776D01*
X720293Y689919D02*
X731307Y689919D01*
D16*
X533282Y602478D02*
X531318Y602478D01*
X531318Y616942D01*
X533282Y616942D01*
X533282Y602478D01*
X533282Y604669D02*
X531318Y604669D01*
X531318Y606860D02*
X533282Y606860D01*
X533282Y609051D02*
X531318Y609051D01*
X531318Y611242D02*
X533282Y611242D01*
X533282Y613433D02*
X531318Y613433D01*
X531318Y615624D02*
X533282Y615624D01*
X533818Y677978D02*
X535782Y677978D01*
X533818Y677978D02*
X533818Y692442D01*
X535782Y692442D01*
X535782Y677978D01*
X535782Y680169D02*
X533818Y680169D01*
X533818Y682360D02*
X535782Y682360D01*
X535782Y684551D02*
X533818Y684551D01*
X533818Y686742D02*
X535782Y686742D01*
X535782Y688933D02*
X533818Y688933D01*
X533818Y691124D02*
X535782Y691124D01*
X536318Y602478D02*
X538282Y602478D01*
X536318Y602478D02*
X536318Y616942D01*
X538282Y616942D01*
X538282Y602478D01*
X538282Y604669D02*
X536318Y604669D01*
X536318Y606860D02*
X538282Y606860D01*
X538282Y609051D02*
X536318Y609051D01*
X536318Y611242D02*
X538282Y611242D01*
X538282Y613433D02*
X536318Y613433D01*
X536318Y615624D02*
X538282Y615624D01*
X538818Y677978D02*
X540782Y677978D01*
X538818Y677978D02*
X538818Y692442D01*
X540782Y692442D01*
X540782Y677978D01*
X540782Y680169D02*
X538818Y680169D01*
X538818Y682360D02*
X540782Y682360D01*
X540782Y684551D02*
X538818Y684551D01*
X538818Y686742D02*
X540782Y686742D01*
X540782Y688933D02*
X538818Y688933D01*
X538818Y691124D02*
X540782Y691124D01*
X541318Y602478D02*
X543282Y602478D01*
X541318Y602478D02*
X541318Y616942D01*
X543282Y616942D01*
X543282Y602478D01*
X543282Y604669D02*
X541318Y604669D01*
X541318Y606860D02*
X543282Y606860D01*
X543282Y609051D02*
X541318Y609051D01*
X541318Y611242D02*
X543282Y611242D01*
X543282Y613433D02*
X541318Y613433D01*
X541318Y615624D02*
X543282Y615624D01*
X543818Y677978D02*
X545782Y677978D01*
X543818Y677978D02*
X543818Y692442D01*
X545782Y692442D01*
X545782Y677978D01*
X545782Y680169D02*
X543818Y680169D01*
X543818Y682360D02*
X545782Y682360D01*
X545782Y684551D02*
X543818Y684551D01*
X543818Y686742D02*
X545782Y686742D01*
X545782Y688933D02*
X543818Y688933D01*
X543818Y691124D02*
X545782Y691124D01*
X546318Y602478D02*
X548282Y602478D01*
X546318Y602478D02*
X546318Y616942D01*
X548282Y616942D01*
X548282Y602478D01*
X548282Y604669D02*
X546318Y604669D01*
X546318Y606860D02*
X548282Y606860D01*
X548282Y609051D02*
X546318Y609051D01*
X546318Y611242D02*
X548282Y611242D01*
X548282Y613433D02*
X546318Y613433D01*
X546318Y615624D02*
X548282Y615624D01*
X548818Y677978D02*
X550782Y677978D01*
X548818Y677978D02*
X548818Y692442D01*
X550782Y692442D01*
X550782Y677978D01*
X550782Y680169D02*
X548818Y680169D01*
X548818Y682360D02*
X550782Y682360D01*
X550782Y684551D02*
X548818Y684551D01*
X548818Y686742D02*
X550782Y686742D01*
X550782Y688933D02*
X548818Y688933D01*
X548818Y691124D02*
X550782Y691124D01*
X551318Y602478D02*
X553282Y602478D01*
X551318Y602478D02*
X551318Y616942D01*
X553282Y616942D01*
X553282Y602478D01*
X553282Y604669D02*
X551318Y604669D01*
X551318Y606860D02*
X553282Y606860D01*
X553282Y609051D02*
X551318Y609051D01*
X551318Y611242D02*
X553282Y611242D01*
X553282Y613433D02*
X551318Y613433D01*
X551318Y615624D02*
X553282Y615624D01*
X553818Y677978D02*
X555782Y677978D01*
X553818Y677978D02*
X553818Y692442D01*
X555782Y692442D01*
X555782Y677978D01*
X555782Y680169D02*
X553818Y680169D01*
X553818Y682360D02*
X555782Y682360D01*
X555782Y684551D02*
X553818Y684551D01*
X553818Y686742D02*
X555782Y686742D01*
X555782Y688933D02*
X553818Y688933D01*
X553818Y691124D02*
X555782Y691124D01*
X556318Y602478D02*
X558282Y602478D01*
X556318Y602478D02*
X556318Y616942D01*
X558282Y616942D01*
X558282Y602478D01*
X558282Y604669D02*
X556318Y604669D01*
X556318Y606860D02*
X558282Y606860D01*
X558282Y609051D02*
X556318Y609051D01*
X556318Y611242D02*
X558282Y611242D01*
X558282Y613433D02*
X556318Y613433D01*
X556318Y615624D02*
X558282Y615624D01*
X558818Y677978D02*
X560782Y677978D01*
X558818Y677978D02*
X558818Y692442D01*
X560782Y692442D01*
X560782Y677978D01*
X560782Y680169D02*
X558818Y680169D01*
X558818Y682360D02*
X560782Y682360D01*
X560782Y684551D02*
X558818Y684551D01*
X558818Y686742D02*
X560782Y686742D01*
X560782Y688933D02*
X558818Y688933D01*
X558818Y691124D02*
X560782Y691124D01*
X561318Y602478D02*
X563282Y602478D01*
X561318Y602478D02*
X561318Y616942D01*
X563282Y616942D01*
X563282Y602478D01*
X563282Y604669D02*
X561318Y604669D01*
X561318Y606860D02*
X563282Y606860D01*
X563282Y609051D02*
X561318Y609051D01*
X561318Y611242D02*
X563282Y611242D01*
X563282Y613433D02*
X561318Y613433D01*
X561318Y615624D02*
X563282Y615624D01*
X563818Y677978D02*
X565782Y677978D01*
X563818Y677978D02*
X563818Y692442D01*
X565782Y692442D01*
X565782Y677978D01*
X565782Y680169D02*
X563818Y680169D01*
X563818Y682360D02*
X565782Y682360D01*
X565782Y684551D02*
X563818Y684551D01*
X563818Y686742D02*
X565782Y686742D01*
X565782Y688933D02*
X563818Y688933D01*
X563818Y691124D02*
X565782Y691124D01*
X566318Y602478D02*
X568282Y602478D01*
X566318Y602478D02*
X566318Y616942D01*
X568282Y616942D01*
X568282Y602478D01*
X568282Y604669D02*
X566318Y604669D01*
X566318Y606860D02*
X568282Y606860D01*
X568282Y609051D02*
X566318Y609051D01*
X566318Y611242D02*
X568282Y611242D01*
X568282Y613433D02*
X566318Y613433D01*
X566318Y615624D02*
X568282Y615624D01*
X568818Y677978D02*
X570782Y677978D01*
X568818Y677978D02*
X568818Y692442D01*
X570782Y692442D01*
X570782Y677978D01*
X570782Y680169D02*
X568818Y680169D01*
X568818Y682360D02*
X570782Y682360D01*
X570782Y684551D02*
X568818Y684551D01*
X568818Y686742D02*
X570782Y686742D01*
X570782Y688933D02*
X568818Y688933D01*
X568818Y691124D02*
X570782Y691124D01*
X571318Y602478D02*
X573282Y602478D01*
X571318Y602478D02*
X571318Y616942D01*
X573282Y616942D01*
X573282Y602478D01*
X573282Y604669D02*
X571318Y604669D01*
X571318Y606860D02*
X573282Y606860D01*
X573282Y609051D02*
X571318Y609051D01*
X571318Y611242D02*
X573282Y611242D01*
X573282Y613433D02*
X571318Y613433D01*
X571318Y615624D02*
X573282Y615624D01*
X573818Y677978D02*
X575782Y677978D01*
X573818Y677978D02*
X573818Y692442D01*
X575782Y692442D01*
X575782Y677978D01*
X575782Y680169D02*
X573818Y680169D01*
X573818Y682360D02*
X575782Y682360D01*
X575782Y684551D02*
X573818Y684551D01*
X573818Y686742D02*
X575782Y686742D01*
X575782Y688933D02*
X573818Y688933D01*
X573818Y691124D02*
X575782Y691124D01*
X576318Y602478D02*
X578282Y602478D01*
X576318Y602478D02*
X576318Y616942D01*
X578282Y616942D01*
X578282Y602478D01*
X578282Y604669D02*
X576318Y604669D01*
X576318Y606860D02*
X578282Y606860D01*
X578282Y609051D02*
X576318Y609051D01*
X576318Y611242D02*
X578282Y611242D01*
X578282Y613433D02*
X576318Y613433D01*
X576318Y615624D02*
X578282Y615624D01*
X578818Y677978D02*
X580782Y677978D01*
X578818Y677978D02*
X578818Y692442D01*
X580782Y692442D01*
X580782Y677978D01*
X580782Y680169D02*
X578818Y680169D01*
X578818Y682360D02*
X580782Y682360D01*
X580782Y684551D02*
X578818Y684551D01*
X578818Y686742D02*
X580782Y686742D01*
X580782Y688933D02*
X578818Y688933D01*
X578818Y691124D02*
X580782Y691124D01*
X581318Y602478D02*
X583282Y602478D01*
X581318Y602478D02*
X581318Y616942D01*
X583282Y616942D01*
X583282Y602478D01*
X583282Y604669D02*
X581318Y604669D01*
X581318Y606860D02*
X583282Y606860D01*
X583282Y609051D02*
X581318Y609051D01*
X581318Y611242D02*
X583282Y611242D01*
X583282Y613433D02*
X581318Y613433D01*
X581318Y615624D02*
X583282Y615624D01*
X583818Y677978D02*
X585782Y677978D01*
X583818Y677978D02*
X583818Y692442D01*
X585782Y692442D01*
X585782Y677978D01*
X585782Y680169D02*
X583818Y680169D01*
X583818Y682360D02*
X585782Y682360D01*
X585782Y684551D02*
X583818Y684551D01*
X583818Y686742D02*
X585782Y686742D01*
X585782Y688933D02*
X583818Y688933D01*
X583818Y691124D02*
X585782Y691124D01*
X606318Y602478D02*
X608282Y602478D01*
X606318Y602478D02*
X606318Y616942D01*
X608282Y616942D01*
X608282Y602478D01*
X608282Y604669D02*
X606318Y604669D01*
X606318Y606860D02*
X608282Y606860D01*
X608282Y609051D02*
X606318Y609051D01*
X606318Y611242D02*
X608282Y611242D01*
X608282Y613433D02*
X606318Y613433D01*
X606318Y615624D02*
X608282Y615624D01*
X608818Y677978D02*
X610782Y677978D01*
X608818Y677978D02*
X608818Y692442D01*
X610782Y692442D01*
X610782Y677978D01*
X610782Y680169D02*
X608818Y680169D01*
X608818Y682360D02*
X610782Y682360D01*
X610782Y684551D02*
X608818Y684551D01*
X608818Y686742D02*
X610782Y686742D01*
X610782Y688933D02*
X608818Y688933D01*
X608818Y691124D02*
X610782Y691124D01*
X611318Y602478D02*
X613282Y602478D01*
X611318Y602478D02*
X611318Y616942D01*
X613282Y616942D01*
X613282Y602478D01*
X613282Y604669D02*
X611318Y604669D01*
X611318Y606860D02*
X613282Y606860D01*
X613282Y609051D02*
X611318Y609051D01*
X611318Y611242D02*
X613282Y611242D01*
X613282Y613433D02*
X611318Y613433D01*
X611318Y615624D02*
X613282Y615624D01*
X613818Y677978D02*
X615782Y677978D01*
X613818Y677978D02*
X613818Y692442D01*
X615782Y692442D01*
X615782Y677978D01*
X615782Y680169D02*
X613818Y680169D01*
X613818Y682360D02*
X615782Y682360D01*
X615782Y684551D02*
X613818Y684551D01*
X613818Y686742D02*
X615782Y686742D01*
X615782Y688933D02*
X613818Y688933D01*
X613818Y691124D02*
X615782Y691124D01*
X616318Y602478D02*
X618282Y602478D01*
X616318Y602478D02*
X616318Y616942D01*
X618282Y616942D01*
X618282Y602478D01*
X618282Y604669D02*
X616318Y604669D01*
X616318Y606860D02*
X618282Y606860D01*
X618282Y609051D02*
X616318Y609051D01*
X616318Y611242D02*
X618282Y611242D01*
X618282Y613433D02*
X616318Y613433D01*
X616318Y615624D02*
X618282Y615624D01*
X618818Y677978D02*
X620782Y677978D01*
X618818Y677978D02*
X618818Y692442D01*
X620782Y692442D01*
X620782Y677978D01*
X620782Y680169D02*
X618818Y680169D01*
X618818Y682360D02*
X620782Y682360D01*
X620782Y684551D02*
X618818Y684551D01*
X618818Y686742D02*
X620782Y686742D01*
X620782Y688933D02*
X618818Y688933D01*
X618818Y691124D02*
X620782Y691124D01*
X621318Y602478D02*
X623282Y602478D01*
X621318Y602478D02*
X621318Y616942D01*
X623282Y616942D01*
X623282Y602478D01*
X623282Y604669D02*
X621318Y604669D01*
X621318Y606860D02*
X623282Y606860D01*
X623282Y609051D02*
X621318Y609051D01*
X621318Y611242D02*
X623282Y611242D01*
X623282Y613433D02*
X621318Y613433D01*
X621318Y615624D02*
X623282Y615624D01*
X623818Y677978D02*
X625782Y677978D01*
X623818Y677978D02*
X623818Y692442D01*
X625782Y692442D01*
X625782Y677978D01*
X625782Y680169D02*
X623818Y680169D01*
X623818Y682360D02*
X625782Y682360D01*
X625782Y684551D02*
X623818Y684551D01*
X623818Y686742D02*
X625782Y686742D01*
X625782Y688933D02*
X623818Y688933D01*
X623818Y691124D02*
X625782Y691124D01*
X626318Y602478D02*
X628282Y602478D01*
X626318Y602478D02*
X626318Y616942D01*
X628282Y616942D01*
X628282Y602478D01*
X628282Y604669D02*
X626318Y604669D01*
X626318Y606860D02*
X628282Y606860D01*
X628282Y609051D02*
X626318Y609051D01*
X626318Y611242D02*
X628282Y611242D01*
X628282Y613433D02*
X626318Y613433D01*
X626318Y615624D02*
X628282Y615624D01*
X628818Y677978D02*
X630782Y677978D01*
X628818Y677978D02*
X628818Y692442D01*
X630782Y692442D01*
X630782Y677978D01*
X630782Y680169D02*
X628818Y680169D01*
X628818Y682360D02*
X630782Y682360D01*
X630782Y684551D02*
X628818Y684551D01*
X628818Y686742D02*
X630782Y686742D01*
X630782Y688933D02*
X628818Y688933D01*
X628818Y691124D02*
X630782Y691124D01*
X631318Y602478D02*
X633282Y602478D01*
X631318Y602478D02*
X631318Y616942D01*
X633282Y616942D01*
X633282Y602478D01*
X633282Y604669D02*
X631318Y604669D01*
X631318Y606860D02*
X633282Y606860D01*
X633282Y609051D02*
X631318Y609051D01*
X631318Y611242D02*
X633282Y611242D01*
X633282Y613433D02*
X631318Y613433D01*
X631318Y615624D02*
X633282Y615624D01*
X633818Y677978D02*
X635782Y677978D01*
X633818Y677978D02*
X633818Y692442D01*
X635782Y692442D01*
X635782Y677978D01*
X635782Y680169D02*
X633818Y680169D01*
X633818Y682360D02*
X635782Y682360D01*
X635782Y684551D02*
X633818Y684551D01*
X633818Y686742D02*
X635782Y686742D01*
X635782Y688933D02*
X633818Y688933D01*
X633818Y691124D02*
X635782Y691124D01*
X636318Y602478D02*
X638282Y602478D01*
X636318Y602478D02*
X636318Y616942D01*
X638282Y616942D01*
X638282Y602478D01*
X638282Y604669D02*
X636318Y604669D01*
X636318Y606860D02*
X638282Y606860D01*
X638282Y609051D02*
X636318Y609051D01*
X636318Y611242D02*
X638282Y611242D01*
X638282Y613433D02*
X636318Y613433D01*
X636318Y615624D02*
X638282Y615624D01*
X638818Y677978D02*
X640782Y677978D01*
X638818Y677978D02*
X638818Y692442D01*
X640782Y692442D01*
X640782Y677978D01*
X640782Y680169D02*
X638818Y680169D01*
X638818Y682360D02*
X640782Y682360D01*
X640782Y684551D02*
X638818Y684551D01*
X638818Y686742D02*
X640782Y686742D01*
X640782Y688933D02*
X638818Y688933D01*
X638818Y691124D02*
X640782Y691124D01*
X641318Y602478D02*
X643282Y602478D01*
X641318Y602478D02*
X641318Y616942D01*
X643282Y616942D01*
X643282Y602478D01*
X643282Y604669D02*
X641318Y604669D01*
X641318Y606860D02*
X643282Y606860D01*
X643282Y609051D02*
X641318Y609051D01*
X641318Y611242D02*
X643282Y611242D01*
X643282Y613433D02*
X641318Y613433D01*
X641318Y615624D02*
X643282Y615624D01*
X643818Y677978D02*
X645782Y677978D01*
X643818Y677978D02*
X643818Y692442D01*
X645782Y692442D01*
X645782Y677978D01*
X645782Y680169D02*
X643818Y680169D01*
X643818Y682360D02*
X645782Y682360D01*
X645782Y684551D02*
X643818Y684551D01*
X643818Y686742D02*
X645782Y686742D01*
X645782Y688933D02*
X643818Y688933D01*
X643818Y691124D02*
X645782Y691124D01*
X646318Y602478D02*
X648282Y602478D01*
X646318Y602478D02*
X646318Y616942D01*
X648282Y616942D01*
X648282Y602478D01*
X648282Y604669D02*
X646318Y604669D01*
X646318Y606860D02*
X648282Y606860D01*
X648282Y609051D02*
X646318Y609051D01*
X646318Y611242D02*
X648282Y611242D01*
X648282Y613433D02*
X646318Y613433D01*
X646318Y615624D02*
X648282Y615624D01*
X648818Y677978D02*
X650782Y677978D01*
X648818Y677978D02*
X648818Y692442D01*
X650782Y692442D01*
X650782Y677978D01*
X650782Y680169D02*
X648818Y680169D01*
X648818Y682360D02*
X650782Y682360D01*
X650782Y684551D02*
X648818Y684551D01*
X648818Y686742D02*
X650782Y686742D01*
X650782Y688933D02*
X648818Y688933D01*
X648818Y691124D02*
X650782Y691124D01*
X651318Y602478D02*
X653282Y602478D01*
X651318Y602478D02*
X651318Y616942D01*
X653282Y616942D01*
X653282Y602478D01*
X653282Y604669D02*
X651318Y604669D01*
X651318Y606860D02*
X653282Y606860D01*
X653282Y609051D02*
X651318Y609051D01*
X651318Y611242D02*
X653282Y611242D01*
X653282Y613433D02*
X651318Y613433D01*
X651318Y615624D02*
X653282Y615624D01*
X653818Y677978D02*
X655782Y677978D01*
X653818Y677978D02*
X653818Y692442D01*
X655782Y692442D01*
X655782Y677978D01*
X655782Y680169D02*
X653818Y680169D01*
X653818Y682360D02*
X655782Y682360D01*
X655782Y684551D02*
X653818Y684551D01*
X653818Y686742D02*
X655782Y686742D01*
X655782Y688933D02*
X653818Y688933D01*
X653818Y691124D02*
X655782Y691124D01*
X656318Y602478D02*
X658282Y602478D01*
X656318Y602478D02*
X656318Y616942D01*
X658282Y616942D01*
X658282Y602478D01*
X658282Y604669D02*
X656318Y604669D01*
X656318Y606860D02*
X658282Y606860D01*
X658282Y609051D02*
X656318Y609051D01*
X656318Y611242D02*
X658282Y611242D01*
X658282Y613433D02*
X656318Y613433D01*
X656318Y615624D02*
X658282Y615624D01*
X658818Y677978D02*
X660782Y677978D01*
X658818Y677978D02*
X658818Y692442D01*
X660782Y692442D01*
X660782Y677978D01*
X660782Y680169D02*
X658818Y680169D01*
X658818Y682360D02*
X660782Y682360D01*
X660782Y684551D02*
X658818Y684551D01*
X658818Y686742D02*
X660782Y686742D01*
X660782Y688933D02*
X658818Y688933D01*
X658818Y691124D02*
X660782Y691124D01*
X661318Y602478D02*
X663282Y602478D01*
X661318Y602478D02*
X661318Y616942D01*
X663282Y616942D01*
X663282Y602478D01*
X663282Y604669D02*
X661318Y604669D01*
X661318Y606860D02*
X663282Y606860D01*
X663282Y609051D02*
X661318Y609051D01*
X661318Y611242D02*
X663282Y611242D01*
X663282Y613433D02*
X661318Y613433D01*
X661318Y615624D02*
X663282Y615624D01*
X663818Y677978D02*
X665782Y677978D01*
X663818Y677978D02*
X663818Y692442D01*
X665782Y692442D01*
X665782Y677978D01*
X665782Y680169D02*
X663818Y680169D01*
X663818Y682360D02*
X665782Y682360D01*
X665782Y684551D02*
X663818Y684551D01*
X663818Y686742D02*
X665782Y686742D01*
X665782Y688933D02*
X663818Y688933D01*
X663818Y691124D02*
X665782Y691124D01*
X666318Y602478D02*
X668282Y602478D01*
X666318Y602478D02*
X666318Y616942D01*
X668282Y616942D01*
X668282Y602478D01*
X668282Y604669D02*
X666318Y604669D01*
X666318Y606860D02*
X668282Y606860D01*
X668282Y609051D02*
X666318Y609051D01*
X666318Y611242D02*
X668282Y611242D01*
X668282Y613433D02*
X666318Y613433D01*
X666318Y615624D02*
X668282Y615624D01*
X668818Y677978D02*
X670782Y677978D01*
X668818Y677978D02*
X668818Y692442D01*
X670782Y692442D01*
X670782Y677978D01*
X670782Y680169D02*
X668818Y680169D01*
X668818Y682360D02*
X670782Y682360D01*
X670782Y684551D02*
X668818Y684551D01*
X668818Y686742D02*
X670782Y686742D01*
X670782Y688933D02*
X668818Y688933D01*
X668818Y691124D02*
X670782Y691124D01*
X671318Y602478D02*
X673282Y602478D01*
X671318Y602478D02*
X671318Y616942D01*
X673282Y616942D01*
X673282Y602478D01*
X673282Y604669D02*
X671318Y604669D01*
X671318Y606860D02*
X673282Y606860D01*
X673282Y609051D02*
X671318Y609051D01*
X671318Y611242D02*
X673282Y611242D01*
X673282Y613433D02*
X671318Y613433D01*
X671318Y615624D02*
X673282Y615624D01*
X673818Y677978D02*
X675782Y677978D01*
X673818Y677978D02*
X673818Y692442D01*
X675782Y692442D01*
X675782Y677978D01*
X675782Y680169D02*
X673818Y680169D01*
X673818Y682360D02*
X675782Y682360D01*
X675782Y684551D02*
X673818Y684551D01*
X673818Y686742D02*
X675782Y686742D01*
X675782Y688933D02*
X673818Y688933D01*
X673818Y691124D02*
X675782Y691124D01*
X676318Y602478D02*
X678282Y602478D01*
X676318Y602478D02*
X676318Y616942D01*
X678282Y616942D01*
X678282Y602478D01*
X678282Y604669D02*
X676318Y604669D01*
X676318Y606860D02*
X678282Y606860D01*
X678282Y609051D02*
X676318Y609051D01*
X676318Y611242D02*
X678282Y611242D01*
X678282Y613433D02*
X676318Y613433D01*
X676318Y615624D02*
X678282Y615624D01*
X678818Y677978D02*
X680782Y677978D01*
X678818Y677978D02*
X678818Y692442D01*
X680782Y692442D01*
X680782Y677978D01*
X680782Y680169D02*
X678818Y680169D01*
X678818Y682360D02*
X680782Y682360D01*
X680782Y684551D02*
X678818Y684551D01*
X678818Y686742D02*
X680782Y686742D01*
X680782Y688933D02*
X678818Y688933D01*
X678818Y691124D02*
X680782Y691124D01*
X681318Y602478D02*
X683282Y602478D01*
X681318Y602478D02*
X681318Y616942D01*
X683282Y616942D01*
X683282Y602478D01*
X683282Y604669D02*
X681318Y604669D01*
X681318Y606860D02*
X683282Y606860D01*
X683282Y609051D02*
X681318Y609051D01*
X681318Y611242D02*
X683282Y611242D01*
X683282Y613433D02*
X681318Y613433D01*
X681318Y615624D02*
X683282Y615624D01*
X683818Y677978D02*
X685782Y677978D01*
X683818Y677978D02*
X683818Y692442D01*
X685782Y692442D01*
X685782Y677978D01*
X685782Y680169D02*
X683818Y680169D01*
X683818Y682360D02*
X685782Y682360D01*
X685782Y684551D02*
X683818Y684551D01*
X683818Y686742D02*
X685782Y686742D01*
X685782Y688933D02*
X683818Y688933D01*
X683818Y691124D02*
X685782Y691124D01*
X686318Y602478D02*
X688282Y602478D01*
X686318Y602478D02*
X686318Y616942D01*
X688282Y616942D01*
X688282Y602478D01*
X688282Y604669D02*
X686318Y604669D01*
X686318Y606860D02*
X688282Y606860D01*
X688282Y609051D02*
X686318Y609051D01*
X686318Y611242D02*
X688282Y611242D01*
X688282Y613433D02*
X686318Y613433D01*
X686318Y615624D02*
X688282Y615624D01*
X688818Y677978D02*
X690782Y677978D01*
X688818Y677978D02*
X688818Y692442D01*
X690782Y692442D01*
X690782Y677978D01*
X690782Y680169D02*
X688818Y680169D01*
X688818Y682360D02*
X690782Y682360D01*
X690782Y684551D02*
X688818Y684551D01*
X688818Y686742D02*
X690782Y686742D01*
X690782Y688933D02*
X688818Y688933D01*
X688818Y691124D02*
X690782Y691124D01*
X691318Y602478D02*
X693282Y602478D01*
X691318Y602478D02*
X691318Y616942D01*
X693282Y616942D01*
X693282Y602478D01*
X693282Y604669D02*
X691318Y604669D01*
X691318Y606860D02*
X693282Y606860D01*
X693282Y609051D02*
X691318Y609051D01*
X691318Y611242D02*
X693282Y611242D01*
X693282Y613433D02*
X691318Y613433D01*
X691318Y615624D02*
X693282Y615624D01*
X693818Y677978D02*
X695782Y677978D01*
X693818Y677978D02*
X693818Y692442D01*
X695782Y692442D01*
X695782Y677978D01*
X695782Y680169D02*
X693818Y680169D01*
X693818Y682360D02*
X695782Y682360D01*
X695782Y684551D02*
X693818Y684551D01*
X693818Y686742D02*
X695782Y686742D01*
X695782Y688933D02*
X693818Y688933D01*
X693818Y691124D02*
X695782Y691124D01*
X696318Y602478D02*
X698282Y602478D01*
X696318Y602478D02*
X696318Y616942D01*
X698282Y616942D01*
X698282Y602478D01*
X698282Y604669D02*
X696318Y604669D01*
X696318Y606860D02*
X698282Y606860D01*
X698282Y609051D02*
X696318Y609051D01*
X696318Y611242D02*
X698282Y611242D01*
X698282Y613433D02*
X696318Y613433D01*
X696318Y615624D02*
X698282Y615624D01*
X698818Y677978D02*
X700782Y677978D01*
X698818Y677978D02*
X698818Y692442D01*
X700782Y692442D01*
X700782Y677978D01*
X700782Y680169D02*
X698818Y680169D01*
X698818Y682360D02*
X700782Y682360D01*
X700782Y684551D02*
X698818Y684551D01*
X698818Y686742D02*
X700782Y686742D01*
X700782Y688933D02*
X698818Y688933D01*
X698818Y691124D02*
X700782Y691124D01*
X701318Y602478D02*
X703282Y602478D01*
X701318Y602478D02*
X701318Y616942D01*
X703282Y616942D01*
X703282Y602478D01*
X703282Y604669D02*
X701318Y604669D01*
X701318Y606860D02*
X703282Y606860D01*
X703282Y609051D02*
X701318Y609051D01*
X701318Y611242D02*
X703282Y611242D01*
X703282Y613433D02*
X701318Y613433D01*
X701318Y615624D02*
X703282Y615624D01*
X703818Y677978D02*
X705782Y677978D01*
X703818Y677978D02*
X703818Y692442D01*
X705782Y692442D01*
X705782Y677978D01*
X705782Y680169D02*
X703818Y680169D01*
X703818Y682360D02*
X705782Y682360D01*
X705782Y684551D02*
X703818Y684551D01*
X703818Y686742D02*
X705782Y686742D01*
X705782Y688933D02*
X703818Y688933D01*
X703818Y691124D02*
X705782Y691124D01*
X706318Y602478D02*
X708282Y602478D01*
X706318Y602478D02*
X706318Y616942D01*
X708282Y616942D01*
X708282Y602478D01*
X708282Y604669D02*
X706318Y604669D01*
X706318Y606860D02*
X708282Y606860D01*
X708282Y609051D02*
X706318Y609051D01*
X706318Y611242D02*
X708282Y611242D01*
X708282Y613433D02*
X706318Y613433D01*
X706318Y615624D02*
X708282Y615624D01*
X708818Y677978D02*
X710782Y677978D01*
X708818Y677978D02*
X708818Y692442D01*
X710782Y692442D01*
X710782Y677978D01*
X710782Y680169D02*
X708818Y680169D01*
X708818Y682360D02*
X710782Y682360D01*
X710782Y684551D02*
X708818Y684551D01*
X708818Y686742D02*
X710782Y686742D01*
X710782Y688933D02*
X708818Y688933D01*
X708818Y691124D02*
X710782Y691124D01*
X711318Y602478D02*
X713282Y602478D01*
X711318Y602478D02*
X711318Y616942D01*
X713282Y616942D01*
X713282Y602478D01*
X713282Y604669D02*
X711318Y604669D01*
X711318Y606860D02*
X713282Y606860D01*
X713282Y609051D02*
X711318Y609051D01*
X711318Y611242D02*
X713282Y611242D01*
X713282Y613433D02*
X711318Y613433D01*
X711318Y615624D02*
X713282Y615624D01*
X713818Y677978D02*
X715782Y677978D01*
X713818Y677978D02*
X713818Y692442D01*
X715782Y692442D01*
X715782Y677978D01*
X715782Y680169D02*
X713818Y680169D01*
X713818Y682360D02*
X715782Y682360D01*
X715782Y684551D02*
X713818Y684551D01*
X713818Y686742D02*
X715782Y686742D01*
X715782Y688933D02*
X713818Y688933D01*
X713818Y691124D02*
X715782Y691124D01*
D14*
X905840Y632460D03*
D15*
X1105840Y632460D03*
D16*
X914322Y677978D02*
X912358Y677978D01*
X912358Y692442D01*
X914322Y692442D01*
X914322Y677978D01*
X914322Y680169D02*
X912358Y680169D01*
X912358Y682360D02*
X914322Y682360D01*
X914322Y684551D02*
X912358Y684551D01*
X912358Y686742D02*
X914322Y686742D01*
X914322Y688933D02*
X912358Y688933D01*
X912358Y691124D02*
X914322Y691124D01*
D11*
X907847Y664203D02*
X896833Y664203D01*
X896833Y690717D01*
X907847Y690717D01*
X907847Y664203D01*
X907847Y666346D02*
X896833Y666346D01*
X896833Y668489D02*
X907847Y668489D01*
X907847Y670632D02*
X896833Y670632D01*
X896833Y672775D02*
X907847Y672775D01*
X907847Y674918D02*
X896833Y674918D01*
X896833Y677061D02*
X907847Y677061D01*
X907847Y679204D02*
X896833Y679204D01*
X896833Y681347D02*
X907847Y681347D01*
X907847Y683490D02*
X896833Y683490D01*
X896833Y685633D02*
X907847Y685633D01*
X907847Y687776D02*
X896833Y687776D01*
X896833Y689919D02*
X907847Y689919D01*
X1103833Y664203D02*
X1114847Y664203D01*
X1103833Y664203D02*
X1103833Y690717D01*
X1114847Y690717D01*
X1114847Y664203D01*
X1114847Y666346D02*
X1103833Y666346D01*
X1103833Y668489D02*
X1114847Y668489D01*
X1114847Y670632D02*
X1103833Y670632D01*
X1103833Y672775D02*
X1114847Y672775D01*
X1114847Y674918D02*
X1103833Y674918D01*
X1103833Y677061D02*
X1114847Y677061D01*
X1114847Y679204D02*
X1103833Y679204D01*
X1103833Y681347D02*
X1114847Y681347D01*
X1114847Y683490D02*
X1103833Y683490D01*
X1103833Y685633D02*
X1114847Y685633D01*
X1114847Y687776D02*
X1103833Y687776D01*
X1103833Y689919D02*
X1114847Y689919D01*
D16*
X916822Y602478D02*
X914858Y602478D01*
X914858Y616942D01*
X916822Y616942D01*
X916822Y602478D01*
X916822Y604669D02*
X914858Y604669D01*
X914858Y606860D02*
X916822Y606860D01*
X916822Y609051D02*
X914858Y609051D01*
X914858Y611242D02*
X916822Y611242D01*
X916822Y613433D02*
X914858Y613433D01*
X914858Y615624D02*
X916822Y615624D01*
X917358Y677978D02*
X919322Y677978D01*
X917358Y677978D02*
X917358Y692442D01*
X919322Y692442D01*
X919322Y677978D01*
X919322Y680169D02*
X917358Y680169D01*
X917358Y682360D02*
X919322Y682360D01*
X919322Y684551D02*
X917358Y684551D01*
X917358Y686742D02*
X919322Y686742D01*
X919322Y688933D02*
X917358Y688933D01*
X917358Y691124D02*
X919322Y691124D01*
X919858Y602478D02*
X921822Y602478D01*
X919858Y602478D02*
X919858Y616942D01*
X921822Y616942D01*
X921822Y602478D01*
X921822Y604669D02*
X919858Y604669D01*
X919858Y606860D02*
X921822Y606860D01*
X921822Y609051D02*
X919858Y609051D01*
X919858Y611242D02*
X921822Y611242D01*
X921822Y613433D02*
X919858Y613433D01*
X919858Y615624D02*
X921822Y615624D01*
X922358Y677978D02*
X924322Y677978D01*
X922358Y677978D02*
X922358Y692442D01*
X924322Y692442D01*
X924322Y677978D01*
X924322Y680169D02*
X922358Y680169D01*
X922358Y682360D02*
X924322Y682360D01*
X924322Y684551D02*
X922358Y684551D01*
X922358Y686742D02*
X924322Y686742D01*
X924322Y688933D02*
X922358Y688933D01*
X922358Y691124D02*
X924322Y691124D01*
X924858Y602478D02*
X926822Y602478D01*
X924858Y602478D02*
X924858Y616942D01*
X926822Y616942D01*
X926822Y602478D01*
X926822Y604669D02*
X924858Y604669D01*
X924858Y606860D02*
X926822Y606860D01*
X926822Y609051D02*
X924858Y609051D01*
X924858Y611242D02*
X926822Y611242D01*
X926822Y613433D02*
X924858Y613433D01*
X924858Y615624D02*
X926822Y615624D01*
X927358Y677978D02*
X929322Y677978D01*
X927358Y677978D02*
X927358Y692442D01*
X929322Y692442D01*
X929322Y677978D01*
X929322Y680169D02*
X927358Y680169D01*
X927358Y682360D02*
X929322Y682360D01*
X929322Y684551D02*
X927358Y684551D01*
X927358Y686742D02*
X929322Y686742D01*
X929322Y688933D02*
X927358Y688933D01*
X927358Y691124D02*
X929322Y691124D01*
X929858Y602478D02*
X931822Y602478D01*
X929858Y602478D02*
X929858Y616942D01*
X931822Y616942D01*
X931822Y602478D01*
X931822Y604669D02*
X929858Y604669D01*
X929858Y606860D02*
X931822Y606860D01*
X931822Y609051D02*
X929858Y609051D01*
X929858Y611242D02*
X931822Y611242D01*
X931822Y613433D02*
X929858Y613433D01*
X929858Y615624D02*
X931822Y615624D01*
X932358Y677978D02*
X934322Y677978D01*
X932358Y677978D02*
X932358Y692442D01*
X934322Y692442D01*
X934322Y677978D01*
X934322Y680169D02*
X932358Y680169D01*
X932358Y682360D02*
X934322Y682360D01*
X934322Y684551D02*
X932358Y684551D01*
X932358Y686742D02*
X934322Y686742D01*
X934322Y688933D02*
X932358Y688933D01*
X932358Y691124D02*
X934322Y691124D01*
X934858Y602478D02*
X936822Y602478D01*
X934858Y602478D02*
X934858Y616942D01*
X936822Y616942D01*
X936822Y602478D01*
X936822Y604669D02*
X934858Y604669D01*
X934858Y606860D02*
X936822Y606860D01*
X936822Y609051D02*
X934858Y609051D01*
X934858Y611242D02*
X936822Y611242D01*
X936822Y613433D02*
X934858Y613433D01*
X934858Y615624D02*
X936822Y615624D01*
X937358Y677978D02*
X939322Y677978D01*
X937358Y677978D02*
X937358Y692442D01*
X939322Y692442D01*
X939322Y677978D01*
X939322Y680169D02*
X937358Y680169D01*
X937358Y682360D02*
X939322Y682360D01*
X939322Y684551D02*
X937358Y684551D01*
X937358Y686742D02*
X939322Y686742D01*
X939322Y688933D02*
X937358Y688933D01*
X937358Y691124D02*
X939322Y691124D01*
X939858Y602478D02*
X941822Y602478D01*
X939858Y602478D02*
X939858Y616942D01*
X941822Y616942D01*
X941822Y602478D01*
X941822Y604669D02*
X939858Y604669D01*
X939858Y606860D02*
X941822Y606860D01*
X941822Y609051D02*
X939858Y609051D01*
X939858Y611242D02*
X941822Y611242D01*
X941822Y613433D02*
X939858Y613433D01*
X939858Y615624D02*
X941822Y615624D01*
X942358Y677978D02*
X944322Y677978D01*
X942358Y677978D02*
X942358Y692442D01*
X944322Y692442D01*
X944322Y677978D01*
X944322Y680169D02*
X942358Y680169D01*
X942358Y682360D02*
X944322Y682360D01*
X944322Y684551D02*
X942358Y684551D01*
X942358Y686742D02*
X944322Y686742D01*
X944322Y688933D02*
X942358Y688933D01*
X942358Y691124D02*
X944322Y691124D01*
X944858Y602478D02*
X946822Y602478D01*
X944858Y602478D02*
X944858Y616942D01*
X946822Y616942D01*
X946822Y602478D01*
X946822Y604669D02*
X944858Y604669D01*
X944858Y606860D02*
X946822Y606860D01*
X946822Y609051D02*
X944858Y609051D01*
X944858Y611242D02*
X946822Y611242D01*
X946822Y613433D02*
X944858Y613433D01*
X944858Y615624D02*
X946822Y615624D01*
X947358Y677978D02*
X949322Y677978D01*
X947358Y677978D02*
X947358Y692442D01*
X949322Y692442D01*
X949322Y677978D01*
X949322Y680169D02*
X947358Y680169D01*
X947358Y682360D02*
X949322Y682360D01*
X949322Y684551D02*
X947358Y684551D01*
X947358Y686742D02*
X949322Y686742D01*
X949322Y688933D02*
X947358Y688933D01*
X947358Y691124D02*
X949322Y691124D01*
X949858Y602478D02*
X951822Y602478D01*
X949858Y602478D02*
X949858Y616942D01*
X951822Y616942D01*
X951822Y602478D01*
X951822Y604669D02*
X949858Y604669D01*
X949858Y606860D02*
X951822Y606860D01*
X951822Y609051D02*
X949858Y609051D01*
X949858Y611242D02*
X951822Y611242D01*
X951822Y613433D02*
X949858Y613433D01*
X949858Y615624D02*
X951822Y615624D01*
X952358Y677978D02*
X954322Y677978D01*
X952358Y677978D02*
X952358Y692442D01*
X954322Y692442D01*
X954322Y677978D01*
X954322Y680169D02*
X952358Y680169D01*
X952358Y682360D02*
X954322Y682360D01*
X954322Y684551D02*
X952358Y684551D01*
X952358Y686742D02*
X954322Y686742D01*
X954322Y688933D02*
X952358Y688933D01*
X952358Y691124D02*
X954322Y691124D01*
X954858Y602478D02*
X956822Y602478D01*
X954858Y602478D02*
X954858Y616942D01*
X956822Y616942D01*
X956822Y602478D01*
X956822Y604669D02*
X954858Y604669D01*
X954858Y606860D02*
X956822Y606860D01*
X956822Y609051D02*
X954858Y609051D01*
X954858Y611242D02*
X956822Y611242D01*
X956822Y613433D02*
X954858Y613433D01*
X954858Y615624D02*
X956822Y615624D01*
X957358Y677978D02*
X959322Y677978D01*
X957358Y677978D02*
X957358Y692442D01*
X959322Y692442D01*
X959322Y677978D01*
X959322Y680169D02*
X957358Y680169D01*
X957358Y682360D02*
X959322Y682360D01*
X959322Y684551D02*
X957358Y684551D01*
X957358Y686742D02*
X959322Y686742D01*
X959322Y688933D02*
X957358Y688933D01*
X957358Y691124D02*
X959322Y691124D01*
X959858Y602478D02*
X961822Y602478D01*
X959858Y602478D02*
X959858Y616942D01*
X961822Y616942D01*
X961822Y602478D01*
X961822Y604669D02*
X959858Y604669D01*
X959858Y606860D02*
X961822Y606860D01*
X961822Y609051D02*
X959858Y609051D01*
X959858Y611242D02*
X961822Y611242D01*
X961822Y613433D02*
X959858Y613433D01*
X959858Y615624D02*
X961822Y615624D01*
X962358Y677978D02*
X964322Y677978D01*
X962358Y677978D02*
X962358Y692442D01*
X964322Y692442D01*
X964322Y677978D01*
X964322Y680169D02*
X962358Y680169D01*
X962358Y682360D02*
X964322Y682360D01*
X964322Y684551D02*
X962358Y684551D01*
X962358Y686742D02*
X964322Y686742D01*
X964322Y688933D02*
X962358Y688933D01*
X962358Y691124D02*
X964322Y691124D01*
X964858Y602478D02*
X966822Y602478D01*
X964858Y602478D02*
X964858Y616942D01*
X966822Y616942D01*
X966822Y602478D01*
X966822Y604669D02*
X964858Y604669D01*
X964858Y606860D02*
X966822Y606860D01*
X966822Y609051D02*
X964858Y609051D01*
X964858Y611242D02*
X966822Y611242D01*
X966822Y613433D02*
X964858Y613433D01*
X964858Y615624D02*
X966822Y615624D01*
X967358Y677978D02*
X969322Y677978D01*
X967358Y677978D02*
X967358Y692442D01*
X969322Y692442D01*
X969322Y677978D01*
X969322Y680169D02*
X967358Y680169D01*
X967358Y682360D02*
X969322Y682360D01*
X969322Y684551D02*
X967358Y684551D01*
X967358Y686742D02*
X969322Y686742D01*
X969322Y688933D02*
X967358Y688933D01*
X967358Y691124D02*
X969322Y691124D01*
X989858Y602478D02*
X991822Y602478D01*
X989858Y602478D02*
X989858Y616942D01*
X991822Y616942D01*
X991822Y602478D01*
X991822Y604669D02*
X989858Y604669D01*
X989858Y606860D02*
X991822Y606860D01*
X991822Y609051D02*
X989858Y609051D01*
X989858Y611242D02*
X991822Y611242D01*
X991822Y613433D02*
X989858Y613433D01*
X989858Y615624D02*
X991822Y615624D01*
X992358Y677978D02*
X994322Y677978D01*
X992358Y677978D02*
X992358Y692442D01*
X994322Y692442D01*
X994322Y677978D01*
X994322Y680169D02*
X992358Y680169D01*
X992358Y682360D02*
X994322Y682360D01*
X994322Y684551D02*
X992358Y684551D01*
X992358Y686742D02*
X994322Y686742D01*
X994322Y688933D02*
X992358Y688933D01*
X992358Y691124D02*
X994322Y691124D01*
X994858Y602478D02*
X996822Y602478D01*
X994858Y602478D02*
X994858Y616942D01*
X996822Y616942D01*
X996822Y602478D01*
X996822Y604669D02*
X994858Y604669D01*
X994858Y606860D02*
X996822Y606860D01*
X996822Y609051D02*
X994858Y609051D01*
X994858Y611242D02*
X996822Y611242D01*
X996822Y613433D02*
X994858Y613433D01*
X994858Y615624D02*
X996822Y615624D01*
X997358Y677978D02*
X999322Y677978D01*
X997358Y677978D02*
X997358Y692442D01*
X999322Y692442D01*
X999322Y677978D01*
X999322Y680169D02*
X997358Y680169D01*
X997358Y682360D02*
X999322Y682360D01*
X999322Y684551D02*
X997358Y684551D01*
X997358Y686742D02*
X999322Y686742D01*
X999322Y688933D02*
X997358Y688933D01*
X997358Y691124D02*
X999322Y691124D01*
X999858Y602478D02*
X1001822Y602478D01*
X999858Y602478D02*
X999858Y616942D01*
X1001822Y616942D01*
X1001822Y602478D01*
X1001822Y604669D02*
X999858Y604669D01*
X999858Y606860D02*
X1001822Y606860D01*
X1001822Y609051D02*
X999858Y609051D01*
X999858Y611242D02*
X1001822Y611242D01*
X1001822Y613433D02*
X999858Y613433D01*
X999858Y615624D02*
X1001822Y615624D01*
X1002358Y677978D02*
X1004322Y677978D01*
X1002358Y677978D02*
X1002358Y692442D01*
X1004322Y692442D01*
X1004322Y677978D01*
X1004322Y680169D02*
X1002358Y680169D01*
X1002358Y682360D02*
X1004322Y682360D01*
X1004322Y684551D02*
X1002358Y684551D01*
X1002358Y686742D02*
X1004322Y686742D01*
X1004322Y688933D02*
X1002358Y688933D01*
X1002358Y691124D02*
X1004322Y691124D01*
X1004858Y602478D02*
X1006822Y602478D01*
X1004858Y602478D02*
X1004858Y616942D01*
X1006822Y616942D01*
X1006822Y602478D01*
X1006822Y604669D02*
X1004858Y604669D01*
X1004858Y606860D02*
X1006822Y606860D01*
X1006822Y609051D02*
X1004858Y609051D01*
X1004858Y611242D02*
X1006822Y611242D01*
X1006822Y613433D02*
X1004858Y613433D01*
X1004858Y615624D02*
X1006822Y615624D01*
X1007358Y677978D02*
X1009322Y677978D01*
X1007358Y677978D02*
X1007358Y692442D01*
X1009322Y692442D01*
X1009322Y677978D01*
X1009322Y680169D02*
X1007358Y680169D01*
X1007358Y682360D02*
X1009322Y682360D01*
X1009322Y684551D02*
X1007358Y684551D01*
X1007358Y686742D02*
X1009322Y686742D01*
X1009322Y688933D02*
X1007358Y688933D01*
X1007358Y691124D02*
X1009322Y691124D01*
X1009858Y602478D02*
X1011822Y602478D01*
X1009858Y602478D02*
X1009858Y616942D01*
X1011822Y616942D01*
X1011822Y602478D01*
X1011822Y604669D02*
X1009858Y604669D01*
X1009858Y606860D02*
X1011822Y606860D01*
X1011822Y609051D02*
X1009858Y609051D01*
X1009858Y611242D02*
X1011822Y611242D01*
X1011822Y613433D02*
X1009858Y613433D01*
X1009858Y615624D02*
X1011822Y615624D01*
X1012358Y677978D02*
X1014322Y677978D01*
X1012358Y677978D02*
X1012358Y692442D01*
X1014322Y692442D01*
X1014322Y677978D01*
X1014322Y680169D02*
X1012358Y680169D01*
X1012358Y682360D02*
X1014322Y682360D01*
X1014322Y684551D02*
X1012358Y684551D01*
X1012358Y686742D02*
X1014322Y686742D01*
X1014322Y688933D02*
X1012358Y688933D01*
X1012358Y691124D02*
X1014322Y691124D01*
X1014858Y602478D02*
X1016822Y602478D01*
X1014858Y602478D02*
X1014858Y616942D01*
X1016822Y616942D01*
X1016822Y602478D01*
X1016822Y604669D02*
X1014858Y604669D01*
X1014858Y606860D02*
X1016822Y606860D01*
X1016822Y609051D02*
X1014858Y609051D01*
X1014858Y611242D02*
X1016822Y611242D01*
X1016822Y613433D02*
X1014858Y613433D01*
X1014858Y615624D02*
X1016822Y615624D01*
X1017358Y677978D02*
X1019322Y677978D01*
X1017358Y677978D02*
X1017358Y692442D01*
X1019322Y692442D01*
X1019322Y677978D01*
X1019322Y680169D02*
X1017358Y680169D01*
X1017358Y682360D02*
X1019322Y682360D01*
X1019322Y684551D02*
X1017358Y684551D01*
X1017358Y686742D02*
X1019322Y686742D01*
X1019322Y688933D02*
X1017358Y688933D01*
X1017358Y691124D02*
X1019322Y691124D01*
X1019858Y602478D02*
X1021822Y602478D01*
X1019858Y602478D02*
X1019858Y616942D01*
X1021822Y616942D01*
X1021822Y602478D01*
X1021822Y604669D02*
X1019858Y604669D01*
X1019858Y606860D02*
X1021822Y606860D01*
X1021822Y609051D02*
X1019858Y609051D01*
X1019858Y611242D02*
X1021822Y611242D01*
X1021822Y613433D02*
X1019858Y613433D01*
X1019858Y615624D02*
X1021822Y615624D01*
X1022358Y677978D02*
X1024322Y677978D01*
X1022358Y677978D02*
X1022358Y692442D01*
X1024322Y692442D01*
X1024322Y677978D01*
X1024322Y680169D02*
X1022358Y680169D01*
X1022358Y682360D02*
X1024322Y682360D01*
X1024322Y684551D02*
X1022358Y684551D01*
X1022358Y686742D02*
X1024322Y686742D01*
X1024322Y688933D02*
X1022358Y688933D01*
X1022358Y691124D02*
X1024322Y691124D01*
X1024858Y602478D02*
X1026822Y602478D01*
X1024858Y602478D02*
X1024858Y616942D01*
X1026822Y616942D01*
X1026822Y602478D01*
X1026822Y604669D02*
X1024858Y604669D01*
X1024858Y606860D02*
X1026822Y606860D01*
X1026822Y609051D02*
X1024858Y609051D01*
X1024858Y611242D02*
X1026822Y611242D01*
X1026822Y613433D02*
X1024858Y613433D01*
X1024858Y615624D02*
X1026822Y615624D01*
X1027358Y677978D02*
X1029322Y677978D01*
X1027358Y677978D02*
X1027358Y692442D01*
X1029322Y692442D01*
X1029322Y677978D01*
X1029322Y680169D02*
X1027358Y680169D01*
X1027358Y682360D02*
X1029322Y682360D01*
X1029322Y684551D02*
X1027358Y684551D01*
X1027358Y686742D02*
X1029322Y686742D01*
X1029322Y688933D02*
X1027358Y688933D01*
X1027358Y691124D02*
X1029322Y691124D01*
X1029858Y602478D02*
X1031822Y602478D01*
X1029858Y602478D02*
X1029858Y616942D01*
X1031822Y616942D01*
X1031822Y602478D01*
X1031822Y604669D02*
X1029858Y604669D01*
X1029858Y606860D02*
X1031822Y606860D01*
X1031822Y609051D02*
X1029858Y609051D01*
X1029858Y611242D02*
X1031822Y611242D01*
X1031822Y613433D02*
X1029858Y613433D01*
X1029858Y615624D02*
X1031822Y615624D01*
X1032358Y677978D02*
X1034322Y677978D01*
X1032358Y677978D02*
X1032358Y692442D01*
X1034322Y692442D01*
X1034322Y677978D01*
X1034322Y680169D02*
X1032358Y680169D01*
X1032358Y682360D02*
X1034322Y682360D01*
X1034322Y684551D02*
X1032358Y684551D01*
X1032358Y686742D02*
X1034322Y686742D01*
X1034322Y688933D02*
X1032358Y688933D01*
X1032358Y691124D02*
X1034322Y691124D01*
X1034858Y602478D02*
X1036822Y602478D01*
X1034858Y602478D02*
X1034858Y616942D01*
X1036822Y616942D01*
X1036822Y602478D01*
X1036822Y604669D02*
X1034858Y604669D01*
X1034858Y606860D02*
X1036822Y606860D01*
X1036822Y609051D02*
X1034858Y609051D01*
X1034858Y611242D02*
X1036822Y611242D01*
X1036822Y613433D02*
X1034858Y613433D01*
X1034858Y615624D02*
X1036822Y615624D01*
X1037358Y677978D02*
X1039322Y677978D01*
X1037358Y677978D02*
X1037358Y692442D01*
X1039322Y692442D01*
X1039322Y677978D01*
X1039322Y680169D02*
X1037358Y680169D01*
X1037358Y682360D02*
X1039322Y682360D01*
X1039322Y684551D02*
X1037358Y684551D01*
X1037358Y686742D02*
X1039322Y686742D01*
X1039322Y688933D02*
X1037358Y688933D01*
X1037358Y691124D02*
X1039322Y691124D01*
X1039858Y602478D02*
X1041822Y602478D01*
X1039858Y602478D02*
X1039858Y616942D01*
X1041822Y616942D01*
X1041822Y602478D01*
X1041822Y604669D02*
X1039858Y604669D01*
X1039858Y606860D02*
X1041822Y606860D01*
X1041822Y609051D02*
X1039858Y609051D01*
X1039858Y611242D02*
X1041822Y611242D01*
X1041822Y613433D02*
X1039858Y613433D01*
X1039858Y615624D02*
X1041822Y615624D01*
X1042358Y677978D02*
X1044322Y677978D01*
X1042358Y677978D02*
X1042358Y692442D01*
X1044322Y692442D01*
X1044322Y677978D01*
X1044322Y680169D02*
X1042358Y680169D01*
X1042358Y682360D02*
X1044322Y682360D01*
X1044322Y684551D02*
X1042358Y684551D01*
X1042358Y686742D02*
X1044322Y686742D01*
X1044322Y688933D02*
X1042358Y688933D01*
X1042358Y691124D02*
X1044322Y691124D01*
X1044858Y602478D02*
X1046822Y602478D01*
X1044858Y602478D02*
X1044858Y616942D01*
X1046822Y616942D01*
X1046822Y602478D01*
X1046822Y604669D02*
X1044858Y604669D01*
X1044858Y606860D02*
X1046822Y606860D01*
X1046822Y609051D02*
X1044858Y609051D01*
X1044858Y611242D02*
X1046822Y611242D01*
X1046822Y613433D02*
X1044858Y613433D01*
X1044858Y615624D02*
X1046822Y615624D01*
X1047358Y677978D02*
X1049322Y677978D01*
X1047358Y677978D02*
X1047358Y692442D01*
X1049322Y692442D01*
X1049322Y677978D01*
X1049322Y680169D02*
X1047358Y680169D01*
X1047358Y682360D02*
X1049322Y682360D01*
X1049322Y684551D02*
X1047358Y684551D01*
X1047358Y686742D02*
X1049322Y686742D01*
X1049322Y688933D02*
X1047358Y688933D01*
X1047358Y691124D02*
X1049322Y691124D01*
X1049858Y602478D02*
X1051822Y602478D01*
X1049858Y602478D02*
X1049858Y616942D01*
X1051822Y616942D01*
X1051822Y602478D01*
X1051822Y604669D02*
X1049858Y604669D01*
X1049858Y606860D02*
X1051822Y606860D01*
X1051822Y609051D02*
X1049858Y609051D01*
X1049858Y611242D02*
X1051822Y611242D01*
X1051822Y613433D02*
X1049858Y613433D01*
X1049858Y615624D02*
X1051822Y615624D01*
X1052358Y677978D02*
X1054322Y677978D01*
X1052358Y677978D02*
X1052358Y692442D01*
X1054322Y692442D01*
X1054322Y677978D01*
X1054322Y680169D02*
X1052358Y680169D01*
X1052358Y682360D02*
X1054322Y682360D01*
X1054322Y684551D02*
X1052358Y684551D01*
X1052358Y686742D02*
X1054322Y686742D01*
X1054322Y688933D02*
X1052358Y688933D01*
X1052358Y691124D02*
X1054322Y691124D01*
X1054858Y602478D02*
X1056822Y602478D01*
X1054858Y602478D02*
X1054858Y616942D01*
X1056822Y616942D01*
X1056822Y602478D01*
X1056822Y604669D02*
X1054858Y604669D01*
X1054858Y606860D02*
X1056822Y606860D01*
X1056822Y609051D02*
X1054858Y609051D01*
X1054858Y611242D02*
X1056822Y611242D01*
X1056822Y613433D02*
X1054858Y613433D01*
X1054858Y615624D02*
X1056822Y615624D01*
X1057358Y677978D02*
X1059322Y677978D01*
X1057358Y677978D02*
X1057358Y692442D01*
X1059322Y692442D01*
X1059322Y677978D01*
X1059322Y680169D02*
X1057358Y680169D01*
X1057358Y682360D02*
X1059322Y682360D01*
X1059322Y684551D02*
X1057358Y684551D01*
X1057358Y686742D02*
X1059322Y686742D01*
X1059322Y688933D02*
X1057358Y688933D01*
X1057358Y691124D02*
X1059322Y691124D01*
X1059858Y602478D02*
X1061822Y602478D01*
X1059858Y602478D02*
X1059858Y616942D01*
X1061822Y616942D01*
X1061822Y602478D01*
X1061822Y604669D02*
X1059858Y604669D01*
X1059858Y606860D02*
X1061822Y606860D01*
X1061822Y609051D02*
X1059858Y609051D01*
X1059858Y611242D02*
X1061822Y611242D01*
X1061822Y613433D02*
X1059858Y613433D01*
X1059858Y615624D02*
X1061822Y615624D01*
X1062358Y677978D02*
X1064322Y677978D01*
X1062358Y677978D02*
X1062358Y692442D01*
X1064322Y692442D01*
X1064322Y677978D01*
X1064322Y680169D02*
X1062358Y680169D01*
X1062358Y682360D02*
X1064322Y682360D01*
X1064322Y684551D02*
X1062358Y684551D01*
X1062358Y686742D02*
X1064322Y686742D01*
X1064322Y688933D02*
X1062358Y688933D01*
X1062358Y691124D02*
X1064322Y691124D01*
X1064858Y602478D02*
X1066822Y602478D01*
X1064858Y602478D02*
X1064858Y616942D01*
X1066822Y616942D01*
X1066822Y602478D01*
X1066822Y604669D02*
X1064858Y604669D01*
X1064858Y606860D02*
X1066822Y606860D01*
X1066822Y609051D02*
X1064858Y609051D01*
X1064858Y611242D02*
X1066822Y611242D01*
X1066822Y613433D02*
X1064858Y613433D01*
X1064858Y615624D02*
X1066822Y615624D01*
X1067358Y677978D02*
X1069322Y677978D01*
X1067358Y677978D02*
X1067358Y692442D01*
X1069322Y692442D01*
X1069322Y677978D01*
X1069322Y680169D02*
X1067358Y680169D01*
X1067358Y682360D02*
X1069322Y682360D01*
X1069322Y684551D02*
X1067358Y684551D01*
X1067358Y686742D02*
X1069322Y686742D01*
X1069322Y688933D02*
X1067358Y688933D01*
X1067358Y691124D02*
X1069322Y691124D01*
X1069858Y602478D02*
X1071822Y602478D01*
X1069858Y602478D02*
X1069858Y616942D01*
X1071822Y616942D01*
X1071822Y602478D01*
X1071822Y604669D02*
X1069858Y604669D01*
X1069858Y606860D02*
X1071822Y606860D01*
X1071822Y609051D02*
X1069858Y609051D01*
X1069858Y611242D02*
X1071822Y611242D01*
X1071822Y613433D02*
X1069858Y613433D01*
X1069858Y615624D02*
X1071822Y615624D01*
X1072358Y677978D02*
X1074322Y677978D01*
X1072358Y677978D02*
X1072358Y692442D01*
X1074322Y692442D01*
X1074322Y677978D01*
X1074322Y680169D02*
X1072358Y680169D01*
X1072358Y682360D02*
X1074322Y682360D01*
X1074322Y684551D02*
X1072358Y684551D01*
X1072358Y686742D02*
X1074322Y686742D01*
X1074322Y688933D02*
X1072358Y688933D01*
X1072358Y691124D02*
X1074322Y691124D01*
X1074858Y602478D02*
X1076822Y602478D01*
X1074858Y602478D02*
X1074858Y616942D01*
X1076822Y616942D01*
X1076822Y602478D01*
X1076822Y604669D02*
X1074858Y604669D01*
X1074858Y606860D02*
X1076822Y606860D01*
X1076822Y609051D02*
X1074858Y609051D01*
X1074858Y611242D02*
X1076822Y611242D01*
X1076822Y613433D02*
X1074858Y613433D01*
X1074858Y615624D02*
X1076822Y615624D01*
X1077358Y677978D02*
X1079322Y677978D01*
X1077358Y677978D02*
X1077358Y692442D01*
X1079322Y692442D01*
X1079322Y677978D01*
X1079322Y680169D02*
X1077358Y680169D01*
X1077358Y682360D02*
X1079322Y682360D01*
X1079322Y684551D02*
X1077358Y684551D01*
X1077358Y686742D02*
X1079322Y686742D01*
X1079322Y688933D02*
X1077358Y688933D01*
X1077358Y691124D02*
X1079322Y691124D01*
X1079858Y602478D02*
X1081822Y602478D01*
X1079858Y602478D02*
X1079858Y616942D01*
X1081822Y616942D01*
X1081822Y602478D01*
X1081822Y604669D02*
X1079858Y604669D01*
X1079858Y606860D02*
X1081822Y606860D01*
X1081822Y609051D02*
X1079858Y609051D01*
X1079858Y611242D02*
X1081822Y611242D01*
X1081822Y613433D02*
X1079858Y613433D01*
X1079858Y615624D02*
X1081822Y615624D01*
X1082358Y677978D02*
X1084322Y677978D01*
X1082358Y677978D02*
X1082358Y692442D01*
X1084322Y692442D01*
X1084322Y677978D01*
X1084322Y680169D02*
X1082358Y680169D01*
X1082358Y682360D02*
X1084322Y682360D01*
X1084322Y684551D02*
X1082358Y684551D01*
X1082358Y686742D02*
X1084322Y686742D01*
X1084322Y688933D02*
X1082358Y688933D01*
X1082358Y691124D02*
X1084322Y691124D01*
X1084858Y602478D02*
X1086822Y602478D01*
X1084858Y602478D02*
X1084858Y616942D01*
X1086822Y616942D01*
X1086822Y602478D01*
X1086822Y604669D02*
X1084858Y604669D01*
X1084858Y606860D02*
X1086822Y606860D01*
X1086822Y609051D02*
X1084858Y609051D01*
X1084858Y611242D02*
X1086822Y611242D01*
X1086822Y613433D02*
X1084858Y613433D01*
X1084858Y615624D02*
X1086822Y615624D01*
X1087358Y677978D02*
X1089322Y677978D01*
X1087358Y677978D02*
X1087358Y692442D01*
X1089322Y692442D01*
X1089322Y677978D01*
X1089322Y680169D02*
X1087358Y680169D01*
X1087358Y682360D02*
X1089322Y682360D01*
X1089322Y684551D02*
X1087358Y684551D01*
X1087358Y686742D02*
X1089322Y686742D01*
X1089322Y688933D02*
X1087358Y688933D01*
X1087358Y691124D02*
X1089322Y691124D01*
X1089858Y602478D02*
X1091822Y602478D01*
X1089858Y602478D02*
X1089858Y616942D01*
X1091822Y616942D01*
X1091822Y602478D01*
X1091822Y604669D02*
X1089858Y604669D01*
X1089858Y606860D02*
X1091822Y606860D01*
X1091822Y609051D02*
X1089858Y609051D01*
X1089858Y611242D02*
X1091822Y611242D01*
X1091822Y613433D02*
X1089858Y613433D01*
X1089858Y615624D02*
X1091822Y615624D01*
X1092358Y677978D02*
X1094322Y677978D01*
X1092358Y677978D02*
X1092358Y692442D01*
X1094322Y692442D01*
X1094322Y677978D01*
X1094322Y680169D02*
X1092358Y680169D01*
X1092358Y682360D02*
X1094322Y682360D01*
X1094322Y684551D02*
X1092358Y684551D01*
X1092358Y686742D02*
X1094322Y686742D01*
X1094322Y688933D02*
X1092358Y688933D01*
X1092358Y691124D02*
X1094322Y691124D01*
X1094858Y602478D02*
X1096822Y602478D01*
X1094858Y602478D02*
X1094858Y616942D01*
X1096822Y616942D01*
X1096822Y602478D01*
X1096822Y604669D02*
X1094858Y604669D01*
X1094858Y606860D02*
X1096822Y606860D01*
X1096822Y609051D02*
X1094858Y609051D01*
X1094858Y611242D02*
X1096822Y611242D01*
X1096822Y613433D02*
X1094858Y613433D01*
X1094858Y615624D02*
X1096822Y615624D01*
X1097358Y677978D02*
X1099322Y677978D01*
X1097358Y677978D02*
X1097358Y692442D01*
X1099322Y692442D01*
X1099322Y677978D01*
X1099322Y680169D02*
X1097358Y680169D01*
X1097358Y682360D02*
X1099322Y682360D01*
X1099322Y684551D02*
X1097358Y684551D01*
X1097358Y686742D02*
X1099322Y686742D01*
X1099322Y688933D02*
X1097358Y688933D01*
X1097358Y691124D02*
X1099322Y691124D01*
D28*
X257477Y136607D02*
X257477Y121653D01*
X251523Y121653D01*
X251523Y136607D01*
X257477Y136607D01*
X257477Y123853D02*
X251523Y123853D01*
X251523Y126053D02*
X257477Y126053D01*
X257477Y128253D02*
X251523Y128253D01*
X251523Y130453D02*
X257477Y130453D01*
X257477Y132653D02*
X251523Y132653D01*
X251523Y134853D02*
X257477Y134853D01*
X268477Y136607D02*
X268477Y121653D01*
X262523Y121653D01*
X262523Y136607D01*
X268477Y136607D01*
X268477Y123853D02*
X262523Y123853D01*
X262523Y126053D02*
X268477Y126053D01*
X268477Y128253D02*
X262523Y128253D01*
X262523Y130453D02*
X268477Y130453D01*
X268477Y132653D02*
X262523Y132653D01*
X262523Y134853D02*
X268477Y134853D01*
X279477Y136607D02*
X279477Y121653D01*
X273523Y121653D01*
X273523Y136607D01*
X279477Y136607D01*
X279477Y123853D02*
X273523Y123853D01*
X273523Y126053D02*
X279477Y126053D01*
X279477Y128253D02*
X273523Y128253D01*
X273523Y130453D02*
X279477Y130453D01*
X279477Y132653D02*
X273523Y132653D01*
X273523Y134853D02*
X279477Y134853D01*
X246477Y136607D02*
X246477Y121653D01*
X240523Y121653D01*
X240523Y136607D01*
X246477Y136607D01*
X246477Y123853D02*
X240523Y123853D01*
X240523Y126053D02*
X246477Y126053D01*
X246477Y128253D02*
X240523Y128253D01*
X240523Y130453D02*
X246477Y130453D01*
X246477Y132653D02*
X240523Y132653D01*
X240523Y134853D02*
X246477Y134853D01*
X235477Y136607D02*
X235477Y121653D01*
X229523Y121653D01*
X229523Y136607D01*
X235477Y136607D01*
X235477Y123853D02*
X229523Y123853D01*
X229523Y126053D02*
X235477Y126053D01*
X235477Y128253D02*
X229523Y128253D01*
X229523Y130453D02*
X235477Y130453D01*
X235477Y132653D02*
X229523Y132653D01*
X229523Y134853D02*
X235477Y134853D01*
X224477Y136607D02*
X224477Y121653D01*
X218523Y121653D01*
X218523Y136607D01*
X224477Y136607D01*
X224477Y123853D02*
X218523Y123853D01*
X218523Y126053D02*
X224477Y126053D01*
X224477Y128253D02*
X218523Y128253D01*
X218523Y130453D02*
X224477Y130453D01*
X224477Y132653D02*
X218523Y132653D01*
X218523Y134853D02*
X224477Y134853D01*
X213477Y136607D02*
X213477Y121653D01*
X207523Y121653D01*
X207523Y136607D01*
X213477Y136607D01*
X213477Y123853D02*
X207523Y123853D01*
X207523Y126053D02*
X213477Y126053D01*
X213477Y128253D02*
X207523Y128253D01*
X207523Y130453D02*
X213477Y130453D01*
X213477Y132653D02*
X207523Y132653D01*
X207523Y134853D02*
X213477Y134853D01*
X202477Y136607D02*
X202477Y121653D01*
X196523Y121653D01*
X196523Y136607D01*
X202477Y136607D01*
X202477Y123853D02*
X196523Y123853D01*
X196523Y126053D02*
X202477Y126053D01*
X202477Y128253D02*
X196523Y128253D01*
X196523Y130453D02*
X202477Y130453D01*
X202477Y132653D02*
X196523Y132653D01*
X196523Y134853D02*
X202477Y134853D01*
X191477Y136607D02*
X191477Y121653D01*
X185523Y121653D01*
X185523Y136607D01*
X191477Y136607D01*
X191477Y123853D02*
X185523Y123853D01*
X185523Y126053D02*
X191477Y126053D01*
X191477Y128253D02*
X185523Y128253D01*
X185523Y130453D02*
X191477Y130453D01*
X191477Y132653D02*
X185523Y132653D01*
X185523Y134853D02*
X191477Y134853D01*
D22*
X284500Y24130D03*
X204500Y24130D03*
D11*
X325993Y17623D02*
X337007Y17623D01*
X325993Y17623D02*
X325993Y38637D01*
X337007Y38637D01*
X337007Y17623D01*
X337007Y19766D02*
X325993Y19766D01*
X325993Y21909D02*
X337007Y21909D01*
X337007Y24052D02*
X325993Y24052D01*
X325993Y26195D02*
X337007Y26195D01*
X337007Y28338D02*
X325993Y28338D01*
X325993Y30481D02*
X337007Y30481D01*
X337007Y32624D02*
X325993Y32624D01*
X325993Y34767D02*
X337007Y34767D01*
X337007Y36910D02*
X325993Y36910D01*
X182007Y17623D02*
X170993Y17623D01*
X170993Y38637D01*
X182007Y38637D01*
X182007Y17623D01*
X182007Y19766D02*
X170993Y19766D01*
X170993Y21909D02*
X182007Y21909D01*
X182007Y24052D02*
X170993Y24052D01*
X170993Y26195D02*
X182007Y26195D01*
X182007Y28338D02*
X170993Y28338D01*
X170993Y30481D02*
X182007Y30481D01*
X182007Y32624D02*
X170993Y32624D01*
X170993Y34767D02*
X182007Y34767D01*
X182007Y36910D02*
X170993Y36910D01*
D29*
X315010Y117640D02*
X329990Y117640D01*
X315010Y117640D02*
X315010Y130620D01*
X329990Y130620D01*
X329990Y117640D01*
X329990Y119816D02*
X315010Y119816D01*
X315010Y121992D02*
X329990Y121992D01*
X329990Y124168D02*
X315010Y124168D01*
X315010Y126344D02*
X329990Y126344D01*
X329990Y128520D02*
X315010Y128520D01*
D11*
X182007Y115623D02*
X170993Y115623D01*
X170993Y130637D01*
X182007Y130637D01*
X182007Y115623D01*
X182007Y117766D02*
X170993Y117766D01*
X170993Y119909D02*
X182007Y119909D01*
X182007Y122052D02*
X170993Y122052D01*
X170993Y124195D02*
X182007Y124195D01*
X182007Y126338D02*
X170993Y126338D01*
X170993Y128481D02*
X182007Y128481D01*
X182007Y130624D02*
X170993Y130624D01*
D17*
X247078Y150576D02*
X247078Y160592D01*
X247078Y150576D02*
X238062Y150576D01*
X238062Y160592D01*
X247078Y160592D01*
X247078Y152717D02*
X238062Y152717D01*
X238062Y154858D02*
X247078Y154858D01*
X247078Y156999D02*
X238062Y156999D01*
X238062Y159140D02*
X247078Y159140D01*
X247078Y167576D02*
X247078Y177592D01*
X247078Y167576D02*
X238062Y167576D01*
X238062Y177592D01*
X247078Y177592D01*
X247078Y169717D02*
X238062Y169717D01*
X238062Y171858D02*
X247078Y171858D01*
X247078Y173999D02*
X238062Y173999D01*
X238062Y176140D02*
X247078Y176140D01*
X39180Y271398D02*
X39180Y281414D01*
X48196Y281414D01*
X48196Y271398D01*
X39180Y271398D01*
X39180Y273539D02*
X48196Y273539D01*
X48196Y275680D02*
X39180Y275680D01*
X39180Y277821D02*
X48196Y277821D01*
X48196Y279962D02*
X39180Y279962D01*
X39180Y264414D02*
X39180Y254398D01*
X39180Y264414D02*
X48196Y264414D01*
X48196Y254398D01*
X39180Y254398D01*
X39180Y256539D02*
X48196Y256539D01*
X48196Y258680D02*
X39180Y258680D01*
X39180Y260821D02*
X48196Y260821D01*
X48196Y262962D02*
X39180Y262962D01*
D20*
X29916Y261650D02*
X22928Y261650D01*
X29916Y261650D02*
X29916Y254662D01*
X22928Y254662D01*
X22928Y261650D01*
X22928Y258731D02*
X29916Y258731D01*
X29916Y279190D02*
X22928Y279190D01*
X29916Y279190D02*
X29916Y272202D01*
X22928Y272202D01*
X22928Y279190D01*
X22928Y276271D02*
X29916Y276271D01*
D12*
X812200Y210566D03*
X433200Y209804D03*
D30*
X71503Y183644D02*
X65911Y183644D01*
X71503Y183644D02*
X71503Y171956D01*
X65911Y171956D01*
X65911Y183644D01*
X65911Y174125D02*
X71503Y174125D01*
X71503Y176294D02*
X65911Y176294D01*
X65911Y178463D02*
X71503Y178463D01*
X71503Y180632D02*
X65911Y180632D01*
X65911Y182801D02*
X71503Y182801D01*
X61089Y183644D02*
X55497Y183644D01*
X61089Y183644D02*
X61089Y171956D01*
X55497Y171956D01*
X55497Y183644D01*
X55497Y174125D02*
X61089Y174125D01*
X61089Y176294D02*
X55497Y176294D01*
X55497Y178463D02*
X61089Y178463D01*
X61089Y180632D02*
X55497Y180632D01*
X55497Y182801D02*
X61089Y182801D01*
M02*
