M48
;GenerationSoftware,Autodesk,EAGLE,9.6.2*%
;CreationDate,2021-08-02T18:52:10Z*%
FMAT,2
ICI,OFF
METRIC,TZ,000.000
T11C0.305
T10C0.350
T9C0.400
T8C0.508
T7C0.650
T6C1.000
T5C1.016
T4C1.100
T3C1.600
T2C3.048
T1C3.800
%
G90
M71
T1
X119620Y21006
X81220Y21057
X24997Y27274
X43320Y20980
T2
X2540Y68580
X121412Y68453
X121920Y2540
X2540Y2540
T3
X38956Y47498
X72230Y63246
X110584Y63246
T4
X18956Y47498
X52230Y63246
X90584Y63246
T5
X4115Y53746
X13310Y33807
X10770Y33807
T6
X28450Y2413
X20450Y2413
T7
X13050Y5311
X7270Y5311
T8
X2476Y58426
X2476Y59696
X2476Y60966
X2476Y62236
X2476Y63506
X3746Y62236
X3746Y60966
X3746Y59696
X3746Y58426
X3746Y63506
T9
X14478Y1661
X14478Y5841
X5842Y5841
X5842Y1661
T10
X70968Y59334
X17551Y59258
X16205Y43688
X109322Y59411
X19558Y43688
T11
X91415Y66980
X74041Y62484
X76073Y66751
X67081Y63576
X65862Y65024
X63500Y65532
X57556Y66040
X57328Y72873
X50089Y64821
X29464Y55982
X30836Y55194
X61260Y62662
X38166Y54134
X98717Y58499
X10033Y13437
X12090Y70079
X8052Y44120
X13843Y48336
X8915Y7391
X7925Y8433
X20320Y50038
X21184Y50851
X38100Y43688
X38100Y29723
X49022Y68580
X70815Y67031
X109423Y67081
X98298Y68580
X10668Y41910
X7366Y62738
X16332Y62662
X18288Y32766
X74117Y63703
X76860Y66624
X65278Y51562
X73406Y43434
X24638Y34493
X21107Y38024
X24130Y47244
X25578Y48616
X50292Y67056
X57963Y67005
X58369Y72822
X58141Y70155
X23851Y34519
X21184Y37109
X23876Y48006
X25044Y49251
X50089Y67793
X57328Y67310
X57404Y72136
X57404Y70104
X67310Y65024
X67056Y66523
X66802Y64491
X66548Y67132
X67818Y64008
X67818Y66548
X74752Y63297
X77368Y66116
X22352Y37668
X24765Y35484
X22454Y38532
X25451Y35535
X23705Y60705
X28628Y60690
X55470Y66134
X56500Y66154
X81966Y51587
X77260Y56522
X65024Y65024
X13005Y50927
X52950Y66040
X53990Y66031
X35306Y51562
X34231Y51562
X50856Y66520
X50881Y64925
X34544Y49784
X32766Y51562
X18136Y49530
X7112Y49530
X22073Y50902
X8382Y45212
X63670Y66446
X62967Y67259
X19050Y61976
X6604Y61976
X18542Y61468
X6858Y61214
X96774Y66802
X95250Y65278
X22606Y39624
X26137Y36093
X97282Y62484
X98806Y62484
X7747Y30099
X10084Y12395
X27991Y51511
X12802Y50267
X13818Y20091
X10160Y27965
X14046Y27915
X62560Y51460
X72238Y41504
X20879Y36373
X27305Y32766
X74701Y45847
X64262Y56642
X64516Y64440
X64465Y67158
X97053Y63144
X23114Y40132
X26416Y36830
X100838Y65024
X24196Y60135
X29000Y60000
X23114Y58572
X28473Y58598
X22606Y58064
X28016Y58039
X65303Y54229
X75133Y44577
X64823Y53617
X74623Y44042
X64140Y53031
X74138Y43557
X64745Y50343
X11024Y32029
X100127Y63856
X96876Y63856
X79502Y58166
X69367Y58268
X65659Y50267
X72746Y43155
X73914Y61468
X68326Y67031
X33528Y30734
X34036Y39751
X3302Y26670
X3378Y30582
X7468Y56540
X12014Y54966
X11176Y58420
X82550Y59436
X96012Y59436
X12979Y53619
X17348Y53594
X14834Y11582
X5944Y11582
X7188Y39421
X7188Y37643
X7188Y35865
X10566Y25121
X10566Y23317
X65024Y66548
X10541Y21260
X9246Y60604
X9246Y63906
X109880Y69799
X23724Y18694
X22454Y14884
X22454Y11074
X22936Y60300
X21666Y58014
X30023Y61620
X28270Y57252
X19126Y62840
X32080Y51384
X35966Y51054
X24587Y49886
X19736Y50419
X13157Y54432
X9093Y44069
X32131Y14757
X100254Y65761
X94615Y66040
X71552Y67158
X69190Y66929
X96037Y63119
X52756Y69952
X90932Y70079
X72365Y42494
M30