G04 EAGLE Gerber RS-274X export*
G75*
%MOMM*%
%FSLAX34Y34*%
%LPD*%
%INSoldermask Bottom*%
%IPPOS*%
%AMOC8*
5,1,8,0,0,1.08239X$1,22.5*%
G01*
%ADD10C,6.127000*%
%ADD11C,3.175000*%
%ADD12C,1.227000*%
%ADD13C,1.727000*%
%ADD14C,0.777000*%
%ADD15C,1.127000*%
%ADD16C,1.397000*%
%ADD17C,0.228600*%
%ADD18C,2.006600*%
%ADD19C,0.228344*%
%ADD20C,1.027000*%
%ADD21C,1.270000*%
%ADD22C,1.627000*%

G36*
X1220535Y2009152D02*
X1220535Y2009152D01*
X1220601Y2009154D01*
X1220644Y2009172D01*
X1220691Y2009180D01*
X1220748Y2009214D01*
X1220808Y2009239D01*
X1220843Y2009270D01*
X1220884Y2009295D01*
X1220926Y2009346D01*
X1220974Y2009390D01*
X1220996Y2009432D01*
X1221025Y2009469D01*
X1221046Y2009531D01*
X1221077Y2009590D01*
X1221085Y2009644D01*
X1221097Y2009681D01*
X1221096Y2009721D01*
X1221104Y2009775D01*
X1221104Y2013585D01*
X1221093Y2013650D01*
X1221091Y2013716D01*
X1221073Y2013759D01*
X1221065Y2013806D01*
X1221031Y2013863D01*
X1221006Y2013923D01*
X1220975Y2013958D01*
X1220950Y2013999D01*
X1220899Y2014041D01*
X1220855Y2014089D01*
X1220813Y2014111D01*
X1220776Y2014140D01*
X1220714Y2014161D01*
X1220655Y2014192D01*
X1220601Y2014200D01*
X1220564Y2014212D01*
X1220524Y2014211D01*
X1220470Y2014219D01*
X1217930Y2014219D01*
X1217865Y2014208D01*
X1217799Y2014206D01*
X1217756Y2014188D01*
X1217709Y2014180D01*
X1217652Y2014146D01*
X1217592Y2014121D01*
X1217557Y2014090D01*
X1217516Y2014065D01*
X1217475Y2014014D01*
X1217426Y2013970D01*
X1217404Y2013928D01*
X1217375Y2013891D01*
X1217354Y2013829D01*
X1217323Y2013770D01*
X1217315Y2013716D01*
X1217303Y2013679D01*
X1217303Y2013675D01*
X1217303Y2013674D01*
X1217304Y2013639D01*
X1217296Y2013585D01*
X1217296Y2009775D01*
X1217307Y2009710D01*
X1217309Y2009644D01*
X1217327Y2009601D01*
X1217335Y2009554D01*
X1217369Y2009497D01*
X1217394Y2009437D01*
X1217425Y2009402D01*
X1217450Y2009361D01*
X1217501Y2009320D01*
X1217545Y2009271D01*
X1217587Y2009249D01*
X1217624Y2009220D01*
X1217686Y2009199D01*
X1217745Y2009168D01*
X1217799Y2009160D01*
X1217836Y2009148D01*
X1217876Y2009149D01*
X1217930Y2009141D01*
X1220470Y2009141D01*
X1220535Y2009152D01*
G37*
G36*
X1219265Y1971052D02*
X1219265Y1971052D01*
X1219331Y1971054D01*
X1219374Y1971072D01*
X1219421Y1971080D01*
X1219478Y1971114D01*
X1219538Y1971139D01*
X1219573Y1971170D01*
X1219614Y1971195D01*
X1219656Y1971246D01*
X1219704Y1971290D01*
X1219726Y1971332D01*
X1219755Y1971369D01*
X1219776Y1971431D01*
X1219807Y1971490D01*
X1219815Y1971544D01*
X1219827Y1971581D01*
X1219826Y1971621D01*
X1219834Y1971675D01*
X1219834Y1975485D01*
X1219823Y1975550D01*
X1219821Y1975616D01*
X1219803Y1975659D01*
X1219795Y1975706D01*
X1219761Y1975763D01*
X1219736Y1975823D01*
X1219705Y1975858D01*
X1219680Y1975899D01*
X1219629Y1975941D01*
X1219585Y1975989D01*
X1219543Y1976011D01*
X1219506Y1976040D01*
X1219444Y1976061D01*
X1219385Y1976092D01*
X1219331Y1976100D01*
X1219294Y1976112D01*
X1219254Y1976111D01*
X1219200Y1976119D01*
X1216660Y1976119D01*
X1216595Y1976108D01*
X1216529Y1976106D01*
X1216486Y1976088D01*
X1216439Y1976080D01*
X1216382Y1976046D01*
X1216322Y1976021D01*
X1216287Y1975990D01*
X1216246Y1975965D01*
X1216205Y1975914D01*
X1216156Y1975870D01*
X1216134Y1975828D01*
X1216105Y1975791D01*
X1216084Y1975729D01*
X1216053Y1975670D01*
X1216045Y1975616D01*
X1216033Y1975579D01*
X1216033Y1975575D01*
X1216033Y1975574D01*
X1216034Y1975539D01*
X1216026Y1975485D01*
X1216026Y1971675D01*
X1216037Y1971610D01*
X1216039Y1971544D01*
X1216057Y1971501D01*
X1216065Y1971454D01*
X1216099Y1971397D01*
X1216124Y1971337D01*
X1216155Y1971302D01*
X1216180Y1971261D01*
X1216231Y1971220D01*
X1216275Y1971171D01*
X1216317Y1971149D01*
X1216354Y1971120D01*
X1216416Y1971099D01*
X1216475Y1971068D01*
X1216529Y1971060D01*
X1216566Y1971048D01*
X1216606Y1971049D01*
X1216660Y1971041D01*
X1219200Y1971041D01*
X1219265Y1971052D01*
G37*
G36*
X1220535Y1938032D02*
X1220535Y1938032D01*
X1220601Y1938034D01*
X1220644Y1938052D01*
X1220691Y1938060D01*
X1220748Y1938094D01*
X1220808Y1938119D01*
X1220843Y1938150D01*
X1220884Y1938175D01*
X1220926Y1938226D01*
X1220974Y1938270D01*
X1220996Y1938312D01*
X1221025Y1938349D01*
X1221046Y1938411D01*
X1221077Y1938470D01*
X1221085Y1938524D01*
X1221097Y1938561D01*
X1221096Y1938601D01*
X1221104Y1938655D01*
X1221104Y1942465D01*
X1221093Y1942530D01*
X1221091Y1942596D01*
X1221073Y1942639D01*
X1221065Y1942686D01*
X1221031Y1942743D01*
X1221006Y1942803D01*
X1220975Y1942838D01*
X1220950Y1942879D01*
X1220899Y1942921D01*
X1220855Y1942969D01*
X1220813Y1942991D01*
X1220776Y1943020D01*
X1220714Y1943041D01*
X1220655Y1943072D01*
X1220601Y1943080D01*
X1220564Y1943092D01*
X1220524Y1943091D01*
X1220470Y1943099D01*
X1217930Y1943099D01*
X1217865Y1943088D01*
X1217799Y1943086D01*
X1217756Y1943068D01*
X1217709Y1943060D01*
X1217652Y1943026D01*
X1217592Y1943001D01*
X1217557Y1942970D01*
X1217516Y1942945D01*
X1217475Y1942894D01*
X1217426Y1942850D01*
X1217404Y1942808D01*
X1217375Y1942771D01*
X1217354Y1942709D01*
X1217323Y1942650D01*
X1217315Y1942596D01*
X1217303Y1942559D01*
X1217303Y1942555D01*
X1217303Y1942554D01*
X1217304Y1942519D01*
X1217296Y1942465D01*
X1217296Y1938655D01*
X1217307Y1938590D01*
X1217309Y1938524D01*
X1217327Y1938481D01*
X1217335Y1938434D01*
X1217369Y1938377D01*
X1217394Y1938317D01*
X1217425Y1938282D01*
X1217450Y1938241D01*
X1217501Y1938200D01*
X1217545Y1938151D01*
X1217587Y1938129D01*
X1217624Y1938100D01*
X1217686Y1938079D01*
X1217745Y1938048D01*
X1217799Y1938040D01*
X1217836Y1938028D01*
X1217876Y1938029D01*
X1217930Y1938021D01*
X1220470Y1938021D01*
X1220535Y1938032D01*
G37*
G36*
X1141795Y1778012D02*
X1141795Y1778012D01*
X1141861Y1778014D01*
X1141904Y1778032D01*
X1141951Y1778040D01*
X1142008Y1778074D01*
X1142068Y1778099D01*
X1142103Y1778130D01*
X1142144Y1778155D01*
X1142186Y1778206D01*
X1142234Y1778250D01*
X1142256Y1778292D01*
X1142285Y1778329D01*
X1142306Y1778391D01*
X1142337Y1778450D01*
X1142345Y1778504D01*
X1142357Y1778541D01*
X1142356Y1778581D01*
X1142364Y1778635D01*
X1142364Y1782445D01*
X1142353Y1782510D01*
X1142351Y1782576D01*
X1142333Y1782619D01*
X1142325Y1782666D01*
X1142291Y1782723D01*
X1142266Y1782783D01*
X1142235Y1782818D01*
X1142210Y1782859D01*
X1142159Y1782901D01*
X1142115Y1782949D01*
X1142073Y1782971D01*
X1142036Y1783000D01*
X1141974Y1783021D01*
X1141915Y1783052D01*
X1141861Y1783060D01*
X1141824Y1783072D01*
X1141784Y1783071D01*
X1141730Y1783079D01*
X1139190Y1783079D01*
X1139125Y1783068D01*
X1139059Y1783066D01*
X1139016Y1783048D01*
X1138969Y1783040D01*
X1138912Y1783006D01*
X1138852Y1782981D01*
X1138817Y1782950D01*
X1138776Y1782925D01*
X1138735Y1782874D01*
X1138686Y1782830D01*
X1138664Y1782788D01*
X1138635Y1782751D01*
X1138614Y1782689D01*
X1138583Y1782630D01*
X1138575Y1782576D01*
X1138563Y1782539D01*
X1138563Y1782535D01*
X1138563Y1782534D01*
X1138564Y1782499D01*
X1138556Y1782445D01*
X1138556Y1778635D01*
X1138567Y1778570D01*
X1138569Y1778504D01*
X1138587Y1778461D01*
X1138595Y1778414D01*
X1138629Y1778357D01*
X1138654Y1778297D01*
X1138685Y1778262D01*
X1138710Y1778221D01*
X1138761Y1778180D01*
X1138805Y1778131D01*
X1138847Y1778109D01*
X1138884Y1778080D01*
X1138946Y1778059D01*
X1139005Y1778028D01*
X1139059Y1778020D01*
X1139096Y1778008D01*
X1139136Y1778009D01*
X1139190Y1778001D01*
X1141730Y1778001D01*
X1141795Y1778012D01*
G37*
G36*
X1220535Y1231912D02*
X1220535Y1231912D01*
X1220601Y1231914D01*
X1220644Y1231932D01*
X1220691Y1231940D01*
X1220748Y1231974D01*
X1220808Y1231999D01*
X1220843Y1232030D01*
X1220884Y1232055D01*
X1220926Y1232106D01*
X1220974Y1232150D01*
X1220996Y1232192D01*
X1221025Y1232229D01*
X1221046Y1232291D01*
X1221077Y1232350D01*
X1221085Y1232404D01*
X1221097Y1232441D01*
X1221096Y1232481D01*
X1221104Y1232535D01*
X1221104Y1236345D01*
X1221093Y1236410D01*
X1221091Y1236476D01*
X1221073Y1236519D01*
X1221065Y1236566D01*
X1221031Y1236623D01*
X1221006Y1236683D01*
X1220975Y1236718D01*
X1220950Y1236759D01*
X1220899Y1236801D01*
X1220855Y1236849D01*
X1220813Y1236871D01*
X1220776Y1236900D01*
X1220714Y1236921D01*
X1220655Y1236952D01*
X1220601Y1236960D01*
X1220564Y1236972D01*
X1220524Y1236971D01*
X1220470Y1236979D01*
X1217930Y1236979D01*
X1217865Y1236968D01*
X1217799Y1236966D01*
X1217756Y1236948D01*
X1217709Y1236940D01*
X1217652Y1236906D01*
X1217592Y1236881D01*
X1217557Y1236850D01*
X1217516Y1236825D01*
X1217475Y1236774D01*
X1217426Y1236730D01*
X1217404Y1236688D01*
X1217375Y1236651D01*
X1217354Y1236589D01*
X1217323Y1236530D01*
X1217315Y1236476D01*
X1217303Y1236439D01*
X1217303Y1236435D01*
X1217303Y1236434D01*
X1217304Y1236399D01*
X1217296Y1236345D01*
X1217296Y1232535D01*
X1217307Y1232470D01*
X1217309Y1232404D01*
X1217327Y1232361D01*
X1217335Y1232314D01*
X1217369Y1232257D01*
X1217394Y1232197D01*
X1217425Y1232162D01*
X1217450Y1232121D01*
X1217501Y1232080D01*
X1217545Y1232031D01*
X1217587Y1232009D01*
X1217624Y1231980D01*
X1217686Y1231959D01*
X1217745Y1231928D01*
X1217799Y1231920D01*
X1217836Y1231908D01*
X1217876Y1231909D01*
X1217930Y1231901D01*
X1220470Y1231901D01*
X1220535Y1231912D01*
G37*
G36*
X1219265Y1193812D02*
X1219265Y1193812D01*
X1219331Y1193814D01*
X1219374Y1193832D01*
X1219421Y1193840D01*
X1219478Y1193874D01*
X1219538Y1193899D01*
X1219573Y1193930D01*
X1219614Y1193955D01*
X1219656Y1194006D01*
X1219704Y1194050D01*
X1219726Y1194092D01*
X1219755Y1194129D01*
X1219776Y1194191D01*
X1219807Y1194250D01*
X1219815Y1194304D01*
X1219827Y1194341D01*
X1219826Y1194381D01*
X1219834Y1194435D01*
X1219834Y1198245D01*
X1219823Y1198310D01*
X1219821Y1198376D01*
X1219803Y1198419D01*
X1219795Y1198466D01*
X1219761Y1198523D01*
X1219736Y1198583D01*
X1219705Y1198618D01*
X1219680Y1198659D01*
X1219629Y1198701D01*
X1219585Y1198749D01*
X1219543Y1198771D01*
X1219506Y1198800D01*
X1219444Y1198821D01*
X1219385Y1198852D01*
X1219331Y1198860D01*
X1219294Y1198872D01*
X1219254Y1198871D01*
X1219200Y1198879D01*
X1216660Y1198879D01*
X1216595Y1198868D01*
X1216529Y1198866D01*
X1216486Y1198848D01*
X1216439Y1198840D01*
X1216382Y1198806D01*
X1216322Y1198781D01*
X1216287Y1198750D01*
X1216246Y1198725D01*
X1216205Y1198674D01*
X1216156Y1198630D01*
X1216134Y1198588D01*
X1216105Y1198551D01*
X1216084Y1198489D01*
X1216053Y1198430D01*
X1216045Y1198376D01*
X1216033Y1198339D01*
X1216033Y1198335D01*
X1216033Y1198334D01*
X1216034Y1198299D01*
X1216026Y1198245D01*
X1216026Y1194435D01*
X1216037Y1194370D01*
X1216039Y1194304D01*
X1216057Y1194261D01*
X1216065Y1194214D01*
X1216099Y1194157D01*
X1216124Y1194097D01*
X1216155Y1194062D01*
X1216180Y1194021D01*
X1216231Y1193980D01*
X1216275Y1193931D01*
X1216317Y1193909D01*
X1216354Y1193880D01*
X1216416Y1193859D01*
X1216475Y1193828D01*
X1216529Y1193820D01*
X1216566Y1193808D01*
X1216606Y1193809D01*
X1216660Y1193801D01*
X1219200Y1193801D01*
X1219265Y1193812D01*
G37*
G36*
X1220535Y1160792D02*
X1220535Y1160792D01*
X1220601Y1160794D01*
X1220644Y1160812D01*
X1220691Y1160820D01*
X1220748Y1160854D01*
X1220808Y1160879D01*
X1220843Y1160910D01*
X1220884Y1160935D01*
X1220926Y1160986D01*
X1220974Y1161030D01*
X1220996Y1161072D01*
X1221025Y1161109D01*
X1221046Y1161171D01*
X1221077Y1161230D01*
X1221085Y1161284D01*
X1221097Y1161321D01*
X1221096Y1161361D01*
X1221104Y1161415D01*
X1221104Y1165225D01*
X1221093Y1165290D01*
X1221091Y1165356D01*
X1221073Y1165399D01*
X1221065Y1165446D01*
X1221031Y1165503D01*
X1221006Y1165563D01*
X1220975Y1165598D01*
X1220950Y1165639D01*
X1220899Y1165681D01*
X1220855Y1165729D01*
X1220813Y1165751D01*
X1220776Y1165780D01*
X1220714Y1165801D01*
X1220655Y1165832D01*
X1220601Y1165840D01*
X1220564Y1165852D01*
X1220524Y1165851D01*
X1220470Y1165859D01*
X1217930Y1165859D01*
X1217865Y1165848D01*
X1217799Y1165846D01*
X1217756Y1165828D01*
X1217709Y1165820D01*
X1217652Y1165786D01*
X1217592Y1165761D01*
X1217557Y1165730D01*
X1217516Y1165705D01*
X1217475Y1165654D01*
X1217426Y1165610D01*
X1217404Y1165568D01*
X1217375Y1165531D01*
X1217354Y1165469D01*
X1217323Y1165410D01*
X1217315Y1165356D01*
X1217303Y1165319D01*
X1217303Y1165315D01*
X1217303Y1165314D01*
X1217304Y1165279D01*
X1217296Y1165225D01*
X1217296Y1161415D01*
X1217307Y1161350D01*
X1217309Y1161284D01*
X1217327Y1161241D01*
X1217335Y1161194D01*
X1217369Y1161137D01*
X1217394Y1161077D01*
X1217425Y1161042D01*
X1217450Y1161001D01*
X1217501Y1160960D01*
X1217545Y1160911D01*
X1217587Y1160889D01*
X1217624Y1160860D01*
X1217686Y1160839D01*
X1217745Y1160808D01*
X1217799Y1160800D01*
X1217836Y1160788D01*
X1217876Y1160789D01*
X1217930Y1160781D01*
X1220470Y1160781D01*
X1220535Y1160792D01*
G37*
G36*
X1141795Y1000772D02*
X1141795Y1000772D01*
X1141861Y1000774D01*
X1141904Y1000792D01*
X1141951Y1000800D01*
X1142008Y1000834D01*
X1142068Y1000859D01*
X1142103Y1000890D01*
X1142144Y1000915D01*
X1142186Y1000966D01*
X1142234Y1001010D01*
X1142256Y1001052D01*
X1142285Y1001089D01*
X1142306Y1001151D01*
X1142337Y1001210D01*
X1142345Y1001264D01*
X1142357Y1001301D01*
X1142356Y1001341D01*
X1142364Y1001395D01*
X1142364Y1005205D01*
X1142353Y1005270D01*
X1142351Y1005336D01*
X1142333Y1005379D01*
X1142325Y1005426D01*
X1142291Y1005483D01*
X1142266Y1005543D01*
X1142235Y1005578D01*
X1142210Y1005619D01*
X1142159Y1005661D01*
X1142115Y1005709D01*
X1142073Y1005731D01*
X1142036Y1005760D01*
X1141974Y1005781D01*
X1141915Y1005812D01*
X1141861Y1005820D01*
X1141824Y1005832D01*
X1141784Y1005831D01*
X1141730Y1005839D01*
X1139190Y1005839D01*
X1139125Y1005828D01*
X1139059Y1005826D01*
X1139016Y1005808D01*
X1138969Y1005800D01*
X1138912Y1005766D01*
X1138852Y1005741D01*
X1138817Y1005710D01*
X1138776Y1005685D01*
X1138735Y1005634D01*
X1138686Y1005590D01*
X1138664Y1005548D01*
X1138635Y1005511D01*
X1138614Y1005449D01*
X1138583Y1005390D01*
X1138575Y1005336D01*
X1138563Y1005299D01*
X1138563Y1005295D01*
X1138563Y1005294D01*
X1138564Y1005259D01*
X1138556Y1005205D01*
X1138556Y1001395D01*
X1138567Y1001330D01*
X1138569Y1001264D01*
X1138587Y1001221D01*
X1138595Y1001174D01*
X1138629Y1001117D01*
X1138654Y1001057D01*
X1138685Y1001022D01*
X1138710Y1000981D01*
X1138761Y1000940D01*
X1138805Y1000891D01*
X1138847Y1000869D01*
X1138884Y1000840D01*
X1138946Y1000819D01*
X1139005Y1000788D01*
X1139059Y1000780D01*
X1139096Y1000768D01*
X1139136Y1000769D01*
X1139190Y1000761D01*
X1141730Y1000761D01*
X1141795Y1000772D01*
G37*
G36*
X1220535Y454672D02*
X1220535Y454672D01*
X1220601Y454674D01*
X1220644Y454692D01*
X1220691Y454700D01*
X1220748Y454734D01*
X1220808Y454759D01*
X1220843Y454790D01*
X1220884Y454815D01*
X1220926Y454866D01*
X1220974Y454910D01*
X1220996Y454952D01*
X1221025Y454989D01*
X1221046Y455051D01*
X1221077Y455110D01*
X1221085Y455164D01*
X1221097Y455201D01*
X1221096Y455241D01*
X1221104Y455295D01*
X1221104Y459105D01*
X1221093Y459170D01*
X1221091Y459236D01*
X1221073Y459279D01*
X1221065Y459326D01*
X1221031Y459383D01*
X1221006Y459443D01*
X1220975Y459478D01*
X1220950Y459519D01*
X1220899Y459561D01*
X1220855Y459609D01*
X1220813Y459631D01*
X1220776Y459660D01*
X1220714Y459681D01*
X1220655Y459712D01*
X1220601Y459720D01*
X1220564Y459732D01*
X1220524Y459731D01*
X1220470Y459739D01*
X1217930Y459739D01*
X1217865Y459728D01*
X1217799Y459726D01*
X1217756Y459708D01*
X1217709Y459700D01*
X1217652Y459666D01*
X1217592Y459641D01*
X1217557Y459610D01*
X1217516Y459585D01*
X1217475Y459534D01*
X1217426Y459490D01*
X1217404Y459448D01*
X1217375Y459411D01*
X1217354Y459349D01*
X1217323Y459290D01*
X1217315Y459236D01*
X1217303Y459199D01*
X1217303Y459195D01*
X1217303Y459194D01*
X1217304Y459159D01*
X1217296Y459105D01*
X1217296Y455295D01*
X1217307Y455230D01*
X1217309Y455164D01*
X1217327Y455121D01*
X1217335Y455074D01*
X1217369Y455017D01*
X1217394Y454957D01*
X1217425Y454922D01*
X1217450Y454881D01*
X1217501Y454840D01*
X1217545Y454791D01*
X1217587Y454769D01*
X1217624Y454740D01*
X1217686Y454719D01*
X1217745Y454688D01*
X1217799Y454680D01*
X1217836Y454668D01*
X1217876Y454669D01*
X1217930Y454661D01*
X1220470Y454661D01*
X1220535Y454672D01*
G37*
G36*
X1219265Y416572D02*
X1219265Y416572D01*
X1219331Y416574D01*
X1219374Y416592D01*
X1219421Y416600D01*
X1219478Y416634D01*
X1219538Y416659D01*
X1219573Y416690D01*
X1219614Y416715D01*
X1219656Y416766D01*
X1219704Y416810D01*
X1219726Y416852D01*
X1219755Y416889D01*
X1219776Y416951D01*
X1219807Y417010D01*
X1219815Y417064D01*
X1219827Y417101D01*
X1219826Y417141D01*
X1219834Y417195D01*
X1219834Y421005D01*
X1219823Y421070D01*
X1219821Y421136D01*
X1219803Y421179D01*
X1219795Y421226D01*
X1219761Y421283D01*
X1219736Y421343D01*
X1219705Y421378D01*
X1219680Y421419D01*
X1219629Y421461D01*
X1219585Y421509D01*
X1219543Y421531D01*
X1219506Y421560D01*
X1219444Y421581D01*
X1219385Y421612D01*
X1219331Y421620D01*
X1219294Y421632D01*
X1219254Y421631D01*
X1219200Y421639D01*
X1216660Y421639D01*
X1216595Y421628D01*
X1216529Y421626D01*
X1216486Y421608D01*
X1216439Y421600D01*
X1216382Y421566D01*
X1216322Y421541D01*
X1216287Y421510D01*
X1216246Y421485D01*
X1216205Y421434D01*
X1216156Y421390D01*
X1216134Y421348D01*
X1216105Y421311D01*
X1216084Y421249D01*
X1216053Y421190D01*
X1216045Y421136D01*
X1216033Y421099D01*
X1216033Y421095D01*
X1216033Y421094D01*
X1216034Y421059D01*
X1216026Y421005D01*
X1216026Y417195D01*
X1216037Y417130D01*
X1216039Y417064D01*
X1216057Y417021D01*
X1216065Y416974D01*
X1216099Y416917D01*
X1216124Y416857D01*
X1216155Y416822D01*
X1216180Y416781D01*
X1216231Y416740D01*
X1216275Y416691D01*
X1216317Y416669D01*
X1216354Y416640D01*
X1216416Y416619D01*
X1216475Y416588D01*
X1216529Y416580D01*
X1216566Y416568D01*
X1216606Y416569D01*
X1216660Y416561D01*
X1219200Y416561D01*
X1219265Y416572D01*
G37*
G36*
X1220535Y383552D02*
X1220535Y383552D01*
X1220601Y383554D01*
X1220644Y383572D01*
X1220691Y383580D01*
X1220748Y383614D01*
X1220808Y383639D01*
X1220843Y383670D01*
X1220884Y383695D01*
X1220926Y383746D01*
X1220974Y383790D01*
X1220996Y383832D01*
X1221025Y383869D01*
X1221046Y383931D01*
X1221077Y383990D01*
X1221085Y384044D01*
X1221097Y384081D01*
X1221096Y384121D01*
X1221104Y384175D01*
X1221104Y387985D01*
X1221093Y388050D01*
X1221091Y388116D01*
X1221073Y388159D01*
X1221065Y388206D01*
X1221031Y388263D01*
X1221006Y388323D01*
X1220975Y388358D01*
X1220950Y388399D01*
X1220899Y388441D01*
X1220855Y388489D01*
X1220813Y388511D01*
X1220776Y388540D01*
X1220714Y388561D01*
X1220655Y388592D01*
X1220601Y388600D01*
X1220564Y388612D01*
X1220524Y388611D01*
X1220470Y388619D01*
X1217930Y388619D01*
X1217865Y388608D01*
X1217799Y388606D01*
X1217756Y388588D01*
X1217709Y388580D01*
X1217652Y388546D01*
X1217592Y388521D01*
X1217557Y388490D01*
X1217516Y388465D01*
X1217475Y388414D01*
X1217426Y388370D01*
X1217404Y388328D01*
X1217375Y388291D01*
X1217354Y388229D01*
X1217323Y388170D01*
X1217315Y388116D01*
X1217303Y388079D01*
X1217303Y388075D01*
X1217303Y388074D01*
X1217304Y388039D01*
X1217296Y387985D01*
X1217296Y384175D01*
X1217307Y384110D01*
X1217309Y384044D01*
X1217327Y384001D01*
X1217335Y383954D01*
X1217369Y383897D01*
X1217394Y383837D01*
X1217425Y383802D01*
X1217450Y383761D01*
X1217501Y383720D01*
X1217545Y383671D01*
X1217587Y383649D01*
X1217624Y383620D01*
X1217686Y383599D01*
X1217745Y383568D01*
X1217799Y383560D01*
X1217836Y383548D01*
X1217876Y383549D01*
X1217930Y383541D01*
X1220470Y383541D01*
X1220535Y383552D01*
G37*
G36*
X1141795Y223532D02*
X1141795Y223532D01*
X1141861Y223534D01*
X1141904Y223552D01*
X1141951Y223560D01*
X1142008Y223594D01*
X1142068Y223619D01*
X1142103Y223650D01*
X1142144Y223675D01*
X1142186Y223726D01*
X1142234Y223770D01*
X1142256Y223812D01*
X1142285Y223849D01*
X1142306Y223911D01*
X1142337Y223970D01*
X1142345Y224024D01*
X1142357Y224061D01*
X1142356Y224101D01*
X1142364Y224155D01*
X1142364Y227965D01*
X1142353Y228030D01*
X1142351Y228096D01*
X1142333Y228139D01*
X1142325Y228186D01*
X1142291Y228243D01*
X1142266Y228303D01*
X1142235Y228338D01*
X1142210Y228379D01*
X1142159Y228421D01*
X1142115Y228469D01*
X1142073Y228491D01*
X1142036Y228520D01*
X1141974Y228541D01*
X1141915Y228572D01*
X1141861Y228580D01*
X1141824Y228592D01*
X1141784Y228591D01*
X1141730Y228599D01*
X1139190Y228599D01*
X1139125Y228588D01*
X1139059Y228586D01*
X1139016Y228568D01*
X1138969Y228560D01*
X1138912Y228526D01*
X1138852Y228501D01*
X1138817Y228470D01*
X1138776Y228445D01*
X1138735Y228394D01*
X1138686Y228350D01*
X1138664Y228308D01*
X1138635Y228271D01*
X1138614Y228209D01*
X1138583Y228150D01*
X1138575Y228096D01*
X1138563Y228059D01*
X1138563Y228055D01*
X1138563Y228054D01*
X1138564Y228019D01*
X1138556Y227965D01*
X1138556Y224155D01*
X1138567Y224090D01*
X1138569Y224024D01*
X1138587Y223981D01*
X1138595Y223934D01*
X1138629Y223877D01*
X1138654Y223817D01*
X1138685Y223782D01*
X1138710Y223741D01*
X1138761Y223700D01*
X1138805Y223651D01*
X1138847Y223629D01*
X1138884Y223600D01*
X1138946Y223579D01*
X1139005Y223548D01*
X1139059Y223540D01*
X1139096Y223528D01*
X1139136Y223529D01*
X1139190Y223521D01*
X1141730Y223521D01*
X1141795Y223532D01*
G37*
G36*
X1096710Y2252865D02*
X1096710Y2252865D01*
X1096776Y2252867D01*
X1096819Y2252885D01*
X1096866Y2252893D01*
X1096923Y2252927D01*
X1096983Y2252952D01*
X1097018Y2252983D01*
X1097059Y2253008D01*
X1097101Y2253059D01*
X1097149Y2253103D01*
X1097171Y2253145D01*
X1097200Y2253182D01*
X1097221Y2253244D01*
X1097252Y2253303D01*
X1097260Y2253357D01*
X1097272Y2253394D01*
X1097271Y2253434D01*
X1097279Y2253488D01*
X1097279Y2256028D01*
X1097268Y2256093D01*
X1097266Y2256159D01*
X1097248Y2256202D01*
X1097240Y2256249D01*
X1097206Y2256306D01*
X1097181Y2256366D01*
X1097150Y2256401D01*
X1097125Y2256442D01*
X1097074Y2256484D01*
X1097030Y2256532D01*
X1096988Y2256554D01*
X1096951Y2256583D01*
X1096889Y2256604D01*
X1096830Y2256635D01*
X1096776Y2256643D01*
X1096739Y2256655D01*
X1096699Y2256654D01*
X1096645Y2256662D01*
X1092835Y2256662D01*
X1092770Y2256651D01*
X1092704Y2256649D01*
X1092661Y2256631D01*
X1092614Y2256623D01*
X1092557Y2256589D01*
X1092497Y2256564D01*
X1092462Y2256533D01*
X1092421Y2256508D01*
X1092380Y2256457D01*
X1092331Y2256413D01*
X1092309Y2256371D01*
X1092280Y2256334D01*
X1092259Y2256272D01*
X1092228Y2256213D01*
X1092220Y2256159D01*
X1092208Y2256122D01*
X1092208Y2256119D01*
X1092209Y2256082D01*
X1092201Y2256028D01*
X1092201Y2253488D01*
X1092212Y2253423D01*
X1092214Y2253357D01*
X1092232Y2253314D01*
X1092240Y2253267D01*
X1092274Y2253210D01*
X1092299Y2253150D01*
X1092330Y2253115D01*
X1092355Y2253074D01*
X1092406Y2253033D01*
X1092450Y2252984D01*
X1092492Y2252962D01*
X1092529Y2252933D01*
X1092591Y2252912D01*
X1092650Y2252881D01*
X1092704Y2252873D01*
X1092741Y2252861D01*
X1092781Y2252862D01*
X1092835Y2252854D01*
X1096645Y2252854D01*
X1096710Y2252865D01*
G37*
G36*
X1028130Y1649107D02*
X1028130Y1649107D01*
X1028196Y1649109D01*
X1028239Y1649127D01*
X1028286Y1649135D01*
X1028343Y1649169D01*
X1028403Y1649194D01*
X1028438Y1649225D01*
X1028479Y1649250D01*
X1028521Y1649301D01*
X1028569Y1649345D01*
X1028591Y1649387D01*
X1028620Y1649424D01*
X1028641Y1649486D01*
X1028672Y1649545D01*
X1028680Y1649599D01*
X1028692Y1649636D01*
X1028691Y1649676D01*
X1028699Y1649730D01*
X1028699Y1652270D01*
X1028688Y1652335D01*
X1028686Y1652401D01*
X1028668Y1652444D01*
X1028660Y1652491D01*
X1028626Y1652548D01*
X1028601Y1652608D01*
X1028570Y1652643D01*
X1028545Y1652684D01*
X1028494Y1652726D01*
X1028450Y1652774D01*
X1028408Y1652796D01*
X1028371Y1652825D01*
X1028309Y1652846D01*
X1028250Y1652877D01*
X1028196Y1652885D01*
X1028159Y1652897D01*
X1028119Y1652896D01*
X1028065Y1652904D01*
X1024255Y1652904D01*
X1024190Y1652893D01*
X1024124Y1652891D01*
X1024081Y1652873D01*
X1024034Y1652865D01*
X1023977Y1652831D01*
X1023917Y1652806D01*
X1023882Y1652775D01*
X1023841Y1652750D01*
X1023800Y1652699D01*
X1023751Y1652655D01*
X1023729Y1652613D01*
X1023700Y1652576D01*
X1023679Y1652514D01*
X1023648Y1652455D01*
X1023640Y1652401D01*
X1023628Y1652364D01*
X1023628Y1652361D01*
X1023629Y1652324D01*
X1023621Y1652270D01*
X1023621Y1649730D01*
X1023632Y1649665D01*
X1023634Y1649599D01*
X1023652Y1649556D01*
X1023660Y1649509D01*
X1023694Y1649452D01*
X1023719Y1649392D01*
X1023750Y1649357D01*
X1023775Y1649316D01*
X1023826Y1649275D01*
X1023870Y1649226D01*
X1023912Y1649204D01*
X1023949Y1649175D01*
X1024011Y1649154D01*
X1024070Y1649123D01*
X1024124Y1649115D01*
X1024161Y1649103D01*
X1024201Y1649104D01*
X1024255Y1649096D01*
X1028065Y1649096D01*
X1028130Y1649107D01*
G37*
G36*
X1017970Y1649107D02*
X1017970Y1649107D01*
X1018036Y1649109D01*
X1018079Y1649127D01*
X1018126Y1649135D01*
X1018183Y1649169D01*
X1018243Y1649194D01*
X1018278Y1649225D01*
X1018319Y1649250D01*
X1018361Y1649301D01*
X1018409Y1649345D01*
X1018431Y1649387D01*
X1018460Y1649424D01*
X1018481Y1649486D01*
X1018512Y1649545D01*
X1018520Y1649599D01*
X1018532Y1649636D01*
X1018531Y1649676D01*
X1018539Y1649730D01*
X1018539Y1652270D01*
X1018528Y1652335D01*
X1018526Y1652401D01*
X1018508Y1652444D01*
X1018500Y1652491D01*
X1018466Y1652548D01*
X1018441Y1652608D01*
X1018410Y1652643D01*
X1018385Y1652684D01*
X1018334Y1652726D01*
X1018290Y1652774D01*
X1018248Y1652796D01*
X1018211Y1652825D01*
X1018149Y1652846D01*
X1018090Y1652877D01*
X1018036Y1652885D01*
X1017999Y1652897D01*
X1017959Y1652896D01*
X1017905Y1652904D01*
X1014095Y1652904D01*
X1014030Y1652893D01*
X1013964Y1652891D01*
X1013921Y1652873D01*
X1013874Y1652865D01*
X1013817Y1652831D01*
X1013757Y1652806D01*
X1013722Y1652775D01*
X1013681Y1652750D01*
X1013640Y1652699D01*
X1013591Y1652655D01*
X1013569Y1652613D01*
X1013540Y1652576D01*
X1013519Y1652514D01*
X1013488Y1652455D01*
X1013480Y1652401D01*
X1013468Y1652364D01*
X1013468Y1652361D01*
X1013469Y1652324D01*
X1013461Y1652270D01*
X1013461Y1649730D01*
X1013472Y1649665D01*
X1013474Y1649599D01*
X1013492Y1649556D01*
X1013500Y1649509D01*
X1013534Y1649452D01*
X1013559Y1649392D01*
X1013590Y1649357D01*
X1013615Y1649316D01*
X1013666Y1649275D01*
X1013710Y1649226D01*
X1013752Y1649204D01*
X1013789Y1649175D01*
X1013851Y1649154D01*
X1013910Y1649123D01*
X1013964Y1649115D01*
X1014001Y1649103D01*
X1014041Y1649104D01*
X1014095Y1649096D01*
X1017905Y1649096D01*
X1017970Y1649107D01*
G37*
G36*
X1096710Y1475625D02*
X1096710Y1475625D01*
X1096776Y1475627D01*
X1096819Y1475645D01*
X1096866Y1475653D01*
X1096923Y1475687D01*
X1096983Y1475712D01*
X1097018Y1475743D01*
X1097059Y1475768D01*
X1097101Y1475819D01*
X1097149Y1475863D01*
X1097171Y1475905D01*
X1097200Y1475942D01*
X1097221Y1476004D01*
X1097252Y1476063D01*
X1097260Y1476117D01*
X1097272Y1476154D01*
X1097271Y1476194D01*
X1097279Y1476248D01*
X1097279Y1478788D01*
X1097268Y1478853D01*
X1097266Y1478919D01*
X1097248Y1478962D01*
X1097240Y1479009D01*
X1097206Y1479066D01*
X1097181Y1479126D01*
X1097150Y1479161D01*
X1097125Y1479202D01*
X1097074Y1479244D01*
X1097030Y1479292D01*
X1096988Y1479314D01*
X1096951Y1479343D01*
X1096889Y1479364D01*
X1096830Y1479395D01*
X1096776Y1479403D01*
X1096739Y1479415D01*
X1096699Y1479414D01*
X1096645Y1479422D01*
X1092835Y1479422D01*
X1092770Y1479411D01*
X1092704Y1479409D01*
X1092661Y1479391D01*
X1092614Y1479383D01*
X1092557Y1479349D01*
X1092497Y1479324D01*
X1092462Y1479293D01*
X1092421Y1479268D01*
X1092380Y1479217D01*
X1092331Y1479173D01*
X1092309Y1479131D01*
X1092280Y1479094D01*
X1092259Y1479032D01*
X1092228Y1478973D01*
X1092220Y1478919D01*
X1092208Y1478882D01*
X1092208Y1478879D01*
X1092209Y1478842D01*
X1092201Y1478788D01*
X1092201Y1476248D01*
X1092212Y1476183D01*
X1092214Y1476117D01*
X1092232Y1476074D01*
X1092240Y1476027D01*
X1092274Y1475970D01*
X1092299Y1475910D01*
X1092330Y1475875D01*
X1092355Y1475834D01*
X1092406Y1475793D01*
X1092450Y1475744D01*
X1092492Y1475722D01*
X1092529Y1475693D01*
X1092591Y1475672D01*
X1092650Y1475641D01*
X1092704Y1475633D01*
X1092741Y1475621D01*
X1092781Y1475622D01*
X1092835Y1475614D01*
X1096645Y1475614D01*
X1096710Y1475625D01*
G37*
G36*
X1017970Y871867D02*
X1017970Y871867D01*
X1018036Y871869D01*
X1018079Y871887D01*
X1018126Y871895D01*
X1018183Y871929D01*
X1018243Y871954D01*
X1018278Y871985D01*
X1018319Y872010D01*
X1018361Y872061D01*
X1018409Y872105D01*
X1018431Y872147D01*
X1018460Y872184D01*
X1018481Y872246D01*
X1018512Y872305D01*
X1018520Y872359D01*
X1018532Y872396D01*
X1018531Y872436D01*
X1018539Y872490D01*
X1018539Y875030D01*
X1018528Y875095D01*
X1018526Y875161D01*
X1018508Y875204D01*
X1018500Y875251D01*
X1018466Y875308D01*
X1018441Y875368D01*
X1018410Y875403D01*
X1018385Y875444D01*
X1018334Y875486D01*
X1018290Y875534D01*
X1018248Y875556D01*
X1018211Y875585D01*
X1018149Y875606D01*
X1018090Y875637D01*
X1018036Y875645D01*
X1017999Y875657D01*
X1017959Y875656D01*
X1017905Y875664D01*
X1014095Y875664D01*
X1014030Y875653D01*
X1013964Y875651D01*
X1013921Y875633D01*
X1013874Y875625D01*
X1013817Y875591D01*
X1013757Y875566D01*
X1013722Y875535D01*
X1013681Y875510D01*
X1013640Y875459D01*
X1013591Y875415D01*
X1013569Y875373D01*
X1013540Y875336D01*
X1013519Y875274D01*
X1013488Y875215D01*
X1013480Y875161D01*
X1013468Y875124D01*
X1013468Y875121D01*
X1013469Y875084D01*
X1013461Y875030D01*
X1013461Y872490D01*
X1013472Y872425D01*
X1013474Y872359D01*
X1013492Y872316D01*
X1013500Y872269D01*
X1013534Y872212D01*
X1013559Y872152D01*
X1013590Y872117D01*
X1013615Y872076D01*
X1013666Y872035D01*
X1013710Y871986D01*
X1013752Y871964D01*
X1013789Y871935D01*
X1013851Y871914D01*
X1013910Y871883D01*
X1013964Y871875D01*
X1014001Y871863D01*
X1014041Y871864D01*
X1014095Y871856D01*
X1017905Y871856D01*
X1017970Y871867D01*
G37*
G36*
X1028130Y871867D02*
X1028130Y871867D01*
X1028196Y871869D01*
X1028239Y871887D01*
X1028286Y871895D01*
X1028343Y871929D01*
X1028403Y871954D01*
X1028438Y871985D01*
X1028479Y872010D01*
X1028521Y872061D01*
X1028569Y872105D01*
X1028591Y872147D01*
X1028620Y872184D01*
X1028641Y872246D01*
X1028672Y872305D01*
X1028680Y872359D01*
X1028692Y872396D01*
X1028691Y872436D01*
X1028699Y872490D01*
X1028699Y875030D01*
X1028688Y875095D01*
X1028686Y875161D01*
X1028668Y875204D01*
X1028660Y875251D01*
X1028626Y875308D01*
X1028601Y875368D01*
X1028570Y875403D01*
X1028545Y875444D01*
X1028494Y875486D01*
X1028450Y875534D01*
X1028408Y875556D01*
X1028371Y875585D01*
X1028309Y875606D01*
X1028250Y875637D01*
X1028196Y875645D01*
X1028159Y875657D01*
X1028119Y875656D01*
X1028065Y875664D01*
X1024255Y875664D01*
X1024190Y875653D01*
X1024124Y875651D01*
X1024081Y875633D01*
X1024034Y875625D01*
X1023977Y875591D01*
X1023917Y875566D01*
X1023882Y875535D01*
X1023841Y875510D01*
X1023800Y875459D01*
X1023751Y875415D01*
X1023729Y875373D01*
X1023700Y875336D01*
X1023679Y875274D01*
X1023648Y875215D01*
X1023640Y875161D01*
X1023628Y875124D01*
X1023628Y875121D01*
X1023629Y875084D01*
X1023621Y875030D01*
X1023621Y872490D01*
X1023632Y872425D01*
X1023634Y872359D01*
X1023652Y872316D01*
X1023660Y872269D01*
X1023694Y872212D01*
X1023719Y872152D01*
X1023750Y872117D01*
X1023775Y872076D01*
X1023826Y872035D01*
X1023870Y871986D01*
X1023912Y871964D01*
X1023949Y871935D01*
X1024011Y871914D01*
X1024070Y871883D01*
X1024124Y871875D01*
X1024161Y871863D01*
X1024201Y871864D01*
X1024255Y871856D01*
X1028065Y871856D01*
X1028130Y871867D01*
G37*
G36*
X1096710Y698385D02*
X1096710Y698385D01*
X1096776Y698387D01*
X1096819Y698405D01*
X1096866Y698413D01*
X1096923Y698447D01*
X1096983Y698472D01*
X1097018Y698503D01*
X1097059Y698528D01*
X1097101Y698579D01*
X1097149Y698623D01*
X1097171Y698665D01*
X1097200Y698702D01*
X1097221Y698764D01*
X1097252Y698823D01*
X1097260Y698877D01*
X1097272Y698914D01*
X1097271Y698954D01*
X1097279Y699008D01*
X1097279Y701548D01*
X1097268Y701613D01*
X1097266Y701679D01*
X1097248Y701722D01*
X1097240Y701769D01*
X1097206Y701826D01*
X1097181Y701886D01*
X1097150Y701921D01*
X1097125Y701962D01*
X1097074Y702004D01*
X1097030Y702052D01*
X1096988Y702074D01*
X1096951Y702103D01*
X1096889Y702124D01*
X1096830Y702155D01*
X1096776Y702163D01*
X1096739Y702175D01*
X1096699Y702174D01*
X1096645Y702182D01*
X1092835Y702182D01*
X1092770Y702171D01*
X1092704Y702169D01*
X1092661Y702151D01*
X1092614Y702143D01*
X1092557Y702109D01*
X1092497Y702084D01*
X1092462Y702053D01*
X1092421Y702028D01*
X1092380Y701977D01*
X1092331Y701933D01*
X1092309Y701891D01*
X1092280Y701854D01*
X1092259Y701792D01*
X1092228Y701733D01*
X1092220Y701679D01*
X1092208Y701642D01*
X1092208Y701639D01*
X1092209Y701602D01*
X1092201Y701548D01*
X1092201Y699008D01*
X1092212Y698943D01*
X1092214Y698877D01*
X1092232Y698834D01*
X1092240Y698787D01*
X1092274Y698730D01*
X1092299Y698670D01*
X1092330Y698635D01*
X1092355Y698594D01*
X1092406Y698553D01*
X1092450Y698504D01*
X1092492Y698482D01*
X1092529Y698453D01*
X1092591Y698432D01*
X1092650Y698401D01*
X1092704Y698393D01*
X1092741Y698381D01*
X1092781Y698382D01*
X1092835Y698374D01*
X1096645Y698374D01*
X1096710Y698385D01*
G37*
G36*
X1028130Y94627D02*
X1028130Y94627D01*
X1028196Y94629D01*
X1028239Y94647D01*
X1028286Y94655D01*
X1028343Y94689D01*
X1028403Y94714D01*
X1028438Y94745D01*
X1028479Y94770D01*
X1028521Y94821D01*
X1028569Y94865D01*
X1028591Y94907D01*
X1028620Y94944D01*
X1028641Y95006D01*
X1028672Y95065D01*
X1028680Y95119D01*
X1028692Y95156D01*
X1028691Y95196D01*
X1028699Y95250D01*
X1028699Y97790D01*
X1028688Y97855D01*
X1028686Y97921D01*
X1028668Y97964D01*
X1028660Y98011D01*
X1028626Y98068D01*
X1028601Y98128D01*
X1028570Y98163D01*
X1028545Y98204D01*
X1028494Y98246D01*
X1028450Y98294D01*
X1028408Y98316D01*
X1028371Y98345D01*
X1028309Y98366D01*
X1028250Y98397D01*
X1028196Y98405D01*
X1028159Y98417D01*
X1028119Y98416D01*
X1028065Y98424D01*
X1024255Y98424D01*
X1024190Y98413D01*
X1024124Y98411D01*
X1024081Y98393D01*
X1024034Y98385D01*
X1023977Y98351D01*
X1023917Y98326D01*
X1023882Y98295D01*
X1023841Y98270D01*
X1023800Y98219D01*
X1023751Y98175D01*
X1023729Y98133D01*
X1023700Y98096D01*
X1023679Y98034D01*
X1023648Y97975D01*
X1023640Y97921D01*
X1023628Y97884D01*
X1023628Y97881D01*
X1023629Y97844D01*
X1023621Y97790D01*
X1023621Y95250D01*
X1023632Y95185D01*
X1023634Y95119D01*
X1023652Y95076D01*
X1023660Y95029D01*
X1023694Y94972D01*
X1023719Y94912D01*
X1023750Y94877D01*
X1023775Y94836D01*
X1023826Y94795D01*
X1023870Y94746D01*
X1023912Y94724D01*
X1023949Y94695D01*
X1024011Y94674D01*
X1024070Y94643D01*
X1024124Y94635D01*
X1024161Y94623D01*
X1024201Y94624D01*
X1024255Y94616D01*
X1028065Y94616D01*
X1028130Y94627D01*
G37*
G36*
X1017970Y94627D02*
X1017970Y94627D01*
X1018036Y94629D01*
X1018079Y94647D01*
X1018126Y94655D01*
X1018183Y94689D01*
X1018243Y94714D01*
X1018278Y94745D01*
X1018319Y94770D01*
X1018361Y94821D01*
X1018409Y94865D01*
X1018431Y94907D01*
X1018460Y94944D01*
X1018481Y95006D01*
X1018512Y95065D01*
X1018520Y95119D01*
X1018532Y95156D01*
X1018531Y95196D01*
X1018539Y95250D01*
X1018539Y97790D01*
X1018528Y97855D01*
X1018526Y97921D01*
X1018508Y97964D01*
X1018500Y98011D01*
X1018466Y98068D01*
X1018441Y98128D01*
X1018410Y98163D01*
X1018385Y98204D01*
X1018334Y98246D01*
X1018290Y98294D01*
X1018248Y98316D01*
X1018211Y98345D01*
X1018149Y98366D01*
X1018090Y98397D01*
X1018036Y98405D01*
X1017999Y98417D01*
X1017959Y98416D01*
X1017905Y98424D01*
X1014095Y98424D01*
X1014030Y98413D01*
X1013964Y98411D01*
X1013921Y98393D01*
X1013874Y98385D01*
X1013817Y98351D01*
X1013757Y98326D01*
X1013722Y98295D01*
X1013681Y98270D01*
X1013640Y98219D01*
X1013591Y98175D01*
X1013569Y98133D01*
X1013540Y98096D01*
X1013519Y98034D01*
X1013488Y97975D01*
X1013480Y97921D01*
X1013468Y97884D01*
X1013468Y97881D01*
X1013469Y97844D01*
X1013461Y97790D01*
X1013461Y95250D01*
X1013472Y95185D01*
X1013474Y95119D01*
X1013492Y95076D01*
X1013500Y95029D01*
X1013534Y94972D01*
X1013559Y94912D01*
X1013590Y94877D01*
X1013615Y94836D01*
X1013666Y94795D01*
X1013710Y94746D01*
X1013752Y94724D01*
X1013789Y94695D01*
X1013851Y94674D01*
X1013910Y94643D01*
X1013964Y94635D01*
X1014001Y94623D01*
X1014041Y94624D01*
X1014095Y94616D01*
X1017905Y94616D01*
X1017970Y94627D01*
G37*
D10*
X48400Y526542D03*
X994628Y463858D03*
D11*
X1219200Y25400D03*
X25400Y25400D03*
X25400Y711200D03*
X1219200Y711200D03*
D12*
X1055040Y261620D03*
D13*
X855040Y261620D03*
D14*
X1171900Y683486D03*
X1114100Y683486D03*
D15*
X1219838Y114242D03*
X1219838Y126942D03*
X1219838Y139642D03*
X1219838Y152342D03*
X1219838Y101542D03*
X1207138Y114242D03*
X1207138Y126942D03*
X1207138Y139642D03*
X1207138Y152342D03*
X1207138Y101542D03*
D16*
X1182870Y177920D03*
X1168400Y63500D03*
X1219200Y622300D03*
X1220160Y178020D03*
D15*
X30480Y83820D03*
X1217930Y659130D03*
D13*
X1219200Y203200D03*
D17*
X1181862Y627761D02*
X1181862Y633095D01*
X1193546Y633095D01*
X1193546Y627761D01*
X1181862Y627761D01*
X1181862Y629933D02*
X1193546Y629933D01*
X1193546Y632105D02*
X1181862Y632105D01*
X1181862Y624967D02*
X1181862Y619633D01*
X1181862Y624967D02*
X1193546Y624967D01*
X1193546Y619633D01*
X1181862Y619633D01*
X1181862Y621805D02*
X1193546Y621805D01*
X1193546Y623977D02*
X1181862Y623977D01*
D18*
X1122426Y360426D03*
X1147826Y360426D03*
D17*
X1171956Y427355D02*
X1171956Y432689D01*
X1171956Y427355D02*
X1160272Y427355D01*
X1160272Y432689D01*
X1171956Y432689D01*
X1171956Y429527D02*
X1160272Y429527D01*
X1160272Y431699D02*
X1171956Y431699D01*
X1171956Y435483D02*
X1171956Y440817D01*
X1171956Y435483D02*
X1160272Y435483D01*
X1160272Y440817D01*
X1171956Y440817D01*
X1171956Y437655D02*
X1160272Y437655D01*
X1160272Y439827D02*
X1171956Y439827D01*
D19*
X1225044Y383669D02*
X1225044Y378077D01*
X1213356Y378077D01*
X1213356Y383669D01*
X1225044Y383669D01*
X1225044Y380246D02*
X1213356Y380246D01*
X1213356Y382415D02*
X1225044Y382415D01*
X1225044Y388491D02*
X1225044Y394083D01*
X1225044Y388491D02*
X1213356Y388491D01*
X1213356Y394083D01*
X1225044Y394083D01*
X1225044Y390660D02*
X1213356Y390660D01*
X1213356Y392829D02*
X1225044Y392829D01*
D15*
X960100Y683260D03*
X1040100Y683260D03*
D19*
X1225044Y454789D02*
X1225044Y449197D01*
X1213356Y449197D01*
X1213356Y454789D01*
X1225044Y454789D01*
X1225044Y451366D02*
X1213356Y451366D01*
X1213356Y453535D02*
X1225044Y453535D01*
X1225044Y459611D02*
X1225044Y465203D01*
X1225044Y459611D02*
X1213356Y459611D01*
X1213356Y465203D01*
X1225044Y465203D01*
X1225044Y461780D02*
X1213356Y461780D01*
X1213356Y463949D02*
X1225044Y463949D01*
D10*
X430368Y526542D03*
X812924Y526796D03*
D11*
X1219200Y508000D03*
D19*
X1092329Y694434D02*
X1086737Y694434D01*
X1086737Y706122D01*
X1092329Y706122D01*
X1092329Y694434D01*
X1092329Y696603D02*
X1086737Y696603D01*
X1086737Y698772D02*
X1092329Y698772D01*
X1092329Y700941D02*
X1086737Y700941D01*
X1086737Y703110D02*
X1092329Y703110D01*
X1092329Y705279D02*
X1086737Y705279D01*
X1097151Y694434D02*
X1102743Y694434D01*
X1097151Y694434D02*
X1097151Y706122D01*
X1102743Y706122D01*
X1102743Y694434D01*
X1102743Y696603D02*
X1097151Y696603D01*
X1097151Y698772D02*
X1102743Y698772D01*
X1102743Y700941D02*
X1097151Y700941D01*
X1097151Y703110D02*
X1102743Y703110D01*
X1102743Y705279D02*
X1097151Y705279D01*
D12*
X722300Y104140D03*
D13*
X522300Y104140D03*
D12*
X338760Y104140D03*
D13*
X138760Y104140D03*
D19*
X1007870Y90676D02*
X1013462Y90676D01*
X1007870Y90676D02*
X1007870Y102364D01*
X1013462Y102364D01*
X1013462Y90676D01*
X1013462Y92845D02*
X1007870Y92845D01*
X1007870Y95014D02*
X1013462Y95014D01*
X1013462Y97183D02*
X1007870Y97183D01*
X1007870Y99352D02*
X1013462Y99352D01*
X1013462Y101521D02*
X1007870Y101521D01*
X1018284Y90676D02*
X1023876Y90676D01*
X1018284Y90676D02*
X1018284Y102364D01*
X1023876Y102364D01*
X1023876Y90676D01*
X1023876Y92845D02*
X1018284Y92845D01*
X1018284Y95014D02*
X1023876Y95014D01*
X1023876Y97183D02*
X1018284Y97183D01*
X1018284Y99352D02*
X1023876Y99352D01*
X1023876Y101521D02*
X1018284Y101521D01*
X1028698Y90676D02*
X1034290Y90676D01*
X1028698Y90676D02*
X1028698Y102364D01*
X1034290Y102364D01*
X1034290Y90676D01*
X1034290Y92845D02*
X1028698Y92845D01*
X1028698Y95014D02*
X1034290Y95014D01*
X1034290Y97183D02*
X1028698Y97183D01*
X1028698Y99352D02*
X1034290Y99352D01*
X1034290Y101521D02*
X1028698Y101521D01*
D18*
X1148080Y508000D03*
X1122680Y508000D03*
D13*
X1193800Y203200D03*
D20*
X924320Y33020D03*
X894320Y33020D03*
X835420Y33020D03*
X805420Y33020D03*
X1013220Y33020D03*
X983220Y33020D03*
D19*
X1134616Y228471D02*
X1134616Y234063D01*
X1146304Y234063D01*
X1146304Y228471D01*
X1134616Y228471D01*
X1134616Y230640D02*
X1146304Y230640D01*
X1146304Y232809D02*
X1134616Y232809D01*
X1134616Y223649D02*
X1134616Y218057D01*
X1134616Y223649D02*
X1146304Y223649D01*
X1146304Y218057D01*
X1134616Y218057D01*
X1134616Y220226D02*
X1146304Y220226D01*
X1146304Y222395D02*
X1134616Y222395D01*
X1223774Y411097D02*
X1223774Y416689D01*
X1223774Y411097D02*
X1212086Y411097D01*
X1212086Y416689D01*
X1223774Y416689D01*
X1223774Y413266D02*
X1212086Y413266D01*
X1212086Y415435D02*
X1223774Y415435D01*
X1223774Y421511D02*
X1223774Y427103D01*
X1223774Y421511D02*
X1212086Y421511D01*
X1212086Y427103D01*
X1223774Y427103D01*
X1223774Y423680D02*
X1212086Y423680D01*
X1212086Y425849D02*
X1223774Y425849D01*
D18*
X1069340Y74930D03*
X1069340Y49530D03*
D10*
X48400Y1303782D03*
X994628Y1241098D03*
D11*
X1219200Y802640D03*
X25400Y802640D03*
X25400Y1488440D03*
X1219200Y1488440D03*
D12*
X1055040Y1038860D03*
D13*
X855040Y1038860D03*
D14*
X1171900Y1460726D03*
X1114100Y1460726D03*
D15*
X1219838Y891482D03*
X1219838Y904182D03*
X1219838Y916882D03*
X1219838Y929582D03*
X1219838Y878782D03*
X1207138Y891482D03*
X1207138Y904182D03*
X1207138Y916882D03*
X1207138Y929582D03*
X1207138Y878782D03*
D16*
X1182870Y955160D03*
X1168400Y840740D03*
X1219200Y1399540D03*
X1220160Y955260D03*
D15*
X30480Y861060D03*
X1217930Y1436370D03*
D13*
X1219200Y980440D03*
D17*
X1181862Y1405001D02*
X1181862Y1410335D01*
X1193546Y1410335D01*
X1193546Y1405001D01*
X1181862Y1405001D01*
X1181862Y1407173D02*
X1193546Y1407173D01*
X1193546Y1409345D02*
X1181862Y1409345D01*
X1181862Y1402207D02*
X1181862Y1396873D01*
X1181862Y1402207D02*
X1193546Y1402207D01*
X1193546Y1396873D01*
X1181862Y1396873D01*
X1181862Y1399045D02*
X1193546Y1399045D01*
X1193546Y1401217D02*
X1181862Y1401217D01*
D18*
X1122426Y1137666D03*
X1147826Y1137666D03*
D17*
X1171956Y1204595D02*
X1171956Y1209929D01*
X1171956Y1204595D02*
X1160272Y1204595D01*
X1160272Y1209929D01*
X1171956Y1209929D01*
X1171956Y1206767D02*
X1160272Y1206767D01*
X1160272Y1208939D02*
X1171956Y1208939D01*
X1171956Y1212723D02*
X1171956Y1218057D01*
X1171956Y1212723D02*
X1160272Y1212723D01*
X1160272Y1218057D01*
X1171956Y1218057D01*
X1171956Y1214895D02*
X1160272Y1214895D01*
X1160272Y1217067D02*
X1171956Y1217067D01*
D19*
X1225044Y1160909D02*
X1225044Y1155317D01*
X1213356Y1155317D01*
X1213356Y1160909D01*
X1225044Y1160909D01*
X1225044Y1157486D02*
X1213356Y1157486D01*
X1213356Y1159655D02*
X1225044Y1159655D01*
X1225044Y1165731D02*
X1225044Y1171323D01*
X1225044Y1165731D02*
X1213356Y1165731D01*
X1213356Y1171323D01*
X1225044Y1171323D01*
X1225044Y1167900D02*
X1213356Y1167900D01*
X1213356Y1170069D02*
X1225044Y1170069D01*
D15*
X960100Y1460500D03*
X1040100Y1460500D03*
D19*
X1225044Y1232029D02*
X1225044Y1226437D01*
X1213356Y1226437D01*
X1213356Y1232029D01*
X1225044Y1232029D01*
X1225044Y1228606D02*
X1213356Y1228606D01*
X1213356Y1230775D02*
X1225044Y1230775D01*
X1225044Y1236851D02*
X1225044Y1242443D01*
X1225044Y1236851D02*
X1213356Y1236851D01*
X1213356Y1242443D01*
X1225044Y1242443D01*
X1225044Y1239020D02*
X1213356Y1239020D01*
X1213356Y1241189D02*
X1225044Y1241189D01*
D10*
X430368Y1303782D03*
X812924Y1304036D03*
D11*
X1219200Y1285240D03*
D19*
X1092329Y1471674D02*
X1086737Y1471674D01*
X1086737Y1483362D01*
X1092329Y1483362D01*
X1092329Y1471674D01*
X1092329Y1473843D02*
X1086737Y1473843D01*
X1086737Y1476012D02*
X1092329Y1476012D01*
X1092329Y1478181D02*
X1086737Y1478181D01*
X1086737Y1480350D02*
X1092329Y1480350D01*
X1092329Y1482519D02*
X1086737Y1482519D01*
X1097151Y1471674D02*
X1102743Y1471674D01*
X1097151Y1471674D02*
X1097151Y1483362D01*
X1102743Y1483362D01*
X1102743Y1471674D01*
X1102743Y1473843D02*
X1097151Y1473843D01*
X1097151Y1476012D02*
X1102743Y1476012D01*
X1102743Y1478181D02*
X1097151Y1478181D01*
X1097151Y1480350D02*
X1102743Y1480350D01*
X1102743Y1482519D02*
X1097151Y1482519D01*
D12*
X722300Y881380D03*
D13*
X522300Y881380D03*
D12*
X338760Y881380D03*
D13*
X138760Y881380D03*
D19*
X1007870Y867916D02*
X1013462Y867916D01*
X1007870Y867916D02*
X1007870Y879604D01*
X1013462Y879604D01*
X1013462Y867916D01*
X1013462Y870085D02*
X1007870Y870085D01*
X1007870Y872254D02*
X1013462Y872254D01*
X1013462Y874423D02*
X1007870Y874423D01*
X1007870Y876592D02*
X1013462Y876592D01*
X1013462Y878761D02*
X1007870Y878761D01*
X1018284Y867916D02*
X1023876Y867916D01*
X1018284Y867916D02*
X1018284Y879604D01*
X1023876Y879604D01*
X1023876Y867916D01*
X1023876Y870085D02*
X1018284Y870085D01*
X1018284Y872254D02*
X1023876Y872254D01*
X1023876Y874423D02*
X1018284Y874423D01*
X1018284Y876592D02*
X1023876Y876592D01*
X1023876Y878761D02*
X1018284Y878761D01*
X1028698Y867916D02*
X1034290Y867916D01*
X1028698Y867916D02*
X1028698Y879604D01*
X1034290Y879604D01*
X1034290Y867916D01*
X1034290Y870085D02*
X1028698Y870085D01*
X1028698Y872254D02*
X1034290Y872254D01*
X1034290Y874423D02*
X1028698Y874423D01*
X1028698Y876592D02*
X1034290Y876592D01*
X1034290Y878761D02*
X1028698Y878761D01*
D18*
X1148080Y1285240D03*
X1122680Y1285240D03*
D13*
X1193800Y980440D03*
D20*
X924320Y810260D03*
X894320Y810260D03*
X835420Y810260D03*
X805420Y810260D03*
X1013220Y810260D03*
X983220Y810260D03*
D19*
X1134616Y1005711D02*
X1134616Y1011303D01*
X1146304Y1011303D01*
X1146304Y1005711D01*
X1134616Y1005711D01*
X1134616Y1007880D02*
X1146304Y1007880D01*
X1146304Y1010049D02*
X1134616Y1010049D01*
X1134616Y1000889D02*
X1134616Y995297D01*
X1134616Y1000889D02*
X1146304Y1000889D01*
X1146304Y995297D01*
X1134616Y995297D01*
X1134616Y997466D02*
X1146304Y997466D01*
X1146304Y999635D02*
X1134616Y999635D01*
X1223774Y1188337D02*
X1223774Y1193929D01*
X1223774Y1188337D02*
X1212086Y1188337D01*
X1212086Y1193929D01*
X1223774Y1193929D01*
X1223774Y1190506D02*
X1212086Y1190506D01*
X1212086Y1192675D02*
X1223774Y1192675D01*
X1223774Y1198751D02*
X1223774Y1204343D01*
X1223774Y1198751D02*
X1212086Y1198751D01*
X1212086Y1204343D01*
X1223774Y1204343D01*
X1223774Y1200920D02*
X1212086Y1200920D01*
X1212086Y1203089D02*
X1223774Y1203089D01*
D18*
X1069340Y852170D03*
X1069340Y826770D03*
D10*
X48400Y2081022D03*
X994628Y2018338D03*
D11*
X1219200Y1579880D03*
X25400Y1579880D03*
X25400Y2265680D03*
X1219200Y2265680D03*
D12*
X1055040Y1816100D03*
D13*
X855040Y1816100D03*
D14*
X1171900Y2237966D03*
X1114100Y2237966D03*
D15*
X1219838Y1668722D03*
X1219838Y1681422D03*
X1219838Y1694122D03*
X1219838Y1706822D03*
X1219838Y1656022D03*
X1207138Y1668722D03*
X1207138Y1681422D03*
X1207138Y1694122D03*
X1207138Y1706822D03*
X1207138Y1656022D03*
D16*
X1182870Y1732400D03*
X1168400Y1617980D03*
X1219200Y2176780D03*
X1220160Y1732500D03*
D15*
X30480Y1638300D03*
X1217930Y2213610D03*
D13*
X1219200Y1757680D03*
D17*
X1181862Y2182241D02*
X1181862Y2187575D01*
X1193546Y2187575D01*
X1193546Y2182241D01*
X1181862Y2182241D01*
X1181862Y2184413D02*
X1193546Y2184413D01*
X1193546Y2186585D02*
X1181862Y2186585D01*
X1181862Y2179447D02*
X1181862Y2174113D01*
X1181862Y2179447D02*
X1193546Y2179447D01*
X1193546Y2174113D01*
X1181862Y2174113D01*
X1181862Y2176285D02*
X1193546Y2176285D01*
X1193546Y2178457D02*
X1181862Y2178457D01*
D18*
X1122426Y1914906D03*
X1147826Y1914906D03*
D17*
X1171956Y1981835D02*
X1171956Y1987169D01*
X1171956Y1981835D02*
X1160272Y1981835D01*
X1160272Y1987169D01*
X1171956Y1987169D01*
X1171956Y1984007D02*
X1160272Y1984007D01*
X1160272Y1986179D02*
X1171956Y1986179D01*
X1171956Y1989963D02*
X1171956Y1995297D01*
X1171956Y1989963D02*
X1160272Y1989963D01*
X1160272Y1995297D01*
X1171956Y1995297D01*
X1171956Y1992135D02*
X1160272Y1992135D01*
X1160272Y1994307D02*
X1171956Y1994307D01*
D19*
X1225044Y1938149D02*
X1225044Y1932557D01*
X1213356Y1932557D01*
X1213356Y1938149D01*
X1225044Y1938149D01*
X1225044Y1934726D02*
X1213356Y1934726D01*
X1213356Y1936895D02*
X1225044Y1936895D01*
X1225044Y1942971D02*
X1225044Y1948563D01*
X1225044Y1942971D02*
X1213356Y1942971D01*
X1213356Y1948563D01*
X1225044Y1948563D01*
X1225044Y1945140D02*
X1213356Y1945140D01*
X1213356Y1947309D02*
X1225044Y1947309D01*
D15*
X960100Y2237740D03*
X1040100Y2237740D03*
D19*
X1225044Y2009269D02*
X1225044Y2003677D01*
X1213356Y2003677D01*
X1213356Y2009269D01*
X1225044Y2009269D01*
X1225044Y2005846D02*
X1213356Y2005846D01*
X1213356Y2008015D02*
X1225044Y2008015D01*
X1225044Y2014091D02*
X1225044Y2019683D01*
X1225044Y2014091D02*
X1213356Y2014091D01*
X1213356Y2019683D01*
X1225044Y2019683D01*
X1225044Y2016260D02*
X1213356Y2016260D01*
X1213356Y2018429D02*
X1225044Y2018429D01*
D10*
X430368Y2081022D03*
X812924Y2081276D03*
D11*
X1219200Y2062480D03*
D19*
X1092329Y2248914D02*
X1086737Y2248914D01*
X1086737Y2260602D01*
X1092329Y2260602D01*
X1092329Y2248914D01*
X1092329Y2251083D02*
X1086737Y2251083D01*
X1086737Y2253252D02*
X1092329Y2253252D01*
X1092329Y2255421D02*
X1086737Y2255421D01*
X1086737Y2257590D02*
X1092329Y2257590D01*
X1092329Y2259759D02*
X1086737Y2259759D01*
X1097151Y2248914D02*
X1102743Y2248914D01*
X1097151Y2248914D02*
X1097151Y2260602D01*
X1102743Y2260602D01*
X1102743Y2248914D01*
X1102743Y2251083D02*
X1097151Y2251083D01*
X1097151Y2253252D02*
X1102743Y2253252D01*
X1102743Y2255421D02*
X1097151Y2255421D01*
X1097151Y2257590D02*
X1102743Y2257590D01*
X1102743Y2259759D02*
X1097151Y2259759D01*
D12*
X722300Y1658620D03*
D13*
X522300Y1658620D03*
D12*
X338760Y1658620D03*
D13*
X138760Y1658620D03*
D19*
X1007870Y1645156D02*
X1013462Y1645156D01*
X1007870Y1645156D02*
X1007870Y1656844D01*
X1013462Y1656844D01*
X1013462Y1645156D01*
X1013462Y1647325D02*
X1007870Y1647325D01*
X1007870Y1649494D02*
X1013462Y1649494D01*
X1013462Y1651663D02*
X1007870Y1651663D01*
X1007870Y1653832D02*
X1013462Y1653832D01*
X1013462Y1656001D02*
X1007870Y1656001D01*
X1018284Y1645156D02*
X1023876Y1645156D01*
X1018284Y1645156D02*
X1018284Y1656844D01*
X1023876Y1656844D01*
X1023876Y1645156D01*
X1023876Y1647325D02*
X1018284Y1647325D01*
X1018284Y1649494D02*
X1023876Y1649494D01*
X1023876Y1651663D02*
X1018284Y1651663D01*
X1018284Y1653832D02*
X1023876Y1653832D01*
X1023876Y1656001D02*
X1018284Y1656001D01*
X1028698Y1645156D02*
X1034290Y1645156D01*
X1028698Y1645156D02*
X1028698Y1656844D01*
X1034290Y1656844D01*
X1034290Y1645156D01*
X1034290Y1647325D02*
X1028698Y1647325D01*
X1028698Y1649494D02*
X1034290Y1649494D01*
X1034290Y1651663D02*
X1028698Y1651663D01*
X1028698Y1653832D02*
X1034290Y1653832D01*
X1034290Y1656001D02*
X1028698Y1656001D01*
D18*
X1148080Y2062480D03*
X1122680Y2062480D03*
D13*
X1193800Y1757680D03*
D20*
X924320Y1587500D03*
X894320Y1587500D03*
X835420Y1587500D03*
X805420Y1587500D03*
X1013220Y1587500D03*
X983220Y1587500D03*
D19*
X1134616Y1782951D02*
X1134616Y1788543D01*
X1146304Y1788543D01*
X1146304Y1782951D01*
X1134616Y1782951D01*
X1134616Y1785120D02*
X1146304Y1785120D01*
X1146304Y1787289D02*
X1134616Y1787289D01*
X1134616Y1778129D02*
X1134616Y1772537D01*
X1134616Y1778129D02*
X1146304Y1778129D01*
X1146304Y1772537D01*
X1134616Y1772537D01*
X1134616Y1774706D02*
X1146304Y1774706D01*
X1146304Y1776875D02*
X1134616Y1776875D01*
X1223774Y1965577D02*
X1223774Y1971169D01*
X1223774Y1965577D02*
X1212086Y1965577D01*
X1212086Y1971169D01*
X1223774Y1971169D01*
X1223774Y1967746D02*
X1212086Y1967746D01*
X1212086Y1969915D02*
X1223774Y1969915D01*
X1223774Y1975991D02*
X1223774Y1981583D01*
X1223774Y1975991D02*
X1212086Y1975991D01*
X1212086Y1981583D01*
X1223774Y1981583D01*
X1223774Y1978160D02*
X1212086Y1978160D01*
X1212086Y1980329D02*
X1223774Y1980329D01*
D18*
X1069340Y1629410D03*
X1069340Y1604010D03*
D15*
X-26238Y2299970D03*
X1270838Y2299970D03*
D21*
X-35293Y63500D02*
X-35290Y63722D01*
X-35282Y63944D01*
X-35268Y64166D01*
X-35249Y64388D01*
X-35225Y64608D01*
X-35195Y64829D01*
X-35160Y65048D01*
X-35119Y65267D01*
X-35073Y65484D01*
X-35022Y65700D01*
X-34965Y65915D01*
X-34903Y66129D01*
X-34836Y66340D01*
X-34764Y66551D01*
X-34686Y66759D01*
X-34604Y66965D01*
X-34516Y67169D01*
X-34424Y67372D01*
X-34326Y67571D01*
X-34224Y67768D01*
X-34117Y67963D01*
X-34005Y68155D01*
X-33888Y68344D01*
X-33767Y68531D01*
X-33641Y68714D01*
X-33511Y68894D01*
X-33376Y69071D01*
X-33238Y69244D01*
X-33095Y69414D01*
X-32947Y69581D01*
X-32796Y69744D01*
X-32641Y69903D01*
X-32482Y70058D01*
X-32319Y70209D01*
X-32152Y70357D01*
X-31982Y70500D01*
X-31809Y70638D01*
X-31632Y70773D01*
X-31452Y70903D01*
X-31269Y71029D01*
X-31082Y71150D01*
X-30893Y71267D01*
X-30701Y71379D01*
X-30506Y71486D01*
X-30309Y71588D01*
X-30110Y71686D01*
X-29907Y71778D01*
X-29703Y71866D01*
X-29497Y71948D01*
X-29289Y72026D01*
X-29078Y72098D01*
X-28867Y72165D01*
X-28653Y72227D01*
X-28438Y72284D01*
X-28222Y72335D01*
X-28005Y72381D01*
X-27786Y72422D01*
X-27567Y72457D01*
X-27346Y72487D01*
X-27126Y72511D01*
X-26904Y72530D01*
X-26682Y72544D01*
X-26460Y72552D01*
X-26238Y72555D01*
X-26016Y72552D01*
X-25794Y72544D01*
X-25572Y72530D01*
X-25350Y72511D01*
X-25130Y72487D01*
X-24909Y72457D01*
X-24690Y72422D01*
X-24471Y72381D01*
X-24254Y72335D01*
X-24038Y72284D01*
X-23823Y72227D01*
X-23609Y72165D01*
X-23398Y72098D01*
X-23187Y72026D01*
X-22979Y71948D01*
X-22773Y71866D01*
X-22569Y71778D01*
X-22366Y71686D01*
X-22167Y71588D01*
X-21970Y71486D01*
X-21775Y71379D01*
X-21583Y71267D01*
X-21394Y71150D01*
X-21207Y71029D01*
X-21024Y70903D01*
X-20844Y70773D01*
X-20667Y70638D01*
X-20494Y70500D01*
X-20324Y70357D01*
X-20157Y70209D01*
X-19994Y70058D01*
X-19835Y69903D01*
X-19680Y69744D01*
X-19529Y69581D01*
X-19381Y69414D01*
X-19238Y69244D01*
X-19100Y69071D01*
X-18965Y68894D01*
X-18835Y68714D01*
X-18709Y68531D01*
X-18588Y68344D01*
X-18471Y68155D01*
X-18359Y67963D01*
X-18252Y67768D01*
X-18150Y67571D01*
X-18052Y67372D01*
X-17960Y67169D01*
X-17872Y66965D01*
X-17790Y66759D01*
X-17712Y66551D01*
X-17640Y66340D01*
X-17573Y66129D01*
X-17511Y65915D01*
X-17454Y65700D01*
X-17403Y65484D01*
X-17357Y65267D01*
X-17316Y65048D01*
X-17281Y64829D01*
X-17251Y64608D01*
X-17227Y64388D01*
X-17208Y64166D01*
X-17194Y63944D01*
X-17186Y63722D01*
X-17183Y63500D01*
X-17186Y63278D01*
X-17194Y63056D01*
X-17208Y62834D01*
X-17227Y62612D01*
X-17251Y62392D01*
X-17281Y62171D01*
X-17316Y61952D01*
X-17357Y61733D01*
X-17403Y61516D01*
X-17454Y61300D01*
X-17511Y61085D01*
X-17573Y60871D01*
X-17640Y60660D01*
X-17712Y60449D01*
X-17790Y60241D01*
X-17872Y60035D01*
X-17960Y59831D01*
X-18052Y59628D01*
X-18150Y59429D01*
X-18252Y59232D01*
X-18359Y59037D01*
X-18471Y58845D01*
X-18588Y58656D01*
X-18709Y58469D01*
X-18835Y58286D01*
X-18965Y58106D01*
X-19100Y57929D01*
X-19238Y57756D01*
X-19381Y57586D01*
X-19529Y57419D01*
X-19680Y57256D01*
X-19835Y57097D01*
X-19994Y56942D01*
X-20157Y56791D01*
X-20324Y56643D01*
X-20494Y56500D01*
X-20667Y56362D01*
X-20844Y56227D01*
X-21024Y56097D01*
X-21207Y55971D01*
X-21394Y55850D01*
X-21583Y55733D01*
X-21775Y55621D01*
X-21970Y55514D01*
X-22167Y55412D01*
X-22366Y55314D01*
X-22569Y55222D01*
X-22773Y55134D01*
X-22979Y55052D01*
X-23187Y54974D01*
X-23398Y54902D01*
X-23609Y54835D01*
X-23823Y54773D01*
X-24038Y54716D01*
X-24254Y54665D01*
X-24471Y54619D01*
X-24690Y54578D01*
X-24909Y54543D01*
X-25130Y54513D01*
X-25350Y54489D01*
X-25572Y54470D01*
X-25794Y54456D01*
X-26016Y54448D01*
X-26238Y54445D01*
X-26460Y54448D01*
X-26682Y54456D01*
X-26904Y54470D01*
X-27126Y54489D01*
X-27346Y54513D01*
X-27567Y54543D01*
X-27786Y54578D01*
X-28005Y54619D01*
X-28222Y54665D01*
X-28438Y54716D01*
X-28653Y54773D01*
X-28867Y54835D01*
X-29078Y54902D01*
X-29289Y54974D01*
X-29497Y55052D01*
X-29703Y55134D01*
X-29907Y55222D01*
X-30110Y55314D01*
X-30309Y55412D01*
X-30506Y55514D01*
X-30701Y55621D01*
X-30893Y55733D01*
X-31082Y55850D01*
X-31269Y55971D01*
X-31452Y56097D01*
X-31632Y56227D01*
X-31809Y56362D01*
X-31982Y56500D01*
X-32152Y56643D01*
X-32319Y56791D01*
X-32482Y56942D01*
X-32641Y57097D01*
X-32796Y57256D01*
X-32947Y57419D01*
X-33095Y57586D01*
X-33238Y57756D01*
X-33376Y57929D01*
X-33511Y58106D01*
X-33641Y58286D01*
X-33767Y58469D01*
X-33888Y58656D01*
X-34005Y58845D01*
X-34117Y59037D01*
X-34224Y59232D01*
X-34326Y59429D01*
X-34424Y59628D01*
X-34516Y59831D01*
X-34604Y60035D01*
X-34686Y60241D01*
X-34764Y60449D01*
X-34836Y60660D01*
X-34903Y60871D01*
X-34965Y61085D01*
X-35022Y61300D01*
X-35073Y61516D01*
X-35119Y61733D01*
X-35160Y61952D01*
X-35195Y62171D01*
X-35225Y62392D01*
X-35249Y62612D01*
X-35268Y62834D01*
X-35282Y63056D01*
X-35290Y63278D01*
X-35293Y63500D01*
D22*
X-26238Y63500D03*
M02*
