M48
;GenerationSoftware,Autodesk,EAGLE,9.6.2*%
;CreationDate,2022-10-28T17:59:23Z*%
FMAT,2
ICI,OFF
METRIC,TZ,000.000
T13C0.305
T12C0.350
T11C0.400
T10C0.508
T9C0.650
T8C0.900
T7C0.950
T6C1.000
T5C1.016
T4C1.100
T3C1.600
T2C3.048
T1C3.800
%
G90
M71
T1
X43037Y208102
X4840Y130378
X81292Y52680
X99463Y124110
X99463Y201834
X43037Y130378
X81292Y208128
X4840Y208102
X43037Y52654
X81292Y130404
X4840Y52654
X99463Y46386
T2
X121920Y148844
X2540Y148844
X2540Y226568
X2540Y157988
X121920Y206248
X121920Y157988
X121920Y2540
X2540Y2540
X2540Y71120
X121920Y71120
X121920Y226568
X121920Y50800
X2540Y80264
X121920Y128524
X121920Y80264
T3
X13876Y165862
X85504Y26162
X85504Y181610
X52230Y10414
X13876Y10414
X52230Y88138
X13876Y88138
X85504Y103886
X52230Y165862
T4
X33876Y10414
X72230Y88138
X33876Y88138
X72230Y10414
X105504Y26162
X105504Y181610
X33876Y165862
X72230Y165862
X105504Y103886
T5
X118745Y86106
X112268Y128524
X114808Y128524
X114783Y36043
X112243Y36043
X118745Y83566
X112243Y191491
X114808Y206248
X112268Y50800
X112243Y113767
X118745Y163830
X112268Y206248
X114808Y50800
X118745Y161290
X118745Y8382
X118745Y5842
X114783Y191491
X114783Y113767
T6
X96010Y68326
X104010Y68326
X96010Y146050
X104010Y146050
X96010Y223774
X104010Y223774
T7
X121920Y20320
X121920Y175768
X119380Y98044
X119380Y20320
X121920Y98044
X119380Y175768
T8
X92432Y3302
X89432Y3302
X83542Y3302
X80542Y3302
X101322Y3302
X98322Y3302
X92432Y158750
X92432Y81026
X98322Y81026
X83542Y81026
X80542Y81026
X101322Y81026
X98322Y158750
X101322Y158750
X80542Y158750
X89432Y81026
X83542Y158750
X89432Y158750
T9
X117190Y146073
X117190Y223797
X111410Y223797
X111410Y146073
X111410Y68349
X117190Y68349
T10
X122555Y10160
X121285Y11430
X121285Y12700
X121285Y13970
X121285Y15240
X121285Y10160
X122555Y89154
X122555Y90424
X122555Y91694
X122555Y92964
X122555Y11430
X121285Y89154
X121285Y90424
X121285Y91694
X121285Y87884
X122555Y87884
X121285Y170688
X121285Y92964
X122555Y168148
X122555Y169418
X122555Y170688
X122555Y165608
X121285Y166878
X121285Y168148
X121285Y169418
X122555Y166878
X121285Y165608
X122555Y12700
X122555Y13970
X122555Y15240
T11
X109982Y145543
X118618Y223267
X109982Y149723
X118618Y149723
X118618Y71999
X118618Y145543
X118618Y67819
X109982Y67819
X109982Y71999
X118618Y227447
X109982Y227447
X109982Y223267
T12
X108204Y107696
X108204Y29972
X108204Y185420
X104750Y29972
X105461Y29972
X104750Y107696
X105461Y107696
X104750Y185420
X105461Y185420
T13
X89941Y56947
X74930Y66040
X47168Y3658
X110134Y63221
X66040Y66040
X66040Y57150
X74930Y57150
X57150Y66040
X57150Y57150
X48260Y57150
X48260Y66040
X36830Y66040
X36830Y57150
X27940Y57150
X27940Y66040
X19050Y66040
X19050Y57150
X10160Y57150
X10160Y66040
X104013Y1194
X115515Y41250
X104826Y22860
X115468Y39751
X117373Y39624
X87376Y47546
X84074Y26337
X101244Y54102
X72390Y7834
X78592Y5208
X39713Y29896
X84345Y2822
X76356Y8124
X95402Y5385
X104140Y3353
X88544Y965
X80670Y5131
X39290Y19914
X77648Y22276
X76276Y14834
X78461Y14834
X78461Y13335
X76225Y13335
X89129Y43584
X93955Y45796
X86436Y49301
X86487Y45463
X96164Y40993
X101803Y39875
X100686Y36878
X105816Y38199
X102006Y43053
X103403Y41910
X11608Y8661
X53899Y30759
X90932Y31191
X92837Y31191
X96024Y26693
X99657Y26746
X99416Y24333
X112624Y28092
X78765Y3480
X91084Y1676
X91618Y3810
X19050Y43180
X19050Y34290
X10160Y34290
X10160Y43180
X95250Y58979
X94717Y48971
X113436Y16637
X79248Y21412
X87376Y22073
X22809Y14072
X24968Y20422
X44196Y39395
X42342Y16561
X44628Y14148
X47041Y37465
X48311Y36576
X77648Y37186
X79426Y30836
X83185Y25067
X88519Y13284
X88519Y14808
X22352Y9246
X54724Y15418
X62281Y18009
X116916Y10236
X112725Y8204
X112725Y14300
X2540Y34290
X2540Y24130
X2540Y12700
X2540Y43180
X2540Y66040
X2540Y57150
X110998Y6604
X115595Y66269
X119075Y65227
X103734Y23901
X103022Y23038
X86360Y29972
X86513Y44750
X53645Y6401
X15037Y6426
X26162Y5156
X113690Y31953
X117119Y11049
X108255Y11024
X38354Y7874
X102108Y7620
X77010Y5439
X85750Y29972
X15037Y7087
X38354Y8484
X54254Y6401
X77416Y5896
X114148Y32410
X87199Y44775
X105816Y39040
X86716Y24384
X83312Y14834
X83287Y13335
X52654Y25959
X39713Y25908
X83334Y6154
X98882Y25044
X76403Y7391
X66878Y6807
X28194Y6350
X96139Y40005
X100330Y39675
X100351Y26420
X76987Y6502
X67488Y6375
X67005Y3912
X28626Y3912
X101092Y39675
X100330Y42979
X101143Y23927
X101397Y25756
X58471Y8103
X58445Y7010
X57887Y8687
X57912Y6528
X57175Y9068
X57201Y6528
X50216Y9525
X52984Y7087
X96215Y38189
X99670Y38176
X96215Y37287
X100029Y37258
X100755Y12828
X95781Y12741
X88167Y23822
X85598Y14834
X85598Y13335
X86360Y6223
X39624Y20726
X55948Y20752
X78435Y37230
X78359Y22250
X62484Y37668
X62484Y28956
X55372Y18034
X62205Y14884
X68301Y1270
X59512Y3353
X87630Y19202
X87630Y14834
X87630Y13335
X87630Y1088
X89154Y22098
X70510Y7772
X31064Y8255
X90262Y22098
X69672Y7747
X31344Y7188
X90475Y24536
X71374Y7834
X31318Y9754
X92211Y22902
X106020Y24105
X117348Y24130
X102692Y27102
X82474Y21234
X52146Y23038
X39713Y23063
X102362Y23317
X102362Y15113
X95222Y15212
X68732Y15291
X62941Y15265
X53696Y22174
X53721Y17526
X58166Y17526
X116180Y28550
X39713Y22250
X60790Y7214
X61468Y6375
X104775Y11684
X117856Y11684
X105410Y12192
X117602Y12446
X28194Y17272
X65100Y1803
X27686Y1524
X101549Y35865
X96215Y36322
X25402Y17376
X116586Y44831
X121539Y43815
X94183Y22276
X112014Y23368
X15316Y14173
X53873Y14072
X110490Y50292
X87427Y50292
X90678Y50292
X53264Y14072
X14707Y14173
X86716Y50292
X110388Y18999
X79883Y13335
X79883Y14834
X79934Y26492
X79886Y6869
X63525Y41402
X63500Y29972
X54661Y18567
X63551Y18415
X96215Y39116
X102464Y39141
X23139Y8636
X27711Y16612
X25171Y16637
X25730Y10516
X96215Y35408
X100762Y35357
X100264Y13398
X94800Y13336
X101295Y15824
X95580Y15824
X101803Y16383
X95021Y16383
X81509Y23546
X81534Y14834
X81534Y13335
X57137Y23698
X81280Y559
X39713Y23749
X21133Y1803
X20142Y2794
X79629Y559
X79609Y3489
X57137Y24422
X39713Y24435
X51562Y27889
X39713Y27838
X23851Y9830
X27635Y9804
X43840Y19583
X58166Y19558
X50546Y26924
X39713Y26924
X49771Y31991
X45517Y32004
X89814Y33299
X90373Y43840
X122964Y46761
X123134Y39116
X107150Y19850
X117348Y62230
X116840Y36830
X107112Y38100
X115570Y20701
X83972Y19787
X84074Y14834
X84074Y13335
X84449Y3734
X82321Y14834
X82271Y13335
X82296Y19202
X82000Y5144
X41123Y6147
X44094Y5864
X44526Y7671
X41554Y7214
X40843Y7188
X44425Y6528
X91725Y22321
X87376Y26035
X83439Y29185
X86868Y46863
X69672Y14795
X69494Y20269
X56591Y16002
X45212Y16027
X44958Y9144
X40640Y9144
X104648Y8636
X99365Y9144
X87909Y25171
X84836Y14834
X84836Y13335
X69393Y1905
X54000Y3785
X85090Y5208
X88646Y1676
X89476Y5139
X117424Y63043
X113005Y63246
X92710Y1270
X91440Y2540
X77013Y9296
X77013Y13335
X77013Y14834
X77013Y21895
X55931Y21438
X39675Y21488
X21615Y9042
X21590Y13970
X119380Y52705
X87034Y58420
X115443Y22098
X122936Y42799
X93218Y22987
X87122Y26797
X84455Y29972
X87503Y45974
X116865Y96749
X120269Y130810
X116916Y90754
X14580Y81585
X102260Y133960
X102260Y137135
X101524Y91084
X103149Y93447
X105080Y88544
X94107Y100813
X88494Y100330
X114808Y107848
X23724Y86792
X30582Y85293
X33122Y81534
X33198Y84912
X49657Y83871
X93650Y96418
X102019Y101699
X104699Y90576
X118110Y78994
X80747Y92558
X80696Y91059
X83058Y100635
X93904Y91084
X86880Y102943
X104851Y97282
X103454Y97282
X94513Y92596
X42850Y81280
X47295Y86309
X61976Y84658
X59588Y85242
X25121Y88748
X28067Y88138
X96063Y94920
X117526Y104775
X57150Y94463
X63462Y92529
X52908Y84099
X72187Y90703
X25095Y81483
X95783Y89611
X67335Y85166
X25095Y91770
X72466Y81813
X35458Y89408
X35001Y87122
X63576Y84176
X60401Y84125
X39548Y85776
X82245Y97942
X83871Y98323
X57137Y100635
X53137Y100660
X51562Y104445
X56439Y105766
X49581Y108991
X44704Y109245
X39713Y106248
X39713Y102845
X44399Y97866
X44780Y94513
X54229Y95758
X40310Y83769
X44831Y83617
X41173Y85522
X44958Y85979
X44145Y81229
X52959Y81509
X39903Y78943
X28346Y80137
X20345Y81458
X9728Y81458
X8687Y80569
X10973Y82575
X11963Y99695
X10871Y100635
X9855Y101575
X68961Y97409
X63043Y95606
X68250Y92507
X70460Y92583
X67996Y87046
X67412Y80924
X68961Y80188
X58776Y81077
X56693Y84760
X77216Y85141
X95352Y79146
X86335Y91059
X86436Y92558
X30785Y86690
X63271Y106883
X61646Y115291
X62789Y119558
X104152Y104518
X102806Y103985
X49581Y102870
X49505Y97942
X49505Y94971
X49581Y91618
X44348Y102895
X44272Y106248
X87935Y108941
X89408Y108915
X107112Y137770
X91084Y137338
X90145Y145491
X107848Y145644
X29388Y91872
X19761Y91923
X19710Y94209
X59004Y92558
X106223Y93015
X107264Y90932
X34620Y81509
X24232Y84430
X16459Y84557
X36500Y83896
X111277Y121641
X14503Y97765
X13487Y91796
X16408Y88621
X19710Y88621
X19075Y80442
X7671Y79680
X87884Y140208
X87884Y147574
X98069Y86881
X99111Y86131
X97434Y87770
X64948Y95860
X111125Y144018
X117526Y143231
X24536Y95072
X29413Y95580
X121590Y138659
X121590Y141199
X114706Y121641
X112624Y131089
X115418Y124358
X115418Y126136
X88138Y131801
X89941Y134671
X74930Y143764
X47168Y81382
X110134Y140945
X66040Y143764
X66040Y134874
X74930Y134874
X57150Y143764
X57150Y134874
X48260Y134874
X48260Y143764
X36830Y143764
X36830Y134874
X27940Y134874
X27940Y143764
X19050Y143764
X19050Y134874
X10160Y134874
X10160Y143764
X104013Y78918
X115515Y118974
X104826Y100584
X115468Y117475
X117373Y117348
X87376Y125270
X84074Y104061
X101244Y131826
X72390Y85558
X78592Y82932
X39713Y107620
X84345Y80546
X76356Y85848
X95402Y83109
X104140Y81077
X88544Y78689
X80670Y82855
X39290Y97638
X77648Y100000
X76276Y92558
X78461Y92558
X78461Y91059
X76225Y91059
X89129Y121308
X93955Y123520
X86436Y127025
X86487Y123187
X96164Y118717
X101803Y117599
X100686Y114602
X105816Y115923
X102006Y120777
X103403Y119634
X11608Y86385
X53899Y108483
X90932Y108915
X92837Y108915
X96024Y104417
X99657Y104470
X99416Y102057
X112624Y105816
X78765Y81204
X91084Y79400
X91618Y81534
X19050Y120904
X19050Y112014
X10160Y112014
X10160Y120904
X95250Y136703
X94717Y126695
X113436Y94361
X79248Y99136
X87376Y99797
X22809Y91796
X24968Y98146
X44196Y117119
X42342Y94285
X44628Y91872
X47041Y115189
X48311Y114300
X77648Y114910
X79426Y108560
X83185Y102791
X88519Y91008
X88519Y92532
X22352Y86970
X54724Y93142
X62281Y95733
X116916Y87960
X112725Y85928
X112725Y92024
X2540Y112014
X2540Y101854
X2540Y90424
X2540Y120904
X2540Y143764
X2540Y134874
X110998Y84328
X115595Y143993
X119075Y142951
X103734Y101625
X103022Y100762
X86360Y107696
X86513Y122474
X53645Y84125
X15037Y84150
X26162Y82880
X113690Y109677
X117119Y88773
X108255Y88748
X38354Y85598
X102108Y85344
X77010Y83163
X85750Y107696
X15037Y84811
X38354Y86208
X54254Y84125
X77416Y83620
X114148Y110134
X87199Y122499
X105816Y116764
X86716Y102108
X83312Y92558
X83287Y91059
X52654Y103683
X39713Y103632
X83334Y83878
X98882Y102768
X76403Y85115
X66878Y84531
X28194Y84074
X96139Y117729
X100330Y117399
X100351Y104144
X76987Y84226
X67488Y84099
X67005Y81636
X28626Y81636
X101092Y117399
X100330Y120703
X101143Y101651
X101397Y103480
X58471Y85827
X58445Y84734
X57887Y86411
X57912Y84252
X57175Y86792
X57201Y84252
X50216Y87249
X52984Y84811
X96215Y115913
X99670Y115900
X96215Y115011
X100029Y114982
X100755Y90552
X95781Y90465
X88167Y101546
X85598Y92558
X85598Y91059
X86360Y83947
X39624Y98450
X55948Y98476
X78435Y114954
X78359Y99974
X62484Y115392
X62484Y106680
X55372Y95758
X62205Y92608
X68301Y78994
X59512Y81077
X87630Y96926
X87630Y92558
X87630Y91059
X87630Y78812
X89154Y99822
X70510Y85496
X31064Y85979
X90262Y99822
X69672Y85471
X31344Y84912
X90475Y102260
X71374Y85558
X31318Y87478
X92211Y100626
X106020Y101829
X117348Y101854
X102692Y104826
X82474Y98958
X52146Y100762
X39713Y100787
X102362Y101041
X102362Y92837
X95222Y92936
X68732Y93015
X62941Y92989
X53696Y99898
X53721Y95250
X58166Y95250
X116180Y106274
X39713Y99974
X60790Y84938
X61468Y84099
X104775Y89408
X117856Y89408
X105410Y89916
X117602Y90170
X28194Y94996
X65100Y79527
X27686Y79248
X101549Y113589
X96215Y114046
X25402Y95100
X116586Y122555
X121539Y121539
X94183Y100000
X112014Y101092
X15316Y91897
X53873Y91796
X110490Y128016
X87427Y128016
X90678Y128016
X53264Y91796
X14707Y91897
X86716Y128016
X110388Y96723
X79883Y91059
X79883Y92558
X79934Y104216
X79886Y84593
X63525Y119126
X63500Y107696
X54661Y96291
X63551Y96139
X96215Y116840
X102464Y116865
X23139Y86360
X27711Y94336
X25171Y94361
X25730Y88240
X96215Y113132
X100762Y113081
X100264Y91122
X94800Y91060
X101295Y93548
X95580Y93548
X101803Y94107
X95021Y94107
X81509Y101270
X81534Y92558
X81534Y91059
X57137Y101422
X81280Y78283
X39713Y101473
X21133Y79527
X20142Y80518
X79629Y78283
X79609Y81213
X57137Y102146
X39713Y102159
X51562Y105613
X39713Y105562
X23851Y87554
X27635Y87528
X43840Y97307
X58166Y97282
X50546Y104648
X39713Y104648
X49771Y109715
X45517Y109728
X89814Y111023
X90373Y121564
X122964Y124485
X123134Y116840
X107150Y97574
X117348Y139954
X116840Y114554
X107112Y115824
X115570Y98425
X83972Y97511
X84074Y92558
X84074Y91059
X84449Y81458
X82321Y92558
X82271Y91059
X82296Y96926
X82000Y82868
X41123Y83871
X44094Y83588
X44526Y85395
X41554Y84938
X40843Y84912
X44425Y84252
X91725Y100045
X87376Y103759
X83439Y106909
X86868Y124587
X69672Y92519
X69494Y97993
X56591Y93726
X45212Y93751
X44958Y86868
X40640Y86868
X104648Y86360
X99365Y86868
X87909Y102895
X84836Y92558
X84836Y91059
X69393Y79629
X54000Y81509
X85090Y82932
X88646Y79400
X89476Y82863
X117424Y140767
X113005Y140970
X92710Y78994
X91440Y80264
X77013Y87020
X77013Y91059
X77013Y92558
X77013Y99619
X55931Y99162
X39675Y99212
X21615Y86766
X21590Y91694
X119380Y130429
X87034Y136144
X115443Y99822
X122936Y120523
X93218Y100711
X87122Y104521
X84455Y107696
X87503Y123698
X116865Y174473
X120269Y208534
X116916Y168478
X14580Y159309
X102260Y211684
X102260Y214859
X101524Y168808
X103149Y171171
X105080Y166268
X94107Y178537
X88494Y178054
X114808Y185572
X23724Y164516
X30582Y163017
X33122Y159258
X33198Y162636
X49657Y161595
X93650Y174142
X102019Y179423
X104699Y168300
X118110Y156718
X80747Y170282
X80696Y168783
X83058Y178359
X93904Y168808
X86880Y180667
X104851Y175006
X103454Y175006
X94513Y170320
X42850Y159004
X47295Y164033
X61976Y162382
X59588Y162966
X25121Y166472
X28067Y165862
X96063Y172644
X117526Y182499
X57150Y172187
X63462Y170253
X52908Y161823
X72187Y168427
X25095Y159207
X95783Y167335
X67335Y162890
X25095Y169494
X72466Y159537
X35458Y167132
X35001Y164846
X63576Y161900
X60401Y161849
X39548Y163500
X82245Y175666
X83871Y176047
X57137Y178359
X53137Y178384
X51562Y182169
X56439Y183490
X49581Y186715
X44704Y186969
X39713Y183972
X39713Y180569
X44399Y175590
X44780Y172237
X54229Y173482
X40310Y161493
X44831Y161341
X41173Y163246
X44958Y163703
X44145Y158953
X52959Y159233
X39903Y156667
X28346Y157861
X20345Y159182
X9728Y159182
X8687Y158293
X10973Y160299
X11963Y177419
X10871Y178359
X9855Y179299
X68961Y175133
X63043Y173330
X68250Y170231
X70460Y170307
X67996Y164770
X67412Y158648
X68961Y157912
X58776Y158801
X56693Y162484
X77216Y162865
X95352Y156870
X86335Y168783
X86436Y170282
X30785Y164414
X63271Y184607
X61646Y193015
X62789Y197282
X104152Y182242
X102806Y181709
X49581Y180594
X49505Y175666
X49505Y172695
X49581Y169342
X44348Y180619
X44272Y183972
X87935Y186665
X89408Y186639
X107112Y215494
X91084Y215062
X90145Y223215
X107848Y223368
X29388Y169596
X19761Y169647
X19710Y171933
X59004Y170282
X106223Y170739
X107264Y168656
X34620Y159233
X24232Y162154
X16459Y162281
X36500Y161620
X111277Y199365
X14503Y175489
X13487Y169520
X16408Y166345
X19710Y166345
X19075Y158166
X7671Y157404
X87884Y217932
X87884Y225298
X98069Y164605
X99111Y163855
X97434Y165494
X64948Y173584
X111125Y221742
X117526Y220955
X24536Y172796
X29413Y173304
X121590Y216383
X121590Y218923
X114706Y199365
X112624Y208813
X115418Y202082
X115418Y203860
X88138Y209525
X89941Y212395
X74930Y221488
X47168Y159106
X110134Y218669
X66040Y221488
X66040Y212598
X74930Y212598
X57150Y221488
X57150Y212598
X48260Y212598
X48260Y221488
X36830Y221488
X36830Y212598
X27940Y212598
X27940Y221488
X19050Y221488
X19050Y212598
X10160Y212598
X10160Y221488
X104013Y156642
X115515Y196698
X104826Y178308
X115468Y195199
X117373Y195072
X87376Y202994
X84074Y181785
X101244Y209550
X72390Y163282
X78592Y160656
X39713Y185344
X84345Y158270
X76356Y163572
X95402Y160833
X104140Y158801
X88544Y156413
X80670Y160579
X39290Y175362
X77648Y177724
X76276Y170282
X78461Y170282
X78461Y168783
X76225Y168783
X89129Y199032
X93955Y201244
X86436Y204749
X86487Y200911
X96164Y196441
X101803Y195323
X100686Y192326
X105816Y193647
X102006Y198501
X103403Y197358
X11608Y164109
X53899Y186207
X90932Y186639
X92837Y186639
X96024Y182141
X99657Y182194
X99416Y179781
X112624Y183540
X78765Y158928
X91084Y157124
X91618Y159258
X19050Y198628
X19050Y189738
X10160Y189738
X10160Y198628
X95250Y214427
X94717Y204419
X113436Y172085
X79248Y176860
X87376Y177521
X22809Y169520
X24968Y175870
X44196Y194843
X42342Y172009
X44628Y169596
X47041Y192913
X48311Y192024
X77648Y192634
X79426Y186284
X83185Y180515
X116865Y19025
X88519Y170256
X22352Y164694
X54724Y170866
X62281Y173457
X116916Y165684
X112725Y163652
X112725Y169748
X2540Y189738
X2540Y179578
X2540Y168148
X2540Y198628
X2540Y221488
X2540Y212598
X110998Y162052
X115595Y221717
X119075Y220675
X103734Y179349
X103022Y178486
X120269Y53086
X116916Y13030
X86360Y185420
X86513Y200198
X53645Y161849
X15037Y161874
X26162Y160604
X113690Y187401
X117119Y166497
X108255Y166472
X38354Y163322
X102108Y163068
X77010Y160887
X14580Y3861
X85750Y185420
X15037Y162535
X38354Y163932
X54254Y161849
X77416Y161344
X114148Y187858
X87199Y200223
X105816Y194488
X86716Y179832
X83312Y170282
X83287Y168783
X52654Y181407
X39713Y181356
X83334Y161602
X98882Y180492
X76403Y162839
X66878Y162255
X28194Y161798
X96139Y195453
X100330Y195123
X100351Y181868
X76987Y161950
X67488Y161823
X67005Y159360
X28626Y159360
X101092Y195123
X100330Y198427
X101143Y179375
X101397Y181204
X58471Y163551
X58445Y162458
X57887Y164135
X57912Y161976
X57175Y164516
X57201Y161976
X50216Y164973
X52984Y162535
X96215Y193637
X99670Y193624
X96215Y192735
X100029Y192706
X100755Y168276
X95781Y168189
X88167Y179270
X85598Y170282
X85598Y168783
X86360Y161671
X39624Y176174
X55948Y176200
X78435Y192678
X78359Y177698
X62484Y193116
X62484Y184404
X55372Y173482
X62205Y170332
X68301Y156718
X59512Y158801
X87630Y174650
X87630Y170282
X87630Y168783
X87630Y156536
X89154Y177546
X70510Y163220
X31064Y163703
X90262Y177546
X69672Y163195
X31344Y162636
X90475Y179984
X71374Y163282
X31318Y165202
X92211Y178350
X106020Y179553
X117348Y179578
X102692Y182550
X82474Y176682
X52146Y178486
X39713Y178511
X102362Y178765
X102362Y170561
X95222Y170660
X68732Y170739
X62941Y170713
X53696Y177622
X53721Y172974
X58166Y172974
X116180Y183998
X39713Y177698
X60790Y162662
X61468Y161823
X104775Y167132
X117856Y167132
X105410Y167640
X117602Y167894
X28194Y172720
X65100Y157251
X27686Y156972
X101549Y191313
X96215Y191770
X25402Y172824
X116586Y200279
X121539Y199263
X94183Y177724
X112014Y178816
X15316Y169621
X53873Y169520
X110490Y205740
X87427Y205740
X90678Y205740
X53264Y169520
X14707Y169621
X86716Y205740
X110388Y174447
X79883Y168783
X79883Y170282
X79934Y181940
X79886Y162317
X63525Y196850
X63500Y185420
X54661Y174015
X63551Y173863
X96215Y194564
X102464Y194589
X23139Y164084
X27711Y172060
X25171Y172085
X25730Y165964
X96215Y190856
X100762Y190805
X100264Y168846
X94800Y168784
X101295Y171272
X95580Y171272
X101803Y171831
X95021Y171831
X81509Y178994
X81534Y170282
X81534Y168783
X57137Y179146
X81280Y156007
X39713Y179197
X21133Y157251
X20142Y158242
X79629Y156007
X79609Y158937
X57137Y179870
X39713Y179883
X51562Y183337
X39713Y183286
X23851Y165278
X27635Y165252
X43840Y175031
X58166Y175006
X50546Y182372
X39713Y182372
X49771Y187439
X45517Y187452
X89814Y188747
X90373Y199288
X122964Y202209
X123134Y194564
X107150Y175298
X117348Y217678
X116840Y192278
X88519Y168732
X115570Y176149
X83972Y175235
X84074Y170282
X84074Y168783
X84449Y159182
X82321Y170282
X82271Y168783
X82296Y174650
X82000Y160592
X41123Y161595
X44094Y161312
X44526Y163119
X41554Y162662
X40843Y162636
X44425Y161976
X91725Y177769
X87376Y181483
X83439Y184633
X86868Y202311
X69672Y170244
X69494Y175717
X56591Y171450
X45212Y171475
X44958Y164592
X40640Y164592
X104648Y164084
X99365Y164592
X87909Y180619
X84836Y170282
X84836Y168783
X69393Y157353
X54000Y159233
X85090Y160656
X88646Y157124
X89476Y160587
X117424Y218491
X113005Y218694
X92710Y156718
X91440Y157988
X77013Y164744
X77013Y168783
X77013Y170282
X77013Y177343
X55931Y176886
X39675Y176936
X21615Y164490
X21590Y169418
X119380Y208153
X87034Y213868
X115443Y177546
X122936Y198247
X93218Y178435
X87122Y182245
X84455Y185420
X87503Y201422
X102260Y56236
X102260Y59411
X101524Y13360
X103149Y15723
X105080Y10820
X94107Y23089
X88494Y22606
X114808Y30124
X23724Y9068
X30582Y7569
X33122Y3810
X33198Y7188
X49657Y6147
X93650Y18694
X102019Y23975
X104699Y12852
X118110Y1270
X80747Y14834
X80696Y13335
X83058Y22911
X93904Y13360
X86880Y25219
X104851Y19558
X103454Y19558
X94513Y14872
X42850Y3556
X47295Y8585
X61976Y6934
X59588Y7518
X25121Y11024
X28067Y10414
X96063Y17196
X117526Y27051
X57150Y16739
X63462Y14805
X52908Y6375
X72187Y12979
X25095Y3759
X95783Y11887
X67335Y7442
X25095Y14046
X72466Y4089
X35458Y11684
X35001Y9398
X63576Y6452
X60401Y6401
X39548Y8052
X82245Y20218
X83871Y20599
X57137Y22911
X53137Y22936
X51562Y26721
X56439Y28042
X49581Y31267
X44704Y31521
X39713Y28524
X39713Y25121
X44399Y20142
X44780Y16789
X54229Y18034
X40310Y6045
X44831Y5893
X41173Y7798
X44958Y8255
X44145Y3505
X52959Y3785
X39903Y1219
X28346Y2413
X20345Y3734
X9728Y3734
X8687Y2845
X10973Y4851
X11963Y21971
X10871Y22911
X9855Y23851
X68961Y19685
X63043Y17882
X68250Y14783
X70460Y14859
X67996Y9322
X67412Y3200
X68961Y2464
X58776Y3353
X56693Y7036
X77216Y7417
X95352Y1422
X86335Y13335
X86436Y14834
X30785Y8966
X63271Y29159
X61646Y37567
X62789Y41834
X104152Y26794
X102806Y26261
X49581Y25146
X49505Y20218
X49505Y17247
X49581Y13894
X44348Y25171
X44272Y28524
X87935Y31217
X89408Y31191
X107112Y60046
X91084Y59614
X90145Y67767
X107848Y67920
X29388Y14148
X19761Y14199
X19710Y16485
X59004Y14834
X106223Y15291
X107264Y13208
X34620Y3785
X24232Y6706
X16459Y6833
X36500Y6172
X111277Y43917
X14503Y20041
X13487Y14072
X16408Y10897
X19710Y10897
X19075Y2718
X7671Y1956
X87884Y62484
X87884Y69850
X98069Y9157
X99111Y8407
X97434Y10046
X64948Y18136
X111125Y66294
X117526Y65507
X24536Y17348
X29413Y17856
X121590Y60935
X121590Y63475
X114706Y43917
X112624Y53365
X115418Y46634
X115418Y48412
X88138Y54077
X107112Y193548
M30