G04 EAGLE Gerber RS-274X export*
G75*
%MOMM*%
%FSLAX34Y34*%
%LPD*%
%IN*%
%IPPOS*%
%AMOC8*
5,1,8,0,0,1.08239X$1,22.5*%
G01*
%ADD10C,0.203200*%
%ADD11C,0.000000*%
%ADD12C,0.600000*%
%ADD13C,0.254000*%


D10*
X0Y736600D02*
X1244600Y736600D01*
X1244600Y0D02*
X0Y0D01*
X0Y736600D01*
X1244600Y736600D02*
X1244600Y0D01*
D11*
X1203960Y25400D02*
X1203965Y25774D01*
X1203978Y26148D01*
X1204001Y26521D01*
X1204033Y26894D01*
X1204075Y27266D01*
X1204125Y27636D01*
X1204184Y28005D01*
X1204253Y28373D01*
X1204330Y28739D01*
X1204417Y29103D01*
X1204512Y29465D01*
X1204616Y29824D01*
X1204729Y30181D01*
X1204851Y30534D01*
X1204981Y30885D01*
X1205120Y31232D01*
X1205267Y31576D01*
X1205423Y31916D01*
X1205587Y32252D01*
X1205760Y32584D01*
X1205940Y32912D01*
X1206128Y33235D01*
X1206324Y33553D01*
X1206528Y33867D01*
X1206740Y34175D01*
X1206959Y34478D01*
X1207186Y34776D01*
X1207419Y35068D01*
X1207660Y35354D01*
X1207908Y35635D01*
X1208162Y35909D01*
X1208424Y36176D01*
X1208691Y36438D01*
X1208965Y36692D01*
X1209246Y36940D01*
X1209532Y37181D01*
X1209824Y37414D01*
X1210122Y37641D01*
X1210425Y37860D01*
X1210733Y38072D01*
X1211047Y38276D01*
X1211365Y38472D01*
X1211688Y38660D01*
X1212016Y38840D01*
X1212348Y39013D01*
X1212684Y39177D01*
X1213024Y39333D01*
X1213368Y39480D01*
X1213715Y39619D01*
X1214066Y39749D01*
X1214419Y39871D01*
X1214776Y39984D01*
X1215135Y40088D01*
X1215497Y40183D01*
X1215861Y40270D01*
X1216227Y40347D01*
X1216595Y40416D01*
X1216964Y40475D01*
X1217334Y40525D01*
X1217706Y40567D01*
X1218079Y40599D01*
X1218452Y40622D01*
X1218826Y40635D01*
X1219200Y40640D01*
X1219574Y40635D01*
X1219948Y40622D01*
X1220321Y40599D01*
X1220694Y40567D01*
X1221066Y40525D01*
X1221436Y40475D01*
X1221805Y40416D01*
X1222173Y40347D01*
X1222539Y40270D01*
X1222903Y40183D01*
X1223265Y40088D01*
X1223624Y39984D01*
X1223981Y39871D01*
X1224334Y39749D01*
X1224685Y39619D01*
X1225032Y39480D01*
X1225376Y39333D01*
X1225716Y39177D01*
X1226052Y39013D01*
X1226384Y38840D01*
X1226712Y38660D01*
X1227035Y38472D01*
X1227353Y38276D01*
X1227667Y38072D01*
X1227975Y37860D01*
X1228278Y37641D01*
X1228576Y37414D01*
X1228868Y37181D01*
X1229154Y36940D01*
X1229435Y36692D01*
X1229709Y36438D01*
X1229976Y36176D01*
X1230238Y35909D01*
X1230492Y35635D01*
X1230740Y35354D01*
X1230981Y35068D01*
X1231214Y34776D01*
X1231441Y34478D01*
X1231660Y34175D01*
X1231872Y33867D01*
X1232076Y33553D01*
X1232272Y33235D01*
X1232460Y32912D01*
X1232640Y32584D01*
X1232813Y32252D01*
X1232977Y31916D01*
X1233133Y31576D01*
X1233280Y31232D01*
X1233419Y30885D01*
X1233549Y30534D01*
X1233671Y30181D01*
X1233784Y29824D01*
X1233888Y29465D01*
X1233983Y29103D01*
X1234070Y28739D01*
X1234147Y28373D01*
X1234216Y28005D01*
X1234275Y27636D01*
X1234325Y27266D01*
X1234367Y26894D01*
X1234399Y26521D01*
X1234422Y26148D01*
X1234435Y25774D01*
X1234440Y25400D01*
X1234435Y25026D01*
X1234422Y24652D01*
X1234399Y24279D01*
X1234367Y23906D01*
X1234325Y23534D01*
X1234275Y23164D01*
X1234216Y22795D01*
X1234147Y22427D01*
X1234070Y22061D01*
X1233983Y21697D01*
X1233888Y21335D01*
X1233784Y20976D01*
X1233671Y20619D01*
X1233549Y20266D01*
X1233419Y19915D01*
X1233280Y19568D01*
X1233133Y19224D01*
X1232977Y18884D01*
X1232813Y18548D01*
X1232640Y18216D01*
X1232460Y17888D01*
X1232272Y17565D01*
X1232076Y17247D01*
X1231872Y16933D01*
X1231660Y16625D01*
X1231441Y16322D01*
X1231214Y16024D01*
X1230981Y15732D01*
X1230740Y15446D01*
X1230492Y15165D01*
X1230238Y14891D01*
X1229976Y14624D01*
X1229709Y14362D01*
X1229435Y14108D01*
X1229154Y13860D01*
X1228868Y13619D01*
X1228576Y13386D01*
X1228278Y13159D01*
X1227975Y12940D01*
X1227667Y12728D01*
X1227353Y12524D01*
X1227035Y12328D01*
X1226712Y12140D01*
X1226384Y11960D01*
X1226052Y11787D01*
X1225716Y11623D01*
X1225376Y11467D01*
X1225032Y11320D01*
X1224685Y11181D01*
X1224334Y11051D01*
X1223981Y10929D01*
X1223624Y10816D01*
X1223265Y10712D01*
X1222903Y10617D01*
X1222539Y10530D01*
X1222173Y10453D01*
X1221805Y10384D01*
X1221436Y10325D01*
X1221066Y10275D01*
X1220694Y10233D01*
X1220321Y10201D01*
X1219948Y10178D01*
X1219574Y10165D01*
X1219200Y10160D01*
X1218826Y10165D01*
X1218452Y10178D01*
X1218079Y10201D01*
X1217706Y10233D01*
X1217334Y10275D01*
X1216964Y10325D01*
X1216595Y10384D01*
X1216227Y10453D01*
X1215861Y10530D01*
X1215497Y10617D01*
X1215135Y10712D01*
X1214776Y10816D01*
X1214419Y10929D01*
X1214066Y11051D01*
X1213715Y11181D01*
X1213368Y11320D01*
X1213024Y11467D01*
X1212684Y11623D01*
X1212348Y11787D01*
X1212016Y11960D01*
X1211688Y12140D01*
X1211365Y12328D01*
X1211047Y12524D01*
X1210733Y12728D01*
X1210425Y12940D01*
X1210122Y13159D01*
X1209824Y13386D01*
X1209532Y13619D01*
X1209246Y13860D01*
X1208965Y14108D01*
X1208691Y14362D01*
X1208424Y14624D01*
X1208162Y14891D01*
X1207908Y15165D01*
X1207660Y15446D01*
X1207419Y15732D01*
X1207186Y16024D01*
X1206959Y16322D01*
X1206740Y16625D01*
X1206528Y16933D01*
X1206324Y17247D01*
X1206128Y17565D01*
X1205940Y17888D01*
X1205760Y18216D01*
X1205587Y18548D01*
X1205423Y18884D01*
X1205267Y19224D01*
X1205120Y19568D01*
X1204981Y19915D01*
X1204851Y20266D01*
X1204729Y20619D01*
X1204616Y20976D01*
X1204512Y21335D01*
X1204417Y21697D01*
X1204330Y22061D01*
X1204253Y22427D01*
X1204184Y22795D01*
X1204125Y23164D01*
X1204075Y23534D01*
X1204033Y23906D01*
X1204001Y24279D01*
X1203978Y24652D01*
X1203965Y25026D01*
X1203960Y25400D01*
X10160Y25400D02*
X10165Y25774D01*
X10178Y26148D01*
X10201Y26521D01*
X10233Y26894D01*
X10275Y27266D01*
X10325Y27636D01*
X10384Y28005D01*
X10453Y28373D01*
X10530Y28739D01*
X10617Y29103D01*
X10712Y29465D01*
X10816Y29824D01*
X10929Y30181D01*
X11051Y30534D01*
X11181Y30885D01*
X11320Y31232D01*
X11467Y31576D01*
X11623Y31916D01*
X11787Y32252D01*
X11960Y32584D01*
X12140Y32912D01*
X12328Y33235D01*
X12524Y33553D01*
X12728Y33867D01*
X12940Y34175D01*
X13159Y34478D01*
X13386Y34776D01*
X13619Y35068D01*
X13860Y35354D01*
X14108Y35635D01*
X14362Y35909D01*
X14624Y36176D01*
X14891Y36438D01*
X15165Y36692D01*
X15446Y36940D01*
X15732Y37181D01*
X16024Y37414D01*
X16322Y37641D01*
X16625Y37860D01*
X16933Y38072D01*
X17247Y38276D01*
X17565Y38472D01*
X17888Y38660D01*
X18216Y38840D01*
X18548Y39013D01*
X18884Y39177D01*
X19224Y39333D01*
X19568Y39480D01*
X19915Y39619D01*
X20266Y39749D01*
X20619Y39871D01*
X20976Y39984D01*
X21335Y40088D01*
X21697Y40183D01*
X22061Y40270D01*
X22427Y40347D01*
X22795Y40416D01*
X23164Y40475D01*
X23534Y40525D01*
X23906Y40567D01*
X24279Y40599D01*
X24652Y40622D01*
X25026Y40635D01*
X25400Y40640D01*
X25774Y40635D01*
X26148Y40622D01*
X26521Y40599D01*
X26894Y40567D01*
X27266Y40525D01*
X27636Y40475D01*
X28005Y40416D01*
X28373Y40347D01*
X28739Y40270D01*
X29103Y40183D01*
X29465Y40088D01*
X29824Y39984D01*
X30181Y39871D01*
X30534Y39749D01*
X30885Y39619D01*
X31232Y39480D01*
X31576Y39333D01*
X31916Y39177D01*
X32252Y39013D01*
X32584Y38840D01*
X32912Y38660D01*
X33235Y38472D01*
X33553Y38276D01*
X33867Y38072D01*
X34175Y37860D01*
X34478Y37641D01*
X34776Y37414D01*
X35068Y37181D01*
X35354Y36940D01*
X35635Y36692D01*
X35909Y36438D01*
X36176Y36176D01*
X36438Y35909D01*
X36692Y35635D01*
X36940Y35354D01*
X37181Y35068D01*
X37414Y34776D01*
X37641Y34478D01*
X37860Y34175D01*
X38072Y33867D01*
X38276Y33553D01*
X38472Y33235D01*
X38660Y32912D01*
X38840Y32584D01*
X39013Y32252D01*
X39177Y31916D01*
X39333Y31576D01*
X39480Y31232D01*
X39619Y30885D01*
X39749Y30534D01*
X39871Y30181D01*
X39984Y29824D01*
X40088Y29465D01*
X40183Y29103D01*
X40270Y28739D01*
X40347Y28373D01*
X40416Y28005D01*
X40475Y27636D01*
X40525Y27266D01*
X40567Y26894D01*
X40599Y26521D01*
X40622Y26148D01*
X40635Y25774D01*
X40640Y25400D01*
X40635Y25026D01*
X40622Y24652D01*
X40599Y24279D01*
X40567Y23906D01*
X40525Y23534D01*
X40475Y23164D01*
X40416Y22795D01*
X40347Y22427D01*
X40270Y22061D01*
X40183Y21697D01*
X40088Y21335D01*
X39984Y20976D01*
X39871Y20619D01*
X39749Y20266D01*
X39619Y19915D01*
X39480Y19568D01*
X39333Y19224D01*
X39177Y18884D01*
X39013Y18548D01*
X38840Y18216D01*
X38660Y17888D01*
X38472Y17565D01*
X38276Y17247D01*
X38072Y16933D01*
X37860Y16625D01*
X37641Y16322D01*
X37414Y16024D01*
X37181Y15732D01*
X36940Y15446D01*
X36692Y15165D01*
X36438Y14891D01*
X36176Y14624D01*
X35909Y14362D01*
X35635Y14108D01*
X35354Y13860D01*
X35068Y13619D01*
X34776Y13386D01*
X34478Y13159D01*
X34175Y12940D01*
X33867Y12728D01*
X33553Y12524D01*
X33235Y12328D01*
X32912Y12140D01*
X32584Y11960D01*
X32252Y11787D01*
X31916Y11623D01*
X31576Y11467D01*
X31232Y11320D01*
X30885Y11181D01*
X30534Y11051D01*
X30181Y10929D01*
X29824Y10816D01*
X29465Y10712D01*
X29103Y10617D01*
X28739Y10530D01*
X28373Y10453D01*
X28005Y10384D01*
X27636Y10325D01*
X27266Y10275D01*
X26894Y10233D01*
X26521Y10201D01*
X26148Y10178D01*
X25774Y10165D01*
X25400Y10160D01*
X25026Y10165D01*
X24652Y10178D01*
X24279Y10201D01*
X23906Y10233D01*
X23534Y10275D01*
X23164Y10325D01*
X22795Y10384D01*
X22427Y10453D01*
X22061Y10530D01*
X21697Y10617D01*
X21335Y10712D01*
X20976Y10816D01*
X20619Y10929D01*
X20266Y11051D01*
X19915Y11181D01*
X19568Y11320D01*
X19224Y11467D01*
X18884Y11623D01*
X18548Y11787D01*
X18216Y11960D01*
X17888Y12140D01*
X17565Y12328D01*
X17247Y12524D01*
X16933Y12728D01*
X16625Y12940D01*
X16322Y13159D01*
X16024Y13386D01*
X15732Y13619D01*
X15446Y13860D01*
X15165Y14108D01*
X14891Y14362D01*
X14624Y14624D01*
X14362Y14891D01*
X14108Y15165D01*
X13860Y15446D01*
X13619Y15732D01*
X13386Y16024D01*
X13159Y16322D01*
X12940Y16625D01*
X12728Y16933D01*
X12524Y17247D01*
X12328Y17565D01*
X12140Y17888D01*
X11960Y18216D01*
X11787Y18548D01*
X11623Y18884D01*
X11467Y19224D01*
X11320Y19568D01*
X11181Y19915D01*
X11051Y20266D01*
X10929Y20619D01*
X10816Y20976D01*
X10712Y21335D01*
X10617Y21697D01*
X10530Y22061D01*
X10453Y22427D01*
X10384Y22795D01*
X10325Y23164D01*
X10275Y23534D01*
X10233Y23906D01*
X10201Y24279D01*
X10178Y24652D01*
X10165Y25026D01*
X10160Y25400D01*
X10160Y711200D02*
X10165Y711574D01*
X10178Y711948D01*
X10201Y712321D01*
X10233Y712694D01*
X10275Y713066D01*
X10325Y713436D01*
X10384Y713805D01*
X10453Y714173D01*
X10530Y714539D01*
X10617Y714903D01*
X10712Y715265D01*
X10816Y715624D01*
X10929Y715981D01*
X11051Y716334D01*
X11181Y716685D01*
X11320Y717032D01*
X11467Y717376D01*
X11623Y717716D01*
X11787Y718052D01*
X11960Y718384D01*
X12140Y718712D01*
X12328Y719035D01*
X12524Y719353D01*
X12728Y719667D01*
X12940Y719975D01*
X13159Y720278D01*
X13386Y720576D01*
X13619Y720868D01*
X13860Y721154D01*
X14108Y721435D01*
X14362Y721709D01*
X14624Y721976D01*
X14891Y722238D01*
X15165Y722492D01*
X15446Y722740D01*
X15732Y722981D01*
X16024Y723214D01*
X16322Y723441D01*
X16625Y723660D01*
X16933Y723872D01*
X17247Y724076D01*
X17565Y724272D01*
X17888Y724460D01*
X18216Y724640D01*
X18548Y724813D01*
X18884Y724977D01*
X19224Y725133D01*
X19568Y725280D01*
X19915Y725419D01*
X20266Y725549D01*
X20619Y725671D01*
X20976Y725784D01*
X21335Y725888D01*
X21697Y725983D01*
X22061Y726070D01*
X22427Y726147D01*
X22795Y726216D01*
X23164Y726275D01*
X23534Y726325D01*
X23906Y726367D01*
X24279Y726399D01*
X24652Y726422D01*
X25026Y726435D01*
X25400Y726440D01*
X25774Y726435D01*
X26148Y726422D01*
X26521Y726399D01*
X26894Y726367D01*
X27266Y726325D01*
X27636Y726275D01*
X28005Y726216D01*
X28373Y726147D01*
X28739Y726070D01*
X29103Y725983D01*
X29465Y725888D01*
X29824Y725784D01*
X30181Y725671D01*
X30534Y725549D01*
X30885Y725419D01*
X31232Y725280D01*
X31576Y725133D01*
X31916Y724977D01*
X32252Y724813D01*
X32584Y724640D01*
X32912Y724460D01*
X33235Y724272D01*
X33553Y724076D01*
X33867Y723872D01*
X34175Y723660D01*
X34478Y723441D01*
X34776Y723214D01*
X35068Y722981D01*
X35354Y722740D01*
X35635Y722492D01*
X35909Y722238D01*
X36176Y721976D01*
X36438Y721709D01*
X36692Y721435D01*
X36940Y721154D01*
X37181Y720868D01*
X37414Y720576D01*
X37641Y720278D01*
X37860Y719975D01*
X38072Y719667D01*
X38276Y719353D01*
X38472Y719035D01*
X38660Y718712D01*
X38840Y718384D01*
X39013Y718052D01*
X39177Y717716D01*
X39333Y717376D01*
X39480Y717032D01*
X39619Y716685D01*
X39749Y716334D01*
X39871Y715981D01*
X39984Y715624D01*
X40088Y715265D01*
X40183Y714903D01*
X40270Y714539D01*
X40347Y714173D01*
X40416Y713805D01*
X40475Y713436D01*
X40525Y713066D01*
X40567Y712694D01*
X40599Y712321D01*
X40622Y711948D01*
X40635Y711574D01*
X40640Y711200D01*
X40635Y710826D01*
X40622Y710452D01*
X40599Y710079D01*
X40567Y709706D01*
X40525Y709334D01*
X40475Y708964D01*
X40416Y708595D01*
X40347Y708227D01*
X40270Y707861D01*
X40183Y707497D01*
X40088Y707135D01*
X39984Y706776D01*
X39871Y706419D01*
X39749Y706066D01*
X39619Y705715D01*
X39480Y705368D01*
X39333Y705024D01*
X39177Y704684D01*
X39013Y704348D01*
X38840Y704016D01*
X38660Y703688D01*
X38472Y703365D01*
X38276Y703047D01*
X38072Y702733D01*
X37860Y702425D01*
X37641Y702122D01*
X37414Y701824D01*
X37181Y701532D01*
X36940Y701246D01*
X36692Y700965D01*
X36438Y700691D01*
X36176Y700424D01*
X35909Y700162D01*
X35635Y699908D01*
X35354Y699660D01*
X35068Y699419D01*
X34776Y699186D01*
X34478Y698959D01*
X34175Y698740D01*
X33867Y698528D01*
X33553Y698324D01*
X33235Y698128D01*
X32912Y697940D01*
X32584Y697760D01*
X32252Y697587D01*
X31916Y697423D01*
X31576Y697267D01*
X31232Y697120D01*
X30885Y696981D01*
X30534Y696851D01*
X30181Y696729D01*
X29824Y696616D01*
X29465Y696512D01*
X29103Y696417D01*
X28739Y696330D01*
X28373Y696253D01*
X28005Y696184D01*
X27636Y696125D01*
X27266Y696075D01*
X26894Y696033D01*
X26521Y696001D01*
X26148Y695978D01*
X25774Y695965D01*
X25400Y695960D01*
X25026Y695965D01*
X24652Y695978D01*
X24279Y696001D01*
X23906Y696033D01*
X23534Y696075D01*
X23164Y696125D01*
X22795Y696184D01*
X22427Y696253D01*
X22061Y696330D01*
X21697Y696417D01*
X21335Y696512D01*
X20976Y696616D01*
X20619Y696729D01*
X20266Y696851D01*
X19915Y696981D01*
X19568Y697120D01*
X19224Y697267D01*
X18884Y697423D01*
X18548Y697587D01*
X18216Y697760D01*
X17888Y697940D01*
X17565Y698128D01*
X17247Y698324D01*
X16933Y698528D01*
X16625Y698740D01*
X16322Y698959D01*
X16024Y699186D01*
X15732Y699419D01*
X15446Y699660D01*
X15165Y699908D01*
X14891Y700162D01*
X14624Y700424D01*
X14362Y700691D01*
X14108Y700965D01*
X13860Y701246D01*
X13619Y701532D01*
X13386Y701824D01*
X13159Y702122D01*
X12940Y702425D01*
X12728Y702733D01*
X12524Y703047D01*
X12328Y703365D01*
X12140Y703688D01*
X11960Y704016D01*
X11787Y704348D01*
X11623Y704684D01*
X11467Y705024D01*
X11320Y705368D01*
X11181Y705715D01*
X11051Y706066D01*
X10929Y706419D01*
X10816Y706776D01*
X10712Y707135D01*
X10617Y707497D01*
X10530Y707861D01*
X10453Y708227D01*
X10384Y708595D01*
X10325Y708964D01*
X10275Y709334D01*
X10233Y709706D01*
X10201Y710079D01*
X10178Y710452D01*
X10165Y710826D01*
X10160Y711200D01*
X1203960Y711200D02*
X1203965Y711574D01*
X1203978Y711948D01*
X1204001Y712321D01*
X1204033Y712694D01*
X1204075Y713066D01*
X1204125Y713436D01*
X1204184Y713805D01*
X1204253Y714173D01*
X1204330Y714539D01*
X1204417Y714903D01*
X1204512Y715265D01*
X1204616Y715624D01*
X1204729Y715981D01*
X1204851Y716334D01*
X1204981Y716685D01*
X1205120Y717032D01*
X1205267Y717376D01*
X1205423Y717716D01*
X1205587Y718052D01*
X1205760Y718384D01*
X1205940Y718712D01*
X1206128Y719035D01*
X1206324Y719353D01*
X1206528Y719667D01*
X1206740Y719975D01*
X1206959Y720278D01*
X1207186Y720576D01*
X1207419Y720868D01*
X1207660Y721154D01*
X1207908Y721435D01*
X1208162Y721709D01*
X1208424Y721976D01*
X1208691Y722238D01*
X1208965Y722492D01*
X1209246Y722740D01*
X1209532Y722981D01*
X1209824Y723214D01*
X1210122Y723441D01*
X1210425Y723660D01*
X1210733Y723872D01*
X1211047Y724076D01*
X1211365Y724272D01*
X1211688Y724460D01*
X1212016Y724640D01*
X1212348Y724813D01*
X1212684Y724977D01*
X1213024Y725133D01*
X1213368Y725280D01*
X1213715Y725419D01*
X1214066Y725549D01*
X1214419Y725671D01*
X1214776Y725784D01*
X1215135Y725888D01*
X1215497Y725983D01*
X1215861Y726070D01*
X1216227Y726147D01*
X1216595Y726216D01*
X1216964Y726275D01*
X1217334Y726325D01*
X1217706Y726367D01*
X1218079Y726399D01*
X1218452Y726422D01*
X1218826Y726435D01*
X1219200Y726440D01*
X1219574Y726435D01*
X1219948Y726422D01*
X1220321Y726399D01*
X1220694Y726367D01*
X1221066Y726325D01*
X1221436Y726275D01*
X1221805Y726216D01*
X1222173Y726147D01*
X1222539Y726070D01*
X1222903Y725983D01*
X1223265Y725888D01*
X1223624Y725784D01*
X1223981Y725671D01*
X1224334Y725549D01*
X1224685Y725419D01*
X1225032Y725280D01*
X1225376Y725133D01*
X1225716Y724977D01*
X1226052Y724813D01*
X1226384Y724640D01*
X1226712Y724460D01*
X1227035Y724272D01*
X1227353Y724076D01*
X1227667Y723872D01*
X1227975Y723660D01*
X1228278Y723441D01*
X1228576Y723214D01*
X1228868Y722981D01*
X1229154Y722740D01*
X1229435Y722492D01*
X1229709Y722238D01*
X1229976Y721976D01*
X1230238Y721709D01*
X1230492Y721435D01*
X1230740Y721154D01*
X1230981Y720868D01*
X1231214Y720576D01*
X1231441Y720278D01*
X1231660Y719975D01*
X1231872Y719667D01*
X1232076Y719353D01*
X1232272Y719035D01*
X1232460Y718712D01*
X1232640Y718384D01*
X1232813Y718052D01*
X1232977Y717716D01*
X1233133Y717376D01*
X1233280Y717032D01*
X1233419Y716685D01*
X1233549Y716334D01*
X1233671Y715981D01*
X1233784Y715624D01*
X1233888Y715265D01*
X1233983Y714903D01*
X1234070Y714539D01*
X1234147Y714173D01*
X1234216Y713805D01*
X1234275Y713436D01*
X1234325Y713066D01*
X1234367Y712694D01*
X1234399Y712321D01*
X1234422Y711948D01*
X1234435Y711574D01*
X1234440Y711200D01*
X1234435Y710826D01*
X1234422Y710452D01*
X1234399Y710079D01*
X1234367Y709706D01*
X1234325Y709334D01*
X1234275Y708964D01*
X1234216Y708595D01*
X1234147Y708227D01*
X1234070Y707861D01*
X1233983Y707497D01*
X1233888Y707135D01*
X1233784Y706776D01*
X1233671Y706419D01*
X1233549Y706066D01*
X1233419Y705715D01*
X1233280Y705368D01*
X1233133Y705024D01*
X1232977Y704684D01*
X1232813Y704348D01*
X1232640Y704016D01*
X1232460Y703688D01*
X1232272Y703365D01*
X1232076Y703047D01*
X1231872Y702733D01*
X1231660Y702425D01*
X1231441Y702122D01*
X1231214Y701824D01*
X1230981Y701532D01*
X1230740Y701246D01*
X1230492Y700965D01*
X1230238Y700691D01*
X1229976Y700424D01*
X1229709Y700162D01*
X1229435Y699908D01*
X1229154Y699660D01*
X1228868Y699419D01*
X1228576Y699186D01*
X1228278Y698959D01*
X1227975Y698740D01*
X1227667Y698528D01*
X1227353Y698324D01*
X1227035Y698128D01*
X1226712Y697940D01*
X1226384Y697760D01*
X1226052Y697587D01*
X1225716Y697423D01*
X1225376Y697267D01*
X1225032Y697120D01*
X1224685Y696981D01*
X1224334Y696851D01*
X1223981Y696729D01*
X1223624Y696616D01*
X1223265Y696512D01*
X1222903Y696417D01*
X1222539Y696330D01*
X1222173Y696253D01*
X1221805Y696184D01*
X1221436Y696125D01*
X1221066Y696075D01*
X1220694Y696033D01*
X1220321Y696001D01*
X1219948Y695978D01*
X1219574Y695965D01*
X1219200Y695960D01*
X1218826Y695965D01*
X1218452Y695978D01*
X1218079Y696001D01*
X1217706Y696033D01*
X1217334Y696075D01*
X1216964Y696125D01*
X1216595Y696184D01*
X1216227Y696253D01*
X1215861Y696330D01*
X1215497Y696417D01*
X1215135Y696512D01*
X1214776Y696616D01*
X1214419Y696729D01*
X1214066Y696851D01*
X1213715Y696981D01*
X1213368Y697120D01*
X1213024Y697267D01*
X1212684Y697423D01*
X1212348Y697587D01*
X1212016Y697760D01*
X1211688Y697940D01*
X1211365Y698128D01*
X1211047Y698324D01*
X1210733Y698528D01*
X1210425Y698740D01*
X1210122Y698959D01*
X1209824Y699186D01*
X1209532Y699419D01*
X1209246Y699660D01*
X1208965Y699908D01*
X1208691Y700162D01*
X1208424Y700424D01*
X1208162Y700691D01*
X1207908Y700965D01*
X1207660Y701246D01*
X1207419Y701532D01*
X1207186Y701824D01*
X1206959Y702122D01*
X1206740Y702425D01*
X1206528Y702733D01*
X1206324Y703047D01*
X1206128Y703365D01*
X1205940Y703688D01*
X1205760Y704016D01*
X1205587Y704348D01*
X1205423Y704684D01*
X1205267Y705024D01*
X1205120Y705368D01*
X1204981Y705715D01*
X1204851Y706066D01*
X1204729Y706419D01*
X1204616Y706776D01*
X1204512Y707135D01*
X1204417Y707497D01*
X1204330Y707861D01*
X1204253Y708227D01*
X1204184Y708595D01*
X1204125Y708964D01*
X1204075Y709334D01*
X1204033Y709706D01*
X1204001Y710079D01*
X1203978Y710452D01*
X1203965Y710826D01*
X1203960Y711200D01*
X1049540Y261620D02*
X1049542Y261768D01*
X1049548Y261916D01*
X1049558Y262064D01*
X1049572Y262212D01*
X1049590Y262359D01*
X1049612Y262506D01*
X1049638Y262652D01*
X1049667Y262797D01*
X1049701Y262942D01*
X1049739Y263085D01*
X1049780Y263228D01*
X1049825Y263369D01*
X1049875Y263509D01*
X1049927Y263647D01*
X1049984Y263785D01*
X1050044Y263920D01*
X1050108Y264054D01*
X1050175Y264186D01*
X1050246Y264316D01*
X1050321Y264445D01*
X1050399Y264571D01*
X1050480Y264695D01*
X1050564Y264817D01*
X1050652Y264936D01*
X1050743Y265053D01*
X1050837Y265168D01*
X1050935Y265280D01*
X1051035Y265389D01*
X1051138Y265496D01*
X1051244Y265600D01*
X1051352Y265701D01*
X1051464Y265799D01*
X1051578Y265894D01*
X1051694Y265985D01*
X1051813Y266074D01*
X1051934Y266159D01*
X1052058Y266241D01*
X1052184Y266320D01*
X1052311Y266395D01*
X1052441Y266467D01*
X1052573Y266536D01*
X1052706Y266600D01*
X1052841Y266661D01*
X1052978Y266719D01*
X1053116Y266773D01*
X1053256Y266823D01*
X1053397Y266869D01*
X1053539Y266911D01*
X1053682Y266950D01*
X1053826Y266984D01*
X1053972Y267015D01*
X1054117Y267042D01*
X1054264Y267065D01*
X1054411Y267084D01*
X1054559Y267099D01*
X1054706Y267110D01*
X1054855Y267117D01*
X1055003Y267120D01*
X1055151Y267119D01*
X1055299Y267114D01*
X1055447Y267105D01*
X1055595Y267092D01*
X1055743Y267075D01*
X1055889Y267054D01*
X1056036Y267029D01*
X1056181Y267000D01*
X1056326Y266968D01*
X1056469Y266931D01*
X1056612Y266891D01*
X1056754Y266846D01*
X1056894Y266798D01*
X1057033Y266746D01*
X1057170Y266691D01*
X1057306Y266631D01*
X1057441Y266568D01*
X1057573Y266502D01*
X1057704Y266432D01*
X1057833Y266358D01*
X1057959Y266281D01*
X1058084Y266201D01*
X1058206Y266117D01*
X1058327Y266030D01*
X1058444Y265940D01*
X1058560Y265846D01*
X1058672Y265750D01*
X1058782Y265651D01*
X1058890Y265548D01*
X1058994Y265443D01*
X1059096Y265335D01*
X1059194Y265224D01*
X1059290Y265111D01*
X1059383Y264995D01*
X1059472Y264877D01*
X1059558Y264756D01*
X1059641Y264633D01*
X1059721Y264508D01*
X1059797Y264381D01*
X1059870Y264251D01*
X1059939Y264120D01*
X1060004Y263987D01*
X1060067Y263853D01*
X1060125Y263716D01*
X1060180Y263578D01*
X1060230Y263439D01*
X1060278Y263298D01*
X1060321Y263157D01*
X1060361Y263014D01*
X1060396Y262870D01*
X1060428Y262725D01*
X1060456Y262579D01*
X1060480Y262433D01*
X1060500Y262286D01*
X1060516Y262138D01*
X1060528Y261991D01*
X1060536Y261842D01*
X1060540Y261694D01*
X1060540Y261546D01*
X1060536Y261398D01*
X1060528Y261249D01*
X1060516Y261102D01*
X1060500Y260954D01*
X1060480Y260807D01*
X1060456Y260661D01*
X1060428Y260515D01*
X1060396Y260370D01*
X1060361Y260226D01*
X1060321Y260083D01*
X1060278Y259942D01*
X1060230Y259801D01*
X1060180Y259662D01*
X1060125Y259524D01*
X1060067Y259387D01*
X1060004Y259253D01*
X1059939Y259120D01*
X1059870Y258989D01*
X1059797Y258859D01*
X1059721Y258732D01*
X1059641Y258607D01*
X1059558Y258484D01*
X1059472Y258363D01*
X1059383Y258245D01*
X1059290Y258129D01*
X1059194Y258016D01*
X1059096Y257905D01*
X1058994Y257797D01*
X1058890Y257692D01*
X1058782Y257589D01*
X1058672Y257490D01*
X1058560Y257394D01*
X1058444Y257300D01*
X1058327Y257210D01*
X1058206Y257123D01*
X1058084Y257039D01*
X1057959Y256959D01*
X1057833Y256882D01*
X1057704Y256808D01*
X1057573Y256738D01*
X1057441Y256672D01*
X1057306Y256609D01*
X1057170Y256549D01*
X1057033Y256494D01*
X1056894Y256442D01*
X1056754Y256394D01*
X1056612Y256349D01*
X1056469Y256309D01*
X1056326Y256272D01*
X1056181Y256240D01*
X1056036Y256211D01*
X1055889Y256186D01*
X1055743Y256165D01*
X1055595Y256148D01*
X1055447Y256135D01*
X1055299Y256126D01*
X1055151Y256121D01*
X1055003Y256120D01*
X1054855Y256123D01*
X1054706Y256130D01*
X1054559Y256141D01*
X1054411Y256156D01*
X1054264Y256175D01*
X1054117Y256198D01*
X1053972Y256225D01*
X1053826Y256256D01*
X1053682Y256290D01*
X1053539Y256329D01*
X1053397Y256371D01*
X1053256Y256417D01*
X1053116Y256467D01*
X1052978Y256521D01*
X1052841Y256579D01*
X1052706Y256640D01*
X1052573Y256704D01*
X1052441Y256773D01*
X1052311Y256845D01*
X1052184Y256920D01*
X1052058Y256999D01*
X1051934Y257081D01*
X1051813Y257166D01*
X1051694Y257255D01*
X1051578Y257346D01*
X1051464Y257441D01*
X1051352Y257539D01*
X1051244Y257640D01*
X1051138Y257744D01*
X1051035Y257851D01*
X1050935Y257960D01*
X1050837Y258072D01*
X1050743Y258187D01*
X1050652Y258304D01*
X1050564Y258423D01*
X1050480Y258545D01*
X1050399Y258669D01*
X1050321Y258795D01*
X1050246Y258924D01*
X1050175Y259054D01*
X1050108Y259186D01*
X1050044Y259320D01*
X1049984Y259455D01*
X1049927Y259593D01*
X1049875Y259731D01*
X1049825Y259871D01*
X1049780Y260012D01*
X1049739Y260155D01*
X1049701Y260298D01*
X1049667Y260443D01*
X1049638Y260588D01*
X1049612Y260734D01*
X1049590Y260881D01*
X1049572Y261028D01*
X1049558Y261176D01*
X1049548Y261324D01*
X1049542Y261472D01*
X1049540Y261620D01*
X847040Y261620D02*
X847042Y261816D01*
X847050Y262013D01*
X847062Y262209D01*
X847079Y262404D01*
X847100Y262599D01*
X847127Y262794D01*
X847158Y262988D01*
X847194Y263181D01*
X847234Y263373D01*
X847280Y263564D01*
X847330Y263754D01*
X847384Y263942D01*
X847444Y264129D01*
X847508Y264315D01*
X847576Y264499D01*
X847649Y264681D01*
X847726Y264862D01*
X847808Y265040D01*
X847894Y265217D01*
X847985Y265391D01*
X848079Y265563D01*
X848178Y265733D01*
X848281Y265900D01*
X848388Y266065D01*
X848499Y266226D01*
X848614Y266386D01*
X848733Y266542D01*
X848856Y266695D01*
X848982Y266845D01*
X849112Y266992D01*
X849246Y267136D01*
X849383Y267277D01*
X849524Y267414D01*
X849668Y267548D01*
X849815Y267678D01*
X849965Y267804D01*
X850118Y267927D01*
X850274Y268046D01*
X850434Y268161D01*
X850595Y268272D01*
X850760Y268379D01*
X850927Y268482D01*
X851097Y268581D01*
X851269Y268675D01*
X851443Y268766D01*
X851620Y268852D01*
X851798Y268934D01*
X851979Y269011D01*
X852161Y269084D01*
X852345Y269152D01*
X852531Y269216D01*
X852718Y269276D01*
X852906Y269330D01*
X853096Y269380D01*
X853287Y269426D01*
X853479Y269466D01*
X853672Y269502D01*
X853866Y269533D01*
X854061Y269560D01*
X854256Y269581D01*
X854451Y269598D01*
X854647Y269610D01*
X854844Y269618D01*
X855040Y269620D01*
X855236Y269618D01*
X855433Y269610D01*
X855629Y269598D01*
X855824Y269581D01*
X856019Y269560D01*
X856214Y269533D01*
X856408Y269502D01*
X856601Y269466D01*
X856793Y269426D01*
X856984Y269380D01*
X857174Y269330D01*
X857362Y269276D01*
X857549Y269216D01*
X857735Y269152D01*
X857919Y269084D01*
X858101Y269011D01*
X858282Y268934D01*
X858460Y268852D01*
X858637Y268766D01*
X858811Y268675D01*
X858983Y268581D01*
X859153Y268482D01*
X859320Y268379D01*
X859485Y268272D01*
X859646Y268161D01*
X859806Y268046D01*
X859962Y267927D01*
X860115Y267804D01*
X860265Y267678D01*
X860412Y267548D01*
X860556Y267414D01*
X860697Y267277D01*
X860834Y267136D01*
X860968Y266992D01*
X861098Y266845D01*
X861224Y266695D01*
X861347Y266542D01*
X861466Y266386D01*
X861581Y266226D01*
X861692Y266065D01*
X861799Y265900D01*
X861902Y265733D01*
X862001Y265563D01*
X862095Y265391D01*
X862186Y265217D01*
X862272Y265040D01*
X862354Y264862D01*
X862431Y264681D01*
X862504Y264499D01*
X862572Y264315D01*
X862636Y264129D01*
X862696Y263942D01*
X862750Y263754D01*
X862800Y263564D01*
X862846Y263373D01*
X862886Y263181D01*
X862922Y262988D01*
X862953Y262794D01*
X862980Y262599D01*
X863001Y262404D01*
X863018Y262209D01*
X863030Y262013D01*
X863038Y261816D01*
X863040Y261620D01*
X863038Y261424D01*
X863030Y261227D01*
X863018Y261031D01*
X863001Y260836D01*
X862980Y260641D01*
X862953Y260446D01*
X862922Y260252D01*
X862886Y260059D01*
X862846Y259867D01*
X862800Y259676D01*
X862750Y259486D01*
X862696Y259298D01*
X862636Y259111D01*
X862572Y258925D01*
X862504Y258741D01*
X862431Y258559D01*
X862354Y258378D01*
X862272Y258200D01*
X862186Y258023D01*
X862095Y257849D01*
X862001Y257677D01*
X861902Y257507D01*
X861799Y257340D01*
X861692Y257175D01*
X861581Y257014D01*
X861466Y256854D01*
X861347Y256698D01*
X861224Y256545D01*
X861098Y256395D01*
X860968Y256248D01*
X860834Y256104D01*
X860697Y255963D01*
X860556Y255826D01*
X860412Y255692D01*
X860265Y255562D01*
X860115Y255436D01*
X859962Y255313D01*
X859806Y255194D01*
X859646Y255079D01*
X859485Y254968D01*
X859320Y254861D01*
X859153Y254758D01*
X858983Y254659D01*
X858811Y254565D01*
X858637Y254474D01*
X858460Y254388D01*
X858282Y254306D01*
X858101Y254229D01*
X857919Y254156D01*
X857735Y254088D01*
X857549Y254024D01*
X857362Y253964D01*
X857174Y253910D01*
X856984Y253860D01*
X856793Y253814D01*
X856601Y253774D01*
X856408Y253738D01*
X856214Y253707D01*
X856019Y253680D01*
X855824Y253659D01*
X855629Y253642D01*
X855433Y253630D01*
X855236Y253622D01*
X855040Y253620D01*
X854844Y253622D01*
X854647Y253630D01*
X854451Y253642D01*
X854256Y253659D01*
X854061Y253680D01*
X853866Y253707D01*
X853672Y253738D01*
X853479Y253774D01*
X853287Y253814D01*
X853096Y253860D01*
X852906Y253910D01*
X852718Y253964D01*
X852531Y254024D01*
X852345Y254088D01*
X852161Y254156D01*
X851979Y254229D01*
X851798Y254306D01*
X851620Y254388D01*
X851443Y254474D01*
X851269Y254565D01*
X851097Y254659D01*
X850927Y254758D01*
X850760Y254861D01*
X850595Y254968D01*
X850434Y255079D01*
X850274Y255194D01*
X850118Y255313D01*
X849965Y255436D01*
X849815Y255562D01*
X849668Y255692D01*
X849524Y255826D01*
X849383Y255963D01*
X849246Y256104D01*
X849112Y256248D01*
X848982Y256395D01*
X848856Y256545D01*
X848733Y256698D01*
X848614Y256854D01*
X848499Y257014D01*
X848388Y257175D01*
X848281Y257340D01*
X848178Y257507D01*
X848079Y257677D01*
X847985Y257849D01*
X847894Y258023D01*
X847808Y258200D01*
X847726Y258378D01*
X847649Y258559D01*
X847576Y258741D01*
X847508Y258925D01*
X847444Y259111D01*
X847384Y259298D01*
X847330Y259486D01*
X847280Y259676D01*
X847234Y259867D01*
X847194Y260059D01*
X847158Y260252D01*
X847127Y260446D01*
X847100Y260641D01*
X847079Y260836D01*
X847062Y261031D01*
X847050Y261227D01*
X847042Y261424D01*
X847040Y261620D01*
X1168650Y683486D02*
X1168652Y683599D01*
X1168658Y683713D01*
X1168668Y683826D01*
X1168682Y683938D01*
X1168699Y684050D01*
X1168721Y684162D01*
X1168747Y684272D01*
X1168776Y684382D01*
X1168809Y684490D01*
X1168846Y684598D01*
X1168887Y684703D01*
X1168931Y684808D01*
X1168979Y684911D01*
X1169030Y685012D01*
X1169085Y685111D01*
X1169144Y685208D01*
X1169206Y685303D01*
X1169271Y685396D01*
X1169339Y685487D01*
X1169410Y685575D01*
X1169485Y685661D01*
X1169562Y685744D01*
X1169642Y685824D01*
X1169725Y685901D01*
X1169811Y685976D01*
X1169899Y686047D01*
X1169990Y686115D01*
X1170083Y686180D01*
X1170178Y686242D01*
X1170275Y686301D01*
X1170374Y686356D01*
X1170475Y686407D01*
X1170578Y686455D01*
X1170683Y686499D01*
X1170788Y686540D01*
X1170896Y686577D01*
X1171004Y686610D01*
X1171114Y686639D01*
X1171224Y686665D01*
X1171336Y686687D01*
X1171448Y686704D01*
X1171560Y686718D01*
X1171673Y686728D01*
X1171787Y686734D01*
X1171900Y686736D01*
X1172013Y686734D01*
X1172127Y686728D01*
X1172240Y686718D01*
X1172352Y686704D01*
X1172464Y686687D01*
X1172576Y686665D01*
X1172686Y686639D01*
X1172796Y686610D01*
X1172904Y686577D01*
X1173012Y686540D01*
X1173117Y686499D01*
X1173222Y686455D01*
X1173325Y686407D01*
X1173426Y686356D01*
X1173525Y686301D01*
X1173622Y686242D01*
X1173717Y686180D01*
X1173810Y686115D01*
X1173901Y686047D01*
X1173989Y685976D01*
X1174075Y685901D01*
X1174158Y685824D01*
X1174238Y685744D01*
X1174315Y685661D01*
X1174390Y685575D01*
X1174461Y685487D01*
X1174529Y685396D01*
X1174594Y685303D01*
X1174656Y685208D01*
X1174715Y685111D01*
X1174770Y685012D01*
X1174821Y684911D01*
X1174869Y684808D01*
X1174913Y684703D01*
X1174954Y684598D01*
X1174991Y684490D01*
X1175024Y684382D01*
X1175053Y684272D01*
X1175079Y684162D01*
X1175101Y684050D01*
X1175118Y683938D01*
X1175132Y683826D01*
X1175142Y683713D01*
X1175148Y683599D01*
X1175150Y683486D01*
X1175148Y683373D01*
X1175142Y683259D01*
X1175132Y683146D01*
X1175118Y683034D01*
X1175101Y682922D01*
X1175079Y682810D01*
X1175053Y682700D01*
X1175024Y682590D01*
X1174991Y682482D01*
X1174954Y682374D01*
X1174913Y682269D01*
X1174869Y682164D01*
X1174821Y682061D01*
X1174770Y681960D01*
X1174715Y681861D01*
X1174656Y681764D01*
X1174594Y681669D01*
X1174529Y681576D01*
X1174461Y681485D01*
X1174390Y681397D01*
X1174315Y681311D01*
X1174238Y681228D01*
X1174158Y681148D01*
X1174075Y681071D01*
X1173989Y680996D01*
X1173901Y680925D01*
X1173810Y680857D01*
X1173717Y680792D01*
X1173622Y680730D01*
X1173525Y680671D01*
X1173426Y680616D01*
X1173325Y680565D01*
X1173222Y680517D01*
X1173117Y680473D01*
X1173012Y680432D01*
X1172904Y680395D01*
X1172796Y680362D01*
X1172686Y680333D01*
X1172576Y680307D01*
X1172464Y680285D01*
X1172352Y680268D01*
X1172240Y680254D01*
X1172127Y680244D01*
X1172013Y680238D01*
X1171900Y680236D01*
X1171787Y680238D01*
X1171673Y680244D01*
X1171560Y680254D01*
X1171448Y680268D01*
X1171336Y680285D01*
X1171224Y680307D01*
X1171114Y680333D01*
X1171004Y680362D01*
X1170896Y680395D01*
X1170788Y680432D01*
X1170683Y680473D01*
X1170578Y680517D01*
X1170475Y680565D01*
X1170374Y680616D01*
X1170275Y680671D01*
X1170178Y680730D01*
X1170083Y680792D01*
X1169990Y680857D01*
X1169899Y680925D01*
X1169811Y680996D01*
X1169725Y681071D01*
X1169642Y681148D01*
X1169562Y681228D01*
X1169485Y681311D01*
X1169410Y681397D01*
X1169339Y681485D01*
X1169271Y681576D01*
X1169206Y681669D01*
X1169144Y681764D01*
X1169085Y681861D01*
X1169030Y681960D01*
X1168979Y682061D01*
X1168931Y682164D01*
X1168887Y682269D01*
X1168846Y682374D01*
X1168809Y682482D01*
X1168776Y682590D01*
X1168747Y682700D01*
X1168721Y682810D01*
X1168699Y682922D01*
X1168682Y683034D01*
X1168668Y683146D01*
X1168658Y683259D01*
X1168652Y683373D01*
X1168650Y683486D01*
X1110850Y683486D02*
X1110852Y683599D01*
X1110858Y683713D01*
X1110868Y683826D01*
X1110882Y683938D01*
X1110899Y684050D01*
X1110921Y684162D01*
X1110947Y684272D01*
X1110976Y684382D01*
X1111009Y684490D01*
X1111046Y684598D01*
X1111087Y684703D01*
X1111131Y684808D01*
X1111179Y684911D01*
X1111230Y685012D01*
X1111285Y685111D01*
X1111344Y685208D01*
X1111406Y685303D01*
X1111471Y685396D01*
X1111539Y685487D01*
X1111610Y685575D01*
X1111685Y685661D01*
X1111762Y685744D01*
X1111842Y685824D01*
X1111925Y685901D01*
X1112011Y685976D01*
X1112099Y686047D01*
X1112190Y686115D01*
X1112283Y686180D01*
X1112378Y686242D01*
X1112475Y686301D01*
X1112574Y686356D01*
X1112675Y686407D01*
X1112778Y686455D01*
X1112883Y686499D01*
X1112988Y686540D01*
X1113096Y686577D01*
X1113204Y686610D01*
X1113314Y686639D01*
X1113424Y686665D01*
X1113536Y686687D01*
X1113648Y686704D01*
X1113760Y686718D01*
X1113873Y686728D01*
X1113987Y686734D01*
X1114100Y686736D01*
X1114213Y686734D01*
X1114327Y686728D01*
X1114440Y686718D01*
X1114552Y686704D01*
X1114664Y686687D01*
X1114776Y686665D01*
X1114886Y686639D01*
X1114996Y686610D01*
X1115104Y686577D01*
X1115212Y686540D01*
X1115317Y686499D01*
X1115422Y686455D01*
X1115525Y686407D01*
X1115626Y686356D01*
X1115725Y686301D01*
X1115822Y686242D01*
X1115917Y686180D01*
X1116010Y686115D01*
X1116101Y686047D01*
X1116189Y685976D01*
X1116275Y685901D01*
X1116358Y685824D01*
X1116438Y685744D01*
X1116515Y685661D01*
X1116590Y685575D01*
X1116661Y685487D01*
X1116729Y685396D01*
X1116794Y685303D01*
X1116856Y685208D01*
X1116915Y685111D01*
X1116970Y685012D01*
X1117021Y684911D01*
X1117069Y684808D01*
X1117113Y684703D01*
X1117154Y684598D01*
X1117191Y684490D01*
X1117224Y684382D01*
X1117253Y684272D01*
X1117279Y684162D01*
X1117301Y684050D01*
X1117318Y683938D01*
X1117332Y683826D01*
X1117342Y683713D01*
X1117348Y683599D01*
X1117350Y683486D01*
X1117348Y683373D01*
X1117342Y683259D01*
X1117332Y683146D01*
X1117318Y683034D01*
X1117301Y682922D01*
X1117279Y682810D01*
X1117253Y682700D01*
X1117224Y682590D01*
X1117191Y682482D01*
X1117154Y682374D01*
X1117113Y682269D01*
X1117069Y682164D01*
X1117021Y682061D01*
X1116970Y681960D01*
X1116915Y681861D01*
X1116856Y681764D01*
X1116794Y681669D01*
X1116729Y681576D01*
X1116661Y681485D01*
X1116590Y681397D01*
X1116515Y681311D01*
X1116438Y681228D01*
X1116358Y681148D01*
X1116275Y681071D01*
X1116189Y680996D01*
X1116101Y680925D01*
X1116010Y680857D01*
X1115917Y680792D01*
X1115822Y680730D01*
X1115725Y680671D01*
X1115626Y680616D01*
X1115525Y680565D01*
X1115422Y680517D01*
X1115317Y680473D01*
X1115212Y680432D01*
X1115104Y680395D01*
X1114996Y680362D01*
X1114886Y680333D01*
X1114776Y680307D01*
X1114664Y680285D01*
X1114552Y680268D01*
X1114440Y680254D01*
X1114327Y680244D01*
X1114213Y680238D01*
X1114100Y680236D01*
X1113987Y680238D01*
X1113873Y680244D01*
X1113760Y680254D01*
X1113648Y680268D01*
X1113536Y680285D01*
X1113424Y680307D01*
X1113314Y680333D01*
X1113204Y680362D01*
X1113096Y680395D01*
X1112988Y680432D01*
X1112883Y680473D01*
X1112778Y680517D01*
X1112675Y680565D01*
X1112574Y680616D01*
X1112475Y680671D01*
X1112378Y680730D01*
X1112283Y680792D01*
X1112190Y680857D01*
X1112099Y680925D01*
X1112011Y680996D01*
X1111925Y681071D01*
X1111842Y681148D01*
X1111762Y681228D01*
X1111685Y681311D01*
X1111610Y681397D01*
X1111539Y681485D01*
X1111471Y681576D01*
X1111406Y681669D01*
X1111344Y681764D01*
X1111285Y681861D01*
X1111230Y681960D01*
X1111179Y682061D01*
X1111131Y682164D01*
X1111087Y682269D01*
X1111046Y682374D01*
X1111009Y682482D01*
X1110976Y682590D01*
X1110947Y682700D01*
X1110921Y682810D01*
X1110899Y682922D01*
X1110882Y683034D01*
X1110868Y683146D01*
X1110858Y683259D01*
X1110852Y683373D01*
X1110850Y683486D01*
D12*
X1186180Y683686D02*
X1186180Y672686D01*
X1099820Y672686D02*
X1099820Y683686D01*
X1186180Y716836D02*
X1186180Y723036D01*
X1099820Y723036D02*
X1099820Y716836D01*
D11*
X955100Y683260D02*
X955102Y683401D01*
X955108Y683542D01*
X955118Y683682D01*
X955132Y683822D01*
X955150Y683962D01*
X955171Y684101D01*
X955197Y684240D01*
X955226Y684378D01*
X955260Y684514D01*
X955297Y684650D01*
X955338Y684785D01*
X955383Y684919D01*
X955432Y685051D01*
X955484Y685182D01*
X955540Y685311D01*
X955600Y685438D01*
X955663Y685564D01*
X955729Y685688D01*
X955800Y685811D01*
X955873Y685931D01*
X955950Y686049D01*
X956030Y686165D01*
X956114Y686278D01*
X956200Y686389D01*
X956290Y686498D01*
X956383Y686604D01*
X956478Y686707D01*
X956577Y686808D01*
X956678Y686906D01*
X956782Y687001D01*
X956889Y687093D01*
X956998Y687182D01*
X957110Y687267D01*
X957224Y687350D01*
X957340Y687430D01*
X957459Y687506D01*
X957580Y687578D01*
X957702Y687648D01*
X957827Y687713D01*
X957953Y687776D01*
X958081Y687834D01*
X958211Y687889D01*
X958342Y687941D01*
X958475Y687988D01*
X958609Y688032D01*
X958744Y688073D01*
X958880Y688109D01*
X959017Y688141D01*
X959155Y688170D01*
X959293Y688195D01*
X959433Y688215D01*
X959573Y688232D01*
X959713Y688245D01*
X959854Y688254D01*
X959994Y688259D01*
X960135Y688260D01*
X960276Y688257D01*
X960417Y688250D01*
X960557Y688239D01*
X960697Y688224D01*
X960837Y688205D01*
X960976Y688183D01*
X961114Y688156D01*
X961252Y688126D01*
X961388Y688091D01*
X961524Y688053D01*
X961658Y688011D01*
X961792Y687965D01*
X961924Y687916D01*
X962054Y687862D01*
X962183Y687805D01*
X962310Y687745D01*
X962436Y687681D01*
X962559Y687613D01*
X962681Y687542D01*
X962801Y687468D01*
X962918Y687390D01*
X963033Y687309D01*
X963146Y687225D01*
X963257Y687138D01*
X963365Y687047D01*
X963470Y686954D01*
X963573Y686857D01*
X963673Y686758D01*
X963770Y686656D01*
X963864Y686551D01*
X963955Y686444D01*
X964043Y686334D01*
X964128Y686222D01*
X964210Y686107D01*
X964289Y685990D01*
X964364Y685871D01*
X964436Y685750D01*
X964504Y685627D01*
X964569Y685502D01*
X964631Y685375D01*
X964688Y685246D01*
X964743Y685116D01*
X964793Y684985D01*
X964840Y684852D01*
X964883Y684718D01*
X964922Y684582D01*
X964957Y684446D01*
X964989Y684309D01*
X965016Y684171D01*
X965040Y684032D01*
X965060Y683892D01*
X965076Y683752D01*
X965088Y683612D01*
X965096Y683471D01*
X965100Y683330D01*
X965100Y683190D01*
X965096Y683049D01*
X965088Y682908D01*
X965076Y682768D01*
X965060Y682628D01*
X965040Y682488D01*
X965016Y682349D01*
X964989Y682211D01*
X964957Y682074D01*
X964922Y681938D01*
X964883Y681802D01*
X964840Y681668D01*
X964793Y681535D01*
X964743Y681404D01*
X964688Y681274D01*
X964631Y681145D01*
X964569Y681018D01*
X964504Y680893D01*
X964436Y680770D01*
X964364Y680649D01*
X964289Y680530D01*
X964210Y680413D01*
X964128Y680298D01*
X964043Y680186D01*
X963955Y680076D01*
X963864Y679969D01*
X963770Y679864D01*
X963673Y679762D01*
X963573Y679663D01*
X963470Y679566D01*
X963365Y679473D01*
X963257Y679382D01*
X963146Y679295D01*
X963033Y679211D01*
X962918Y679130D01*
X962801Y679052D01*
X962681Y678978D01*
X962559Y678907D01*
X962436Y678839D01*
X962310Y678775D01*
X962183Y678715D01*
X962054Y678658D01*
X961924Y678604D01*
X961792Y678555D01*
X961658Y678509D01*
X961524Y678467D01*
X961388Y678429D01*
X961252Y678394D01*
X961114Y678364D01*
X960976Y678337D01*
X960837Y678315D01*
X960697Y678296D01*
X960557Y678281D01*
X960417Y678270D01*
X960276Y678263D01*
X960135Y678260D01*
X959994Y678261D01*
X959854Y678266D01*
X959713Y678275D01*
X959573Y678288D01*
X959433Y678305D01*
X959293Y678325D01*
X959155Y678350D01*
X959017Y678379D01*
X958880Y678411D01*
X958744Y678447D01*
X958609Y678488D01*
X958475Y678532D01*
X958342Y678579D01*
X958211Y678631D01*
X958081Y678686D01*
X957953Y678744D01*
X957827Y678807D01*
X957702Y678872D01*
X957580Y678942D01*
X957459Y679014D01*
X957340Y679090D01*
X957224Y679170D01*
X957110Y679253D01*
X956998Y679338D01*
X956889Y679427D01*
X956782Y679519D01*
X956678Y679614D01*
X956577Y679712D01*
X956478Y679813D01*
X956383Y679916D01*
X956290Y680022D01*
X956200Y680131D01*
X956114Y680242D01*
X956030Y680355D01*
X955950Y680471D01*
X955873Y680589D01*
X955800Y680709D01*
X955729Y680832D01*
X955663Y680956D01*
X955600Y681082D01*
X955540Y681209D01*
X955484Y681338D01*
X955432Y681469D01*
X955383Y681601D01*
X955338Y681735D01*
X955297Y681870D01*
X955260Y682006D01*
X955226Y682142D01*
X955197Y682280D01*
X955171Y682419D01*
X955150Y682558D01*
X955132Y682698D01*
X955118Y682838D01*
X955108Y682978D01*
X955102Y683119D01*
X955100Y683260D01*
X1035100Y683260D02*
X1035102Y683401D01*
X1035108Y683542D01*
X1035118Y683682D01*
X1035132Y683822D01*
X1035150Y683962D01*
X1035171Y684101D01*
X1035197Y684240D01*
X1035226Y684378D01*
X1035260Y684514D01*
X1035297Y684650D01*
X1035338Y684785D01*
X1035383Y684919D01*
X1035432Y685051D01*
X1035484Y685182D01*
X1035540Y685311D01*
X1035600Y685438D01*
X1035663Y685564D01*
X1035729Y685688D01*
X1035800Y685811D01*
X1035873Y685931D01*
X1035950Y686049D01*
X1036030Y686165D01*
X1036114Y686278D01*
X1036200Y686389D01*
X1036290Y686498D01*
X1036383Y686604D01*
X1036478Y686707D01*
X1036577Y686808D01*
X1036678Y686906D01*
X1036782Y687001D01*
X1036889Y687093D01*
X1036998Y687182D01*
X1037110Y687267D01*
X1037224Y687350D01*
X1037340Y687430D01*
X1037459Y687506D01*
X1037580Y687578D01*
X1037702Y687648D01*
X1037827Y687713D01*
X1037953Y687776D01*
X1038081Y687834D01*
X1038211Y687889D01*
X1038342Y687941D01*
X1038475Y687988D01*
X1038609Y688032D01*
X1038744Y688073D01*
X1038880Y688109D01*
X1039017Y688141D01*
X1039155Y688170D01*
X1039293Y688195D01*
X1039433Y688215D01*
X1039573Y688232D01*
X1039713Y688245D01*
X1039854Y688254D01*
X1039994Y688259D01*
X1040135Y688260D01*
X1040276Y688257D01*
X1040417Y688250D01*
X1040557Y688239D01*
X1040697Y688224D01*
X1040837Y688205D01*
X1040976Y688183D01*
X1041114Y688156D01*
X1041252Y688126D01*
X1041388Y688091D01*
X1041524Y688053D01*
X1041658Y688011D01*
X1041792Y687965D01*
X1041924Y687916D01*
X1042054Y687862D01*
X1042183Y687805D01*
X1042310Y687745D01*
X1042436Y687681D01*
X1042559Y687613D01*
X1042681Y687542D01*
X1042801Y687468D01*
X1042918Y687390D01*
X1043033Y687309D01*
X1043146Y687225D01*
X1043257Y687138D01*
X1043365Y687047D01*
X1043470Y686954D01*
X1043573Y686857D01*
X1043673Y686758D01*
X1043770Y686656D01*
X1043864Y686551D01*
X1043955Y686444D01*
X1044043Y686334D01*
X1044128Y686222D01*
X1044210Y686107D01*
X1044289Y685990D01*
X1044364Y685871D01*
X1044436Y685750D01*
X1044504Y685627D01*
X1044569Y685502D01*
X1044631Y685375D01*
X1044688Y685246D01*
X1044743Y685116D01*
X1044793Y684985D01*
X1044840Y684852D01*
X1044883Y684718D01*
X1044922Y684582D01*
X1044957Y684446D01*
X1044989Y684309D01*
X1045016Y684171D01*
X1045040Y684032D01*
X1045060Y683892D01*
X1045076Y683752D01*
X1045088Y683612D01*
X1045096Y683471D01*
X1045100Y683330D01*
X1045100Y683190D01*
X1045096Y683049D01*
X1045088Y682908D01*
X1045076Y682768D01*
X1045060Y682628D01*
X1045040Y682488D01*
X1045016Y682349D01*
X1044989Y682211D01*
X1044957Y682074D01*
X1044922Y681938D01*
X1044883Y681802D01*
X1044840Y681668D01*
X1044793Y681535D01*
X1044743Y681404D01*
X1044688Y681274D01*
X1044631Y681145D01*
X1044569Y681018D01*
X1044504Y680893D01*
X1044436Y680770D01*
X1044364Y680649D01*
X1044289Y680530D01*
X1044210Y680413D01*
X1044128Y680298D01*
X1044043Y680186D01*
X1043955Y680076D01*
X1043864Y679969D01*
X1043770Y679864D01*
X1043673Y679762D01*
X1043573Y679663D01*
X1043470Y679566D01*
X1043365Y679473D01*
X1043257Y679382D01*
X1043146Y679295D01*
X1043033Y679211D01*
X1042918Y679130D01*
X1042801Y679052D01*
X1042681Y678978D01*
X1042559Y678907D01*
X1042436Y678839D01*
X1042310Y678775D01*
X1042183Y678715D01*
X1042054Y678658D01*
X1041924Y678604D01*
X1041792Y678555D01*
X1041658Y678509D01*
X1041524Y678467D01*
X1041388Y678429D01*
X1041252Y678394D01*
X1041114Y678364D01*
X1040976Y678337D01*
X1040837Y678315D01*
X1040697Y678296D01*
X1040557Y678281D01*
X1040417Y678270D01*
X1040276Y678263D01*
X1040135Y678260D01*
X1039994Y678261D01*
X1039854Y678266D01*
X1039713Y678275D01*
X1039573Y678288D01*
X1039433Y678305D01*
X1039293Y678325D01*
X1039155Y678350D01*
X1039017Y678379D01*
X1038880Y678411D01*
X1038744Y678447D01*
X1038609Y678488D01*
X1038475Y678532D01*
X1038342Y678579D01*
X1038211Y678631D01*
X1038081Y678686D01*
X1037953Y678744D01*
X1037827Y678807D01*
X1037702Y678872D01*
X1037580Y678942D01*
X1037459Y679014D01*
X1037340Y679090D01*
X1037224Y679170D01*
X1037110Y679253D01*
X1036998Y679338D01*
X1036889Y679427D01*
X1036782Y679519D01*
X1036678Y679614D01*
X1036577Y679712D01*
X1036478Y679813D01*
X1036383Y679916D01*
X1036290Y680022D01*
X1036200Y680131D01*
X1036114Y680242D01*
X1036030Y680355D01*
X1035950Y680471D01*
X1035873Y680589D01*
X1035800Y680709D01*
X1035729Y680832D01*
X1035663Y680956D01*
X1035600Y681082D01*
X1035540Y681209D01*
X1035484Y681338D01*
X1035432Y681469D01*
X1035383Y681601D01*
X1035338Y681735D01*
X1035297Y681870D01*
X1035260Y682006D01*
X1035226Y682142D01*
X1035197Y682280D01*
X1035171Y682419D01*
X1035150Y682558D01*
X1035132Y682698D01*
X1035118Y682838D01*
X1035108Y682978D01*
X1035102Y683119D01*
X1035100Y683260D01*
X1203960Y508000D02*
X1203965Y508374D01*
X1203978Y508748D01*
X1204001Y509121D01*
X1204033Y509494D01*
X1204075Y509866D01*
X1204125Y510236D01*
X1204184Y510605D01*
X1204253Y510973D01*
X1204330Y511339D01*
X1204417Y511703D01*
X1204512Y512065D01*
X1204616Y512424D01*
X1204729Y512781D01*
X1204851Y513134D01*
X1204981Y513485D01*
X1205120Y513832D01*
X1205267Y514176D01*
X1205423Y514516D01*
X1205587Y514852D01*
X1205760Y515184D01*
X1205940Y515512D01*
X1206128Y515835D01*
X1206324Y516153D01*
X1206528Y516467D01*
X1206740Y516775D01*
X1206959Y517078D01*
X1207186Y517376D01*
X1207419Y517668D01*
X1207660Y517954D01*
X1207908Y518235D01*
X1208162Y518509D01*
X1208424Y518776D01*
X1208691Y519038D01*
X1208965Y519292D01*
X1209246Y519540D01*
X1209532Y519781D01*
X1209824Y520014D01*
X1210122Y520241D01*
X1210425Y520460D01*
X1210733Y520672D01*
X1211047Y520876D01*
X1211365Y521072D01*
X1211688Y521260D01*
X1212016Y521440D01*
X1212348Y521613D01*
X1212684Y521777D01*
X1213024Y521933D01*
X1213368Y522080D01*
X1213715Y522219D01*
X1214066Y522349D01*
X1214419Y522471D01*
X1214776Y522584D01*
X1215135Y522688D01*
X1215497Y522783D01*
X1215861Y522870D01*
X1216227Y522947D01*
X1216595Y523016D01*
X1216964Y523075D01*
X1217334Y523125D01*
X1217706Y523167D01*
X1218079Y523199D01*
X1218452Y523222D01*
X1218826Y523235D01*
X1219200Y523240D01*
X1219574Y523235D01*
X1219948Y523222D01*
X1220321Y523199D01*
X1220694Y523167D01*
X1221066Y523125D01*
X1221436Y523075D01*
X1221805Y523016D01*
X1222173Y522947D01*
X1222539Y522870D01*
X1222903Y522783D01*
X1223265Y522688D01*
X1223624Y522584D01*
X1223981Y522471D01*
X1224334Y522349D01*
X1224685Y522219D01*
X1225032Y522080D01*
X1225376Y521933D01*
X1225716Y521777D01*
X1226052Y521613D01*
X1226384Y521440D01*
X1226712Y521260D01*
X1227035Y521072D01*
X1227353Y520876D01*
X1227667Y520672D01*
X1227975Y520460D01*
X1228278Y520241D01*
X1228576Y520014D01*
X1228868Y519781D01*
X1229154Y519540D01*
X1229435Y519292D01*
X1229709Y519038D01*
X1229976Y518776D01*
X1230238Y518509D01*
X1230492Y518235D01*
X1230740Y517954D01*
X1230981Y517668D01*
X1231214Y517376D01*
X1231441Y517078D01*
X1231660Y516775D01*
X1231872Y516467D01*
X1232076Y516153D01*
X1232272Y515835D01*
X1232460Y515512D01*
X1232640Y515184D01*
X1232813Y514852D01*
X1232977Y514516D01*
X1233133Y514176D01*
X1233280Y513832D01*
X1233419Y513485D01*
X1233549Y513134D01*
X1233671Y512781D01*
X1233784Y512424D01*
X1233888Y512065D01*
X1233983Y511703D01*
X1234070Y511339D01*
X1234147Y510973D01*
X1234216Y510605D01*
X1234275Y510236D01*
X1234325Y509866D01*
X1234367Y509494D01*
X1234399Y509121D01*
X1234422Y508748D01*
X1234435Y508374D01*
X1234440Y508000D01*
X1234435Y507626D01*
X1234422Y507252D01*
X1234399Y506879D01*
X1234367Y506506D01*
X1234325Y506134D01*
X1234275Y505764D01*
X1234216Y505395D01*
X1234147Y505027D01*
X1234070Y504661D01*
X1233983Y504297D01*
X1233888Y503935D01*
X1233784Y503576D01*
X1233671Y503219D01*
X1233549Y502866D01*
X1233419Y502515D01*
X1233280Y502168D01*
X1233133Y501824D01*
X1232977Y501484D01*
X1232813Y501148D01*
X1232640Y500816D01*
X1232460Y500488D01*
X1232272Y500165D01*
X1232076Y499847D01*
X1231872Y499533D01*
X1231660Y499225D01*
X1231441Y498922D01*
X1231214Y498624D01*
X1230981Y498332D01*
X1230740Y498046D01*
X1230492Y497765D01*
X1230238Y497491D01*
X1229976Y497224D01*
X1229709Y496962D01*
X1229435Y496708D01*
X1229154Y496460D01*
X1228868Y496219D01*
X1228576Y495986D01*
X1228278Y495759D01*
X1227975Y495540D01*
X1227667Y495328D01*
X1227353Y495124D01*
X1227035Y494928D01*
X1226712Y494740D01*
X1226384Y494560D01*
X1226052Y494387D01*
X1225716Y494223D01*
X1225376Y494067D01*
X1225032Y493920D01*
X1224685Y493781D01*
X1224334Y493651D01*
X1223981Y493529D01*
X1223624Y493416D01*
X1223265Y493312D01*
X1222903Y493217D01*
X1222539Y493130D01*
X1222173Y493053D01*
X1221805Y492984D01*
X1221436Y492925D01*
X1221066Y492875D01*
X1220694Y492833D01*
X1220321Y492801D01*
X1219948Y492778D01*
X1219574Y492765D01*
X1219200Y492760D01*
X1218826Y492765D01*
X1218452Y492778D01*
X1218079Y492801D01*
X1217706Y492833D01*
X1217334Y492875D01*
X1216964Y492925D01*
X1216595Y492984D01*
X1216227Y493053D01*
X1215861Y493130D01*
X1215497Y493217D01*
X1215135Y493312D01*
X1214776Y493416D01*
X1214419Y493529D01*
X1214066Y493651D01*
X1213715Y493781D01*
X1213368Y493920D01*
X1213024Y494067D01*
X1212684Y494223D01*
X1212348Y494387D01*
X1212016Y494560D01*
X1211688Y494740D01*
X1211365Y494928D01*
X1211047Y495124D01*
X1210733Y495328D01*
X1210425Y495540D01*
X1210122Y495759D01*
X1209824Y495986D01*
X1209532Y496219D01*
X1209246Y496460D01*
X1208965Y496708D01*
X1208691Y496962D01*
X1208424Y497224D01*
X1208162Y497491D01*
X1207908Y497765D01*
X1207660Y498046D01*
X1207419Y498332D01*
X1207186Y498624D01*
X1206959Y498922D01*
X1206740Y499225D01*
X1206528Y499533D01*
X1206324Y499847D01*
X1206128Y500165D01*
X1205940Y500488D01*
X1205760Y500816D01*
X1205587Y501148D01*
X1205423Y501484D01*
X1205267Y501824D01*
X1205120Y502168D01*
X1204981Y502515D01*
X1204851Y502866D01*
X1204729Y503219D01*
X1204616Y503576D01*
X1204512Y503935D01*
X1204417Y504297D01*
X1204330Y504661D01*
X1204253Y505027D01*
X1204184Y505395D01*
X1204125Y505764D01*
X1204075Y506134D01*
X1204033Y506506D01*
X1204001Y506879D01*
X1203978Y507252D01*
X1203965Y507626D01*
X1203960Y508000D01*
X716800Y104140D02*
X716802Y104288D01*
X716808Y104436D01*
X716818Y104584D01*
X716832Y104732D01*
X716850Y104879D01*
X716872Y105026D01*
X716898Y105172D01*
X716927Y105317D01*
X716961Y105462D01*
X716999Y105605D01*
X717040Y105748D01*
X717085Y105889D01*
X717135Y106029D01*
X717187Y106167D01*
X717244Y106305D01*
X717304Y106440D01*
X717368Y106574D01*
X717435Y106706D01*
X717506Y106836D01*
X717581Y106965D01*
X717659Y107091D01*
X717740Y107215D01*
X717824Y107337D01*
X717912Y107456D01*
X718003Y107573D01*
X718097Y107688D01*
X718195Y107800D01*
X718295Y107909D01*
X718398Y108016D01*
X718504Y108120D01*
X718612Y108221D01*
X718724Y108319D01*
X718838Y108414D01*
X718954Y108505D01*
X719073Y108594D01*
X719194Y108679D01*
X719318Y108761D01*
X719444Y108840D01*
X719571Y108915D01*
X719701Y108987D01*
X719833Y109056D01*
X719966Y109120D01*
X720101Y109181D01*
X720238Y109239D01*
X720376Y109293D01*
X720516Y109343D01*
X720657Y109389D01*
X720799Y109431D01*
X720942Y109470D01*
X721086Y109504D01*
X721232Y109535D01*
X721377Y109562D01*
X721524Y109585D01*
X721671Y109604D01*
X721819Y109619D01*
X721966Y109630D01*
X722115Y109637D01*
X722263Y109640D01*
X722411Y109639D01*
X722559Y109634D01*
X722707Y109625D01*
X722855Y109612D01*
X723003Y109595D01*
X723149Y109574D01*
X723296Y109549D01*
X723441Y109520D01*
X723586Y109488D01*
X723729Y109451D01*
X723872Y109411D01*
X724014Y109366D01*
X724154Y109318D01*
X724293Y109266D01*
X724430Y109211D01*
X724566Y109151D01*
X724701Y109088D01*
X724833Y109022D01*
X724964Y108952D01*
X725093Y108878D01*
X725219Y108801D01*
X725344Y108721D01*
X725466Y108637D01*
X725587Y108550D01*
X725704Y108460D01*
X725820Y108366D01*
X725932Y108270D01*
X726042Y108171D01*
X726150Y108068D01*
X726254Y107963D01*
X726356Y107855D01*
X726454Y107744D01*
X726550Y107631D01*
X726643Y107515D01*
X726732Y107397D01*
X726818Y107276D01*
X726901Y107153D01*
X726981Y107028D01*
X727057Y106901D01*
X727130Y106771D01*
X727199Y106640D01*
X727264Y106507D01*
X727327Y106373D01*
X727385Y106236D01*
X727440Y106098D01*
X727490Y105959D01*
X727538Y105818D01*
X727581Y105677D01*
X727621Y105534D01*
X727656Y105390D01*
X727688Y105245D01*
X727716Y105099D01*
X727740Y104953D01*
X727760Y104806D01*
X727776Y104658D01*
X727788Y104511D01*
X727796Y104362D01*
X727800Y104214D01*
X727800Y104066D01*
X727796Y103918D01*
X727788Y103769D01*
X727776Y103622D01*
X727760Y103474D01*
X727740Y103327D01*
X727716Y103181D01*
X727688Y103035D01*
X727656Y102890D01*
X727621Y102746D01*
X727581Y102603D01*
X727538Y102462D01*
X727490Y102321D01*
X727440Y102182D01*
X727385Y102044D01*
X727327Y101907D01*
X727264Y101773D01*
X727199Y101640D01*
X727130Y101509D01*
X727057Y101379D01*
X726981Y101252D01*
X726901Y101127D01*
X726818Y101004D01*
X726732Y100883D01*
X726643Y100765D01*
X726550Y100649D01*
X726454Y100536D01*
X726356Y100425D01*
X726254Y100317D01*
X726150Y100212D01*
X726042Y100109D01*
X725932Y100010D01*
X725820Y99914D01*
X725704Y99820D01*
X725587Y99730D01*
X725466Y99643D01*
X725344Y99559D01*
X725219Y99479D01*
X725093Y99402D01*
X724964Y99328D01*
X724833Y99258D01*
X724701Y99192D01*
X724566Y99129D01*
X724430Y99069D01*
X724293Y99014D01*
X724154Y98962D01*
X724014Y98914D01*
X723872Y98869D01*
X723729Y98829D01*
X723586Y98792D01*
X723441Y98760D01*
X723296Y98731D01*
X723149Y98706D01*
X723003Y98685D01*
X722855Y98668D01*
X722707Y98655D01*
X722559Y98646D01*
X722411Y98641D01*
X722263Y98640D01*
X722115Y98643D01*
X721966Y98650D01*
X721819Y98661D01*
X721671Y98676D01*
X721524Y98695D01*
X721377Y98718D01*
X721232Y98745D01*
X721086Y98776D01*
X720942Y98810D01*
X720799Y98849D01*
X720657Y98891D01*
X720516Y98937D01*
X720376Y98987D01*
X720238Y99041D01*
X720101Y99099D01*
X719966Y99160D01*
X719833Y99224D01*
X719701Y99293D01*
X719571Y99365D01*
X719444Y99440D01*
X719318Y99519D01*
X719194Y99601D01*
X719073Y99686D01*
X718954Y99775D01*
X718838Y99866D01*
X718724Y99961D01*
X718612Y100059D01*
X718504Y100160D01*
X718398Y100264D01*
X718295Y100371D01*
X718195Y100480D01*
X718097Y100592D01*
X718003Y100707D01*
X717912Y100824D01*
X717824Y100943D01*
X717740Y101065D01*
X717659Y101189D01*
X717581Y101315D01*
X717506Y101444D01*
X717435Y101574D01*
X717368Y101706D01*
X717304Y101840D01*
X717244Y101975D01*
X717187Y102113D01*
X717135Y102251D01*
X717085Y102391D01*
X717040Y102532D01*
X716999Y102675D01*
X716961Y102818D01*
X716927Y102963D01*
X716898Y103108D01*
X716872Y103254D01*
X716850Y103401D01*
X716832Y103548D01*
X716818Y103696D01*
X716808Y103844D01*
X716802Y103992D01*
X716800Y104140D01*
X514300Y104140D02*
X514302Y104336D01*
X514310Y104533D01*
X514322Y104729D01*
X514339Y104924D01*
X514360Y105119D01*
X514387Y105314D01*
X514418Y105508D01*
X514454Y105701D01*
X514494Y105893D01*
X514540Y106084D01*
X514590Y106274D01*
X514644Y106462D01*
X514704Y106649D01*
X514768Y106835D01*
X514836Y107019D01*
X514909Y107201D01*
X514986Y107382D01*
X515068Y107560D01*
X515154Y107737D01*
X515245Y107911D01*
X515339Y108083D01*
X515438Y108253D01*
X515541Y108420D01*
X515648Y108585D01*
X515759Y108746D01*
X515874Y108906D01*
X515993Y109062D01*
X516116Y109215D01*
X516242Y109365D01*
X516372Y109512D01*
X516506Y109656D01*
X516643Y109797D01*
X516784Y109934D01*
X516928Y110068D01*
X517075Y110198D01*
X517225Y110324D01*
X517378Y110447D01*
X517534Y110566D01*
X517694Y110681D01*
X517855Y110792D01*
X518020Y110899D01*
X518187Y111002D01*
X518357Y111101D01*
X518529Y111195D01*
X518703Y111286D01*
X518880Y111372D01*
X519058Y111454D01*
X519239Y111531D01*
X519421Y111604D01*
X519605Y111672D01*
X519791Y111736D01*
X519978Y111796D01*
X520166Y111850D01*
X520356Y111900D01*
X520547Y111946D01*
X520739Y111986D01*
X520932Y112022D01*
X521126Y112053D01*
X521321Y112080D01*
X521516Y112101D01*
X521711Y112118D01*
X521907Y112130D01*
X522104Y112138D01*
X522300Y112140D01*
X522496Y112138D01*
X522693Y112130D01*
X522889Y112118D01*
X523084Y112101D01*
X523279Y112080D01*
X523474Y112053D01*
X523668Y112022D01*
X523861Y111986D01*
X524053Y111946D01*
X524244Y111900D01*
X524434Y111850D01*
X524622Y111796D01*
X524809Y111736D01*
X524995Y111672D01*
X525179Y111604D01*
X525361Y111531D01*
X525542Y111454D01*
X525720Y111372D01*
X525897Y111286D01*
X526071Y111195D01*
X526243Y111101D01*
X526413Y111002D01*
X526580Y110899D01*
X526745Y110792D01*
X526906Y110681D01*
X527066Y110566D01*
X527222Y110447D01*
X527375Y110324D01*
X527525Y110198D01*
X527672Y110068D01*
X527816Y109934D01*
X527957Y109797D01*
X528094Y109656D01*
X528228Y109512D01*
X528358Y109365D01*
X528484Y109215D01*
X528607Y109062D01*
X528726Y108906D01*
X528841Y108746D01*
X528952Y108585D01*
X529059Y108420D01*
X529162Y108253D01*
X529261Y108083D01*
X529355Y107911D01*
X529446Y107737D01*
X529532Y107560D01*
X529614Y107382D01*
X529691Y107201D01*
X529764Y107019D01*
X529832Y106835D01*
X529896Y106649D01*
X529956Y106462D01*
X530010Y106274D01*
X530060Y106084D01*
X530106Y105893D01*
X530146Y105701D01*
X530182Y105508D01*
X530213Y105314D01*
X530240Y105119D01*
X530261Y104924D01*
X530278Y104729D01*
X530290Y104533D01*
X530298Y104336D01*
X530300Y104140D01*
X530298Y103944D01*
X530290Y103747D01*
X530278Y103551D01*
X530261Y103356D01*
X530240Y103161D01*
X530213Y102966D01*
X530182Y102772D01*
X530146Y102579D01*
X530106Y102387D01*
X530060Y102196D01*
X530010Y102006D01*
X529956Y101818D01*
X529896Y101631D01*
X529832Y101445D01*
X529764Y101261D01*
X529691Y101079D01*
X529614Y100898D01*
X529532Y100720D01*
X529446Y100543D01*
X529355Y100369D01*
X529261Y100197D01*
X529162Y100027D01*
X529059Y99860D01*
X528952Y99695D01*
X528841Y99534D01*
X528726Y99374D01*
X528607Y99218D01*
X528484Y99065D01*
X528358Y98915D01*
X528228Y98768D01*
X528094Y98624D01*
X527957Y98483D01*
X527816Y98346D01*
X527672Y98212D01*
X527525Y98082D01*
X527375Y97956D01*
X527222Y97833D01*
X527066Y97714D01*
X526906Y97599D01*
X526745Y97488D01*
X526580Y97381D01*
X526413Y97278D01*
X526243Y97179D01*
X526071Y97085D01*
X525897Y96994D01*
X525720Y96908D01*
X525542Y96826D01*
X525361Y96749D01*
X525179Y96676D01*
X524995Y96608D01*
X524809Y96544D01*
X524622Y96484D01*
X524434Y96430D01*
X524244Y96380D01*
X524053Y96334D01*
X523861Y96294D01*
X523668Y96258D01*
X523474Y96227D01*
X523279Y96200D01*
X523084Y96179D01*
X522889Y96162D01*
X522693Y96150D01*
X522496Y96142D01*
X522300Y96140D01*
X522104Y96142D01*
X521907Y96150D01*
X521711Y96162D01*
X521516Y96179D01*
X521321Y96200D01*
X521126Y96227D01*
X520932Y96258D01*
X520739Y96294D01*
X520547Y96334D01*
X520356Y96380D01*
X520166Y96430D01*
X519978Y96484D01*
X519791Y96544D01*
X519605Y96608D01*
X519421Y96676D01*
X519239Y96749D01*
X519058Y96826D01*
X518880Y96908D01*
X518703Y96994D01*
X518529Y97085D01*
X518357Y97179D01*
X518187Y97278D01*
X518020Y97381D01*
X517855Y97488D01*
X517694Y97599D01*
X517534Y97714D01*
X517378Y97833D01*
X517225Y97956D01*
X517075Y98082D01*
X516928Y98212D01*
X516784Y98346D01*
X516643Y98483D01*
X516506Y98624D01*
X516372Y98768D01*
X516242Y98915D01*
X516116Y99065D01*
X515993Y99218D01*
X515874Y99374D01*
X515759Y99534D01*
X515648Y99695D01*
X515541Y99860D01*
X515438Y100027D01*
X515339Y100197D01*
X515245Y100369D01*
X515154Y100543D01*
X515068Y100720D01*
X514986Y100898D01*
X514909Y101079D01*
X514836Y101261D01*
X514768Y101445D01*
X514704Y101631D01*
X514644Y101818D01*
X514590Y102006D01*
X514540Y102196D01*
X514494Y102387D01*
X514454Y102579D01*
X514418Y102772D01*
X514387Y102966D01*
X514360Y103161D01*
X514339Y103356D01*
X514322Y103551D01*
X514310Y103747D01*
X514302Y103944D01*
X514300Y104140D01*
X333260Y104140D02*
X333262Y104288D01*
X333268Y104436D01*
X333278Y104584D01*
X333292Y104732D01*
X333310Y104879D01*
X333332Y105026D01*
X333358Y105172D01*
X333387Y105317D01*
X333421Y105462D01*
X333459Y105605D01*
X333500Y105748D01*
X333545Y105889D01*
X333595Y106029D01*
X333647Y106167D01*
X333704Y106305D01*
X333764Y106440D01*
X333828Y106574D01*
X333895Y106706D01*
X333966Y106836D01*
X334041Y106965D01*
X334119Y107091D01*
X334200Y107215D01*
X334284Y107337D01*
X334372Y107456D01*
X334463Y107573D01*
X334557Y107688D01*
X334655Y107800D01*
X334755Y107909D01*
X334858Y108016D01*
X334964Y108120D01*
X335072Y108221D01*
X335184Y108319D01*
X335298Y108414D01*
X335414Y108505D01*
X335533Y108594D01*
X335654Y108679D01*
X335778Y108761D01*
X335904Y108840D01*
X336031Y108915D01*
X336161Y108987D01*
X336293Y109056D01*
X336426Y109120D01*
X336561Y109181D01*
X336698Y109239D01*
X336836Y109293D01*
X336976Y109343D01*
X337117Y109389D01*
X337259Y109431D01*
X337402Y109470D01*
X337546Y109504D01*
X337692Y109535D01*
X337837Y109562D01*
X337984Y109585D01*
X338131Y109604D01*
X338279Y109619D01*
X338426Y109630D01*
X338575Y109637D01*
X338723Y109640D01*
X338871Y109639D01*
X339019Y109634D01*
X339167Y109625D01*
X339315Y109612D01*
X339463Y109595D01*
X339609Y109574D01*
X339756Y109549D01*
X339901Y109520D01*
X340046Y109488D01*
X340189Y109451D01*
X340332Y109411D01*
X340474Y109366D01*
X340614Y109318D01*
X340753Y109266D01*
X340890Y109211D01*
X341026Y109151D01*
X341161Y109088D01*
X341293Y109022D01*
X341424Y108952D01*
X341553Y108878D01*
X341679Y108801D01*
X341804Y108721D01*
X341926Y108637D01*
X342047Y108550D01*
X342164Y108460D01*
X342280Y108366D01*
X342392Y108270D01*
X342502Y108171D01*
X342610Y108068D01*
X342714Y107963D01*
X342816Y107855D01*
X342914Y107744D01*
X343010Y107631D01*
X343103Y107515D01*
X343192Y107397D01*
X343278Y107276D01*
X343361Y107153D01*
X343441Y107028D01*
X343517Y106901D01*
X343590Y106771D01*
X343659Y106640D01*
X343724Y106507D01*
X343787Y106373D01*
X343845Y106236D01*
X343900Y106098D01*
X343950Y105959D01*
X343998Y105818D01*
X344041Y105677D01*
X344081Y105534D01*
X344116Y105390D01*
X344148Y105245D01*
X344176Y105099D01*
X344200Y104953D01*
X344220Y104806D01*
X344236Y104658D01*
X344248Y104511D01*
X344256Y104362D01*
X344260Y104214D01*
X344260Y104066D01*
X344256Y103918D01*
X344248Y103769D01*
X344236Y103622D01*
X344220Y103474D01*
X344200Y103327D01*
X344176Y103181D01*
X344148Y103035D01*
X344116Y102890D01*
X344081Y102746D01*
X344041Y102603D01*
X343998Y102462D01*
X343950Y102321D01*
X343900Y102182D01*
X343845Y102044D01*
X343787Y101907D01*
X343724Y101773D01*
X343659Y101640D01*
X343590Y101509D01*
X343517Y101379D01*
X343441Y101252D01*
X343361Y101127D01*
X343278Y101004D01*
X343192Y100883D01*
X343103Y100765D01*
X343010Y100649D01*
X342914Y100536D01*
X342816Y100425D01*
X342714Y100317D01*
X342610Y100212D01*
X342502Y100109D01*
X342392Y100010D01*
X342280Y99914D01*
X342164Y99820D01*
X342047Y99730D01*
X341926Y99643D01*
X341804Y99559D01*
X341679Y99479D01*
X341553Y99402D01*
X341424Y99328D01*
X341293Y99258D01*
X341161Y99192D01*
X341026Y99129D01*
X340890Y99069D01*
X340753Y99014D01*
X340614Y98962D01*
X340474Y98914D01*
X340332Y98869D01*
X340189Y98829D01*
X340046Y98792D01*
X339901Y98760D01*
X339756Y98731D01*
X339609Y98706D01*
X339463Y98685D01*
X339315Y98668D01*
X339167Y98655D01*
X339019Y98646D01*
X338871Y98641D01*
X338723Y98640D01*
X338575Y98643D01*
X338426Y98650D01*
X338279Y98661D01*
X338131Y98676D01*
X337984Y98695D01*
X337837Y98718D01*
X337692Y98745D01*
X337546Y98776D01*
X337402Y98810D01*
X337259Y98849D01*
X337117Y98891D01*
X336976Y98937D01*
X336836Y98987D01*
X336698Y99041D01*
X336561Y99099D01*
X336426Y99160D01*
X336293Y99224D01*
X336161Y99293D01*
X336031Y99365D01*
X335904Y99440D01*
X335778Y99519D01*
X335654Y99601D01*
X335533Y99686D01*
X335414Y99775D01*
X335298Y99866D01*
X335184Y99961D01*
X335072Y100059D01*
X334964Y100160D01*
X334858Y100264D01*
X334755Y100371D01*
X334655Y100480D01*
X334557Y100592D01*
X334463Y100707D01*
X334372Y100824D01*
X334284Y100943D01*
X334200Y101065D01*
X334119Y101189D01*
X334041Y101315D01*
X333966Y101444D01*
X333895Y101574D01*
X333828Y101706D01*
X333764Y101840D01*
X333704Y101975D01*
X333647Y102113D01*
X333595Y102251D01*
X333545Y102391D01*
X333500Y102532D01*
X333459Y102675D01*
X333421Y102818D01*
X333387Y102963D01*
X333358Y103108D01*
X333332Y103254D01*
X333310Y103401D01*
X333292Y103548D01*
X333278Y103696D01*
X333268Y103844D01*
X333262Y103992D01*
X333260Y104140D01*
X130760Y104140D02*
X130762Y104336D01*
X130770Y104533D01*
X130782Y104729D01*
X130799Y104924D01*
X130820Y105119D01*
X130847Y105314D01*
X130878Y105508D01*
X130914Y105701D01*
X130954Y105893D01*
X131000Y106084D01*
X131050Y106274D01*
X131104Y106462D01*
X131164Y106649D01*
X131228Y106835D01*
X131296Y107019D01*
X131369Y107201D01*
X131446Y107382D01*
X131528Y107560D01*
X131614Y107737D01*
X131705Y107911D01*
X131799Y108083D01*
X131898Y108253D01*
X132001Y108420D01*
X132108Y108585D01*
X132219Y108746D01*
X132334Y108906D01*
X132453Y109062D01*
X132576Y109215D01*
X132702Y109365D01*
X132832Y109512D01*
X132966Y109656D01*
X133103Y109797D01*
X133244Y109934D01*
X133388Y110068D01*
X133535Y110198D01*
X133685Y110324D01*
X133838Y110447D01*
X133994Y110566D01*
X134154Y110681D01*
X134315Y110792D01*
X134480Y110899D01*
X134647Y111002D01*
X134817Y111101D01*
X134989Y111195D01*
X135163Y111286D01*
X135340Y111372D01*
X135518Y111454D01*
X135699Y111531D01*
X135881Y111604D01*
X136065Y111672D01*
X136251Y111736D01*
X136438Y111796D01*
X136626Y111850D01*
X136816Y111900D01*
X137007Y111946D01*
X137199Y111986D01*
X137392Y112022D01*
X137586Y112053D01*
X137781Y112080D01*
X137976Y112101D01*
X138171Y112118D01*
X138367Y112130D01*
X138564Y112138D01*
X138760Y112140D01*
X138956Y112138D01*
X139153Y112130D01*
X139349Y112118D01*
X139544Y112101D01*
X139739Y112080D01*
X139934Y112053D01*
X140128Y112022D01*
X140321Y111986D01*
X140513Y111946D01*
X140704Y111900D01*
X140894Y111850D01*
X141082Y111796D01*
X141269Y111736D01*
X141455Y111672D01*
X141639Y111604D01*
X141821Y111531D01*
X142002Y111454D01*
X142180Y111372D01*
X142357Y111286D01*
X142531Y111195D01*
X142703Y111101D01*
X142873Y111002D01*
X143040Y110899D01*
X143205Y110792D01*
X143366Y110681D01*
X143526Y110566D01*
X143682Y110447D01*
X143835Y110324D01*
X143985Y110198D01*
X144132Y110068D01*
X144276Y109934D01*
X144417Y109797D01*
X144554Y109656D01*
X144688Y109512D01*
X144818Y109365D01*
X144944Y109215D01*
X145067Y109062D01*
X145186Y108906D01*
X145301Y108746D01*
X145412Y108585D01*
X145519Y108420D01*
X145622Y108253D01*
X145721Y108083D01*
X145815Y107911D01*
X145906Y107737D01*
X145992Y107560D01*
X146074Y107382D01*
X146151Y107201D01*
X146224Y107019D01*
X146292Y106835D01*
X146356Y106649D01*
X146416Y106462D01*
X146470Y106274D01*
X146520Y106084D01*
X146566Y105893D01*
X146606Y105701D01*
X146642Y105508D01*
X146673Y105314D01*
X146700Y105119D01*
X146721Y104924D01*
X146738Y104729D01*
X146750Y104533D01*
X146758Y104336D01*
X146760Y104140D01*
X146758Y103944D01*
X146750Y103747D01*
X146738Y103551D01*
X146721Y103356D01*
X146700Y103161D01*
X146673Y102966D01*
X146642Y102772D01*
X146606Y102579D01*
X146566Y102387D01*
X146520Y102196D01*
X146470Y102006D01*
X146416Y101818D01*
X146356Y101631D01*
X146292Y101445D01*
X146224Y101261D01*
X146151Y101079D01*
X146074Y100898D01*
X145992Y100720D01*
X145906Y100543D01*
X145815Y100369D01*
X145721Y100197D01*
X145622Y100027D01*
X145519Y99860D01*
X145412Y99695D01*
X145301Y99534D01*
X145186Y99374D01*
X145067Y99218D01*
X144944Y99065D01*
X144818Y98915D01*
X144688Y98768D01*
X144554Y98624D01*
X144417Y98483D01*
X144276Y98346D01*
X144132Y98212D01*
X143985Y98082D01*
X143835Y97956D01*
X143682Y97833D01*
X143526Y97714D01*
X143366Y97599D01*
X143205Y97488D01*
X143040Y97381D01*
X142873Y97278D01*
X142703Y97179D01*
X142531Y97085D01*
X142357Y96994D01*
X142180Y96908D01*
X142002Y96826D01*
X141821Y96749D01*
X141639Y96676D01*
X141455Y96608D01*
X141269Y96544D01*
X141082Y96484D01*
X140894Y96430D01*
X140704Y96380D01*
X140513Y96334D01*
X140321Y96294D01*
X140128Y96258D01*
X139934Y96227D01*
X139739Y96200D01*
X139544Y96179D01*
X139349Y96162D01*
X139153Y96150D01*
X138956Y96142D01*
X138760Y96140D01*
X138564Y96142D01*
X138367Y96150D01*
X138171Y96162D01*
X137976Y96179D01*
X137781Y96200D01*
X137586Y96227D01*
X137392Y96258D01*
X137199Y96294D01*
X137007Y96334D01*
X136816Y96380D01*
X136626Y96430D01*
X136438Y96484D01*
X136251Y96544D01*
X136065Y96608D01*
X135881Y96676D01*
X135699Y96749D01*
X135518Y96826D01*
X135340Y96908D01*
X135163Y96994D01*
X134989Y97085D01*
X134817Y97179D01*
X134647Y97278D01*
X134480Y97381D01*
X134315Y97488D01*
X134154Y97599D01*
X133994Y97714D01*
X133838Y97833D01*
X133685Y97956D01*
X133535Y98082D01*
X133388Y98212D01*
X133244Y98346D01*
X133103Y98483D01*
X132966Y98624D01*
X132832Y98768D01*
X132702Y98915D01*
X132576Y99065D01*
X132453Y99218D01*
X132334Y99374D01*
X132219Y99534D01*
X132108Y99695D01*
X132001Y99860D01*
X131898Y100027D01*
X131799Y100197D01*
X131705Y100369D01*
X131614Y100543D01*
X131528Y100720D01*
X131446Y100898D01*
X131369Y101079D01*
X131296Y101261D01*
X131228Y101445D01*
X131164Y101631D01*
X131104Y101818D01*
X131050Y102006D01*
X131000Y102196D01*
X130954Y102387D01*
X130914Y102579D01*
X130878Y102772D01*
X130847Y102966D01*
X130820Y103161D01*
X130799Y103356D01*
X130782Y103551D01*
X130770Y103747D01*
X130762Y103944D01*
X130760Y104140D01*
X945220Y33020D02*
X945222Y33154D01*
X945228Y33288D01*
X945238Y33421D01*
X945252Y33555D01*
X945270Y33688D01*
X945292Y33820D01*
X945317Y33951D01*
X945347Y34082D01*
X945381Y34212D01*
X945418Y34340D01*
X945459Y34468D01*
X945504Y34594D01*
X945553Y34719D01*
X945605Y34842D01*
X945661Y34964D01*
X945721Y35084D01*
X945784Y35202D01*
X945851Y35318D01*
X945921Y35432D01*
X945995Y35544D01*
X946072Y35654D01*
X946152Y35762D01*
X946235Y35867D01*
X946321Y35969D01*
X946410Y36069D01*
X946503Y36166D01*
X946598Y36261D01*
X946696Y36352D01*
X946796Y36441D01*
X946899Y36526D01*
X947005Y36609D01*
X947113Y36688D01*
X947223Y36764D01*
X947336Y36837D01*
X947451Y36906D01*
X947567Y36972D01*
X947686Y37034D01*
X947806Y37093D01*
X947929Y37148D01*
X948052Y37200D01*
X948177Y37247D01*
X948304Y37291D01*
X948432Y37332D01*
X948561Y37368D01*
X948691Y37401D01*
X948822Y37429D01*
X948953Y37454D01*
X949086Y37475D01*
X949219Y37492D01*
X949352Y37505D01*
X949486Y37514D01*
X949620Y37519D01*
X949754Y37520D01*
X949887Y37517D01*
X950021Y37510D01*
X950155Y37499D01*
X950288Y37484D01*
X950421Y37465D01*
X950553Y37442D01*
X950684Y37416D01*
X950814Y37385D01*
X950944Y37350D01*
X951072Y37312D01*
X951199Y37270D01*
X951325Y37224D01*
X951450Y37174D01*
X951573Y37121D01*
X951694Y37064D01*
X951814Y37003D01*
X951931Y36939D01*
X952047Y36872D01*
X952161Y36801D01*
X952272Y36726D01*
X952381Y36649D01*
X952488Y36568D01*
X952593Y36484D01*
X952694Y36397D01*
X952794Y36307D01*
X952890Y36214D01*
X952984Y36118D01*
X953075Y36019D01*
X953162Y35918D01*
X953247Y35814D01*
X953329Y35708D01*
X953407Y35600D01*
X953482Y35489D01*
X953554Y35376D01*
X953623Y35260D01*
X953688Y35143D01*
X953749Y35024D01*
X953807Y34903D01*
X953861Y34781D01*
X953912Y34657D01*
X953959Y34531D01*
X954002Y34404D01*
X954041Y34276D01*
X954077Y34147D01*
X954108Y34017D01*
X954136Y33886D01*
X954160Y33754D01*
X954180Y33621D01*
X954196Y33488D01*
X954208Y33355D01*
X954216Y33221D01*
X954220Y33087D01*
X954220Y32953D01*
X954216Y32819D01*
X954208Y32685D01*
X954196Y32552D01*
X954180Y32419D01*
X954160Y32286D01*
X954136Y32154D01*
X954108Y32023D01*
X954077Y31893D01*
X954041Y31764D01*
X954002Y31636D01*
X953959Y31509D01*
X953912Y31383D01*
X953861Y31259D01*
X953807Y31137D01*
X953749Y31016D01*
X953688Y30897D01*
X953623Y30780D01*
X953554Y30664D01*
X953482Y30551D01*
X953407Y30440D01*
X953329Y30332D01*
X953247Y30226D01*
X953162Y30122D01*
X953075Y30021D01*
X952984Y29922D01*
X952890Y29826D01*
X952794Y29733D01*
X952694Y29643D01*
X952593Y29556D01*
X952488Y29472D01*
X952381Y29391D01*
X952272Y29314D01*
X952161Y29239D01*
X952047Y29168D01*
X951931Y29101D01*
X951814Y29037D01*
X951694Y28976D01*
X951573Y28919D01*
X951450Y28866D01*
X951325Y28816D01*
X951199Y28770D01*
X951072Y28728D01*
X950944Y28690D01*
X950814Y28655D01*
X950684Y28624D01*
X950553Y28598D01*
X950421Y28575D01*
X950288Y28556D01*
X950155Y28541D01*
X950021Y28530D01*
X949887Y28523D01*
X949754Y28520D01*
X949620Y28521D01*
X949486Y28526D01*
X949352Y28535D01*
X949219Y28548D01*
X949086Y28565D01*
X948953Y28586D01*
X948822Y28611D01*
X948691Y28639D01*
X948561Y28672D01*
X948432Y28708D01*
X948304Y28749D01*
X948177Y28793D01*
X948052Y28840D01*
X947929Y28892D01*
X947806Y28947D01*
X947686Y29006D01*
X947567Y29068D01*
X947451Y29134D01*
X947336Y29203D01*
X947223Y29276D01*
X947113Y29352D01*
X947005Y29431D01*
X946899Y29514D01*
X946796Y29599D01*
X946696Y29688D01*
X946598Y29779D01*
X946503Y29874D01*
X946410Y29971D01*
X946321Y30071D01*
X946235Y30173D01*
X946152Y30278D01*
X946072Y30386D01*
X945995Y30496D01*
X945921Y30608D01*
X945851Y30722D01*
X945784Y30838D01*
X945721Y30956D01*
X945661Y31076D01*
X945605Y31198D01*
X945553Y31321D01*
X945504Y31446D01*
X945459Y31572D01*
X945418Y31700D01*
X945381Y31828D01*
X945347Y31958D01*
X945317Y32089D01*
X945292Y32220D01*
X945270Y32352D01*
X945252Y32485D01*
X945238Y32619D01*
X945228Y32752D01*
X945222Y32886D01*
X945220Y33020D01*
X915220Y33020D02*
X915222Y33154D01*
X915228Y33288D01*
X915238Y33421D01*
X915252Y33555D01*
X915270Y33688D01*
X915292Y33820D01*
X915317Y33951D01*
X915347Y34082D01*
X915381Y34212D01*
X915418Y34340D01*
X915459Y34468D01*
X915504Y34594D01*
X915553Y34719D01*
X915605Y34842D01*
X915661Y34964D01*
X915721Y35084D01*
X915784Y35202D01*
X915851Y35318D01*
X915921Y35432D01*
X915995Y35544D01*
X916072Y35654D01*
X916152Y35762D01*
X916235Y35867D01*
X916321Y35969D01*
X916410Y36069D01*
X916503Y36166D01*
X916598Y36261D01*
X916696Y36352D01*
X916796Y36441D01*
X916899Y36526D01*
X917005Y36609D01*
X917113Y36688D01*
X917223Y36764D01*
X917336Y36837D01*
X917451Y36906D01*
X917567Y36972D01*
X917686Y37034D01*
X917806Y37093D01*
X917929Y37148D01*
X918052Y37200D01*
X918177Y37247D01*
X918304Y37291D01*
X918432Y37332D01*
X918561Y37368D01*
X918691Y37401D01*
X918822Y37429D01*
X918953Y37454D01*
X919086Y37475D01*
X919219Y37492D01*
X919352Y37505D01*
X919486Y37514D01*
X919620Y37519D01*
X919754Y37520D01*
X919887Y37517D01*
X920021Y37510D01*
X920155Y37499D01*
X920288Y37484D01*
X920421Y37465D01*
X920553Y37442D01*
X920684Y37416D01*
X920814Y37385D01*
X920944Y37350D01*
X921072Y37312D01*
X921199Y37270D01*
X921325Y37224D01*
X921450Y37174D01*
X921573Y37121D01*
X921694Y37064D01*
X921814Y37003D01*
X921931Y36939D01*
X922047Y36872D01*
X922161Y36801D01*
X922272Y36726D01*
X922381Y36649D01*
X922488Y36568D01*
X922593Y36484D01*
X922694Y36397D01*
X922794Y36307D01*
X922890Y36214D01*
X922984Y36118D01*
X923075Y36019D01*
X923162Y35918D01*
X923247Y35814D01*
X923329Y35708D01*
X923407Y35600D01*
X923482Y35489D01*
X923554Y35376D01*
X923623Y35260D01*
X923688Y35143D01*
X923749Y35024D01*
X923807Y34903D01*
X923861Y34781D01*
X923912Y34657D01*
X923959Y34531D01*
X924002Y34404D01*
X924041Y34276D01*
X924077Y34147D01*
X924108Y34017D01*
X924136Y33886D01*
X924160Y33754D01*
X924180Y33621D01*
X924196Y33488D01*
X924208Y33355D01*
X924216Y33221D01*
X924220Y33087D01*
X924220Y32953D01*
X924216Y32819D01*
X924208Y32685D01*
X924196Y32552D01*
X924180Y32419D01*
X924160Y32286D01*
X924136Y32154D01*
X924108Y32023D01*
X924077Y31893D01*
X924041Y31764D01*
X924002Y31636D01*
X923959Y31509D01*
X923912Y31383D01*
X923861Y31259D01*
X923807Y31137D01*
X923749Y31016D01*
X923688Y30897D01*
X923623Y30780D01*
X923554Y30664D01*
X923482Y30551D01*
X923407Y30440D01*
X923329Y30332D01*
X923247Y30226D01*
X923162Y30122D01*
X923075Y30021D01*
X922984Y29922D01*
X922890Y29826D01*
X922794Y29733D01*
X922694Y29643D01*
X922593Y29556D01*
X922488Y29472D01*
X922381Y29391D01*
X922272Y29314D01*
X922161Y29239D01*
X922047Y29168D01*
X921931Y29101D01*
X921814Y29037D01*
X921694Y28976D01*
X921573Y28919D01*
X921450Y28866D01*
X921325Y28816D01*
X921199Y28770D01*
X921072Y28728D01*
X920944Y28690D01*
X920814Y28655D01*
X920684Y28624D01*
X920553Y28598D01*
X920421Y28575D01*
X920288Y28556D01*
X920155Y28541D01*
X920021Y28530D01*
X919887Y28523D01*
X919754Y28520D01*
X919620Y28521D01*
X919486Y28526D01*
X919352Y28535D01*
X919219Y28548D01*
X919086Y28565D01*
X918953Y28586D01*
X918822Y28611D01*
X918691Y28639D01*
X918561Y28672D01*
X918432Y28708D01*
X918304Y28749D01*
X918177Y28793D01*
X918052Y28840D01*
X917929Y28892D01*
X917806Y28947D01*
X917686Y29006D01*
X917567Y29068D01*
X917451Y29134D01*
X917336Y29203D01*
X917223Y29276D01*
X917113Y29352D01*
X917005Y29431D01*
X916899Y29514D01*
X916796Y29599D01*
X916696Y29688D01*
X916598Y29779D01*
X916503Y29874D01*
X916410Y29971D01*
X916321Y30071D01*
X916235Y30173D01*
X916152Y30278D01*
X916072Y30386D01*
X915995Y30496D01*
X915921Y30608D01*
X915851Y30722D01*
X915784Y30838D01*
X915721Y30956D01*
X915661Y31076D01*
X915605Y31198D01*
X915553Y31321D01*
X915504Y31446D01*
X915459Y31572D01*
X915418Y31700D01*
X915381Y31828D01*
X915347Y31958D01*
X915317Y32089D01*
X915292Y32220D01*
X915270Y32352D01*
X915252Y32485D01*
X915238Y32619D01*
X915228Y32752D01*
X915222Y32886D01*
X915220Y33020D01*
X856320Y33020D02*
X856322Y33154D01*
X856328Y33288D01*
X856338Y33421D01*
X856352Y33555D01*
X856370Y33688D01*
X856392Y33820D01*
X856417Y33951D01*
X856447Y34082D01*
X856481Y34212D01*
X856518Y34340D01*
X856559Y34468D01*
X856604Y34594D01*
X856653Y34719D01*
X856705Y34842D01*
X856761Y34964D01*
X856821Y35084D01*
X856884Y35202D01*
X856951Y35318D01*
X857021Y35432D01*
X857095Y35544D01*
X857172Y35654D01*
X857252Y35762D01*
X857335Y35867D01*
X857421Y35969D01*
X857510Y36069D01*
X857603Y36166D01*
X857698Y36261D01*
X857796Y36352D01*
X857896Y36441D01*
X857999Y36526D01*
X858105Y36609D01*
X858213Y36688D01*
X858323Y36764D01*
X858436Y36837D01*
X858551Y36906D01*
X858667Y36972D01*
X858786Y37034D01*
X858906Y37093D01*
X859029Y37148D01*
X859152Y37200D01*
X859277Y37247D01*
X859404Y37291D01*
X859532Y37332D01*
X859661Y37368D01*
X859791Y37401D01*
X859922Y37429D01*
X860053Y37454D01*
X860186Y37475D01*
X860319Y37492D01*
X860452Y37505D01*
X860586Y37514D01*
X860720Y37519D01*
X860854Y37520D01*
X860987Y37517D01*
X861121Y37510D01*
X861255Y37499D01*
X861388Y37484D01*
X861521Y37465D01*
X861653Y37442D01*
X861784Y37416D01*
X861914Y37385D01*
X862044Y37350D01*
X862172Y37312D01*
X862299Y37270D01*
X862425Y37224D01*
X862550Y37174D01*
X862673Y37121D01*
X862794Y37064D01*
X862914Y37003D01*
X863031Y36939D01*
X863147Y36872D01*
X863261Y36801D01*
X863372Y36726D01*
X863481Y36649D01*
X863588Y36568D01*
X863693Y36484D01*
X863794Y36397D01*
X863894Y36307D01*
X863990Y36214D01*
X864084Y36118D01*
X864175Y36019D01*
X864262Y35918D01*
X864347Y35814D01*
X864429Y35708D01*
X864507Y35600D01*
X864582Y35489D01*
X864654Y35376D01*
X864723Y35260D01*
X864788Y35143D01*
X864849Y35024D01*
X864907Y34903D01*
X864961Y34781D01*
X865012Y34657D01*
X865059Y34531D01*
X865102Y34404D01*
X865141Y34276D01*
X865177Y34147D01*
X865208Y34017D01*
X865236Y33886D01*
X865260Y33754D01*
X865280Y33621D01*
X865296Y33488D01*
X865308Y33355D01*
X865316Y33221D01*
X865320Y33087D01*
X865320Y32953D01*
X865316Y32819D01*
X865308Y32685D01*
X865296Y32552D01*
X865280Y32419D01*
X865260Y32286D01*
X865236Y32154D01*
X865208Y32023D01*
X865177Y31893D01*
X865141Y31764D01*
X865102Y31636D01*
X865059Y31509D01*
X865012Y31383D01*
X864961Y31259D01*
X864907Y31137D01*
X864849Y31016D01*
X864788Y30897D01*
X864723Y30780D01*
X864654Y30664D01*
X864582Y30551D01*
X864507Y30440D01*
X864429Y30332D01*
X864347Y30226D01*
X864262Y30122D01*
X864175Y30021D01*
X864084Y29922D01*
X863990Y29826D01*
X863894Y29733D01*
X863794Y29643D01*
X863693Y29556D01*
X863588Y29472D01*
X863481Y29391D01*
X863372Y29314D01*
X863261Y29239D01*
X863147Y29168D01*
X863031Y29101D01*
X862914Y29037D01*
X862794Y28976D01*
X862673Y28919D01*
X862550Y28866D01*
X862425Y28816D01*
X862299Y28770D01*
X862172Y28728D01*
X862044Y28690D01*
X861914Y28655D01*
X861784Y28624D01*
X861653Y28598D01*
X861521Y28575D01*
X861388Y28556D01*
X861255Y28541D01*
X861121Y28530D01*
X860987Y28523D01*
X860854Y28520D01*
X860720Y28521D01*
X860586Y28526D01*
X860452Y28535D01*
X860319Y28548D01*
X860186Y28565D01*
X860053Y28586D01*
X859922Y28611D01*
X859791Y28639D01*
X859661Y28672D01*
X859532Y28708D01*
X859404Y28749D01*
X859277Y28793D01*
X859152Y28840D01*
X859029Y28892D01*
X858906Y28947D01*
X858786Y29006D01*
X858667Y29068D01*
X858551Y29134D01*
X858436Y29203D01*
X858323Y29276D01*
X858213Y29352D01*
X858105Y29431D01*
X857999Y29514D01*
X857896Y29599D01*
X857796Y29688D01*
X857698Y29779D01*
X857603Y29874D01*
X857510Y29971D01*
X857421Y30071D01*
X857335Y30173D01*
X857252Y30278D01*
X857172Y30386D01*
X857095Y30496D01*
X857021Y30608D01*
X856951Y30722D01*
X856884Y30838D01*
X856821Y30956D01*
X856761Y31076D01*
X856705Y31198D01*
X856653Y31321D01*
X856604Y31446D01*
X856559Y31572D01*
X856518Y31700D01*
X856481Y31828D01*
X856447Y31958D01*
X856417Y32089D01*
X856392Y32220D01*
X856370Y32352D01*
X856352Y32485D01*
X856338Y32619D01*
X856328Y32752D01*
X856322Y32886D01*
X856320Y33020D01*
X826320Y33020D02*
X826322Y33154D01*
X826328Y33288D01*
X826338Y33421D01*
X826352Y33555D01*
X826370Y33688D01*
X826392Y33820D01*
X826417Y33951D01*
X826447Y34082D01*
X826481Y34212D01*
X826518Y34340D01*
X826559Y34468D01*
X826604Y34594D01*
X826653Y34719D01*
X826705Y34842D01*
X826761Y34964D01*
X826821Y35084D01*
X826884Y35202D01*
X826951Y35318D01*
X827021Y35432D01*
X827095Y35544D01*
X827172Y35654D01*
X827252Y35762D01*
X827335Y35867D01*
X827421Y35969D01*
X827510Y36069D01*
X827603Y36166D01*
X827698Y36261D01*
X827796Y36352D01*
X827896Y36441D01*
X827999Y36526D01*
X828105Y36609D01*
X828213Y36688D01*
X828323Y36764D01*
X828436Y36837D01*
X828551Y36906D01*
X828667Y36972D01*
X828786Y37034D01*
X828906Y37093D01*
X829029Y37148D01*
X829152Y37200D01*
X829277Y37247D01*
X829404Y37291D01*
X829532Y37332D01*
X829661Y37368D01*
X829791Y37401D01*
X829922Y37429D01*
X830053Y37454D01*
X830186Y37475D01*
X830319Y37492D01*
X830452Y37505D01*
X830586Y37514D01*
X830720Y37519D01*
X830854Y37520D01*
X830987Y37517D01*
X831121Y37510D01*
X831255Y37499D01*
X831388Y37484D01*
X831521Y37465D01*
X831653Y37442D01*
X831784Y37416D01*
X831914Y37385D01*
X832044Y37350D01*
X832172Y37312D01*
X832299Y37270D01*
X832425Y37224D01*
X832550Y37174D01*
X832673Y37121D01*
X832794Y37064D01*
X832914Y37003D01*
X833031Y36939D01*
X833147Y36872D01*
X833261Y36801D01*
X833372Y36726D01*
X833481Y36649D01*
X833588Y36568D01*
X833693Y36484D01*
X833794Y36397D01*
X833894Y36307D01*
X833990Y36214D01*
X834084Y36118D01*
X834175Y36019D01*
X834262Y35918D01*
X834347Y35814D01*
X834429Y35708D01*
X834507Y35600D01*
X834582Y35489D01*
X834654Y35376D01*
X834723Y35260D01*
X834788Y35143D01*
X834849Y35024D01*
X834907Y34903D01*
X834961Y34781D01*
X835012Y34657D01*
X835059Y34531D01*
X835102Y34404D01*
X835141Y34276D01*
X835177Y34147D01*
X835208Y34017D01*
X835236Y33886D01*
X835260Y33754D01*
X835280Y33621D01*
X835296Y33488D01*
X835308Y33355D01*
X835316Y33221D01*
X835320Y33087D01*
X835320Y32953D01*
X835316Y32819D01*
X835308Y32685D01*
X835296Y32552D01*
X835280Y32419D01*
X835260Y32286D01*
X835236Y32154D01*
X835208Y32023D01*
X835177Y31893D01*
X835141Y31764D01*
X835102Y31636D01*
X835059Y31509D01*
X835012Y31383D01*
X834961Y31259D01*
X834907Y31137D01*
X834849Y31016D01*
X834788Y30897D01*
X834723Y30780D01*
X834654Y30664D01*
X834582Y30551D01*
X834507Y30440D01*
X834429Y30332D01*
X834347Y30226D01*
X834262Y30122D01*
X834175Y30021D01*
X834084Y29922D01*
X833990Y29826D01*
X833894Y29733D01*
X833794Y29643D01*
X833693Y29556D01*
X833588Y29472D01*
X833481Y29391D01*
X833372Y29314D01*
X833261Y29239D01*
X833147Y29168D01*
X833031Y29101D01*
X832914Y29037D01*
X832794Y28976D01*
X832673Y28919D01*
X832550Y28866D01*
X832425Y28816D01*
X832299Y28770D01*
X832172Y28728D01*
X832044Y28690D01*
X831914Y28655D01*
X831784Y28624D01*
X831653Y28598D01*
X831521Y28575D01*
X831388Y28556D01*
X831255Y28541D01*
X831121Y28530D01*
X830987Y28523D01*
X830854Y28520D01*
X830720Y28521D01*
X830586Y28526D01*
X830452Y28535D01*
X830319Y28548D01*
X830186Y28565D01*
X830053Y28586D01*
X829922Y28611D01*
X829791Y28639D01*
X829661Y28672D01*
X829532Y28708D01*
X829404Y28749D01*
X829277Y28793D01*
X829152Y28840D01*
X829029Y28892D01*
X828906Y28947D01*
X828786Y29006D01*
X828667Y29068D01*
X828551Y29134D01*
X828436Y29203D01*
X828323Y29276D01*
X828213Y29352D01*
X828105Y29431D01*
X827999Y29514D01*
X827896Y29599D01*
X827796Y29688D01*
X827698Y29779D01*
X827603Y29874D01*
X827510Y29971D01*
X827421Y30071D01*
X827335Y30173D01*
X827252Y30278D01*
X827172Y30386D01*
X827095Y30496D01*
X827021Y30608D01*
X826951Y30722D01*
X826884Y30838D01*
X826821Y30956D01*
X826761Y31076D01*
X826705Y31198D01*
X826653Y31321D01*
X826604Y31446D01*
X826559Y31572D01*
X826518Y31700D01*
X826481Y31828D01*
X826447Y31958D01*
X826417Y32089D01*
X826392Y32220D01*
X826370Y32352D01*
X826352Y32485D01*
X826338Y32619D01*
X826328Y32752D01*
X826322Y32886D01*
X826320Y33020D01*
X1034120Y33020D02*
X1034122Y33154D01*
X1034128Y33288D01*
X1034138Y33421D01*
X1034152Y33555D01*
X1034170Y33688D01*
X1034192Y33820D01*
X1034217Y33951D01*
X1034247Y34082D01*
X1034281Y34212D01*
X1034318Y34340D01*
X1034359Y34468D01*
X1034404Y34594D01*
X1034453Y34719D01*
X1034505Y34842D01*
X1034561Y34964D01*
X1034621Y35084D01*
X1034684Y35202D01*
X1034751Y35318D01*
X1034821Y35432D01*
X1034895Y35544D01*
X1034972Y35654D01*
X1035052Y35762D01*
X1035135Y35867D01*
X1035221Y35969D01*
X1035310Y36069D01*
X1035403Y36166D01*
X1035498Y36261D01*
X1035596Y36352D01*
X1035696Y36441D01*
X1035799Y36526D01*
X1035905Y36609D01*
X1036013Y36688D01*
X1036123Y36764D01*
X1036236Y36837D01*
X1036351Y36906D01*
X1036467Y36972D01*
X1036586Y37034D01*
X1036706Y37093D01*
X1036829Y37148D01*
X1036952Y37200D01*
X1037077Y37247D01*
X1037204Y37291D01*
X1037332Y37332D01*
X1037461Y37368D01*
X1037591Y37401D01*
X1037722Y37429D01*
X1037853Y37454D01*
X1037986Y37475D01*
X1038119Y37492D01*
X1038252Y37505D01*
X1038386Y37514D01*
X1038520Y37519D01*
X1038654Y37520D01*
X1038787Y37517D01*
X1038921Y37510D01*
X1039055Y37499D01*
X1039188Y37484D01*
X1039321Y37465D01*
X1039453Y37442D01*
X1039584Y37416D01*
X1039714Y37385D01*
X1039844Y37350D01*
X1039972Y37312D01*
X1040099Y37270D01*
X1040225Y37224D01*
X1040350Y37174D01*
X1040473Y37121D01*
X1040594Y37064D01*
X1040714Y37003D01*
X1040831Y36939D01*
X1040947Y36872D01*
X1041061Y36801D01*
X1041172Y36726D01*
X1041281Y36649D01*
X1041388Y36568D01*
X1041493Y36484D01*
X1041594Y36397D01*
X1041694Y36307D01*
X1041790Y36214D01*
X1041884Y36118D01*
X1041975Y36019D01*
X1042062Y35918D01*
X1042147Y35814D01*
X1042229Y35708D01*
X1042307Y35600D01*
X1042382Y35489D01*
X1042454Y35376D01*
X1042523Y35260D01*
X1042588Y35143D01*
X1042649Y35024D01*
X1042707Y34903D01*
X1042761Y34781D01*
X1042812Y34657D01*
X1042859Y34531D01*
X1042902Y34404D01*
X1042941Y34276D01*
X1042977Y34147D01*
X1043008Y34017D01*
X1043036Y33886D01*
X1043060Y33754D01*
X1043080Y33621D01*
X1043096Y33488D01*
X1043108Y33355D01*
X1043116Y33221D01*
X1043120Y33087D01*
X1043120Y32953D01*
X1043116Y32819D01*
X1043108Y32685D01*
X1043096Y32552D01*
X1043080Y32419D01*
X1043060Y32286D01*
X1043036Y32154D01*
X1043008Y32023D01*
X1042977Y31893D01*
X1042941Y31764D01*
X1042902Y31636D01*
X1042859Y31509D01*
X1042812Y31383D01*
X1042761Y31259D01*
X1042707Y31137D01*
X1042649Y31016D01*
X1042588Y30897D01*
X1042523Y30780D01*
X1042454Y30664D01*
X1042382Y30551D01*
X1042307Y30440D01*
X1042229Y30332D01*
X1042147Y30226D01*
X1042062Y30122D01*
X1041975Y30021D01*
X1041884Y29922D01*
X1041790Y29826D01*
X1041694Y29733D01*
X1041594Y29643D01*
X1041493Y29556D01*
X1041388Y29472D01*
X1041281Y29391D01*
X1041172Y29314D01*
X1041061Y29239D01*
X1040947Y29168D01*
X1040831Y29101D01*
X1040714Y29037D01*
X1040594Y28976D01*
X1040473Y28919D01*
X1040350Y28866D01*
X1040225Y28816D01*
X1040099Y28770D01*
X1039972Y28728D01*
X1039844Y28690D01*
X1039714Y28655D01*
X1039584Y28624D01*
X1039453Y28598D01*
X1039321Y28575D01*
X1039188Y28556D01*
X1039055Y28541D01*
X1038921Y28530D01*
X1038787Y28523D01*
X1038654Y28520D01*
X1038520Y28521D01*
X1038386Y28526D01*
X1038252Y28535D01*
X1038119Y28548D01*
X1037986Y28565D01*
X1037853Y28586D01*
X1037722Y28611D01*
X1037591Y28639D01*
X1037461Y28672D01*
X1037332Y28708D01*
X1037204Y28749D01*
X1037077Y28793D01*
X1036952Y28840D01*
X1036829Y28892D01*
X1036706Y28947D01*
X1036586Y29006D01*
X1036467Y29068D01*
X1036351Y29134D01*
X1036236Y29203D01*
X1036123Y29276D01*
X1036013Y29352D01*
X1035905Y29431D01*
X1035799Y29514D01*
X1035696Y29599D01*
X1035596Y29688D01*
X1035498Y29779D01*
X1035403Y29874D01*
X1035310Y29971D01*
X1035221Y30071D01*
X1035135Y30173D01*
X1035052Y30278D01*
X1034972Y30386D01*
X1034895Y30496D01*
X1034821Y30608D01*
X1034751Y30722D01*
X1034684Y30838D01*
X1034621Y30956D01*
X1034561Y31076D01*
X1034505Y31198D01*
X1034453Y31321D01*
X1034404Y31446D01*
X1034359Y31572D01*
X1034318Y31700D01*
X1034281Y31828D01*
X1034247Y31958D01*
X1034217Y32089D01*
X1034192Y32220D01*
X1034170Y32352D01*
X1034152Y32485D01*
X1034138Y32619D01*
X1034128Y32752D01*
X1034122Y32886D01*
X1034120Y33020D01*
X1004120Y33020D02*
X1004122Y33154D01*
X1004128Y33288D01*
X1004138Y33421D01*
X1004152Y33555D01*
X1004170Y33688D01*
X1004192Y33820D01*
X1004217Y33951D01*
X1004247Y34082D01*
X1004281Y34212D01*
X1004318Y34340D01*
X1004359Y34468D01*
X1004404Y34594D01*
X1004453Y34719D01*
X1004505Y34842D01*
X1004561Y34964D01*
X1004621Y35084D01*
X1004684Y35202D01*
X1004751Y35318D01*
X1004821Y35432D01*
X1004895Y35544D01*
X1004972Y35654D01*
X1005052Y35762D01*
X1005135Y35867D01*
X1005221Y35969D01*
X1005310Y36069D01*
X1005403Y36166D01*
X1005498Y36261D01*
X1005596Y36352D01*
X1005696Y36441D01*
X1005799Y36526D01*
X1005905Y36609D01*
X1006013Y36688D01*
X1006123Y36764D01*
X1006236Y36837D01*
X1006351Y36906D01*
X1006467Y36972D01*
X1006586Y37034D01*
X1006706Y37093D01*
X1006829Y37148D01*
X1006952Y37200D01*
X1007077Y37247D01*
X1007204Y37291D01*
X1007332Y37332D01*
X1007461Y37368D01*
X1007591Y37401D01*
X1007722Y37429D01*
X1007853Y37454D01*
X1007986Y37475D01*
X1008119Y37492D01*
X1008252Y37505D01*
X1008386Y37514D01*
X1008520Y37519D01*
X1008654Y37520D01*
X1008787Y37517D01*
X1008921Y37510D01*
X1009055Y37499D01*
X1009188Y37484D01*
X1009321Y37465D01*
X1009453Y37442D01*
X1009584Y37416D01*
X1009714Y37385D01*
X1009844Y37350D01*
X1009972Y37312D01*
X1010099Y37270D01*
X1010225Y37224D01*
X1010350Y37174D01*
X1010473Y37121D01*
X1010594Y37064D01*
X1010714Y37003D01*
X1010831Y36939D01*
X1010947Y36872D01*
X1011061Y36801D01*
X1011172Y36726D01*
X1011281Y36649D01*
X1011388Y36568D01*
X1011493Y36484D01*
X1011594Y36397D01*
X1011694Y36307D01*
X1011790Y36214D01*
X1011884Y36118D01*
X1011975Y36019D01*
X1012062Y35918D01*
X1012147Y35814D01*
X1012229Y35708D01*
X1012307Y35600D01*
X1012382Y35489D01*
X1012454Y35376D01*
X1012523Y35260D01*
X1012588Y35143D01*
X1012649Y35024D01*
X1012707Y34903D01*
X1012761Y34781D01*
X1012812Y34657D01*
X1012859Y34531D01*
X1012902Y34404D01*
X1012941Y34276D01*
X1012977Y34147D01*
X1013008Y34017D01*
X1013036Y33886D01*
X1013060Y33754D01*
X1013080Y33621D01*
X1013096Y33488D01*
X1013108Y33355D01*
X1013116Y33221D01*
X1013120Y33087D01*
X1013120Y32953D01*
X1013116Y32819D01*
X1013108Y32685D01*
X1013096Y32552D01*
X1013080Y32419D01*
X1013060Y32286D01*
X1013036Y32154D01*
X1013008Y32023D01*
X1012977Y31893D01*
X1012941Y31764D01*
X1012902Y31636D01*
X1012859Y31509D01*
X1012812Y31383D01*
X1012761Y31259D01*
X1012707Y31137D01*
X1012649Y31016D01*
X1012588Y30897D01*
X1012523Y30780D01*
X1012454Y30664D01*
X1012382Y30551D01*
X1012307Y30440D01*
X1012229Y30332D01*
X1012147Y30226D01*
X1012062Y30122D01*
X1011975Y30021D01*
X1011884Y29922D01*
X1011790Y29826D01*
X1011694Y29733D01*
X1011594Y29643D01*
X1011493Y29556D01*
X1011388Y29472D01*
X1011281Y29391D01*
X1011172Y29314D01*
X1011061Y29239D01*
X1010947Y29168D01*
X1010831Y29101D01*
X1010714Y29037D01*
X1010594Y28976D01*
X1010473Y28919D01*
X1010350Y28866D01*
X1010225Y28816D01*
X1010099Y28770D01*
X1009972Y28728D01*
X1009844Y28690D01*
X1009714Y28655D01*
X1009584Y28624D01*
X1009453Y28598D01*
X1009321Y28575D01*
X1009188Y28556D01*
X1009055Y28541D01*
X1008921Y28530D01*
X1008787Y28523D01*
X1008654Y28520D01*
X1008520Y28521D01*
X1008386Y28526D01*
X1008252Y28535D01*
X1008119Y28548D01*
X1007986Y28565D01*
X1007853Y28586D01*
X1007722Y28611D01*
X1007591Y28639D01*
X1007461Y28672D01*
X1007332Y28708D01*
X1007204Y28749D01*
X1007077Y28793D01*
X1006952Y28840D01*
X1006829Y28892D01*
X1006706Y28947D01*
X1006586Y29006D01*
X1006467Y29068D01*
X1006351Y29134D01*
X1006236Y29203D01*
X1006123Y29276D01*
X1006013Y29352D01*
X1005905Y29431D01*
X1005799Y29514D01*
X1005696Y29599D01*
X1005596Y29688D01*
X1005498Y29779D01*
X1005403Y29874D01*
X1005310Y29971D01*
X1005221Y30071D01*
X1005135Y30173D01*
X1005052Y30278D01*
X1004972Y30386D01*
X1004895Y30496D01*
X1004821Y30608D01*
X1004751Y30722D01*
X1004684Y30838D01*
X1004621Y30956D01*
X1004561Y31076D01*
X1004505Y31198D01*
X1004453Y31321D01*
X1004404Y31446D01*
X1004359Y31572D01*
X1004318Y31700D01*
X1004281Y31828D01*
X1004247Y31958D01*
X1004217Y32089D01*
X1004192Y32220D01*
X1004170Y32352D01*
X1004152Y32485D01*
X1004138Y32619D01*
X1004128Y32752D01*
X1004122Y32886D01*
X1004120Y33020D01*
D13*
X0Y0D02*
X1244600Y0D01*
X1244600Y736600D01*
X0Y736600D01*
X0Y0D01*
X1203960Y25944D02*
X1204038Y27030D01*
X1204193Y28108D01*
X1204424Y29171D01*
X1204731Y30216D01*
X1205111Y31236D01*
X1205563Y32226D01*
X1206085Y33181D01*
X1206674Y34097D01*
X1207326Y34969D01*
X1208039Y35791D01*
X1208809Y36561D01*
X1209631Y37274D01*
X1210503Y37926D01*
X1211419Y38515D01*
X1212374Y39037D01*
X1213364Y39489D01*
X1214384Y39869D01*
X1215429Y40176D01*
X1216492Y40407D01*
X1217570Y40562D01*
X1218656Y40640D01*
X1219744Y40640D01*
X1220830Y40562D01*
X1221908Y40407D01*
X1222971Y40176D01*
X1224016Y39869D01*
X1225036Y39489D01*
X1226026Y39037D01*
X1226981Y38515D01*
X1227897Y37926D01*
X1228769Y37274D01*
X1229591Y36561D01*
X1230361Y35791D01*
X1231074Y34969D01*
X1231726Y34097D01*
X1232315Y33181D01*
X1232837Y32226D01*
X1233289Y31236D01*
X1233669Y30216D01*
X1233976Y29171D01*
X1234207Y28108D01*
X1234362Y27030D01*
X1234440Y25944D01*
X1234440Y24856D01*
X1234362Y23770D01*
X1234207Y22692D01*
X1233976Y21629D01*
X1233669Y20584D01*
X1233289Y19564D01*
X1232837Y18574D01*
X1232315Y17619D01*
X1231726Y16703D01*
X1231074Y15831D01*
X1230361Y15009D01*
X1229591Y14239D01*
X1228769Y13526D01*
X1227897Y12874D01*
X1226981Y12285D01*
X1226026Y11763D01*
X1225036Y11311D01*
X1224016Y10931D01*
X1222971Y10624D01*
X1221908Y10393D01*
X1220830Y10238D01*
X1219744Y10160D01*
X1218656Y10160D01*
X1217570Y10238D01*
X1216492Y10393D01*
X1215429Y10624D01*
X1214384Y10931D01*
X1213364Y11311D01*
X1212374Y11763D01*
X1211419Y12285D01*
X1210503Y12874D01*
X1209631Y13526D01*
X1208809Y14239D01*
X1208039Y15009D01*
X1207326Y15831D01*
X1206674Y16703D01*
X1206085Y17619D01*
X1205563Y18574D01*
X1205111Y19564D01*
X1204731Y20584D01*
X1204424Y21629D01*
X1204193Y22692D01*
X1204038Y23770D01*
X1203960Y24856D01*
X1203960Y25944D01*
X10160Y25944D02*
X10238Y27030D01*
X10393Y28108D01*
X10624Y29171D01*
X10931Y30216D01*
X11311Y31236D01*
X11763Y32226D01*
X12285Y33181D01*
X12874Y34097D01*
X13526Y34969D01*
X14239Y35791D01*
X15009Y36561D01*
X15831Y37274D01*
X16703Y37926D01*
X17619Y38515D01*
X18574Y39037D01*
X19564Y39489D01*
X20584Y39869D01*
X21629Y40176D01*
X22692Y40407D01*
X23770Y40562D01*
X24856Y40640D01*
X25944Y40640D01*
X27030Y40562D01*
X28108Y40407D01*
X29171Y40176D01*
X30216Y39869D01*
X31236Y39489D01*
X32226Y39037D01*
X33181Y38515D01*
X34097Y37926D01*
X34969Y37274D01*
X35791Y36561D01*
X36561Y35791D01*
X37274Y34969D01*
X37926Y34097D01*
X38515Y33181D01*
X39037Y32226D01*
X39489Y31236D01*
X39869Y30216D01*
X40176Y29171D01*
X40407Y28108D01*
X40562Y27030D01*
X40640Y25944D01*
X40640Y24856D01*
X40562Y23770D01*
X40407Y22692D01*
X40176Y21629D01*
X39869Y20584D01*
X39489Y19564D01*
X39037Y18574D01*
X38515Y17619D01*
X37926Y16703D01*
X37274Y15831D01*
X36561Y15009D01*
X35791Y14239D01*
X34969Y13526D01*
X34097Y12874D01*
X33181Y12285D01*
X32226Y11763D01*
X31236Y11311D01*
X30216Y10931D01*
X29171Y10624D01*
X28108Y10393D01*
X27030Y10238D01*
X25944Y10160D01*
X24856Y10160D01*
X23770Y10238D01*
X22692Y10393D01*
X21629Y10624D01*
X20584Y10931D01*
X19564Y11311D01*
X18574Y11763D01*
X17619Y12285D01*
X16703Y12874D01*
X15831Y13526D01*
X15009Y14239D01*
X14239Y15009D01*
X13526Y15831D01*
X12874Y16703D01*
X12285Y17619D01*
X11763Y18574D01*
X11311Y19564D01*
X10931Y20584D01*
X10624Y21629D01*
X10393Y22692D01*
X10238Y23770D01*
X10160Y24856D01*
X10160Y25944D01*
X10160Y711744D02*
X10238Y712830D01*
X10393Y713908D01*
X10624Y714971D01*
X10931Y716016D01*
X11311Y717036D01*
X11763Y718026D01*
X12285Y718981D01*
X12874Y719897D01*
X13526Y720769D01*
X14239Y721591D01*
X15009Y722361D01*
X15831Y723074D01*
X16703Y723726D01*
X17619Y724315D01*
X18574Y724837D01*
X19564Y725289D01*
X20584Y725669D01*
X21629Y725976D01*
X22692Y726207D01*
X23770Y726362D01*
X24856Y726440D01*
X25944Y726440D01*
X27030Y726362D01*
X28108Y726207D01*
X29171Y725976D01*
X30216Y725669D01*
X31236Y725289D01*
X32226Y724837D01*
X33181Y724315D01*
X34097Y723726D01*
X34969Y723074D01*
X35791Y722361D01*
X36561Y721591D01*
X37274Y720769D01*
X37926Y719897D01*
X38515Y718981D01*
X39037Y718026D01*
X39489Y717036D01*
X39869Y716016D01*
X40176Y714971D01*
X40407Y713908D01*
X40562Y712830D01*
X40640Y711744D01*
X40640Y710656D01*
X40562Y709570D01*
X40407Y708492D01*
X40176Y707429D01*
X39869Y706384D01*
X39489Y705364D01*
X39037Y704374D01*
X38515Y703419D01*
X37926Y702503D01*
X37274Y701631D01*
X36561Y700809D01*
X35791Y700039D01*
X34969Y699326D01*
X34097Y698674D01*
X33181Y698085D01*
X32226Y697563D01*
X31236Y697111D01*
X30216Y696731D01*
X29171Y696424D01*
X28108Y696193D01*
X27030Y696038D01*
X25944Y695960D01*
X24856Y695960D01*
X23770Y696038D01*
X22692Y696193D01*
X21629Y696424D01*
X20584Y696731D01*
X19564Y697111D01*
X18574Y697563D01*
X17619Y698085D01*
X16703Y698674D01*
X15831Y699326D01*
X15009Y700039D01*
X14239Y700809D01*
X13526Y701631D01*
X12874Y702503D01*
X12285Y703419D01*
X11763Y704374D01*
X11311Y705364D01*
X10931Y706384D01*
X10624Y707429D01*
X10393Y708492D01*
X10238Y709570D01*
X10160Y710656D01*
X10160Y711744D01*
X1203960Y711744D02*
X1204038Y712830D01*
X1204193Y713908D01*
X1204424Y714971D01*
X1204731Y716016D01*
X1205111Y717036D01*
X1205563Y718026D01*
X1206085Y718981D01*
X1206674Y719897D01*
X1207326Y720769D01*
X1208039Y721591D01*
X1208809Y722361D01*
X1209631Y723074D01*
X1210503Y723726D01*
X1211419Y724315D01*
X1212374Y724837D01*
X1213364Y725289D01*
X1214384Y725669D01*
X1215429Y725976D01*
X1216492Y726207D01*
X1217570Y726362D01*
X1218656Y726440D01*
X1219744Y726440D01*
X1220830Y726362D01*
X1221908Y726207D01*
X1222971Y725976D01*
X1224016Y725669D01*
X1225036Y725289D01*
X1226026Y724837D01*
X1226981Y724315D01*
X1227897Y723726D01*
X1228769Y723074D01*
X1229591Y722361D01*
X1230361Y721591D01*
X1231074Y720769D01*
X1231726Y719897D01*
X1232315Y718981D01*
X1232837Y718026D01*
X1233289Y717036D01*
X1233669Y716016D01*
X1233976Y714971D01*
X1234207Y713908D01*
X1234362Y712830D01*
X1234440Y711744D01*
X1234440Y710656D01*
X1234362Y709570D01*
X1234207Y708492D01*
X1233976Y707429D01*
X1233669Y706384D01*
X1233289Y705364D01*
X1232837Y704374D01*
X1232315Y703419D01*
X1231726Y702503D01*
X1231074Y701631D01*
X1230361Y700809D01*
X1229591Y700039D01*
X1228769Y699326D01*
X1227897Y698674D01*
X1226981Y698085D01*
X1226026Y697563D01*
X1225036Y697111D01*
X1224016Y696731D01*
X1222971Y696424D01*
X1221908Y696193D01*
X1220830Y696038D01*
X1219744Y695960D01*
X1218656Y695960D01*
X1217570Y696038D01*
X1216492Y696193D01*
X1215429Y696424D01*
X1214384Y696731D01*
X1213364Y697111D01*
X1212374Y697563D01*
X1211419Y698085D01*
X1210503Y698674D01*
X1209631Y699326D01*
X1208809Y700039D01*
X1208039Y700809D01*
X1207326Y701631D01*
X1206674Y702503D01*
X1206085Y703419D01*
X1205563Y704374D01*
X1205111Y705364D01*
X1204731Y706384D01*
X1204424Y707429D01*
X1204193Y708492D01*
X1204038Y709570D01*
X1203960Y710656D01*
X1203960Y711744D01*
X1060540Y261311D02*
X1060471Y260697D01*
X1060333Y260095D01*
X1060129Y259512D01*
X1059861Y258955D01*
X1059533Y258432D01*
X1059148Y257949D01*
X1058711Y257513D01*
X1058228Y257127D01*
X1057705Y256799D01*
X1057148Y256531D01*
X1056565Y256327D01*
X1055963Y256189D01*
X1055349Y256120D01*
X1054731Y256120D01*
X1054117Y256189D01*
X1053515Y256327D01*
X1052932Y256531D01*
X1052375Y256799D01*
X1051852Y257127D01*
X1051369Y257513D01*
X1050933Y257949D01*
X1050547Y258432D01*
X1050219Y258955D01*
X1049951Y259512D01*
X1049747Y260095D01*
X1049609Y260697D01*
X1049540Y261311D01*
X1049540Y261929D01*
X1049609Y262543D01*
X1049747Y263145D01*
X1049951Y263728D01*
X1050219Y264285D01*
X1050547Y264808D01*
X1050933Y265291D01*
X1051369Y265728D01*
X1051852Y266113D01*
X1052375Y266441D01*
X1052932Y266709D01*
X1053515Y266913D01*
X1054117Y267051D01*
X1054731Y267120D01*
X1055349Y267120D01*
X1055963Y267051D01*
X1056565Y266913D01*
X1057148Y266709D01*
X1057705Y266441D01*
X1058228Y266113D01*
X1058711Y265728D01*
X1059148Y265291D01*
X1059533Y264808D01*
X1059861Y264285D01*
X1060129Y263728D01*
X1060333Y263145D01*
X1060471Y262543D01*
X1060540Y261929D01*
X1060540Y261311D01*
X863040Y261227D02*
X862963Y260445D01*
X862810Y259674D01*
X862581Y258922D01*
X862281Y258195D01*
X861910Y257502D01*
X861473Y256849D01*
X860975Y256241D01*
X860419Y255685D01*
X859811Y255187D01*
X859158Y254750D01*
X858465Y254379D01*
X857738Y254079D01*
X856986Y253850D01*
X856215Y253697D01*
X855433Y253620D01*
X854647Y253620D01*
X853865Y253697D01*
X853094Y253850D01*
X852342Y254079D01*
X851615Y254379D01*
X850922Y254750D01*
X850269Y255187D01*
X849661Y255685D01*
X849105Y256241D01*
X848607Y256849D01*
X848170Y257502D01*
X847799Y258195D01*
X847499Y258922D01*
X847270Y259674D01*
X847117Y260445D01*
X847040Y261227D01*
X847040Y262013D01*
X847117Y262795D01*
X847270Y263566D01*
X847499Y264318D01*
X847799Y265045D01*
X848170Y265738D01*
X848607Y266391D01*
X849105Y266999D01*
X849661Y267555D01*
X850269Y268053D01*
X850922Y268490D01*
X851615Y268861D01*
X852342Y269161D01*
X853094Y269390D01*
X853865Y269543D01*
X854647Y269620D01*
X855433Y269620D01*
X856215Y269543D01*
X856986Y269390D01*
X857738Y269161D01*
X858465Y268861D01*
X859158Y268490D01*
X859811Y268053D01*
X860419Y267555D01*
X860975Y266999D01*
X861473Y266391D01*
X861910Y265738D01*
X862281Y265045D01*
X862581Y264318D01*
X862810Y263566D01*
X862963Y262795D01*
X863040Y262013D01*
X863040Y261227D01*
X1168650Y683699D02*
X1168706Y684121D01*
X1168816Y684533D01*
X1168979Y684927D01*
X1169192Y685295D01*
X1169451Y685633D01*
X1169753Y685935D01*
X1170091Y686194D01*
X1170459Y686407D01*
X1170853Y686570D01*
X1171265Y686680D01*
X1171687Y686736D01*
X1172113Y686736D01*
X1172535Y686680D01*
X1172947Y686570D01*
X1173341Y686407D01*
X1173709Y686194D01*
X1174047Y685935D01*
X1174349Y685633D01*
X1174608Y685295D01*
X1174821Y684927D01*
X1174984Y684533D01*
X1175094Y684121D01*
X1175150Y683699D01*
X1175150Y683273D01*
X1175094Y682851D01*
X1174984Y682439D01*
X1174821Y682045D01*
X1174608Y681677D01*
X1174349Y681339D01*
X1174047Y681037D01*
X1173709Y680778D01*
X1173341Y680565D01*
X1172947Y680402D01*
X1172535Y680292D01*
X1172113Y680236D01*
X1171687Y680236D01*
X1171265Y680292D01*
X1170853Y680402D01*
X1170459Y680565D01*
X1170091Y680778D01*
X1169753Y681037D01*
X1169451Y681339D01*
X1169192Y681677D01*
X1168979Y682045D01*
X1168816Y682439D01*
X1168706Y682851D01*
X1168650Y683273D01*
X1168650Y683699D01*
X1110850Y683699D02*
X1110906Y684121D01*
X1111016Y684533D01*
X1111179Y684927D01*
X1111392Y685295D01*
X1111651Y685633D01*
X1111953Y685935D01*
X1112291Y686194D01*
X1112659Y686407D01*
X1113053Y686570D01*
X1113465Y686680D01*
X1113887Y686736D01*
X1114313Y686736D01*
X1114735Y686680D01*
X1115147Y686570D01*
X1115541Y686407D01*
X1115909Y686194D01*
X1116247Y685935D01*
X1116549Y685633D01*
X1116808Y685295D01*
X1117021Y684927D01*
X1117184Y684533D01*
X1117294Y684121D01*
X1117350Y683699D01*
X1117350Y683273D01*
X1117294Y682851D01*
X1117184Y682439D01*
X1117021Y682045D01*
X1116808Y681677D01*
X1116549Y681339D01*
X1116247Y681037D01*
X1115909Y680778D01*
X1115541Y680565D01*
X1115147Y680402D01*
X1114735Y680292D01*
X1114313Y680236D01*
X1113887Y680236D01*
X1113465Y680292D01*
X1113053Y680402D01*
X1112659Y680565D01*
X1112291Y680778D01*
X1111953Y681037D01*
X1111651Y681339D01*
X1111392Y681677D01*
X1111179Y682045D01*
X1111016Y682439D01*
X1110906Y682851D01*
X1110850Y683273D01*
X1110850Y683699D01*
X955100Y683541D02*
X955163Y684099D01*
X955288Y684646D01*
X955473Y685176D01*
X955717Y685682D01*
X956016Y686158D01*
X956366Y686597D01*
X956763Y686994D01*
X957202Y687344D01*
X957678Y687643D01*
X958184Y687887D01*
X958714Y688072D01*
X959261Y688197D01*
X959819Y688260D01*
X960381Y688260D01*
X960939Y688197D01*
X961486Y688072D01*
X962016Y687887D01*
X962522Y687643D01*
X962998Y687344D01*
X963437Y686994D01*
X963834Y686597D01*
X964184Y686158D01*
X964483Y685682D01*
X964727Y685176D01*
X964912Y684646D01*
X965037Y684099D01*
X965100Y683541D01*
X965100Y682979D01*
X965037Y682421D01*
X964912Y681874D01*
X964727Y681344D01*
X964483Y680838D01*
X964184Y680362D01*
X963834Y679923D01*
X963437Y679526D01*
X962998Y679176D01*
X962522Y678877D01*
X962016Y678633D01*
X961486Y678448D01*
X960939Y678323D01*
X960381Y678260D01*
X959819Y678260D01*
X959261Y678323D01*
X958714Y678448D01*
X958184Y678633D01*
X957678Y678877D01*
X957202Y679176D01*
X956763Y679526D01*
X956366Y679923D01*
X956016Y680362D01*
X955717Y680838D01*
X955473Y681344D01*
X955288Y681874D01*
X955163Y682421D01*
X955100Y682979D01*
X955100Y683541D01*
X1035100Y683541D02*
X1035163Y684099D01*
X1035288Y684646D01*
X1035473Y685176D01*
X1035717Y685682D01*
X1036016Y686158D01*
X1036366Y686597D01*
X1036763Y686994D01*
X1037202Y687344D01*
X1037678Y687643D01*
X1038184Y687887D01*
X1038714Y688072D01*
X1039261Y688197D01*
X1039819Y688260D01*
X1040381Y688260D01*
X1040939Y688197D01*
X1041486Y688072D01*
X1042016Y687887D01*
X1042522Y687643D01*
X1042998Y687344D01*
X1043437Y686994D01*
X1043834Y686597D01*
X1044184Y686158D01*
X1044483Y685682D01*
X1044727Y685176D01*
X1044912Y684646D01*
X1045037Y684099D01*
X1045100Y683541D01*
X1045100Y682979D01*
X1045037Y682421D01*
X1044912Y681874D01*
X1044727Y681344D01*
X1044483Y680838D01*
X1044184Y680362D01*
X1043834Y679923D01*
X1043437Y679526D01*
X1042998Y679176D01*
X1042522Y678877D01*
X1042016Y678633D01*
X1041486Y678448D01*
X1040939Y678323D01*
X1040381Y678260D01*
X1039819Y678260D01*
X1039261Y678323D01*
X1038714Y678448D01*
X1038184Y678633D01*
X1037678Y678877D01*
X1037202Y679176D01*
X1036763Y679526D01*
X1036366Y679923D01*
X1036016Y680362D01*
X1035717Y680838D01*
X1035473Y681344D01*
X1035288Y681874D01*
X1035163Y682421D01*
X1035100Y682979D01*
X1035100Y683541D01*
X1203960Y508544D02*
X1204038Y509630D01*
X1204193Y510708D01*
X1204424Y511771D01*
X1204731Y512816D01*
X1205111Y513836D01*
X1205563Y514826D01*
X1206085Y515781D01*
X1206674Y516697D01*
X1207326Y517569D01*
X1208039Y518391D01*
X1208809Y519161D01*
X1209631Y519874D01*
X1210503Y520526D01*
X1211419Y521115D01*
X1212374Y521637D01*
X1213364Y522089D01*
X1214384Y522469D01*
X1215429Y522776D01*
X1216492Y523007D01*
X1217570Y523162D01*
X1218656Y523240D01*
X1219744Y523240D01*
X1220830Y523162D01*
X1221908Y523007D01*
X1222971Y522776D01*
X1224016Y522469D01*
X1225036Y522089D01*
X1226026Y521637D01*
X1226981Y521115D01*
X1227897Y520526D01*
X1228769Y519874D01*
X1229591Y519161D01*
X1230361Y518391D01*
X1231074Y517569D01*
X1231726Y516697D01*
X1232315Y515781D01*
X1232837Y514826D01*
X1233289Y513836D01*
X1233669Y512816D01*
X1233976Y511771D01*
X1234207Y510708D01*
X1234362Y509630D01*
X1234440Y508544D01*
X1234440Y507456D01*
X1234362Y506370D01*
X1234207Y505292D01*
X1233976Y504229D01*
X1233669Y503184D01*
X1233289Y502164D01*
X1232837Y501174D01*
X1232315Y500219D01*
X1231726Y499303D01*
X1231074Y498431D01*
X1230361Y497609D01*
X1229591Y496839D01*
X1228769Y496126D01*
X1227897Y495474D01*
X1226981Y494885D01*
X1226026Y494363D01*
X1225036Y493911D01*
X1224016Y493531D01*
X1222971Y493224D01*
X1221908Y492993D01*
X1220830Y492838D01*
X1219744Y492760D01*
X1218656Y492760D01*
X1217570Y492838D01*
X1216492Y492993D01*
X1215429Y493224D01*
X1214384Y493531D01*
X1213364Y493911D01*
X1212374Y494363D01*
X1211419Y494885D01*
X1210503Y495474D01*
X1209631Y496126D01*
X1208809Y496839D01*
X1208039Y497609D01*
X1207326Y498431D01*
X1206674Y499303D01*
X1206085Y500219D01*
X1205563Y501174D01*
X1205111Y502164D01*
X1204731Y503184D01*
X1204424Y504229D01*
X1204193Y505292D01*
X1204038Y506370D01*
X1203960Y507456D01*
X1203960Y508544D01*
X727800Y103831D02*
X727731Y103217D01*
X727593Y102615D01*
X727389Y102032D01*
X727121Y101475D01*
X726793Y100952D01*
X726408Y100469D01*
X725971Y100033D01*
X725488Y99647D01*
X724965Y99319D01*
X724408Y99051D01*
X723825Y98847D01*
X723223Y98709D01*
X722609Y98640D01*
X721991Y98640D01*
X721377Y98709D01*
X720775Y98847D01*
X720192Y99051D01*
X719635Y99319D01*
X719112Y99647D01*
X718629Y100033D01*
X718193Y100469D01*
X717807Y100952D01*
X717479Y101475D01*
X717211Y102032D01*
X717007Y102615D01*
X716869Y103217D01*
X716800Y103831D01*
X716800Y104449D01*
X716869Y105063D01*
X717007Y105665D01*
X717211Y106248D01*
X717479Y106805D01*
X717807Y107328D01*
X718193Y107811D01*
X718629Y108248D01*
X719112Y108633D01*
X719635Y108961D01*
X720192Y109229D01*
X720775Y109433D01*
X721377Y109571D01*
X721991Y109640D01*
X722609Y109640D01*
X723223Y109571D01*
X723825Y109433D01*
X724408Y109229D01*
X724965Y108961D01*
X725488Y108633D01*
X725971Y108248D01*
X726408Y107811D01*
X726793Y107328D01*
X727121Y106805D01*
X727389Y106248D01*
X727593Y105665D01*
X727731Y105063D01*
X727800Y104449D01*
X727800Y103831D01*
X530300Y103747D02*
X530223Y102965D01*
X530070Y102194D01*
X529841Y101442D01*
X529541Y100715D01*
X529170Y100022D01*
X528733Y99369D01*
X528235Y98761D01*
X527679Y98205D01*
X527071Y97707D01*
X526418Y97270D01*
X525725Y96899D01*
X524998Y96599D01*
X524246Y96370D01*
X523475Y96217D01*
X522693Y96140D01*
X521907Y96140D01*
X521125Y96217D01*
X520354Y96370D01*
X519602Y96599D01*
X518875Y96899D01*
X518182Y97270D01*
X517529Y97707D01*
X516921Y98205D01*
X516365Y98761D01*
X515867Y99369D01*
X515430Y100022D01*
X515059Y100715D01*
X514759Y101442D01*
X514530Y102194D01*
X514377Y102965D01*
X514300Y103747D01*
X514300Y104533D01*
X514377Y105315D01*
X514530Y106086D01*
X514759Y106838D01*
X515059Y107565D01*
X515430Y108258D01*
X515867Y108911D01*
X516365Y109519D01*
X516921Y110075D01*
X517529Y110573D01*
X518182Y111010D01*
X518875Y111381D01*
X519602Y111681D01*
X520354Y111910D01*
X521125Y112063D01*
X521907Y112140D01*
X522693Y112140D01*
X523475Y112063D01*
X524246Y111910D01*
X524998Y111681D01*
X525725Y111381D01*
X526418Y111010D01*
X527071Y110573D01*
X527679Y110075D01*
X528235Y109519D01*
X528733Y108911D01*
X529170Y108258D01*
X529541Y107565D01*
X529841Y106838D01*
X530070Y106086D01*
X530223Y105315D01*
X530300Y104533D01*
X530300Y103747D01*
X344260Y103831D02*
X344191Y103217D01*
X344053Y102615D01*
X343849Y102032D01*
X343581Y101475D01*
X343253Y100952D01*
X342868Y100469D01*
X342431Y100033D01*
X341948Y99647D01*
X341425Y99319D01*
X340868Y99051D01*
X340285Y98847D01*
X339683Y98709D01*
X339069Y98640D01*
X338451Y98640D01*
X337837Y98709D01*
X337235Y98847D01*
X336652Y99051D01*
X336095Y99319D01*
X335572Y99647D01*
X335089Y100033D01*
X334653Y100469D01*
X334267Y100952D01*
X333939Y101475D01*
X333671Y102032D01*
X333467Y102615D01*
X333329Y103217D01*
X333260Y103831D01*
X333260Y104449D01*
X333329Y105063D01*
X333467Y105665D01*
X333671Y106248D01*
X333939Y106805D01*
X334267Y107328D01*
X334653Y107811D01*
X335089Y108248D01*
X335572Y108633D01*
X336095Y108961D01*
X336652Y109229D01*
X337235Y109433D01*
X337837Y109571D01*
X338451Y109640D01*
X339069Y109640D01*
X339683Y109571D01*
X340285Y109433D01*
X340868Y109229D01*
X341425Y108961D01*
X341948Y108633D01*
X342431Y108248D01*
X342868Y107811D01*
X343253Y107328D01*
X343581Y106805D01*
X343849Y106248D01*
X344053Y105665D01*
X344191Y105063D01*
X344260Y104449D01*
X344260Y103831D01*
X146760Y103747D02*
X146683Y102965D01*
X146530Y102194D01*
X146301Y101442D01*
X146001Y100715D01*
X145630Y100022D01*
X145193Y99369D01*
X144695Y98761D01*
X144139Y98205D01*
X143531Y97707D01*
X142878Y97270D01*
X142185Y96899D01*
X141458Y96599D01*
X140706Y96370D01*
X139935Y96217D01*
X139153Y96140D01*
X138367Y96140D01*
X137585Y96217D01*
X136814Y96370D01*
X136062Y96599D01*
X135335Y96899D01*
X134642Y97270D01*
X133989Y97707D01*
X133381Y98205D01*
X132825Y98761D01*
X132327Y99369D01*
X131890Y100022D01*
X131519Y100715D01*
X131219Y101442D01*
X130990Y102194D01*
X130837Y102965D01*
X130760Y103747D01*
X130760Y104533D01*
X130837Y105315D01*
X130990Y106086D01*
X131219Y106838D01*
X131519Y107565D01*
X131890Y108258D01*
X132327Y108911D01*
X132825Y109519D01*
X133381Y110075D01*
X133989Y110573D01*
X134642Y111010D01*
X135335Y111381D01*
X136062Y111681D01*
X136814Y111910D01*
X137585Y112063D01*
X138367Y112140D01*
X139153Y112140D01*
X139935Y112063D01*
X140706Y111910D01*
X141458Y111681D01*
X142185Y111381D01*
X142878Y111010D01*
X143531Y110573D01*
X144139Y110075D01*
X144695Y109519D01*
X145193Y108911D01*
X145630Y108258D01*
X146001Y107565D01*
X146301Y106838D01*
X146530Y106086D01*
X146683Y105315D01*
X146760Y104533D01*
X146760Y103747D01*
X945220Y33315D02*
X945297Y33900D01*
X945450Y34470D01*
X945675Y35015D01*
X945970Y35525D01*
X946329Y35993D01*
X946747Y36411D01*
X947215Y36770D01*
X947725Y37065D01*
X948270Y37290D01*
X948840Y37443D01*
X949425Y37520D01*
X950015Y37520D01*
X950600Y37443D01*
X951170Y37290D01*
X951715Y37065D01*
X952225Y36770D01*
X952693Y36411D01*
X953111Y35993D01*
X953470Y35525D01*
X953765Y35015D01*
X953990Y34470D01*
X954143Y33900D01*
X954220Y33315D01*
X954220Y32725D01*
X954143Y32140D01*
X953990Y31570D01*
X953765Y31025D01*
X953470Y30515D01*
X953111Y30047D01*
X952693Y29629D01*
X952225Y29270D01*
X951715Y28975D01*
X951170Y28750D01*
X950600Y28597D01*
X950015Y28520D01*
X949425Y28520D01*
X948840Y28597D01*
X948270Y28750D01*
X947725Y28975D01*
X947215Y29270D01*
X946747Y29629D01*
X946329Y30047D01*
X945970Y30515D01*
X945675Y31025D01*
X945450Y31570D01*
X945297Y32140D01*
X945220Y32725D01*
X945220Y33315D01*
X915220Y33315D02*
X915297Y33900D01*
X915450Y34470D01*
X915675Y35015D01*
X915970Y35525D01*
X916329Y35993D01*
X916747Y36411D01*
X917215Y36770D01*
X917725Y37065D01*
X918270Y37290D01*
X918840Y37443D01*
X919425Y37520D01*
X920015Y37520D01*
X920600Y37443D01*
X921170Y37290D01*
X921715Y37065D01*
X922225Y36770D01*
X922693Y36411D01*
X923111Y35993D01*
X923470Y35525D01*
X923765Y35015D01*
X923990Y34470D01*
X924143Y33900D01*
X924220Y33315D01*
X924220Y32725D01*
X924143Y32140D01*
X923990Y31570D01*
X923765Y31025D01*
X923470Y30515D01*
X923111Y30047D01*
X922693Y29629D01*
X922225Y29270D01*
X921715Y28975D01*
X921170Y28750D01*
X920600Y28597D01*
X920015Y28520D01*
X919425Y28520D01*
X918840Y28597D01*
X918270Y28750D01*
X917725Y28975D01*
X917215Y29270D01*
X916747Y29629D01*
X916329Y30047D01*
X915970Y30515D01*
X915675Y31025D01*
X915450Y31570D01*
X915297Y32140D01*
X915220Y32725D01*
X915220Y33315D01*
X856320Y33315D02*
X856397Y33900D01*
X856550Y34470D01*
X856775Y35015D01*
X857070Y35525D01*
X857429Y35993D01*
X857847Y36411D01*
X858315Y36770D01*
X858825Y37065D01*
X859370Y37290D01*
X859940Y37443D01*
X860525Y37520D01*
X861115Y37520D01*
X861700Y37443D01*
X862270Y37290D01*
X862815Y37065D01*
X863325Y36770D01*
X863793Y36411D01*
X864211Y35993D01*
X864570Y35525D01*
X864865Y35015D01*
X865090Y34470D01*
X865243Y33900D01*
X865320Y33315D01*
X865320Y32725D01*
X865243Y32140D01*
X865090Y31570D01*
X864865Y31025D01*
X864570Y30515D01*
X864211Y30047D01*
X863793Y29629D01*
X863325Y29270D01*
X862815Y28975D01*
X862270Y28750D01*
X861700Y28597D01*
X861115Y28520D01*
X860525Y28520D01*
X859940Y28597D01*
X859370Y28750D01*
X858825Y28975D01*
X858315Y29270D01*
X857847Y29629D01*
X857429Y30047D01*
X857070Y30515D01*
X856775Y31025D01*
X856550Y31570D01*
X856397Y32140D01*
X856320Y32725D01*
X856320Y33315D01*
X826320Y33315D02*
X826397Y33900D01*
X826550Y34470D01*
X826775Y35015D01*
X827070Y35525D01*
X827429Y35993D01*
X827847Y36411D01*
X828315Y36770D01*
X828825Y37065D01*
X829370Y37290D01*
X829940Y37443D01*
X830525Y37520D01*
X831115Y37520D01*
X831700Y37443D01*
X832270Y37290D01*
X832815Y37065D01*
X833325Y36770D01*
X833793Y36411D01*
X834211Y35993D01*
X834570Y35525D01*
X834865Y35015D01*
X835090Y34470D01*
X835243Y33900D01*
X835320Y33315D01*
X835320Y32725D01*
X835243Y32140D01*
X835090Y31570D01*
X834865Y31025D01*
X834570Y30515D01*
X834211Y30047D01*
X833793Y29629D01*
X833325Y29270D01*
X832815Y28975D01*
X832270Y28750D01*
X831700Y28597D01*
X831115Y28520D01*
X830525Y28520D01*
X829940Y28597D01*
X829370Y28750D01*
X828825Y28975D01*
X828315Y29270D01*
X827847Y29629D01*
X827429Y30047D01*
X827070Y30515D01*
X826775Y31025D01*
X826550Y31570D01*
X826397Y32140D01*
X826320Y32725D01*
X826320Y33315D01*
X1034120Y33315D02*
X1034197Y33900D01*
X1034350Y34470D01*
X1034575Y35015D01*
X1034870Y35525D01*
X1035229Y35993D01*
X1035647Y36411D01*
X1036115Y36770D01*
X1036625Y37065D01*
X1037170Y37290D01*
X1037740Y37443D01*
X1038325Y37520D01*
X1038915Y37520D01*
X1039500Y37443D01*
X1040070Y37290D01*
X1040615Y37065D01*
X1041125Y36770D01*
X1041593Y36411D01*
X1042011Y35993D01*
X1042370Y35525D01*
X1042665Y35015D01*
X1042890Y34470D01*
X1043043Y33900D01*
X1043120Y33315D01*
X1043120Y32725D01*
X1043043Y32140D01*
X1042890Y31570D01*
X1042665Y31025D01*
X1042370Y30515D01*
X1042011Y30047D01*
X1041593Y29629D01*
X1041125Y29270D01*
X1040615Y28975D01*
X1040070Y28750D01*
X1039500Y28597D01*
X1038915Y28520D01*
X1038325Y28520D01*
X1037740Y28597D01*
X1037170Y28750D01*
X1036625Y28975D01*
X1036115Y29270D01*
X1035647Y29629D01*
X1035229Y30047D01*
X1034870Y30515D01*
X1034575Y31025D01*
X1034350Y31570D01*
X1034197Y32140D01*
X1034120Y32725D01*
X1034120Y33315D01*
X1004120Y33315D02*
X1004197Y33900D01*
X1004350Y34470D01*
X1004575Y35015D01*
X1004870Y35525D01*
X1005229Y35993D01*
X1005647Y36411D01*
X1006115Y36770D01*
X1006625Y37065D01*
X1007170Y37290D01*
X1007740Y37443D01*
X1008325Y37520D01*
X1008915Y37520D01*
X1009500Y37443D01*
X1010070Y37290D01*
X1010615Y37065D01*
X1011125Y36770D01*
X1011593Y36411D01*
X1012011Y35993D01*
X1012370Y35525D01*
X1012665Y35015D01*
X1012890Y34470D01*
X1013043Y33900D01*
X1013120Y33315D01*
X1013120Y32725D01*
X1013043Y32140D01*
X1012890Y31570D01*
X1012665Y31025D01*
X1012370Y30515D01*
X1012011Y30047D01*
X1011593Y29629D01*
X1011125Y29270D01*
X1010615Y28975D01*
X1010070Y28750D01*
X1009500Y28597D01*
X1008915Y28520D01*
X1008325Y28520D01*
X1007740Y28597D01*
X1007170Y28750D01*
X1006625Y28975D01*
X1006115Y29270D01*
X1005647Y29629D01*
X1005229Y30047D01*
X1004870Y30515D01*
X1004575Y31025D01*
X1004350Y31570D01*
X1004197Y32140D01*
X1004120Y32725D01*
X1004120Y33315D01*
M02*
