G04 EAGLE Gerber RS-274X export*
G75*
%MOMM*%
%FSLAX34Y34*%
%LPD*%
%INSolderpaste Top*%
%IPPOS*%
%AMOC8*
5,1,8,0,0,1.08239X$1,22.5*%
G01*
%ADD10C,0.102000*%
%ADD11C,0.096000*%
%ADD12R,0.300000X1.750000*%
%ADD13C,0.100000*%
%ADD14C,0.099000*%
%ADD15C,0.300000*%
%ADD16C,0.099059*%
%ADD17R,1.375000X0.800000*%
%ADD18C,0.100800*%
%ADD19C,0.104000*%
%ADD20C,0.101600*%
%ADD21C,0.105000*%
%ADD22C,0.098000*%
%ADD23R,0.400000X0.200000*%
%ADD24R,0.200000X0.400000*%

G36*
X808983Y496307D02*
X808983Y496307D01*
X809028Y496308D01*
X809079Y496330D01*
X809134Y496343D01*
X809170Y496369D01*
X809210Y496387D01*
X809249Y496428D01*
X809294Y496461D01*
X809317Y496499D01*
X809347Y496531D01*
X809367Y496584D01*
X809396Y496632D01*
X809404Y496683D01*
X809417Y496717D01*
X809416Y496751D01*
X809423Y496796D01*
X809423Y507796D01*
X809413Y507849D01*
X809412Y507902D01*
X809393Y507945D01*
X809384Y507991D01*
X809353Y508035D01*
X809332Y508084D01*
X809298Y508116D01*
X809271Y508155D01*
X809226Y508184D01*
X809187Y508220D01*
X809136Y508241D01*
X809104Y508262D01*
X809072Y508267D01*
X809033Y508283D01*
X806298Y508894D01*
X803734Y509922D01*
X801370Y511349D01*
X799266Y513138D01*
X797477Y515242D01*
X796050Y517606D01*
X795022Y520170D01*
X794411Y522905D01*
X794389Y522954D01*
X794377Y523006D01*
X794349Y523044D01*
X794330Y523086D01*
X794291Y523123D01*
X794259Y523166D01*
X794219Y523190D01*
X794185Y523222D01*
X794134Y523240D01*
X794088Y523268D01*
X794034Y523277D01*
X793998Y523290D01*
X793966Y523288D01*
X793924Y523295D01*
X782924Y523295D01*
X782869Y523284D01*
X782813Y523283D01*
X782772Y523264D01*
X782729Y523256D01*
X782683Y523224D01*
X782632Y523201D01*
X782602Y523168D01*
X782565Y523143D01*
X782535Y523096D01*
X782497Y523054D01*
X782482Y523013D01*
X782458Y522976D01*
X782449Y522920D01*
X782430Y522867D01*
X782431Y522815D01*
X782425Y522779D01*
X782433Y522747D01*
X782433Y522742D01*
X782433Y522740D01*
X782433Y522739D01*
X782434Y522701D01*
X783273Y518380D01*
X783285Y518351D01*
X783293Y518309D01*
X784762Y514159D01*
X784778Y514132D01*
X784792Y514092D01*
X786858Y510205D01*
X786878Y510181D01*
X786897Y510143D01*
X789515Y506604D01*
X789539Y506583D01*
X789564Y506548D01*
X792676Y503436D01*
X792691Y503426D01*
X792699Y503415D01*
X792714Y503406D01*
X792732Y503387D01*
X796271Y500769D01*
X796299Y500756D01*
X796333Y500730D01*
X800220Y498664D01*
X800250Y498655D01*
X800287Y498634D01*
X804437Y497165D01*
X804468Y497160D01*
X804508Y497145D01*
X808829Y496306D01*
X808885Y496306D01*
X808941Y496297D01*
X808983Y496307D01*
G37*
G36*
X426427Y496053D02*
X426427Y496053D01*
X426472Y496054D01*
X426523Y496076D01*
X426578Y496089D01*
X426614Y496115D01*
X426654Y496133D01*
X426693Y496174D01*
X426738Y496207D01*
X426761Y496245D01*
X426791Y496277D01*
X426811Y496330D01*
X426840Y496378D01*
X426848Y496429D01*
X426861Y496463D01*
X426860Y496497D01*
X426867Y496542D01*
X426867Y507542D01*
X426857Y507595D01*
X426856Y507648D01*
X426837Y507691D01*
X426828Y507737D01*
X426797Y507781D01*
X426776Y507830D01*
X426742Y507862D01*
X426715Y507901D01*
X426670Y507930D01*
X426631Y507966D01*
X426580Y507987D01*
X426548Y508008D01*
X426516Y508013D01*
X426477Y508029D01*
X423742Y508640D01*
X421178Y509668D01*
X418814Y511095D01*
X416710Y512884D01*
X414921Y514988D01*
X413494Y517352D01*
X412466Y519916D01*
X411855Y522651D01*
X411833Y522700D01*
X411821Y522752D01*
X411793Y522790D01*
X411774Y522832D01*
X411735Y522869D01*
X411703Y522912D01*
X411663Y522936D01*
X411629Y522968D01*
X411578Y522986D01*
X411532Y523014D01*
X411478Y523023D01*
X411442Y523036D01*
X411410Y523034D01*
X411368Y523041D01*
X400368Y523041D01*
X400313Y523030D01*
X400257Y523029D01*
X400216Y523010D01*
X400173Y523002D01*
X400127Y522970D01*
X400076Y522947D01*
X400046Y522914D01*
X400009Y522889D01*
X399979Y522842D01*
X399941Y522800D01*
X399926Y522759D01*
X399902Y522722D01*
X399893Y522666D01*
X399874Y522613D01*
X399875Y522561D01*
X399869Y522525D01*
X399877Y522493D01*
X399877Y522488D01*
X399877Y522486D01*
X399877Y522485D01*
X399878Y522447D01*
X400717Y518126D01*
X400729Y518097D01*
X400737Y518055D01*
X402206Y513905D01*
X402222Y513878D01*
X402236Y513838D01*
X404302Y509951D01*
X404322Y509927D01*
X404341Y509889D01*
X406959Y506350D01*
X406983Y506329D01*
X407008Y506294D01*
X410120Y503182D01*
X410135Y503172D01*
X410143Y503161D01*
X410158Y503152D01*
X410176Y503133D01*
X413715Y500515D01*
X413743Y500502D01*
X413777Y500476D01*
X417664Y498410D01*
X417694Y498401D01*
X417731Y498380D01*
X421881Y496911D01*
X421912Y496906D01*
X421952Y496891D01*
X426273Y496052D01*
X426329Y496052D01*
X426385Y496043D01*
X426427Y496053D01*
G37*
G36*
X44459Y496053D02*
X44459Y496053D01*
X44504Y496054D01*
X44555Y496076D01*
X44610Y496089D01*
X44646Y496115D01*
X44686Y496133D01*
X44725Y496174D01*
X44770Y496207D01*
X44793Y496245D01*
X44823Y496277D01*
X44843Y496330D01*
X44872Y496378D01*
X44880Y496429D01*
X44893Y496463D01*
X44892Y496497D01*
X44899Y496542D01*
X44899Y507542D01*
X44889Y507595D01*
X44888Y507648D01*
X44869Y507691D01*
X44860Y507737D01*
X44829Y507781D01*
X44808Y507830D01*
X44774Y507862D01*
X44747Y507901D01*
X44702Y507930D01*
X44663Y507966D01*
X44612Y507987D01*
X44580Y508008D01*
X44548Y508013D01*
X44509Y508029D01*
X41774Y508640D01*
X39210Y509668D01*
X36846Y511095D01*
X34742Y512884D01*
X32953Y514988D01*
X31526Y517352D01*
X30498Y519916D01*
X29887Y522651D01*
X29865Y522700D01*
X29853Y522752D01*
X29825Y522790D01*
X29806Y522832D01*
X29767Y522869D01*
X29735Y522912D01*
X29695Y522936D01*
X29661Y522968D01*
X29610Y522986D01*
X29564Y523014D01*
X29510Y523023D01*
X29474Y523036D01*
X29442Y523034D01*
X29400Y523041D01*
X18400Y523041D01*
X18345Y523030D01*
X18289Y523029D01*
X18248Y523010D01*
X18205Y523002D01*
X18159Y522970D01*
X18108Y522947D01*
X18078Y522914D01*
X18041Y522889D01*
X18011Y522842D01*
X17973Y522800D01*
X17958Y522759D01*
X17934Y522722D01*
X17925Y522666D01*
X17906Y522613D01*
X17907Y522561D01*
X17901Y522525D01*
X17909Y522493D01*
X17909Y522488D01*
X17909Y522486D01*
X17909Y522485D01*
X17910Y522447D01*
X18749Y518126D01*
X18761Y518097D01*
X18769Y518055D01*
X20238Y513905D01*
X20254Y513878D01*
X20268Y513838D01*
X22334Y509951D01*
X22354Y509927D01*
X22373Y509889D01*
X24991Y506350D01*
X25015Y506329D01*
X25040Y506294D01*
X28152Y503182D01*
X28167Y503172D01*
X28175Y503161D01*
X28190Y503152D01*
X28208Y503133D01*
X31747Y500515D01*
X31775Y500502D01*
X31809Y500476D01*
X35696Y498410D01*
X35726Y498401D01*
X35763Y498380D01*
X39913Y496911D01*
X39944Y496906D01*
X39984Y496891D01*
X44305Y496052D01*
X44361Y496052D01*
X44417Y496043D01*
X44459Y496053D01*
G37*
G36*
X990687Y433369D02*
X990687Y433369D01*
X990732Y433370D01*
X990783Y433392D01*
X990838Y433405D01*
X990874Y433431D01*
X990914Y433449D01*
X990953Y433490D01*
X990998Y433523D01*
X991021Y433561D01*
X991051Y433593D01*
X991071Y433646D01*
X991100Y433694D01*
X991108Y433745D01*
X991121Y433779D01*
X991120Y433813D01*
X991127Y433858D01*
X991127Y444858D01*
X991117Y444911D01*
X991116Y444964D01*
X991097Y445007D01*
X991088Y445053D01*
X991057Y445097D01*
X991036Y445146D01*
X991002Y445178D01*
X990975Y445217D01*
X990930Y445246D01*
X990891Y445282D01*
X990840Y445303D01*
X990808Y445324D01*
X990776Y445329D01*
X990737Y445345D01*
X988002Y445956D01*
X985438Y446984D01*
X983074Y448411D01*
X980970Y450200D01*
X979181Y452304D01*
X977754Y454668D01*
X976726Y457232D01*
X976115Y459967D01*
X976093Y460016D01*
X976081Y460068D01*
X976053Y460106D01*
X976034Y460148D01*
X975995Y460185D01*
X975963Y460228D01*
X975923Y460252D01*
X975889Y460284D01*
X975838Y460302D01*
X975792Y460330D01*
X975738Y460339D01*
X975702Y460352D01*
X975670Y460350D01*
X975628Y460357D01*
X964628Y460357D01*
X964573Y460346D01*
X964517Y460345D01*
X964476Y460326D01*
X964433Y460318D01*
X964387Y460286D01*
X964336Y460263D01*
X964306Y460230D01*
X964269Y460205D01*
X964239Y460158D01*
X964201Y460116D01*
X964186Y460075D01*
X964162Y460038D01*
X964153Y459982D01*
X964134Y459929D01*
X964135Y459877D01*
X964129Y459841D01*
X964137Y459809D01*
X964137Y459804D01*
X964137Y459802D01*
X964137Y459801D01*
X964138Y459763D01*
X964977Y455442D01*
X964989Y455413D01*
X964997Y455371D01*
X966466Y451221D01*
X966482Y451194D01*
X966496Y451154D01*
X968562Y447267D01*
X968582Y447243D01*
X968601Y447205D01*
X971219Y443666D01*
X971243Y443645D01*
X971268Y443610D01*
X974380Y440498D01*
X974395Y440488D01*
X974403Y440477D01*
X974418Y440468D01*
X974436Y440449D01*
X977975Y437831D01*
X978003Y437818D01*
X978037Y437792D01*
X981924Y435726D01*
X981954Y435717D01*
X981991Y435696D01*
X986141Y434227D01*
X986172Y434222D01*
X986212Y434207D01*
X990533Y433368D01*
X990589Y433368D01*
X990645Y433359D01*
X990687Y433369D01*
G37*
G36*
X793977Y530307D02*
X793977Y530307D01*
X794030Y530308D01*
X794073Y530327D01*
X794119Y530336D01*
X794163Y530367D01*
X794212Y530388D01*
X794244Y530422D01*
X794283Y530449D01*
X794312Y530494D01*
X794348Y530533D01*
X794369Y530584D01*
X794390Y530616D01*
X794395Y530648D01*
X794411Y530687D01*
X795022Y533422D01*
X796050Y535986D01*
X797477Y538350D01*
X799266Y540454D01*
X801370Y542243D01*
X803734Y543670D01*
X806298Y544698D01*
X809033Y545309D01*
X809082Y545331D01*
X809134Y545343D01*
X809172Y545371D01*
X809214Y545390D01*
X809251Y545429D01*
X809294Y545461D01*
X809318Y545501D01*
X809350Y545535D01*
X809368Y545586D01*
X809396Y545632D01*
X809405Y545686D01*
X809418Y545722D01*
X809416Y545754D01*
X809423Y545796D01*
X809423Y556796D01*
X809412Y556851D01*
X809411Y556907D01*
X809392Y556948D01*
X809384Y556991D01*
X809352Y557037D01*
X809329Y557089D01*
X809296Y557118D01*
X809271Y557155D01*
X809224Y557185D01*
X809182Y557223D01*
X809141Y557238D01*
X809104Y557262D01*
X809048Y557271D01*
X808995Y557290D01*
X808943Y557289D01*
X808907Y557295D01*
X808875Y557287D01*
X808829Y557286D01*
X804508Y556447D01*
X804479Y556435D01*
X804437Y556427D01*
X800287Y554958D01*
X800260Y554942D01*
X800220Y554928D01*
X796333Y552862D01*
X796309Y552842D01*
X796271Y552823D01*
X792732Y550205D01*
X792711Y550181D01*
X792676Y550156D01*
X789564Y547044D01*
X789546Y547018D01*
X789515Y546988D01*
X786897Y543450D01*
X786884Y543421D01*
X786858Y543387D01*
X784792Y539500D01*
X784785Y539477D01*
X784776Y539463D01*
X784775Y539455D01*
X784762Y539433D01*
X783293Y535283D01*
X783288Y535252D01*
X783273Y535212D01*
X782434Y530891D01*
X782434Y530835D01*
X782425Y530779D01*
X782435Y530737D01*
X782436Y530692D01*
X782458Y530641D01*
X782471Y530586D01*
X782497Y530551D01*
X782515Y530510D01*
X782556Y530471D01*
X782589Y530426D01*
X782627Y530403D01*
X782659Y530373D01*
X782712Y530353D01*
X782760Y530324D01*
X782811Y530316D01*
X782845Y530303D01*
X782879Y530304D01*
X782924Y530297D01*
X793924Y530297D01*
X793977Y530307D01*
G37*
G36*
X411421Y530053D02*
X411421Y530053D01*
X411474Y530054D01*
X411517Y530073D01*
X411563Y530082D01*
X411607Y530113D01*
X411656Y530134D01*
X411688Y530168D01*
X411727Y530195D01*
X411756Y530240D01*
X411792Y530279D01*
X411813Y530330D01*
X411834Y530362D01*
X411839Y530394D01*
X411855Y530433D01*
X412466Y533168D01*
X413494Y535732D01*
X414921Y538096D01*
X416710Y540200D01*
X418814Y541989D01*
X421178Y543416D01*
X423742Y544444D01*
X426477Y545055D01*
X426526Y545077D01*
X426578Y545089D01*
X426616Y545117D01*
X426658Y545136D01*
X426695Y545175D01*
X426738Y545207D01*
X426762Y545247D01*
X426794Y545281D01*
X426812Y545332D01*
X426840Y545378D01*
X426849Y545432D01*
X426862Y545468D01*
X426860Y545500D01*
X426867Y545542D01*
X426867Y556542D01*
X426856Y556597D01*
X426855Y556653D01*
X426836Y556694D01*
X426828Y556737D01*
X426796Y556783D01*
X426773Y556835D01*
X426740Y556864D01*
X426715Y556901D01*
X426668Y556931D01*
X426626Y556969D01*
X426585Y556984D01*
X426548Y557008D01*
X426492Y557017D01*
X426439Y557036D01*
X426387Y557035D01*
X426351Y557041D01*
X426319Y557033D01*
X426273Y557032D01*
X421952Y556193D01*
X421923Y556181D01*
X421881Y556173D01*
X417731Y554704D01*
X417704Y554688D01*
X417664Y554674D01*
X413777Y552608D01*
X413753Y552588D01*
X413715Y552569D01*
X410176Y549951D01*
X410155Y549927D01*
X410120Y549902D01*
X407008Y546790D01*
X406990Y546764D01*
X406959Y546734D01*
X404341Y543196D01*
X404328Y543167D01*
X404302Y543133D01*
X402236Y539246D01*
X402229Y539223D01*
X402220Y539209D01*
X402219Y539201D01*
X402206Y539179D01*
X400737Y535029D01*
X400732Y534998D01*
X400717Y534958D01*
X399878Y530637D01*
X399878Y530581D01*
X399869Y530525D01*
X399879Y530483D01*
X399880Y530438D01*
X399902Y530387D01*
X399915Y530332D01*
X399941Y530297D01*
X399959Y530256D01*
X400000Y530217D01*
X400033Y530172D01*
X400071Y530149D01*
X400103Y530119D01*
X400156Y530099D01*
X400204Y530070D01*
X400255Y530062D01*
X400289Y530049D01*
X400323Y530050D01*
X400368Y530043D01*
X411368Y530043D01*
X411421Y530053D01*
G37*
G36*
X29453Y530053D02*
X29453Y530053D01*
X29506Y530054D01*
X29549Y530073D01*
X29595Y530082D01*
X29639Y530113D01*
X29688Y530134D01*
X29720Y530168D01*
X29759Y530195D01*
X29788Y530240D01*
X29824Y530279D01*
X29845Y530330D01*
X29866Y530362D01*
X29871Y530394D01*
X29887Y530433D01*
X30498Y533168D01*
X31526Y535732D01*
X32953Y538096D01*
X34742Y540200D01*
X36846Y541989D01*
X39210Y543416D01*
X41774Y544444D01*
X44509Y545055D01*
X44558Y545077D01*
X44610Y545089D01*
X44648Y545117D01*
X44690Y545136D01*
X44727Y545175D01*
X44770Y545207D01*
X44794Y545247D01*
X44826Y545281D01*
X44844Y545332D01*
X44872Y545378D01*
X44881Y545432D01*
X44894Y545468D01*
X44892Y545500D01*
X44899Y545542D01*
X44899Y556542D01*
X44888Y556597D01*
X44887Y556653D01*
X44868Y556694D01*
X44860Y556737D01*
X44828Y556783D01*
X44805Y556835D01*
X44772Y556864D01*
X44747Y556901D01*
X44700Y556931D01*
X44658Y556969D01*
X44617Y556984D01*
X44580Y557008D01*
X44524Y557017D01*
X44471Y557036D01*
X44419Y557035D01*
X44383Y557041D01*
X44351Y557033D01*
X44305Y557032D01*
X39984Y556193D01*
X39955Y556181D01*
X39913Y556173D01*
X35763Y554704D01*
X35736Y554688D01*
X35696Y554674D01*
X31809Y552608D01*
X31785Y552588D01*
X31747Y552569D01*
X28208Y549951D01*
X28187Y549927D01*
X28152Y549902D01*
X25040Y546790D01*
X25022Y546764D01*
X24991Y546734D01*
X22373Y543196D01*
X22360Y543167D01*
X22334Y543133D01*
X20268Y539246D01*
X20261Y539223D01*
X20252Y539209D01*
X20251Y539201D01*
X20238Y539179D01*
X18769Y535029D01*
X18764Y534998D01*
X18749Y534958D01*
X17910Y530637D01*
X17910Y530581D01*
X17901Y530525D01*
X17911Y530483D01*
X17912Y530438D01*
X17934Y530387D01*
X17947Y530332D01*
X17973Y530297D01*
X17991Y530256D01*
X18032Y530217D01*
X18065Y530172D01*
X18103Y530149D01*
X18135Y530119D01*
X18188Y530099D01*
X18236Y530070D01*
X18287Y530062D01*
X18321Y530049D01*
X18355Y530050D01*
X18400Y530043D01*
X29400Y530043D01*
X29453Y530053D01*
G37*
G36*
X975681Y467369D02*
X975681Y467369D01*
X975734Y467370D01*
X975777Y467389D01*
X975823Y467398D01*
X975867Y467429D01*
X975916Y467450D01*
X975948Y467484D01*
X975987Y467511D01*
X976016Y467556D01*
X976052Y467595D01*
X976073Y467646D01*
X976094Y467678D01*
X976099Y467710D01*
X976115Y467749D01*
X976726Y470484D01*
X977754Y473048D01*
X979181Y475412D01*
X980970Y477516D01*
X983074Y479305D01*
X985438Y480732D01*
X988002Y481760D01*
X990737Y482371D01*
X990786Y482393D01*
X990838Y482405D01*
X990876Y482433D01*
X990918Y482452D01*
X990955Y482491D01*
X990998Y482523D01*
X991022Y482563D01*
X991054Y482597D01*
X991072Y482648D01*
X991100Y482694D01*
X991109Y482748D01*
X991122Y482784D01*
X991120Y482816D01*
X991127Y482858D01*
X991127Y493858D01*
X991116Y493913D01*
X991115Y493969D01*
X991096Y494010D01*
X991088Y494053D01*
X991056Y494099D01*
X991033Y494151D01*
X991000Y494180D01*
X990975Y494217D01*
X990928Y494247D01*
X990886Y494285D01*
X990845Y494300D01*
X990808Y494324D01*
X990752Y494333D01*
X990699Y494352D01*
X990647Y494351D01*
X990611Y494357D01*
X990579Y494349D01*
X990533Y494348D01*
X986212Y493509D01*
X986183Y493497D01*
X986141Y493489D01*
X981991Y492020D01*
X981964Y492004D01*
X981924Y491990D01*
X978037Y489924D01*
X978013Y489904D01*
X977975Y489885D01*
X974436Y487267D01*
X974415Y487243D01*
X974380Y487218D01*
X971268Y484106D01*
X971250Y484080D01*
X971219Y484050D01*
X968601Y480512D01*
X968588Y480483D01*
X968562Y480449D01*
X966496Y476562D01*
X966489Y476539D01*
X966480Y476525D01*
X966479Y476517D01*
X966466Y476495D01*
X964997Y472345D01*
X964992Y472314D01*
X964977Y472274D01*
X964138Y467953D01*
X964138Y467897D01*
X964129Y467841D01*
X964139Y467799D01*
X964140Y467754D01*
X964162Y467703D01*
X964175Y467648D01*
X964201Y467613D01*
X964219Y467572D01*
X964260Y467533D01*
X964293Y467488D01*
X964331Y467465D01*
X964363Y467435D01*
X964416Y467415D01*
X964464Y467386D01*
X964515Y467378D01*
X964549Y467365D01*
X964583Y467366D01*
X964628Y467359D01*
X975628Y467359D01*
X975681Y467369D01*
G37*
G36*
X842979Y530308D02*
X842979Y530308D01*
X843035Y530309D01*
X843076Y530328D01*
X843119Y530336D01*
X843165Y530368D01*
X843217Y530391D01*
X843246Y530424D01*
X843283Y530449D01*
X843313Y530496D01*
X843351Y530538D01*
X843366Y530579D01*
X843390Y530616D01*
X843399Y530672D01*
X843418Y530725D01*
X843417Y530777D01*
X843423Y530813D01*
X843415Y530845D01*
X843414Y530891D01*
X842575Y535212D01*
X842563Y535241D01*
X842555Y535283D01*
X841086Y539433D01*
X841070Y539460D01*
X841061Y539487D01*
X841059Y539493D01*
X841058Y539495D01*
X841056Y539500D01*
X838990Y543387D01*
X838970Y543411D01*
X838951Y543450D01*
X836333Y546988D01*
X836309Y547009D01*
X836284Y547044D01*
X833172Y550156D01*
X833146Y550174D01*
X833116Y550205D01*
X829578Y552823D01*
X829549Y552836D01*
X829515Y552862D01*
X825628Y554928D01*
X825598Y554937D01*
X825561Y554958D01*
X821411Y556427D01*
X821380Y556432D01*
X821340Y556447D01*
X817019Y557286D01*
X816963Y557286D01*
X816907Y557295D01*
X816865Y557285D01*
X816820Y557284D01*
X816769Y557262D01*
X816714Y557249D01*
X816679Y557223D01*
X816638Y557205D01*
X816599Y557164D01*
X816554Y557131D01*
X816531Y557093D01*
X816501Y557061D01*
X816481Y557008D01*
X816452Y556960D01*
X816444Y556909D01*
X816431Y556875D01*
X816432Y556841D01*
X816425Y556796D01*
X816425Y545796D01*
X816435Y545743D01*
X816436Y545690D01*
X816455Y545647D01*
X816464Y545601D01*
X816495Y545557D01*
X816516Y545508D01*
X816550Y545476D01*
X816577Y545437D01*
X816622Y545408D01*
X816661Y545372D01*
X816712Y545351D01*
X816744Y545330D01*
X816776Y545325D01*
X816815Y545309D01*
X819550Y544698D01*
X822114Y543670D01*
X824478Y542243D01*
X826582Y540454D01*
X828371Y538350D01*
X829798Y535986D01*
X830826Y533422D01*
X831437Y530687D01*
X831459Y530638D01*
X831471Y530586D01*
X831499Y530548D01*
X831518Y530506D01*
X831557Y530469D01*
X831589Y530426D01*
X831629Y530402D01*
X831663Y530370D01*
X831714Y530352D01*
X831760Y530324D01*
X831814Y530315D01*
X831850Y530302D01*
X831882Y530304D01*
X831924Y530297D01*
X842924Y530297D01*
X842979Y530308D01*
G37*
G36*
X460423Y530054D02*
X460423Y530054D01*
X460479Y530055D01*
X460520Y530074D01*
X460563Y530082D01*
X460609Y530114D01*
X460661Y530137D01*
X460690Y530170D01*
X460727Y530195D01*
X460757Y530242D01*
X460795Y530284D01*
X460810Y530325D01*
X460834Y530362D01*
X460843Y530418D01*
X460862Y530471D01*
X460861Y530523D01*
X460867Y530559D01*
X460859Y530591D01*
X460858Y530637D01*
X460019Y534958D01*
X460007Y534987D01*
X459999Y535029D01*
X458530Y539179D01*
X458514Y539206D01*
X458505Y539233D01*
X458503Y539239D01*
X458502Y539241D01*
X458500Y539246D01*
X456434Y543133D01*
X456414Y543157D01*
X456395Y543196D01*
X453777Y546734D01*
X453753Y546755D01*
X453728Y546790D01*
X450616Y549902D01*
X450590Y549920D01*
X450560Y549951D01*
X447022Y552569D01*
X446993Y552582D01*
X446959Y552608D01*
X443072Y554674D01*
X443042Y554683D01*
X443005Y554704D01*
X438855Y556173D01*
X438824Y556178D01*
X438784Y556193D01*
X434463Y557032D01*
X434407Y557032D01*
X434351Y557041D01*
X434309Y557031D01*
X434264Y557030D01*
X434213Y557008D01*
X434158Y556995D01*
X434123Y556969D01*
X434082Y556951D01*
X434043Y556910D01*
X433998Y556877D01*
X433975Y556839D01*
X433945Y556807D01*
X433925Y556754D01*
X433896Y556706D01*
X433888Y556655D01*
X433875Y556621D01*
X433876Y556587D01*
X433869Y556542D01*
X433869Y545542D01*
X433879Y545489D01*
X433880Y545436D01*
X433899Y545393D01*
X433908Y545347D01*
X433939Y545303D01*
X433960Y545254D01*
X433994Y545222D01*
X434021Y545183D01*
X434066Y545154D01*
X434105Y545118D01*
X434156Y545097D01*
X434188Y545076D01*
X434220Y545071D01*
X434259Y545055D01*
X436994Y544444D01*
X439558Y543416D01*
X441922Y541989D01*
X444026Y540200D01*
X445815Y538096D01*
X447242Y535732D01*
X448270Y533168D01*
X448881Y530433D01*
X448903Y530384D01*
X448915Y530332D01*
X448943Y530294D01*
X448962Y530252D01*
X449001Y530215D01*
X449033Y530172D01*
X449073Y530148D01*
X449107Y530116D01*
X449158Y530098D01*
X449204Y530070D01*
X449258Y530061D01*
X449294Y530048D01*
X449326Y530050D01*
X449368Y530043D01*
X460368Y530043D01*
X460423Y530054D01*
G37*
G36*
X78455Y530054D02*
X78455Y530054D01*
X78511Y530055D01*
X78552Y530074D01*
X78595Y530082D01*
X78641Y530114D01*
X78693Y530137D01*
X78722Y530170D01*
X78759Y530195D01*
X78789Y530242D01*
X78827Y530284D01*
X78842Y530325D01*
X78866Y530362D01*
X78875Y530418D01*
X78894Y530471D01*
X78893Y530523D01*
X78899Y530559D01*
X78891Y530591D01*
X78890Y530637D01*
X78051Y534958D01*
X78039Y534987D01*
X78031Y535029D01*
X76562Y539179D01*
X76546Y539206D01*
X76537Y539233D01*
X76535Y539239D01*
X76534Y539241D01*
X76532Y539246D01*
X74466Y543133D01*
X74446Y543157D01*
X74427Y543196D01*
X71809Y546734D01*
X71785Y546755D01*
X71760Y546790D01*
X68648Y549902D01*
X68622Y549920D01*
X68592Y549951D01*
X65054Y552569D01*
X65025Y552582D01*
X64991Y552608D01*
X61104Y554674D01*
X61074Y554683D01*
X61037Y554704D01*
X56887Y556173D01*
X56856Y556178D01*
X56816Y556193D01*
X52495Y557032D01*
X52439Y557032D01*
X52383Y557041D01*
X52341Y557031D01*
X52296Y557030D01*
X52245Y557008D01*
X52190Y556995D01*
X52155Y556969D01*
X52114Y556951D01*
X52075Y556910D01*
X52030Y556877D01*
X52007Y556839D01*
X51977Y556807D01*
X51957Y556754D01*
X51928Y556706D01*
X51920Y556655D01*
X51907Y556621D01*
X51908Y556587D01*
X51901Y556542D01*
X51901Y545542D01*
X51911Y545489D01*
X51912Y545436D01*
X51931Y545393D01*
X51940Y545347D01*
X51971Y545303D01*
X51992Y545254D01*
X52026Y545222D01*
X52053Y545183D01*
X52098Y545154D01*
X52137Y545118D01*
X52188Y545097D01*
X52220Y545076D01*
X52252Y545071D01*
X52291Y545055D01*
X55026Y544444D01*
X57590Y543416D01*
X59954Y541989D01*
X62058Y540200D01*
X63847Y538096D01*
X65274Y535732D01*
X66302Y533168D01*
X66913Y530433D01*
X66935Y530384D01*
X66947Y530332D01*
X66975Y530294D01*
X66994Y530252D01*
X67033Y530215D01*
X67065Y530172D01*
X67105Y530148D01*
X67139Y530116D01*
X67190Y530098D01*
X67236Y530070D01*
X67290Y530061D01*
X67326Y530048D01*
X67358Y530050D01*
X67400Y530043D01*
X78400Y530043D01*
X78455Y530054D01*
G37*
G36*
X1024683Y467370D02*
X1024683Y467370D01*
X1024739Y467371D01*
X1024780Y467390D01*
X1024823Y467398D01*
X1024869Y467430D01*
X1024921Y467453D01*
X1024950Y467486D01*
X1024987Y467511D01*
X1025017Y467558D01*
X1025055Y467600D01*
X1025070Y467641D01*
X1025094Y467678D01*
X1025103Y467734D01*
X1025122Y467787D01*
X1025121Y467839D01*
X1025127Y467875D01*
X1025119Y467907D01*
X1025118Y467953D01*
X1024279Y472274D01*
X1024267Y472303D01*
X1024259Y472345D01*
X1022790Y476495D01*
X1022774Y476522D01*
X1022765Y476549D01*
X1022763Y476555D01*
X1022762Y476557D01*
X1022760Y476562D01*
X1020694Y480449D01*
X1020674Y480473D01*
X1020655Y480512D01*
X1018037Y484050D01*
X1018013Y484071D01*
X1017988Y484106D01*
X1014876Y487218D01*
X1014850Y487236D01*
X1014820Y487267D01*
X1011282Y489885D01*
X1011253Y489898D01*
X1011219Y489924D01*
X1007332Y491990D01*
X1007302Y491999D01*
X1007265Y492020D01*
X1003115Y493489D01*
X1003084Y493494D01*
X1003044Y493509D01*
X998723Y494348D01*
X998667Y494348D01*
X998611Y494357D01*
X998569Y494347D01*
X998524Y494346D01*
X998473Y494324D01*
X998418Y494311D01*
X998383Y494285D01*
X998342Y494267D01*
X998303Y494226D01*
X998258Y494193D01*
X998235Y494155D01*
X998205Y494123D01*
X998185Y494070D01*
X998156Y494022D01*
X998148Y493971D01*
X998135Y493937D01*
X998136Y493903D01*
X998129Y493858D01*
X998129Y482858D01*
X998139Y482805D01*
X998140Y482752D01*
X998159Y482709D01*
X998168Y482663D01*
X998199Y482619D01*
X998220Y482570D01*
X998254Y482538D01*
X998281Y482499D01*
X998326Y482470D01*
X998365Y482434D01*
X998416Y482413D01*
X998448Y482392D01*
X998480Y482387D01*
X998519Y482371D01*
X1001254Y481760D01*
X1003818Y480732D01*
X1006182Y479305D01*
X1008286Y477516D01*
X1010075Y475412D01*
X1011502Y473048D01*
X1012530Y470484D01*
X1013141Y467749D01*
X1013163Y467700D01*
X1013175Y467648D01*
X1013203Y467610D01*
X1013222Y467568D01*
X1013261Y467531D01*
X1013293Y467488D01*
X1013333Y467464D01*
X1013367Y467432D01*
X1013418Y467414D01*
X1013464Y467386D01*
X1013518Y467377D01*
X1013554Y467364D01*
X1013586Y467366D01*
X1013628Y467359D01*
X1024628Y467359D01*
X1024683Y467370D01*
G37*
G36*
X816973Y496305D02*
X816973Y496305D01*
X817019Y496306D01*
X821340Y497145D01*
X821369Y497157D01*
X821411Y497165D01*
X825561Y498634D01*
X825588Y498650D01*
X825628Y498664D01*
X829515Y500730D01*
X829539Y500750D01*
X829578Y500769D01*
X833116Y503387D01*
X833137Y503411D01*
X833172Y503436D01*
X836284Y506548D01*
X836302Y506575D01*
X836333Y506604D01*
X838951Y510143D01*
X838964Y510171D01*
X838990Y510205D01*
X841056Y514092D01*
X841065Y514122D01*
X841086Y514159D01*
X842555Y518309D01*
X842560Y518340D01*
X842575Y518380D01*
X843414Y522701D01*
X843414Y522757D01*
X843423Y522813D01*
X843413Y522855D01*
X843412Y522900D01*
X843390Y522951D01*
X843377Y523006D01*
X843351Y523042D01*
X843333Y523082D01*
X843292Y523121D01*
X843259Y523166D01*
X843221Y523189D01*
X843189Y523219D01*
X843136Y523239D01*
X843088Y523268D01*
X843037Y523276D01*
X843003Y523289D01*
X842969Y523288D01*
X842924Y523295D01*
X831924Y523295D01*
X831871Y523285D01*
X831818Y523284D01*
X831775Y523265D01*
X831729Y523256D01*
X831685Y523225D01*
X831636Y523204D01*
X831604Y523170D01*
X831565Y523143D01*
X831536Y523098D01*
X831500Y523059D01*
X831479Y523008D01*
X831458Y522976D01*
X831453Y522944D01*
X831450Y522938D01*
X831449Y522937D01*
X831449Y522936D01*
X831437Y522905D01*
X830826Y520170D01*
X829798Y517606D01*
X828371Y515242D01*
X826582Y513138D01*
X824478Y511349D01*
X822114Y509922D01*
X819550Y508894D01*
X816815Y508283D01*
X816766Y508261D01*
X816714Y508249D01*
X816676Y508221D01*
X816634Y508202D01*
X816597Y508163D01*
X816554Y508131D01*
X816530Y508091D01*
X816498Y508057D01*
X816480Y508006D01*
X816452Y507960D01*
X816443Y507906D01*
X816430Y507870D01*
X816432Y507838D01*
X816425Y507796D01*
X816425Y496796D01*
X816436Y496741D01*
X816437Y496685D01*
X816456Y496644D01*
X816464Y496601D01*
X816496Y496555D01*
X816519Y496504D01*
X816552Y496474D01*
X816577Y496437D01*
X816624Y496407D01*
X816666Y496369D01*
X816707Y496354D01*
X816744Y496330D01*
X816800Y496321D01*
X816853Y496302D01*
X816905Y496303D01*
X816941Y496297D01*
X816973Y496305D01*
G37*
G36*
X434417Y496051D02*
X434417Y496051D01*
X434463Y496052D01*
X438784Y496891D01*
X438813Y496903D01*
X438855Y496911D01*
X443005Y498380D01*
X443032Y498396D01*
X443072Y498410D01*
X446959Y500476D01*
X446983Y500496D01*
X447022Y500515D01*
X450560Y503133D01*
X450581Y503157D01*
X450616Y503182D01*
X453728Y506294D01*
X453746Y506321D01*
X453777Y506350D01*
X456395Y509889D01*
X456408Y509917D01*
X456434Y509951D01*
X458500Y513838D01*
X458509Y513868D01*
X458530Y513905D01*
X459999Y518055D01*
X460004Y518086D01*
X460019Y518126D01*
X460858Y522447D01*
X460858Y522503D01*
X460867Y522559D01*
X460857Y522601D01*
X460856Y522646D01*
X460834Y522697D01*
X460821Y522752D01*
X460795Y522788D01*
X460777Y522828D01*
X460736Y522867D01*
X460703Y522912D01*
X460665Y522935D01*
X460633Y522965D01*
X460580Y522985D01*
X460532Y523014D01*
X460481Y523022D01*
X460447Y523035D01*
X460413Y523034D01*
X460368Y523041D01*
X449368Y523041D01*
X449315Y523031D01*
X449262Y523030D01*
X449219Y523011D01*
X449173Y523002D01*
X449129Y522971D01*
X449080Y522950D01*
X449048Y522916D01*
X449009Y522889D01*
X448980Y522844D01*
X448944Y522805D01*
X448923Y522754D01*
X448902Y522722D01*
X448897Y522690D01*
X448894Y522684D01*
X448893Y522683D01*
X448893Y522682D01*
X448881Y522651D01*
X448270Y519916D01*
X447242Y517352D01*
X445815Y514988D01*
X444026Y512884D01*
X441922Y511095D01*
X439558Y509668D01*
X436994Y508640D01*
X434259Y508029D01*
X434210Y508007D01*
X434158Y507995D01*
X434120Y507967D01*
X434078Y507948D01*
X434041Y507909D01*
X433998Y507877D01*
X433974Y507837D01*
X433942Y507803D01*
X433924Y507752D01*
X433896Y507706D01*
X433887Y507652D01*
X433874Y507616D01*
X433876Y507584D01*
X433869Y507542D01*
X433869Y496542D01*
X433880Y496487D01*
X433881Y496431D01*
X433900Y496390D01*
X433908Y496347D01*
X433940Y496301D01*
X433963Y496250D01*
X433996Y496220D01*
X434021Y496183D01*
X434068Y496153D01*
X434110Y496115D01*
X434151Y496100D01*
X434188Y496076D01*
X434244Y496067D01*
X434297Y496048D01*
X434349Y496049D01*
X434385Y496043D01*
X434417Y496051D01*
G37*
G36*
X52449Y496051D02*
X52449Y496051D01*
X52495Y496052D01*
X56816Y496891D01*
X56845Y496903D01*
X56887Y496911D01*
X61037Y498380D01*
X61064Y498396D01*
X61104Y498410D01*
X64991Y500476D01*
X65015Y500496D01*
X65054Y500515D01*
X68592Y503133D01*
X68613Y503157D01*
X68648Y503182D01*
X71760Y506294D01*
X71778Y506321D01*
X71809Y506350D01*
X74427Y509889D01*
X74440Y509917D01*
X74466Y509951D01*
X76532Y513838D01*
X76541Y513868D01*
X76562Y513905D01*
X78031Y518055D01*
X78036Y518086D01*
X78051Y518126D01*
X78890Y522447D01*
X78890Y522503D01*
X78899Y522559D01*
X78889Y522601D01*
X78888Y522646D01*
X78866Y522697D01*
X78853Y522752D01*
X78827Y522788D01*
X78809Y522828D01*
X78768Y522867D01*
X78735Y522912D01*
X78697Y522935D01*
X78665Y522965D01*
X78612Y522985D01*
X78564Y523014D01*
X78513Y523022D01*
X78479Y523035D01*
X78445Y523034D01*
X78400Y523041D01*
X67400Y523041D01*
X67347Y523031D01*
X67294Y523030D01*
X67251Y523011D01*
X67205Y523002D01*
X67161Y522971D01*
X67112Y522950D01*
X67080Y522916D01*
X67041Y522889D01*
X67012Y522844D01*
X66976Y522805D01*
X66955Y522754D01*
X66934Y522722D01*
X66929Y522690D01*
X66926Y522684D01*
X66925Y522683D01*
X66925Y522682D01*
X66913Y522651D01*
X66302Y519916D01*
X65274Y517352D01*
X63847Y514988D01*
X62058Y512884D01*
X59954Y511095D01*
X57590Y509668D01*
X55026Y508640D01*
X52291Y508029D01*
X52242Y508007D01*
X52190Y507995D01*
X52152Y507967D01*
X52110Y507948D01*
X52073Y507909D01*
X52030Y507877D01*
X52006Y507837D01*
X51974Y507803D01*
X51956Y507752D01*
X51928Y507706D01*
X51919Y507652D01*
X51906Y507616D01*
X51908Y507584D01*
X51901Y507542D01*
X51901Y496542D01*
X51912Y496487D01*
X51913Y496431D01*
X51932Y496390D01*
X51940Y496347D01*
X51972Y496301D01*
X51995Y496250D01*
X52028Y496220D01*
X52053Y496183D01*
X52100Y496153D01*
X52142Y496115D01*
X52183Y496100D01*
X52220Y496076D01*
X52276Y496067D01*
X52329Y496048D01*
X52381Y496049D01*
X52417Y496043D01*
X52449Y496051D01*
G37*
G36*
X998677Y433367D02*
X998677Y433367D01*
X998723Y433368D01*
X1003044Y434207D01*
X1003073Y434219D01*
X1003115Y434227D01*
X1007265Y435696D01*
X1007292Y435712D01*
X1007332Y435726D01*
X1011219Y437792D01*
X1011243Y437812D01*
X1011282Y437831D01*
X1014820Y440449D01*
X1014841Y440473D01*
X1014876Y440498D01*
X1017988Y443610D01*
X1018006Y443637D01*
X1018037Y443666D01*
X1020655Y447205D01*
X1020668Y447233D01*
X1020694Y447267D01*
X1022760Y451154D01*
X1022769Y451184D01*
X1022790Y451221D01*
X1024259Y455371D01*
X1024264Y455402D01*
X1024279Y455442D01*
X1025118Y459763D01*
X1025118Y459819D01*
X1025127Y459875D01*
X1025117Y459917D01*
X1025116Y459962D01*
X1025094Y460013D01*
X1025081Y460068D01*
X1025055Y460104D01*
X1025037Y460144D01*
X1024996Y460183D01*
X1024963Y460228D01*
X1024925Y460251D01*
X1024893Y460281D01*
X1024840Y460301D01*
X1024792Y460330D01*
X1024741Y460338D01*
X1024707Y460351D01*
X1024673Y460350D01*
X1024628Y460357D01*
X1013628Y460357D01*
X1013575Y460347D01*
X1013522Y460346D01*
X1013479Y460327D01*
X1013433Y460318D01*
X1013389Y460287D01*
X1013340Y460266D01*
X1013308Y460232D01*
X1013269Y460205D01*
X1013240Y460160D01*
X1013204Y460121D01*
X1013183Y460070D01*
X1013162Y460038D01*
X1013157Y460006D01*
X1013154Y460000D01*
X1013153Y459999D01*
X1013153Y459998D01*
X1013141Y459967D01*
X1012530Y457232D01*
X1011502Y454668D01*
X1010075Y452304D01*
X1008286Y450200D01*
X1006182Y448411D01*
X1003818Y446984D01*
X1001254Y445956D01*
X998519Y445345D01*
X998470Y445323D01*
X998418Y445311D01*
X998380Y445283D01*
X998338Y445264D01*
X998301Y445225D01*
X998258Y445193D01*
X998234Y445153D01*
X998202Y445119D01*
X998184Y445068D01*
X998156Y445022D01*
X998147Y444968D01*
X998134Y444932D01*
X998136Y444900D01*
X998129Y444858D01*
X998129Y433858D01*
X998140Y433803D01*
X998141Y433747D01*
X998160Y433706D01*
X998168Y433663D01*
X998200Y433617D01*
X998223Y433566D01*
X998256Y433536D01*
X998281Y433499D01*
X998328Y433469D01*
X998370Y433431D01*
X998411Y433416D01*
X998448Y433392D01*
X998504Y433383D01*
X998557Y433364D01*
X998609Y433365D01*
X998645Y433359D01*
X998677Y433367D01*
G37*
G36*
X1100004Y667491D02*
X1100004Y667491D01*
X1100007Y667487D01*
X1101115Y667657D01*
X1101121Y667663D01*
X1101126Y667660D01*
X1102168Y668072D01*
X1102172Y668079D01*
X1102177Y668077D01*
X1103102Y668711D01*
X1103104Y668719D01*
X1103110Y668718D01*
X1103870Y669542D01*
X1103871Y669550D01*
X1103877Y669550D01*
X1104434Y670522D01*
X1104434Y670526D01*
X1104435Y670527D01*
X1104433Y670529D01*
X1104433Y670530D01*
X1104439Y670532D01*
X1104766Y671604D01*
X1104765Y671609D01*
X1104767Y671610D01*
X1104765Y671613D01*
X1104768Y671615D01*
X1104849Y672732D01*
X1104848Y672735D01*
X1104849Y672736D01*
X1104849Y684736D01*
X1104844Y684743D01*
X1104848Y684747D01*
X1104629Y685691D01*
X1104623Y685697D01*
X1104625Y685702D01*
X1104202Y686574D01*
X1104194Y686577D01*
X1104196Y686583D01*
X1103589Y687339D01*
X1103581Y687341D01*
X1103581Y687347D01*
X1102821Y687948D01*
X1102812Y687948D01*
X1102811Y687954D01*
X1101936Y688372D01*
X1101928Y688370D01*
X1101926Y688375D01*
X1100980Y688588D01*
X1100973Y688584D01*
X1100969Y688589D01*
X1100000Y688585D01*
X1099999Y688585D01*
X1098931Y688566D01*
X1098930Y688566D01*
X1098924Y688562D01*
X1098920Y688565D01*
X1097883Y688309D01*
X1097878Y688302D01*
X1097872Y688305D01*
X1096918Y687824D01*
X1096915Y687817D01*
X1096909Y687818D01*
X1096086Y687137D01*
X1096084Y687129D01*
X1096078Y687129D01*
X1095427Y686282D01*
X1095427Y686274D01*
X1095421Y686273D01*
X1094974Y685302D01*
X1094976Y685294D01*
X1094971Y685292D01*
X1094752Y684246D01*
X1094755Y684239D01*
X1094751Y684236D01*
X1094751Y672236D01*
X1094754Y672231D01*
X1094751Y672228D01*
X1094931Y671133D01*
X1094937Y671127D01*
X1094934Y671122D01*
X1095353Y670094D01*
X1095360Y670090D01*
X1095358Y670085D01*
X1095996Y669176D01*
X1096003Y669174D01*
X1096003Y669168D01*
X1096826Y668424D01*
X1096834Y668423D01*
X1096835Y668417D01*
X1097803Y667875D01*
X1097812Y667876D01*
X1097814Y667870D01*
X1098878Y667557D01*
X1098886Y667560D01*
X1098889Y667555D01*
X1099997Y667487D01*
X1100004Y667491D01*
G37*
G36*
X1186502Y667490D02*
X1186502Y667490D01*
X1186506Y667487D01*
X1187551Y667605D01*
X1187557Y667611D01*
X1187562Y667607D01*
X1188556Y667955D01*
X1188560Y667962D01*
X1188565Y667960D01*
X1189457Y668520D01*
X1189460Y668527D01*
X1189465Y668527D01*
X1190209Y669271D01*
X1190211Y669279D01*
X1190216Y669279D01*
X1190776Y670171D01*
X1190776Y670178D01*
X1190777Y670179D01*
X1190781Y670180D01*
X1191129Y671174D01*
X1191126Y671182D01*
X1191131Y671185D01*
X1191249Y672231D01*
X1191247Y672234D01*
X1191249Y672236D01*
X1191249Y684236D01*
X1191246Y684241D01*
X1191249Y684244D01*
X1191091Y685240D01*
X1191085Y685246D01*
X1191088Y685251D01*
X1190713Y686187D01*
X1190706Y686191D01*
X1190708Y686197D01*
X1190134Y687026D01*
X1190126Y687029D01*
X1190127Y687034D01*
X1189383Y687715D01*
X1189374Y687716D01*
X1189374Y687722D01*
X1188497Y688220D01*
X1188489Y688219D01*
X1188486Y688224D01*
X1187521Y688515D01*
X1187513Y688512D01*
X1187510Y688517D01*
X1186503Y688585D01*
X1186501Y688584D01*
X1186500Y688585D01*
X1185419Y688576D01*
X1185412Y688571D01*
X1185408Y688575D01*
X1184356Y688326D01*
X1184351Y688319D01*
X1184346Y688322D01*
X1183376Y687845D01*
X1183373Y687837D01*
X1183367Y687839D01*
X1182528Y687158D01*
X1182526Y687150D01*
X1182520Y687150D01*
X1181854Y686300D01*
X1181853Y686291D01*
X1181848Y686290D01*
X1181387Y685313D01*
X1181389Y685305D01*
X1181384Y685302D01*
X1181152Y684247D01*
X1181155Y684239D01*
X1181151Y684236D01*
X1181151Y672236D01*
X1181155Y672231D01*
X1181151Y672228D01*
X1181344Y671122D01*
X1181350Y671117D01*
X1181347Y671112D01*
X1181780Y670077D01*
X1181787Y670073D01*
X1181785Y670068D01*
X1182438Y669155D01*
X1182446Y669153D01*
X1182445Y669147D01*
X1183284Y668403D01*
X1183293Y668402D01*
X1183293Y668397D01*
X1184277Y667858D01*
X1184285Y667859D01*
X1184287Y667854D01*
X1185366Y667547D01*
X1185374Y667550D01*
X1185377Y667545D01*
X1186497Y667487D01*
X1186502Y667490D01*
G37*
G36*
X1100004Y711992D02*
X1100004Y711992D01*
X1100009Y711988D01*
X1101146Y712195D01*
X1101152Y712201D01*
X1101157Y712198D01*
X1102219Y712653D01*
X1102223Y712660D01*
X1102229Y712658D01*
X1103164Y713338D01*
X1103166Y713346D01*
X1103172Y713345D01*
X1103932Y714216D01*
X1103932Y714224D01*
X1103938Y714225D01*
X1104485Y715244D01*
X1104484Y715252D01*
X1104489Y715254D01*
X1104495Y715273D01*
X1104508Y715322D01*
X1104522Y715372D01*
X1104535Y715421D01*
X1104549Y715470D01*
X1104562Y715519D01*
X1104563Y715519D01*
X1104562Y715519D01*
X1104576Y715569D01*
X1104590Y715618D01*
X1104603Y715667D01*
X1104617Y715716D01*
X1104630Y715766D01*
X1104644Y715815D01*
X1104657Y715864D01*
X1104671Y715913D01*
X1104685Y715963D01*
X1104698Y716012D01*
X1104712Y716061D01*
X1104796Y716368D01*
X1104793Y716376D01*
X1104798Y716379D01*
X1104849Y717534D01*
X1104848Y717535D01*
X1104849Y717536D01*
X1104849Y723536D01*
X1104845Y723542D01*
X1104848Y723545D01*
X1104636Y724626D01*
X1104630Y724631D01*
X1104633Y724636D01*
X1104186Y725642D01*
X1104179Y725646D01*
X1104181Y725652D01*
X1103521Y726533D01*
X1103513Y726536D01*
X1103513Y726541D01*
X1102674Y727254D01*
X1102666Y727254D01*
X1102665Y727260D01*
X1101688Y727768D01*
X1101680Y727767D01*
X1101678Y727772D01*
X1100613Y728050D01*
X1100605Y728047D01*
X1100602Y728051D01*
X1099502Y728085D01*
X1099496Y728082D01*
X1099493Y728085D01*
X1098418Y727930D01*
X1098412Y727924D01*
X1098407Y727927D01*
X1097393Y727537D01*
X1097389Y727530D01*
X1097383Y727532D01*
X1096481Y726925D01*
X1096479Y726917D01*
X1096473Y726918D01*
X1095729Y726126D01*
X1095728Y726118D01*
X1095722Y726118D01*
X1095173Y725180D01*
X1095174Y725172D01*
X1095168Y725170D01*
X1094841Y724134D01*
X1094844Y724126D01*
X1094839Y724123D01*
X1094751Y723040D01*
X1094753Y723037D01*
X1094751Y723036D01*
X1094751Y717036D01*
X1094754Y717032D01*
X1094751Y717030D01*
X1094901Y715897D01*
X1094907Y715891D01*
X1094904Y715886D01*
X1095302Y714816D01*
X1095309Y714812D01*
X1095307Y714806D01*
X1095934Y713851D01*
X1095942Y713848D01*
X1095941Y713843D01*
X1096764Y713051D01*
X1096772Y713050D01*
X1096773Y713044D01*
X1097752Y712455D01*
X1097760Y712456D01*
X1097762Y712451D01*
X1098847Y712095D01*
X1098855Y712098D01*
X1098858Y712093D01*
X1099995Y711987D01*
X1100004Y711992D01*
G37*
G36*
X1187142Y712093D02*
X1187142Y712093D01*
X1187148Y712098D01*
X1187153Y712095D01*
X1188238Y712451D01*
X1188243Y712458D01*
X1188248Y712455D01*
X1189227Y713044D01*
X1189230Y713052D01*
X1189236Y713051D01*
X1190059Y713843D01*
X1190060Y713851D01*
X1190066Y713851D01*
X1190693Y714806D01*
X1190692Y714814D01*
X1190698Y714816D01*
X1191096Y715886D01*
X1191094Y715894D01*
X1191099Y715897D01*
X1191249Y717030D01*
X1191246Y717034D01*
X1191249Y717036D01*
X1191249Y723036D01*
X1191246Y723040D01*
X1191249Y723042D01*
X1191099Y724175D01*
X1191093Y724181D01*
X1191096Y724186D01*
X1190698Y725256D01*
X1190691Y725260D01*
X1190693Y725266D01*
X1190066Y726221D01*
X1190058Y726224D01*
X1190059Y726229D01*
X1189236Y727021D01*
X1189228Y727022D01*
X1189227Y727028D01*
X1188248Y727617D01*
X1188240Y727616D01*
X1188238Y727621D01*
X1187153Y727977D01*
X1187145Y727975D01*
X1187142Y727979D01*
X1186005Y728085D01*
X1185998Y728081D01*
X1185994Y728085D01*
X1184906Y727940D01*
X1184900Y727934D01*
X1184895Y727937D01*
X1183867Y727554D01*
X1183862Y727547D01*
X1183857Y727549D01*
X1182940Y726946D01*
X1182937Y726938D01*
X1182931Y726939D01*
X1182171Y726147D01*
X1182170Y726139D01*
X1182164Y726138D01*
X1181600Y725197D01*
X1181601Y725189D01*
X1181595Y725187D01*
X1181254Y724144D01*
X1181256Y724136D01*
X1181252Y724133D01*
X1181151Y723041D01*
X1181153Y723038D01*
X1181151Y723036D01*
X1181151Y717036D01*
X1181153Y717033D01*
X1181151Y717032D01*
X1181252Y715939D01*
X1181257Y715933D01*
X1181254Y715928D01*
X1181595Y714885D01*
X1181602Y714880D01*
X1181600Y714875D01*
X1182164Y713934D01*
X1182172Y713931D01*
X1182171Y713925D01*
X1182931Y713133D01*
X1182939Y713132D01*
X1182940Y713126D01*
X1183857Y712524D01*
X1183865Y712524D01*
X1183867Y712519D01*
X1184895Y712135D01*
X1184903Y712137D01*
X1184906Y712132D01*
X1185994Y711987D01*
X1186001Y711991D01*
X1186005Y711987D01*
X1187142Y712093D01*
G37*
D10*
X875890Y647190D02*
X880870Y647190D01*
X880870Y632710D01*
X875890Y632710D01*
X875890Y647190D01*
X875890Y633679D02*
X880870Y633679D01*
X880870Y634648D02*
X875890Y634648D01*
X875890Y635617D02*
X880870Y635617D01*
X880870Y636586D02*
X875890Y636586D01*
X875890Y637555D02*
X880870Y637555D01*
X880870Y638524D02*
X875890Y638524D01*
X875890Y639493D02*
X880870Y639493D01*
X880870Y640462D02*
X875890Y640462D01*
X875890Y641431D02*
X880870Y641431D01*
X880870Y642400D02*
X875890Y642400D01*
X875890Y643369D02*
X880870Y643369D01*
X880870Y644338D02*
X875890Y644338D01*
X875890Y645307D02*
X880870Y645307D01*
X880870Y646276D02*
X875890Y646276D01*
X870870Y647190D02*
X865890Y647190D01*
X870870Y647190D02*
X870870Y632710D01*
X865890Y632710D01*
X865890Y647190D01*
X865890Y633679D02*
X870870Y633679D01*
X870870Y634648D02*
X865890Y634648D01*
X865890Y635617D02*
X870870Y635617D01*
X870870Y636586D02*
X865890Y636586D01*
X865890Y637555D02*
X870870Y637555D01*
X870870Y638524D02*
X865890Y638524D01*
X865890Y639493D02*
X870870Y639493D01*
X870870Y640462D02*
X865890Y640462D01*
X865890Y641431D02*
X870870Y641431D01*
X870870Y642400D02*
X865890Y642400D01*
X865890Y643369D02*
X870870Y643369D01*
X870870Y644338D02*
X865890Y644338D01*
X865890Y645307D02*
X870870Y645307D01*
X870870Y646276D02*
X865890Y646276D01*
X860870Y647190D02*
X855890Y647190D01*
X860870Y647190D02*
X860870Y632710D01*
X855890Y632710D01*
X855890Y647190D01*
X855890Y633679D02*
X860870Y633679D01*
X860870Y634648D02*
X855890Y634648D01*
X855890Y635617D02*
X860870Y635617D01*
X860870Y636586D02*
X855890Y636586D01*
X855890Y637555D02*
X860870Y637555D01*
X860870Y638524D02*
X855890Y638524D01*
X855890Y639493D02*
X860870Y639493D01*
X860870Y640462D02*
X855890Y640462D01*
X855890Y641431D02*
X860870Y641431D01*
X860870Y642400D02*
X855890Y642400D01*
X855890Y643369D02*
X860870Y643369D01*
X860870Y644338D02*
X855890Y644338D01*
X855890Y645307D02*
X860870Y645307D01*
X860870Y646276D02*
X855890Y646276D01*
X850870Y647190D02*
X845890Y647190D01*
X850870Y647190D02*
X850870Y632710D01*
X845890Y632710D01*
X845890Y647190D01*
X845890Y633679D02*
X850870Y633679D01*
X850870Y634648D02*
X845890Y634648D01*
X845890Y635617D02*
X850870Y635617D01*
X850870Y636586D02*
X845890Y636586D01*
X845890Y637555D02*
X850870Y637555D01*
X850870Y638524D02*
X845890Y638524D01*
X845890Y639493D02*
X850870Y639493D01*
X850870Y640462D02*
X845890Y640462D01*
X845890Y641431D02*
X850870Y641431D01*
X850870Y642400D02*
X845890Y642400D01*
X845890Y643369D02*
X850870Y643369D01*
X850870Y644338D02*
X845890Y644338D01*
X845890Y645307D02*
X850870Y645307D01*
X850870Y646276D02*
X845890Y646276D01*
D11*
X885860Y625220D02*
X896900Y625220D01*
X896900Y606180D01*
X885860Y606180D01*
X885860Y625220D01*
X885860Y607092D02*
X896900Y607092D01*
X896900Y608004D02*
X885860Y608004D01*
X885860Y608916D02*
X896900Y608916D01*
X896900Y609828D02*
X885860Y609828D01*
X885860Y610740D02*
X896900Y610740D01*
X896900Y611652D02*
X885860Y611652D01*
X885860Y612564D02*
X896900Y612564D01*
X896900Y613476D02*
X885860Y613476D01*
X885860Y614388D02*
X896900Y614388D01*
X896900Y615300D02*
X885860Y615300D01*
X885860Y616212D02*
X896900Y616212D01*
X896900Y617124D02*
X885860Y617124D01*
X885860Y618036D02*
X896900Y618036D01*
X896900Y618948D02*
X885860Y618948D01*
X885860Y619860D02*
X896900Y619860D01*
X896900Y620772D02*
X885860Y620772D01*
X885860Y621684D02*
X896900Y621684D01*
X896900Y622596D02*
X885860Y622596D01*
X885860Y623508D02*
X896900Y623508D01*
X896900Y624420D02*
X885860Y624420D01*
X840900Y625220D02*
X829860Y625220D01*
X840900Y625220D02*
X840900Y606180D01*
X829860Y606180D01*
X829860Y625220D01*
X829860Y607092D02*
X840900Y607092D01*
X840900Y608004D02*
X829860Y608004D01*
X829860Y608916D02*
X840900Y608916D01*
X840900Y609828D02*
X829860Y609828D01*
X829860Y610740D02*
X840900Y610740D01*
X840900Y611652D02*
X829860Y611652D01*
X829860Y612564D02*
X840900Y612564D01*
X840900Y613476D02*
X829860Y613476D01*
X829860Y614388D02*
X840900Y614388D01*
X840900Y615300D02*
X829860Y615300D01*
X829860Y616212D02*
X840900Y616212D01*
X840900Y617124D02*
X829860Y617124D01*
X829860Y618036D02*
X840900Y618036D01*
X840900Y618948D02*
X829860Y618948D01*
X829860Y619860D02*
X840900Y619860D01*
X840900Y620772D02*
X829860Y620772D01*
X829860Y621684D02*
X840900Y621684D01*
X840900Y622596D02*
X829860Y622596D01*
X829860Y623508D02*
X840900Y623508D01*
X840900Y624420D02*
X829860Y624420D01*
X886080Y732070D02*
X897120Y732070D01*
X897120Y713030D01*
X886080Y713030D01*
X886080Y732070D01*
X886080Y713942D02*
X897120Y713942D01*
X897120Y714854D02*
X886080Y714854D01*
X886080Y715766D02*
X897120Y715766D01*
X897120Y716678D02*
X886080Y716678D01*
X886080Y717590D02*
X897120Y717590D01*
X897120Y718502D02*
X886080Y718502D01*
X886080Y719414D02*
X897120Y719414D01*
X897120Y720326D02*
X886080Y720326D01*
X886080Y721238D02*
X897120Y721238D01*
X897120Y722150D02*
X886080Y722150D01*
X886080Y723062D02*
X897120Y723062D01*
X897120Y723974D02*
X886080Y723974D01*
X886080Y724886D02*
X897120Y724886D01*
X897120Y725798D02*
X886080Y725798D01*
X886080Y726710D02*
X897120Y726710D01*
X897120Y727622D02*
X886080Y727622D01*
X886080Y728534D02*
X897120Y728534D01*
X897120Y729446D02*
X886080Y729446D01*
X886080Y730358D02*
X897120Y730358D01*
X897120Y731270D02*
X886080Y731270D01*
X841120Y732070D02*
X830080Y732070D01*
X841120Y732070D02*
X841120Y713030D01*
X830080Y713030D01*
X830080Y732070D01*
X830080Y713942D02*
X841120Y713942D01*
X841120Y714854D02*
X830080Y714854D01*
X830080Y715766D02*
X841120Y715766D01*
X841120Y716678D02*
X830080Y716678D01*
X830080Y717590D02*
X841120Y717590D01*
X841120Y718502D02*
X830080Y718502D01*
X830080Y719414D02*
X841120Y719414D01*
X841120Y720326D02*
X830080Y720326D01*
X830080Y721238D02*
X841120Y721238D01*
X841120Y722150D02*
X830080Y722150D01*
X830080Y723062D02*
X841120Y723062D01*
X841120Y723974D02*
X830080Y723974D01*
X830080Y724886D02*
X841120Y724886D01*
X841120Y725798D02*
X830080Y725798D01*
X830080Y726710D02*
X841120Y726710D01*
X841120Y727622D02*
X830080Y727622D01*
X830080Y728534D02*
X841120Y728534D01*
X841120Y729446D02*
X830080Y729446D01*
X830080Y730358D02*
X841120Y730358D01*
X841120Y731270D02*
X830080Y731270D01*
D10*
X876110Y692040D02*
X881090Y692040D01*
X881090Y679560D01*
X876110Y679560D01*
X876110Y692040D01*
X876110Y680529D02*
X881090Y680529D01*
X881090Y681498D02*
X876110Y681498D01*
X876110Y682467D02*
X881090Y682467D01*
X881090Y683436D02*
X876110Y683436D01*
X876110Y684405D02*
X881090Y684405D01*
X881090Y685374D02*
X876110Y685374D01*
X876110Y686343D02*
X881090Y686343D01*
X881090Y687312D02*
X876110Y687312D01*
X876110Y688281D02*
X881090Y688281D01*
X881090Y689250D02*
X876110Y689250D01*
X876110Y690219D02*
X881090Y690219D01*
X881090Y691188D02*
X876110Y691188D01*
X871090Y692040D02*
X866110Y692040D01*
X871090Y692040D02*
X871090Y679560D01*
X866110Y679560D01*
X866110Y692040D01*
X866110Y680529D02*
X871090Y680529D01*
X871090Y681498D02*
X866110Y681498D01*
X866110Y682467D02*
X871090Y682467D01*
X871090Y683436D02*
X866110Y683436D01*
X866110Y684405D02*
X871090Y684405D01*
X871090Y685374D02*
X866110Y685374D01*
X866110Y686343D02*
X871090Y686343D01*
X871090Y687312D02*
X866110Y687312D01*
X866110Y688281D02*
X871090Y688281D01*
X871090Y689250D02*
X866110Y689250D01*
X866110Y690219D02*
X871090Y690219D01*
X871090Y691188D02*
X866110Y691188D01*
X861090Y692040D02*
X856110Y692040D01*
X861090Y692040D02*
X861090Y679560D01*
X856110Y679560D01*
X856110Y692040D01*
X856110Y680529D02*
X861090Y680529D01*
X861090Y681498D02*
X856110Y681498D01*
X856110Y682467D02*
X861090Y682467D01*
X861090Y683436D02*
X856110Y683436D01*
X856110Y684405D02*
X861090Y684405D01*
X861090Y685374D02*
X856110Y685374D01*
X856110Y686343D02*
X861090Y686343D01*
X861090Y687312D02*
X856110Y687312D01*
X856110Y688281D02*
X861090Y688281D01*
X861090Y689250D02*
X856110Y689250D01*
X856110Y690219D02*
X861090Y690219D01*
X861090Y691188D02*
X856110Y691188D01*
X851090Y692040D02*
X846110Y692040D01*
X851090Y692040D02*
X851090Y679560D01*
X846110Y679560D01*
X846110Y692040D01*
X846110Y680529D02*
X851090Y680529D01*
X851090Y681498D02*
X846110Y681498D01*
X846110Y682467D02*
X851090Y682467D01*
X851090Y683436D02*
X846110Y683436D01*
X846110Y684405D02*
X851090Y684405D01*
X851090Y685374D02*
X846110Y685374D01*
X846110Y686343D02*
X851090Y686343D01*
X851090Y687312D02*
X846110Y687312D01*
X846110Y688281D02*
X851090Y688281D01*
X851090Y689250D02*
X846110Y689250D01*
X846110Y690219D02*
X851090Y690219D01*
X851090Y691188D02*
X846110Y691188D01*
D11*
X1053020Y229890D02*
X1064060Y229890D01*
X1064060Y203350D01*
X1053020Y203350D01*
X1053020Y229890D01*
X1053020Y204262D02*
X1064060Y204262D01*
X1064060Y205174D02*
X1053020Y205174D01*
X1053020Y206086D02*
X1064060Y206086D01*
X1064060Y206998D02*
X1053020Y206998D01*
X1053020Y207910D02*
X1064060Y207910D01*
X1064060Y208822D02*
X1053020Y208822D01*
X1053020Y209734D02*
X1064060Y209734D01*
X1064060Y210646D02*
X1053020Y210646D01*
X1053020Y211558D02*
X1064060Y211558D01*
X1064060Y212470D02*
X1053020Y212470D01*
X1053020Y213382D02*
X1064060Y213382D01*
X1064060Y214294D02*
X1053020Y214294D01*
X1053020Y215206D02*
X1064060Y215206D01*
X1064060Y216118D02*
X1053020Y216118D01*
X1053020Y217030D02*
X1064060Y217030D01*
X1064060Y217942D02*
X1053020Y217942D01*
X1053020Y218854D02*
X1064060Y218854D01*
X1064060Y219766D02*
X1053020Y219766D01*
X1053020Y220678D02*
X1064060Y220678D01*
X1064060Y221590D02*
X1053020Y221590D01*
X1053020Y222502D02*
X1064060Y222502D01*
X1064060Y223414D02*
X1053020Y223414D01*
X1053020Y224326D02*
X1064060Y224326D01*
X1064060Y225238D02*
X1053020Y225238D01*
X1053020Y226150D02*
X1064060Y226150D01*
X1064060Y227062D02*
X1053020Y227062D01*
X1053020Y227974D02*
X1064060Y227974D01*
X1064060Y228886D02*
X1053020Y228886D01*
X1053020Y229798D02*
X1064060Y229798D01*
X857060Y229890D02*
X846020Y229890D01*
X857060Y229890D02*
X857060Y203350D01*
X846020Y203350D01*
X846020Y229890D01*
X846020Y204262D02*
X857060Y204262D01*
X857060Y205174D02*
X846020Y205174D01*
X846020Y206086D02*
X857060Y206086D01*
X857060Y206998D02*
X846020Y206998D01*
X846020Y207910D02*
X857060Y207910D01*
X857060Y208822D02*
X846020Y208822D01*
X846020Y209734D02*
X857060Y209734D01*
X857060Y210646D02*
X846020Y210646D01*
X846020Y211558D02*
X857060Y211558D01*
X857060Y212470D02*
X846020Y212470D01*
X846020Y213382D02*
X857060Y213382D01*
X857060Y214294D02*
X846020Y214294D01*
X846020Y215206D02*
X857060Y215206D01*
X857060Y216118D02*
X846020Y216118D01*
X846020Y217030D02*
X857060Y217030D01*
X857060Y217942D02*
X846020Y217942D01*
X846020Y218854D02*
X857060Y218854D01*
X857060Y219766D02*
X846020Y219766D01*
X846020Y220678D02*
X857060Y220678D01*
X857060Y221590D02*
X846020Y221590D01*
X846020Y222502D02*
X857060Y222502D01*
X857060Y223414D02*
X846020Y223414D01*
X846020Y224326D02*
X857060Y224326D01*
X857060Y225238D02*
X846020Y225238D01*
X846020Y226150D02*
X857060Y226150D01*
X857060Y227062D02*
X846020Y227062D01*
X846020Y227974D02*
X857060Y227974D01*
X857060Y228886D02*
X846020Y228886D01*
X846020Y229798D02*
X857060Y229798D01*
D12*
X865040Y284370D03*
X875040Y284370D03*
X880040Y284370D03*
X870040Y284370D03*
X885040Y284370D03*
X895040Y284370D03*
X900040Y284370D03*
X890040Y284370D03*
X905040Y284370D03*
X915040Y284370D03*
X920040Y284370D03*
X910040Y284370D03*
X925040Y284370D03*
X935040Y284370D03*
X940040Y284370D03*
X930040Y284370D03*
X945040Y284370D03*
X955040Y284370D03*
X960040Y284370D03*
X950040Y284370D03*
X965040Y284370D03*
X970040Y284370D03*
X995040Y284370D03*
X1000040Y284370D03*
X1005040Y284370D03*
X1015040Y284370D03*
X1020040Y284370D03*
X1010040Y284370D03*
X1025040Y284370D03*
X1035040Y284370D03*
X1040040Y284370D03*
X1030040Y284370D03*
X1045040Y284370D03*
X862540Y208870D03*
X872540Y208870D03*
X877540Y208870D03*
X867540Y208870D03*
X882540Y208870D03*
X892540Y208870D03*
X897540Y208870D03*
X887540Y208870D03*
X902540Y208870D03*
X912540Y208870D03*
X917540Y208870D03*
X907540Y208870D03*
X922540Y208870D03*
X932540Y208870D03*
X937540Y208870D03*
X927540Y208870D03*
X942540Y208870D03*
X952540Y208870D03*
X957540Y208870D03*
X947540Y208870D03*
X962540Y208870D03*
X967540Y208870D03*
X992540Y208870D03*
X997540Y208870D03*
X1002540Y208870D03*
X1012540Y208870D03*
X1017540Y208870D03*
X1007540Y208870D03*
X1022540Y208870D03*
X1032540Y208870D03*
X1037540Y208870D03*
X1027540Y208870D03*
X1042540Y208870D03*
X1047540Y208870D03*
D13*
X1083500Y65300D02*
X1083500Y56300D01*
X1083500Y65300D02*
X1128500Y65300D01*
X1128500Y56300D01*
X1083500Y56300D01*
X1083500Y57250D02*
X1128500Y57250D01*
X1128500Y58200D02*
X1083500Y58200D01*
X1083500Y59150D02*
X1128500Y59150D01*
X1128500Y60100D02*
X1083500Y60100D01*
X1083500Y61050D02*
X1128500Y61050D01*
X1128500Y62000D02*
X1083500Y62000D01*
X1083500Y62950D02*
X1128500Y62950D01*
X1128500Y63900D02*
X1083500Y63900D01*
X1083500Y64850D02*
X1128500Y64850D01*
X1083500Y45300D02*
X1083500Y36300D01*
X1083500Y45300D02*
X1128500Y45300D01*
X1128500Y36300D01*
X1083500Y36300D01*
X1083500Y37250D02*
X1128500Y37250D01*
X1128500Y38200D02*
X1083500Y38200D01*
X1083500Y39150D02*
X1128500Y39150D01*
X1128500Y40100D02*
X1083500Y40100D01*
X1083500Y41050D02*
X1128500Y41050D01*
X1128500Y42000D02*
X1083500Y42000D01*
X1083500Y42950D02*
X1128500Y42950D01*
X1128500Y43900D02*
X1083500Y43900D01*
X1083500Y44850D02*
X1128500Y44850D01*
D11*
X1141480Y77280D02*
X1174520Y77280D01*
X1141480Y77280D02*
X1141480Y92320D01*
X1174520Y92320D01*
X1174520Y77280D01*
X1174520Y78192D02*
X1141480Y78192D01*
X1141480Y79104D02*
X1174520Y79104D01*
X1174520Y80016D02*
X1141480Y80016D01*
X1141480Y80928D02*
X1174520Y80928D01*
X1174520Y81840D02*
X1141480Y81840D01*
X1141480Y82752D02*
X1174520Y82752D01*
X1174520Y83664D02*
X1141480Y83664D01*
X1141480Y84576D02*
X1174520Y84576D01*
X1174520Y85488D02*
X1141480Y85488D01*
X1141480Y86400D02*
X1174520Y86400D01*
X1174520Y87312D02*
X1141480Y87312D01*
X1141480Y88224D02*
X1174520Y88224D01*
X1174520Y89136D02*
X1141480Y89136D01*
X1141480Y90048D02*
X1174520Y90048D01*
X1174520Y90960D02*
X1141480Y90960D01*
X1141480Y91872D02*
X1174520Y91872D01*
X1174520Y9280D02*
X1141480Y9280D01*
X1141480Y24320D01*
X1174520Y24320D01*
X1174520Y9280D01*
X1174520Y10192D02*
X1141480Y10192D01*
X1141480Y11104D02*
X1174520Y11104D01*
X1174520Y12016D02*
X1141480Y12016D01*
X1141480Y12928D02*
X1174520Y12928D01*
X1174520Y13840D02*
X1141480Y13840D01*
X1141480Y14752D02*
X1174520Y14752D01*
X1174520Y15664D02*
X1141480Y15664D01*
X1141480Y16576D02*
X1174520Y16576D01*
X1174520Y17488D02*
X1141480Y17488D01*
X1141480Y18400D02*
X1174520Y18400D01*
X1174520Y19312D02*
X1141480Y19312D01*
X1141480Y20224D02*
X1174520Y20224D01*
X1174520Y21136D02*
X1141480Y21136D01*
X1141480Y22048D02*
X1174520Y22048D01*
X1174520Y22960D02*
X1141480Y22960D01*
X1141480Y23872D02*
X1174520Y23872D01*
D14*
X1111794Y159645D02*
X1111794Y164155D01*
X1122804Y164155D01*
X1122804Y159645D01*
X1111794Y159645D01*
X1111794Y160585D02*
X1122804Y160585D01*
X1122804Y161525D02*
X1111794Y161525D01*
X1111794Y162465D02*
X1122804Y162465D01*
X1122804Y163405D02*
X1111794Y163405D01*
X1111794Y154655D02*
X1111794Y150145D01*
X1111794Y154655D02*
X1122804Y154655D01*
X1122804Y150145D01*
X1111794Y150145D01*
X1111794Y151085D02*
X1122804Y151085D01*
X1122804Y152025D02*
X1111794Y152025D01*
X1111794Y152965D02*
X1122804Y152965D01*
X1122804Y153905D02*
X1111794Y153905D01*
X1111794Y145155D02*
X1111794Y140645D01*
X1111794Y145155D02*
X1122804Y145155D01*
X1122804Y140645D01*
X1111794Y140645D01*
X1111794Y141585D02*
X1122804Y141585D01*
X1122804Y142525D02*
X1111794Y142525D01*
X1111794Y143465D02*
X1122804Y143465D01*
X1122804Y144405D02*
X1111794Y144405D01*
X1137796Y145155D02*
X1137796Y140645D01*
X1137796Y145155D02*
X1148806Y145155D01*
X1148806Y140645D01*
X1137796Y140645D01*
X1137796Y141585D02*
X1148806Y141585D01*
X1148806Y142525D02*
X1137796Y142525D01*
X1137796Y143465D02*
X1148806Y143465D01*
X1148806Y144405D02*
X1137796Y144405D01*
X1137796Y159645D02*
X1137796Y164155D01*
X1148806Y164155D01*
X1148806Y159645D01*
X1137796Y159645D01*
X1137796Y160585D02*
X1148806Y160585D01*
X1148806Y161525D02*
X1137796Y161525D01*
X1137796Y162465D02*
X1148806Y162465D01*
X1148806Y163405D02*
X1137796Y163405D01*
D13*
X1208460Y367500D02*
X1208460Y377500D01*
X1208460Y367500D02*
X1199460Y367500D01*
X1199460Y377500D01*
X1208460Y377500D01*
X1208460Y368450D02*
X1199460Y368450D01*
X1199460Y369400D02*
X1208460Y369400D01*
X1208460Y370350D02*
X1199460Y370350D01*
X1199460Y371300D02*
X1208460Y371300D01*
X1208460Y372250D02*
X1199460Y372250D01*
X1199460Y373200D02*
X1208460Y373200D01*
X1208460Y374150D02*
X1199460Y374150D01*
X1199460Y375100D02*
X1208460Y375100D01*
X1208460Y376050D02*
X1199460Y376050D01*
X1199460Y377000D02*
X1208460Y377000D01*
X1208460Y384500D02*
X1208460Y394500D01*
X1208460Y384500D02*
X1199460Y384500D01*
X1199460Y394500D01*
X1208460Y394500D01*
X1208460Y385450D02*
X1199460Y385450D01*
X1199460Y386400D02*
X1208460Y386400D01*
X1208460Y387350D02*
X1199460Y387350D01*
X1199460Y388300D02*
X1208460Y388300D01*
X1208460Y389250D02*
X1199460Y389250D01*
X1199460Y390200D02*
X1208460Y390200D01*
X1208460Y391150D02*
X1199460Y391150D01*
X1199460Y392100D02*
X1208460Y392100D01*
X1208460Y393050D02*
X1199460Y393050D01*
X1199460Y394000D02*
X1208460Y394000D01*
D15*
X1215700Y386270D02*
X1222700Y386270D01*
X1215700Y386270D02*
X1215700Y393270D01*
X1222700Y393270D01*
X1222700Y386270D01*
X1222700Y389120D02*
X1215700Y389120D01*
X1215700Y391970D02*
X1222700Y391970D01*
X1222700Y368730D02*
X1215700Y368730D01*
X1215700Y375730D01*
X1222700Y375730D01*
X1222700Y368730D01*
X1222700Y371580D02*
X1215700Y371580D01*
X1215700Y374430D02*
X1222700Y374430D01*
D13*
X1175440Y148900D02*
X1175440Y138900D01*
X1166440Y138900D01*
X1166440Y148900D01*
X1175440Y148900D01*
X1175440Y139850D02*
X1166440Y139850D01*
X1166440Y140800D02*
X1175440Y140800D01*
X1175440Y141750D02*
X1166440Y141750D01*
X1166440Y142700D02*
X1175440Y142700D01*
X1175440Y143650D02*
X1166440Y143650D01*
X1166440Y144600D02*
X1175440Y144600D01*
X1175440Y145550D02*
X1166440Y145550D01*
X1166440Y146500D02*
X1175440Y146500D01*
X1175440Y147450D02*
X1166440Y147450D01*
X1166440Y148400D02*
X1175440Y148400D01*
X1175440Y155900D02*
X1175440Y165900D01*
X1175440Y155900D02*
X1166440Y155900D01*
X1166440Y165900D01*
X1175440Y165900D01*
X1175440Y156850D02*
X1166440Y156850D01*
X1166440Y157800D02*
X1175440Y157800D01*
X1175440Y158750D02*
X1166440Y158750D01*
X1166440Y159700D02*
X1175440Y159700D01*
X1175440Y160650D02*
X1166440Y160650D01*
X1166440Y161600D02*
X1175440Y161600D01*
X1175440Y162550D02*
X1166440Y162550D01*
X1166440Y163500D02*
X1175440Y163500D01*
X1175440Y164450D02*
X1166440Y164450D01*
X1166440Y165400D02*
X1175440Y165400D01*
X1126800Y122500D02*
X1116800Y122500D01*
X1116800Y131500D01*
X1126800Y131500D01*
X1126800Y122500D01*
X1126800Y123450D02*
X1116800Y123450D01*
X1116800Y124400D02*
X1126800Y124400D01*
X1126800Y125350D02*
X1116800Y125350D01*
X1116800Y126300D02*
X1126800Y126300D01*
X1126800Y127250D02*
X1116800Y127250D01*
X1116800Y128200D02*
X1126800Y128200D01*
X1126800Y129150D02*
X1116800Y129150D01*
X1116800Y130100D02*
X1126800Y130100D01*
X1126800Y131050D02*
X1116800Y131050D01*
X1133800Y122500D02*
X1143800Y122500D01*
X1133800Y122500D02*
X1133800Y131500D01*
X1143800Y131500D01*
X1143800Y122500D01*
X1143800Y123450D02*
X1133800Y123450D01*
X1133800Y124400D02*
X1143800Y124400D01*
X1143800Y125350D02*
X1133800Y125350D01*
X1133800Y126300D02*
X1143800Y126300D01*
X1143800Y127250D02*
X1133800Y127250D01*
X1133800Y128200D02*
X1143800Y128200D01*
X1143800Y129150D02*
X1133800Y129150D01*
X1133800Y130100D02*
X1143800Y130100D01*
X1143800Y131050D02*
X1133800Y131050D01*
D10*
X1134510Y676926D02*
X1136490Y676926D01*
X1136490Y667946D01*
X1134510Y667946D01*
X1134510Y676926D01*
X1134510Y668915D02*
X1136490Y668915D01*
X1136490Y669884D02*
X1134510Y669884D01*
X1134510Y670853D02*
X1136490Y670853D01*
X1136490Y671822D02*
X1134510Y671822D01*
X1134510Y672791D02*
X1136490Y672791D01*
X1136490Y673760D02*
X1134510Y673760D01*
X1134510Y674729D02*
X1136490Y674729D01*
X1136490Y675698D02*
X1134510Y675698D01*
X1134510Y676667D02*
X1136490Y676667D01*
X1139510Y676926D02*
X1141490Y676926D01*
X1141490Y667946D01*
X1139510Y667946D01*
X1139510Y676926D01*
X1139510Y668915D02*
X1141490Y668915D01*
X1141490Y669884D02*
X1139510Y669884D01*
X1139510Y670853D02*
X1141490Y670853D01*
X1141490Y671822D02*
X1139510Y671822D01*
X1139510Y672791D02*
X1141490Y672791D01*
X1141490Y673760D02*
X1139510Y673760D01*
X1139510Y674729D02*
X1141490Y674729D01*
X1141490Y675698D02*
X1139510Y675698D01*
X1139510Y676667D02*
X1141490Y676667D01*
X1113240Y676926D02*
X1108260Y676926D01*
X1113240Y676926D02*
X1113240Y667946D01*
X1108260Y667946D01*
X1108260Y676926D01*
X1108260Y668915D02*
X1113240Y668915D01*
X1113240Y669884D02*
X1108260Y669884D01*
X1108260Y670853D02*
X1113240Y670853D01*
X1113240Y671822D02*
X1108260Y671822D01*
X1108260Y672791D02*
X1113240Y672791D01*
X1113240Y673760D02*
X1108260Y673760D01*
X1108260Y674729D02*
X1113240Y674729D01*
X1113240Y675698D02*
X1108260Y675698D01*
X1108260Y676667D02*
X1113240Y676667D01*
X1116010Y676926D02*
X1120990Y676926D01*
X1120990Y667946D01*
X1116010Y667946D01*
X1116010Y676926D01*
X1116010Y668915D02*
X1120990Y668915D01*
X1120990Y669884D02*
X1116010Y669884D01*
X1116010Y670853D02*
X1120990Y670853D01*
X1120990Y671822D02*
X1116010Y671822D01*
X1116010Y672791D02*
X1120990Y672791D01*
X1120990Y673760D02*
X1116010Y673760D01*
X1116010Y674729D02*
X1120990Y674729D01*
X1120990Y675698D02*
X1116010Y675698D01*
X1116010Y676667D02*
X1120990Y676667D01*
X1124510Y676926D02*
X1126490Y676926D01*
X1126490Y667946D01*
X1124510Y667946D01*
X1124510Y676926D01*
X1124510Y668915D02*
X1126490Y668915D01*
X1126490Y669884D02*
X1124510Y669884D01*
X1124510Y670853D02*
X1126490Y670853D01*
X1126490Y671822D02*
X1124510Y671822D01*
X1124510Y672791D02*
X1126490Y672791D01*
X1126490Y673760D02*
X1124510Y673760D01*
X1124510Y674729D02*
X1126490Y674729D01*
X1126490Y675698D02*
X1124510Y675698D01*
X1124510Y676667D02*
X1126490Y676667D01*
X1129510Y676926D02*
X1131490Y676926D01*
X1131490Y667946D01*
X1129510Y667946D01*
X1129510Y676926D01*
X1129510Y668915D02*
X1131490Y668915D01*
X1131490Y669884D02*
X1129510Y669884D01*
X1129510Y670853D02*
X1131490Y670853D01*
X1131490Y671822D02*
X1129510Y671822D01*
X1129510Y672791D02*
X1131490Y672791D01*
X1131490Y673760D02*
X1129510Y673760D01*
X1129510Y674729D02*
X1131490Y674729D01*
X1131490Y675698D02*
X1129510Y675698D01*
X1129510Y676667D02*
X1131490Y676667D01*
X1149510Y667946D02*
X1151490Y667946D01*
X1149510Y667946D02*
X1149510Y676926D01*
X1151490Y676926D01*
X1151490Y667946D01*
X1151490Y668915D02*
X1149510Y668915D01*
X1149510Y669884D02*
X1151490Y669884D01*
X1151490Y670853D02*
X1149510Y670853D01*
X1149510Y671822D02*
X1151490Y671822D01*
X1151490Y672791D02*
X1149510Y672791D01*
X1149510Y673760D02*
X1151490Y673760D01*
X1151490Y674729D02*
X1149510Y674729D01*
X1149510Y675698D02*
X1151490Y675698D01*
X1151490Y676667D02*
X1149510Y676667D01*
X1146490Y667946D02*
X1144510Y667946D01*
X1144510Y676926D01*
X1146490Y676926D01*
X1146490Y667946D01*
X1146490Y668915D02*
X1144510Y668915D01*
X1144510Y669884D02*
X1146490Y669884D01*
X1146490Y670853D02*
X1144510Y670853D01*
X1144510Y671822D02*
X1146490Y671822D01*
X1146490Y672791D02*
X1144510Y672791D01*
X1144510Y673760D02*
X1146490Y673760D01*
X1146490Y674729D02*
X1144510Y674729D01*
X1144510Y675698D02*
X1146490Y675698D01*
X1146490Y676667D02*
X1144510Y676667D01*
X1172760Y667946D02*
X1177740Y667946D01*
X1172760Y667946D02*
X1172760Y676926D01*
X1177740Y676926D01*
X1177740Y667946D01*
X1177740Y668915D02*
X1172760Y668915D01*
X1172760Y669884D02*
X1177740Y669884D01*
X1177740Y670853D02*
X1172760Y670853D01*
X1172760Y671822D02*
X1177740Y671822D01*
X1177740Y672791D02*
X1172760Y672791D01*
X1172760Y673760D02*
X1177740Y673760D01*
X1177740Y674729D02*
X1172760Y674729D01*
X1172760Y675698D02*
X1177740Y675698D01*
X1177740Y676667D02*
X1172760Y676667D01*
X1169990Y667946D02*
X1165010Y667946D01*
X1165010Y676926D01*
X1169990Y676926D01*
X1169990Y667946D01*
X1169990Y668915D02*
X1165010Y668915D01*
X1165010Y669884D02*
X1169990Y669884D01*
X1169990Y670853D02*
X1165010Y670853D01*
X1165010Y671822D02*
X1169990Y671822D01*
X1169990Y672791D02*
X1165010Y672791D01*
X1165010Y673760D02*
X1169990Y673760D01*
X1169990Y674729D02*
X1165010Y674729D01*
X1165010Y675698D02*
X1169990Y675698D01*
X1169990Y676667D02*
X1165010Y676667D01*
X1161490Y667946D02*
X1159510Y667946D01*
X1159510Y676926D01*
X1161490Y676926D01*
X1161490Y667946D01*
X1161490Y668915D02*
X1159510Y668915D01*
X1159510Y669884D02*
X1161490Y669884D01*
X1161490Y670853D02*
X1159510Y670853D01*
X1159510Y671822D02*
X1161490Y671822D01*
X1161490Y672791D02*
X1159510Y672791D01*
X1159510Y673760D02*
X1161490Y673760D01*
X1161490Y674729D02*
X1159510Y674729D01*
X1159510Y675698D02*
X1161490Y675698D01*
X1161490Y676667D02*
X1159510Y676667D01*
X1156490Y667946D02*
X1154510Y667946D01*
X1154510Y676926D01*
X1156490Y676926D01*
X1156490Y667946D01*
X1156490Y668915D02*
X1154510Y668915D01*
X1154510Y669884D02*
X1156490Y669884D01*
X1156490Y670853D02*
X1154510Y670853D01*
X1154510Y671822D02*
X1156490Y671822D01*
X1156490Y672791D02*
X1154510Y672791D01*
X1154510Y673760D02*
X1156490Y673760D01*
X1156490Y674729D02*
X1154510Y674729D01*
X1154510Y675698D02*
X1156490Y675698D01*
X1156490Y676667D02*
X1154510Y676667D01*
D13*
X1205920Y639120D02*
X1205920Y629120D01*
X1196920Y629120D01*
X1196920Y639120D01*
X1205920Y639120D01*
X1205920Y630070D02*
X1196920Y630070D01*
X1196920Y631020D02*
X1205920Y631020D01*
X1205920Y631970D02*
X1196920Y631970D01*
X1196920Y632920D02*
X1205920Y632920D01*
X1205920Y633870D02*
X1196920Y633870D01*
X1196920Y634820D02*
X1205920Y634820D01*
X1205920Y635770D02*
X1196920Y635770D01*
X1196920Y636720D02*
X1205920Y636720D01*
X1205920Y637670D02*
X1196920Y637670D01*
X1196920Y638620D02*
X1205920Y638620D01*
X1205920Y646120D02*
X1205920Y656120D01*
X1205920Y646120D02*
X1196920Y646120D01*
X1196920Y656120D01*
X1205920Y656120D01*
X1205920Y647070D02*
X1196920Y647070D01*
X1196920Y648020D02*
X1205920Y648020D01*
X1205920Y648970D02*
X1196920Y648970D01*
X1196920Y649920D02*
X1205920Y649920D01*
X1205920Y650870D02*
X1196920Y650870D01*
X1196920Y651820D02*
X1205920Y651820D01*
X1205920Y652770D02*
X1196920Y652770D01*
X1196920Y653720D02*
X1205920Y653720D01*
X1205920Y654670D02*
X1196920Y654670D01*
X1196920Y655620D02*
X1205920Y655620D01*
X1094668Y639628D02*
X1094668Y629628D01*
X1085668Y629628D01*
X1085668Y639628D01*
X1094668Y639628D01*
X1094668Y630578D02*
X1085668Y630578D01*
X1085668Y631528D02*
X1094668Y631528D01*
X1094668Y632478D02*
X1085668Y632478D01*
X1085668Y633428D02*
X1094668Y633428D01*
X1094668Y634378D02*
X1085668Y634378D01*
X1085668Y635328D02*
X1094668Y635328D01*
X1094668Y636278D02*
X1085668Y636278D01*
X1085668Y637228D02*
X1094668Y637228D01*
X1094668Y638178D02*
X1085668Y638178D01*
X1085668Y639128D02*
X1094668Y639128D01*
X1094668Y646628D02*
X1094668Y656628D01*
X1094668Y646628D02*
X1085668Y646628D01*
X1085668Y656628D01*
X1094668Y656628D01*
X1094668Y647578D02*
X1085668Y647578D01*
X1085668Y648528D02*
X1094668Y648528D01*
X1094668Y649478D02*
X1085668Y649478D01*
X1085668Y650428D02*
X1094668Y650428D01*
X1094668Y651378D02*
X1085668Y651378D01*
X1085668Y652328D02*
X1094668Y652328D01*
X1094668Y653278D02*
X1085668Y653278D01*
X1085668Y654228D02*
X1094668Y654228D01*
X1094668Y655178D02*
X1085668Y655178D01*
X1085668Y656128D02*
X1094668Y656128D01*
D16*
X1180605Y263665D02*
X1180605Y257035D01*
X1166355Y257035D01*
X1166355Y263665D01*
X1180605Y263665D01*
X1180605Y257976D02*
X1166355Y257976D01*
X1166355Y258917D02*
X1180605Y258917D01*
X1180605Y259858D02*
X1166355Y259858D01*
X1166355Y260799D02*
X1180605Y260799D01*
X1180605Y261740D02*
X1166355Y261740D01*
X1166355Y262681D02*
X1180605Y262681D01*
X1180605Y263622D02*
X1166355Y263622D01*
X1236485Y263665D02*
X1236485Y257035D01*
X1222235Y257035D01*
X1222235Y263665D01*
X1236485Y263665D01*
X1236485Y257976D02*
X1222235Y257976D01*
X1222235Y258917D02*
X1236485Y258917D01*
X1236485Y259858D02*
X1222235Y259858D01*
X1222235Y260799D02*
X1236485Y260799D01*
X1236485Y261740D02*
X1222235Y261740D01*
X1222235Y262681D02*
X1236485Y262681D01*
X1236485Y263622D02*
X1222235Y263622D01*
X1180605Y225565D02*
X1180605Y218935D01*
X1166355Y218935D01*
X1166355Y225565D01*
X1180605Y225565D01*
X1180605Y219876D02*
X1166355Y219876D01*
X1166355Y220817D02*
X1180605Y220817D01*
X1180605Y221758D02*
X1166355Y221758D01*
X1166355Y222699D02*
X1180605Y222699D01*
X1180605Y223640D02*
X1166355Y223640D01*
X1166355Y224581D02*
X1180605Y224581D01*
X1180605Y225522D02*
X1166355Y225522D01*
X1236485Y225565D02*
X1236485Y218935D01*
X1222235Y218935D01*
X1222235Y225565D01*
X1236485Y225565D01*
X1236485Y219876D02*
X1222235Y219876D01*
X1222235Y220817D02*
X1236485Y220817D01*
X1236485Y221758D02*
X1222235Y221758D01*
X1222235Y222699D02*
X1236485Y222699D01*
X1236485Y223640D02*
X1222235Y223640D01*
X1222235Y224581D02*
X1236485Y224581D01*
X1236485Y225522D02*
X1222235Y225522D01*
X1180605Y320535D02*
X1180605Y327165D01*
X1180605Y320535D02*
X1166355Y320535D01*
X1166355Y327165D01*
X1180605Y327165D01*
X1180605Y321476D02*
X1166355Y321476D01*
X1166355Y322417D02*
X1180605Y322417D01*
X1180605Y323358D02*
X1166355Y323358D01*
X1166355Y324299D02*
X1180605Y324299D01*
X1180605Y325240D02*
X1166355Y325240D01*
X1166355Y326181D02*
X1180605Y326181D01*
X1180605Y327122D02*
X1166355Y327122D01*
X1236485Y327165D02*
X1236485Y320535D01*
X1222235Y320535D01*
X1222235Y327165D01*
X1236485Y327165D01*
X1236485Y321476D02*
X1222235Y321476D01*
X1222235Y322417D02*
X1236485Y322417D01*
X1236485Y323358D02*
X1222235Y323358D01*
X1222235Y324299D02*
X1236485Y324299D01*
X1236485Y325240D02*
X1222235Y325240D01*
X1222235Y326181D02*
X1236485Y326181D01*
X1236485Y327122D02*
X1222235Y327122D01*
X1180605Y289065D02*
X1180605Y282435D01*
X1166355Y282435D01*
X1166355Y289065D01*
X1180605Y289065D01*
X1180605Y283376D02*
X1166355Y283376D01*
X1166355Y284317D02*
X1180605Y284317D01*
X1180605Y285258D02*
X1166355Y285258D01*
X1166355Y286199D02*
X1180605Y286199D01*
X1180605Y287140D02*
X1166355Y287140D01*
X1166355Y288081D02*
X1180605Y288081D01*
X1180605Y289022D02*
X1166355Y289022D01*
X1236485Y289065D02*
X1236485Y282435D01*
X1222235Y282435D01*
X1222235Y289065D01*
X1236485Y289065D01*
X1236485Y283376D02*
X1222235Y283376D01*
X1222235Y284317D02*
X1236485Y284317D01*
X1236485Y285258D02*
X1222235Y285258D01*
X1222235Y286199D02*
X1236485Y286199D01*
X1236485Y287140D02*
X1222235Y287140D01*
X1222235Y288081D02*
X1236485Y288081D01*
X1236485Y289022D02*
X1222235Y289022D01*
D17*
X1129284Y439166D03*
D10*
X1120524Y422676D02*
X1118544Y422676D01*
X1118544Y428156D01*
X1120524Y428156D01*
X1120524Y422676D01*
X1120524Y423645D02*
X1118544Y423645D01*
X1118544Y424614D02*
X1120524Y424614D01*
X1120524Y425583D02*
X1118544Y425583D01*
X1118544Y426552D02*
X1120524Y426552D01*
X1120524Y427521D02*
X1118544Y427521D01*
X1125044Y422676D02*
X1127024Y422676D01*
X1125044Y422676D02*
X1125044Y428156D01*
X1127024Y428156D01*
X1127024Y422676D01*
X1127024Y423645D02*
X1125044Y423645D01*
X1125044Y424614D02*
X1127024Y424614D01*
X1127024Y425583D02*
X1125044Y425583D01*
X1125044Y426552D02*
X1127024Y426552D01*
X1127024Y427521D02*
X1125044Y427521D01*
X1131544Y422676D02*
X1133524Y422676D01*
X1131544Y422676D02*
X1131544Y428156D01*
X1133524Y428156D01*
X1133524Y422676D01*
X1133524Y423645D02*
X1131544Y423645D01*
X1131544Y424614D02*
X1133524Y424614D01*
X1133524Y425583D02*
X1131544Y425583D01*
X1131544Y426552D02*
X1133524Y426552D01*
X1133524Y427521D02*
X1131544Y427521D01*
X1138044Y422676D02*
X1140024Y422676D01*
X1138044Y422676D02*
X1138044Y428156D01*
X1140024Y428156D01*
X1140024Y422676D01*
X1140024Y423645D02*
X1138044Y423645D01*
X1138044Y424614D02*
X1140024Y424614D01*
X1140024Y425583D02*
X1138044Y425583D01*
X1138044Y426552D02*
X1140024Y426552D01*
X1140024Y427521D02*
X1138044Y427521D01*
X1138044Y455656D02*
X1140024Y455656D01*
X1140024Y450176D01*
X1138044Y450176D01*
X1138044Y455656D01*
X1138044Y451145D02*
X1140024Y451145D01*
X1140024Y452114D02*
X1138044Y452114D01*
X1138044Y453083D02*
X1140024Y453083D01*
X1140024Y454052D02*
X1138044Y454052D01*
X1138044Y455021D02*
X1140024Y455021D01*
X1133524Y455656D02*
X1131544Y455656D01*
X1133524Y455656D02*
X1133524Y450176D01*
X1131544Y450176D01*
X1131544Y455656D01*
X1131544Y451145D02*
X1133524Y451145D01*
X1133524Y452114D02*
X1131544Y452114D01*
X1131544Y453083D02*
X1133524Y453083D01*
X1133524Y454052D02*
X1131544Y454052D01*
X1131544Y455021D02*
X1133524Y455021D01*
X1127024Y455656D02*
X1125044Y455656D01*
X1127024Y455656D02*
X1127024Y450176D01*
X1125044Y450176D01*
X1125044Y455656D01*
X1125044Y451145D02*
X1127024Y451145D01*
X1127024Y452114D02*
X1125044Y452114D01*
X1125044Y453083D02*
X1127024Y453083D01*
X1127024Y454052D02*
X1125044Y454052D01*
X1125044Y455021D02*
X1127024Y455021D01*
X1120524Y455656D02*
X1118544Y455656D01*
X1120524Y455656D02*
X1120524Y450176D01*
X1118544Y450176D01*
X1118544Y455656D01*
X1118544Y451145D02*
X1120524Y451145D01*
X1120524Y452114D02*
X1118544Y452114D01*
X1118544Y453083D02*
X1120524Y453083D01*
X1120524Y454052D02*
X1118544Y454052D01*
X1118544Y455021D02*
X1120524Y455021D01*
D13*
X1116800Y462860D02*
X1126800Y462860D01*
X1116800Y462860D02*
X1116800Y471860D01*
X1126800Y471860D01*
X1126800Y462860D01*
X1126800Y463810D02*
X1116800Y463810D01*
X1116800Y464760D02*
X1126800Y464760D01*
X1126800Y465710D02*
X1116800Y465710D01*
X1116800Y466660D02*
X1126800Y466660D01*
X1126800Y467610D02*
X1116800Y467610D01*
X1116800Y468560D02*
X1126800Y468560D01*
X1126800Y469510D02*
X1116800Y469510D01*
X1116800Y470460D02*
X1126800Y470460D01*
X1126800Y471410D02*
X1116800Y471410D01*
X1133800Y462860D02*
X1143800Y462860D01*
X1133800Y462860D02*
X1133800Y471860D01*
X1143800Y471860D01*
X1143800Y462860D01*
X1143800Y463810D02*
X1133800Y463810D01*
X1133800Y464760D02*
X1143800Y464760D01*
X1143800Y465710D02*
X1133800Y465710D01*
X1133800Y466660D02*
X1143800Y466660D01*
X1143800Y467610D02*
X1133800Y467610D01*
X1133800Y468560D02*
X1143800Y468560D01*
X1143800Y469510D02*
X1133800Y469510D01*
X1133800Y470460D02*
X1143800Y470460D01*
X1143800Y471410D02*
X1133800Y471410D01*
X1159980Y637880D02*
X1159980Y646880D01*
X1186980Y646880D01*
X1186980Y637880D01*
X1159980Y637880D01*
X1159980Y638830D02*
X1186980Y638830D01*
X1186980Y639780D02*
X1159980Y639780D01*
X1159980Y640730D02*
X1186980Y640730D01*
X1186980Y641680D02*
X1159980Y641680D01*
X1159980Y642630D02*
X1186980Y642630D01*
X1186980Y643580D02*
X1159980Y643580D01*
X1159980Y644530D02*
X1186980Y644530D01*
X1186980Y645480D02*
X1159980Y645480D01*
X1159980Y646430D02*
X1186980Y646430D01*
X1159980Y616880D02*
X1159980Y607880D01*
X1159980Y616880D02*
X1186980Y616880D01*
X1186980Y607880D01*
X1159980Y607880D01*
X1159980Y608830D02*
X1186980Y608830D01*
X1186980Y609780D02*
X1159980Y609780D01*
X1159980Y610730D02*
X1186980Y610730D01*
X1186980Y611680D02*
X1159980Y611680D01*
X1159980Y612630D02*
X1186980Y612630D01*
X1186980Y613580D02*
X1159980Y613580D01*
X1159980Y614530D02*
X1186980Y614530D01*
X1186980Y615480D02*
X1159980Y615480D01*
X1159980Y616430D02*
X1186980Y616430D01*
X1165280Y435920D02*
X1165280Y425920D01*
X1156280Y425920D01*
X1156280Y435920D01*
X1165280Y435920D01*
X1165280Y426870D02*
X1156280Y426870D01*
X1156280Y427820D02*
X1165280Y427820D01*
X1165280Y428770D02*
X1156280Y428770D01*
X1156280Y429720D02*
X1165280Y429720D01*
X1165280Y430670D02*
X1156280Y430670D01*
X1156280Y431620D02*
X1165280Y431620D01*
X1165280Y432570D02*
X1156280Y432570D01*
X1156280Y433520D02*
X1165280Y433520D01*
X1165280Y434470D02*
X1156280Y434470D01*
X1156280Y435420D02*
X1165280Y435420D01*
X1165280Y442920D02*
X1165280Y452920D01*
X1165280Y442920D02*
X1156280Y442920D01*
X1156280Y452920D01*
X1165280Y452920D01*
X1165280Y443870D02*
X1156280Y443870D01*
X1156280Y444820D02*
X1165280Y444820D01*
X1165280Y445770D02*
X1156280Y445770D01*
X1156280Y446720D02*
X1165280Y446720D01*
X1165280Y447670D02*
X1156280Y447670D01*
X1156280Y448620D02*
X1165280Y448620D01*
X1165280Y449570D02*
X1156280Y449570D01*
X1156280Y450520D02*
X1165280Y450520D01*
X1165280Y451470D02*
X1156280Y451470D01*
X1156280Y452420D02*
X1165280Y452420D01*
D18*
X1180682Y430820D02*
X1180682Y425528D01*
X1173390Y425528D01*
X1173390Y430820D01*
X1180682Y430820D01*
X1180682Y426486D02*
X1173390Y426486D01*
X1173390Y427444D02*
X1180682Y427444D01*
X1180682Y428402D02*
X1173390Y428402D01*
X1173390Y429360D02*
X1180682Y429360D01*
X1180682Y430318D02*
X1173390Y430318D01*
X1180682Y448528D02*
X1180682Y453820D01*
X1180682Y448528D02*
X1173390Y448528D01*
X1173390Y453820D01*
X1180682Y453820D01*
X1180682Y449486D02*
X1173390Y449486D01*
X1173390Y450444D02*
X1180682Y450444D01*
X1180682Y451402D02*
X1173390Y451402D01*
X1173390Y452360D02*
X1180682Y452360D01*
X1180682Y453318D02*
X1173390Y453318D01*
D13*
X1131880Y404440D02*
X1121880Y404440D01*
X1121880Y413440D01*
X1131880Y413440D01*
X1131880Y404440D01*
X1131880Y405390D02*
X1121880Y405390D01*
X1121880Y406340D02*
X1131880Y406340D01*
X1131880Y407290D02*
X1121880Y407290D01*
X1121880Y408240D02*
X1131880Y408240D01*
X1131880Y409190D02*
X1121880Y409190D01*
X1121880Y410140D02*
X1131880Y410140D01*
X1131880Y411090D02*
X1121880Y411090D01*
X1121880Y412040D02*
X1131880Y412040D01*
X1131880Y412990D02*
X1121880Y412990D01*
X1138880Y404440D02*
X1148880Y404440D01*
X1138880Y404440D02*
X1138880Y413440D01*
X1148880Y413440D01*
X1148880Y404440D01*
X1148880Y405390D02*
X1138880Y405390D01*
X1138880Y406340D02*
X1148880Y406340D01*
X1148880Y407290D02*
X1138880Y407290D01*
X1138880Y408240D02*
X1148880Y408240D01*
X1148880Y409190D02*
X1138880Y409190D01*
X1138880Y410140D02*
X1148880Y410140D01*
X1148880Y411090D02*
X1138880Y411090D01*
X1138880Y412040D02*
X1148880Y412040D01*
X1148880Y412990D02*
X1138880Y412990D01*
X1131880Y389200D02*
X1121880Y389200D01*
X1121880Y398200D01*
X1131880Y398200D01*
X1131880Y389200D01*
X1131880Y390150D02*
X1121880Y390150D01*
X1121880Y391100D02*
X1131880Y391100D01*
X1131880Y392050D02*
X1121880Y392050D01*
X1121880Y393000D02*
X1131880Y393000D01*
X1131880Y393950D02*
X1121880Y393950D01*
X1121880Y394900D02*
X1131880Y394900D01*
X1131880Y395850D02*
X1121880Y395850D01*
X1121880Y396800D02*
X1131880Y396800D01*
X1131880Y397750D02*
X1121880Y397750D01*
X1138880Y389200D02*
X1148880Y389200D01*
X1138880Y389200D02*
X1138880Y398200D01*
X1148880Y398200D01*
X1148880Y389200D01*
X1148880Y390150D02*
X1138880Y390150D01*
X1138880Y391100D02*
X1148880Y391100D01*
X1148880Y392050D02*
X1138880Y392050D01*
X1138880Y393000D02*
X1148880Y393000D01*
X1148880Y393950D02*
X1138880Y393950D01*
X1138880Y394900D02*
X1148880Y394900D01*
X1148880Y395850D02*
X1138880Y395850D01*
X1138880Y396800D02*
X1148880Y396800D01*
X1148880Y397750D02*
X1138880Y397750D01*
X1208460Y405600D02*
X1208460Y415600D01*
X1208460Y405600D02*
X1199460Y405600D01*
X1199460Y415600D01*
X1208460Y415600D01*
X1208460Y406550D02*
X1199460Y406550D01*
X1199460Y407500D02*
X1208460Y407500D01*
X1208460Y408450D02*
X1199460Y408450D01*
X1199460Y409400D02*
X1208460Y409400D01*
X1208460Y410350D02*
X1199460Y410350D01*
X1199460Y411300D02*
X1208460Y411300D01*
X1208460Y412250D02*
X1199460Y412250D01*
X1199460Y413200D02*
X1208460Y413200D01*
X1208460Y414150D02*
X1199460Y414150D01*
X1199460Y415100D02*
X1208460Y415100D01*
X1208460Y422600D02*
X1208460Y432600D01*
X1208460Y422600D02*
X1199460Y422600D01*
X1199460Y432600D01*
X1208460Y432600D01*
X1208460Y423550D02*
X1199460Y423550D01*
X1199460Y424500D02*
X1208460Y424500D01*
X1208460Y425450D02*
X1199460Y425450D01*
X1199460Y426400D02*
X1208460Y426400D01*
X1208460Y427350D02*
X1199460Y427350D01*
X1199460Y428300D02*
X1208460Y428300D01*
X1208460Y429250D02*
X1199460Y429250D01*
X1199460Y430200D02*
X1208460Y430200D01*
X1208460Y431150D02*
X1199460Y431150D01*
X1199460Y432100D02*
X1208460Y432100D01*
D15*
X1215700Y424370D02*
X1222700Y424370D01*
X1215700Y424370D02*
X1215700Y431370D01*
X1222700Y431370D01*
X1222700Y424370D01*
X1222700Y427220D02*
X1215700Y427220D01*
X1215700Y430070D02*
X1222700Y430070D01*
X1222700Y406830D02*
X1215700Y406830D01*
X1215700Y413830D01*
X1222700Y413830D01*
X1222700Y406830D01*
X1222700Y409680D02*
X1215700Y409680D01*
X1215700Y412530D02*
X1222700Y412530D01*
D19*
X1124780Y479660D02*
X1117820Y479660D01*
X1117820Y490620D01*
X1124780Y490620D01*
X1124780Y479660D01*
X1124780Y480648D02*
X1117820Y480648D01*
X1117820Y481636D02*
X1124780Y481636D01*
X1124780Y482624D02*
X1117820Y482624D01*
X1117820Y483612D02*
X1124780Y483612D01*
X1124780Y484600D02*
X1117820Y484600D01*
X1117820Y485588D02*
X1124780Y485588D01*
X1124780Y486576D02*
X1117820Y486576D01*
X1117820Y487564D02*
X1124780Y487564D01*
X1124780Y488552D02*
X1117820Y488552D01*
X1117820Y489540D02*
X1124780Y489540D01*
X1124780Y490528D02*
X1117820Y490528D01*
X1135820Y479660D02*
X1142780Y479660D01*
X1135820Y479660D02*
X1135820Y490620D01*
X1142780Y490620D01*
X1142780Y479660D01*
X1142780Y480648D02*
X1135820Y480648D01*
X1135820Y481636D02*
X1142780Y481636D01*
X1142780Y482624D02*
X1135820Y482624D01*
X1135820Y483612D02*
X1142780Y483612D01*
X1142780Y484600D02*
X1135820Y484600D01*
X1135820Y485588D02*
X1142780Y485588D01*
X1142780Y486576D02*
X1135820Y486576D01*
X1135820Y487564D02*
X1142780Y487564D01*
X1142780Y488552D02*
X1135820Y488552D01*
X1135820Y489540D02*
X1142780Y489540D01*
X1142780Y490528D02*
X1135820Y490528D01*
D13*
X1133800Y212780D02*
X1143800Y212780D01*
X1143800Y203780D01*
X1133800Y203780D01*
X1133800Y212780D01*
X1133800Y204730D02*
X1143800Y204730D01*
X1143800Y205680D02*
X1133800Y205680D01*
X1133800Y206630D02*
X1143800Y206630D01*
X1143800Y207580D02*
X1133800Y207580D01*
X1133800Y208530D02*
X1143800Y208530D01*
X1143800Y209480D02*
X1133800Y209480D01*
X1133800Y210430D02*
X1143800Y210430D01*
X1143800Y211380D02*
X1133800Y211380D01*
X1133800Y212330D02*
X1143800Y212330D01*
X1126800Y212780D02*
X1116800Y212780D01*
X1126800Y212780D02*
X1126800Y203780D01*
X1116800Y203780D01*
X1116800Y212780D01*
X1116800Y204730D02*
X1126800Y204730D01*
X1126800Y205680D02*
X1116800Y205680D01*
X1116800Y206630D02*
X1126800Y206630D01*
X1126800Y207580D02*
X1116800Y207580D01*
X1116800Y208530D02*
X1126800Y208530D01*
X1126800Y209480D02*
X1116800Y209480D01*
X1116800Y210430D02*
X1126800Y210430D01*
X1126800Y211380D02*
X1116800Y211380D01*
X1116800Y212330D02*
X1126800Y212330D01*
X1126800Y188540D02*
X1116800Y188540D01*
X1116800Y197540D01*
X1126800Y197540D01*
X1126800Y188540D01*
X1126800Y189490D02*
X1116800Y189490D01*
X1116800Y190440D02*
X1126800Y190440D01*
X1126800Y191390D02*
X1116800Y191390D01*
X1116800Y192340D02*
X1126800Y192340D01*
X1126800Y193290D02*
X1116800Y193290D01*
X1116800Y194240D02*
X1126800Y194240D01*
X1126800Y195190D02*
X1116800Y195190D01*
X1116800Y196140D02*
X1126800Y196140D01*
X1126800Y197090D02*
X1116800Y197090D01*
X1133800Y188540D02*
X1143800Y188540D01*
X1133800Y188540D02*
X1133800Y197540D01*
X1143800Y197540D01*
X1143800Y188540D01*
X1143800Y189490D02*
X1133800Y189490D01*
X1133800Y190440D02*
X1143800Y190440D01*
X1143800Y191390D02*
X1133800Y191390D01*
X1133800Y192340D02*
X1143800Y192340D01*
X1143800Y193290D02*
X1133800Y193290D01*
X1133800Y194240D02*
X1143800Y194240D01*
X1143800Y195190D02*
X1133800Y195190D01*
X1133800Y196140D02*
X1143800Y196140D01*
X1143800Y197090D02*
X1133800Y197090D01*
D20*
X1154922Y587158D02*
X1154922Y598842D01*
X1154922Y587158D02*
X1141238Y587158D01*
X1141238Y598842D01*
X1154922Y598842D01*
X1154922Y588123D02*
X1141238Y588123D01*
X1141238Y589088D02*
X1154922Y589088D01*
X1154922Y590053D02*
X1141238Y590053D01*
X1141238Y591018D02*
X1154922Y591018D01*
X1154922Y591983D02*
X1141238Y591983D01*
X1141238Y592948D02*
X1154922Y592948D01*
X1154922Y593913D02*
X1141238Y593913D01*
X1141238Y594878D02*
X1154922Y594878D01*
X1154922Y595843D02*
X1141238Y595843D01*
X1141238Y596808D02*
X1154922Y596808D01*
X1154922Y597773D02*
X1141238Y597773D01*
X1141238Y598738D02*
X1154922Y598738D01*
X1141238Y555842D02*
X1141238Y544158D01*
X1141238Y555842D02*
X1154922Y555842D01*
X1154922Y544158D01*
X1141238Y544158D01*
X1141238Y545123D02*
X1154922Y545123D01*
X1154922Y546088D02*
X1141238Y546088D01*
X1141238Y547053D02*
X1154922Y547053D01*
X1154922Y548018D02*
X1141238Y548018D01*
X1141238Y548983D02*
X1154922Y548983D01*
X1154922Y549948D02*
X1141238Y549948D01*
X1141238Y550913D02*
X1154922Y550913D01*
X1154922Y551878D02*
X1141238Y551878D01*
X1141238Y552843D02*
X1154922Y552843D01*
X1154922Y553808D02*
X1141238Y553808D01*
X1141238Y554773D02*
X1154922Y554773D01*
X1154922Y555738D02*
X1141238Y555738D01*
D21*
X987125Y570785D02*
X987125Y585735D01*
X993075Y585735D01*
X993075Y570785D01*
X987125Y570785D01*
X987125Y571782D02*
X993075Y571782D01*
X993075Y572779D02*
X987125Y572779D01*
X987125Y573776D02*
X993075Y573776D01*
X993075Y574773D02*
X987125Y574773D01*
X987125Y575770D02*
X993075Y575770D01*
X993075Y576767D02*
X987125Y576767D01*
X987125Y577764D02*
X993075Y577764D01*
X993075Y578761D02*
X987125Y578761D01*
X987125Y579758D02*
X993075Y579758D01*
X993075Y580755D02*
X987125Y580755D01*
X987125Y581752D02*
X993075Y581752D01*
X993075Y582749D02*
X987125Y582749D01*
X987125Y583746D02*
X993075Y583746D01*
X993075Y584743D02*
X987125Y584743D01*
X976125Y585735D02*
X976125Y570785D01*
X976125Y585735D02*
X982075Y585735D01*
X982075Y570785D01*
X976125Y570785D01*
X976125Y571782D02*
X982075Y571782D01*
X982075Y572779D02*
X976125Y572779D01*
X976125Y573776D02*
X982075Y573776D01*
X982075Y574773D02*
X976125Y574773D01*
X976125Y575770D02*
X982075Y575770D01*
X982075Y576767D02*
X976125Y576767D01*
X976125Y577764D02*
X982075Y577764D01*
X982075Y578761D02*
X976125Y578761D01*
X976125Y579758D02*
X982075Y579758D01*
X982075Y580755D02*
X976125Y580755D01*
X976125Y581752D02*
X982075Y581752D01*
X982075Y582749D02*
X976125Y582749D01*
X976125Y583746D02*
X982075Y583746D01*
X982075Y584743D02*
X976125Y584743D01*
X965125Y585735D02*
X965125Y570785D01*
X965125Y585735D02*
X971075Y585735D01*
X971075Y570785D01*
X965125Y570785D01*
X965125Y571782D02*
X971075Y571782D01*
X971075Y572779D02*
X965125Y572779D01*
X965125Y573776D02*
X971075Y573776D01*
X971075Y574773D02*
X965125Y574773D01*
X965125Y575770D02*
X971075Y575770D01*
X971075Y576767D02*
X965125Y576767D01*
X965125Y577764D02*
X971075Y577764D01*
X971075Y578761D02*
X965125Y578761D01*
X965125Y579758D02*
X971075Y579758D01*
X971075Y580755D02*
X965125Y580755D01*
X965125Y581752D02*
X971075Y581752D01*
X971075Y582749D02*
X965125Y582749D01*
X965125Y583746D02*
X971075Y583746D01*
X971075Y584743D02*
X965125Y584743D01*
X998125Y585735D02*
X998125Y570785D01*
X998125Y585735D02*
X1004075Y585735D01*
X1004075Y570785D01*
X998125Y570785D01*
X998125Y571782D02*
X1004075Y571782D01*
X1004075Y572779D02*
X998125Y572779D01*
X998125Y573776D02*
X1004075Y573776D01*
X1004075Y574773D02*
X998125Y574773D01*
X998125Y575770D02*
X1004075Y575770D01*
X1004075Y576767D02*
X998125Y576767D01*
X998125Y577764D02*
X1004075Y577764D01*
X1004075Y578761D02*
X998125Y578761D01*
X998125Y579758D02*
X1004075Y579758D01*
X1004075Y580755D02*
X998125Y580755D01*
X998125Y581752D02*
X1004075Y581752D01*
X1004075Y582749D02*
X998125Y582749D01*
X998125Y583746D02*
X1004075Y583746D01*
X1004075Y584743D02*
X998125Y584743D01*
X1009125Y585735D02*
X1009125Y570785D01*
X1009125Y585735D02*
X1015075Y585735D01*
X1015075Y570785D01*
X1009125Y570785D01*
X1009125Y571782D02*
X1015075Y571782D01*
X1015075Y572779D02*
X1009125Y572779D01*
X1009125Y573776D02*
X1015075Y573776D01*
X1015075Y574773D02*
X1009125Y574773D01*
X1009125Y575770D02*
X1015075Y575770D01*
X1015075Y576767D02*
X1009125Y576767D01*
X1009125Y577764D02*
X1015075Y577764D01*
X1015075Y578761D02*
X1009125Y578761D01*
X1009125Y579758D02*
X1015075Y579758D01*
X1015075Y580755D02*
X1009125Y580755D01*
X1009125Y581752D02*
X1015075Y581752D01*
X1015075Y582749D02*
X1009125Y582749D01*
X1009125Y583746D02*
X1015075Y583746D01*
X1015075Y584743D02*
X1009125Y584743D01*
X1020125Y585735D02*
X1020125Y570785D01*
X1020125Y585735D02*
X1026075Y585735D01*
X1026075Y570785D01*
X1020125Y570785D01*
X1020125Y571782D02*
X1026075Y571782D01*
X1026075Y572779D02*
X1020125Y572779D01*
X1020125Y573776D02*
X1026075Y573776D01*
X1026075Y574773D02*
X1020125Y574773D01*
X1020125Y575770D02*
X1026075Y575770D01*
X1026075Y576767D02*
X1020125Y576767D01*
X1020125Y577764D02*
X1026075Y577764D01*
X1026075Y578761D02*
X1020125Y578761D01*
X1020125Y579758D02*
X1026075Y579758D01*
X1026075Y580755D02*
X1020125Y580755D01*
X1020125Y581752D02*
X1026075Y581752D01*
X1026075Y582749D02*
X1020125Y582749D01*
X1020125Y583746D02*
X1026075Y583746D01*
X1026075Y584743D02*
X1020125Y584743D01*
X1031125Y585735D02*
X1031125Y570785D01*
X1031125Y585735D02*
X1037075Y585735D01*
X1037075Y570785D01*
X1031125Y570785D01*
X1031125Y571782D02*
X1037075Y571782D01*
X1037075Y572779D02*
X1031125Y572779D01*
X1031125Y573776D02*
X1037075Y573776D01*
X1037075Y574773D02*
X1031125Y574773D01*
X1031125Y575770D02*
X1037075Y575770D01*
X1037075Y576767D02*
X1031125Y576767D01*
X1031125Y577764D02*
X1037075Y577764D01*
X1037075Y578761D02*
X1031125Y578761D01*
X1031125Y579758D02*
X1037075Y579758D01*
X1037075Y580755D02*
X1031125Y580755D01*
X1031125Y581752D02*
X1037075Y581752D01*
X1037075Y582749D02*
X1031125Y582749D01*
X1031125Y583746D02*
X1037075Y583746D01*
X1037075Y584743D02*
X1031125Y584743D01*
X1042125Y585735D02*
X1042125Y570785D01*
X1042125Y585735D02*
X1048075Y585735D01*
X1048075Y570785D01*
X1042125Y570785D01*
X1042125Y571782D02*
X1048075Y571782D01*
X1048075Y572779D02*
X1042125Y572779D01*
X1042125Y573776D02*
X1048075Y573776D01*
X1048075Y574773D02*
X1042125Y574773D01*
X1042125Y575770D02*
X1048075Y575770D01*
X1048075Y576767D02*
X1042125Y576767D01*
X1042125Y577764D02*
X1048075Y577764D01*
X1048075Y578761D02*
X1042125Y578761D01*
X1042125Y579758D02*
X1048075Y579758D01*
X1048075Y580755D02*
X1042125Y580755D01*
X1042125Y581752D02*
X1048075Y581752D01*
X1048075Y582749D02*
X1042125Y582749D01*
X1042125Y583746D02*
X1048075Y583746D01*
X1048075Y584743D02*
X1042125Y584743D01*
X1053125Y585735D02*
X1053125Y570785D01*
X1053125Y585735D02*
X1059075Y585735D01*
X1059075Y570785D01*
X1053125Y570785D01*
X1053125Y571782D02*
X1059075Y571782D01*
X1059075Y572779D02*
X1053125Y572779D01*
X1053125Y573776D02*
X1059075Y573776D01*
X1059075Y574773D02*
X1053125Y574773D01*
X1053125Y575770D02*
X1059075Y575770D01*
X1059075Y576767D02*
X1053125Y576767D01*
X1053125Y577764D02*
X1059075Y577764D01*
X1059075Y578761D02*
X1053125Y578761D01*
X1053125Y579758D02*
X1059075Y579758D01*
X1059075Y580755D02*
X1053125Y580755D01*
X1053125Y581752D02*
X1059075Y581752D01*
X1059075Y582749D02*
X1053125Y582749D01*
X1053125Y583746D02*
X1059075Y583746D01*
X1059075Y584743D02*
X1053125Y584743D01*
D11*
X918620Y689780D02*
X907580Y689780D01*
X918620Y689780D02*
X918620Y668740D01*
X907580Y668740D01*
X907580Y689780D01*
X907580Y669652D02*
X918620Y669652D01*
X918620Y670564D02*
X907580Y670564D01*
X907580Y671476D02*
X918620Y671476D01*
X918620Y672388D02*
X907580Y672388D01*
X907580Y673300D02*
X918620Y673300D01*
X918620Y674212D02*
X907580Y674212D01*
X907580Y675124D02*
X918620Y675124D01*
X918620Y676036D02*
X907580Y676036D01*
X907580Y676948D02*
X918620Y676948D01*
X918620Y677860D02*
X907580Y677860D01*
X907580Y678772D02*
X918620Y678772D01*
X918620Y679684D02*
X907580Y679684D01*
X907580Y680596D02*
X918620Y680596D01*
X918620Y681508D02*
X907580Y681508D01*
X907580Y682420D02*
X918620Y682420D01*
X918620Y683332D02*
X907580Y683332D01*
X907580Y684244D02*
X918620Y684244D01*
X918620Y685156D02*
X907580Y685156D01*
X907580Y686068D02*
X918620Y686068D01*
X918620Y686980D02*
X907580Y686980D01*
X907580Y687892D02*
X918620Y687892D01*
X918620Y688804D02*
X907580Y688804D01*
X907580Y689716D02*
X918620Y689716D01*
X1062580Y689780D02*
X1073620Y689780D01*
X1073620Y668740D01*
X1062580Y668740D01*
X1062580Y689780D01*
X1062580Y669652D02*
X1073620Y669652D01*
X1073620Y670564D02*
X1062580Y670564D01*
X1062580Y671476D02*
X1073620Y671476D01*
X1073620Y672388D02*
X1062580Y672388D01*
X1062580Y673300D02*
X1073620Y673300D01*
X1073620Y674212D02*
X1062580Y674212D01*
X1062580Y675124D02*
X1073620Y675124D01*
X1073620Y676036D02*
X1062580Y676036D01*
X1062580Y676948D02*
X1073620Y676948D01*
X1073620Y677860D02*
X1062580Y677860D01*
X1062580Y678772D02*
X1073620Y678772D01*
X1073620Y679684D02*
X1062580Y679684D01*
X1062580Y680596D02*
X1073620Y680596D01*
X1073620Y681508D02*
X1062580Y681508D01*
X1062580Y682420D02*
X1073620Y682420D01*
X1073620Y683332D02*
X1062580Y683332D01*
X1062580Y684244D02*
X1073620Y684244D01*
X1073620Y685156D02*
X1062580Y685156D01*
X1062580Y686068D02*
X1073620Y686068D01*
X1073620Y686980D02*
X1062580Y686980D01*
X1062580Y687892D02*
X1073620Y687892D01*
X1073620Y688804D02*
X1062580Y688804D01*
X1062580Y689716D02*
X1073620Y689716D01*
D22*
X929610Y589770D02*
X914590Y589770D01*
X929610Y589770D02*
X929610Y576750D01*
X914590Y576750D01*
X914590Y589770D01*
X914590Y577681D02*
X929610Y577681D01*
X929610Y578612D02*
X914590Y578612D01*
X914590Y579543D02*
X929610Y579543D01*
X929610Y580474D02*
X914590Y580474D01*
X914590Y581405D02*
X929610Y581405D01*
X929610Y582336D02*
X914590Y582336D01*
X914590Y583267D02*
X929610Y583267D01*
X929610Y584198D02*
X914590Y584198D01*
X914590Y585129D02*
X929610Y585129D01*
X929610Y586060D02*
X914590Y586060D01*
X914590Y586991D02*
X929610Y586991D01*
X929610Y587922D02*
X914590Y587922D01*
X914590Y588853D02*
X929610Y588853D01*
D11*
X1062580Y591780D02*
X1073620Y591780D01*
X1073620Y576740D01*
X1062580Y576740D01*
X1062580Y591780D01*
X1062580Y577652D02*
X1073620Y577652D01*
X1073620Y578564D02*
X1062580Y578564D01*
X1062580Y579476D02*
X1073620Y579476D01*
X1073620Y580388D02*
X1062580Y580388D01*
X1062580Y581300D02*
X1073620Y581300D01*
X1073620Y582212D02*
X1062580Y582212D01*
X1062580Y583124D02*
X1073620Y583124D01*
X1073620Y584036D02*
X1062580Y584036D01*
X1062580Y584948D02*
X1073620Y584948D01*
X1073620Y585860D02*
X1062580Y585860D01*
X1062580Y586772D02*
X1073620Y586772D01*
X1073620Y587684D02*
X1062580Y587684D01*
X1062580Y588596D02*
X1073620Y588596D01*
X1073620Y589508D02*
X1062580Y589508D01*
X1062580Y590420D02*
X1073620Y590420D01*
X1073620Y591332D02*
X1062580Y591332D01*
D13*
X998800Y560616D02*
X998800Y550616D01*
X998800Y560616D02*
X1007800Y560616D01*
X1007800Y550616D01*
X998800Y550616D01*
X998800Y551566D02*
X1007800Y551566D01*
X1007800Y552516D02*
X998800Y552516D01*
X998800Y553466D02*
X1007800Y553466D01*
X1007800Y554416D02*
X998800Y554416D01*
X998800Y555366D02*
X1007800Y555366D01*
X1007800Y556316D02*
X998800Y556316D01*
X998800Y557266D02*
X1007800Y557266D01*
X1007800Y558216D02*
X998800Y558216D01*
X998800Y559166D02*
X1007800Y559166D01*
X1007800Y560116D02*
X998800Y560116D01*
X998800Y543616D02*
X998800Y533616D01*
X998800Y543616D02*
X1007800Y543616D01*
X1007800Y533616D01*
X998800Y533616D01*
X998800Y534566D02*
X1007800Y534566D01*
X1007800Y535516D02*
X998800Y535516D01*
X998800Y536466D02*
X1007800Y536466D01*
X1007800Y537416D02*
X998800Y537416D01*
X998800Y538366D02*
X1007800Y538366D01*
X1007800Y539316D02*
X998800Y539316D01*
X998800Y540266D02*
X1007800Y540266D01*
X1007800Y541216D02*
X998800Y541216D01*
X998800Y542166D02*
X1007800Y542166D01*
X1007800Y543116D02*
X998800Y543116D01*
X1208460Y453700D02*
X1208460Y443700D01*
X1199460Y443700D01*
X1199460Y453700D01*
X1208460Y453700D01*
X1208460Y444650D02*
X1199460Y444650D01*
X1199460Y445600D02*
X1208460Y445600D01*
X1208460Y446550D02*
X1199460Y446550D01*
X1199460Y447500D02*
X1208460Y447500D01*
X1208460Y448450D02*
X1199460Y448450D01*
X1199460Y449400D02*
X1208460Y449400D01*
X1208460Y450350D02*
X1199460Y450350D01*
X1199460Y451300D02*
X1208460Y451300D01*
X1208460Y452250D02*
X1199460Y452250D01*
X1199460Y453200D02*
X1208460Y453200D01*
X1208460Y460700D02*
X1208460Y470700D01*
X1208460Y460700D02*
X1199460Y460700D01*
X1199460Y470700D01*
X1208460Y470700D01*
X1208460Y461650D02*
X1199460Y461650D01*
X1199460Y462600D02*
X1208460Y462600D01*
X1208460Y463550D02*
X1199460Y463550D01*
X1199460Y464500D02*
X1208460Y464500D01*
X1208460Y465450D02*
X1199460Y465450D01*
X1199460Y466400D02*
X1208460Y466400D01*
X1208460Y467350D02*
X1199460Y467350D01*
X1199460Y468300D02*
X1208460Y468300D01*
X1208460Y469250D02*
X1199460Y469250D01*
X1199460Y470200D02*
X1208460Y470200D01*
D15*
X1215700Y462470D02*
X1222700Y462470D01*
X1215700Y462470D02*
X1215700Y469470D01*
X1222700Y469470D01*
X1222700Y462470D01*
X1222700Y465320D02*
X1215700Y465320D01*
X1215700Y468170D02*
X1222700Y468170D01*
X1222700Y444930D02*
X1215700Y444930D01*
X1215700Y451930D01*
X1222700Y451930D01*
X1222700Y444930D01*
X1222700Y447780D02*
X1215700Y447780D01*
X1215700Y450630D02*
X1222700Y450630D01*
D13*
X1126800Y173300D02*
X1116800Y173300D01*
X1116800Y182300D01*
X1126800Y182300D01*
X1126800Y173300D01*
X1126800Y174250D02*
X1116800Y174250D01*
X1116800Y175200D02*
X1126800Y175200D01*
X1126800Y176150D02*
X1116800Y176150D01*
X1116800Y177100D02*
X1126800Y177100D01*
X1126800Y178050D02*
X1116800Y178050D01*
X1116800Y179000D02*
X1126800Y179000D01*
X1126800Y179950D02*
X1116800Y179950D01*
X1116800Y180900D02*
X1126800Y180900D01*
X1126800Y181850D02*
X1116800Y181850D01*
X1133800Y173300D02*
X1143800Y173300D01*
X1133800Y173300D02*
X1133800Y182300D01*
X1143800Y182300D01*
X1143800Y173300D01*
X1143800Y174250D02*
X1133800Y174250D01*
X1133800Y175200D02*
X1143800Y175200D01*
X1143800Y176150D02*
X1133800Y176150D01*
X1133800Y177100D02*
X1143800Y177100D01*
X1143800Y178050D02*
X1133800Y178050D01*
X1133800Y179000D02*
X1143800Y179000D01*
X1143800Y179950D02*
X1133800Y179950D01*
X1133800Y180900D02*
X1143800Y180900D01*
X1143800Y181850D02*
X1133800Y181850D01*
D19*
X1169660Y567360D02*
X1169660Y574320D01*
X1177620Y574320D01*
X1177620Y567360D01*
X1169660Y567360D01*
X1169660Y568348D02*
X1177620Y568348D01*
X1177620Y569336D02*
X1169660Y569336D01*
X1169660Y570324D02*
X1177620Y570324D01*
X1177620Y571312D02*
X1169660Y571312D01*
X1169660Y572300D02*
X1177620Y572300D01*
X1177620Y573288D02*
X1169660Y573288D01*
X1169660Y574276D02*
X1177620Y574276D01*
X1169660Y555320D02*
X1169660Y548360D01*
X1169660Y555320D02*
X1177620Y555320D01*
X1177620Y548360D01*
X1169660Y548360D01*
X1169660Y549348D02*
X1177620Y549348D01*
X1177620Y550336D02*
X1169660Y550336D01*
X1169660Y551324D02*
X1177620Y551324D01*
X1177620Y552312D02*
X1169660Y552312D01*
X1169660Y553300D02*
X1177620Y553300D01*
X1177620Y554288D02*
X1169660Y554288D01*
X1169660Y555276D02*
X1177620Y555276D01*
X1190660Y557860D02*
X1190660Y564820D01*
X1198620Y564820D01*
X1198620Y557860D01*
X1190660Y557860D01*
X1190660Y558848D02*
X1198620Y558848D01*
X1198620Y559836D02*
X1190660Y559836D01*
X1190660Y560824D02*
X1198620Y560824D01*
X1198620Y561812D02*
X1190660Y561812D01*
X1190660Y562800D02*
X1198620Y562800D01*
X1198620Y563788D02*
X1190660Y563788D01*
X1190660Y564776D02*
X1198620Y564776D01*
D13*
X1196920Y613100D02*
X1196920Y623100D01*
X1205920Y623100D01*
X1205920Y613100D01*
X1196920Y613100D01*
X1196920Y614050D02*
X1205920Y614050D01*
X1205920Y615000D02*
X1196920Y615000D01*
X1196920Y615950D02*
X1205920Y615950D01*
X1205920Y616900D02*
X1196920Y616900D01*
X1196920Y617850D02*
X1205920Y617850D01*
X1205920Y618800D02*
X1196920Y618800D01*
X1196920Y619750D02*
X1205920Y619750D01*
X1205920Y620700D02*
X1196920Y620700D01*
X1196920Y621650D02*
X1205920Y621650D01*
X1205920Y622600D02*
X1196920Y622600D01*
X1196920Y606100D02*
X1196920Y596100D01*
X1196920Y606100D02*
X1205920Y606100D01*
X1205920Y596100D01*
X1196920Y596100D01*
X1196920Y597050D02*
X1205920Y597050D01*
X1205920Y598000D02*
X1196920Y598000D01*
X1196920Y598950D02*
X1205920Y598950D01*
X1205920Y599900D02*
X1196920Y599900D01*
X1196920Y600850D02*
X1205920Y600850D01*
X1205920Y601800D02*
X1196920Y601800D01*
X1196920Y602750D02*
X1205920Y602750D01*
X1205920Y603700D02*
X1196920Y603700D01*
X1196920Y604650D02*
X1205920Y604650D01*
X1205920Y605600D02*
X1196920Y605600D01*
D23*
X423198Y70648D03*
X423198Y66648D03*
X423198Y62648D03*
X433598Y70648D03*
X433598Y66648D03*
X433598Y62648D03*
D24*
X424298Y57548D03*
X428298Y57548D03*
X432298Y57648D03*
X424298Y76048D03*
X428298Y76048D03*
X432298Y76048D03*
D11*
X720280Y72410D02*
X731320Y72410D01*
X731320Y45870D01*
X720280Y45870D01*
X720280Y72410D01*
X720280Y46782D02*
X731320Y46782D01*
X731320Y47694D02*
X720280Y47694D01*
X720280Y48606D02*
X731320Y48606D01*
X731320Y49518D02*
X720280Y49518D01*
X720280Y50430D02*
X731320Y50430D01*
X731320Y51342D02*
X720280Y51342D01*
X720280Y52254D02*
X731320Y52254D01*
X731320Y53166D02*
X720280Y53166D01*
X720280Y54078D02*
X731320Y54078D01*
X731320Y54990D02*
X720280Y54990D01*
X720280Y55902D02*
X731320Y55902D01*
X731320Y56814D02*
X720280Y56814D01*
X720280Y57726D02*
X731320Y57726D01*
X731320Y58638D02*
X720280Y58638D01*
X720280Y59550D02*
X731320Y59550D01*
X731320Y60462D02*
X720280Y60462D01*
X720280Y61374D02*
X731320Y61374D01*
X731320Y62286D02*
X720280Y62286D01*
X720280Y63198D02*
X731320Y63198D01*
X731320Y64110D02*
X720280Y64110D01*
X720280Y65022D02*
X731320Y65022D01*
X731320Y65934D02*
X720280Y65934D01*
X720280Y66846D02*
X731320Y66846D01*
X731320Y67758D02*
X720280Y67758D01*
X720280Y68670D02*
X731320Y68670D01*
X731320Y69582D02*
X720280Y69582D01*
X720280Y70494D02*
X731320Y70494D01*
X731320Y71406D02*
X720280Y71406D01*
X720280Y72318D02*
X731320Y72318D01*
X524320Y72410D02*
X513280Y72410D01*
X524320Y72410D02*
X524320Y45870D01*
X513280Y45870D01*
X513280Y72410D01*
X513280Y46782D02*
X524320Y46782D01*
X524320Y47694D02*
X513280Y47694D01*
X513280Y48606D02*
X524320Y48606D01*
X524320Y49518D02*
X513280Y49518D01*
X513280Y50430D02*
X524320Y50430D01*
X524320Y51342D02*
X513280Y51342D01*
X513280Y52254D02*
X524320Y52254D01*
X524320Y53166D02*
X513280Y53166D01*
X513280Y54078D02*
X524320Y54078D01*
X524320Y54990D02*
X513280Y54990D01*
X513280Y55902D02*
X524320Y55902D01*
X524320Y56814D02*
X513280Y56814D01*
X513280Y57726D02*
X524320Y57726D01*
X524320Y58638D02*
X513280Y58638D01*
X513280Y59550D02*
X524320Y59550D01*
X524320Y60462D02*
X513280Y60462D01*
X513280Y61374D02*
X524320Y61374D01*
X524320Y62286D02*
X513280Y62286D01*
X513280Y63198D02*
X524320Y63198D01*
X524320Y64110D02*
X513280Y64110D01*
X513280Y65022D02*
X524320Y65022D01*
X524320Y65934D02*
X513280Y65934D01*
X513280Y66846D02*
X524320Y66846D01*
X524320Y67758D02*
X513280Y67758D01*
X513280Y68670D02*
X524320Y68670D01*
X524320Y69582D02*
X513280Y69582D01*
X513280Y70494D02*
X524320Y70494D01*
X524320Y71406D02*
X513280Y71406D01*
X513280Y72318D02*
X524320Y72318D01*
D12*
X532300Y126890D03*
X542300Y126890D03*
X547300Y126890D03*
X537300Y126890D03*
X552300Y126890D03*
X562300Y126890D03*
X567300Y126890D03*
X557300Y126890D03*
X572300Y126890D03*
X582300Y126890D03*
X587300Y126890D03*
X577300Y126890D03*
X592300Y126890D03*
X602300Y126890D03*
X607300Y126890D03*
X597300Y126890D03*
X612300Y126890D03*
X622300Y126890D03*
X627300Y126890D03*
X617300Y126890D03*
X632300Y126890D03*
X637300Y126890D03*
X662300Y126890D03*
X667300Y126890D03*
X672300Y126890D03*
X682300Y126890D03*
X687300Y126890D03*
X677300Y126890D03*
X692300Y126890D03*
X702300Y126890D03*
X707300Y126890D03*
X697300Y126890D03*
X712300Y126890D03*
X529800Y51390D03*
X539800Y51390D03*
X544800Y51390D03*
X534800Y51390D03*
X549800Y51390D03*
X559800Y51390D03*
X564800Y51390D03*
X554800Y51390D03*
X569800Y51390D03*
X579800Y51390D03*
X584800Y51390D03*
X574800Y51390D03*
X589800Y51390D03*
X599800Y51390D03*
X604800Y51390D03*
X594800Y51390D03*
X609800Y51390D03*
X619800Y51390D03*
X624800Y51390D03*
X614800Y51390D03*
X629800Y51390D03*
X634800Y51390D03*
X659800Y51390D03*
X664800Y51390D03*
X669800Y51390D03*
X679800Y51390D03*
X684800Y51390D03*
X674800Y51390D03*
X689800Y51390D03*
X699800Y51390D03*
X704800Y51390D03*
X694800Y51390D03*
X709800Y51390D03*
X714800Y51390D03*
D11*
X347780Y72410D02*
X336740Y72410D01*
X347780Y72410D02*
X347780Y45870D01*
X336740Y45870D01*
X336740Y72410D01*
X336740Y46782D02*
X347780Y46782D01*
X347780Y47694D02*
X336740Y47694D01*
X336740Y48606D02*
X347780Y48606D01*
X347780Y49518D02*
X336740Y49518D01*
X336740Y50430D02*
X347780Y50430D01*
X347780Y51342D02*
X336740Y51342D01*
X336740Y52254D02*
X347780Y52254D01*
X347780Y53166D02*
X336740Y53166D01*
X336740Y54078D02*
X347780Y54078D01*
X347780Y54990D02*
X336740Y54990D01*
X336740Y55902D02*
X347780Y55902D01*
X347780Y56814D02*
X336740Y56814D01*
X336740Y57726D02*
X347780Y57726D01*
X347780Y58638D02*
X336740Y58638D01*
X336740Y59550D02*
X347780Y59550D01*
X347780Y60462D02*
X336740Y60462D01*
X336740Y61374D02*
X347780Y61374D01*
X347780Y62286D02*
X336740Y62286D01*
X336740Y63198D02*
X347780Y63198D01*
X347780Y64110D02*
X336740Y64110D01*
X336740Y65022D02*
X347780Y65022D01*
X347780Y65934D02*
X336740Y65934D01*
X336740Y66846D02*
X347780Y66846D01*
X347780Y67758D02*
X336740Y67758D01*
X336740Y68670D02*
X347780Y68670D01*
X347780Y69582D02*
X336740Y69582D01*
X336740Y70494D02*
X347780Y70494D01*
X347780Y71406D02*
X336740Y71406D01*
X336740Y72318D02*
X347780Y72318D01*
X140780Y72410D02*
X129740Y72410D01*
X140780Y72410D02*
X140780Y45870D01*
X129740Y45870D01*
X129740Y72410D01*
X129740Y46782D02*
X140780Y46782D01*
X140780Y47694D02*
X129740Y47694D01*
X129740Y48606D02*
X140780Y48606D01*
X140780Y49518D02*
X129740Y49518D01*
X129740Y50430D02*
X140780Y50430D01*
X140780Y51342D02*
X129740Y51342D01*
X129740Y52254D02*
X140780Y52254D01*
X140780Y53166D02*
X129740Y53166D01*
X129740Y54078D02*
X140780Y54078D01*
X140780Y54990D02*
X129740Y54990D01*
X129740Y55902D02*
X140780Y55902D01*
X140780Y56814D02*
X129740Y56814D01*
X129740Y57726D02*
X140780Y57726D01*
X140780Y58638D02*
X129740Y58638D01*
X129740Y59550D02*
X140780Y59550D01*
X140780Y60462D02*
X129740Y60462D01*
X129740Y61374D02*
X140780Y61374D01*
X140780Y62286D02*
X129740Y62286D01*
X129740Y63198D02*
X140780Y63198D01*
X140780Y64110D02*
X129740Y64110D01*
X129740Y65022D02*
X140780Y65022D01*
X140780Y65934D02*
X129740Y65934D01*
X129740Y66846D02*
X140780Y66846D01*
X140780Y67758D02*
X129740Y67758D01*
X129740Y68670D02*
X140780Y68670D01*
X140780Y69582D02*
X129740Y69582D01*
X129740Y70494D02*
X140780Y70494D01*
X140780Y71406D02*
X129740Y71406D01*
X129740Y72318D02*
X140780Y72318D01*
D12*
X148760Y126890D03*
X158760Y126890D03*
X163760Y126890D03*
X153760Y126890D03*
X168760Y126890D03*
X178760Y126890D03*
X183760Y126890D03*
X173760Y126890D03*
X188760Y126890D03*
X198760Y126890D03*
X203760Y126890D03*
X193760Y126890D03*
X208760Y126890D03*
X218760Y126890D03*
X223760Y126890D03*
X213760Y126890D03*
X228760Y126890D03*
X238760Y126890D03*
X243760Y126890D03*
X233760Y126890D03*
X248760Y126890D03*
X253760Y126890D03*
X278760Y126890D03*
X283760Y126890D03*
X288760Y126890D03*
X298760Y126890D03*
X303760Y126890D03*
X293760Y126890D03*
X308760Y126890D03*
X318760Y126890D03*
X323760Y126890D03*
X313760Y126890D03*
X328760Y126890D03*
X146260Y51390D03*
X156260Y51390D03*
X161260Y51390D03*
X151260Y51390D03*
X166260Y51390D03*
X176260Y51390D03*
X181260Y51390D03*
X171260Y51390D03*
X186260Y51390D03*
X196260Y51390D03*
X201260Y51390D03*
X191260Y51390D03*
X206260Y51390D03*
X216260Y51390D03*
X221260Y51390D03*
X211260Y51390D03*
X226260Y51390D03*
X236260Y51390D03*
X241260Y51390D03*
X231260Y51390D03*
X246260Y51390D03*
X251260Y51390D03*
X276260Y51390D03*
X281260Y51390D03*
X286260Y51390D03*
X296260Y51390D03*
X301260Y51390D03*
X291260Y51390D03*
X306260Y51390D03*
X316260Y51390D03*
X321260Y51390D03*
X311260Y51390D03*
X326260Y51390D03*
X331260Y51390D03*
D13*
X443158Y88608D02*
X443158Y98608D01*
X443158Y88608D02*
X434158Y88608D01*
X434158Y98608D01*
X443158Y98608D01*
X443158Y89558D02*
X434158Y89558D01*
X434158Y90508D02*
X443158Y90508D01*
X443158Y91458D02*
X434158Y91458D01*
X434158Y92408D02*
X443158Y92408D01*
X443158Y93358D02*
X434158Y93358D01*
X434158Y94308D02*
X443158Y94308D01*
X443158Y95258D02*
X434158Y95258D01*
X434158Y96208D02*
X443158Y96208D01*
X443158Y97158D02*
X434158Y97158D01*
X434158Y98108D02*
X443158Y98108D01*
X443158Y105608D02*
X443158Y115608D01*
X443158Y105608D02*
X434158Y105608D01*
X434158Y115608D01*
X443158Y115608D01*
X443158Y106558D02*
X434158Y106558D01*
X434158Y107508D02*
X443158Y107508D01*
X443158Y108458D02*
X434158Y108458D01*
X434158Y109408D02*
X443158Y109408D01*
X443158Y110358D02*
X434158Y110358D01*
X434158Y111308D02*
X443158Y111308D01*
X443158Y112258D02*
X434158Y112258D01*
X434158Y113208D02*
X443158Y113208D01*
X443158Y114158D02*
X434158Y114158D01*
X434158Y115108D02*
X443158Y115108D01*
X413838Y115608D02*
X413838Y105608D01*
X413838Y115608D02*
X422838Y115608D01*
X422838Y105608D01*
X413838Y105608D01*
X413838Y106558D02*
X422838Y106558D01*
X422838Y107508D02*
X413838Y107508D01*
X413838Y108458D02*
X422838Y108458D01*
X422838Y109408D02*
X413838Y109408D01*
X413838Y110358D02*
X422838Y110358D01*
X422838Y111308D02*
X413838Y111308D01*
X413838Y112258D02*
X422838Y112258D01*
X422838Y113208D02*
X413838Y113208D01*
X413838Y114158D02*
X422838Y114158D01*
X422838Y115108D02*
X413838Y115108D01*
X413838Y98608D02*
X413838Y88608D01*
X413838Y98608D02*
X422838Y98608D01*
X422838Y88608D01*
X413838Y88608D01*
X413838Y89558D02*
X422838Y89558D01*
X422838Y90508D02*
X413838Y90508D01*
X413838Y91458D02*
X422838Y91458D01*
X422838Y92408D02*
X413838Y92408D01*
X413838Y93358D02*
X422838Y93358D01*
X422838Y94308D02*
X413838Y94308D01*
X413838Y95258D02*
X422838Y95258D01*
X422838Y96208D02*
X413838Y96208D01*
X413838Y97158D02*
X422838Y97158D01*
X422838Y98108D02*
X413838Y98108D01*
X1029280Y100020D02*
X1029280Y110020D01*
X1038280Y110020D01*
X1038280Y100020D01*
X1029280Y100020D01*
X1029280Y100970D02*
X1038280Y100970D01*
X1038280Y101920D02*
X1029280Y101920D01*
X1029280Y102870D02*
X1038280Y102870D01*
X1038280Y103820D02*
X1029280Y103820D01*
X1029280Y104770D02*
X1038280Y104770D01*
X1038280Y105720D02*
X1029280Y105720D01*
X1029280Y106670D02*
X1038280Y106670D01*
X1038280Y107620D02*
X1029280Y107620D01*
X1029280Y108570D02*
X1038280Y108570D01*
X1038280Y109520D02*
X1029280Y109520D01*
X1029280Y93020D02*
X1029280Y83020D01*
X1029280Y93020D02*
X1038280Y93020D01*
X1038280Y83020D01*
X1029280Y83020D01*
X1029280Y83970D02*
X1038280Y83970D01*
X1038280Y84920D02*
X1029280Y84920D01*
X1029280Y85870D02*
X1038280Y85870D01*
X1038280Y86820D02*
X1029280Y86820D01*
X1029280Y87770D02*
X1038280Y87770D01*
X1038280Y88720D02*
X1029280Y88720D01*
X1029280Y89670D02*
X1038280Y89670D01*
X1038280Y90620D02*
X1029280Y90620D01*
X1029280Y91570D02*
X1038280Y91570D01*
X1038280Y92520D02*
X1029280Y92520D01*
X1006420Y100020D02*
X1006420Y110020D01*
X1015420Y110020D01*
X1015420Y100020D01*
X1006420Y100020D01*
X1006420Y100970D02*
X1015420Y100970D01*
X1015420Y101920D02*
X1006420Y101920D01*
X1006420Y102870D02*
X1015420Y102870D01*
X1015420Y103820D02*
X1006420Y103820D01*
X1006420Y104770D02*
X1015420Y104770D01*
X1015420Y105720D02*
X1006420Y105720D01*
X1006420Y106670D02*
X1015420Y106670D01*
X1015420Y107620D02*
X1006420Y107620D01*
X1006420Y108570D02*
X1015420Y108570D01*
X1015420Y109520D02*
X1006420Y109520D01*
X1006420Y93020D02*
X1006420Y83020D01*
X1006420Y93020D02*
X1015420Y93020D01*
X1015420Y83020D01*
X1006420Y83020D01*
X1006420Y83970D02*
X1015420Y83970D01*
X1015420Y84920D02*
X1006420Y84920D01*
X1006420Y85870D02*
X1015420Y85870D01*
X1015420Y86820D02*
X1006420Y86820D01*
X1006420Y87770D02*
X1015420Y87770D01*
X1015420Y88720D02*
X1006420Y88720D01*
X1006420Y89670D02*
X1015420Y89670D01*
X1015420Y90620D02*
X1006420Y90620D01*
X1006420Y91570D02*
X1015420Y91570D01*
X1015420Y92520D02*
X1006420Y92520D01*
D21*
X960195Y43545D02*
X954245Y43545D01*
X954245Y57495D01*
X960195Y57495D01*
X960195Y43545D01*
X960195Y44542D02*
X954245Y44542D01*
X954245Y45539D02*
X960195Y45539D01*
X960195Y46536D02*
X954245Y46536D01*
X954245Y47533D02*
X960195Y47533D01*
X960195Y48530D02*
X954245Y48530D01*
X954245Y49527D02*
X960195Y49527D01*
X960195Y50524D02*
X954245Y50524D01*
X954245Y51521D02*
X960195Y51521D01*
X960195Y52518D02*
X954245Y52518D01*
X954245Y53515D02*
X960195Y53515D01*
X960195Y54512D02*
X954245Y54512D01*
X954245Y55509D02*
X960195Y55509D01*
X960195Y56506D02*
X954245Y56506D01*
X945195Y43545D02*
X939245Y43545D01*
X939245Y57495D01*
X945195Y57495D01*
X945195Y43545D01*
X945195Y44542D02*
X939245Y44542D01*
X939245Y45539D02*
X945195Y45539D01*
X945195Y46536D02*
X939245Y46536D01*
X939245Y47533D02*
X945195Y47533D01*
X945195Y48530D02*
X939245Y48530D01*
X939245Y49527D02*
X945195Y49527D01*
X945195Y50524D02*
X939245Y50524D01*
X939245Y51521D02*
X945195Y51521D01*
X945195Y52518D02*
X939245Y52518D01*
X939245Y53515D02*
X945195Y53515D01*
X945195Y54512D02*
X939245Y54512D01*
X939245Y55509D02*
X945195Y55509D01*
X945195Y56506D02*
X939245Y56506D01*
X915195Y43545D02*
X909245Y43545D01*
X909245Y57495D01*
X915195Y57495D01*
X915195Y43545D01*
X915195Y44542D02*
X909245Y44542D01*
X909245Y45539D02*
X915195Y45539D01*
X915195Y46536D02*
X909245Y46536D01*
X909245Y47533D02*
X915195Y47533D01*
X915195Y48530D02*
X909245Y48530D01*
X909245Y49527D02*
X915195Y49527D01*
X915195Y50524D02*
X909245Y50524D01*
X909245Y51521D02*
X915195Y51521D01*
X915195Y52518D02*
X909245Y52518D01*
X909245Y53515D02*
X915195Y53515D01*
X915195Y54512D02*
X909245Y54512D01*
X909245Y55509D02*
X915195Y55509D01*
X915195Y56506D02*
X909245Y56506D01*
D10*
X966730Y25510D02*
X975710Y25510D01*
X975710Y20530D01*
X966730Y20530D01*
X966730Y25510D01*
X966730Y21499D02*
X975710Y21499D01*
X975710Y22468D02*
X966730Y22468D01*
X966730Y23437D02*
X975710Y23437D01*
X975710Y24406D02*
X966730Y24406D01*
X966730Y25375D02*
X975710Y25375D01*
D19*
X975700Y47500D02*
X966740Y47500D01*
X975700Y47500D02*
X975700Y40540D01*
X966740Y40540D01*
X966740Y47500D01*
X966740Y41528D02*
X975700Y41528D01*
X975700Y42516D02*
X966740Y42516D01*
X966740Y43504D02*
X975700Y43504D01*
X975700Y44492D02*
X966740Y44492D01*
X966740Y45480D02*
X975700Y45480D01*
X975700Y46468D02*
X966740Y46468D01*
X966740Y47456D02*
X975700Y47456D01*
D10*
X902710Y25510D02*
X893730Y25510D01*
X902710Y25510D02*
X902710Y20530D01*
X893730Y20530D01*
X893730Y25510D01*
X893730Y21499D02*
X902710Y21499D01*
X902710Y22468D02*
X893730Y22468D01*
X893730Y23437D02*
X902710Y23437D01*
X902710Y24406D02*
X893730Y24406D01*
X893730Y25375D02*
X902710Y25375D01*
D19*
X902700Y47500D02*
X893740Y47500D01*
X902700Y47500D02*
X902700Y40540D01*
X893740Y40540D01*
X893740Y47500D01*
X893740Y41528D02*
X902700Y41528D01*
X902700Y42516D02*
X893740Y42516D01*
X893740Y43504D02*
X902700Y43504D01*
X902700Y44492D02*
X893740Y44492D01*
X893740Y45480D02*
X902700Y45480D01*
X902700Y46468D02*
X893740Y46468D01*
X893740Y47456D02*
X902700Y47456D01*
D21*
X871295Y43545D02*
X865345Y43545D01*
X865345Y57495D01*
X871295Y57495D01*
X871295Y43545D01*
X871295Y44542D02*
X865345Y44542D01*
X865345Y45539D02*
X871295Y45539D01*
X871295Y46536D02*
X865345Y46536D01*
X865345Y47533D02*
X871295Y47533D01*
X871295Y48530D02*
X865345Y48530D01*
X865345Y49527D02*
X871295Y49527D01*
X871295Y50524D02*
X865345Y50524D01*
X865345Y51521D02*
X871295Y51521D01*
X871295Y52518D02*
X865345Y52518D01*
X865345Y53515D02*
X871295Y53515D01*
X871295Y54512D02*
X865345Y54512D01*
X865345Y55509D02*
X871295Y55509D01*
X871295Y56506D02*
X865345Y56506D01*
X856295Y43545D02*
X850345Y43545D01*
X850345Y57495D01*
X856295Y57495D01*
X856295Y43545D01*
X856295Y44542D02*
X850345Y44542D01*
X850345Y45539D02*
X856295Y45539D01*
X856295Y46536D02*
X850345Y46536D01*
X850345Y47533D02*
X856295Y47533D01*
X856295Y48530D02*
X850345Y48530D01*
X850345Y49527D02*
X856295Y49527D01*
X856295Y50524D02*
X850345Y50524D01*
X850345Y51521D02*
X856295Y51521D01*
X856295Y52518D02*
X850345Y52518D01*
X850345Y53515D02*
X856295Y53515D01*
X856295Y54512D02*
X850345Y54512D01*
X850345Y55509D02*
X856295Y55509D01*
X856295Y56506D02*
X850345Y56506D01*
X826295Y43545D02*
X820345Y43545D01*
X820345Y57495D01*
X826295Y57495D01*
X826295Y43545D01*
X826295Y44542D02*
X820345Y44542D01*
X820345Y45539D02*
X826295Y45539D01*
X826295Y46536D02*
X820345Y46536D01*
X820345Y47533D02*
X826295Y47533D01*
X826295Y48530D02*
X820345Y48530D01*
X820345Y49527D02*
X826295Y49527D01*
X826295Y50524D02*
X820345Y50524D01*
X820345Y51521D02*
X826295Y51521D01*
X826295Y52518D02*
X820345Y52518D01*
X820345Y53515D02*
X826295Y53515D01*
X826295Y54512D02*
X820345Y54512D01*
X820345Y55509D02*
X826295Y55509D01*
X826295Y56506D02*
X820345Y56506D01*
D10*
X877830Y25510D02*
X886810Y25510D01*
X886810Y20530D01*
X877830Y20530D01*
X877830Y25510D01*
X877830Y21499D02*
X886810Y21499D01*
X886810Y22468D02*
X877830Y22468D01*
X877830Y23437D02*
X886810Y23437D01*
X886810Y24406D02*
X877830Y24406D01*
X877830Y25375D02*
X886810Y25375D01*
D19*
X886800Y47500D02*
X877840Y47500D01*
X886800Y47500D02*
X886800Y40540D01*
X877840Y40540D01*
X877840Y47500D01*
X877840Y41528D02*
X886800Y41528D01*
X886800Y42516D02*
X877840Y42516D01*
X877840Y43504D02*
X886800Y43504D01*
X886800Y44492D02*
X877840Y44492D01*
X877840Y45480D02*
X886800Y45480D01*
X886800Y46468D02*
X877840Y46468D01*
X877840Y47456D02*
X886800Y47456D01*
D10*
X813810Y25510D02*
X804830Y25510D01*
X813810Y25510D02*
X813810Y20530D01*
X804830Y20530D01*
X804830Y25510D01*
X804830Y21499D02*
X813810Y21499D01*
X813810Y22468D02*
X804830Y22468D01*
X804830Y23437D02*
X813810Y23437D01*
X813810Y24406D02*
X804830Y24406D01*
X804830Y25375D02*
X813810Y25375D01*
D19*
X813800Y47500D02*
X804840Y47500D01*
X813800Y47500D02*
X813800Y40540D01*
X804840Y40540D01*
X804840Y47500D01*
X804840Y41528D02*
X813800Y41528D01*
X813800Y42516D02*
X804840Y42516D01*
X804840Y43504D02*
X813800Y43504D01*
X813800Y44492D02*
X804840Y44492D01*
X804840Y45480D02*
X813800Y45480D01*
X813800Y46468D02*
X804840Y46468D01*
X804840Y47456D02*
X813800Y47456D01*
D21*
X1043145Y43545D02*
X1049095Y43545D01*
X1043145Y43545D02*
X1043145Y57495D01*
X1049095Y57495D01*
X1049095Y43545D01*
X1049095Y44542D02*
X1043145Y44542D01*
X1043145Y45539D02*
X1049095Y45539D01*
X1049095Y46536D02*
X1043145Y46536D01*
X1043145Y47533D02*
X1049095Y47533D01*
X1049095Y48530D02*
X1043145Y48530D01*
X1043145Y49527D02*
X1049095Y49527D01*
X1049095Y50524D02*
X1043145Y50524D01*
X1043145Y51521D02*
X1049095Y51521D01*
X1049095Y52518D02*
X1043145Y52518D01*
X1043145Y53515D02*
X1049095Y53515D01*
X1049095Y54512D02*
X1043145Y54512D01*
X1043145Y55509D02*
X1049095Y55509D01*
X1049095Y56506D02*
X1043145Y56506D01*
X1034095Y43545D02*
X1028145Y43545D01*
X1028145Y57495D01*
X1034095Y57495D01*
X1034095Y43545D01*
X1034095Y44542D02*
X1028145Y44542D01*
X1028145Y45539D02*
X1034095Y45539D01*
X1034095Y46536D02*
X1028145Y46536D01*
X1028145Y47533D02*
X1034095Y47533D01*
X1034095Y48530D02*
X1028145Y48530D01*
X1028145Y49527D02*
X1034095Y49527D01*
X1034095Y50524D02*
X1028145Y50524D01*
X1028145Y51521D02*
X1034095Y51521D01*
X1034095Y52518D02*
X1028145Y52518D01*
X1028145Y53515D02*
X1034095Y53515D01*
X1034095Y54512D02*
X1028145Y54512D01*
X1028145Y55509D02*
X1034095Y55509D01*
X1034095Y56506D02*
X1028145Y56506D01*
X1004095Y43545D02*
X998145Y43545D01*
X998145Y57495D01*
X1004095Y57495D01*
X1004095Y43545D01*
X1004095Y44542D02*
X998145Y44542D01*
X998145Y45539D02*
X1004095Y45539D01*
X1004095Y46536D02*
X998145Y46536D01*
X998145Y47533D02*
X1004095Y47533D01*
X1004095Y48530D02*
X998145Y48530D01*
X998145Y49527D02*
X1004095Y49527D01*
X1004095Y50524D02*
X998145Y50524D01*
X998145Y51521D02*
X1004095Y51521D01*
X1004095Y52518D02*
X998145Y52518D01*
X998145Y53515D02*
X1004095Y53515D01*
X1004095Y54512D02*
X998145Y54512D01*
X998145Y55509D02*
X1004095Y55509D01*
X1004095Y56506D02*
X998145Y56506D01*
D10*
X1055630Y25510D02*
X1064610Y25510D01*
X1064610Y20530D01*
X1055630Y20530D01*
X1055630Y25510D01*
X1055630Y21499D02*
X1064610Y21499D01*
X1064610Y22468D02*
X1055630Y22468D01*
X1055630Y23437D02*
X1064610Y23437D01*
X1064610Y24406D02*
X1055630Y24406D01*
X1055630Y25375D02*
X1064610Y25375D01*
D19*
X1064600Y47500D02*
X1055640Y47500D01*
X1064600Y47500D02*
X1064600Y40540D01*
X1055640Y40540D01*
X1055640Y47500D01*
X1055640Y41528D02*
X1064600Y41528D01*
X1064600Y42516D02*
X1055640Y42516D01*
X1055640Y43504D02*
X1064600Y43504D01*
X1064600Y44492D02*
X1055640Y44492D01*
X1055640Y45480D02*
X1064600Y45480D01*
X1064600Y46468D02*
X1055640Y46468D01*
X1055640Y47456D02*
X1064600Y47456D01*
D10*
X991610Y25510D02*
X982630Y25510D01*
X991610Y25510D02*
X991610Y20530D01*
X982630Y20530D01*
X982630Y25510D01*
X982630Y21499D02*
X991610Y21499D01*
X991610Y22468D02*
X982630Y22468D01*
X982630Y23437D02*
X991610Y23437D01*
X991610Y24406D02*
X982630Y24406D01*
X982630Y25375D02*
X991610Y25375D01*
D19*
X991600Y47500D02*
X982640Y47500D01*
X991600Y47500D02*
X991600Y40540D01*
X982640Y40540D01*
X982640Y47500D01*
X982640Y41528D02*
X991600Y41528D01*
X991600Y42516D02*
X982640Y42516D01*
X982640Y43504D02*
X991600Y43504D01*
X991600Y44492D02*
X982640Y44492D01*
X982640Y45480D02*
X991600Y45480D01*
X991600Y46468D02*
X982640Y46468D01*
X982640Y47456D02*
X991600Y47456D01*
D14*
X1114866Y639705D02*
X1114866Y644215D01*
X1127376Y644215D01*
X1127376Y639705D01*
X1114866Y639705D01*
X1114866Y640645D02*
X1127376Y640645D01*
X1127376Y641585D02*
X1114866Y641585D01*
X1114866Y642525D02*
X1127376Y642525D01*
X1127376Y643465D02*
X1114866Y643465D01*
X1114866Y634715D02*
X1114866Y630205D01*
X1114866Y634715D02*
X1127376Y634715D01*
X1127376Y630205D01*
X1114866Y630205D01*
X1114866Y631145D02*
X1127376Y631145D01*
X1127376Y632085D02*
X1114866Y632085D01*
X1114866Y633025D02*
X1127376Y633025D01*
X1127376Y633965D02*
X1114866Y633965D01*
X1114866Y625215D02*
X1114866Y620705D01*
X1114866Y625215D02*
X1127376Y625215D01*
X1127376Y620705D01*
X1114866Y620705D01*
X1114866Y621645D02*
X1127376Y621645D01*
X1127376Y622585D02*
X1114866Y622585D01*
X1114866Y623525D02*
X1127376Y623525D01*
X1127376Y624465D02*
X1114866Y624465D01*
X1142368Y625215D02*
X1142368Y620705D01*
X1142368Y625215D02*
X1154878Y625215D01*
X1154878Y620705D01*
X1142368Y620705D01*
X1142368Y621645D02*
X1154878Y621645D01*
X1154878Y622585D02*
X1142368Y622585D01*
X1142368Y623525D02*
X1154878Y623525D01*
X1154878Y624465D02*
X1142368Y624465D01*
X1142368Y630205D02*
X1142368Y634715D01*
X1154878Y634715D01*
X1154878Y630205D01*
X1142368Y630205D01*
X1142368Y631145D02*
X1154878Y631145D01*
X1154878Y632085D02*
X1142368Y632085D01*
X1142368Y633025D02*
X1154878Y633025D01*
X1154878Y633965D02*
X1142368Y633965D01*
X1142368Y639705D02*
X1142368Y644215D01*
X1154878Y644215D01*
X1154878Y639705D01*
X1142368Y639705D01*
X1142368Y640645D02*
X1154878Y640645D01*
X1154878Y641585D02*
X1142368Y641585D01*
X1142368Y642525D02*
X1154878Y642525D01*
X1154878Y643465D02*
X1142368Y643465D01*
D21*
X874855Y522544D02*
X868905Y522544D01*
X868905Y533494D01*
X874855Y533494D01*
X874855Y522544D01*
X874855Y523541D02*
X868905Y523541D01*
X868905Y524538D02*
X874855Y524538D01*
X874855Y525535D02*
X868905Y525535D01*
X868905Y526532D02*
X874855Y526532D01*
X874855Y527529D02*
X868905Y527529D01*
X868905Y528526D02*
X874855Y528526D01*
X874855Y529523D02*
X868905Y529523D01*
X868905Y530520D02*
X874855Y530520D01*
X874855Y531517D02*
X868905Y531517D01*
X868905Y532514D02*
X874855Y532514D01*
X878405Y522544D02*
X884355Y522544D01*
X878405Y522544D02*
X878405Y533494D01*
X884355Y533494D01*
X884355Y522544D01*
X884355Y523541D02*
X878405Y523541D01*
X878405Y524538D02*
X884355Y524538D01*
X884355Y525535D02*
X878405Y525535D01*
X878405Y526532D02*
X884355Y526532D01*
X884355Y527529D02*
X878405Y527529D01*
X878405Y528526D02*
X884355Y528526D01*
X884355Y529523D02*
X878405Y529523D01*
X878405Y530520D02*
X884355Y530520D01*
X884355Y531517D02*
X878405Y531517D01*
X878405Y532514D02*
X884355Y532514D01*
X887905Y522544D02*
X893855Y522544D01*
X887905Y522544D02*
X887905Y533494D01*
X893855Y533494D01*
X893855Y522544D01*
X893855Y523541D02*
X887905Y523541D01*
X887905Y524538D02*
X893855Y524538D01*
X893855Y525535D02*
X887905Y525535D01*
X887905Y526532D02*
X893855Y526532D01*
X893855Y527529D02*
X887905Y527529D01*
X887905Y528526D02*
X893855Y528526D01*
X893855Y529523D02*
X887905Y529523D01*
X887905Y530520D02*
X893855Y530520D01*
X893855Y531517D02*
X887905Y531517D01*
X887905Y532514D02*
X893855Y532514D01*
X893855Y548546D02*
X887905Y548546D01*
X887905Y559496D01*
X893855Y559496D01*
X893855Y548546D01*
X893855Y549543D02*
X887905Y549543D01*
X887905Y550540D02*
X893855Y550540D01*
X893855Y551537D02*
X887905Y551537D01*
X887905Y552534D02*
X893855Y552534D01*
X893855Y553531D02*
X887905Y553531D01*
X887905Y554528D02*
X893855Y554528D01*
X893855Y555525D02*
X887905Y555525D01*
X887905Y556522D02*
X893855Y556522D01*
X893855Y557519D02*
X887905Y557519D01*
X887905Y558516D02*
X893855Y558516D01*
X874855Y548546D02*
X868905Y548546D01*
X868905Y559496D01*
X874855Y559496D01*
X874855Y548546D01*
X874855Y549543D02*
X868905Y549543D01*
X868905Y550540D02*
X874855Y550540D01*
X874855Y551537D02*
X868905Y551537D01*
X868905Y552534D02*
X874855Y552534D01*
X874855Y553531D02*
X868905Y553531D01*
X868905Y554528D02*
X874855Y554528D01*
X874855Y555525D02*
X868905Y555525D01*
X868905Y556522D02*
X874855Y556522D01*
X874855Y557519D02*
X868905Y557519D01*
X868905Y558516D02*
X874855Y558516D01*
D13*
X875340Y564460D02*
X865340Y564460D01*
X865340Y573460D01*
X875340Y573460D01*
X875340Y564460D01*
X875340Y565410D02*
X865340Y565410D01*
X865340Y566360D02*
X875340Y566360D01*
X875340Y567310D02*
X865340Y567310D01*
X865340Y568260D02*
X875340Y568260D01*
X875340Y569210D02*
X865340Y569210D01*
X865340Y570160D02*
X875340Y570160D01*
X875340Y571110D02*
X865340Y571110D01*
X865340Y572060D02*
X875340Y572060D01*
X875340Y573010D02*
X865340Y573010D01*
X882340Y564460D02*
X892340Y564460D01*
X882340Y564460D02*
X882340Y573460D01*
X892340Y573460D01*
X892340Y564460D01*
X892340Y565410D02*
X882340Y565410D01*
X882340Y566360D02*
X892340Y566360D01*
X892340Y567310D02*
X882340Y567310D01*
X882340Y568260D02*
X892340Y568260D01*
X892340Y569210D02*
X882340Y569210D01*
X882340Y570160D02*
X892340Y570160D01*
X892340Y571110D02*
X882340Y571110D01*
X882340Y572060D02*
X892340Y572060D01*
X892340Y573010D02*
X882340Y573010D01*
X875340Y508580D02*
X865340Y508580D01*
X865340Y517580D01*
X875340Y517580D01*
X875340Y508580D01*
X875340Y509530D02*
X865340Y509530D01*
X865340Y510480D02*
X875340Y510480D01*
X875340Y511430D02*
X865340Y511430D01*
X865340Y512380D02*
X875340Y512380D01*
X875340Y513330D02*
X865340Y513330D01*
X865340Y514280D02*
X875340Y514280D01*
X875340Y515230D02*
X865340Y515230D01*
X865340Y516180D02*
X875340Y516180D01*
X875340Y517130D02*
X865340Y517130D01*
X882340Y508580D02*
X892340Y508580D01*
X882340Y508580D02*
X882340Y517580D01*
X892340Y517580D01*
X892340Y508580D01*
X892340Y509530D02*
X882340Y509530D01*
X882340Y510480D02*
X892340Y510480D01*
X892340Y511430D02*
X882340Y511430D01*
X882340Y512380D02*
X892340Y512380D01*
X892340Y513330D02*
X882340Y513330D01*
X882340Y514280D02*
X892340Y514280D01*
X892340Y515230D02*
X882340Y515230D01*
X882340Y516180D02*
X892340Y516180D01*
X892340Y517130D02*
X882340Y517130D01*
X902280Y544520D02*
X902280Y554520D01*
X911280Y554520D01*
X911280Y544520D01*
X902280Y544520D01*
X902280Y545470D02*
X911280Y545470D01*
X911280Y546420D02*
X902280Y546420D01*
X902280Y547370D02*
X911280Y547370D01*
X911280Y548320D02*
X902280Y548320D01*
X902280Y549270D02*
X911280Y549270D01*
X911280Y550220D02*
X902280Y550220D01*
X902280Y551170D02*
X911280Y551170D01*
X911280Y552120D02*
X902280Y552120D01*
X902280Y553070D02*
X911280Y553070D01*
X911280Y554020D02*
X902280Y554020D01*
X902280Y537520D02*
X902280Y527520D01*
X902280Y537520D02*
X911280Y537520D01*
X911280Y527520D01*
X902280Y527520D01*
X902280Y528470D02*
X911280Y528470D01*
X911280Y529420D02*
X902280Y529420D01*
X902280Y530370D02*
X911280Y530370D01*
X911280Y531320D02*
X902280Y531320D01*
X902280Y532270D02*
X911280Y532270D01*
X911280Y533220D02*
X902280Y533220D01*
X902280Y534170D02*
X911280Y534170D01*
X911280Y535120D02*
X902280Y535120D01*
X902280Y536070D02*
X911280Y536070D01*
X911280Y537020D02*
X902280Y537020D01*
M02*
