M48
;GenerationSoftware,Autodesk,EAGLE,9.6.2*%
;CreationDate,2022-07-11T21:47:57Z*%
FMAT,2
ICI,OFF
METRIC,TZ,000.000
T13C0.305
T12C0.350
T11C0.400
T10C0.508
T9C0.650
T8C0.900
T7C0.950
T6C1.000
T5C1.016
T4C1.100
T3C1.600
T2C3.048
T1C3.800
%
G90
M71
T1
X99463Y46386
X4840Y52654
X43037Y52654
X81292Y52680
T2
X2540Y71120
X121920Y2540
X2540Y2540
X121920Y71120
X121920Y50800
T3
X85504Y26162
X52230Y10414
X13876Y10414
T4
X105504Y26162
X72230Y10414
X33876Y10414
T5
X112624Y37313
X112268Y50800
X115164Y37313
X114808Y50800
T6
X96010Y68326
X104010Y68326
T7
X119380Y20320
X121920Y20320
T8
X100862Y3302
X94972Y3302
X91972Y3302
X86082Y3302
X83082Y3302
X103862Y3302
T9
X111410Y68349
X117190Y68349
T10
X121984Y11424
X121984Y12694
X121984Y13964
X121984Y15234
X121984Y10154
X120714Y11424
X120714Y13964
X120714Y15234
X120714Y10154
X120714Y12694
T11
X118618Y67819
X118618Y71999
X109982Y71999
X109982Y67819
T12
X108255Y29972
X104902Y29972
T13
X42850Y3556
X47295Y8585
X61976Y6934
X59588Y7518
X25121Y11024
X28778Y10465
X96063Y17196
X117526Y27051
X57150Y16739
X63462Y14805
X87183Y22091
X52908Y6375
X72187Y12979
X25095Y3759
X95529Y12141
X72390Y7874
X67335Y7442
X25095Y14046
X72466Y4089
X95516Y30757
X35458Y11684
X35001Y9398
X63576Y6452
X60401Y6401
X39548Y8052
X82245Y20218
X83871Y20599
X56871Y22606
X53137Y22936
X51562Y26721
X53772Y28296
X49581Y31013
X44704Y31521
X38329Y28524
X37592Y25121
X39954Y20676
X37973Y21742
X44018Y20396
X44780Y16789
X54229Y18034
X40310Y6045
X44831Y5893
X41173Y7798
X44958Y8255
X44145Y3505
X52959Y3785
X38837Y1473
X28346Y2413
X20345Y3734
X9728Y3480
X8687Y2718
X11100Y4470
X11963Y21971
X10871Y22911
X9855Y23851
X68961Y19685
X63043Y17882
X68250Y14783
X70460Y14859
X67996Y9322
X67412Y3200
X68961Y2464
X58776Y3353
X56693Y7036
X76124Y8128
X76581Y5893
X83947Y762
X97892Y1422
X82804Y12776
X86335Y13106
X86436Y14795
X30785Y8966
X63271Y29159
X61646Y37567
X62789Y41834
X104152Y26794
X102806Y26261
X84887Y30505
X49581Y25146
X49505Y20472
X49505Y17247
X49581Y13894
X44348Y25171
X44272Y28524
X87935Y31217
X89027Y31826
X107112Y60046
X91084Y59614
X90145Y67767
X107848Y67920
X76937Y1118
X29388Y14300
X19761Y14199
X19710Y16485
X59004Y14834
X106223Y15291
X107264Y13208
X34620Y3785
X24232Y6706
X16459Y6833
X36500Y6172
X111150Y43917
X111176Y26721
X123088Y13310
X14503Y20041
X13487Y14072
X16408Y10897
X19710Y10897
X19075Y2718
X7671Y1956
X8839Y24740
X87884Y62484
X87884Y69850
X98069Y9157
X99111Y8407
X97434Y10046
X64948Y18136
X111125Y66294
X117526Y65507
X24536Y17348
X27508Y16078
X121590Y60935
X121590Y63475
X114706Y43917
X112624Y53365
X115062Y46736
X115062Y48514
X97892Y5232
X106782Y5232
X106782Y1422
X89002Y3200
X80112Y3200
X88138Y54077
X89941Y56947
X74930Y66040
X47371Y3607
X84721Y41958
X111023Y63221
X115570Y5080
X116154Y29769
X110744Y26060
X115545Y66269
X119075Y65227
X103734Y23901
X103022Y23038
X86360Y29972
X86360Y43937
X77292Y5156
X53645Y6401
X15037Y6579
X26162Y5156
X113792Y31750
X117094Y10922
X108204Y10922
X38354Y7874
X95250Y55880
X100127Y56591
X102108Y7620
X105816Y39294
X87249Y24638
X83312Y14872
X83287Y13310
X52654Y25959
X37084Y25908
X84074Y5080
X99822Y39167
X103353Y35636
X100076Y26238
X98882Y25044
X76403Y7391
X66878Y6807
X28194Y6350
X100609Y39141
X103276Y36551
X100584Y25654
X99416Y24409
X76987Y6502
X67488Y6375
X67005Y3912
X28626Y3912
X58471Y8103
X58445Y7010
X57887Y8687
X57912Y6528
X57175Y9068
X57201Y6528
X50216Y9525
X52984Y7087
X102108Y35992
X99695Y38176
X102006Y35128
X99009Y38125
X100755Y12828
X94765Y12614
X88167Y23822
X85598Y14872
X85598Y13208
X39268Y21285
X56134Y21539
X86360Y762
X62484Y37668
X62484Y28956
X55372Y18034
X62205Y14884
X68301Y1397
X59512Y3353
X87630Y19202
X87630Y14872
X87630Y13411
X87630Y5715
X89154Y22098
X90229Y22098
X70510Y7772
X31064Y8255
X69672Y7747
X31344Y7188
X90678Y24638
X92456Y22860
X71374Y7834
X31318Y9754
X106020Y24105
X117348Y24130
X102692Y27102
X82474Y21234
X39802Y22987
X52146Y23038
X102362Y23317
X102362Y15113
X95222Y15212
X68732Y15291
X62941Y15265
X38583Y22250
X53696Y22174
X53721Y17526
X58166Y17526
X116180Y28550
X60790Y7214
X61468Y6375
X104775Y11684
X117856Y11684
X105410Y12192
X117602Y12446
X101854Y34036
X98323Y37567
X28194Y17272
X25400Y17374
X65100Y1803
X27686Y1524
X118618Y43942
X93167Y22149
X112014Y22098
X115951Y14224
X15113Y14224
X53467Y14224
X116840Y33782
X110363Y33782
X110109Y50800
X87122Y50292
X90678Y50800
X53848Y29185
X38100Y29210
X79922Y6706
X79883Y13411
X79883Y14872
X79934Y26492
X103581Y37287
X96545Y41402
X63525Y41402
X63500Y29972
X54661Y18567
X63551Y18415
X101346Y33528
X98044Y36830
X23139Y8636
X27711Y16739
X25044Y16764
X25730Y10516
X100264Y13398
X94800Y13330
X101295Y15824
X95580Y15824
X101803Y16383
X95021Y16383
X81509Y23546
X81534Y14872
X81534Y13183
X37338Y23749
X56947Y23546
X83058Y1194
X21133Y1803
X115468Y40869
X57404Y24308
X38303Y24460
X38862Y27889
X51562Y27889
X23851Y9830
X27635Y9804
X43840Y19583
X58166Y19558
X50546Y26924
X39370Y26924
X90424Y43282
X90424Y33909
X49390Y31991
X45517Y32004
X121920Y47650
X121920Y43739
X111252Y18542
X106515Y19215
X117348Y62230
X84150Y19812
X84074Y14872
X84074Y13208
X84582Y2032
X82321Y14872
X82271Y13284
X82296Y19202
X83312Y5080
X41123Y6147
X44094Y5864
X44526Y7671
X41554Y7214
X40843Y7188
X44425Y6528
X91725Y22321
X87376Y26670
X84201Y30455
X91796Y48336
X69672Y14795
X69367Y20396
X56591Y16002
X44399Y15977
X44958Y9144
X40640Y9144
X104648Y8636
X99365Y9144
X87909Y25324
X84836Y14872
X84836Y13208
X69393Y1905
X54000Y3785
X84811Y6579
X117424Y63043
X57150Y66040
X66040Y66040
X48260Y66040
X19761Y2667
X19050Y66040
X27940Y66040
X10160Y66040
X74930Y57150
X57150Y57150
X66040Y57150
X48260Y57150
X36830Y57150
X19050Y57150
X27940Y57150
X10160Y57150
X116992Y17120
X110490Y15240
X118872Y54610
X115214Y10389
X14580Y3861
X101879Y52934
X102641Y55855
X102514Y59538
X101524Y13360
X103149Y15723
X105080Y10820
X93142Y23038
X88494Y22606
X99873Y23774
X104826Y22682
X114935Y29870
X92202Y56998
X23724Y9068
X30582Y7569
X33122Y3810
X33198Y7188
X49657Y6147
X93650Y18694
X102019Y23975
X97396Y36218
X102705Y34414
X104432Y37615
X89141Y43584
X115468Y39446
X104699Y12852
X110515Y7366
X118161Y3073
X89840Y26289
X80747Y14846
X80823Y13157
X83058Y22911
X93904Y13360
X87185Y25321
X89674Y23187
X104851Y19558
X103454Y19558
X94513Y14872
X101638Y40282
X91224Y33170
X36830Y66040
M30