G04 EAGLE Gerber RS-274X export*
G75*
%MOMM*%
%FSLAX34Y34*%
%LPD*%
%INSoldermask Top*%
%IPPOS*%
%AMOC8*
5,1,8,0,0,1.08239X$1,22.5*%
G01*
%ADD10C,0.225369*%
%ADD11C,0.225588*%
%ADD12C,6.127000*%
%ADD13C,3.175000*%
%ADD14C,1.227000*%
%ADD15C,1.727000*%
%ADD16C,0.230578*%
%ADD17C,0.225400*%
%ADD18C,0.224509*%
%ADD19C,0.223409*%
%ADD20C,0.428259*%
%ADD21C,0.777000*%
%ADD22C,1.127000*%
%ADD23C,0.222250*%
%ADD24C,0.228600*%
%ADD25C,2.006600*%
%ADD26C,0.227100*%
%ADD27C,0.231750*%
%ADD28C,0.223519*%
%ADD29C,0.231559*%
%ADD30C,0.229050*%
%ADD31R,0.480000X0.280000*%
%ADD32R,0.280000X0.480000*%
%ADD33C,1.027000*%

G36*
X1100934Y666704D02*
X1100934Y666704D01*
X1100939Y666709D01*
X1100943Y666705D01*
X1102040Y666992D01*
X1102044Y666998D01*
X1102049Y666995D01*
X1103068Y667490D01*
X1103071Y667496D01*
X1103076Y667495D01*
X1103979Y668179D01*
X1103981Y668186D01*
X1103986Y668186D01*
X1104739Y669033D01*
X1104739Y669040D01*
X1104744Y669041D01*
X1105317Y670018D01*
X1105316Y670021D01*
X1105317Y670022D01*
X1105316Y670023D01*
X1105316Y670025D01*
X1105321Y670027D01*
X1105692Y671098D01*
X1105690Y671103D01*
X1105693Y671105D01*
X1105692Y671106D01*
X1105694Y671107D01*
X1105849Y672229D01*
X1105846Y672234D01*
X1105849Y672236D01*
X1105849Y684236D01*
X1105846Y684241D01*
X1105849Y684244D01*
X1105644Y685511D01*
X1105638Y685517D01*
X1105641Y685522D01*
X1105159Y686711D01*
X1105152Y686715D01*
X1105154Y686721D01*
X1104420Y687774D01*
X1104412Y687776D01*
X1104413Y687782D01*
X1103463Y688645D01*
X1103454Y688646D01*
X1103454Y688651D01*
X1102335Y689281D01*
X1102327Y689280D01*
X1102325Y689286D01*
X1101095Y689651D01*
X1101087Y689648D01*
X1101084Y689653D01*
X1099803Y689735D01*
X1099797Y689735D01*
X1098516Y689653D01*
X1098510Y689647D01*
X1098505Y689651D01*
X1097275Y689286D01*
X1097270Y689279D01*
X1097265Y689281D01*
X1096146Y688651D01*
X1096143Y688644D01*
X1096137Y688645D01*
X1095187Y687782D01*
X1095186Y687774D01*
X1095180Y687774D01*
X1094446Y686721D01*
X1094446Y686713D01*
X1094441Y686711D01*
X1093959Y685522D01*
X1093961Y685516D01*
X1093957Y685513D01*
X1093958Y685512D01*
X1093956Y685511D01*
X1093751Y684244D01*
X1093754Y684239D01*
X1093751Y684236D01*
X1093751Y672236D01*
X1093754Y672232D01*
X1093751Y672229D01*
X1093906Y671107D01*
X1093911Y671102D01*
X1093908Y671098D01*
X1094279Y670027D01*
X1094285Y670023D01*
X1094283Y670018D01*
X1094856Y669041D01*
X1094862Y669038D01*
X1094861Y669033D01*
X1095614Y668186D01*
X1095621Y668184D01*
X1095621Y668179D01*
X1096524Y667495D01*
X1096531Y667495D01*
X1096532Y667490D01*
X1097551Y666995D01*
X1097558Y666997D01*
X1097560Y666992D01*
X1098657Y666705D01*
X1098663Y666708D01*
X1098666Y666704D01*
X1099797Y666637D01*
X1099801Y666639D01*
X1099803Y666637D01*
X1100934Y666704D01*
G37*
G36*
X1187334Y666704D02*
X1187334Y666704D01*
X1187339Y666709D01*
X1187343Y666705D01*
X1188440Y666992D01*
X1188444Y666998D01*
X1188449Y666995D01*
X1189468Y667490D01*
X1189471Y667496D01*
X1189476Y667495D01*
X1190379Y668179D01*
X1190381Y668186D01*
X1190386Y668186D01*
X1191139Y669033D01*
X1191139Y669040D01*
X1191144Y669041D01*
X1191717Y670018D01*
X1191716Y670021D01*
X1191717Y670022D01*
X1191716Y670023D01*
X1191716Y670025D01*
X1191721Y670027D01*
X1192092Y671098D01*
X1192090Y671103D01*
X1192093Y671105D01*
X1192092Y671106D01*
X1192094Y671107D01*
X1192249Y672229D01*
X1192246Y672234D01*
X1192249Y672236D01*
X1192249Y684236D01*
X1192246Y684241D01*
X1192249Y684244D01*
X1192044Y685511D01*
X1192038Y685517D01*
X1192041Y685522D01*
X1191559Y686711D01*
X1191552Y686715D01*
X1191554Y686721D01*
X1190820Y687774D01*
X1190812Y687776D01*
X1190813Y687782D01*
X1189863Y688645D01*
X1189854Y688646D01*
X1189854Y688651D01*
X1188735Y689281D01*
X1188727Y689280D01*
X1188725Y689286D01*
X1187495Y689651D01*
X1187487Y689648D01*
X1187484Y689653D01*
X1186203Y689735D01*
X1186197Y689735D01*
X1184916Y689653D01*
X1184910Y689647D01*
X1184905Y689651D01*
X1183675Y689286D01*
X1183670Y689279D01*
X1183665Y689281D01*
X1182546Y688651D01*
X1182543Y688644D01*
X1182537Y688645D01*
X1181587Y687782D01*
X1181586Y687774D01*
X1181580Y687774D01*
X1180846Y686721D01*
X1180846Y686713D01*
X1180841Y686711D01*
X1180359Y685522D01*
X1180361Y685516D01*
X1180357Y685513D01*
X1180358Y685512D01*
X1180356Y685511D01*
X1180151Y684244D01*
X1180154Y684239D01*
X1180151Y684236D01*
X1180151Y672236D01*
X1180154Y672232D01*
X1180151Y672229D01*
X1180306Y671107D01*
X1180311Y671102D01*
X1180308Y671098D01*
X1180679Y670027D01*
X1180685Y670023D01*
X1180683Y670018D01*
X1181256Y669041D01*
X1181262Y669038D01*
X1181261Y669033D01*
X1182014Y668186D01*
X1182021Y668184D01*
X1182021Y668179D01*
X1182924Y667495D01*
X1182931Y667495D01*
X1182932Y667490D01*
X1183951Y666995D01*
X1183958Y666997D01*
X1183960Y666992D01*
X1185057Y666705D01*
X1185063Y666708D01*
X1185066Y666704D01*
X1186197Y666637D01*
X1186201Y666639D01*
X1186203Y666637D01*
X1187334Y666704D01*
G37*
G36*
X1186202Y710941D02*
X1186202Y710941D01*
X1186206Y710937D01*
X1187546Y711094D01*
X1187552Y711099D01*
X1187557Y711096D01*
X1188828Y711547D01*
X1188833Y711554D01*
X1188838Y711552D01*
X1189977Y712274D01*
X1189980Y712282D01*
X1189986Y712281D01*
X1190936Y713239D01*
X1190937Y713247D01*
X1190943Y713248D01*
X1191656Y714393D01*
X1191655Y714402D01*
X1191661Y714403D01*
X1192101Y715679D01*
X1192099Y715686D01*
X1192103Y715689D01*
X1192249Y717031D01*
X1192247Y717034D01*
X1192249Y717036D01*
X1192249Y723036D01*
X1192247Y723040D01*
X1192249Y723042D01*
X1192094Y724371D01*
X1192088Y724377D01*
X1192091Y724381D01*
X1191644Y725642D01*
X1191637Y725647D01*
X1191639Y725652D01*
X1190922Y726782D01*
X1190915Y726785D01*
X1190916Y726791D01*
X1189966Y727733D01*
X1189957Y727734D01*
X1189957Y727740D01*
X1188821Y728447D01*
X1188813Y728446D01*
X1188811Y728452D01*
X1187546Y728888D01*
X1187538Y728886D01*
X1187536Y728891D01*
X1186205Y729035D01*
X1186199Y729031D01*
X1186195Y729035D01*
X1185029Y728925D01*
X1185024Y728920D01*
X1185020Y728923D01*
X1183897Y728588D01*
X1183893Y728582D01*
X1183889Y728584D01*
X1182853Y728036D01*
X1182850Y728030D01*
X1182845Y728031D01*
X1181937Y727292D01*
X1181935Y727285D01*
X1181930Y727285D01*
X1181183Y726383D01*
X1181183Y726376D01*
X1181178Y726375D01*
X1180621Y725344D01*
X1180622Y725337D01*
X1180617Y725335D01*
X1180273Y724216D01*
X1180275Y724209D01*
X1180271Y724206D01*
X1180151Y723041D01*
X1180153Y723038D01*
X1180151Y723036D01*
X1180151Y717036D01*
X1180153Y717033D01*
X1180151Y717031D01*
X1180262Y715855D01*
X1180267Y715850D01*
X1180264Y715846D01*
X1180602Y714714D01*
X1180608Y714710D01*
X1180606Y714705D01*
X1181158Y713661D01*
X1181165Y713658D01*
X1181163Y713653D01*
X1181909Y712737D01*
X1181916Y712736D01*
X1181916Y712730D01*
X1182826Y711977D01*
X1182833Y711977D01*
X1182834Y711972D01*
X1183873Y711411D01*
X1183880Y711412D01*
X1183882Y711407D01*
X1185011Y711060D01*
X1185017Y711062D01*
X1185020Y711058D01*
X1186195Y710937D01*
X1186202Y710941D01*
G37*
G36*
X1099802Y710941D02*
X1099802Y710941D01*
X1099806Y710937D01*
X1101146Y711094D01*
X1101152Y711099D01*
X1101157Y711096D01*
X1102428Y711547D01*
X1102433Y711554D01*
X1102438Y711552D01*
X1103577Y712274D01*
X1103580Y712282D01*
X1103586Y712281D01*
X1104536Y713239D01*
X1104537Y713247D01*
X1104543Y713248D01*
X1105256Y714393D01*
X1105255Y714402D01*
X1105261Y714403D01*
X1105701Y715679D01*
X1105699Y715686D01*
X1105703Y715689D01*
X1105849Y717031D01*
X1105847Y717034D01*
X1105849Y717036D01*
X1105849Y723036D01*
X1105847Y723040D01*
X1105849Y723042D01*
X1105694Y724371D01*
X1105688Y724377D01*
X1105691Y724381D01*
X1105244Y725642D01*
X1105237Y725647D01*
X1105239Y725652D01*
X1104522Y726782D01*
X1104515Y726785D01*
X1104516Y726791D01*
X1103566Y727733D01*
X1103557Y727734D01*
X1103557Y727740D01*
X1102421Y728447D01*
X1102413Y728446D01*
X1102411Y728452D01*
X1101146Y728888D01*
X1101138Y728886D01*
X1101136Y728891D01*
X1099805Y729035D01*
X1099799Y729031D01*
X1099795Y729035D01*
X1098629Y728925D01*
X1098624Y728920D01*
X1098620Y728923D01*
X1097497Y728588D01*
X1097493Y728582D01*
X1097489Y728584D01*
X1096453Y728036D01*
X1096450Y728030D01*
X1096445Y728031D01*
X1095537Y727292D01*
X1095535Y727285D01*
X1095530Y727285D01*
X1094783Y726383D01*
X1094783Y726376D01*
X1094778Y726375D01*
X1094221Y725344D01*
X1094222Y725337D01*
X1094217Y725335D01*
X1093873Y724216D01*
X1093875Y724209D01*
X1093871Y724206D01*
X1093751Y723041D01*
X1093753Y723038D01*
X1093751Y723036D01*
X1093751Y717036D01*
X1093753Y717033D01*
X1093751Y717031D01*
X1093862Y715855D01*
X1093867Y715850D01*
X1093864Y715846D01*
X1094202Y714714D01*
X1094208Y714710D01*
X1094206Y714705D01*
X1094758Y713661D01*
X1094765Y713658D01*
X1094763Y713653D01*
X1095509Y712737D01*
X1095516Y712736D01*
X1095516Y712730D01*
X1096426Y711977D01*
X1096433Y711977D01*
X1096434Y711972D01*
X1097473Y711411D01*
X1097480Y711412D01*
X1097482Y711407D01*
X1098611Y711060D01*
X1098617Y711062D01*
X1098620Y711058D01*
X1099795Y710937D01*
X1099802Y710941D01*
G37*
G36*
X1137350Y500773D02*
X1137350Y500773D01*
X1137416Y500775D01*
X1137459Y500793D01*
X1137506Y500801D01*
X1137563Y500835D01*
X1137623Y500860D01*
X1137658Y500891D01*
X1137699Y500916D01*
X1137741Y500967D01*
X1137789Y501011D01*
X1137811Y501053D01*
X1137840Y501090D01*
X1137861Y501152D01*
X1137892Y501211D01*
X1137900Y501265D01*
X1137912Y501302D01*
X1137911Y501342D01*
X1137919Y501396D01*
X1137919Y514604D01*
X1137908Y514669D01*
X1137906Y514735D01*
X1137888Y514778D01*
X1137880Y514825D01*
X1137846Y514882D01*
X1137821Y514942D01*
X1137790Y514977D01*
X1137765Y515018D01*
X1137714Y515060D01*
X1137670Y515108D01*
X1137628Y515130D01*
X1137591Y515159D01*
X1137529Y515180D01*
X1137470Y515211D01*
X1137416Y515219D01*
X1137379Y515231D01*
X1137339Y515230D01*
X1137285Y515238D01*
X1133475Y515238D01*
X1133410Y515227D01*
X1133344Y515225D01*
X1133301Y515207D01*
X1133254Y515199D01*
X1133197Y515165D01*
X1133137Y515140D01*
X1133102Y515109D01*
X1133061Y515084D01*
X1133020Y515033D01*
X1132971Y514989D01*
X1132949Y514947D01*
X1132920Y514910D01*
X1132899Y514848D01*
X1132868Y514789D01*
X1132860Y514735D01*
X1132848Y514698D01*
X1132849Y514658D01*
X1132841Y514604D01*
X1132841Y501396D01*
X1132852Y501331D01*
X1132854Y501265D01*
X1132872Y501222D01*
X1132880Y501175D01*
X1132914Y501118D01*
X1132939Y501058D01*
X1132970Y501023D01*
X1132995Y500982D01*
X1133046Y500941D01*
X1133090Y500892D01*
X1133132Y500870D01*
X1133169Y500841D01*
X1133231Y500820D01*
X1133290Y500789D01*
X1133344Y500781D01*
X1133381Y500769D01*
X1133421Y500770D01*
X1133475Y500762D01*
X1137285Y500762D01*
X1137350Y500773D01*
G37*
G36*
X1140906Y365899D02*
X1140906Y365899D01*
X1140972Y365901D01*
X1141015Y365919D01*
X1141062Y365927D01*
X1141119Y365961D01*
X1141179Y365986D01*
X1141214Y366017D01*
X1141255Y366042D01*
X1141297Y366093D01*
X1141345Y366137D01*
X1141367Y366179D01*
X1141396Y366216D01*
X1141417Y366278D01*
X1141448Y366337D01*
X1141456Y366391D01*
X1141468Y366428D01*
X1141467Y366468D01*
X1141475Y366522D01*
X1141475Y379730D01*
X1141464Y379795D01*
X1141462Y379861D01*
X1141444Y379904D01*
X1141436Y379951D01*
X1141402Y380008D01*
X1141377Y380068D01*
X1141346Y380103D01*
X1141321Y380144D01*
X1141270Y380186D01*
X1141226Y380234D01*
X1141184Y380256D01*
X1141147Y380285D01*
X1141085Y380306D01*
X1141026Y380337D01*
X1140972Y380345D01*
X1140935Y380357D01*
X1140895Y380356D01*
X1140841Y380364D01*
X1137031Y380364D01*
X1136966Y380353D01*
X1136900Y380351D01*
X1136857Y380333D01*
X1136810Y380325D01*
X1136753Y380291D01*
X1136693Y380266D01*
X1136658Y380235D01*
X1136617Y380210D01*
X1136576Y380159D01*
X1136527Y380115D01*
X1136505Y380073D01*
X1136476Y380036D01*
X1136455Y379974D01*
X1136424Y379915D01*
X1136416Y379861D01*
X1136404Y379824D01*
X1136405Y379784D01*
X1136397Y379730D01*
X1136397Y366522D01*
X1136408Y366457D01*
X1136410Y366391D01*
X1136428Y366348D01*
X1136436Y366301D01*
X1136470Y366244D01*
X1136495Y366184D01*
X1136526Y366149D01*
X1136551Y366108D01*
X1136602Y366067D01*
X1136646Y366018D01*
X1136688Y365996D01*
X1136725Y365967D01*
X1136787Y365946D01*
X1136846Y365915D01*
X1136900Y365907D01*
X1136937Y365895D01*
X1136977Y365896D01*
X1137031Y365888D01*
X1140841Y365888D01*
X1140906Y365899D01*
G37*
D10*
X875872Y647208D02*
X880888Y647208D01*
X880888Y632692D01*
X875872Y632692D01*
X875872Y647208D01*
X875872Y634833D02*
X880888Y634833D01*
X880888Y636974D02*
X875872Y636974D01*
X875872Y639115D02*
X880888Y639115D01*
X880888Y641256D02*
X875872Y641256D01*
X875872Y643397D02*
X880888Y643397D01*
X880888Y645538D02*
X875872Y645538D01*
X870888Y647208D02*
X865872Y647208D01*
X870888Y647208D02*
X870888Y632692D01*
X865872Y632692D01*
X865872Y647208D01*
X865872Y634833D02*
X870888Y634833D01*
X870888Y636974D02*
X865872Y636974D01*
X865872Y639115D02*
X870888Y639115D01*
X870888Y641256D02*
X865872Y641256D01*
X865872Y643397D02*
X870888Y643397D01*
X870888Y645538D02*
X865872Y645538D01*
X860888Y647208D02*
X855872Y647208D01*
X860888Y647208D02*
X860888Y632692D01*
X855872Y632692D01*
X855872Y647208D01*
X855872Y634833D02*
X860888Y634833D01*
X860888Y636974D02*
X855872Y636974D01*
X855872Y639115D02*
X860888Y639115D01*
X860888Y641256D02*
X855872Y641256D01*
X855872Y643397D02*
X860888Y643397D01*
X860888Y645538D02*
X855872Y645538D01*
X850888Y647208D02*
X845872Y647208D01*
X850888Y647208D02*
X850888Y632692D01*
X845872Y632692D01*
X845872Y647208D01*
X845872Y634833D02*
X850888Y634833D01*
X850888Y636974D02*
X845872Y636974D01*
X845872Y639115D02*
X850888Y639115D01*
X850888Y641256D02*
X845872Y641256D01*
X845872Y643397D02*
X850888Y643397D01*
X850888Y645538D02*
X845872Y645538D01*
D11*
X885873Y625207D02*
X896887Y625207D01*
X896887Y606193D01*
X885873Y606193D01*
X885873Y625207D01*
X885873Y608336D02*
X896887Y608336D01*
X896887Y610479D02*
X885873Y610479D01*
X885873Y612622D02*
X896887Y612622D01*
X896887Y614765D02*
X885873Y614765D01*
X885873Y616908D02*
X896887Y616908D01*
X896887Y619051D02*
X885873Y619051D01*
X885873Y621194D02*
X896887Y621194D01*
X896887Y623337D02*
X885873Y623337D01*
X840887Y625207D02*
X829873Y625207D01*
X840887Y625207D02*
X840887Y606193D01*
X829873Y606193D01*
X829873Y625207D01*
X829873Y608336D02*
X840887Y608336D01*
X840887Y610479D02*
X829873Y610479D01*
X829873Y612622D02*
X840887Y612622D01*
X840887Y614765D02*
X829873Y614765D01*
X829873Y616908D02*
X840887Y616908D01*
X840887Y619051D02*
X829873Y619051D01*
X829873Y621194D02*
X840887Y621194D01*
X840887Y623337D02*
X829873Y623337D01*
X886093Y732057D02*
X897107Y732057D01*
X897107Y713043D01*
X886093Y713043D01*
X886093Y732057D01*
X886093Y715186D02*
X897107Y715186D01*
X897107Y717329D02*
X886093Y717329D01*
X886093Y719472D02*
X897107Y719472D01*
X897107Y721615D02*
X886093Y721615D01*
X886093Y723758D02*
X897107Y723758D01*
X897107Y725901D02*
X886093Y725901D01*
X886093Y728044D02*
X897107Y728044D01*
X897107Y730187D02*
X886093Y730187D01*
X841107Y732057D02*
X830093Y732057D01*
X841107Y732057D02*
X841107Y713043D01*
X830093Y713043D01*
X830093Y732057D01*
X830093Y715186D02*
X841107Y715186D01*
X841107Y717329D02*
X830093Y717329D01*
X830093Y719472D02*
X841107Y719472D01*
X841107Y721615D02*
X830093Y721615D01*
X830093Y723758D02*
X841107Y723758D01*
X841107Y725901D02*
X830093Y725901D01*
X830093Y728044D02*
X841107Y728044D01*
X841107Y730187D02*
X830093Y730187D01*
D10*
X876092Y692058D02*
X881108Y692058D01*
X881108Y679542D01*
X876092Y679542D01*
X876092Y692058D01*
X876092Y681683D02*
X881108Y681683D01*
X881108Y683824D02*
X876092Y683824D01*
X876092Y685965D02*
X881108Y685965D01*
X881108Y688106D02*
X876092Y688106D01*
X876092Y690247D02*
X881108Y690247D01*
X871108Y692058D02*
X866092Y692058D01*
X871108Y692058D02*
X871108Y679542D01*
X866092Y679542D01*
X866092Y692058D01*
X866092Y681683D02*
X871108Y681683D01*
X871108Y683824D02*
X866092Y683824D01*
X866092Y685965D02*
X871108Y685965D01*
X871108Y688106D02*
X866092Y688106D01*
X866092Y690247D02*
X871108Y690247D01*
X861108Y692058D02*
X856092Y692058D01*
X861108Y692058D02*
X861108Y679542D01*
X856092Y679542D01*
X856092Y692058D01*
X856092Y681683D02*
X861108Y681683D01*
X861108Y683824D02*
X856092Y683824D01*
X856092Y685965D02*
X861108Y685965D01*
X861108Y688106D02*
X856092Y688106D01*
X856092Y690247D02*
X861108Y690247D01*
X851108Y692058D02*
X846092Y692058D01*
X851108Y692058D02*
X851108Y679542D01*
X846092Y679542D01*
X846092Y692058D01*
X846092Y681683D02*
X851108Y681683D01*
X851108Y683824D02*
X846092Y683824D01*
X846092Y685965D02*
X851108Y685965D01*
X851108Y688106D02*
X846092Y688106D01*
X846092Y690247D02*
X851108Y690247D01*
D12*
X48400Y526542D03*
X994628Y463858D03*
D13*
X1219200Y25400D03*
X25400Y25400D03*
X25400Y711200D03*
X1219200Y711200D03*
D14*
X1055040Y261620D03*
D15*
X855040Y261620D03*
D16*
X1046558Y216102D02*
X1048522Y216102D01*
X1048522Y201638D01*
X1046558Y201638D01*
X1046558Y216102D01*
X1046558Y203829D02*
X1048522Y203829D01*
X1048522Y206020D02*
X1046558Y206020D01*
X1046558Y208211D02*
X1048522Y208211D01*
X1048522Y210402D02*
X1046558Y210402D01*
X1046558Y212593D02*
X1048522Y212593D01*
X1048522Y214784D02*
X1046558Y214784D01*
D11*
X1053033Y229877D02*
X1064047Y229877D01*
X1064047Y203363D01*
X1053033Y203363D01*
X1053033Y229877D01*
X1053033Y205506D02*
X1064047Y205506D01*
X1064047Y207649D02*
X1053033Y207649D01*
X1053033Y209792D02*
X1064047Y209792D01*
X1064047Y211935D02*
X1053033Y211935D01*
X1053033Y214078D02*
X1064047Y214078D01*
X1064047Y216221D02*
X1053033Y216221D01*
X1053033Y218364D02*
X1064047Y218364D01*
X1064047Y220507D02*
X1053033Y220507D01*
X1053033Y222650D02*
X1064047Y222650D01*
X1064047Y224793D02*
X1053033Y224793D01*
X1053033Y226936D02*
X1064047Y226936D01*
X1064047Y229079D02*
X1053033Y229079D01*
X857047Y229877D02*
X846033Y229877D01*
X857047Y229877D02*
X857047Y203363D01*
X846033Y203363D01*
X846033Y229877D01*
X846033Y205506D02*
X857047Y205506D01*
X857047Y207649D02*
X846033Y207649D01*
X846033Y209792D02*
X857047Y209792D01*
X857047Y211935D02*
X846033Y211935D01*
X846033Y214078D02*
X857047Y214078D01*
X857047Y216221D02*
X846033Y216221D01*
X846033Y218364D02*
X857047Y218364D01*
X857047Y220507D02*
X846033Y220507D01*
X846033Y222650D02*
X857047Y222650D01*
X857047Y224793D02*
X846033Y224793D01*
X846033Y226936D02*
X857047Y226936D01*
X857047Y229079D02*
X846033Y229079D01*
D16*
X1044058Y291602D02*
X1046022Y291602D01*
X1046022Y277138D01*
X1044058Y277138D01*
X1044058Y291602D01*
X1044058Y279329D02*
X1046022Y279329D01*
X1046022Y281520D02*
X1044058Y281520D01*
X1044058Y283711D02*
X1046022Y283711D01*
X1046022Y285902D02*
X1044058Y285902D01*
X1044058Y288093D02*
X1046022Y288093D01*
X1046022Y290284D02*
X1044058Y290284D01*
X1043522Y216102D02*
X1041558Y216102D01*
X1043522Y216102D02*
X1043522Y201638D01*
X1041558Y201638D01*
X1041558Y216102D01*
X1041558Y203829D02*
X1043522Y203829D01*
X1043522Y206020D02*
X1041558Y206020D01*
X1041558Y208211D02*
X1043522Y208211D01*
X1043522Y210402D02*
X1041558Y210402D01*
X1041558Y212593D02*
X1043522Y212593D01*
X1043522Y214784D02*
X1041558Y214784D01*
X1041022Y291602D02*
X1039058Y291602D01*
X1041022Y291602D02*
X1041022Y277138D01*
X1039058Y277138D01*
X1039058Y291602D01*
X1039058Y279329D02*
X1041022Y279329D01*
X1041022Y281520D02*
X1039058Y281520D01*
X1039058Y283711D02*
X1041022Y283711D01*
X1041022Y285902D02*
X1039058Y285902D01*
X1039058Y288093D02*
X1041022Y288093D01*
X1041022Y290284D02*
X1039058Y290284D01*
X1038522Y216102D02*
X1036558Y216102D01*
X1038522Y216102D02*
X1038522Y201638D01*
X1036558Y201638D01*
X1036558Y216102D01*
X1036558Y203829D02*
X1038522Y203829D01*
X1038522Y206020D02*
X1036558Y206020D01*
X1036558Y208211D02*
X1038522Y208211D01*
X1038522Y210402D02*
X1036558Y210402D01*
X1036558Y212593D02*
X1038522Y212593D01*
X1038522Y214784D02*
X1036558Y214784D01*
X1036022Y291602D02*
X1034058Y291602D01*
X1036022Y291602D02*
X1036022Y277138D01*
X1034058Y277138D01*
X1034058Y291602D01*
X1034058Y279329D02*
X1036022Y279329D01*
X1036022Y281520D02*
X1034058Y281520D01*
X1034058Y283711D02*
X1036022Y283711D01*
X1036022Y285902D02*
X1034058Y285902D01*
X1034058Y288093D02*
X1036022Y288093D01*
X1036022Y290284D02*
X1034058Y290284D01*
X1033522Y216102D02*
X1031558Y216102D01*
X1033522Y216102D02*
X1033522Y201638D01*
X1031558Y201638D01*
X1031558Y216102D01*
X1031558Y203829D02*
X1033522Y203829D01*
X1033522Y206020D02*
X1031558Y206020D01*
X1031558Y208211D02*
X1033522Y208211D01*
X1033522Y210402D02*
X1031558Y210402D01*
X1031558Y212593D02*
X1033522Y212593D01*
X1033522Y214784D02*
X1031558Y214784D01*
X1031022Y291602D02*
X1029058Y291602D01*
X1031022Y291602D02*
X1031022Y277138D01*
X1029058Y277138D01*
X1029058Y291602D01*
X1029058Y279329D02*
X1031022Y279329D01*
X1031022Y281520D02*
X1029058Y281520D01*
X1029058Y283711D02*
X1031022Y283711D01*
X1031022Y285902D02*
X1029058Y285902D01*
X1029058Y288093D02*
X1031022Y288093D01*
X1031022Y290284D02*
X1029058Y290284D01*
X1028522Y216102D02*
X1026558Y216102D01*
X1028522Y216102D02*
X1028522Y201638D01*
X1026558Y201638D01*
X1026558Y216102D01*
X1026558Y203829D02*
X1028522Y203829D01*
X1028522Y206020D02*
X1026558Y206020D01*
X1026558Y208211D02*
X1028522Y208211D01*
X1028522Y210402D02*
X1026558Y210402D01*
X1026558Y212593D02*
X1028522Y212593D01*
X1028522Y214784D02*
X1026558Y214784D01*
X1026022Y291602D02*
X1024058Y291602D01*
X1026022Y291602D02*
X1026022Y277138D01*
X1024058Y277138D01*
X1024058Y291602D01*
X1024058Y279329D02*
X1026022Y279329D01*
X1026022Y281520D02*
X1024058Y281520D01*
X1024058Y283711D02*
X1026022Y283711D01*
X1026022Y285902D02*
X1024058Y285902D01*
X1024058Y288093D02*
X1026022Y288093D01*
X1026022Y290284D02*
X1024058Y290284D01*
X1023522Y216102D02*
X1021558Y216102D01*
X1023522Y216102D02*
X1023522Y201638D01*
X1021558Y201638D01*
X1021558Y216102D01*
X1021558Y203829D02*
X1023522Y203829D01*
X1023522Y206020D02*
X1021558Y206020D01*
X1021558Y208211D02*
X1023522Y208211D01*
X1023522Y210402D02*
X1021558Y210402D01*
X1021558Y212593D02*
X1023522Y212593D01*
X1023522Y214784D02*
X1021558Y214784D01*
X1021022Y291602D02*
X1019058Y291602D01*
X1021022Y291602D02*
X1021022Y277138D01*
X1019058Y277138D01*
X1019058Y291602D01*
X1019058Y279329D02*
X1021022Y279329D01*
X1021022Y281520D02*
X1019058Y281520D01*
X1019058Y283711D02*
X1021022Y283711D01*
X1021022Y285902D02*
X1019058Y285902D01*
X1019058Y288093D02*
X1021022Y288093D01*
X1021022Y290284D02*
X1019058Y290284D01*
X1018522Y216102D02*
X1016558Y216102D01*
X1018522Y216102D02*
X1018522Y201638D01*
X1016558Y201638D01*
X1016558Y216102D01*
X1016558Y203829D02*
X1018522Y203829D01*
X1018522Y206020D02*
X1016558Y206020D01*
X1016558Y208211D02*
X1018522Y208211D01*
X1018522Y210402D02*
X1016558Y210402D01*
X1016558Y212593D02*
X1018522Y212593D01*
X1018522Y214784D02*
X1016558Y214784D01*
X1016022Y291602D02*
X1014058Y291602D01*
X1016022Y291602D02*
X1016022Y277138D01*
X1014058Y277138D01*
X1014058Y291602D01*
X1014058Y279329D02*
X1016022Y279329D01*
X1016022Y281520D02*
X1014058Y281520D01*
X1014058Y283711D02*
X1016022Y283711D01*
X1016022Y285902D02*
X1014058Y285902D01*
X1014058Y288093D02*
X1016022Y288093D01*
X1016022Y290284D02*
X1014058Y290284D01*
X1013522Y216102D02*
X1011558Y216102D01*
X1013522Y216102D02*
X1013522Y201638D01*
X1011558Y201638D01*
X1011558Y216102D01*
X1011558Y203829D02*
X1013522Y203829D01*
X1013522Y206020D02*
X1011558Y206020D01*
X1011558Y208211D02*
X1013522Y208211D01*
X1013522Y210402D02*
X1011558Y210402D01*
X1011558Y212593D02*
X1013522Y212593D01*
X1013522Y214784D02*
X1011558Y214784D01*
X1011022Y291602D02*
X1009058Y291602D01*
X1011022Y291602D02*
X1011022Y277138D01*
X1009058Y277138D01*
X1009058Y291602D01*
X1009058Y279329D02*
X1011022Y279329D01*
X1011022Y281520D02*
X1009058Y281520D01*
X1009058Y283711D02*
X1011022Y283711D01*
X1011022Y285902D02*
X1009058Y285902D01*
X1009058Y288093D02*
X1011022Y288093D01*
X1011022Y290284D02*
X1009058Y290284D01*
X1008522Y216102D02*
X1006558Y216102D01*
X1008522Y216102D02*
X1008522Y201638D01*
X1006558Y201638D01*
X1006558Y216102D01*
X1006558Y203829D02*
X1008522Y203829D01*
X1008522Y206020D02*
X1006558Y206020D01*
X1006558Y208211D02*
X1008522Y208211D01*
X1008522Y210402D02*
X1006558Y210402D01*
X1006558Y212593D02*
X1008522Y212593D01*
X1008522Y214784D02*
X1006558Y214784D01*
X1006022Y291602D02*
X1004058Y291602D01*
X1006022Y291602D02*
X1006022Y277138D01*
X1004058Y277138D01*
X1004058Y291602D01*
X1004058Y279329D02*
X1006022Y279329D01*
X1006022Y281520D02*
X1004058Y281520D01*
X1004058Y283711D02*
X1006022Y283711D01*
X1006022Y285902D02*
X1004058Y285902D01*
X1004058Y288093D02*
X1006022Y288093D01*
X1006022Y290284D02*
X1004058Y290284D01*
X1003522Y216102D02*
X1001558Y216102D01*
X1003522Y216102D02*
X1003522Y201638D01*
X1001558Y201638D01*
X1001558Y216102D01*
X1001558Y203829D02*
X1003522Y203829D01*
X1003522Y206020D02*
X1001558Y206020D01*
X1001558Y208211D02*
X1003522Y208211D01*
X1003522Y210402D02*
X1001558Y210402D01*
X1001558Y212593D02*
X1003522Y212593D01*
X1003522Y214784D02*
X1001558Y214784D01*
X1001022Y291602D02*
X999058Y291602D01*
X1001022Y291602D02*
X1001022Y277138D01*
X999058Y277138D01*
X999058Y291602D01*
X999058Y279329D02*
X1001022Y279329D01*
X1001022Y281520D02*
X999058Y281520D01*
X999058Y283711D02*
X1001022Y283711D01*
X1001022Y285902D02*
X999058Y285902D01*
X999058Y288093D02*
X1001022Y288093D01*
X1001022Y290284D02*
X999058Y290284D01*
X998522Y216102D02*
X996558Y216102D01*
X998522Y216102D02*
X998522Y201638D01*
X996558Y201638D01*
X996558Y216102D01*
X996558Y203829D02*
X998522Y203829D01*
X998522Y206020D02*
X996558Y206020D01*
X996558Y208211D02*
X998522Y208211D01*
X998522Y210402D02*
X996558Y210402D01*
X996558Y212593D02*
X998522Y212593D01*
X998522Y214784D02*
X996558Y214784D01*
X996022Y291602D02*
X994058Y291602D01*
X996022Y291602D02*
X996022Y277138D01*
X994058Y277138D01*
X994058Y291602D01*
X994058Y279329D02*
X996022Y279329D01*
X996022Y281520D02*
X994058Y281520D01*
X994058Y283711D02*
X996022Y283711D01*
X996022Y285902D02*
X994058Y285902D01*
X994058Y288093D02*
X996022Y288093D01*
X996022Y290284D02*
X994058Y290284D01*
X993522Y216102D02*
X991558Y216102D01*
X993522Y216102D02*
X993522Y201638D01*
X991558Y201638D01*
X991558Y216102D01*
X991558Y203829D02*
X993522Y203829D01*
X993522Y206020D02*
X991558Y206020D01*
X991558Y208211D02*
X993522Y208211D01*
X993522Y210402D02*
X991558Y210402D01*
X991558Y212593D02*
X993522Y212593D01*
X993522Y214784D02*
X991558Y214784D01*
X971022Y291602D02*
X969058Y291602D01*
X971022Y291602D02*
X971022Y277138D01*
X969058Y277138D01*
X969058Y291602D01*
X969058Y279329D02*
X971022Y279329D01*
X971022Y281520D02*
X969058Y281520D01*
X969058Y283711D02*
X971022Y283711D01*
X971022Y285902D02*
X969058Y285902D01*
X969058Y288093D02*
X971022Y288093D01*
X971022Y290284D02*
X969058Y290284D01*
X968522Y216102D02*
X966558Y216102D01*
X968522Y216102D02*
X968522Y201638D01*
X966558Y201638D01*
X966558Y216102D01*
X966558Y203829D02*
X968522Y203829D01*
X968522Y206020D02*
X966558Y206020D01*
X966558Y208211D02*
X968522Y208211D01*
X968522Y210402D02*
X966558Y210402D01*
X966558Y212593D02*
X968522Y212593D01*
X968522Y214784D02*
X966558Y214784D01*
X966022Y291602D02*
X964058Y291602D01*
X966022Y291602D02*
X966022Y277138D01*
X964058Y277138D01*
X964058Y291602D01*
X964058Y279329D02*
X966022Y279329D01*
X966022Y281520D02*
X964058Y281520D01*
X964058Y283711D02*
X966022Y283711D01*
X966022Y285902D02*
X964058Y285902D01*
X964058Y288093D02*
X966022Y288093D01*
X966022Y290284D02*
X964058Y290284D01*
X963522Y216102D02*
X961558Y216102D01*
X963522Y216102D02*
X963522Y201638D01*
X961558Y201638D01*
X961558Y216102D01*
X961558Y203829D02*
X963522Y203829D01*
X963522Y206020D02*
X961558Y206020D01*
X961558Y208211D02*
X963522Y208211D01*
X963522Y210402D02*
X961558Y210402D01*
X961558Y212593D02*
X963522Y212593D01*
X963522Y214784D02*
X961558Y214784D01*
X961022Y291602D02*
X959058Y291602D01*
X961022Y291602D02*
X961022Y277138D01*
X959058Y277138D01*
X959058Y291602D01*
X959058Y279329D02*
X961022Y279329D01*
X961022Y281520D02*
X959058Y281520D01*
X959058Y283711D02*
X961022Y283711D01*
X961022Y285902D02*
X959058Y285902D01*
X959058Y288093D02*
X961022Y288093D01*
X961022Y290284D02*
X959058Y290284D01*
X958522Y216102D02*
X956558Y216102D01*
X958522Y216102D02*
X958522Y201638D01*
X956558Y201638D01*
X956558Y216102D01*
X956558Y203829D02*
X958522Y203829D01*
X958522Y206020D02*
X956558Y206020D01*
X956558Y208211D02*
X958522Y208211D01*
X958522Y210402D02*
X956558Y210402D01*
X956558Y212593D02*
X958522Y212593D01*
X958522Y214784D02*
X956558Y214784D01*
X956022Y291602D02*
X954058Y291602D01*
X956022Y291602D02*
X956022Y277138D01*
X954058Y277138D01*
X954058Y291602D01*
X954058Y279329D02*
X956022Y279329D01*
X956022Y281520D02*
X954058Y281520D01*
X954058Y283711D02*
X956022Y283711D01*
X956022Y285902D02*
X954058Y285902D01*
X954058Y288093D02*
X956022Y288093D01*
X956022Y290284D02*
X954058Y290284D01*
X953522Y216102D02*
X951558Y216102D01*
X953522Y216102D02*
X953522Y201638D01*
X951558Y201638D01*
X951558Y216102D01*
X951558Y203829D02*
X953522Y203829D01*
X953522Y206020D02*
X951558Y206020D01*
X951558Y208211D02*
X953522Y208211D01*
X953522Y210402D02*
X951558Y210402D01*
X951558Y212593D02*
X953522Y212593D01*
X953522Y214784D02*
X951558Y214784D01*
X951022Y291602D02*
X949058Y291602D01*
X951022Y291602D02*
X951022Y277138D01*
X949058Y277138D01*
X949058Y291602D01*
X949058Y279329D02*
X951022Y279329D01*
X951022Y281520D02*
X949058Y281520D01*
X949058Y283711D02*
X951022Y283711D01*
X951022Y285902D02*
X949058Y285902D01*
X949058Y288093D02*
X951022Y288093D01*
X951022Y290284D02*
X949058Y290284D01*
X948522Y216102D02*
X946558Y216102D01*
X948522Y216102D02*
X948522Y201638D01*
X946558Y201638D01*
X946558Y216102D01*
X946558Y203829D02*
X948522Y203829D01*
X948522Y206020D02*
X946558Y206020D01*
X946558Y208211D02*
X948522Y208211D01*
X948522Y210402D02*
X946558Y210402D01*
X946558Y212593D02*
X948522Y212593D01*
X948522Y214784D02*
X946558Y214784D01*
X946022Y291602D02*
X944058Y291602D01*
X946022Y291602D02*
X946022Y277138D01*
X944058Y277138D01*
X944058Y291602D01*
X944058Y279329D02*
X946022Y279329D01*
X946022Y281520D02*
X944058Y281520D01*
X944058Y283711D02*
X946022Y283711D01*
X946022Y285902D02*
X944058Y285902D01*
X944058Y288093D02*
X946022Y288093D01*
X946022Y290284D02*
X944058Y290284D01*
X943522Y216102D02*
X941558Y216102D01*
X943522Y216102D02*
X943522Y201638D01*
X941558Y201638D01*
X941558Y216102D01*
X941558Y203829D02*
X943522Y203829D01*
X943522Y206020D02*
X941558Y206020D01*
X941558Y208211D02*
X943522Y208211D01*
X943522Y210402D02*
X941558Y210402D01*
X941558Y212593D02*
X943522Y212593D01*
X943522Y214784D02*
X941558Y214784D01*
X941022Y291602D02*
X939058Y291602D01*
X941022Y291602D02*
X941022Y277138D01*
X939058Y277138D01*
X939058Y291602D01*
X939058Y279329D02*
X941022Y279329D01*
X941022Y281520D02*
X939058Y281520D01*
X939058Y283711D02*
X941022Y283711D01*
X941022Y285902D02*
X939058Y285902D01*
X939058Y288093D02*
X941022Y288093D01*
X941022Y290284D02*
X939058Y290284D01*
X938522Y216102D02*
X936558Y216102D01*
X938522Y216102D02*
X938522Y201638D01*
X936558Y201638D01*
X936558Y216102D01*
X936558Y203829D02*
X938522Y203829D01*
X938522Y206020D02*
X936558Y206020D01*
X936558Y208211D02*
X938522Y208211D01*
X938522Y210402D02*
X936558Y210402D01*
X936558Y212593D02*
X938522Y212593D01*
X938522Y214784D02*
X936558Y214784D01*
X936022Y291602D02*
X934058Y291602D01*
X936022Y291602D02*
X936022Y277138D01*
X934058Y277138D01*
X934058Y291602D01*
X934058Y279329D02*
X936022Y279329D01*
X936022Y281520D02*
X934058Y281520D01*
X934058Y283711D02*
X936022Y283711D01*
X936022Y285902D02*
X934058Y285902D01*
X934058Y288093D02*
X936022Y288093D01*
X936022Y290284D02*
X934058Y290284D01*
X933522Y216102D02*
X931558Y216102D01*
X933522Y216102D02*
X933522Y201638D01*
X931558Y201638D01*
X931558Y216102D01*
X931558Y203829D02*
X933522Y203829D01*
X933522Y206020D02*
X931558Y206020D01*
X931558Y208211D02*
X933522Y208211D01*
X933522Y210402D02*
X931558Y210402D01*
X931558Y212593D02*
X933522Y212593D01*
X933522Y214784D02*
X931558Y214784D01*
X931022Y291602D02*
X929058Y291602D01*
X931022Y291602D02*
X931022Y277138D01*
X929058Y277138D01*
X929058Y291602D01*
X929058Y279329D02*
X931022Y279329D01*
X931022Y281520D02*
X929058Y281520D01*
X929058Y283711D02*
X931022Y283711D01*
X931022Y285902D02*
X929058Y285902D01*
X929058Y288093D02*
X931022Y288093D01*
X931022Y290284D02*
X929058Y290284D01*
X928522Y216102D02*
X926558Y216102D01*
X928522Y216102D02*
X928522Y201638D01*
X926558Y201638D01*
X926558Y216102D01*
X926558Y203829D02*
X928522Y203829D01*
X928522Y206020D02*
X926558Y206020D01*
X926558Y208211D02*
X928522Y208211D01*
X928522Y210402D02*
X926558Y210402D01*
X926558Y212593D02*
X928522Y212593D01*
X928522Y214784D02*
X926558Y214784D01*
X926022Y291602D02*
X924058Y291602D01*
X926022Y291602D02*
X926022Y277138D01*
X924058Y277138D01*
X924058Y291602D01*
X924058Y279329D02*
X926022Y279329D01*
X926022Y281520D02*
X924058Y281520D01*
X924058Y283711D02*
X926022Y283711D01*
X926022Y285902D02*
X924058Y285902D01*
X924058Y288093D02*
X926022Y288093D01*
X926022Y290284D02*
X924058Y290284D01*
X923522Y216102D02*
X921558Y216102D01*
X923522Y216102D02*
X923522Y201638D01*
X921558Y201638D01*
X921558Y216102D01*
X921558Y203829D02*
X923522Y203829D01*
X923522Y206020D02*
X921558Y206020D01*
X921558Y208211D02*
X923522Y208211D01*
X923522Y210402D02*
X921558Y210402D01*
X921558Y212593D02*
X923522Y212593D01*
X923522Y214784D02*
X921558Y214784D01*
X921022Y291602D02*
X919058Y291602D01*
X921022Y291602D02*
X921022Y277138D01*
X919058Y277138D01*
X919058Y291602D01*
X919058Y279329D02*
X921022Y279329D01*
X921022Y281520D02*
X919058Y281520D01*
X919058Y283711D02*
X921022Y283711D01*
X921022Y285902D02*
X919058Y285902D01*
X919058Y288093D02*
X921022Y288093D01*
X921022Y290284D02*
X919058Y290284D01*
X918522Y216102D02*
X916558Y216102D01*
X918522Y216102D02*
X918522Y201638D01*
X916558Y201638D01*
X916558Y216102D01*
X916558Y203829D02*
X918522Y203829D01*
X918522Y206020D02*
X916558Y206020D01*
X916558Y208211D02*
X918522Y208211D01*
X918522Y210402D02*
X916558Y210402D01*
X916558Y212593D02*
X918522Y212593D01*
X918522Y214784D02*
X916558Y214784D01*
X916022Y291602D02*
X914058Y291602D01*
X916022Y291602D02*
X916022Y277138D01*
X914058Y277138D01*
X914058Y291602D01*
X914058Y279329D02*
X916022Y279329D01*
X916022Y281520D02*
X914058Y281520D01*
X914058Y283711D02*
X916022Y283711D01*
X916022Y285902D02*
X914058Y285902D01*
X914058Y288093D02*
X916022Y288093D01*
X916022Y290284D02*
X914058Y290284D01*
X913522Y216102D02*
X911558Y216102D01*
X913522Y216102D02*
X913522Y201638D01*
X911558Y201638D01*
X911558Y216102D01*
X911558Y203829D02*
X913522Y203829D01*
X913522Y206020D02*
X911558Y206020D01*
X911558Y208211D02*
X913522Y208211D01*
X913522Y210402D02*
X911558Y210402D01*
X911558Y212593D02*
X913522Y212593D01*
X913522Y214784D02*
X911558Y214784D01*
X911022Y291602D02*
X909058Y291602D01*
X911022Y291602D02*
X911022Y277138D01*
X909058Y277138D01*
X909058Y291602D01*
X909058Y279329D02*
X911022Y279329D01*
X911022Y281520D02*
X909058Y281520D01*
X909058Y283711D02*
X911022Y283711D01*
X911022Y285902D02*
X909058Y285902D01*
X909058Y288093D02*
X911022Y288093D01*
X911022Y290284D02*
X909058Y290284D01*
X908522Y216102D02*
X906558Y216102D01*
X908522Y216102D02*
X908522Y201638D01*
X906558Y201638D01*
X906558Y216102D01*
X906558Y203829D02*
X908522Y203829D01*
X908522Y206020D02*
X906558Y206020D01*
X906558Y208211D02*
X908522Y208211D01*
X908522Y210402D02*
X906558Y210402D01*
X906558Y212593D02*
X908522Y212593D01*
X908522Y214784D02*
X906558Y214784D01*
X906022Y291602D02*
X904058Y291602D01*
X906022Y291602D02*
X906022Y277138D01*
X904058Y277138D01*
X904058Y291602D01*
X904058Y279329D02*
X906022Y279329D01*
X906022Y281520D02*
X904058Y281520D01*
X904058Y283711D02*
X906022Y283711D01*
X906022Y285902D02*
X904058Y285902D01*
X904058Y288093D02*
X906022Y288093D01*
X906022Y290284D02*
X904058Y290284D01*
X903522Y216102D02*
X901558Y216102D01*
X903522Y216102D02*
X903522Y201638D01*
X901558Y201638D01*
X901558Y216102D01*
X901558Y203829D02*
X903522Y203829D01*
X903522Y206020D02*
X901558Y206020D01*
X901558Y208211D02*
X903522Y208211D01*
X903522Y210402D02*
X901558Y210402D01*
X901558Y212593D02*
X903522Y212593D01*
X903522Y214784D02*
X901558Y214784D01*
X901022Y291602D02*
X899058Y291602D01*
X901022Y291602D02*
X901022Y277138D01*
X899058Y277138D01*
X899058Y291602D01*
X899058Y279329D02*
X901022Y279329D01*
X901022Y281520D02*
X899058Y281520D01*
X899058Y283711D02*
X901022Y283711D01*
X901022Y285902D02*
X899058Y285902D01*
X899058Y288093D02*
X901022Y288093D01*
X901022Y290284D02*
X899058Y290284D01*
X898522Y216102D02*
X896558Y216102D01*
X898522Y216102D02*
X898522Y201638D01*
X896558Y201638D01*
X896558Y216102D01*
X896558Y203829D02*
X898522Y203829D01*
X898522Y206020D02*
X896558Y206020D01*
X896558Y208211D02*
X898522Y208211D01*
X898522Y210402D02*
X896558Y210402D01*
X896558Y212593D02*
X898522Y212593D01*
X898522Y214784D02*
X896558Y214784D01*
X896022Y291602D02*
X894058Y291602D01*
X896022Y291602D02*
X896022Y277138D01*
X894058Y277138D01*
X894058Y291602D01*
X894058Y279329D02*
X896022Y279329D01*
X896022Y281520D02*
X894058Y281520D01*
X894058Y283711D02*
X896022Y283711D01*
X896022Y285902D02*
X894058Y285902D01*
X894058Y288093D02*
X896022Y288093D01*
X896022Y290284D02*
X894058Y290284D01*
X893522Y216102D02*
X891558Y216102D01*
X893522Y216102D02*
X893522Y201638D01*
X891558Y201638D01*
X891558Y216102D01*
X891558Y203829D02*
X893522Y203829D01*
X893522Y206020D02*
X891558Y206020D01*
X891558Y208211D02*
X893522Y208211D01*
X893522Y210402D02*
X891558Y210402D01*
X891558Y212593D02*
X893522Y212593D01*
X893522Y214784D02*
X891558Y214784D01*
X891022Y291602D02*
X889058Y291602D01*
X891022Y291602D02*
X891022Y277138D01*
X889058Y277138D01*
X889058Y291602D01*
X889058Y279329D02*
X891022Y279329D01*
X891022Y281520D02*
X889058Y281520D01*
X889058Y283711D02*
X891022Y283711D01*
X891022Y285902D02*
X889058Y285902D01*
X889058Y288093D02*
X891022Y288093D01*
X891022Y290284D02*
X889058Y290284D01*
X888522Y216102D02*
X886558Y216102D01*
X888522Y216102D02*
X888522Y201638D01*
X886558Y201638D01*
X886558Y216102D01*
X886558Y203829D02*
X888522Y203829D01*
X888522Y206020D02*
X886558Y206020D01*
X886558Y208211D02*
X888522Y208211D01*
X888522Y210402D02*
X886558Y210402D01*
X886558Y212593D02*
X888522Y212593D01*
X888522Y214784D02*
X886558Y214784D01*
X886022Y291602D02*
X884058Y291602D01*
X886022Y291602D02*
X886022Y277138D01*
X884058Y277138D01*
X884058Y291602D01*
X884058Y279329D02*
X886022Y279329D01*
X886022Y281520D02*
X884058Y281520D01*
X884058Y283711D02*
X886022Y283711D01*
X886022Y285902D02*
X884058Y285902D01*
X884058Y288093D02*
X886022Y288093D01*
X886022Y290284D02*
X884058Y290284D01*
X883522Y216102D02*
X881558Y216102D01*
X883522Y216102D02*
X883522Y201638D01*
X881558Y201638D01*
X881558Y216102D01*
X881558Y203829D02*
X883522Y203829D01*
X883522Y206020D02*
X881558Y206020D01*
X881558Y208211D02*
X883522Y208211D01*
X883522Y210402D02*
X881558Y210402D01*
X881558Y212593D02*
X883522Y212593D01*
X883522Y214784D02*
X881558Y214784D01*
X881022Y291602D02*
X879058Y291602D01*
X881022Y291602D02*
X881022Y277138D01*
X879058Y277138D01*
X879058Y291602D01*
X879058Y279329D02*
X881022Y279329D01*
X881022Y281520D02*
X879058Y281520D01*
X879058Y283711D02*
X881022Y283711D01*
X881022Y285902D02*
X879058Y285902D01*
X879058Y288093D02*
X881022Y288093D01*
X881022Y290284D02*
X879058Y290284D01*
X878522Y216102D02*
X876558Y216102D01*
X878522Y216102D02*
X878522Y201638D01*
X876558Y201638D01*
X876558Y216102D01*
X876558Y203829D02*
X878522Y203829D01*
X878522Y206020D02*
X876558Y206020D01*
X876558Y208211D02*
X878522Y208211D01*
X878522Y210402D02*
X876558Y210402D01*
X876558Y212593D02*
X878522Y212593D01*
X878522Y214784D02*
X876558Y214784D01*
X876022Y291602D02*
X874058Y291602D01*
X876022Y291602D02*
X876022Y277138D01*
X874058Y277138D01*
X874058Y291602D01*
X874058Y279329D02*
X876022Y279329D01*
X876022Y281520D02*
X874058Y281520D01*
X874058Y283711D02*
X876022Y283711D01*
X876022Y285902D02*
X874058Y285902D01*
X874058Y288093D02*
X876022Y288093D01*
X876022Y290284D02*
X874058Y290284D01*
X873522Y216102D02*
X871558Y216102D01*
X873522Y216102D02*
X873522Y201638D01*
X871558Y201638D01*
X871558Y216102D01*
X871558Y203829D02*
X873522Y203829D01*
X873522Y206020D02*
X871558Y206020D01*
X871558Y208211D02*
X873522Y208211D01*
X873522Y210402D02*
X871558Y210402D01*
X871558Y212593D02*
X873522Y212593D01*
X873522Y214784D02*
X871558Y214784D01*
X871022Y291602D02*
X869058Y291602D01*
X871022Y291602D02*
X871022Y277138D01*
X869058Y277138D01*
X869058Y291602D01*
X869058Y279329D02*
X871022Y279329D01*
X871022Y281520D02*
X869058Y281520D01*
X869058Y283711D02*
X871022Y283711D01*
X871022Y285902D02*
X869058Y285902D01*
X869058Y288093D02*
X871022Y288093D01*
X871022Y290284D02*
X869058Y290284D01*
X868522Y216102D02*
X866558Y216102D01*
X868522Y216102D02*
X868522Y201638D01*
X866558Y201638D01*
X866558Y216102D01*
X866558Y203829D02*
X868522Y203829D01*
X868522Y206020D02*
X866558Y206020D01*
X866558Y208211D02*
X868522Y208211D01*
X868522Y210402D02*
X866558Y210402D01*
X866558Y212593D02*
X868522Y212593D01*
X868522Y214784D02*
X866558Y214784D01*
X866022Y291602D02*
X864058Y291602D01*
X866022Y291602D02*
X866022Y277138D01*
X864058Y277138D01*
X864058Y291602D01*
X864058Y279329D02*
X866022Y279329D01*
X866022Y281520D02*
X864058Y281520D01*
X864058Y283711D02*
X866022Y283711D01*
X866022Y285902D02*
X864058Y285902D01*
X864058Y288093D02*
X866022Y288093D01*
X866022Y290284D02*
X864058Y290284D01*
X863522Y216102D02*
X861558Y216102D01*
X863522Y216102D02*
X863522Y201638D01*
X861558Y201638D01*
X861558Y216102D01*
X861558Y203829D02*
X863522Y203829D01*
X863522Y206020D02*
X861558Y206020D01*
X861558Y208211D02*
X863522Y208211D01*
X863522Y210402D02*
X861558Y210402D01*
X861558Y212593D02*
X863522Y212593D01*
X863522Y214784D02*
X861558Y214784D01*
D17*
X1083492Y65308D02*
X1083492Y56292D01*
X1083492Y65308D02*
X1128508Y65308D01*
X1128508Y56292D01*
X1083492Y56292D01*
X1083492Y58433D02*
X1128508Y58433D01*
X1128508Y60574D02*
X1083492Y60574D01*
X1083492Y62715D02*
X1128508Y62715D01*
X1128508Y64856D02*
X1083492Y64856D01*
X1083492Y45308D02*
X1083492Y36292D01*
X1083492Y45308D02*
X1128508Y45308D01*
X1128508Y36292D01*
X1083492Y36292D01*
X1083492Y38433D02*
X1128508Y38433D01*
X1128508Y40574D02*
X1083492Y40574D01*
X1083492Y42715D02*
X1128508Y42715D01*
X1128508Y44856D02*
X1083492Y44856D01*
D18*
X1141487Y77287D02*
X1174513Y77287D01*
X1141487Y77287D02*
X1141487Y92313D01*
X1174513Y92313D01*
X1174513Y77287D01*
X1174513Y79420D02*
X1141487Y79420D01*
X1141487Y81553D02*
X1174513Y81553D01*
X1174513Y83686D02*
X1141487Y83686D01*
X1141487Y85819D02*
X1174513Y85819D01*
X1174513Y87952D02*
X1141487Y87952D01*
X1141487Y90085D02*
X1174513Y90085D01*
X1174513Y92218D02*
X1141487Y92218D01*
X1141487Y9287D02*
X1174513Y9287D01*
X1141487Y9287D02*
X1141487Y24313D01*
X1174513Y24313D01*
X1174513Y9287D01*
X1174513Y11420D02*
X1141487Y11420D01*
X1141487Y13553D02*
X1174513Y13553D01*
X1174513Y15686D02*
X1141487Y15686D01*
X1141487Y17819D02*
X1174513Y17819D01*
X1174513Y19952D02*
X1141487Y19952D01*
X1141487Y22085D02*
X1174513Y22085D01*
X1174513Y24218D02*
X1141487Y24218D01*
D19*
X1111781Y159632D02*
X1111781Y164168D01*
X1122817Y164168D01*
X1122817Y159632D01*
X1111781Y159632D01*
X1111781Y161754D02*
X1122817Y161754D01*
X1122817Y163876D02*
X1111781Y163876D01*
X1111781Y154668D02*
X1111781Y150132D01*
X1111781Y154668D02*
X1122817Y154668D01*
X1122817Y150132D01*
X1111781Y150132D01*
X1111781Y152254D02*
X1122817Y152254D01*
X1122817Y154376D02*
X1111781Y154376D01*
X1111781Y145168D02*
X1111781Y140632D01*
X1111781Y145168D02*
X1122817Y145168D01*
X1122817Y140632D01*
X1111781Y140632D01*
X1111781Y142754D02*
X1122817Y142754D01*
X1122817Y144876D02*
X1111781Y144876D01*
X1137783Y145168D02*
X1137783Y140632D01*
X1137783Y145168D02*
X1148819Y145168D01*
X1148819Y140632D01*
X1137783Y140632D01*
X1137783Y142754D02*
X1148819Y142754D01*
X1148819Y144876D02*
X1137783Y144876D01*
X1137783Y159632D02*
X1137783Y164168D01*
X1148819Y164168D01*
X1148819Y159632D01*
X1137783Y159632D01*
X1137783Y161754D02*
X1148819Y161754D01*
X1148819Y163876D02*
X1137783Y163876D01*
D17*
X1208468Y367492D02*
X1208468Y377508D01*
X1208468Y367492D02*
X1199452Y367492D01*
X1199452Y377508D01*
X1208468Y377508D01*
X1208468Y369633D02*
X1199452Y369633D01*
X1199452Y371774D02*
X1208468Y371774D01*
X1208468Y373915D02*
X1199452Y373915D01*
X1199452Y376056D02*
X1208468Y376056D01*
X1208468Y384492D02*
X1208468Y394508D01*
X1208468Y384492D02*
X1199452Y384492D01*
X1199452Y394508D01*
X1208468Y394508D01*
X1208468Y386633D02*
X1199452Y386633D01*
X1199452Y388774D02*
X1208468Y388774D01*
X1208468Y390915D02*
X1199452Y390915D01*
X1199452Y393056D02*
X1208468Y393056D01*
D20*
X1215706Y386276D02*
X1222694Y386276D01*
X1215706Y386276D02*
X1215706Y393264D01*
X1222694Y393264D01*
X1222694Y386276D01*
X1222694Y390345D02*
X1215706Y390345D01*
X1215706Y368736D02*
X1222694Y368736D01*
X1215706Y368736D02*
X1215706Y375724D01*
X1222694Y375724D01*
X1222694Y368736D01*
X1222694Y372805D02*
X1215706Y372805D01*
D17*
X1175448Y148908D02*
X1175448Y138892D01*
X1166432Y138892D01*
X1166432Y148908D01*
X1175448Y148908D01*
X1175448Y141033D02*
X1166432Y141033D01*
X1166432Y143174D02*
X1175448Y143174D01*
X1175448Y145315D02*
X1166432Y145315D01*
X1166432Y147456D02*
X1175448Y147456D01*
X1175448Y155892D02*
X1175448Y165908D01*
X1175448Y155892D02*
X1166432Y155892D01*
X1166432Y165908D01*
X1175448Y165908D01*
X1175448Y158033D02*
X1166432Y158033D01*
X1166432Y160174D02*
X1175448Y160174D01*
X1175448Y162315D02*
X1166432Y162315D01*
X1166432Y164456D02*
X1175448Y164456D01*
X1126808Y122492D02*
X1116792Y122492D01*
X1116792Y131508D01*
X1126808Y131508D01*
X1126808Y122492D01*
X1126808Y124633D02*
X1116792Y124633D01*
X1116792Y126774D02*
X1126808Y126774D01*
X1126808Y128915D02*
X1116792Y128915D01*
X1116792Y131056D02*
X1126808Y131056D01*
X1133792Y122492D02*
X1143808Y122492D01*
X1133792Y122492D02*
X1133792Y131508D01*
X1143808Y131508D01*
X1143808Y122492D01*
X1143808Y124633D02*
X1133792Y124633D01*
X1133792Y126774D02*
X1143808Y126774D01*
X1143808Y128915D02*
X1133792Y128915D01*
X1133792Y131056D02*
X1143808Y131056D01*
D16*
X1136482Y676918D02*
X1134518Y676918D01*
X1136482Y676918D02*
X1136482Y667954D01*
X1134518Y667954D01*
X1134518Y676918D01*
X1134518Y670145D02*
X1136482Y670145D01*
X1136482Y672336D02*
X1134518Y672336D01*
X1134518Y674527D02*
X1136482Y674527D01*
X1136482Y676718D02*
X1134518Y676718D01*
X1139518Y676918D02*
X1141482Y676918D01*
X1141482Y667954D01*
X1139518Y667954D01*
X1139518Y676918D01*
X1139518Y670145D02*
X1141482Y670145D01*
X1141482Y672336D02*
X1139518Y672336D01*
X1139518Y674527D02*
X1141482Y674527D01*
X1141482Y676718D02*
X1139518Y676718D01*
D10*
X1113258Y676944D02*
X1108242Y676944D01*
X1113258Y676944D02*
X1113258Y667928D01*
X1108242Y667928D01*
X1108242Y676944D01*
X1108242Y670069D02*
X1113258Y670069D01*
X1113258Y672210D02*
X1108242Y672210D01*
X1108242Y674351D02*
X1113258Y674351D01*
X1113258Y676492D02*
X1108242Y676492D01*
X1115992Y676944D02*
X1121008Y676944D01*
X1121008Y667928D01*
X1115992Y667928D01*
X1115992Y676944D01*
X1115992Y670069D02*
X1121008Y670069D01*
X1121008Y672210D02*
X1115992Y672210D01*
X1115992Y674351D02*
X1121008Y674351D01*
X1121008Y676492D02*
X1115992Y676492D01*
D16*
X1124518Y676918D02*
X1126482Y676918D01*
X1126482Y667954D01*
X1124518Y667954D01*
X1124518Y676918D01*
X1124518Y670145D02*
X1126482Y670145D01*
X1126482Y672336D02*
X1124518Y672336D01*
X1124518Y674527D02*
X1126482Y674527D01*
X1126482Y676718D02*
X1124518Y676718D01*
X1129518Y676918D02*
X1131482Y676918D01*
X1131482Y667954D01*
X1129518Y667954D01*
X1129518Y676918D01*
X1129518Y670145D02*
X1131482Y670145D01*
X1131482Y672336D02*
X1129518Y672336D01*
X1129518Y674527D02*
X1131482Y674527D01*
X1131482Y676718D02*
X1129518Y676718D01*
X1149518Y667954D02*
X1151482Y667954D01*
X1149518Y667954D02*
X1149518Y676918D01*
X1151482Y676918D01*
X1151482Y667954D01*
X1151482Y670145D02*
X1149518Y670145D01*
X1149518Y672336D02*
X1151482Y672336D01*
X1151482Y674527D02*
X1149518Y674527D01*
X1149518Y676718D02*
X1151482Y676718D01*
X1146482Y667954D02*
X1144518Y667954D01*
X1144518Y676918D01*
X1146482Y676918D01*
X1146482Y667954D01*
X1146482Y670145D02*
X1144518Y670145D01*
X1144518Y672336D02*
X1146482Y672336D01*
X1146482Y674527D02*
X1144518Y674527D01*
X1144518Y676718D02*
X1146482Y676718D01*
D10*
X1172742Y667928D02*
X1177758Y667928D01*
X1172742Y667928D02*
X1172742Y676944D01*
X1177758Y676944D01*
X1177758Y667928D01*
X1177758Y670069D02*
X1172742Y670069D01*
X1172742Y672210D02*
X1177758Y672210D01*
X1177758Y674351D02*
X1172742Y674351D01*
X1172742Y676492D02*
X1177758Y676492D01*
X1170008Y667928D02*
X1164992Y667928D01*
X1164992Y676944D01*
X1170008Y676944D01*
X1170008Y667928D01*
X1170008Y670069D02*
X1164992Y670069D01*
X1164992Y672210D02*
X1170008Y672210D01*
X1170008Y674351D02*
X1164992Y674351D01*
X1164992Y676492D02*
X1170008Y676492D01*
D16*
X1161482Y667954D02*
X1159518Y667954D01*
X1159518Y676918D01*
X1161482Y676918D01*
X1161482Y667954D01*
X1161482Y670145D02*
X1159518Y670145D01*
X1159518Y672336D02*
X1161482Y672336D01*
X1161482Y674527D02*
X1159518Y674527D01*
X1159518Y676718D02*
X1161482Y676718D01*
X1156482Y667954D02*
X1154518Y667954D01*
X1154518Y676918D01*
X1156482Y676918D01*
X1156482Y667954D01*
X1156482Y670145D02*
X1154518Y670145D01*
X1154518Y672336D02*
X1156482Y672336D01*
X1156482Y674527D02*
X1154518Y674527D01*
X1154518Y676718D02*
X1156482Y676718D01*
D21*
X1171900Y683486D03*
X1114100Y683486D03*
D17*
X1205928Y639128D02*
X1205928Y629112D01*
X1196912Y629112D01*
X1196912Y639128D01*
X1205928Y639128D01*
X1205928Y631253D02*
X1196912Y631253D01*
X1196912Y633394D02*
X1205928Y633394D01*
X1205928Y635535D02*
X1196912Y635535D01*
X1196912Y637676D02*
X1205928Y637676D01*
X1205928Y646112D02*
X1205928Y656128D01*
X1205928Y646112D02*
X1196912Y646112D01*
X1196912Y656128D01*
X1205928Y656128D01*
X1205928Y648253D02*
X1196912Y648253D01*
X1196912Y650394D02*
X1205928Y650394D01*
X1205928Y652535D02*
X1196912Y652535D01*
X1196912Y654676D02*
X1205928Y654676D01*
X1094676Y639636D02*
X1094676Y629620D01*
X1085660Y629620D01*
X1085660Y639636D01*
X1094676Y639636D01*
X1094676Y631761D02*
X1085660Y631761D01*
X1085660Y633902D02*
X1094676Y633902D01*
X1094676Y636043D02*
X1085660Y636043D01*
X1085660Y638184D02*
X1094676Y638184D01*
X1094676Y646620D02*
X1094676Y656636D01*
X1094676Y646620D02*
X1085660Y646620D01*
X1085660Y656636D01*
X1094676Y656636D01*
X1094676Y648761D02*
X1085660Y648761D01*
X1085660Y650902D02*
X1094676Y650902D01*
X1094676Y653043D02*
X1085660Y653043D01*
X1085660Y655184D02*
X1094676Y655184D01*
D22*
X1219838Y114242D03*
X1219838Y126942D03*
X1219838Y139642D03*
X1219838Y152342D03*
X1219838Y101542D03*
X1207138Y114242D03*
X1207138Y126942D03*
X1207138Y139642D03*
X1207138Y152342D03*
X1207138Y101542D03*
X30480Y83820D03*
X1217930Y659130D03*
D23*
X1180624Y263684D02*
X1180624Y257016D01*
X1166336Y257016D01*
X1166336Y263684D01*
X1180624Y263684D01*
X1180624Y259128D02*
X1166336Y259128D01*
X1166336Y261240D02*
X1180624Y261240D01*
X1180624Y263352D02*
X1166336Y263352D01*
X1236504Y263684D02*
X1236504Y257016D01*
X1222216Y257016D01*
X1222216Y263684D01*
X1236504Y263684D01*
X1236504Y259128D02*
X1222216Y259128D01*
X1222216Y261240D02*
X1236504Y261240D01*
X1236504Y263352D02*
X1222216Y263352D01*
X1180624Y225584D02*
X1180624Y218916D01*
X1166336Y218916D01*
X1166336Y225584D01*
X1180624Y225584D01*
X1180624Y221028D02*
X1166336Y221028D01*
X1166336Y223140D02*
X1180624Y223140D01*
X1180624Y225252D02*
X1166336Y225252D01*
X1236504Y225584D02*
X1236504Y218916D01*
X1222216Y218916D01*
X1222216Y225584D01*
X1236504Y225584D01*
X1236504Y221028D02*
X1222216Y221028D01*
X1222216Y223140D02*
X1236504Y223140D01*
X1236504Y225252D02*
X1222216Y225252D01*
X1180624Y320516D02*
X1180624Y327184D01*
X1180624Y320516D02*
X1166336Y320516D01*
X1166336Y327184D01*
X1180624Y327184D01*
X1180624Y322628D02*
X1166336Y322628D01*
X1166336Y324740D02*
X1180624Y324740D01*
X1180624Y326852D02*
X1166336Y326852D01*
X1236504Y327184D02*
X1236504Y320516D01*
X1222216Y320516D01*
X1222216Y327184D01*
X1236504Y327184D01*
X1236504Y322628D02*
X1222216Y322628D01*
X1222216Y324740D02*
X1236504Y324740D01*
X1236504Y326852D02*
X1222216Y326852D01*
X1180624Y289084D02*
X1180624Y282416D01*
X1166336Y282416D01*
X1166336Y289084D01*
X1180624Y289084D01*
X1180624Y284528D02*
X1166336Y284528D01*
X1166336Y286640D02*
X1180624Y286640D01*
X1180624Y288752D02*
X1166336Y288752D01*
X1236504Y289084D02*
X1236504Y282416D01*
X1222216Y282416D01*
X1222216Y289084D01*
X1236504Y289084D01*
X1236504Y284528D02*
X1222216Y284528D01*
X1222216Y286640D02*
X1236504Y286640D01*
X1236504Y288752D02*
X1222216Y288752D01*
D15*
X1219200Y203200D03*
D16*
X1120516Y422684D02*
X1118552Y422684D01*
X1118552Y428148D01*
X1120516Y428148D01*
X1120516Y422684D01*
X1120516Y424875D02*
X1118552Y424875D01*
X1118552Y427066D02*
X1120516Y427066D01*
X1125052Y422684D02*
X1127016Y422684D01*
X1125052Y422684D02*
X1125052Y428148D01*
X1127016Y428148D01*
X1127016Y422684D01*
X1127016Y424875D02*
X1125052Y424875D01*
X1125052Y427066D02*
X1127016Y427066D01*
X1131552Y422684D02*
X1133516Y422684D01*
X1131552Y422684D02*
X1131552Y428148D01*
X1133516Y428148D01*
X1133516Y422684D01*
X1133516Y424875D02*
X1131552Y424875D01*
X1131552Y427066D02*
X1133516Y427066D01*
X1138052Y422684D02*
X1140016Y422684D01*
X1138052Y422684D02*
X1138052Y428148D01*
X1140016Y428148D01*
X1140016Y422684D01*
X1140016Y424875D02*
X1138052Y424875D01*
X1138052Y427066D02*
X1140016Y427066D01*
X1140016Y455648D02*
X1138052Y455648D01*
X1140016Y455648D02*
X1140016Y450184D01*
X1138052Y450184D01*
X1138052Y455648D01*
X1138052Y452375D02*
X1140016Y452375D01*
X1140016Y454566D02*
X1138052Y454566D01*
X1133516Y455648D02*
X1131552Y455648D01*
X1133516Y455648D02*
X1133516Y450184D01*
X1131552Y450184D01*
X1131552Y455648D01*
X1131552Y452375D02*
X1133516Y452375D01*
X1133516Y454566D02*
X1131552Y454566D01*
X1127016Y455648D02*
X1125052Y455648D01*
X1127016Y455648D02*
X1127016Y450184D01*
X1125052Y450184D01*
X1125052Y455648D01*
X1125052Y452375D02*
X1127016Y452375D01*
X1127016Y454566D02*
X1125052Y454566D01*
X1120516Y455648D02*
X1118552Y455648D01*
X1120516Y455648D02*
X1120516Y450184D01*
X1118552Y450184D01*
X1118552Y455648D01*
X1118552Y452375D02*
X1120516Y452375D01*
X1120516Y454566D02*
X1118552Y454566D01*
D18*
X1118021Y431653D02*
X1140547Y431653D01*
X1118021Y431653D02*
X1118021Y446679D01*
X1140547Y446679D01*
X1140547Y431653D01*
X1140547Y433786D02*
X1118021Y433786D01*
X1118021Y435919D02*
X1140547Y435919D01*
X1140547Y438052D02*
X1118021Y438052D01*
X1118021Y440185D02*
X1140547Y440185D01*
X1140547Y442318D02*
X1118021Y442318D01*
X1118021Y444451D02*
X1140547Y444451D01*
X1140547Y446584D02*
X1118021Y446584D01*
D17*
X1116792Y462852D02*
X1126808Y462852D01*
X1116792Y462852D02*
X1116792Y471868D01*
X1126808Y471868D01*
X1126808Y462852D01*
X1126808Y464993D02*
X1116792Y464993D01*
X1116792Y467134D02*
X1126808Y467134D01*
X1126808Y469275D02*
X1116792Y469275D01*
X1116792Y471416D02*
X1126808Y471416D01*
X1133792Y462852D02*
X1143808Y462852D01*
X1133792Y462852D02*
X1133792Y471868D01*
X1143808Y471868D01*
X1143808Y462852D01*
X1143808Y464993D02*
X1133792Y464993D01*
X1133792Y467134D02*
X1143808Y467134D01*
X1143808Y469275D02*
X1133792Y469275D01*
X1133792Y471416D02*
X1143808Y471416D01*
X1159972Y637872D02*
X1159972Y646888D01*
X1186988Y646888D01*
X1186988Y637872D01*
X1159972Y637872D01*
X1159972Y640013D02*
X1186988Y640013D01*
X1186988Y642154D02*
X1159972Y642154D01*
X1159972Y644295D02*
X1186988Y644295D01*
X1186988Y646436D02*
X1159972Y646436D01*
X1159972Y616888D02*
X1159972Y607872D01*
X1159972Y616888D02*
X1186988Y616888D01*
X1186988Y607872D01*
X1159972Y607872D01*
X1159972Y610013D02*
X1186988Y610013D01*
X1186988Y612154D02*
X1159972Y612154D01*
X1159972Y614295D02*
X1186988Y614295D01*
X1186988Y616436D02*
X1159972Y616436D01*
D24*
X1136523Y367284D02*
X1131189Y367284D01*
X1131189Y378968D01*
X1136523Y378968D01*
X1136523Y367284D01*
X1136523Y369456D02*
X1131189Y369456D01*
X1131189Y371628D02*
X1136523Y371628D01*
X1136523Y373800D02*
X1131189Y373800D01*
X1131189Y375972D02*
X1136523Y375972D01*
X1136523Y378144D02*
X1131189Y378144D01*
X1141349Y367284D02*
X1146683Y367284D01*
X1141349Y367284D02*
X1141349Y378968D01*
X1146683Y378968D01*
X1146683Y367284D01*
X1146683Y369456D02*
X1141349Y369456D01*
X1141349Y371628D02*
X1146683Y371628D01*
X1146683Y373800D02*
X1141349Y373800D01*
X1141349Y375972D02*
X1146683Y375972D01*
X1146683Y378144D02*
X1141349Y378144D01*
D25*
X1126236Y373126D03*
X1151636Y373126D03*
D17*
X1165288Y425912D02*
X1165288Y435928D01*
X1165288Y425912D02*
X1156272Y425912D01*
X1156272Y435928D01*
X1165288Y435928D01*
X1165288Y428053D02*
X1156272Y428053D01*
X1156272Y430194D02*
X1165288Y430194D01*
X1165288Y432335D02*
X1156272Y432335D01*
X1156272Y434476D02*
X1165288Y434476D01*
X1165288Y442912D02*
X1165288Y452928D01*
X1165288Y442912D02*
X1156272Y442912D01*
X1156272Y452928D01*
X1165288Y452928D01*
X1165288Y445053D02*
X1156272Y445053D01*
X1156272Y447194D02*
X1165288Y447194D01*
X1165288Y449335D02*
X1156272Y449335D01*
X1156272Y451476D02*
X1165288Y451476D01*
D26*
X1180686Y430824D02*
X1180686Y425524D01*
X1173386Y425524D01*
X1173386Y430824D01*
X1180686Y430824D01*
X1180686Y427681D02*
X1173386Y427681D01*
X1173386Y429838D02*
X1180686Y429838D01*
X1180686Y448524D02*
X1180686Y453824D01*
X1180686Y448524D02*
X1173386Y448524D01*
X1173386Y453824D01*
X1180686Y453824D01*
X1180686Y450681D02*
X1173386Y450681D01*
X1173386Y452838D02*
X1180686Y452838D01*
D17*
X1131888Y404432D02*
X1121872Y404432D01*
X1121872Y413448D01*
X1131888Y413448D01*
X1131888Y404432D01*
X1131888Y406573D02*
X1121872Y406573D01*
X1121872Y408714D02*
X1131888Y408714D01*
X1131888Y410855D02*
X1121872Y410855D01*
X1121872Y412996D02*
X1131888Y412996D01*
X1138872Y404432D02*
X1148888Y404432D01*
X1138872Y404432D02*
X1138872Y413448D01*
X1148888Y413448D01*
X1148888Y404432D01*
X1148888Y406573D02*
X1138872Y406573D01*
X1138872Y408714D02*
X1148888Y408714D01*
X1148888Y410855D02*
X1138872Y410855D01*
X1138872Y412996D02*
X1148888Y412996D01*
X1131888Y389192D02*
X1121872Y389192D01*
X1121872Y398208D01*
X1131888Y398208D01*
X1131888Y389192D01*
X1131888Y391333D02*
X1121872Y391333D01*
X1121872Y393474D02*
X1131888Y393474D01*
X1131888Y395615D02*
X1121872Y395615D01*
X1121872Y397756D02*
X1131888Y397756D01*
X1138872Y389192D02*
X1148888Y389192D01*
X1138872Y389192D02*
X1138872Y398208D01*
X1148888Y398208D01*
X1148888Y389192D01*
X1148888Y391333D02*
X1138872Y391333D01*
X1138872Y393474D02*
X1148888Y393474D01*
X1148888Y395615D02*
X1138872Y395615D01*
X1138872Y397756D02*
X1148888Y397756D01*
X1208468Y405592D02*
X1208468Y415608D01*
X1208468Y405592D02*
X1199452Y405592D01*
X1199452Y415608D01*
X1208468Y415608D01*
X1208468Y407733D02*
X1199452Y407733D01*
X1199452Y409874D02*
X1208468Y409874D01*
X1208468Y412015D02*
X1199452Y412015D01*
X1199452Y414156D02*
X1208468Y414156D01*
X1208468Y422592D02*
X1208468Y432608D01*
X1208468Y422592D02*
X1199452Y422592D01*
X1199452Y432608D01*
X1208468Y432608D01*
X1208468Y424733D02*
X1199452Y424733D01*
X1199452Y426874D02*
X1208468Y426874D01*
X1208468Y429015D02*
X1199452Y429015D01*
X1199452Y431156D02*
X1208468Y431156D01*
D20*
X1215706Y424376D02*
X1222694Y424376D01*
X1215706Y424376D02*
X1215706Y431364D01*
X1222694Y431364D01*
X1222694Y424376D01*
X1222694Y428445D02*
X1215706Y428445D01*
X1215706Y406836D02*
X1222694Y406836D01*
X1215706Y406836D02*
X1215706Y413824D01*
X1222694Y413824D01*
X1222694Y406836D01*
X1222694Y410905D02*
X1215706Y410905D01*
D27*
X1124776Y479664D02*
X1117824Y479664D01*
X1117824Y490616D01*
X1124776Y490616D01*
X1124776Y479664D01*
X1124776Y481866D02*
X1117824Y481866D01*
X1117824Y484068D02*
X1124776Y484068D01*
X1124776Y486270D02*
X1117824Y486270D01*
X1117824Y488472D02*
X1124776Y488472D01*
X1135824Y479664D02*
X1142776Y479664D01*
X1135824Y479664D02*
X1135824Y490616D01*
X1142776Y490616D01*
X1142776Y479664D01*
X1142776Y481866D02*
X1135824Y481866D01*
X1135824Y484068D02*
X1142776Y484068D01*
X1142776Y486270D02*
X1135824Y486270D01*
X1135824Y488472D02*
X1142776Y488472D01*
D17*
X1143808Y212788D02*
X1133792Y212788D01*
X1143808Y212788D02*
X1143808Y203772D01*
X1133792Y203772D01*
X1133792Y212788D01*
X1133792Y205913D02*
X1143808Y205913D01*
X1143808Y208054D02*
X1133792Y208054D01*
X1133792Y210195D02*
X1143808Y210195D01*
X1143808Y212336D02*
X1133792Y212336D01*
X1126808Y212788D02*
X1116792Y212788D01*
X1126808Y212788D02*
X1126808Y203772D01*
X1116792Y203772D01*
X1116792Y212788D01*
X1116792Y205913D02*
X1126808Y205913D01*
X1126808Y208054D02*
X1116792Y208054D01*
X1116792Y210195D02*
X1126808Y210195D01*
X1126808Y212336D02*
X1116792Y212336D01*
X1116792Y188532D02*
X1126808Y188532D01*
X1116792Y188532D02*
X1116792Y197548D01*
X1126808Y197548D01*
X1126808Y188532D01*
X1126808Y190673D02*
X1116792Y190673D01*
X1116792Y192814D02*
X1126808Y192814D01*
X1126808Y194955D02*
X1116792Y194955D01*
X1116792Y197096D02*
X1126808Y197096D01*
X1133792Y188532D02*
X1143808Y188532D01*
X1133792Y188532D02*
X1133792Y197548D01*
X1143808Y197548D01*
X1143808Y188532D01*
X1143808Y190673D02*
X1133792Y190673D01*
X1133792Y192814D02*
X1143808Y192814D01*
X1143808Y194955D02*
X1133792Y194955D01*
X1133792Y197096D02*
X1143808Y197096D01*
D28*
X1154948Y587132D02*
X1154948Y598868D01*
X1154948Y587132D02*
X1141212Y587132D01*
X1141212Y598868D01*
X1154948Y598868D01*
X1154948Y589255D02*
X1141212Y589255D01*
X1141212Y591378D02*
X1154948Y591378D01*
X1154948Y593501D02*
X1141212Y593501D01*
X1141212Y595624D02*
X1154948Y595624D01*
X1154948Y597747D02*
X1141212Y597747D01*
X1141212Y555868D02*
X1141212Y544132D01*
X1141212Y555868D02*
X1154948Y555868D01*
X1154948Y544132D01*
X1141212Y544132D01*
X1141212Y546255D02*
X1154948Y546255D01*
X1154948Y548378D02*
X1141212Y548378D01*
X1141212Y550501D02*
X1154948Y550501D01*
X1154948Y552624D02*
X1141212Y552624D01*
X1141212Y554747D02*
X1154948Y554747D01*
D29*
X987123Y570783D02*
X987123Y585737D01*
X993077Y585737D01*
X993077Y570783D01*
X987123Y570783D01*
X987123Y572983D02*
X993077Y572983D01*
X993077Y575183D02*
X987123Y575183D01*
X987123Y577383D02*
X993077Y577383D01*
X993077Y579583D02*
X987123Y579583D01*
X987123Y581783D02*
X993077Y581783D01*
X993077Y583983D02*
X987123Y583983D01*
X976123Y585737D02*
X976123Y570783D01*
X976123Y585737D02*
X982077Y585737D01*
X982077Y570783D01*
X976123Y570783D01*
X976123Y572983D02*
X982077Y572983D01*
X982077Y575183D02*
X976123Y575183D01*
X976123Y577383D02*
X982077Y577383D01*
X982077Y579583D02*
X976123Y579583D01*
X976123Y581783D02*
X982077Y581783D01*
X982077Y583983D02*
X976123Y583983D01*
X965123Y585737D02*
X965123Y570783D01*
X965123Y585737D02*
X971077Y585737D01*
X971077Y570783D01*
X965123Y570783D01*
X965123Y572983D02*
X971077Y572983D01*
X971077Y575183D02*
X965123Y575183D01*
X965123Y577383D02*
X971077Y577383D01*
X971077Y579583D02*
X965123Y579583D01*
X965123Y581783D02*
X971077Y581783D01*
X971077Y583983D02*
X965123Y583983D01*
X998123Y585737D02*
X998123Y570783D01*
X998123Y585737D02*
X1004077Y585737D01*
X1004077Y570783D01*
X998123Y570783D01*
X998123Y572983D02*
X1004077Y572983D01*
X1004077Y575183D02*
X998123Y575183D01*
X998123Y577383D02*
X1004077Y577383D01*
X1004077Y579583D02*
X998123Y579583D01*
X998123Y581783D02*
X1004077Y581783D01*
X1004077Y583983D02*
X998123Y583983D01*
X1009123Y585737D02*
X1009123Y570783D01*
X1009123Y585737D02*
X1015077Y585737D01*
X1015077Y570783D01*
X1009123Y570783D01*
X1009123Y572983D02*
X1015077Y572983D01*
X1015077Y575183D02*
X1009123Y575183D01*
X1009123Y577383D02*
X1015077Y577383D01*
X1015077Y579583D02*
X1009123Y579583D01*
X1009123Y581783D02*
X1015077Y581783D01*
X1015077Y583983D02*
X1009123Y583983D01*
X1020123Y585737D02*
X1020123Y570783D01*
X1020123Y585737D02*
X1026077Y585737D01*
X1026077Y570783D01*
X1020123Y570783D01*
X1020123Y572983D02*
X1026077Y572983D01*
X1026077Y575183D02*
X1020123Y575183D01*
X1020123Y577383D02*
X1026077Y577383D01*
X1026077Y579583D02*
X1020123Y579583D01*
X1020123Y581783D02*
X1026077Y581783D01*
X1026077Y583983D02*
X1020123Y583983D01*
X1031123Y585737D02*
X1031123Y570783D01*
X1031123Y585737D02*
X1037077Y585737D01*
X1037077Y570783D01*
X1031123Y570783D01*
X1031123Y572983D02*
X1037077Y572983D01*
X1037077Y575183D02*
X1031123Y575183D01*
X1031123Y577383D02*
X1037077Y577383D01*
X1037077Y579583D02*
X1031123Y579583D01*
X1031123Y581783D02*
X1037077Y581783D01*
X1037077Y583983D02*
X1031123Y583983D01*
X1042123Y585737D02*
X1042123Y570783D01*
X1042123Y585737D02*
X1048077Y585737D01*
X1048077Y570783D01*
X1042123Y570783D01*
X1042123Y572983D02*
X1048077Y572983D01*
X1048077Y575183D02*
X1042123Y575183D01*
X1042123Y577383D02*
X1048077Y577383D01*
X1048077Y579583D02*
X1042123Y579583D01*
X1042123Y581783D02*
X1048077Y581783D01*
X1048077Y583983D02*
X1042123Y583983D01*
X1053123Y585737D02*
X1053123Y570783D01*
X1053123Y585737D02*
X1059077Y585737D01*
X1059077Y570783D01*
X1053123Y570783D01*
X1053123Y572983D02*
X1059077Y572983D01*
X1059077Y575183D02*
X1053123Y575183D01*
X1053123Y577383D02*
X1059077Y577383D01*
X1059077Y579583D02*
X1053123Y579583D01*
X1053123Y581783D02*
X1059077Y581783D01*
X1059077Y583983D02*
X1053123Y583983D01*
D22*
X960100Y683260D03*
X1040100Y683260D03*
D11*
X918607Y689767D02*
X907593Y689767D01*
X918607Y689767D02*
X918607Y668753D01*
X907593Y668753D01*
X907593Y689767D01*
X907593Y670896D02*
X918607Y670896D01*
X918607Y673039D02*
X907593Y673039D01*
X907593Y675182D02*
X918607Y675182D01*
X918607Y677325D02*
X907593Y677325D01*
X907593Y679468D02*
X918607Y679468D01*
X918607Y681611D02*
X907593Y681611D01*
X907593Y683754D02*
X918607Y683754D01*
X918607Y685897D02*
X907593Y685897D01*
X907593Y688040D02*
X918607Y688040D01*
X1062593Y689767D02*
X1073607Y689767D01*
X1073607Y668753D01*
X1062593Y668753D01*
X1062593Y689767D01*
X1062593Y670896D02*
X1073607Y670896D01*
X1073607Y673039D02*
X1062593Y673039D01*
X1062593Y675182D02*
X1073607Y675182D01*
X1073607Y677325D02*
X1062593Y677325D01*
X1062593Y679468D02*
X1073607Y679468D01*
X1073607Y681611D02*
X1062593Y681611D01*
X1062593Y683754D02*
X1073607Y683754D01*
X1073607Y685897D02*
X1062593Y685897D01*
X1062593Y688040D02*
X1073607Y688040D01*
D30*
X929590Y589750D02*
X914610Y589750D01*
X929590Y589750D02*
X929590Y576770D01*
X914610Y576770D01*
X914610Y589750D01*
X914610Y578946D02*
X929590Y578946D01*
X929590Y581122D02*
X914610Y581122D01*
X914610Y583298D02*
X929590Y583298D01*
X929590Y585474D02*
X914610Y585474D01*
X914610Y587650D02*
X929590Y587650D01*
D11*
X1062593Y591767D02*
X1073607Y591767D01*
X1073607Y576753D01*
X1062593Y576753D01*
X1062593Y591767D01*
X1062593Y578896D02*
X1073607Y578896D01*
X1073607Y581039D02*
X1062593Y581039D01*
X1062593Y583182D02*
X1073607Y583182D01*
X1073607Y585325D02*
X1062593Y585325D01*
X1062593Y587468D02*
X1073607Y587468D01*
X1073607Y589611D02*
X1062593Y589611D01*
X1062593Y591754D02*
X1073607Y591754D01*
D17*
X998792Y560624D02*
X998792Y550608D01*
X998792Y560624D02*
X1007808Y560624D01*
X1007808Y550608D01*
X998792Y550608D01*
X998792Y552749D02*
X1007808Y552749D01*
X1007808Y554890D02*
X998792Y554890D01*
X998792Y557031D02*
X1007808Y557031D01*
X1007808Y559172D02*
X998792Y559172D01*
X998792Y543624D02*
X998792Y533608D01*
X998792Y543624D02*
X1007808Y543624D01*
X1007808Y533608D01*
X998792Y533608D01*
X998792Y535749D02*
X1007808Y535749D01*
X1007808Y537890D02*
X998792Y537890D01*
X998792Y540031D02*
X1007808Y540031D01*
X1007808Y542172D02*
X998792Y542172D01*
X1208468Y453708D02*
X1208468Y443692D01*
X1199452Y443692D01*
X1199452Y453708D01*
X1208468Y453708D01*
X1208468Y445833D02*
X1199452Y445833D01*
X1199452Y447974D02*
X1208468Y447974D01*
X1208468Y450115D02*
X1199452Y450115D01*
X1199452Y452256D02*
X1208468Y452256D01*
X1208468Y460692D02*
X1208468Y470708D01*
X1208468Y460692D02*
X1199452Y460692D01*
X1199452Y470708D01*
X1208468Y470708D01*
X1208468Y462833D02*
X1199452Y462833D01*
X1199452Y464974D02*
X1208468Y464974D01*
X1208468Y467115D02*
X1199452Y467115D01*
X1199452Y469256D02*
X1208468Y469256D01*
D20*
X1215706Y462476D02*
X1222694Y462476D01*
X1215706Y462476D02*
X1215706Y469464D01*
X1222694Y469464D01*
X1222694Y462476D01*
X1222694Y466545D02*
X1215706Y466545D01*
X1215706Y444936D02*
X1222694Y444936D01*
X1215706Y444936D02*
X1215706Y451924D01*
X1222694Y451924D01*
X1222694Y444936D01*
X1222694Y449005D02*
X1215706Y449005D01*
D12*
X430368Y526542D03*
X812924Y526796D03*
D13*
X1219200Y508000D03*
D17*
X1126808Y173292D02*
X1116792Y173292D01*
X1116792Y182308D01*
X1126808Y182308D01*
X1126808Y173292D01*
X1126808Y175433D02*
X1116792Y175433D01*
X1116792Y177574D02*
X1126808Y177574D01*
X1126808Y179715D02*
X1116792Y179715D01*
X1116792Y181856D02*
X1126808Y181856D01*
X1133792Y173292D02*
X1143808Y173292D01*
X1133792Y173292D02*
X1133792Y182308D01*
X1143808Y182308D01*
X1143808Y173292D01*
X1143808Y175433D02*
X1133792Y175433D01*
X1133792Y177574D02*
X1143808Y177574D01*
X1143808Y179715D02*
X1133792Y179715D01*
X1133792Y181856D02*
X1143808Y181856D01*
D27*
X1169664Y567364D02*
X1169664Y574316D01*
X1177616Y574316D01*
X1177616Y567364D01*
X1169664Y567364D01*
X1169664Y569566D02*
X1177616Y569566D01*
X1177616Y571768D02*
X1169664Y571768D01*
X1169664Y573970D02*
X1177616Y573970D01*
X1169664Y555316D02*
X1169664Y548364D01*
X1169664Y555316D02*
X1177616Y555316D01*
X1177616Y548364D01*
X1169664Y548364D01*
X1169664Y550566D02*
X1177616Y550566D01*
X1177616Y552768D02*
X1169664Y552768D01*
X1169664Y554970D02*
X1177616Y554970D01*
X1190664Y557864D02*
X1190664Y564816D01*
X1198616Y564816D01*
X1198616Y557864D01*
X1190664Y557864D01*
X1190664Y560066D02*
X1198616Y560066D01*
X1198616Y562268D02*
X1190664Y562268D01*
X1190664Y564470D02*
X1198616Y564470D01*
D17*
X1196912Y613092D02*
X1196912Y623108D01*
X1205928Y623108D01*
X1205928Y613092D01*
X1196912Y613092D01*
X1196912Y615233D02*
X1205928Y615233D01*
X1205928Y617374D02*
X1196912Y617374D01*
X1196912Y619515D02*
X1205928Y619515D01*
X1205928Y621656D02*
X1196912Y621656D01*
X1196912Y606108D02*
X1196912Y596092D01*
X1196912Y606108D02*
X1205928Y606108D01*
X1205928Y596092D01*
X1196912Y596092D01*
X1196912Y598233D02*
X1205928Y598233D01*
X1205928Y600374D02*
X1196912Y600374D01*
X1196912Y602515D02*
X1205928Y602515D01*
X1205928Y604656D02*
X1196912Y604656D01*
D31*
X423198Y70648D03*
X423198Y66648D03*
X423198Y62648D03*
D32*
X424298Y57548D03*
X428298Y57548D03*
X432298Y57548D03*
D31*
X433698Y62648D03*
X433698Y66648D03*
X433698Y70648D03*
D32*
X432298Y76048D03*
X428298Y76048D03*
X424298Y76048D03*
D14*
X722300Y104140D03*
D15*
X522300Y104140D03*
D16*
X713818Y58622D02*
X715782Y58622D01*
X715782Y44158D01*
X713818Y44158D01*
X713818Y58622D01*
X713818Y46349D02*
X715782Y46349D01*
X715782Y48540D02*
X713818Y48540D01*
X713818Y50731D02*
X715782Y50731D01*
X715782Y52922D02*
X713818Y52922D01*
X713818Y55113D02*
X715782Y55113D01*
X715782Y57304D02*
X713818Y57304D01*
D11*
X720293Y72397D02*
X731307Y72397D01*
X731307Y45883D01*
X720293Y45883D01*
X720293Y72397D01*
X720293Y48026D02*
X731307Y48026D01*
X731307Y50169D02*
X720293Y50169D01*
X720293Y52312D02*
X731307Y52312D01*
X731307Y54455D02*
X720293Y54455D01*
X720293Y56598D02*
X731307Y56598D01*
X731307Y58741D02*
X720293Y58741D01*
X720293Y60884D02*
X731307Y60884D01*
X731307Y63027D02*
X720293Y63027D01*
X720293Y65170D02*
X731307Y65170D01*
X731307Y67313D02*
X720293Y67313D01*
X720293Y69456D02*
X731307Y69456D01*
X731307Y71599D02*
X720293Y71599D01*
X524307Y72397D02*
X513293Y72397D01*
X524307Y72397D02*
X524307Y45883D01*
X513293Y45883D01*
X513293Y72397D01*
X513293Y48026D02*
X524307Y48026D01*
X524307Y50169D02*
X513293Y50169D01*
X513293Y52312D02*
X524307Y52312D01*
X524307Y54455D02*
X513293Y54455D01*
X513293Y56598D02*
X524307Y56598D01*
X524307Y58741D02*
X513293Y58741D01*
X513293Y60884D02*
X524307Y60884D01*
X524307Y63027D02*
X513293Y63027D01*
X513293Y65170D02*
X524307Y65170D01*
X524307Y67313D02*
X513293Y67313D01*
X513293Y69456D02*
X524307Y69456D01*
X524307Y71599D02*
X513293Y71599D01*
D16*
X711318Y134122D02*
X713282Y134122D01*
X713282Y119658D01*
X711318Y119658D01*
X711318Y134122D01*
X711318Y121849D02*
X713282Y121849D01*
X713282Y124040D02*
X711318Y124040D01*
X711318Y126231D02*
X713282Y126231D01*
X713282Y128422D02*
X711318Y128422D01*
X711318Y130613D02*
X713282Y130613D01*
X713282Y132804D02*
X711318Y132804D01*
X710782Y58622D02*
X708818Y58622D01*
X710782Y58622D02*
X710782Y44158D01*
X708818Y44158D01*
X708818Y58622D01*
X708818Y46349D02*
X710782Y46349D01*
X710782Y48540D02*
X708818Y48540D01*
X708818Y50731D02*
X710782Y50731D01*
X710782Y52922D02*
X708818Y52922D01*
X708818Y55113D02*
X710782Y55113D01*
X710782Y57304D02*
X708818Y57304D01*
X708282Y134122D02*
X706318Y134122D01*
X708282Y134122D02*
X708282Y119658D01*
X706318Y119658D01*
X706318Y134122D01*
X706318Y121849D02*
X708282Y121849D01*
X708282Y124040D02*
X706318Y124040D01*
X706318Y126231D02*
X708282Y126231D01*
X708282Y128422D02*
X706318Y128422D01*
X706318Y130613D02*
X708282Y130613D01*
X708282Y132804D02*
X706318Y132804D01*
X705782Y58622D02*
X703818Y58622D01*
X705782Y58622D02*
X705782Y44158D01*
X703818Y44158D01*
X703818Y58622D01*
X703818Y46349D02*
X705782Y46349D01*
X705782Y48540D02*
X703818Y48540D01*
X703818Y50731D02*
X705782Y50731D01*
X705782Y52922D02*
X703818Y52922D01*
X703818Y55113D02*
X705782Y55113D01*
X705782Y57304D02*
X703818Y57304D01*
X703282Y134122D02*
X701318Y134122D01*
X703282Y134122D02*
X703282Y119658D01*
X701318Y119658D01*
X701318Y134122D01*
X701318Y121849D02*
X703282Y121849D01*
X703282Y124040D02*
X701318Y124040D01*
X701318Y126231D02*
X703282Y126231D01*
X703282Y128422D02*
X701318Y128422D01*
X701318Y130613D02*
X703282Y130613D01*
X703282Y132804D02*
X701318Y132804D01*
X700782Y58622D02*
X698818Y58622D01*
X700782Y58622D02*
X700782Y44158D01*
X698818Y44158D01*
X698818Y58622D01*
X698818Y46349D02*
X700782Y46349D01*
X700782Y48540D02*
X698818Y48540D01*
X698818Y50731D02*
X700782Y50731D01*
X700782Y52922D02*
X698818Y52922D01*
X698818Y55113D02*
X700782Y55113D01*
X700782Y57304D02*
X698818Y57304D01*
X698282Y134122D02*
X696318Y134122D01*
X698282Y134122D02*
X698282Y119658D01*
X696318Y119658D01*
X696318Y134122D01*
X696318Y121849D02*
X698282Y121849D01*
X698282Y124040D02*
X696318Y124040D01*
X696318Y126231D02*
X698282Y126231D01*
X698282Y128422D02*
X696318Y128422D01*
X696318Y130613D02*
X698282Y130613D01*
X698282Y132804D02*
X696318Y132804D01*
X695782Y58622D02*
X693818Y58622D01*
X695782Y58622D02*
X695782Y44158D01*
X693818Y44158D01*
X693818Y58622D01*
X693818Y46349D02*
X695782Y46349D01*
X695782Y48540D02*
X693818Y48540D01*
X693818Y50731D02*
X695782Y50731D01*
X695782Y52922D02*
X693818Y52922D01*
X693818Y55113D02*
X695782Y55113D01*
X695782Y57304D02*
X693818Y57304D01*
X693282Y134122D02*
X691318Y134122D01*
X693282Y134122D02*
X693282Y119658D01*
X691318Y119658D01*
X691318Y134122D01*
X691318Y121849D02*
X693282Y121849D01*
X693282Y124040D02*
X691318Y124040D01*
X691318Y126231D02*
X693282Y126231D01*
X693282Y128422D02*
X691318Y128422D01*
X691318Y130613D02*
X693282Y130613D01*
X693282Y132804D02*
X691318Y132804D01*
X690782Y58622D02*
X688818Y58622D01*
X690782Y58622D02*
X690782Y44158D01*
X688818Y44158D01*
X688818Y58622D01*
X688818Y46349D02*
X690782Y46349D01*
X690782Y48540D02*
X688818Y48540D01*
X688818Y50731D02*
X690782Y50731D01*
X690782Y52922D02*
X688818Y52922D01*
X688818Y55113D02*
X690782Y55113D01*
X690782Y57304D02*
X688818Y57304D01*
X688282Y134122D02*
X686318Y134122D01*
X688282Y134122D02*
X688282Y119658D01*
X686318Y119658D01*
X686318Y134122D01*
X686318Y121849D02*
X688282Y121849D01*
X688282Y124040D02*
X686318Y124040D01*
X686318Y126231D02*
X688282Y126231D01*
X688282Y128422D02*
X686318Y128422D01*
X686318Y130613D02*
X688282Y130613D01*
X688282Y132804D02*
X686318Y132804D01*
X685782Y58622D02*
X683818Y58622D01*
X685782Y58622D02*
X685782Y44158D01*
X683818Y44158D01*
X683818Y58622D01*
X683818Y46349D02*
X685782Y46349D01*
X685782Y48540D02*
X683818Y48540D01*
X683818Y50731D02*
X685782Y50731D01*
X685782Y52922D02*
X683818Y52922D01*
X683818Y55113D02*
X685782Y55113D01*
X685782Y57304D02*
X683818Y57304D01*
X683282Y134122D02*
X681318Y134122D01*
X683282Y134122D02*
X683282Y119658D01*
X681318Y119658D01*
X681318Y134122D01*
X681318Y121849D02*
X683282Y121849D01*
X683282Y124040D02*
X681318Y124040D01*
X681318Y126231D02*
X683282Y126231D01*
X683282Y128422D02*
X681318Y128422D01*
X681318Y130613D02*
X683282Y130613D01*
X683282Y132804D02*
X681318Y132804D01*
X680782Y58622D02*
X678818Y58622D01*
X680782Y58622D02*
X680782Y44158D01*
X678818Y44158D01*
X678818Y58622D01*
X678818Y46349D02*
X680782Y46349D01*
X680782Y48540D02*
X678818Y48540D01*
X678818Y50731D02*
X680782Y50731D01*
X680782Y52922D02*
X678818Y52922D01*
X678818Y55113D02*
X680782Y55113D01*
X680782Y57304D02*
X678818Y57304D01*
X678282Y134122D02*
X676318Y134122D01*
X678282Y134122D02*
X678282Y119658D01*
X676318Y119658D01*
X676318Y134122D01*
X676318Y121849D02*
X678282Y121849D01*
X678282Y124040D02*
X676318Y124040D01*
X676318Y126231D02*
X678282Y126231D01*
X678282Y128422D02*
X676318Y128422D01*
X676318Y130613D02*
X678282Y130613D01*
X678282Y132804D02*
X676318Y132804D01*
X675782Y58622D02*
X673818Y58622D01*
X675782Y58622D02*
X675782Y44158D01*
X673818Y44158D01*
X673818Y58622D01*
X673818Y46349D02*
X675782Y46349D01*
X675782Y48540D02*
X673818Y48540D01*
X673818Y50731D02*
X675782Y50731D01*
X675782Y52922D02*
X673818Y52922D01*
X673818Y55113D02*
X675782Y55113D01*
X675782Y57304D02*
X673818Y57304D01*
X673282Y134122D02*
X671318Y134122D01*
X673282Y134122D02*
X673282Y119658D01*
X671318Y119658D01*
X671318Y134122D01*
X671318Y121849D02*
X673282Y121849D01*
X673282Y124040D02*
X671318Y124040D01*
X671318Y126231D02*
X673282Y126231D01*
X673282Y128422D02*
X671318Y128422D01*
X671318Y130613D02*
X673282Y130613D01*
X673282Y132804D02*
X671318Y132804D01*
X670782Y58622D02*
X668818Y58622D01*
X670782Y58622D02*
X670782Y44158D01*
X668818Y44158D01*
X668818Y58622D01*
X668818Y46349D02*
X670782Y46349D01*
X670782Y48540D02*
X668818Y48540D01*
X668818Y50731D02*
X670782Y50731D01*
X670782Y52922D02*
X668818Y52922D01*
X668818Y55113D02*
X670782Y55113D01*
X670782Y57304D02*
X668818Y57304D01*
X668282Y134122D02*
X666318Y134122D01*
X668282Y134122D02*
X668282Y119658D01*
X666318Y119658D01*
X666318Y134122D01*
X666318Y121849D02*
X668282Y121849D01*
X668282Y124040D02*
X666318Y124040D01*
X666318Y126231D02*
X668282Y126231D01*
X668282Y128422D02*
X666318Y128422D01*
X666318Y130613D02*
X668282Y130613D01*
X668282Y132804D02*
X666318Y132804D01*
X665782Y58622D02*
X663818Y58622D01*
X665782Y58622D02*
X665782Y44158D01*
X663818Y44158D01*
X663818Y58622D01*
X663818Y46349D02*
X665782Y46349D01*
X665782Y48540D02*
X663818Y48540D01*
X663818Y50731D02*
X665782Y50731D01*
X665782Y52922D02*
X663818Y52922D01*
X663818Y55113D02*
X665782Y55113D01*
X665782Y57304D02*
X663818Y57304D01*
X663282Y134122D02*
X661318Y134122D01*
X663282Y134122D02*
X663282Y119658D01*
X661318Y119658D01*
X661318Y134122D01*
X661318Y121849D02*
X663282Y121849D01*
X663282Y124040D02*
X661318Y124040D01*
X661318Y126231D02*
X663282Y126231D01*
X663282Y128422D02*
X661318Y128422D01*
X661318Y130613D02*
X663282Y130613D01*
X663282Y132804D02*
X661318Y132804D01*
X660782Y58622D02*
X658818Y58622D01*
X660782Y58622D02*
X660782Y44158D01*
X658818Y44158D01*
X658818Y58622D01*
X658818Y46349D02*
X660782Y46349D01*
X660782Y48540D02*
X658818Y48540D01*
X658818Y50731D02*
X660782Y50731D01*
X660782Y52922D02*
X658818Y52922D01*
X658818Y55113D02*
X660782Y55113D01*
X660782Y57304D02*
X658818Y57304D01*
X638282Y134122D02*
X636318Y134122D01*
X638282Y134122D02*
X638282Y119658D01*
X636318Y119658D01*
X636318Y134122D01*
X636318Y121849D02*
X638282Y121849D01*
X638282Y124040D02*
X636318Y124040D01*
X636318Y126231D02*
X638282Y126231D01*
X638282Y128422D02*
X636318Y128422D01*
X636318Y130613D02*
X638282Y130613D01*
X638282Y132804D02*
X636318Y132804D01*
X635782Y58622D02*
X633818Y58622D01*
X635782Y58622D02*
X635782Y44158D01*
X633818Y44158D01*
X633818Y58622D01*
X633818Y46349D02*
X635782Y46349D01*
X635782Y48540D02*
X633818Y48540D01*
X633818Y50731D02*
X635782Y50731D01*
X635782Y52922D02*
X633818Y52922D01*
X633818Y55113D02*
X635782Y55113D01*
X635782Y57304D02*
X633818Y57304D01*
X633282Y134122D02*
X631318Y134122D01*
X633282Y134122D02*
X633282Y119658D01*
X631318Y119658D01*
X631318Y134122D01*
X631318Y121849D02*
X633282Y121849D01*
X633282Y124040D02*
X631318Y124040D01*
X631318Y126231D02*
X633282Y126231D01*
X633282Y128422D02*
X631318Y128422D01*
X631318Y130613D02*
X633282Y130613D01*
X633282Y132804D02*
X631318Y132804D01*
X630782Y58622D02*
X628818Y58622D01*
X630782Y58622D02*
X630782Y44158D01*
X628818Y44158D01*
X628818Y58622D01*
X628818Y46349D02*
X630782Y46349D01*
X630782Y48540D02*
X628818Y48540D01*
X628818Y50731D02*
X630782Y50731D01*
X630782Y52922D02*
X628818Y52922D01*
X628818Y55113D02*
X630782Y55113D01*
X630782Y57304D02*
X628818Y57304D01*
X628282Y134122D02*
X626318Y134122D01*
X628282Y134122D02*
X628282Y119658D01*
X626318Y119658D01*
X626318Y134122D01*
X626318Y121849D02*
X628282Y121849D01*
X628282Y124040D02*
X626318Y124040D01*
X626318Y126231D02*
X628282Y126231D01*
X628282Y128422D02*
X626318Y128422D01*
X626318Y130613D02*
X628282Y130613D01*
X628282Y132804D02*
X626318Y132804D01*
X625782Y58622D02*
X623818Y58622D01*
X625782Y58622D02*
X625782Y44158D01*
X623818Y44158D01*
X623818Y58622D01*
X623818Y46349D02*
X625782Y46349D01*
X625782Y48540D02*
X623818Y48540D01*
X623818Y50731D02*
X625782Y50731D01*
X625782Y52922D02*
X623818Y52922D01*
X623818Y55113D02*
X625782Y55113D01*
X625782Y57304D02*
X623818Y57304D01*
X623282Y134122D02*
X621318Y134122D01*
X623282Y134122D02*
X623282Y119658D01*
X621318Y119658D01*
X621318Y134122D01*
X621318Y121849D02*
X623282Y121849D01*
X623282Y124040D02*
X621318Y124040D01*
X621318Y126231D02*
X623282Y126231D01*
X623282Y128422D02*
X621318Y128422D01*
X621318Y130613D02*
X623282Y130613D01*
X623282Y132804D02*
X621318Y132804D01*
X620782Y58622D02*
X618818Y58622D01*
X620782Y58622D02*
X620782Y44158D01*
X618818Y44158D01*
X618818Y58622D01*
X618818Y46349D02*
X620782Y46349D01*
X620782Y48540D02*
X618818Y48540D01*
X618818Y50731D02*
X620782Y50731D01*
X620782Y52922D02*
X618818Y52922D01*
X618818Y55113D02*
X620782Y55113D01*
X620782Y57304D02*
X618818Y57304D01*
X618282Y134122D02*
X616318Y134122D01*
X618282Y134122D02*
X618282Y119658D01*
X616318Y119658D01*
X616318Y134122D01*
X616318Y121849D02*
X618282Y121849D01*
X618282Y124040D02*
X616318Y124040D01*
X616318Y126231D02*
X618282Y126231D01*
X618282Y128422D02*
X616318Y128422D01*
X616318Y130613D02*
X618282Y130613D01*
X618282Y132804D02*
X616318Y132804D01*
X615782Y58622D02*
X613818Y58622D01*
X615782Y58622D02*
X615782Y44158D01*
X613818Y44158D01*
X613818Y58622D01*
X613818Y46349D02*
X615782Y46349D01*
X615782Y48540D02*
X613818Y48540D01*
X613818Y50731D02*
X615782Y50731D01*
X615782Y52922D02*
X613818Y52922D01*
X613818Y55113D02*
X615782Y55113D01*
X615782Y57304D02*
X613818Y57304D01*
X613282Y134122D02*
X611318Y134122D01*
X613282Y134122D02*
X613282Y119658D01*
X611318Y119658D01*
X611318Y134122D01*
X611318Y121849D02*
X613282Y121849D01*
X613282Y124040D02*
X611318Y124040D01*
X611318Y126231D02*
X613282Y126231D01*
X613282Y128422D02*
X611318Y128422D01*
X611318Y130613D02*
X613282Y130613D01*
X613282Y132804D02*
X611318Y132804D01*
X610782Y58622D02*
X608818Y58622D01*
X610782Y58622D02*
X610782Y44158D01*
X608818Y44158D01*
X608818Y58622D01*
X608818Y46349D02*
X610782Y46349D01*
X610782Y48540D02*
X608818Y48540D01*
X608818Y50731D02*
X610782Y50731D01*
X610782Y52922D02*
X608818Y52922D01*
X608818Y55113D02*
X610782Y55113D01*
X610782Y57304D02*
X608818Y57304D01*
X608282Y134122D02*
X606318Y134122D01*
X608282Y134122D02*
X608282Y119658D01*
X606318Y119658D01*
X606318Y134122D01*
X606318Y121849D02*
X608282Y121849D01*
X608282Y124040D02*
X606318Y124040D01*
X606318Y126231D02*
X608282Y126231D01*
X608282Y128422D02*
X606318Y128422D01*
X606318Y130613D02*
X608282Y130613D01*
X608282Y132804D02*
X606318Y132804D01*
X605782Y58622D02*
X603818Y58622D01*
X605782Y58622D02*
X605782Y44158D01*
X603818Y44158D01*
X603818Y58622D01*
X603818Y46349D02*
X605782Y46349D01*
X605782Y48540D02*
X603818Y48540D01*
X603818Y50731D02*
X605782Y50731D01*
X605782Y52922D02*
X603818Y52922D01*
X603818Y55113D02*
X605782Y55113D01*
X605782Y57304D02*
X603818Y57304D01*
X603282Y134122D02*
X601318Y134122D01*
X603282Y134122D02*
X603282Y119658D01*
X601318Y119658D01*
X601318Y134122D01*
X601318Y121849D02*
X603282Y121849D01*
X603282Y124040D02*
X601318Y124040D01*
X601318Y126231D02*
X603282Y126231D01*
X603282Y128422D02*
X601318Y128422D01*
X601318Y130613D02*
X603282Y130613D01*
X603282Y132804D02*
X601318Y132804D01*
X600782Y58622D02*
X598818Y58622D01*
X600782Y58622D02*
X600782Y44158D01*
X598818Y44158D01*
X598818Y58622D01*
X598818Y46349D02*
X600782Y46349D01*
X600782Y48540D02*
X598818Y48540D01*
X598818Y50731D02*
X600782Y50731D01*
X600782Y52922D02*
X598818Y52922D01*
X598818Y55113D02*
X600782Y55113D01*
X600782Y57304D02*
X598818Y57304D01*
X598282Y134122D02*
X596318Y134122D01*
X598282Y134122D02*
X598282Y119658D01*
X596318Y119658D01*
X596318Y134122D01*
X596318Y121849D02*
X598282Y121849D01*
X598282Y124040D02*
X596318Y124040D01*
X596318Y126231D02*
X598282Y126231D01*
X598282Y128422D02*
X596318Y128422D01*
X596318Y130613D02*
X598282Y130613D01*
X598282Y132804D02*
X596318Y132804D01*
X595782Y58622D02*
X593818Y58622D01*
X595782Y58622D02*
X595782Y44158D01*
X593818Y44158D01*
X593818Y58622D01*
X593818Y46349D02*
X595782Y46349D01*
X595782Y48540D02*
X593818Y48540D01*
X593818Y50731D02*
X595782Y50731D01*
X595782Y52922D02*
X593818Y52922D01*
X593818Y55113D02*
X595782Y55113D01*
X595782Y57304D02*
X593818Y57304D01*
X593282Y134122D02*
X591318Y134122D01*
X593282Y134122D02*
X593282Y119658D01*
X591318Y119658D01*
X591318Y134122D01*
X591318Y121849D02*
X593282Y121849D01*
X593282Y124040D02*
X591318Y124040D01*
X591318Y126231D02*
X593282Y126231D01*
X593282Y128422D02*
X591318Y128422D01*
X591318Y130613D02*
X593282Y130613D01*
X593282Y132804D02*
X591318Y132804D01*
X590782Y58622D02*
X588818Y58622D01*
X590782Y58622D02*
X590782Y44158D01*
X588818Y44158D01*
X588818Y58622D01*
X588818Y46349D02*
X590782Y46349D01*
X590782Y48540D02*
X588818Y48540D01*
X588818Y50731D02*
X590782Y50731D01*
X590782Y52922D02*
X588818Y52922D01*
X588818Y55113D02*
X590782Y55113D01*
X590782Y57304D02*
X588818Y57304D01*
X588282Y134122D02*
X586318Y134122D01*
X588282Y134122D02*
X588282Y119658D01*
X586318Y119658D01*
X586318Y134122D01*
X586318Y121849D02*
X588282Y121849D01*
X588282Y124040D02*
X586318Y124040D01*
X586318Y126231D02*
X588282Y126231D01*
X588282Y128422D02*
X586318Y128422D01*
X586318Y130613D02*
X588282Y130613D01*
X588282Y132804D02*
X586318Y132804D01*
X585782Y58622D02*
X583818Y58622D01*
X585782Y58622D02*
X585782Y44158D01*
X583818Y44158D01*
X583818Y58622D01*
X583818Y46349D02*
X585782Y46349D01*
X585782Y48540D02*
X583818Y48540D01*
X583818Y50731D02*
X585782Y50731D01*
X585782Y52922D02*
X583818Y52922D01*
X583818Y55113D02*
X585782Y55113D01*
X585782Y57304D02*
X583818Y57304D01*
X583282Y134122D02*
X581318Y134122D01*
X583282Y134122D02*
X583282Y119658D01*
X581318Y119658D01*
X581318Y134122D01*
X581318Y121849D02*
X583282Y121849D01*
X583282Y124040D02*
X581318Y124040D01*
X581318Y126231D02*
X583282Y126231D01*
X583282Y128422D02*
X581318Y128422D01*
X581318Y130613D02*
X583282Y130613D01*
X583282Y132804D02*
X581318Y132804D01*
X580782Y58622D02*
X578818Y58622D01*
X580782Y58622D02*
X580782Y44158D01*
X578818Y44158D01*
X578818Y58622D01*
X578818Y46349D02*
X580782Y46349D01*
X580782Y48540D02*
X578818Y48540D01*
X578818Y50731D02*
X580782Y50731D01*
X580782Y52922D02*
X578818Y52922D01*
X578818Y55113D02*
X580782Y55113D01*
X580782Y57304D02*
X578818Y57304D01*
X578282Y134122D02*
X576318Y134122D01*
X578282Y134122D02*
X578282Y119658D01*
X576318Y119658D01*
X576318Y134122D01*
X576318Y121849D02*
X578282Y121849D01*
X578282Y124040D02*
X576318Y124040D01*
X576318Y126231D02*
X578282Y126231D01*
X578282Y128422D02*
X576318Y128422D01*
X576318Y130613D02*
X578282Y130613D01*
X578282Y132804D02*
X576318Y132804D01*
X575782Y58622D02*
X573818Y58622D01*
X575782Y58622D02*
X575782Y44158D01*
X573818Y44158D01*
X573818Y58622D01*
X573818Y46349D02*
X575782Y46349D01*
X575782Y48540D02*
X573818Y48540D01*
X573818Y50731D02*
X575782Y50731D01*
X575782Y52922D02*
X573818Y52922D01*
X573818Y55113D02*
X575782Y55113D01*
X575782Y57304D02*
X573818Y57304D01*
X573282Y134122D02*
X571318Y134122D01*
X573282Y134122D02*
X573282Y119658D01*
X571318Y119658D01*
X571318Y134122D01*
X571318Y121849D02*
X573282Y121849D01*
X573282Y124040D02*
X571318Y124040D01*
X571318Y126231D02*
X573282Y126231D01*
X573282Y128422D02*
X571318Y128422D01*
X571318Y130613D02*
X573282Y130613D01*
X573282Y132804D02*
X571318Y132804D01*
X570782Y58622D02*
X568818Y58622D01*
X570782Y58622D02*
X570782Y44158D01*
X568818Y44158D01*
X568818Y58622D01*
X568818Y46349D02*
X570782Y46349D01*
X570782Y48540D02*
X568818Y48540D01*
X568818Y50731D02*
X570782Y50731D01*
X570782Y52922D02*
X568818Y52922D01*
X568818Y55113D02*
X570782Y55113D01*
X570782Y57304D02*
X568818Y57304D01*
X568282Y134122D02*
X566318Y134122D01*
X568282Y134122D02*
X568282Y119658D01*
X566318Y119658D01*
X566318Y134122D01*
X566318Y121849D02*
X568282Y121849D01*
X568282Y124040D02*
X566318Y124040D01*
X566318Y126231D02*
X568282Y126231D01*
X568282Y128422D02*
X566318Y128422D01*
X566318Y130613D02*
X568282Y130613D01*
X568282Y132804D02*
X566318Y132804D01*
X565782Y58622D02*
X563818Y58622D01*
X565782Y58622D02*
X565782Y44158D01*
X563818Y44158D01*
X563818Y58622D01*
X563818Y46349D02*
X565782Y46349D01*
X565782Y48540D02*
X563818Y48540D01*
X563818Y50731D02*
X565782Y50731D01*
X565782Y52922D02*
X563818Y52922D01*
X563818Y55113D02*
X565782Y55113D01*
X565782Y57304D02*
X563818Y57304D01*
X563282Y134122D02*
X561318Y134122D01*
X563282Y134122D02*
X563282Y119658D01*
X561318Y119658D01*
X561318Y134122D01*
X561318Y121849D02*
X563282Y121849D01*
X563282Y124040D02*
X561318Y124040D01*
X561318Y126231D02*
X563282Y126231D01*
X563282Y128422D02*
X561318Y128422D01*
X561318Y130613D02*
X563282Y130613D01*
X563282Y132804D02*
X561318Y132804D01*
X560782Y58622D02*
X558818Y58622D01*
X560782Y58622D02*
X560782Y44158D01*
X558818Y44158D01*
X558818Y58622D01*
X558818Y46349D02*
X560782Y46349D01*
X560782Y48540D02*
X558818Y48540D01*
X558818Y50731D02*
X560782Y50731D01*
X560782Y52922D02*
X558818Y52922D01*
X558818Y55113D02*
X560782Y55113D01*
X560782Y57304D02*
X558818Y57304D01*
X558282Y134122D02*
X556318Y134122D01*
X558282Y134122D02*
X558282Y119658D01*
X556318Y119658D01*
X556318Y134122D01*
X556318Y121849D02*
X558282Y121849D01*
X558282Y124040D02*
X556318Y124040D01*
X556318Y126231D02*
X558282Y126231D01*
X558282Y128422D02*
X556318Y128422D01*
X556318Y130613D02*
X558282Y130613D01*
X558282Y132804D02*
X556318Y132804D01*
X555782Y58622D02*
X553818Y58622D01*
X555782Y58622D02*
X555782Y44158D01*
X553818Y44158D01*
X553818Y58622D01*
X553818Y46349D02*
X555782Y46349D01*
X555782Y48540D02*
X553818Y48540D01*
X553818Y50731D02*
X555782Y50731D01*
X555782Y52922D02*
X553818Y52922D01*
X553818Y55113D02*
X555782Y55113D01*
X555782Y57304D02*
X553818Y57304D01*
X553282Y134122D02*
X551318Y134122D01*
X553282Y134122D02*
X553282Y119658D01*
X551318Y119658D01*
X551318Y134122D01*
X551318Y121849D02*
X553282Y121849D01*
X553282Y124040D02*
X551318Y124040D01*
X551318Y126231D02*
X553282Y126231D01*
X553282Y128422D02*
X551318Y128422D01*
X551318Y130613D02*
X553282Y130613D01*
X553282Y132804D02*
X551318Y132804D01*
X550782Y58622D02*
X548818Y58622D01*
X550782Y58622D02*
X550782Y44158D01*
X548818Y44158D01*
X548818Y58622D01*
X548818Y46349D02*
X550782Y46349D01*
X550782Y48540D02*
X548818Y48540D01*
X548818Y50731D02*
X550782Y50731D01*
X550782Y52922D02*
X548818Y52922D01*
X548818Y55113D02*
X550782Y55113D01*
X550782Y57304D02*
X548818Y57304D01*
X548282Y134122D02*
X546318Y134122D01*
X548282Y134122D02*
X548282Y119658D01*
X546318Y119658D01*
X546318Y134122D01*
X546318Y121849D02*
X548282Y121849D01*
X548282Y124040D02*
X546318Y124040D01*
X546318Y126231D02*
X548282Y126231D01*
X548282Y128422D02*
X546318Y128422D01*
X546318Y130613D02*
X548282Y130613D01*
X548282Y132804D02*
X546318Y132804D01*
X545782Y58622D02*
X543818Y58622D01*
X545782Y58622D02*
X545782Y44158D01*
X543818Y44158D01*
X543818Y58622D01*
X543818Y46349D02*
X545782Y46349D01*
X545782Y48540D02*
X543818Y48540D01*
X543818Y50731D02*
X545782Y50731D01*
X545782Y52922D02*
X543818Y52922D01*
X543818Y55113D02*
X545782Y55113D01*
X545782Y57304D02*
X543818Y57304D01*
X543282Y134122D02*
X541318Y134122D01*
X543282Y134122D02*
X543282Y119658D01*
X541318Y119658D01*
X541318Y134122D01*
X541318Y121849D02*
X543282Y121849D01*
X543282Y124040D02*
X541318Y124040D01*
X541318Y126231D02*
X543282Y126231D01*
X543282Y128422D02*
X541318Y128422D01*
X541318Y130613D02*
X543282Y130613D01*
X543282Y132804D02*
X541318Y132804D01*
X540782Y58622D02*
X538818Y58622D01*
X540782Y58622D02*
X540782Y44158D01*
X538818Y44158D01*
X538818Y58622D01*
X538818Y46349D02*
X540782Y46349D01*
X540782Y48540D02*
X538818Y48540D01*
X538818Y50731D02*
X540782Y50731D01*
X540782Y52922D02*
X538818Y52922D01*
X538818Y55113D02*
X540782Y55113D01*
X540782Y57304D02*
X538818Y57304D01*
X538282Y134122D02*
X536318Y134122D01*
X538282Y134122D02*
X538282Y119658D01*
X536318Y119658D01*
X536318Y134122D01*
X536318Y121849D02*
X538282Y121849D01*
X538282Y124040D02*
X536318Y124040D01*
X536318Y126231D02*
X538282Y126231D01*
X538282Y128422D02*
X536318Y128422D01*
X536318Y130613D02*
X538282Y130613D01*
X538282Y132804D02*
X536318Y132804D01*
X535782Y58622D02*
X533818Y58622D01*
X535782Y58622D02*
X535782Y44158D01*
X533818Y44158D01*
X533818Y58622D01*
X533818Y46349D02*
X535782Y46349D01*
X535782Y48540D02*
X533818Y48540D01*
X533818Y50731D02*
X535782Y50731D01*
X535782Y52922D02*
X533818Y52922D01*
X533818Y55113D02*
X535782Y55113D01*
X535782Y57304D02*
X533818Y57304D01*
X533282Y134122D02*
X531318Y134122D01*
X533282Y134122D02*
X533282Y119658D01*
X531318Y119658D01*
X531318Y134122D01*
X531318Y121849D02*
X533282Y121849D01*
X533282Y124040D02*
X531318Y124040D01*
X531318Y126231D02*
X533282Y126231D01*
X533282Y128422D02*
X531318Y128422D01*
X531318Y130613D02*
X533282Y130613D01*
X533282Y132804D02*
X531318Y132804D01*
X530782Y58622D02*
X528818Y58622D01*
X530782Y58622D02*
X530782Y44158D01*
X528818Y44158D01*
X528818Y58622D01*
X528818Y46349D02*
X530782Y46349D01*
X530782Y48540D02*
X528818Y48540D01*
X528818Y50731D02*
X530782Y50731D01*
X530782Y52922D02*
X528818Y52922D01*
X528818Y55113D02*
X530782Y55113D01*
X530782Y57304D02*
X528818Y57304D01*
D14*
X338760Y104140D03*
D15*
X138760Y104140D03*
D16*
X330278Y58622D02*
X332242Y58622D01*
X332242Y44158D01*
X330278Y44158D01*
X330278Y58622D01*
X330278Y46349D02*
X332242Y46349D01*
X332242Y48540D02*
X330278Y48540D01*
X330278Y50731D02*
X332242Y50731D01*
X332242Y52922D02*
X330278Y52922D01*
X330278Y55113D02*
X332242Y55113D01*
X332242Y57304D02*
X330278Y57304D01*
D11*
X336753Y72397D02*
X347767Y72397D01*
X347767Y45883D01*
X336753Y45883D01*
X336753Y72397D01*
X336753Y48026D02*
X347767Y48026D01*
X347767Y50169D02*
X336753Y50169D01*
X336753Y52312D02*
X347767Y52312D01*
X347767Y54455D02*
X336753Y54455D01*
X336753Y56598D02*
X347767Y56598D01*
X347767Y58741D02*
X336753Y58741D01*
X336753Y60884D02*
X347767Y60884D01*
X347767Y63027D02*
X336753Y63027D01*
X336753Y65170D02*
X347767Y65170D01*
X347767Y67313D02*
X336753Y67313D01*
X336753Y69456D02*
X347767Y69456D01*
X347767Y71599D02*
X336753Y71599D01*
X140767Y72397D02*
X129753Y72397D01*
X140767Y72397D02*
X140767Y45883D01*
X129753Y45883D01*
X129753Y72397D01*
X129753Y48026D02*
X140767Y48026D01*
X140767Y50169D02*
X129753Y50169D01*
X129753Y52312D02*
X140767Y52312D01*
X140767Y54455D02*
X129753Y54455D01*
X129753Y56598D02*
X140767Y56598D01*
X140767Y58741D02*
X129753Y58741D01*
X129753Y60884D02*
X140767Y60884D01*
X140767Y63027D02*
X129753Y63027D01*
X129753Y65170D02*
X140767Y65170D01*
X140767Y67313D02*
X129753Y67313D01*
X129753Y69456D02*
X140767Y69456D01*
X140767Y71599D02*
X129753Y71599D01*
D16*
X327778Y134122D02*
X329742Y134122D01*
X329742Y119658D01*
X327778Y119658D01*
X327778Y134122D01*
X327778Y121849D02*
X329742Y121849D01*
X329742Y124040D02*
X327778Y124040D01*
X327778Y126231D02*
X329742Y126231D01*
X329742Y128422D02*
X327778Y128422D01*
X327778Y130613D02*
X329742Y130613D01*
X329742Y132804D02*
X327778Y132804D01*
X327242Y58622D02*
X325278Y58622D01*
X327242Y58622D02*
X327242Y44158D01*
X325278Y44158D01*
X325278Y58622D01*
X325278Y46349D02*
X327242Y46349D01*
X327242Y48540D02*
X325278Y48540D01*
X325278Y50731D02*
X327242Y50731D01*
X327242Y52922D02*
X325278Y52922D01*
X325278Y55113D02*
X327242Y55113D01*
X327242Y57304D02*
X325278Y57304D01*
X324742Y134122D02*
X322778Y134122D01*
X324742Y134122D02*
X324742Y119658D01*
X322778Y119658D01*
X322778Y134122D01*
X322778Y121849D02*
X324742Y121849D01*
X324742Y124040D02*
X322778Y124040D01*
X322778Y126231D02*
X324742Y126231D01*
X324742Y128422D02*
X322778Y128422D01*
X322778Y130613D02*
X324742Y130613D01*
X324742Y132804D02*
X322778Y132804D01*
X322242Y58622D02*
X320278Y58622D01*
X322242Y58622D02*
X322242Y44158D01*
X320278Y44158D01*
X320278Y58622D01*
X320278Y46349D02*
X322242Y46349D01*
X322242Y48540D02*
X320278Y48540D01*
X320278Y50731D02*
X322242Y50731D01*
X322242Y52922D02*
X320278Y52922D01*
X320278Y55113D02*
X322242Y55113D01*
X322242Y57304D02*
X320278Y57304D01*
X319742Y134122D02*
X317778Y134122D01*
X319742Y134122D02*
X319742Y119658D01*
X317778Y119658D01*
X317778Y134122D01*
X317778Y121849D02*
X319742Y121849D01*
X319742Y124040D02*
X317778Y124040D01*
X317778Y126231D02*
X319742Y126231D01*
X319742Y128422D02*
X317778Y128422D01*
X317778Y130613D02*
X319742Y130613D01*
X319742Y132804D02*
X317778Y132804D01*
X317242Y58622D02*
X315278Y58622D01*
X317242Y58622D02*
X317242Y44158D01*
X315278Y44158D01*
X315278Y58622D01*
X315278Y46349D02*
X317242Y46349D01*
X317242Y48540D02*
X315278Y48540D01*
X315278Y50731D02*
X317242Y50731D01*
X317242Y52922D02*
X315278Y52922D01*
X315278Y55113D02*
X317242Y55113D01*
X317242Y57304D02*
X315278Y57304D01*
X314742Y134122D02*
X312778Y134122D01*
X314742Y134122D02*
X314742Y119658D01*
X312778Y119658D01*
X312778Y134122D01*
X312778Y121849D02*
X314742Y121849D01*
X314742Y124040D02*
X312778Y124040D01*
X312778Y126231D02*
X314742Y126231D01*
X314742Y128422D02*
X312778Y128422D01*
X312778Y130613D02*
X314742Y130613D01*
X314742Y132804D02*
X312778Y132804D01*
X312242Y58622D02*
X310278Y58622D01*
X312242Y58622D02*
X312242Y44158D01*
X310278Y44158D01*
X310278Y58622D01*
X310278Y46349D02*
X312242Y46349D01*
X312242Y48540D02*
X310278Y48540D01*
X310278Y50731D02*
X312242Y50731D01*
X312242Y52922D02*
X310278Y52922D01*
X310278Y55113D02*
X312242Y55113D01*
X312242Y57304D02*
X310278Y57304D01*
X309742Y134122D02*
X307778Y134122D01*
X309742Y134122D02*
X309742Y119658D01*
X307778Y119658D01*
X307778Y134122D01*
X307778Y121849D02*
X309742Y121849D01*
X309742Y124040D02*
X307778Y124040D01*
X307778Y126231D02*
X309742Y126231D01*
X309742Y128422D02*
X307778Y128422D01*
X307778Y130613D02*
X309742Y130613D01*
X309742Y132804D02*
X307778Y132804D01*
X307242Y58622D02*
X305278Y58622D01*
X307242Y58622D02*
X307242Y44158D01*
X305278Y44158D01*
X305278Y58622D01*
X305278Y46349D02*
X307242Y46349D01*
X307242Y48540D02*
X305278Y48540D01*
X305278Y50731D02*
X307242Y50731D01*
X307242Y52922D02*
X305278Y52922D01*
X305278Y55113D02*
X307242Y55113D01*
X307242Y57304D02*
X305278Y57304D01*
X304742Y134122D02*
X302778Y134122D01*
X304742Y134122D02*
X304742Y119658D01*
X302778Y119658D01*
X302778Y134122D01*
X302778Y121849D02*
X304742Y121849D01*
X304742Y124040D02*
X302778Y124040D01*
X302778Y126231D02*
X304742Y126231D01*
X304742Y128422D02*
X302778Y128422D01*
X302778Y130613D02*
X304742Y130613D01*
X304742Y132804D02*
X302778Y132804D01*
X302242Y58622D02*
X300278Y58622D01*
X302242Y58622D02*
X302242Y44158D01*
X300278Y44158D01*
X300278Y58622D01*
X300278Y46349D02*
X302242Y46349D01*
X302242Y48540D02*
X300278Y48540D01*
X300278Y50731D02*
X302242Y50731D01*
X302242Y52922D02*
X300278Y52922D01*
X300278Y55113D02*
X302242Y55113D01*
X302242Y57304D02*
X300278Y57304D01*
X299742Y134122D02*
X297778Y134122D01*
X299742Y134122D02*
X299742Y119658D01*
X297778Y119658D01*
X297778Y134122D01*
X297778Y121849D02*
X299742Y121849D01*
X299742Y124040D02*
X297778Y124040D01*
X297778Y126231D02*
X299742Y126231D01*
X299742Y128422D02*
X297778Y128422D01*
X297778Y130613D02*
X299742Y130613D01*
X299742Y132804D02*
X297778Y132804D01*
X297242Y58622D02*
X295278Y58622D01*
X297242Y58622D02*
X297242Y44158D01*
X295278Y44158D01*
X295278Y58622D01*
X295278Y46349D02*
X297242Y46349D01*
X297242Y48540D02*
X295278Y48540D01*
X295278Y50731D02*
X297242Y50731D01*
X297242Y52922D02*
X295278Y52922D01*
X295278Y55113D02*
X297242Y55113D01*
X297242Y57304D02*
X295278Y57304D01*
X294742Y134122D02*
X292778Y134122D01*
X294742Y134122D02*
X294742Y119658D01*
X292778Y119658D01*
X292778Y134122D01*
X292778Y121849D02*
X294742Y121849D01*
X294742Y124040D02*
X292778Y124040D01*
X292778Y126231D02*
X294742Y126231D01*
X294742Y128422D02*
X292778Y128422D01*
X292778Y130613D02*
X294742Y130613D01*
X294742Y132804D02*
X292778Y132804D01*
X292242Y58622D02*
X290278Y58622D01*
X292242Y58622D02*
X292242Y44158D01*
X290278Y44158D01*
X290278Y58622D01*
X290278Y46349D02*
X292242Y46349D01*
X292242Y48540D02*
X290278Y48540D01*
X290278Y50731D02*
X292242Y50731D01*
X292242Y52922D02*
X290278Y52922D01*
X290278Y55113D02*
X292242Y55113D01*
X292242Y57304D02*
X290278Y57304D01*
X289742Y134122D02*
X287778Y134122D01*
X289742Y134122D02*
X289742Y119658D01*
X287778Y119658D01*
X287778Y134122D01*
X287778Y121849D02*
X289742Y121849D01*
X289742Y124040D02*
X287778Y124040D01*
X287778Y126231D02*
X289742Y126231D01*
X289742Y128422D02*
X287778Y128422D01*
X287778Y130613D02*
X289742Y130613D01*
X289742Y132804D02*
X287778Y132804D01*
X287242Y58622D02*
X285278Y58622D01*
X287242Y58622D02*
X287242Y44158D01*
X285278Y44158D01*
X285278Y58622D01*
X285278Y46349D02*
X287242Y46349D01*
X287242Y48540D02*
X285278Y48540D01*
X285278Y50731D02*
X287242Y50731D01*
X287242Y52922D02*
X285278Y52922D01*
X285278Y55113D02*
X287242Y55113D01*
X287242Y57304D02*
X285278Y57304D01*
X284742Y134122D02*
X282778Y134122D01*
X284742Y134122D02*
X284742Y119658D01*
X282778Y119658D01*
X282778Y134122D01*
X282778Y121849D02*
X284742Y121849D01*
X284742Y124040D02*
X282778Y124040D01*
X282778Y126231D02*
X284742Y126231D01*
X284742Y128422D02*
X282778Y128422D01*
X282778Y130613D02*
X284742Y130613D01*
X284742Y132804D02*
X282778Y132804D01*
X282242Y58622D02*
X280278Y58622D01*
X282242Y58622D02*
X282242Y44158D01*
X280278Y44158D01*
X280278Y58622D01*
X280278Y46349D02*
X282242Y46349D01*
X282242Y48540D02*
X280278Y48540D01*
X280278Y50731D02*
X282242Y50731D01*
X282242Y52922D02*
X280278Y52922D01*
X280278Y55113D02*
X282242Y55113D01*
X282242Y57304D02*
X280278Y57304D01*
X279742Y134122D02*
X277778Y134122D01*
X279742Y134122D02*
X279742Y119658D01*
X277778Y119658D01*
X277778Y134122D01*
X277778Y121849D02*
X279742Y121849D01*
X279742Y124040D02*
X277778Y124040D01*
X277778Y126231D02*
X279742Y126231D01*
X279742Y128422D02*
X277778Y128422D01*
X277778Y130613D02*
X279742Y130613D01*
X279742Y132804D02*
X277778Y132804D01*
X277242Y58622D02*
X275278Y58622D01*
X277242Y58622D02*
X277242Y44158D01*
X275278Y44158D01*
X275278Y58622D01*
X275278Y46349D02*
X277242Y46349D01*
X277242Y48540D02*
X275278Y48540D01*
X275278Y50731D02*
X277242Y50731D01*
X277242Y52922D02*
X275278Y52922D01*
X275278Y55113D02*
X277242Y55113D01*
X277242Y57304D02*
X275278Y57304D01*
X254742Y134122D02*
X252778Y134122D01*
X254742Y134122D02*
X254742Y119658D01*
X252778Y119658D01*
X252778Y134122D01*
X252778Y121849D02*
X254742Y121849D01*
X254742Y124040D02*
X252778Y124040D01*
X252778Y126231D02*
X254742Y126231D01*
X254742Y128422D02*
X252778Y128422D01*
X252778Y130613D02*
X254742Y130613D01*
X254742Y132804D02*
X252778Y132804D01*
X252242Y58622D02*
X250278Y58622D01*
X252242Y58622D02*
X252242Y44158D01*
X250278Y44158D01*
X250278Y58622D01*
X250278Y46349D02*
X252242Y46349D01*
X252242Y48540D02*
X250278Y48540D01*
X250278Y50731D02*
X252242Y50731D01*
X252242Y52922D02*
X250278Y52922D01*
X250278Y55113D02*
X252242Y55113D01*
X252242Y57304D02*
X250278Y57304D01*
X249742Y134122D02*
X247778Y134122D01*
X249742Y134122D02*
X249742Y119658D01*
X247778Y119658D01*
X247778Y134122D01*
X247778Y121849D02*
X249742Y121849D01*
X249742Y124040D02*
X247778Y124040D01*
X247778Y126231D02*
X249742Y126231D01*
X249742Y128422D02*
X247778Y128422D01*
X247778Y130613D02*
X249742Y130613D01*
X249742Y132804D02*
X247778Y132804D01*
X247242Y58622D02*
X245278Y58622D01*
X247242Y58622D02*
X247242Y44158D01*
X245278Y44158D01*
X245278Y58622D01*
X245278Y46349D02*
X247242Y46349D01*
X247242Y48540D02*
X245278Y48540D01*
X245278Y50731D02*
X247242Y50731D01*
X247242Y52922D02*
X245278Y52922D01*
X245278Y55113D02*
X247242Y55113D01*
X247242Y57304D02*
X245278Y57304D01*
X244742Y134122D02*
X242778Y134122D01*
X244742Y134122D02*
X244742Y119658D01*
X242778Y119658D01*
X242778Y134122D01*
X242778Y121849D02*
X244742Y121849D01*
X244742Y124040D02*
X242778Y124040D01*
X242778Y126231D02*
X244742Y126231D01*
X244742Y128422D02*
X242778Y128422D01*
X242778Y130613D02*
X244742Y130613D01*
X244742Y132804D02*
X242778Y132804D01*
X242242Y58622D02*
X240278Y58622D01*
X242242Y58622D02*
X242242Y44158D01*
X240278Y44158D01*
X240278Y58622D01*
X240278Y46349D02*
X242242Y46349D01*
X242242Y48540D02*
X240278Y48540D01*
X240278Y50731D02*
X242242Y50731D01*
X242242Y52922D02*
X240278Y52922D01*
X240278Y55113D02*
X242242Y55113D01*
X242242Y57304D02*
X240278Y57304D01*
X239742Y134122D02*
X237778Y134122D01*
X239742Y134122D02*
X239742Y119658D01*
X237778Y119658D01*
X237778Y134122D01*
X237778Y121849D02*
X239742Y121849D01*
X239742Y124040D02*
X237778Y124040D01*
X237778Y126231D02*
X239742Y126231D01*
X239742Y128422D02*
X237778Y128422D01*
X237778Y130613D02*
X239742Y130613D01*
X239742Y132804D02*
X237778Y132804D01*
X237242Y58622D02*
X235278Y58622D01*
X237242Y58622D02*
X237242Y44158D01*
X235278Y44158D01*
X235278Y58622D01*
X235278Y46349D02*
X237242Y46349D01*
X237242Y48540D02*
X235278Y48540D01*
X235278Y50731D02*
X237242Y50731D01*
X237242Y52922D02*
X235278Y52922D01*
X235278Y55113D02*
X237242Y55113D01*
X237242Y57304D02*
X235278Y57304D01*
X234742Y134122D02*
X232778Y134122D01*
X234742Y134122D02*
X234742Y119658D01*
X232778Y119658D01*
X232778Y134122D01*
X232778Y121849D02*
X234742Y121849D01*
X234742Y124040D02*
X232778Y124040D01*
X232778Y126231D02*
X234742Y126231D01*
X234742Y128422D02*
X232778Y128422D01*
X232778Y130613D02*
X234742Y130613D01*
X234742Y132804D02*
X232778Y132804D01*
X232242Y58622D02*
X230278Y58622D01*
X232242Y58622D02*
X232242Y44158D01*
X230278Y44158D01*
X230278Y58622D01*
X230278Y46349D02*
X232242Y46349D01*
X232242Y48540D02*
X230278Y48540D01*
X230278Y50731D02*
X232242Y50731D01*
X232242Y52922D02*
X230278Y52922D01*
X230278Y55113D02*
X232242Y55113D01*
X232242Y57304D02*
X230278Y57304D01*
X229742Y134122D02*
X227778Y134122D01*
X229742Y134122D02*
X229742Y119658D01*
X227778Y119658D01*
X227778Y134122D01*
X227778Y121849D02*
X229742Y121849D01*
X229742Y124040D02*
X227778Y124040D01*
X227778Y126231D02*
X229742Y126231D01*
X229742Y128422D02*
X227778Y128422D01*
X227778Y130613D02*
X229742Y130613D01*
X229742Y132804D02*
X227778Y132804D01*
X227242Y58622D02*
X225278Y58622D01*
X227242Y58622D02*
X227242Y44158D01*
X225278Y44158D01*
X225278Y58622D01*
X225278Y46349D02*
X227242Y46349D01*
X227242Y48540D02*
X225278Y48540D01*
X225278Y50731D02*
X227242Y50731D01*
X227242Y52922D02*
X225278Y52922D01*
X225278Y55113D02*
X227242Y55113D01*
X227242Y57304D02*
X225278Y57304D01*
X224742Y134122D02*
X222778Y134122D01*
X224742Y134122D02*
X224742Y119658D01*
X222778Y119658D01*
X222778Y134122D01*
X222778Y121849D02*
X224742Y121849D01*
X224742Y124040D02*
X222778Y124040D01*
X222778Y126231D02*
X224742Y126231D01*
X224742Y128422D02*
X222778Y128422D01*
X222778Y130613D02*
X224742Y130613D01*
X224742Y132804D02*
X222778Y132804D01*
X222242Y58622D02*
X220278Y58622D01*
X222242Y58622D02*
X222242Y44158D01*
X220278Y44158D01*
X220278Y58622D01*
X220278Y46349D02*
X222242Y46349D01*
X222242Y48540D02*
X220278Y48540D01*
X220278Y50731D02*
X222242Y50731D01*
X222242Y52922D02*
X220278Y52922D01*
X220278Y55113D02*
X222242Y55113D01*
X222242Y57304D02*
X220278Y57304D01*
X219742Y134122D02*
X217778Y134122D01*
X219742Y134122D02*
X219742Y119658D01*
X217778Y119658D01*
X217778Y134122D01*
X217778Y121849D02*
X219742Y121849D01*
X219742Y124040D02*
X217778Y124040D01*
X217778Y126231D02*
X219742Y126231D01*
X219742Y128422D02*
X217778Y128422D01*
X217778Y130613D02*
X219742Y130613D01*
X219742Y132804D02*
X217778Y132804D01*
X217242Y58622D02*
X215278Y58622D01*
X217242Y58622D02*
X217242Y44158D01*
X215278Y44158D01*
X215278Y58622D01*
X215278Y46349D02*
X217242Y46349D01*
X217242Y48540D02*
X215278Y48540D01*
X215278Y50731D02*
X217242Y50731D01*
X217242Y52922D02*
X215278Y52922D01*
X215278Y55113D02*
X217242Y55113D01*
X217242Y57304D02*
X215278Y57304D01*
X214742Y134122D02*
X212778Y134122D01*
X214742Y134122D02*
X214742Y119658D01*
X212778Y119658D01*
X212778Y134122D01*
X212778Y121849D02*
X214742Y121849D01*
X214742Y124040D02*
X212778Y124040D01*
X212778Y126231D02*
X214742Y126231D01*
X214742Y128422D02*
X212778Y128422D01*
X212778Y130613D02*
X214742Y130613D01*
X214742Y132804D02*
X212778Y132804D01*
X212242Y58622D02*
X210278Y58622D01*
X212242Y58622D02*
X212242Y44158D01*
X210278Y44158D01*
X210278Y58622D01*
X210278Y46349D02*
X212242Y46349D01*
X212242Y48540D02*
X210278Y48540D01*
X210278Y50731D02*
X212242Y50731D01*
X212242Y52922D02*
X210278Y52922D01*
X210278Y55113D02*
X212242Y55113D01*
X212242Y57304D02*
X210278Y57304D01*
X209742Y134122D02*
X207778Y134122D01*
X209742Y134122D02*
X209742Y119658D01*
X207778Y119658D01*
X207778Y134122D01*
X207778Y121849D02*
X209742Y121849D01*
X209742Y124040D02*
X207778Y124040D01*
X207778Y126231D02*
X209742Y126231D01*
X209742Y128422D02*
X207778Y128422D01*
X207778Y130613D02*
X209742Y130613D01*
X209742Y132804D02*
X207778Y132804D01*
X207242Y58622D02*
X205278Y58622D01*
X207242Y58622D02*
X207242Y44158D01*
X205278Y44158D01*
X205278Y58622D01*
X205278Y46349D02*
X207242Y46349D01*
X207242Y48540D02*
X205278Y48540D01*
X205278Y50731D02*
X207242Y50731D01*
X207242Y52922D02*
X205278Y52922D01*
X205278Y55113D02*
X207242Y55113D01*
X207242Y57304D02*
X205278Y57304D01*
X204742Y134122D02*
X202778Y134122D01*
X204742Y134122D02*
X204742Y119658D01*
X202778Y119658D01*
X202778Y134122D01*
X202778Y121849D02*
X204742Y121849D01*
X204742Y124040D02*
X202778Y124040D01*
X202778Y126231D02*
X204742Y126231D01*
X204742Y128422D02*
X202778Y128422D01*
X202778Y130613D02*
X204742Y130613D01*
X204742Y132804D02*
X202778Y132804D01*
X202242Y58622D02*
X200278Y58622D01*
X202242Y58622D02*
X202242Y44158D01*
X200278Y44158D01*
X200278Y58622D01*
X200278Y46349D02*
X202242Y46349D01*
X202242Y48540D02*
X200278Y48540D01*
X200278Y50731D02*
X202242Y50731D01*
X202242Y52922D02*
X200278Y52922D01*
X200278Y55113D02*
X202242Y55113D01*
X202242Y57304D02*
X200278Y57304D01*
X199742Y134122D02*
X197778Y134122D01*
X199742Y134122D02*
X199742Y119658D01*
X197778Y119658D01*
X197778Y134122D01*
X197778Y121849D02*
X199742Y121849D01*
X199742Y124040D02*
X197778Y124040D01*
X197778Y126231D02*
X199742Y126231D01*
X199742Y128422D02*
X197778Y128422D01*
X197778Y130613D02*
X199742Y130613D01*
X199742Y132804D02*
X197778Y132804D01*
X197242Y58622D02*
X195278Y58622D01*
X197242Y58622D02*
X197242Y44158D01*
X195278Y44158D01*
X195278Y58622D01*
X195278Y46349D02*
X197242Y46349D01*
X197242Y48540D02*
X195278Y48540D01*
X195278Y50731D02*
X197242Y50731D01*
X197242Y52922D02*
X195278Y52922D01*
X195278Y55113D02*
X197242Y55113D01*
X197242Y57304D02*
X195278Y57304D01*
X194742Y134122D02*
X192778Y134122D01*
X194742Y134122D02*
X194742Y119658D01*
X192778Y119658D01*
X192778Y134122D01*
X192778Y121849D02*
X194742Y121849D01*
X194742Y124040D02*
X192778Y124040D01*
X192778Y126231D02*
X194742Y126231D01*
X194742Y128422D02*
X192778Y128422D01*
X192778Y130613D02*
X194742Y130613D01*
X194742Y132804D02*
X192778Y132804D01*
X192242Y58622D02*
X190278Y58622D01*
X192242Y58622D02*
X192242Y44158D01*
X190278Y44158D01*
X190278Y58622D01*
X190278Y46349D02*
X192242Y46349D01*
X192242Y48540D02*
X190278Y48540D01*
X190278Y50731D02*
X192242Y50731D01*
X192242Y52922D02*
X190278Y52922D01*
X190278Y55113D02*
X192242Y55113D01*
X192242Y57304D02*
X190278Y57304D01*
X189742Y134122D02*
X187778Y134122D01*
X189742Y134122D02*
X189742Y119658D01*
X187778Y119658D01*
X187778Y134122D01*
X187778Y121849D02*
X189742Y121849D01*
X189742Y124040D02*
X187778Y124040D01*
X187778Y126231D02*
X189742Y126231D01*
X189742Y128422D02*
X187778Y128422D01*
X187778Y130613D02*
X189742Y130613D01*
X189742Y132804D02*
X187778Y132804D01*
X187242Y58622D02*
X185278Y58622D01*
X187242Y58622D02*
X187242Y44158D01*
X185278Y44158D01*
X185278Y58622D01*
X185278Y46349D02*
X187242Y46349D01*
X187242Y48540D02*
X185278Y48540D01*
X185278Y50731D02*
X187242Y50731D01*
X187242Y52922D02*
X185278Y52922D01*
X185278Y55113D02*
X187242Y55113D01*
X187242Y57304D02*
X185278Y57304D01*
X184742Y134122D02*
X182778Y134122D01*
X184742Y134122D02*
X184742Y119658D01*
X182778Y119658D01*
X182778Y134122D01*
X182778Y121849D02*
X184742Y121849D01*
X184742Y124040D02*
X182778Y124040D01*
X182778Y126231D02*
X184742Y126231D01*
X184742Y128422D02*
X182778Y128422D01*
X182778Y130613D02*
X184742Y130613D01*
X184742Y132804D02*
X182778Y132804D01*
X182242Y58622D02*
X180278Y58622D01*
X182242Y58622D02*
X182242Y44158D01*
X180278Y44158D01*
X180278Y58622D01*
X180278Y46349D02*
X182242Y46349D01*
X182242Y48540D02*
X180278Y48540D01*
X180278Y50731D02*
X182242Y50731D01*
X182242Y52922D02*
X180278Y52922D01*
X180278Y55113D02*
X182242Y55113D01*
X182242Y57304D02*
X180278Y57304D01*
X179742Y134122D02*
X177778Y134122D01*
X179742Y134122D02*
X179742Y119658D01*
X177778Y119658D01*
X177778Y134122D01*
X177778Y121849D02*
X179742Y121849D01*
X179742Y124040D02*
X177778Y124040D01*
X177778Y126231D02*
X179742Y126231D01*
X179742Y128422D02*
X177778Y128422D01*
X177778Y130613D02*
X179742Y130613D01*
X179742Y132804D02*
X177778Y132804D01*
X177242Y58622D02*
X175278Y58622D01*
X177242Y58622D02*
X177242Y44158D01*
X175278Y44158D01*
X175278Y58622D01*
X175278Y46349D02*
X177242Y46349D01*
X177242Y48540D02*
X175278Y48540D01*
X175278Y50731D02*
X177242Y50731D01*
X177242Y52922D02*
X175278Y52922D01*
X175278Y55113D02*
X177242Y55113D01*
X177242Y57304D02*
X175278Y57304D01*
X174742Y134122D02*
X172778Y134122D01*
X174742Y134122D02*
X174742Y119658D01*
X172778Y119658D01*
X172778Y134122D01*
X172778Y121849D02*
X174742Y121849D01*
X174742Y124040D02*
X172778Y124040D01*
X172778Y126231D02*
X174742Y126231D01*
X174742Y128422D02*
X172778Y128422D01*
X172778Y130613D02*
X174742Y130613D01*
X174742Y132804D02*
X172778Y132804D01*
X172242Y58622D02*
X170278Y58622D01*
X172242Y58622D02*
X172242Y44158D01*
X170278Y44158D01*
X170278Y58622D01*
X170278Y46349D02*
X172242Y46349D01*
X172242Y48540D02*
X170278Y48540D01*
X170278Y50731D02*
X172242Y50731D01*
X172242Y52922D02*
X170278Y52922D01*
X170278Y55113D02*
X172242Y55113D01*
X172242Y57304D02*
X170278Y57304D01*
X169742Y134122D02*
X167778Y134122D01*
X169742Y134122D02*
X169742Y119658D01*
X167778Y119658D01*
X167778Y134122D01*
X167778Y121849D02*
X169742Y121849D01*
X169742Y124040D02*
X167778Y124040D01*
X167778Y126231D02*
X169742Y126231D01*
X169742Y128422D02*
X167778Y128422D01*
X167778Y130613D02*
X169742Y130613D01*
X169742Y132804D02*
X167778Y132804D01*
X167242Y58622D02*
X165278Y58622D01*
X167242Y58622D02*
X167242Y44158D01*
X165278Y44158D01*
X165278Y58622D01*
X165278Y46349D02*
X167242Y46349D01*
X167242Y48540D02*
X165278Y48540D01*
X165278Y50731D02*
X167242Y50731D01*
X167242Y52922D02*
X165278Y52922D01*
X165278Y55113D02*
X167242Y55113D01*
X167242Y57304D02*
X165278Y57304D01*
X164742Y134122D02*
X162778Y134122D01*
X164742Y134122D02*
X164742Y119658D01*
X162778Y119658D01*
X162778Y134122D01*
X162778Y121849D02*
X164742Y121849D01*
X164742Y124040D02*
X162778Y124040D01*
X162778Y126231D02*
X164742Y126231D01*
X164742Y128422D02*
X162778Y128422D01*
X162778Y130613D02*
X164742Y130613D01*
X164742Y132804D02*
X162778Y132804D01*
X162242Y58622D02*
X160278Y58622D01*
X162242Y58622D02*
X162242Y44158D01*
X160278Y44158D01*
X160278Y58622D01*
X160278Y46349D02*
X162242Y46349D01*
X162242Y48540D02*
X160278Y48540D01*
X160278Y50731D02*
X162242Y50731D01*
X162242Y52922D02*
X160278Y52922D01*
X160278Y55113D02*
X162242Y55113D01*
X162242Y57304D02*
X160278Y57304D01*
X159742Y134122D02*
X157778Y134122D01*
X159742Y134122D02*
X159742Y119658D01*
X157778Y119658D01*
X157778Y134122D01*
X157778Y121849D02*
X159742Y121849D01*
X159742Y124040D02*
X157778Y124040D01*
X157778Y126231D02*
X159742Y126231D01*
X159742Y128422D02*
X157778Y128422D01*
X157778Y130613D02*
X159742Y130613D01*
X159742Y132804D02*
X157778Y132804D01*
X157242Y58622D02*
X155278Y58622D01*
X157242Y58622D02*
X157242Y44158D01*
X155278Y44158D01*
X155278Y58622D01*
X155278Y46349D02*
X157242Y46349D01*
X157242Y48540D02*
X155278Y48540D01*
X155278Y50731D02*
X157242Y50731D01*
X157242Y52922D02*
X155278Y52922D01*
X155278Y55113D02*
X157242Y55113D01*
X157242Y57304D02*
X155278Y57304D01*
X154742Y134122D02*
X152778Y134122D01*
X154742Y134122D02*
X154742Y119658D01*
X152778Y119658D01*
X152778Y134122D01*
X152778Y121849D02*
X154742Y121849D01*
X154742Y124040D02*
X152778Y124040D01*
X152778Y126231D02*
X154742Y126231D01*
X154742Y128422D02*
X152778Y128422D01*
X152778Y130613D02*
X154742Y130613D01*
X154742Y132804D02*
X152778Y132804D01*
X152242Y58622D02*
X150278Y58622D01*
X152242Y58622D02*
X152242Y44158D01*
X150278Y44158D01*
X150278Y58622D01*
X150278Y46349D02*
X152242Y46349D01*
X152242Y48540D02*
X150278Y48540D01*
X150278Y50731D02*
X152242Y50731D01*
X152242Y52922D02*
X150278Y52922D01*
X150278Y55113D02*
X152242Y55113D01*
X152242Y57304D02*
X150278Y57304D01*
X149742Y134122D02*
X147778Y134122D01*
X149742Y134122D02*
X149742Y119658D01*
X147778Y119658D01*
X147778Y134122D01*
X147778Y121849D02*
X149742Y121849D01*
X149742Y124040D02*
X147778Y124040D01*
X147778Y126231D02*
X149742Y126231D01*
X149742Y128422D02*
X147778Y128422D01*
X147778Y130613D02*
X149742Y130613D01*
X149742Y132804D02*
X147778Y132804D01*
X147242Y58622D02*
X145278Y58622D01*
X147242Y58622D02*
X147242Y44158D01*
X145278Y44158D01*
X145278Y58622D01*
X145278Y46349D02*
X147242Y46349D01*
X147242Y48540D02*
X145278Y48540D01*
X145278Y50731D02*
X147242Y50731D01*
X147242Y52922D02*
X145278Y52922D01*
X145278Y55113D02*
X147242Y55113D01*
X147242Y57304D02*
X145278Y57304D01*
D17*
X443166Y88600D02*
X443166Y98616D01*
X443166Y88600D02*
X434150Y88600D01*
X434150Y98616D01*
X443166Y98616D01*
X443166Y90741D02*
X434150Y90741D01*
X434150Y92882D02*
X443166Y92882D01*
X443166Y95023D02*
X434150Y95023D01*
X434150Y97164D02*
X443166Y97164D01*
X443166Y105600D02*
X443166Y115616D01*
X443166Y105600D02*
X434150Y105600D01*
X434150Y115616D01*
X443166Y115616D01*
X443166Y107741D02*
X434150Y107741D01*
X434150Y109882D02*
X443166Y109882D01*
X443166Y112023D02*
X434150Y112023D01*
X434150Y114164D02*
X443166Y114164D01*
X413830Y115616D02*
X413830Y105600D01*
X413830Y115616D02*
X422846Y115616D01*
X422846Y105600D01*
X413830Y105600D01*
X413830Y107741D02*
X422846Y107741D01*
X422846Y109882D02*
X413830Y109882D01*
X413830Y112023D02*
X422846Y112023D01*
X422846Y114164D02*
X413830Y114164D01*
X413830Y98616D02*
X413830Y88600D01*
X413830Y98616D02*
X422846Y98616D01*
X422846Y88600D01*
X413830Y88600D01*
X413830Y90741D02*
X422846Y90741D01*
X422846Y92882D02*
X413830Y92882D01*
X413830Y95023D02*
X422846Y95023D01*
X422846Y97164D02*
X413830Y97164D01*
X1029272Y100012D02*
X1029272Y110028D01*
X1038288Y110028D01*
X1038288Y100012D01*
X1029272Y100012D01*
X1029272Y102153D02*
X1038288Y102153D01*
X1038288Y104294D02*
X1029272Y104294D01*
X1029272Y106435D02*
X1038288Y106435D01*
X1038288Y108576D02*
X1029272Y108576D01*
X1029272Y93028D02*
X1029272Y83012D01*
X1029272Y93028D02*
X1038288Y93028D01*
X1038288Y83012D01*
X1029272Y83012D01*
X1029272Y85153D02*
X1038288Y85153D01*
X1038288Y87294D02*
X1029272Y87294D01*
X1029272Y89435D02*
X1038288Y89435D01*
X1038288Y91576D02*
X1029272Y91576D01*
X1006412Y100012D02*
X1006412Y110028D01*
X1015428Y110028D01*
X1015428Y100012D01*
X1006412Y100012D01*
X1006412Y102153D02*
X1015428Y102153D01*
X1015428Y104294D02*
X1006412Y104294D01*
X1006412Y106435D02*
X1015428Y106435D01*
X1015428Y108576D02*
X1006412Y108576D01*
X1006412Y93028D02*
X1006412Y83012D01*
X1006412Y93028D02*
X1015428Y93028D01*
X1015428Y83012D01*
X1006412Y83012D01*
X1006412Y85153D02*
X1015428Y85153D01*
X1015428Y87294D02*
X1006412Y87294D01*
X1006412Y89435D02*
X1015428Y89435D01*
X1015428Y91576D02*
X1006412Y91576D01*
D24*
X1137793Y513842D02*
X1143127Y513842D01*
X1143127Y502158D01*
X1137793Y502158D01*
X1137793Y513842D01*
X1137793Y504330D02*
X1143127Y504330D01*
X1143127Y506502D02*
X1137793Y506502D01*
X1137793Y508674D02*
X1143127Y508674D01*
X1143127Y510846D02*
X1137793Y510846D01*
X1137793Y513018D02*
X1143127Y513018D01*
X1132967Y513842D02*
X1127633Y513842D01*
X1132967Y513842D02*
X1132967Y502158D01*
X1127633Y502158D01*
X1127633Y513842D01*
X1127633Y504330D02*
X1132967Y504330D01*
X1132967Y506502D02*
X1127633Y506502D01*
X1127633Y508674D02*
X1132967Y508674D01*
X1132967Y510846D02*
X1127633Y510846D01*
X1127633Y513018D02*
X1132967Y513018D01*
D25*
X1148080Y508000D03*
X1122680Y508000D03*
D15*
X1193800Y203200D03*
D29*
X960197Y43543D02*
X954243Y43543D01*
X954243Y57497D01*
X960197Y57497D01*
X960197Y43543D01*
X960197Y45743D02*
X954243Y45743D01*
X954243Y47943D02*
X960197Y47943D01*
X960197Y50143D02*
X954243Y50143D01*
X954243Y52343D02*
X960197Y52343D01*
X960197Y54543D02*
X954243Y54543D01*
X954243Y56743D02*
X960197Y56743D01*
X945197Y43543D02*
X939243Y43543D01*
X939243Y57497D01*
X945197Y57497D01*
X945197Y43543D01*
X945197Y45743D02*
X939243Y45743D01*
X939243Y47943D02*
X945197Y47943D01*
X945197Y50143D02*
X939243Y50143D01*
X939243Y52343D02*
X945197Y52343D01*
X945197Y54543D02*
X939243Y54543D01*
X939243Y56743D02*
X945197Y56743D01*
X915197Y43543D02*
X909243Y43543D01*
X909243Y57497D01*
X915197Y57497D01*
X915197Y43543D01*
X915197Y45743D02*
X909243Y45743D01*
X909243Y47943D02*
X915197Y47943D01*
X915197Y50143D02*
X909243Y50143D01*
X909243Y52343D02*
X915197Y52343D01*
X915197Y54543D02*
X909243Y54543D01*
X909243Y56743D02*
X915197Y56743D01*
D10*
X966712Y25528D02*
X975728Y25528D01*
X975728Y20512D01*
X966712Y20512D01*
X966712Y25528D01*
X966712Y22653D02*
X975728Y22653D01*
X975728Y24794D02*
X966712Y24794D01*
D27*
X966744Y47496D02*
X975696Y47496D01*
X975696Y40544D01*
X966744Y40544D01*
X966744Y47496D01*
X966744Y42746D02*
X975696Y42746D01*
X975696Y44948D02*
X966744Y44948D01*
X966744Y47150D02*
X975696Y47150D01*
D10*
X902728Y25528D02*
X893712Y25528D01*
X902728Y25528D02*
X902728Y20512D01*
X893712Y20512D01*
X893712Y25528D01*
X893712Y22653D02*
X902728Y22653D01*
X902728Y24794D02*
X893712Y24794D01*
D27*
X893744Y47496D02*
X902696Y47496D01*
X902696Y40544D01*
X893744Y40544D01*
X893744Y47496D01*
X893744Y42746D02*
X902696Y42746D01*
X902696Y44948D02*
X893744Y44948D01*
X893744Y47150D02*
X902696Y47150D01*
D33*
X949720Y33020D03*
X919720Y33020D03*
D29*
X871297Y43543D02*
X865343Y43543D01*
X865343Y57497D01*
X871297Y57497D01*
X871297Y43543D01*
X871297Y45743D02*
X865343Y45743D01*
X865343Y47943D02*
X871297Y47943D01*
X871297Y50143D02*
X865343Y50143D01*
X865343Y52343D02*
X871297Y52343D01*
X871297Y54543D02*
X865343Y54543D01*
X865343Y56743D02*
X871297Y56743D01*
X856297Y43543D02*
X850343Y43543D01*
X850343Y57497D01*
X856297Y57497D01*
X856297Y43543D01*
X856297Y45743D02*
X850343Y45743D01*
X850343Y47943D02*
X856297Y47943D01*
X856297Y50143D02*
X850343Y50143D01*
X850343Y52343D02*
X856297Y52343D01*
X856297Y54543D02*
X850343Y54543D01*
X850343Y56743D02*
X856297Y56743D01*
X826297Y43543D02*
X820343Y43543D01*
X820343Y57497D01*
X826297Y57497D01*
X826297Y43543D01*
X826297Y45743D02*
X820343Y45743D01*
X820343Y47943D02*
X826297Y47943D01*
X826297Y50143D02*
X820343Y50143D01*
X820343Y52343D02*
X826297Y52343D01*
X826297Y54543D02*
X820343Y54543D01*
X820343Y56743D02*
X826297Y56743D01*
D10*
X877812Y25528D02*
X886828Y25528D01*
X886828Y20512D01*
X877812Y20512D01*
X877812Y25528D01*
X877812Y22653D02*
X886828Y22653D01*
X886828Y24794D02*
X877812Y24794D01*
D27*
X877844Y47496D02*
X886796Y47496D01*
X886796Y40544D01*
X877844Y40544D01*
X877844Y47496D01*
X877844Y42746D02*
X886796Y42746D01*
X886796Y44948D02*
X877844Y44948D01*
X877844Y47150D02*
X886796Y47150D01*
D10*
X813828Y25528D02*
X804812Y25528D01*
X813828Y25528D02*
X813828Y20512D01*
X804812Y20512D01*
X804812Y25528D01*
X804812Y22653D02*
X813828Y22653D01*
X813828Y24794D02*
X804812Y24794D01*
D27*
X804844Y47496D02*
X813796Y47496D01*
X813796Y40544D01*
X804844Y40544D01*
X804844Y47496D01*
X804844Y42746D02*
X813796Y42746D01*
X813796Y44948D02*
X804844Y44948D01*
X804844Y47150D02*
X813796Y47150D01*
D33*
X860820Y33020D03*
X830820Y33020D03*
D29*
X1043143Y43543D02*
X1049097Y43543D01*
X1043143Y43543D02*
X1043143Y57497D01*
X1049097Y57497D01*
X1049097Y43543D01*
X1049097Y45743D02*
X1043143Y45743D01*
X1043143Y47943D02*
X1049097Y47943D01*
X1049097Y50143D02*
X1043143Y50143D01*
X1043143Y52343D02*
X1049097Y52343D01*
X1049097Y54543D02*
X1043143Y54543D01*
X1043143Y56743D02*
X1049097Y56743D01*
X1034097Y43543D02*
X1028143Y43543D01*
X1028143Y57497D01*
X1034097Y57497D01*
X1034097Y43543D01*
X1034097Y45743D02*
X1028143Y45743D01*
X1028143Y47943D02*
X1034097Y47943D01*
X1034097Y50143D02*
X1028143Y50143D01*
X1028143Y52343D02*
X1034097Y52343D01*
X1034097Y54543D02*
X1028143Y54543D01*
X1028143Y56743D02*
X1034097Y56743D01*
X1004097Y43543D02*
X998143Y43543D01*
X998143Y57497D01*
X1004097Y57497D01*
X1004097Y43543D01*
X1004097Y45743D02*
X998143Y45743D01*
X998143Y47943D02*
X1004097Y47943D01*
X1004097Y50143D02*
X998143Y50143D01*
X998143Y52343D02*
X1004097Y52343D01*
X1004097Y54543D02*
X998143Y54543D01*
X998143Y56743D02*
X1004097Y56743D01*
D10*
X1055612Y25528D02*
X1064628Y25528D01*
X1064628Y20512D01*
X1055612Y20512D01*
X1055612Y25528D01*
X1055612Y22653D02*
X1064628Y22653D01*
X1064628Y24794D02*
X1055612Y24794D01*
D27*
X1055644Y47496D02*
X1064596Y47496D01*
X1064596Y40544D01*
X1055644Y40544D01*
X1055644Y47496D01*
X1055644Y42746D02*
X1064596Y42746D01*
X1064596Y44948D02*
X1055644Y44948D01*
X1055644Y47150D02*
X1064596Y47150D01*
D10*
X991628Y25528D02*
X982612Y25528D01*
X991628Y25528D02*
X991628Y20512D01*
X982612Y20512D01*
X982612Y25528D01*
X982612Y22653D02*
X991628Y22653D01*
X991628Y24794D02*
X982612Y24794D01*
D27*
X982644Y47496D02*
X991596Y47496D01*
X991596Y40544D01*
X982644Y40544D01*
X982644Y47496D01*
X982644Y42746D02*
X991596Y42746D01*
X991596Y44948D02*
X982644Y44948D01*
X982644Y47150D02*
X991596Y47150D01*
D33*
X1038620Y33020D03*
X1008620Y33020D03*
D19*
X1114853Y639692D02*
X1114853Y644228D01*
X1127389Y644228D01*
X1127389Y639692D01*
X1114853Y639692D01*
X1114853Y641814D02*
X1127389Y641814D01*
X1127389Y643936D02*
X1114853Y643936D01*
X1114853Y634728D02*
X1114853Y630192D01*
X1114853Y634728D02*
X1127389Y634728D01*
X1127389Y630192D01*
X1114853Y630192D01*
X1114853Y632314D02*
X1127389Y632314D01*
X1127389Y634436D02*
X1114853Y634436D01*
X1114853Y625228D02*
X1114853Y620692D01*
X1114853Y625228D02*
X1127389Y625228D01*
X1127389Y620692D01*
X1114853Y620692D01*
X1114853Y622814D02*
X1127389Y622814D01*
X1127389Y624936D02*
X1114853Y624936D01*
X1142355Y625228D02*
X1142355Y620692D01*
X1142355Y625228D02*
X1154891Y625228D01*
X1154891Y620692D01*
X1142355Y620692D01*
X1142355Y622814D02*
X1154891Y622814D01*
X1154891Y624936D02*
X1142355Y624936D01*
X1142355Y630192D02*
X1142355Y634728D01*
X1154891Y634728D01*
X1154891Y630192D01*
X1142355Y630192D01*
X1142355Y632314D02*
X1154891Y632314D01*
X1154891Y634436D02*
X1142355Y634436D01*
X1142355Y639692D02*
X1142355Y644228D01*
X1154891Y644228D01*
X1154891Y639692D01*
X1142355Y639692D01*
X1142355Y641814D02*
X1154891Y641814D01*
X1154891Y643936D02*
X1142355Y643936D01*
D29*
X874857Y522542D02*
X868903Y522542D01*
X868903Y533496D01*
X874857Y533496D01*
X874857Y522542D01*
X874857Y524742D02*
X868903Y524742D01*
X868903Y526942D02*
X874857Y526942D01*
X874857Y529142D02*
X868903Y529142D01*
X868903Y531342D02*
X874857Y531342D01*
X878403Y522542D02*
X884357Y522542D01*
X878403Y522542D02*
X878403Y533496D01*
X884357Y533496D01*
X884357Y522542D01*
X884357Y524742D02*
X878403Y524742D01*
X878403Y526942D02*
X884357Y526942D01*
X884357Y529142D02*
X878403Y529142D01*
X878403Y531342D02*
X884357Y531342D01*
X887903Y522542D02*
X893857Y522542D01*
X887903Y522542D02*
X887903Y533496D01*
X893857Y533496D01*
X893857Y522542D01*
X893857Y524742D02*
X887903Y524742D01*
X887903Y526942D02*
X893857Y526942D01*
X893857Y529142D02*
X887903Y529142D01*
X887903Y531342D02*
X893857Y531342D01*
X893857Y548544D02*
X887903Y548544D01*
X887903Y559498D01*
X893857Y559498D01*
X893857Y548544D01*
X893857Y550744D02*
X887903Y550744D01*
X887903Y552944D02*
X893857Y552944D01*
X893857Y555144D02*
X887903Y555144D01*
X887903Y557344D02*
X893857Y557344D01*
X874857Y548544D02*
X868903Y548544D01*
X868903Y559498D01*
X874857Y559498D01*
X874857Y548544D01*
X874857Y550744D02*
X868903Y550744D01*
X868903Y552944D02*
X874857Y552944D01*
X874857Y555144D02*
X868903Y555144D01*
X868903Y557344D02*
X874857Y557344D01*
D17*
X875348Y564452D02*
X865332Y564452D01*
X865332Y573468D01*
X875348Y573468D01*
X875348Y564452D01*
X875348Y566593D02*
X865332Y566593D01*
X865332Y568734D02*
X875348Y568734D01*
X875348Y570875D02*
X865332Y570875D01*
X865332Y573016D02*
X875348Y573016D01*
X882332Y564452D02*
X892348Y564452D01*
X882332Y564452D02*
X882332Y573468D01*
X892348Y573468D01*
X892348Y564452D01*
X892348Y566593D02*
X882332Y566593D01*
X882332Y568734D02*
X892348Y568734D01*
X892348Y570875D02*
X882332Y570875D01*
X882332Y573016D02*
X892348Y573016D01*
X875348Y508572D02*
X865332Y508572D01*
X865332Y517588D01*
X875348Y517588D01*
X875348Y508572D01*
X875348Y510713D02*
X865332Y510713D01*
X865332Y512854D02*
X875348Y512854D01*
X875348Y514995D02*
X865332Y514995D01*
X865332Y517136D02*
X875348Y517136D01*
X882332Y508572D02*
X892348Y508572D01*
X882332Y508572D02*
X882332Y517588D01*
X892348Y517588D01*
X892348Y508572D01*
X892348Y510713D02*
X882332Y510713D01*
X882332Y512854D02*
X892348Y512854D01*
X892348Y514995D02*
X882332Y514995D01*
X882332Y517136D02*
X892348Y517136D01*
X902272Y544512D02*
X902272Y554528D01*
X911288Y554528D01*
X911288Y544512D01*
X902272Y544512D01*
X902272Y546653D02*
X911288Y546653D01*
X911288Y548794D02*
X902272Y548794D01*
X902272Y550935D02*
X911288Y550935D01*
X911288Y553076D02*
X902272Y553076D01*
X902272Y537528D02*
X902272Y527512D01*
X902272Y537528D02*
X911288Y537528D01*
X911288Y527512D01*
X902272Y527512D01*
X902272Y529653D02*
X911288Y529653D01*
X911288Y531794D02*
X902272Y531794D01*
X902272Y533935D02*
X911288Y533935D01*
X911288Y536076D02*
X902272Y536076D01*
M02*
